<svg width="1000" height="1000" viewBox="0 0 1000 1000" fill="none" xmlns="http://www.w3.org/2000/svg">
<path d="M171.242 866.841C258.766 761.431 422.289 718.347 566.573 737.727C668.119 751.367 763.966 797.545 828.754 866.853" fill="white"/>
<path d="M172.489 868.086C200.85 834.041 236.674 806.966 275.887 786.576C316.928 765.235 361.553 751.065 407.037 742.976C453.11 734.782 500.379 732.852 546.968 737.25C597.251 741.996 646.862 754.573 693.139 774.859C738.096 794.565 780.142 821.521 815.415 855.776C819.545 859.786 823.572 863.899 827.509 868.099C829.063 869.756 831.551 867.261 830.001 865.607C796.233 829.588 755.248 800.718 710.903 779.194C665.07 756.948 615.603 742.4 565.111 735.771C518.295 729.625 470.625 730.097 423.891 736.736C377.464 743.331 331.76 756.153 289.248 776.06C248.819 794.991 211.163 820.627 180.695 853.422C177.018 857.38 173.456 861.443 169.998 865.595C168.556 867.325 171.036 869.831 172.489 868.086Z" fill="#FF008C"/>
<path d="M499.071 794.963C512.559 789.421 526.248 784.227 540.112 779.389C550.712 775.69 561.568 772.166 572.97 771.113C584.372 770.059 596.531 771.717 605.685 777.552C614.839 783.386 620.2 793.91 616.761 803.148C615.218 807.294 612.244 812.26 615.709 815.474C618.63 818.183 623.831 817.231 627.962 816.11C654.745 808.844 682.243 803.454 710.079 800.013C721.853 798.558 732.63 798.564 744.167 799.173C691.33 767.504 630.068 746.255 566.577 737.727C543.629 734.645 520.193 733.149 496.654 733.226C493.962 736.33 491.654 739.711 489.386 743.054C481.059 755.328 472.707 767.645 466.343 780.729C462.958 787.69 460.169 795.681 463.776 802.562C469.257 813.015 491.044 798.26 499.071 794.963Z" fill="#FF008C"/>
<path d="M499.539 796.661C509.006 792.776 518.544 789.065 528.15 785.538C537.481 782.112 546.858 778.635 556.456 776.026C565.609 773.537 575.062 772.015 584.563 772.786C592.854 773.459 601.681 775.909 608.046 781.508C613.449 786.26 617.466 793.665 615.586 801.004C614.648 804.667 612.19 808.047 612.345 811.956C612.504 815.992 615.811 818.456 619.587 818.898C623.726 819.382 627.882 817.943 631.825 816.899C636.799 815.582 641.791 814.331 646.798 813.146C656.669 810.81 666.601 808.731 676.58 806.908C696.419 803.285 716.464 800.088 736.686 800.63C739.181 800.697 741.674 800.805 744.166 800.934C745.961 801.027 746.497 798.514 745.056 797.652C722.545 784.177 698.832 772.755 674.34 763.363C649.39 753.795 623.622 746.36 597.423 741.109C569.684 735.55 541.458 732.466 513.183 731.67C509.512 731.567 505.841 731.502 502.169 731.476C500.519 731.464 498.855 731.408 497.206 731.463C496.197 731.497 495.741 731.641 495.074 732.37C494.386 733.122 493.766 733.955 493.142 734.76C488.912 740.214 485.17 746.084 481.353 751.83C477.514 757.609 473.772 763.455 470.325 769.477C466.981 775.318 463.513 781.409 461.551 787.88C459.91 793.293 459.436 800.239 463.245 804.917C465.449 807.625 469.043 808.269 472.353 807.909C480.634 807.008 488.288 802.337 495.557 798.598C496.817 797.95 498.466 797.107 499.539 796.661C500.424 796.294 501.033 795.497 500.769 794.494C500.55 793.662 499.48 792.899 498.602 793.264C493.689 795.307 489.106 798.096 484.291 800.354C481.638 801.599 478.927 802.743 476.109 803.562C473.885 804.208 471.408 804.784 469.089 804.374C466.695 803.951 465.401 802.381 464.611 800.088C463.116 795.747 464.061 791.128 465.577 786.93C467.17 782.516 469.447 778.323 471.703 774.22C474.064 769.926 476.592 765.726 479.211 761.585C482.181 756.89 485.269 752.272 488.38 747.671C491.416 743.182 494.362 738.59 497.9 734.472L496.654 734.988C531.824 734.891 567.002 738.246 601.423 745.523C633.524 752.31 664.976 762.361 694.974 775.666C711.562 783.024 727.706 791.373 743.277 800.694L744.166 797.411C734.17 796.891 724.152 796.83 714.179 797.799C704.066 798.783 693.977 800.369 683.96 802.052C673.856 803.75 663.796 805.709 653.794 807.93C648.853 809.027 643.926 810.188 639.015 811.412C634.37 812.571 629.761 814.012 625.079 815.001C622.287 815.591 616.477 816.34 615.893 812.268C615.636 810.481 616.471 808.559 617.117 806.939C617.824 805.167 618.643 803.433 619.075 801.565C620.816 794.046 617.64 786.396 612.512 780.927C606.766 774.799 598.553 771.446 590.408 770.01C581.264 768.397 571.951 769.009 562.892 770.861C553.26 772.831 543.955 776.137 534.712 779.429C524.973 782.897 515.301 786.55 505.702 790.387C503.331 791.335 500.964 792.295 498.602 793.264C497.716 793.628 497.108 794.431 497.372 795.431C497.592 796.266 498.66 797.022 499.539 796.661Z" fill="#FF008C"/>
<path d="M769.612 602.888C755.093 617.044 738.696 629.823 720.845 640.941C712.751 645.979 703.748 650.25 695.056 654.489C684.598 659.589 668.589 661.72 668.291 673.306C667.189 716.105 656.014 756.465 639.576 796.751C634.321 809.63 613.876 829.701 599.001 811.081C596 807.324 595.047 802.702 594.124 798.238C589.191 774.388 583.099 750.709 575.869 727.281C574.046 721.374 570.964 712.462 564.241 709.081C556.272 705.075 551.325 711.926 546.004 716.766C533.919 727.761 524.263 740.453 514.686 753.027C502.647 768.835 490.609 784.643 478.57 800.45C476.097 803.697 473.301 807.163 468.963 808.382C464.383 809.669 459.136 807.942 455.928 804.897C446.276 795.738 448.16 779.566 449.019 768.421C451.901 731.039 459.051 693.892 470.339 657.662C471.221 654.83 472.129 651.824 471.13 649.019C470.134 646.224 467.428 644.142 464.838 642.209C450.814 631.743 437.42 620.653 425.206 608.669C419.216 602.791 413.849 597.074 407.133 591.846C400.011 586.302 393.931 579.892 388.004 573.447C379.603 564.314 371.277 554.752 367.518 543.633C365.785 538.507 365.085 532.977 366.873 527.865C370.871 516.43 387.425 511.286 400.135 514.566C410.813 517.322 419.416 523.849 428.577 529.238C441.603 536.901 456.315 540.823 470.267 546.567C485.83 552.973 502.604 557.963 519.397 561.496C520.4 561.707 521.455 561.909 522.458 561.693C523.685 561.428 524.603 560.592 525.448 559.795C554.452 532.415 584.371 506.351 617.763 482.641C626.013 476.783 634.689 470.968 644.966 468.22C649.889 466.904 655.485 466.385 660.039 468.439C668.331 472.178 668.955 481.846 668.376 489.766C666.258 518.779 662.638 547.714 657.531 576.461C691.821 571.048 724.182 557.202 749.624 537.056C750.76 536.156 751.931 535.219 753.404 534.792C757.011 533.747 760.946 536.332 762.079 539.407C763.212 542.482 762.34 545.797 761.463 548.931C770.56 541.21 780.766 534.452 790.592 527.385C793.687 525.16 797.572 522.782 801.449 523.817C806.029 525.039 807.161 530.028 807.081 534.082C806.578 559.85 789.595 583.403 769.612 602.888Z" fill="white"/>
<path d="M768.371 601.642C751.874 617.682 733.24 632.361 713.032 643.457C704.062 648.382 694.85 652.986 685.253 656.544C678.891 658.903 670.712 661.588 667.67 668.285C665.806 672.389 666.43 677.475 666.18 681.862C665.849 687.653 665.334 693.433 664.646 699.193C663.25 710.885 661.1 722.486 658.368 733.937C655.644 745.359 652.328 756.636 648.564 767.758C646.636 773.455 644.59 779.113 642.446 784.732C640.665 789.397 639.069 794.305 636.709 798.716C633.07 805.519 627.213 811.931 620.121 815.179C616.853 816.676 613.132 817.372 609.6 816.475C605.072 815.324 601.102 811.756 598.885 807.714C596.153 802.733 595.588 796.517 594.404 791.04C593.131 785.152 591.787 779.278 590.375 773.422C587.408 761.12 584.137 748.891 580.566 736.75C578.064 728.239 576.058 718.221 569.985 711.383C567.207 708.255 563.092 705.805 558.782 706.15C554.675 706.478 551.383 709.204 548.515 711.926C540.415 719.615 532.683 727.458 525.628 736.134C518.23 745.231 511.244 754.667 504.141 763.994C496.44 774.107 488.738 784.219 481.037 794.331C477.949 798.386 474.826 803.878 470.023 806.125C465.08 808.438 459.327 806.228 455.915 802.34C450.038 795.643 449.762 785.814 450.152 777.386C450.652 766.579 451.808 755.755 453.15 745.025C456.166 720.909 460.999 697.014 467.491 673.595C469.142 667.641 471.22 661.769 472.731 655.782C474.096 650.372 472.549 646.187 468.295 642.671C463.953 639.082 459.299 635.852 454.884 632.35C450.138 628.585 445.469 624.723 440.899 620.745C432.148 613.13 424.171 604.767 415.691 596.873C411.348 592.83 406.553 589.34 402.171 585.345C397.825 581.383 393.777 577.11 389.793 572.788C382.383 564.749 374.698 556.355 370.362 546.17C368.01 540.644 366.482 534.18 368.576 528.333C369.901 524.635 372.747 521.719 376.042 519.682C383.418 515.121 392.907 514.244 401.148 516.674C411.659 519.773 420.302 526.709 429.764 531.939C439.861 537.52 450.882 541.107 461.658 545.104C472.667 549.187 483.436 553.677 494.705 557.047C500.564 558.8 506.48 560.366 512.436 561.755C515.075 562.37 517.768 563.144 520.464 563.453C522.799 563.721 524.525 562.96 526.269 561.44C535.131 553.711 543.491 545.365 552.273 537.534C569.773 521.931 587.816 506.922 606.623 492.916C615.736 486.129 624.94 478.896 635.166 473.841C643.146 469.896 657.722 464.54 664.031 473.997C666.338 477.455 666.792 481.83 666.779 485.885C666.76 491.339 666.092 496.829 665.615 502.257C664.516 514.75 663.14 527.219 661.487 539.651C659.872 551.805 657.976 563.92 655.837 575.992C655.589 577.395 656.621 578.38 658.004 578.159C689.285 573.163 719.763 561.267 745.378 542.493C747.044 541.272 748.684 540.015 750.312 538.745C752.085 537.362 753.864 535.91 756.248 536.466C762.031 537.816 760.959 544.166 759.769 548.463C759.271 550.262 761.427 551.262 762.713 550.177C770.364 543.72 778.605 538.032 786.774 532.261C790.328 529.749 794.676 525.473 799.277 525.333C803.41 525.208 805.066 528.973 805.293 532.527C805.797 540.418 803.633 548.771 800.873 556.092C797.821 564.184 793.407 571.738 788.387 578.758C782.482 587.016 775.62 594.551 768.371 601.642C766.748 603.23 769.24 605.721 770.862 604.133C784.703 590.594 797.566 575.05 804.392 556.703C806.032 552.296 807.28 547.739 808.018 543.093C808.67 538.994 809.265 534.601 808.582 530.471C808.024 527.096 806.284 523.859 802.996 522.5C798.533 520.654 793.961 522.91 790.297 525.446C780.069 532.529 769.736 539.656 760.222 547.686L763.166 549.4C764.272 545.406 765.326 540.744 762.82 537.036C761.039 534.402 757.827 532.626 754.619 532.813C750.554 533.05 747.267 536.741 744.179 539.024C740.881 541.463 737.497 543.786 734.039 545.993C719.335 555.376 703.342 562.669 686.696 567.852C677 570.871 667.093 573.161 657.067 574.762L659.234 576.929C663.691 551.772 667.05 526.421 669.25 500.966C670.02 492.062 672.302 480.843 667.359 472.673C661.888 463.629 650.289 464.503 641.539 467.411C630.682 471.019 621.336 477.862 612.164 484.5C602.514 491.483 593.055 498.731 583.769 506.192C565.046 521.238 547.055 537.173 529.508 553.569C527.52 555.427 525.623 557.495 523.494 559.185C521.184 561.02 516.828 559.154 514.184 558.545C508.224 557.173 502.305 555.623 496.44 553.888C484.637 550.397 473.376 545.683 461.849 541.431C450.847 537.373 439.637 533.673 429.471 527.717C419.995 522.166 410.935 515.298 400.053 512.73C391.919 510.812 382.816 511.918 375.467 515.938C367.116 520.507 363.003 528.74 364.39 538.208C366.005 549.232 373.01 558.878 380.043 567.156C387.548 575.99 395.569 584.785 404.608 592.075C414.021 599.666 422.191 608.485 431.069 616.667C439.882 624.79 449.136 632.418 458.643 639.713C461.017 641.535 463.498 643.252 465.803 645.162C468.218 647.162 470.084 649.353 469.741 652.7C469.443 655.608 468.242 658.465 467.399 661.253C466.416 664.501 465.466 667.759 464.549 671.026C461.197 682.965 458.28 695.025 455.814 707.178C451.168 730.071 447.859 753.448 446.658 776.792C446.22 785.299 446.527 794.743 451.349 802.108C456.751 810.359 467.602 813.59 475.469 806.645C479.573 803.023 482.643 797.995 485.938 793.668C489.833 788.554 493.728 783.44 497.623 778.325C505.417 768.091 513.169 757.821 521.018 747.628C528.243 738.245 535.739 729.022 544.283 720.795C547.637 717.565 551.054 713.602 555.023 711.128C559.507 708.332 564.192 710.149 567.493 713.875C570.359 717.109 572.051 721.299 573.406 725.347C575.227 730.787 576.789 736.325 578.376 741.836C581.916 754.129 585.151 766.511 588.073 778.966C589.547 785.248 590.941 791.548 592.255 797.865C593.322 802.99 594.414 808.141 597.76 812.327C603.001 818.884 610.906 822.076 619.06 819.363C637.426 813.252 643.45 792.634 649.269 776.417C657.366 753.849 663.717 730.601 667.156 706.848C667.988 701.102 668.663 695.334 669.156 689.549C669.408 686.584 669.613 683.615 669.77 680.643C669.918 677.826 669.724 674.848 670.165 672.067C671.374 664.436 681.388 661.717 687.502 659.457C697.177 655.88 706.506 651.109 715.517 646.108C726.013 640.284 735.968 633.333 745.485 626.034C754.361 619.228 762.842 611.931 770.862 604.133C772.491 602.55 769.999 600.06 768.371 601.642Z" fill="#FF008C"/>
<path d="M640.977 668.656C622.405 669.939 603.672 669.243 585.139 667.835C547.123 664.948 511.152 660.61 475.185 649.559C472.189 648.638 469.993 648.2 468.169 648.291C468.692 650.889 467.869 653.612 467.064 656.196C460.363 677.704 455.077 699.526 451.219 721.526C474.191 730.558 499.11 735.971 524.198 740.445C530.674 732.375 537.54 724.533 545.398 717.384C550.906 712.373 556.027 705.28 564.277 709.428C571.237 712.928 574.427 722.154 576.315 728.269C578.471 735.256 580.518 742.266 582.478 749.294C583.339 749.371 584.2 749.455 585.062 749.522C610.898 751.541 637.212 748.983 661.858 742.145C667.741 719.371 671.382 696.247 671.997 672.392C672.08 669.156 673.354 666.638 675.371 664.574C664.963 663.12 651.087 667.958 640.977 668.656Z" fill="white"/>
<path d="M640.98 666.895C617.36 668.504 593.686 666.95 570.15 664.839C547.726 662.828 525.349 659.972 503.347 655.124C497.254 653.781 491.194 652.289 485.178 650.633C482.143 649.797 479.121 648.917 476.11 648C473.546 647.219 470.881 646.437 468.172 646.53C466.944 646.572 466.276 647.616 466.473 648.76C466.855 650.97 466.144 653.205 465.502 655.296C464.788 657.624 464.066 659.95 463.372 662.284C461.979 666.968 460.652 671.671 459.39 676.393C456.874 685.807 454.621 695.292 452.634 704.832C451.512 710.224 450.477 715.634 449.523 721.058C449.344 722.074 449.793 722.849 450.753 723.225C468.944 730.356 487.952 735.144 507.077 738.998C512.616 740.114 518.17 741.151 523.732 742.144C524.312 742.247 525.039 742.197 525.446 741.691C529.952 736.084 534.623 730.605 539.632 725.438C542.141 722.85 544.773 720.407 547.395 717.935C549.31 716.13 551.115 714.181 553.19 712.554C555.08 711.072 557.277 709.865 559.742 709.946C562.293 710.029 564.718 711.446 566.538 713.16C570.289 716.694 572.33 721.733 573.917 726.533C576.449 734.193 578.613 741.994 580.782 749.762C581.006 750.565 581.696 750.985 582.48 751.056C603.315 752.941 624.41 751.835 644.955 747.904C650.799 746.786 656.594 745.429 662.329 743.844C662.913 743.683 663.407 743.206 663.559 742.614C668.791 722.307 672.282 701.535 673.431 680.584C673.588 677.718 673.593 674.838 673.778 671.974C673.932 669.595 674.993 667.528 676.62 665.82C677.771 664.612 676.833 663.006 675.374 662.813C663.771 661.277 652.44 666.055 640.98 666.895C638.732 667.06 638.714 670.584 640.98 670.418C652.429 669.579 663.797 664.803 675.374 666.336L674.129 663.329C672.632 664.9 671.447 666.713 670.801 668.797C670.059 671.191 670.209 673.78 670.112 676.254C669.901 681.61 669.536 686.96 669.024 692.296C668.002 702.961 666.374 713.561 664.237 724.059C663.034 729.967 661.666 735.839 660.162 741.677L661.392 740.447C641.343 745.986 620.551 748.657 599.753 748.418C593.985 748.351 588.225 748.053 582.48 747.533L584.179 748.826C582.089 741.339 579.963 733.85 577.591 726.447C575.899 721.166 573.763 715.765 569.964 711.62C565.895 707.178 559.801 704.965 554.17 707.751C551.65 708.997 549.522 710.982 547.516 712.917C545.111 715.237 542.64 717.488 540.25 719.824C534.052 725.882 528.381 732.448 522.955 739.2L524.668 738.747C505.317 735.291 486.001 731.302 467.249 725.334C462.005 723.665 456.813 721.836 451.69 719.828L452.92 721.995C456.38 702.319 460.954 682.844 466.63 663.689C467.411 661.053 468.238 658.431 469.032 655.799C469.826 653.171 470.343 650.56 469.87 647.823L468.172 650.053C470.416 649.976 472.591 650.615 474.72 651.258C477.434 652.078 480.15 652.888 482.881 653.652C488.295 655.167 493.746 656.548 499.226 657.805C510.186 660.319 521.257 662.336 532.38 663.98C555.063 667.332 578.025 669.483 600.926 670.593C614.269 671.24 627.647 671.327 640.98 670.418C643.23 670.265 643.247 666.741 640.98 666.895Z" fill="#FF008C"/>
<path d="M463.951 655.745C463.827 667.124 490.046 671.126 500.022 672.901C524.954 677.337 550.127 681.018 575.544 682.53C596.889 683.799 618.908 685.514 640.173 684.016C646.57 683.565 653.002 683.11 659.221 681.767C664.664 680.592 671.378 678.557 675.538 675.21C679.407 672.097 678.512 666.755 676.206 662.833C639.965 668.586 600.689 668.812 563.977 665.551C542.071 663.605 520.708 658.69 499.458 653.792C490.027 651.619 480.596 649.445 471.165 647.271C469.43 646.872 467.602 646.426 466.37 645.319C463.217 647.248 463.982 652.839 463.951 655.745Z" fill="white"/>
<path d="M462.194 655.745C462.206 660.427 465.751 663.806 469.528 666.025C474.262 668.805 479.697 670.41 484.996 671.71C489.72 672.869 494.507 673.706 499.293 674.553C508.563 676.193 517.847 677.749 527.162 679.117C536.72 680.522 546.306 681.748 555.919 682.712C565.427 683.666 574.955 684.251 584.491 684.837C603.435 686.002 622.414 687.041 641.377 685.693C650.088 685.074 658.892 684.277 667.2 681.408C670.667 680.211 674.299 678.69 677.069 676.218C679.777 673.803 680.373 670.091 679.632 666.681C679.27 665.017 678.576 663.417 677.732 661.944C677.308 661.206 676.521 661.012 675.742 661.135C648.88 665.38 621.55 666.51 594.391 665.636C580.846 665.2 567.243 664.408 553.796 662.678C539.967 660.898 526.294 658.063 512.697 655.011C505.077 653.3 497.471 651.527 489.86 649.773C486.024 648.889 482.187 648.005 478.351 647.12C476.353 646.66 474.355 646.199 472.357 645.739C470.798 645.38 468.894 645.129 467.62 644.074C467.04 643.593 466.174 643.343 465.486 643.799C461.513 646.427 462.21 651.622 462.194 655.745C462.184 658.012 465.707 658.016 465.716 655.745C465.723 654.091 465.593 652.438 465.704 650.785C465.796 649.425 466.029 647.658 467.264 646.841L465.129 646.565C467.625 648.633 470.993 649.038 474.058 649.744C477.574 650.555 481.091 651.365 484.608 652.176C491.608 653.789 498.606 655.41 505.609 657.012C519.5 660.191 533.437 663.239 547.539 665.335C561.254 667.372 575.112 668.367 588.958 668.956C602.791 669.544 616.65 669.597 630.485 669.025C645.951 668.386 661.387 666.949 676.679 664.532L674.689 663.723C676.088 666.161 677.235 669.537 675.798 672.215C675.039 673.63 673.618 674.526 672.271 675.319C670.721 676.231 669.08 676.977 667.397 677.605C659.677 680.483 651.461 681.424 643.297 682.031C625.223 683.375 607.174 682.68 589.105 681.595C570.806 680.497 552.591 679.125 534.421 676.621C519.923 674.623 505.376 672.403 491.035 669.457C485.814 668.384 480.578 667.106 475.629 665.1C472.098 663.669 467.583 661.492 466.091 657.845C465.865 657.292 465.718 656.444 465.716 655.745C465.711 653.479 462.188 653.474 462.194 655.745Z" fill="#FF008C"/>
<path d="M480.892 653.897C479.03 657.973 478.472 662.409 479.405 666.804C479.602 667.735 480.694 668.276 481.572 668.034C482.536 667.769 483 666.801 482.802 665.867C482.092 662.523 482.491 658.833 483.934 655.676C484.33 654.811 484.181 653.779 483.302 653.265C482.545 652.822 481.29 653.028 480.892 653.897Z" fill="#FF008C"/>
<path d="M504.325 660.486C502.419 663.753 501.387 667.505 501.492 671.294C501.517 672.214 502.284 673.099 503.253 673.056C504.186 673.014 505.042 672.281 505.015 671.294C504.992 670.482 505.019 669.671 505.105 668.862C505.117 668.747 505.13 668.632 505.145 668.516C505.121 668.697 505.124 668.68 505.155 668.467C505.185 668.294 505.211 668.122 505.243 667.95C505.323 667.52 505.419 667.092 505.53 666.669C505.738 665.872 505.998 665.089 506.312 664.327C506.358 664.214 506.356 664.218 506.307 664.339C506.354 664.23 506.403 664.121 506.453 664.013C506.54 663.824 506.63 663.636 506.723 663.449C506.924 663.047 507.141 662.653 507.367 662.264C507.832 661.468 507.577 660.299 506.735 659.854C505.891 659.408 504.821 659.636 504.325 660.486Z" fill="#FF008C"/>
<path d="M530.216 667.518C529.76 670.084 529.303 672.651 528.847 675.217C528.686 676.121 529.091 677.159 530.077 677.384C530.936 677.579 532.071 677.123 532.244 676.153C532.701 673.587 533.157 671.021 533.614 668.455C533.774 667.551 533.37 666.512 532.383 666.288C531.524 666.092 530.389 666.548 530.216 667.518Z" fill="#FF008C"/>
<path d="M561.518 670.115C561.536 670.225 561.553 670.336 561.569 670.447L561.506 669.978C561.649 671.051 561.652 672.132 561.516 673.206L561.579 672.737C561.462 673.594 561.26 674.431 560.975 675.247C560.67 676.118 561.321 677.213 562.205 677.414C563.189 677.638 564.046 677.116 564.372 676.184C565.163 673.923 565.297 671.531 564.915 669.178C564.849 668.769 564.448 668.326 564.106 668.125C563.728 667.904 563.172 667.811 562.748 667.948C562.322 668.086 561.911 668.35 561.695 668.757C561.461 669.201 561.438 669.622 561.518 670.115Z" fill="#FF008C"/>
<path d="M593.568 671.302C593.364 673.321 593.161 675.341 592.958 677.36C592.915 677.783 593.185 678.317 593.474 678.606C593.779 678.911 594.28 679.141 594.719 679.122C595.175 679.101 595.647 678.952 595.965 678.606C596.298 678.242 596.431 677.85 596.481 677.36C596.684 675.341 596.888 673.321 597.091 671.302C597.134 670.879 596.864 670.345 596.575 670.056C596.27 669.751 595.768 669.521 595.33 669.54C594.874 669.561 594.401 669.71 594.084 670.056C593.75 670.42 593.617 670.812 593.568 671.302Z" fill="#FF008C"/>
<path d="M622.238 671.752C622.832 673.176 623.269 674.674 623.475 676.205C623.427 675.844 623.492 676.39 623.494 676.412C623.515 676.609 623.531 676.807 623.544 677.004C623.569 677.372 623.582 677.739 623.584 678.107C623.586 678.503 623.574 678.9 623.548 679.295C623.537 679.464 623.523 679.634 623.508 679.803C623.502 679.867 623.419 680.54 623.469 680.179C623.342 681.087 623.69 682.116 624.7 682.346C625.53 682.535 626.73 682.091 626.867 681.116C627.356 677.619 627.001 674.089 625.636 670.816C625.282 669.969 624.453 669.266 623.469 669.585C622.654 669.849 621.858 670.842 622.238 671.752Z" fill="#FF008C"/>
<path d="M452.609 384.686C451.812 364.697 436.502 347.078 415.967 337.5C413.922 336.546 411.766 335.707 409.464 335.368C406.887 334.988 404.245 335.251 401.647 335.515C399.532 335.73 397.254 336.009 395.73 337.265C392.535 339.9 397.081 343.794 399.115 345.753C411.222 357.415 414.545 373.719 415.936 389.181C417.051 401.57 417.132 414.494 411.116 425.833C406.739 434.082 399.281 441.183 396.61 449.935C396.437 450.501 396.291 451.127 396.599 451.651C397.256 452.769 399.211 452.519 400.59 452.067C416.372 446.887 430.093 437.381 439.301 425.386C448.51 413.391 453.179 398.971 452.609 384.686Z" fill="#FF008C"/>
<path d="M454.372 384.686C453.514 365.252 439.934 349.199 423.794 339.637C419.159 336.891 414.004 333.995 408.554 333.498C405.738 333.241 402.838 333.567 400.046 333.941C397.604 334.269 394.741 334.986 393.418 337.297C391.126 341.301 395.994 345.113 398.459 347.576C402.102 351.217 405.016 355.483 407.256 360.113C411.595 369.086 413.263 379.147 414.159 388.991C415.17 400.105 415.461 411.921 410.857 422.347C408.678 427.283 405.413 431.589 402.303 435.96C399.348 440.114 395.988 444.755 394.815 449.813C394.165 452.619 396.294 454.405 398.979 454.183C401.43 453.98 403.893 452.817 406.155 451.915C411.122 449.934 415.917 447.54 420.443 444.689C438.728 433.17 452.105 414.418 454.157 392.589C454.404 389.961 454.468 387.323 454.372 384.686C454.29 382.425 450.766 382.415 450.849 384.686C451.597 405.297 441.306 424.335 425.341 436.952C421.508 439.982 417.351 442.624 413.03 444.9C410.797 446.076 408.512 447.163 406.179 448.128C403.966 449.043 401.546 450.205 399.176 450.62C398.845 450.678 398.511 450.639 398.184 450.68C397.933 450.712 398.196 450.795 398.183 450.984C398.201 450.716 398.291 450.468 398.369 450.214C398.735 449.026 399.203 447.873 399.743 446.753C400.801 444.555 402.09 442.476 403.453 440.456C406.306 436.228 409.528 432.238 412.051 427.792C417.358 418.439 418.605 407.596 418.217 397.011C417.862 387.356 416.789 377.456 414.059 368.162C411.347 358.927 406.698 350.554 399.706 343.884C398.571 342.801 396.764 341.363 396.436 339.733C396.086 338 399.294 337.572 400.447 337.411C403.089 337.04 405.892 336.756 408.553 337.021C411.301 337.295 413.87 338.419 416.326 339.616C432.078 347.293 446.563 360.847 450.128 378.624C450.53 380.627 450.759 382.646 450.849 384.686C450.948 386.944 454.472 386.956 454.372 384.686Z" fill="#FF008C"/>
<path d="M649.13 671.626C649.494 672.107 649.82 672.615 650.094 673.154C650.161 673.286 650.222 673.422 650.287 673.556C650.435 673.865 650.153 673.197 650.282 673.543C650.385 673.818 650.486 674.093 650.568 674.375C650.65 674.655 650.719 674.938 650.774 675.225C650.794 675.332 650.812 675.439 650.829 675.546C650.857 675.738 650.851 675.689 650.81 675.401C650.819 675.473 650.826 675.545 650.833 675.617C650.887 676.193 650.88 676.772 650.822 677.348C650.73 678.268 651.698 679.149 652.584 679.11C653.617 679.063 654.247 678.334 654.345 677.348C654.61 674.711 653.765 671.952 652.172 669.847C651.884 669.466 651.599 669.17 651.119 669.038C650.698 668.922 650.136 668.974 649.762 669.215C649.038 669.682 648.535 670.84 649.13 671.626Z" fill="#FF008C"/>
<path d="M392.406 133.147C392.406 172.921 392.406 212.696 392.406 252.471C392.406 298.228 392.406 343.986 392.406 389.743C392.406 435.501 392.406 485.197 392.406 532.923C392.406 579.149 392.406 625.374 392.406 671.6C392.406 712.176 392.406 752.752 392.406 793.327V806.97C392.406 809.237 395.929 809.24 395.929 806.97C395.929 767.195 395.929 727.421 395.929 687.646C395.929 641.889 395.929 596.131 395.929 550.374C395.929 502.647 395.929 454.92 395.929 407.193C395.929 359.467 395.929 314.742 395.929 268.517C395.929 227.941 395.929 187.365 395.929 146.789V133.147C395.929 130.88 392.406 130.876 392.406 133.147Z" fill="#FF008C"/>
<path d="M649.301 403.955C652.846 393.058 655.269 381.763 655.297 370.434C655.31 364.798 654.712 359.133 653.14 353.647C652.341 350.857 651.7 348.709 649.307 346.654C646.732 344.443 644.135 342.248 641.58 340.02C639.936 338.587 636.952 336.798 637.608 334.538C638.023 333.11 639.387 332.03 640.777 331.143C644.957 328.475 649.987 326.764 655.192 326.241C656.531 326.106 657.941 326.057 659.173 326.519C660.06 326.852 660.786 327.425 661.493 327.987C664.966 330.749 668.461 333.532 671.283 336.78C683.089 350.371 683.154 367.475 683.579 383.621C683.748 390.018 683.849 396.691 680.566 402.458C678.669 405.79 675.656 408.652 672.002 410.684C667.956 412.935 664.108 412.439 659.406 412.345C655.043 412.258 649.496 411.268 648.744 407.639C648.489 406.408 648.909 405.159 649.301 403.955Z" fill="white"/>
<path d="M650.995 404.423C655.892 389.295 659.035 372.668 655.742 356.861C655.083 353.697 654.328 350.057 652.372 347.402C651.298 345.944 649.889 344.842 648.522 343.674C646.924 342.308 645.324 340.945 643.736 339.569C642.615 338.599 641.401 337.714 640.326 336.694C639.269 335.691 638.957 335.002 640.068 333.883C641.249 332.695 642.896 331.868 644.379 331.124C646.02 330.301 647.734 329.648 649.496 329.135C652.664 328.213 657.108 326.871 659.985 329.03C663.03 331.313 666.025 333.81 668.673 336.547C673.497 341.533 676.809 347.756 678.726 354.394C680.59 360.849 681.222 367.558 681.523 374.247C681.672 377.583 681.747 380.923 681.83 384.262C681.919 387.878 681.996 391.561 681.314 395.13C680.652 398.588 679.284 401.868 676.933 404.523C674.728 407.014 671.773 409.335 668.515 410.208C665.346 411.058 661.813 410.706 658.571 410.556C656.222 410.448 652.942 410.213 651.153 408.462C649.981 407.316 650.549 405.801 650.995 404.423C651.695 402.261 648.294 401.335 647.598 403.487C646.974 405.413 646.56 407.393 647.466 409.301C648.068 410.568 649.185 411.56 650.404 412.221C653.257 413.77 656.657 414.035 659.84 414.117C663.564 414.213 667.413 414.507 670.956 413.105C674.4 411.741 677.593 409.271 679.936 406.415C685.222 399.969 685.547 391.803 685.342 383.835C685.155 376.557 685.009 369.267 683.948 362.052C682.876 354.757 680.705 347.564 676.781 341.274C674.645 337.849 672.035 334.74 669.06 332.015C667.487 330.574 665.835 329.221 664.17 327.887C662.653 326.671 661.138 325.221 659.219 324.685C657.204 324.122 655.02 324.45 652.992 324.76C651 325.065 649.035 325.54 647.127 326.189C643.728 327.345 639.571 329.028 637.18 331.826C636.047 333.152 635.41 334.835 635.994 336.548C636.513 338.071 637.774 339.193 638.989 340.175C642.205 342.777 645.507 345.448 648.501 348.303C651.038 350.723 651.722 354.74 652.392 358.029C653.27 362.341 653.574 366.747 653.525 371.142C653.427 379.934 651.872 388.631 649.529 397.088C648.934 399.235 648.284 401.367 647.598 403.487C646.898 405.649 650.299 406.575 650.995 404.423Z" fill="#FF008C"/>
<path d="M637.319 406.155C640.163 404.637 643.869 405.262 647.095 406.068C668.958 411.53 666.681 380.612 664.023 369.555C661.823 360.404 657.085 351.702 650.355 344.295C648.116 341.83 644.362 336.686 640.486 336.489C636.859 336.306 632.249 340.74 628.917 341.862C622.063 344.163 614.265 343.287 607.233 341.407C600.201 339.528 593.55 336.694 586.438 335.042C568.855 330.96 549.755 334.506 533.574 341.606C528.061 344.025 522.699 346.878 516.655 348.097C504.341 350.581 491.797 345.924 480.023 341.993C458.515 334.811 435.641 329.709 412.522 330.32C405.612 330.503 401.543 332.044 396.625 335.872C409.892 338.971 420.899 347.433 427.405 357.674C433.912 367.914 436.209 379.79 435.76 391.405C448.109 389.526 461.187 391.256 472.263 396.233C483.179 401.139 491.837 408.892 501.493 415.414C511.149 421.935 522.852 427.475 535.174 426.596C548.87 425.618 560.001 417.057 572.982 413.241C582.244 410.518 592.233 410.277 602.037 410.063C611.936 409.848 622.955 409.973 630.163 415.705" fill="#84FF20"/>
<path d="M638.203 407.676C641.036 406.274 644.337 407.265 647.231 407.911C649.187 408.347 651.235 408.597 653.238 408.408C656.624 408.089 659.764 406.66 662.014 404.067C666.634 398.746 667.461 390.899 667.435 384.134C667.406 376.432 666.174 368.645 663.27 361.491C660.803 355.411 657.363 349.823 653.136 344.808C651.388 342.735 649.612 340.604 647.685 338.695C645.924 336.949 643.789 335.204 641.263 334.817C638.535 334.4 635.956 335.799 633.697 337.165C631.298 338.614 629.166 340.079 626.406 340.748C619.577 342.403 612.367 341.097 605.743 339.161C598.831 337.14 592.141 334.369 585.061 332.945C578.435 331.612 571.624 331.271 564.889 331.783C558.123 332.297 551.419 333.593 544.923 335.547C538.432 337.5 532.356 340.296 526.171 343.025C522.952 344.445 519.64 345.701 516.182 346.398C512.812 347.078 509.343 347.16 505.923 346.888C498.808 346.322 491.905 344.109 485.171 341.865C471.37 337.267 457.48 333.137 443.094 330.796C435.841 329.615 428.518 328.832 421.173 328.59C415.047 328.388 408.332 328.008 402.53 330.343C400.056 331.338 397.837 332.726 395.731 334.351C394.627 335.202 394.526 337.184 396.151 337.571C404.881 339.651 412.908 344.101 419.286 350.42C425.99 357.061 430.434 365.543 432.539 374.717C433.794 380.19 434.192 385.801 433.994 391.404C433.949 392.663 435.149 393.262 436.223 393.103C449.945 391.067 464.246 393.545 476.383 400.275C488.141 406.794 497.886 416.391 509.926 422.454C515.948 425.486 522.4 427.688 529.142 428.294C535.689 428.882 542.166 427.628 548.298 425.372C554.325 423.155 560.015 420.157 565.925 417.665C572.389 414.94 579.081 413.282 586.061 412.588C593.76 411.822 601.637 411.604 609.371 411.803C616.026 411.975 623.469 412.714 628.912 416.95C629.668 417.539 630.663 417.674 631.403 416.95C632.018 416.348 632.152 415.042 631.403 414.459C626.417 410.578 620.328 409.102 614.132 408.544C607.314 407.929 600.36 408.25 593.532 408.552C586.316 408.871 579.022 409.571 572.081 411.669C565.693 413.6 559.722 416.646 553.653 419.371C547.648 422.068 541.338 424.477 534.701 424.864C527.933 425.259 521.207 423.658 515.023 420.973C502.4 415.491 492.436 405.796 480.764 398.742C467.09 390.478 451.083 387.362 435.287 389.706L437.517 391.404C437.894 380.758 436.013 369.987 431.058 360.488C426.754 352.238 420.124 345.276 412.201 340.415C407.536 337.552 402.411 335.442 397.088 334.174L397.509 337.393C399.536 335.83 401.705 334.37 404.124 333.487C406.678 332.555 409.354 332.196 412.06 332.096C419.149 331.833 426.282 332.217 433.328 332.987C447.42 334.527 461.283 337.879 474.783 342.142C487.801 346.253 501.214 352.162 515.172 350.13C521.88 349.153 527.898 346.031 534.023 343.319C540.03 340.659 546.307 338.579 552.718 337.146C559.187 335.7 565.809 334.953 572.441 335.094C579.245 335.239 585.829 336.467 592.312 338.504C598.959 340.592 605.483 343.197 612.389 344.334C618.46 345.333 625.619 345.65 631.257 342.745C633.616 341.529 635.708 339.777 638.168 338.756C640.477 337.798 642.266 338.575 644.083 340.149C645.945 341.763 647.468 343.709 649.104 345.54C651.273 347.967 653.273 350.512 655.04 353.247C659.949 360.845 662.837 369.458 663.634 378.336C664.216 384.811 664.315 392.186 661.582 398.218C660.411 400.803 658.724 403.003 656.121 404.147C652.677 405.661 648.997 404.562 645.4 403.889C642.341 403.317 639.273 403.224 636.425 404.634C634.393 405.64 636.176 408.68 638.203 407.676Z" fill="#FF008C"/>
<path d="M629.633 460.377C636.346 443.513 641.455 422.031 635.165 404.561C632.066 395.952 653.904 398.948 657.754 401.879C659.816 403.449 660.711 405.816 661.384 408.09C665.787 422.983 665.18 440.291 661.289 455.227C660.061 459.941 658.077 465.003 653.225 467.556C649.135 469.708 643.968 469.557 639.164 469.233C634.813 468.939 629.341 467.688 628.832 464.028C628.659 462.788 629.161 461.56 629.633 460.377Z" fill="white"/>
<path d="M631.327 460.845C636.445 447.94 640.243 433.949 639.739 419.956C639.614 416.483 639.205 413.001 638.451 409.606C638.095 408.004 637.657 406.42 637.13 404.866C636.964 404.376 636.766 403.894 636.656 403.388C636.542 402.864 636.656 403.587 636.635 403.284C636.622 403.107 636.619 402.93 636.633 402.752C636.589 403.331 636.87 402.023 636.683 402.573C636.719 402.467 636.814 402.306 636.89 402.223C636.593 402.547 636.92 402.205 636.967 402.155C637.218 401.887 637.867 401.528 638.197 401.406C639.825 400.806 641.311 400.693 643.03 400.659C646.696 400.585 650.451 401.078 653.964 402.132C654.318 402.239 654.67 402.352 655.017 402.476C655.177 402.533 655.336 402.592 655.494 402.654C655.99 402.847 655.194 402.509 655.652 402.718C656.333 403.028 656.877 403.375 657.398 403.924C659.518 406.159 660.116 409.855 660.777 412.753C663.966 426.727 663.217 441.986 659.318 455.749C658.452 458.805 657.23 461.893 654.922 464.157C652.318 466.713 648.718 467.502 645.179 467.634C641.698 467.765 637.956 467.672 634.582 466.723C633.363 466.38 631.949 465.902 631.102 464.903C630.064 463.679 630.81 462.147 631.327 460.845C632.164 458.737 628.758 457.822 627.93 459.908C627.264 461.585 626.716 463.359 627.284 465.153C627.715 466.518 628.653 467.581 629.799 468.403C632.259 470.168 635.558 470.681 638.5 470.942C645.608 471.574 653.748 471.398 658.587 465.334C660.607 462.804 661.838 459.778 662.715 456.685C663.759 453.003 664.508 449.222 665.072 445.438C666.258 437.488 666.577 429.4 665.736 421.397C665.322 417.458 664.659 413.539 663.658 409.705C662.755 406.247 661.665 402.496 658.597 400.326C655.752 398.314 651.538 397.823 648.184 397.418C644.312 396.952 639.733 396.7 636.135 398.485C634.692 399.2 633.506 400.452 633.198 402.069C633.021 402.998 633.123 403.948 633.401 404.848C633.926 406.547 634.506 408.206 634.915 409.941C638.416 424.783 634.88 440.686 629.872 454.758C629.257 456.486 628.607 458.202 627.93 459.908C627.094 462.016 630.5 462.931 631.327 460.845Z" fill="#FF008C"/>
<path d="M644.123 452.492C645.733 445.753 645.819 438.508 646.247 431.668C646.685 424.689 650.358 409.46 642.799 404.518C640.415 402.96 637.764 403.278 635.088 402.617C632.249 401.917 629.534 400.426 626.868 399.361C614.101 394.266 599.675 392.176 585.626 393.385C573.44 394.433 561.742 397.881 549.739 399.943C537.735 402.006 524.763 402.584 513.7 398.144C505.317 394.779 498.806 388.849 491.037 384.56C477.349 377.004 459.617 374.913 444 379.012C441.84 379.58 439.621 380.315 438.163 381.776C436.477 383.465 436.115 385.8 435.821 387.995C433.326 406.658 432.174 425.435 415.876 439.809C412.603 442.696 408.878 445.408 404.894 447.578C401.324 449.523 397.726 450.334 395.195 453.419C402.898 458.226 415.131 454.512 423.161 452.186C433.428 449.213 444.612 446.425 454.945 449.23C461.593 451.034 467.108 454.976 473.433 457.475C485.845 462.38 497.684 467.23 511.72 468.022C526.398 468.85 541.41 466.118 554.166 459.877C559.641 457.198 564.824 453.885 570.925 452.465C581.151 450.085 590.713 453.48 600.076 456.573C608.452 459.339 618.801 461.467 627.762 461.989C632.74 462.28 638.428 461.745 641.477 458.41C643.018 456.726 643.624 454.578 644.123 452.492Z" fill="#84FF20"/>
<path d="M645.818 452.96C647.344 446.428 647.544 439.71 647.924 433.041C648.152 429.037 648.817 425.079 649.118 421.081C649.429 416.935 649.507 412.429 647.963 408.497C647.248 406.677 646.207 404.984 644.679 403.734C642.34 401.821 639.682 401.627 636.818 401.169C633.667 400.665 630.848 399.121 627.934 397.909C625.029 396.702 622.036 395.692 619.011 394.831C612.777 393.056 606.34 391.963 599.875 391.513C586.501 390.584 573.573 393.197 560.572 395.995C548.048 398.691 534.911 401.272 522.127 398.767C516.087 397.584 510.679 395.099 505.511 391.806C500.511 388.619 495.78 384.996 490.493 382.277C479.96 376.86 467.805 374.562 456.01 375.325C453.055 375.517 450.104 375.896 447.199 376.471C444.386 377.028 441.347 377.632 438.836 379.081C433.776 381.999 433.983 388.523 433.327 393.63C431.995 404.005 430.522 414.689 425.771 424.145C420.51 434.617 411.332 442.836 400.703 447.642C398.187 448.78 395.769 450.038 393.947 452.173C393.21 453.037 393.274 454.317 394.303 454.94C400.867 458.915 409.251 457.605 416.312 455.892C424.569 453.888 432.584 450.889 441.097 450.063C445.719 449.615 450.411 449.76 454.896 451.046C459.05 452.237 462.838 454.331 466.669 456.279C470.6 458.277 474.682 459.871 478.787 461.469C482.909 463.073 487.058 464.618 491.285 465.924C508.701 471.309 527.545 471.249 544.892 465.529C549.059 464.154 553.097 462.426 556.997 460.418C560.867 458.426 564.671 456.233 568.828 454.881C577.93 451.919 587.117 454.191 595.921 457.056C604.42 459.822 612.917 462.094 621.809 463.199C628.754 464.063 638.829 465.208 643.531 458.647C644.737 456.964 645.336 454.949 645.818 452.96C646.352 450.757 642.956 449.817 642.421 452.023C641.955 453.948 641.433 455.961 639.995 457.409C638.847 458.566 637.322 459.228 635.768 459.645C632.08 460.634 628.149 460.33 624.393 459.964C615.827 459.128 607.404 457.145 599.244 454.444C590.694 451.614 581.9 448.933 572.802 450.317C564.099 451.64 556.915 457.068 548.912 460.313C532.665 466.901 514.109 468.278 497.122 463.917C492.909 462.836 488.779 461.462 484.699 459.961C480.622 458.462 476.495 456.959 472.523 455.199C468.654 453.485 465.003 451.322 461.128 449.62C457.06 447.833 452.871 446.699 448.426 446.398C439.415 445.786 430.485 448.229 421.914 450.712C415.214 452.653 407.683 455.059 400.652 453.639C399.022 453.31 397.504 452.76 396.081 451.898L396.438 454.665C398.251 452.539 400.716 451.49 403.205 450.357C406.007 449.082 408.649 447.512 411.169 445.744C415.976 442.371 420.347 438.415 423.919 433.743C430.258 425.453 433.4 415.443 435.169 405.279C436.08 400.045 436.694 394.765 437.381 389.498C437.68 387.212 437.798 384.368 439.688 382.756C441.788 380.964 445.106 380.486 447.725 379.951C458.993 377.649 470.959 378.525 481.8 382.346C487.273 384.275 492.221 387.14 497.023 390.365C501.859 393.613 506.624 397.017 512.002 399.331C523.392 404.23 536.2 403.843 548.219 401.967C561.196 399.942 573.853 395.97 586.999 395.038C599.618 394.144 612.422 395.88 624.3 400.256C627.084 401.281 629.725 402.645 632.51 403.661C633.884 404.163 635.272 404.488 636.72 404.686C638.192 404.886 639.78 404.962 641.145 405.606C644.563 407.216 645.47 411.45 645.689 414.864C645.959 419.066 645.424 423.276 644.921 427.441C644.303 432.55 644.241 437.694 643.806 442.819C643.543 445.919 643.129 448.992 642.421 452.023C641.906 454.229 645.302 455.171 645.818 452.96Z" fill="#FF008C"/>
<path d="M434.495 371.917C441.535 369.354 449.024 368.307 456.499 368.756C460.238 368.981 463.958 369.59 467.559 370.625C470.754 371.543 473.865 372.872 476.093 375.424C478.421 378.091 479.97 381.216 483.122 383.074C485.08 384.227 486.855 381.183 484.9 380.032C482.148 378.41 480.717 375.43 478.7 373.069C476.358 370.327 473.086 368.697 469.707 367.598C462.314 365.192 454.165 364.617 446.466 365.514C442.056 366.027 437.733 367 433.559 368.52C431.445 369.289 432.358 372.695 434.495 371.917Z" fill="#FF008C"/>
<path d="M415.691 333.454C428.507 341.382 438.786 353.689 442.515 368.46C443.069 370.657 446.468 369.726 445.912 367.523C441.962 351.877 431.041 338.807 417.469 330.412C415.535 329.216 413.764 332.262 415.691 333.454Z" fill="#FF008C"/>
<path d="M446.948 381.498C447.877 390.919 447.675 400.466 446.22 409.825C444.847 418.652 442.64 427.766 438.878 435.904C437 439.967 434.484 443.78 430.837 446.462C429.03 447.791 430.785 450.85 432.615 449.504C439.807 444.216 443.086 435.891 445.675 427.647C448.663 418.127 450.425 408.206 450.905 398.239C451.174 392.655 451.019 387.061 450.471 381.498C450.251 379.262 446.726 379.239 446.948 381.498Z" fill="#FF008C"/>
<path d="M435.88 397.225C437.655 397.232 438.795 397.352 440.412 397.71C441.181 397.881 441.94 398.09 442.687 398.34C443.07 398.469 443.45 398.607 443.826 398.757C443.835 398.761 444.334 398.976 444.042 398.845C444.25 398.938 444.459 399.032 444.666 399.129C445.498 399.521 446.605 399.389 447.076 398.497C447.489 397.715 447.334 396.506 446.444 396.087C443.133 394.528 439.543 393.716 435.88 393.701C434.959 393.697 434.076 394.514 434.119 395.463C434.162 396.42 434.893 397.22 435.88 397.225Z" fill="#FF008C"/>
<path d="M426.133 430.714C427.77 430.958 429.38 431.355 430.936 431.922C431.112 431.986 431.288 432.053 431.462 432.121C431.522 432.144 432.125 432.398 431.782 432.248C432.147 432.407 432.508 432.573 432.864 432.75C433.592 433.111 434.298 433.513 434.982 433.951C435.759 434.449 436.96 434.137 437.392 433.319C437.853 432.447 437.59 431.44 436.76 430.909C433.842 429.042 430.492 427.825 427.069 427.317C426.162 427.182 425.131 427.543 424.903 428.547C424.712 429.384 425.158 430.57 426.133 430.714Z" fill="#FF008C"/>
<path d="M429.803 358.597C430.909 358.036 432.015 357.476 433.121 356.916C433.501 356.724 433.82 356.265 433.931 355.863C434.047 355.442 433.994 354.88 433.753 354.506C433.511 354.13 433.149 353.799 432.7 353.696C432.222 353.588 431.782 353.651 431.343 353.874C430.237 354.434 429.131 354.994 428.025 355.555C427.645 355.747 427.326 356.206 427.215 356.607C427.099 357.029 427.152 357.591 427.393 357.965C427.636 358.341 427.997 358.672 428.446 358.774C428.924 358.883 429.364 358.819 429.803 358.597Z" fill="#FF008C"/>
<path d="M446.38 245.558C455.572 224.751 448.907 202.142 425.738 190.601C418.005 186.749 408.393 186.524 399.579 187.974C398.451 188.159 397.291 188.384 396.364 188.958C389.708 193.081 399.854 208.807 402.044 213.301C406.469 222.378 409.606 232.033 409.665 241.848C409.724 251.663 406.521 261.679 399.332 269.394C397.325 271.548 394.879 274.263 396.316 276.721C397.869 279.377 402.432 279.114 405.775 278.214C424.21 273.254 439.619 260.861 446.38 245.558Z" fill="#FF008C"/>
<path d="M447.898 246.447C451.131 239.06 452.793 230.958 451.86 222.892C450.949 215.027 447.797 207.715 442.767 201.603C437.158 194.788 428.976 189.011 420.397 186.742C415.438 185.431 410.21 185.167 405.111 185.546C402.583 185.735 399.873 185.931 397.425 186.622C395.746 187.097 394.249 188.059 393.351 189.582C391.839 192.15 392.317 195.446 393.068 198.173C393.982 201.49 395.485 204.656 397.057 207.706C398.322 210.16 399.737 212.537 400.925 215.03C403.34 220.097 405.329 225.385 406.58 230.864C408.817 240.656 408.33 251.139 403.663 260.177C402.53 262.373 401.189 264.48 399.62 266.392C398.012 268.351 395.959 270.086 394.834 272.398C393.819 274.484 393.881 276.919 395.58 278.639C396.999 280.075 399.085 280.546 401.038 280.6C405.469 280.723 410.053 278.913 414.095 277.283C418.418 275.541 422.574 273.411 426.465 270.842C433.851 265.965 440.352 259.624 444.968 252.041C446.064 250.24 447.039 248.372 447.898 246.447C448.288 245.572 448.144 244.563 447.266 244.037C446.518 243.589 445.243 243.802 444.856 244.669C437.997 260.036 423.445 271.001 407.592 275.858C405.678 276.444 403.736 277.025 401.72 277.076C400.476 277.108 398.195 277.062 397.713 275.577C397.119 273.748 399.802 271.495 400.864 270.327C402.466 268.564 403.92 266.652 405.182 264.633C410.072 256.812 412.007 247.376 411.265 238.233C410.501 228.823 407.355 219.434 402.9 211.137C400.214 206.133 396.91 200.93 396.014 195.226C395.835 194.09 395.813 192.984 396.112 191.998C396.413 191.009 397.111 190.378 398.362 190.02C400.65 189.364 403.176 189.199 405.541 189.039C407.973 188.875 410.417 188.864 412.848 189.045C421.655 189.703 429.701 193.836 436.159 199.76C441.589 204.742 445.62 211.083 447.455 218.244C449.229 225.168 448.851 232.468 446.818 239.292C446.273 241.121 445.621 242.92 444.856 244.669C444.471 245.547 444.605 246.551 445.488 247.079C446.231 247.524 447.517 247.317 447.898 246.447Z" fill="#FF008C"/>
<path d="M414.173 341.158C414.228 341.074 414.285 340.992 414.347 340.913L414.071 341.269C414.253 341.043 414.459 340.844 414.687 340.666L414.331 340.942C414.624 340.721 414.942 340.542 415.28 340.397L414.859 340.575C415.253 340.414 415.661 340.304 416.082 340.245L415.613 340.308C416.017 340.257 416.42 340.254 416.824 340.304L416.356 340.241C416.512 340.263 416.665 340.292 416.818 340.328C417.272 340.437 417.768 340.389 418.176 340.151C418.541 339.937 418.89 339.518 418.985 339.098C419.191 338.193 418.713 337.161 417.755 336.931C415.31 336.345 412.526 337.226 411.131 339.38C410.629 340.155 410.948 341.36 411.763 341.79C412.64 342.253 413.637 341.985 414.173 341.158Z" fill="#FF008C"/>
<path d="M348.235 826.273C346.916 822.02 349.161 817.155 353.539 814.776C357.917 812.396 364.093 812.686 368.133 815.459C368.068 812.337 368.611 808.959 371.164 806.7C373.717 804.44 378.825 804.132 380.779 806.783C381.364 807.577 381.696 808.608 382.694 809.012C385.018 809.952 390.774 794.207 402.07 798.571C406.545 800.301 409.055 805.31 406.737 808.976C412.571 807.561 419.401 810.252 421.862 814.936C424.323 819.62 422.103 825.7 416.944 828.4" fill="white"/>
<path d="M349.934 825.805C348.785 821.819 351.205 817.914 354.752 816.128C358.624 814.177 363.668 814.609 367.244 816.98C368.366 817.725 369.911 816.743 369.895 815.459C369.863 813.027 370.138 810.364 371.856 808.486C373.215 807.001 375.455 806.367 377.419 806.758C378.238 806.921 378.944 807.267 379.445 807.944C380.243 809.022 380.807 810.308 382.226 810.711C383.361 811.033 384.364 810.473 385.176 809.724C387.057 807.989 388.416 805.692 390.183 803.837C392.324 801.59 395.002 799.542 398.249 799.567C402.265 799.598 407.863 803.64 405.217 808.087C404.401 809.456 405.743 811.008 407.206 810.675C411.732 809.644 417.618 811.215 420.107 815.409C422.63 819.662 420.056 824.704 416.055 826.879C414.063 827.962 415.839 831.005 417.834 829.921C423.433 826.878 426.522 819.777 423.307 813.907C420.128 808.105 412.409 805.879 406.269 807.277L408.259 809.865C411.264 804.816 407.669 798.911 402.7 796.938C398.581 795.303 394.192 796.096 390.676 798.701C387.857 800.789 385.865 803.552 383.632 806.204C383.305 806.591 382.967 806.961 382.6 807.31C382.398 807.501 382.643 807.097 382.631 807.293C382.629 807.318 382.43 807.421 382.403 807.428C382.46 807.414 383.314 807.18 383.274 807.334C383.311 807.192 382.421 806.063 382.301 805.894C381.945 805.394 381.547 804.978 381.062 804.605C379.963 803.761 378.652 803.344 377.286 803.196C374.433 802.888 371.338 803.871 369.365 805.995C366.979 808.563 366.328 812.062 366.372 815.459L369.022 813.938C364.29 810.799 357.635 810.552 352.65 813.254C347.903 815.828 345.005 821.427 346.537 826.741C347.164 828.915 350.564 827.991 349.934 825.805Z" fill="#FF008C"/>
<path d="M379.747 834.945C379.77 834.934 380.254 834.736 379.934 834.857C380.089 834.798 380.244 834.742 380.402 834.691C380.692 834.597 380.988 834.52 381.286 834.456C381.422 834.428 381.559 834.404 381.696 834.379C382.211 834.282 381.367 834.388 381.891 834.355C382.2 834.335 382.506 834.31 382.815 834.308C383.125 834.306 383.435 834.318 383.744 834.342C383.912 834.355 384.082 834.371 384.249 834.394C383.935 834.352 384.369 834.42 384.45 834.435C385.056 834.547 385.655 834.708 386.236 834.917C386.742 835.098 386.968 835.197 387.608 835.57C387.863 835.719 388.108 835.882 388.351 836.049C388.416 836.094 388.48 836.141 388.544 836.189C388.416 836.09 388.401 836.079 388.497 836.157C388.596 836.241 388.696 836.324 388.793 836.411C389.021 836.617 389.237 836.835 389.44 837.066C389.468 837.098 389.727 837.419 389.588 837.238C389.45 837.057 389.69 837.386 389.714 837.422C389.879 837.669 390.014 837.928 390.154 838.19C390.328 838.513 390.087 837.927 390.204 838.309C390.247 838.449 390.296 838.586 390.337 838.727C390.601 839.641 391.578 840.212 392.504 839.957C393.415 839.707 393.999 838.708 393.734 837.791C392.847 834.722 390.219 832.662 387.329 831.577C384.311 830.444 380.884 830.521 377.969 831.903C377.109 832.31 376.886 833.542 377.337 834.313C377.852 835.193 378.884 835.354 379.747 834.945Z" fill="#FF008C"/>
<path d="M425.33 227.393C425.814 243.029 416.558 257.99 403.85 269.372C400.967 271.954 397.641 275.085 398.593 278.541C399.831 283.038 406.74 283.892 411.992 285.18C425.018 288.374 433.194 298.9 443.557 306.287C456.484 315.502 473.942 320.038 490.771 318.553C498.046 317.911 505.533 316.216 512.526 318.027C513.874 308.654 513.372 299.094 511.047 289.858C518.28 292.135 526.431 290.638 533.57 288.159C540.71 285.68 547.407 282.241 554.836 280.468C569.241 277.03 585.694 280.629 596.309 289.54C601.695 283.567 605.013 276.434 607.317 269.184C612.417 253.142 612.558 236.067 608.2 219.892C606.021 211.802 602.716 203.925 598.335 196.496C595.403 191.526 592.263 183.232 585.297 181.306C575.651 178.639 566.03 187.952 558.724 191.36C552.981 194.038 546.242 194.659 539.695 195.023C530.88 195.515 522.037 195.638 513.208 195.392C519.052 186.9 520.231 176.383 517.287 166.882C514.343 157.381 507.475 148.906 498.663 142.493C490.743 150.161 479.689 155.479 467.837 157.323C447.695 160.457 427.381 155.155 410.002 167.076C401.889 172.641 396.212 180.682 394.274 189.353C394.136 189.973 394.035 190.672 394.474 191.183C394.8 191.561 395.349 191.743 395.868 191.907C413.265 197.392 424.856 211.678 425.33 227.393Z" fill="#84FF20"/>
<path d="M386.82 519.969C388.937 527.052 395.62 526.6 401.485 530.761C406.823 534.548 410.518 540.075 411.109 545.977C412.362 558.472 399.47 566.784 385.414 562.021" fill="white"/>
<path d="M385.128 520.437C385.833 522.671 387.022 524.649 388.868 526.119C390.573 527.478 392.552 528.322 394.547 529.161C399.265 531.145 403.459 533.795 406.352 538.143C408.934 542.022 410.236 546.842 408.912 551.415C407.801 555.251 404.929 558.199 401.382 559.914C396.542 562.253 390.885 561.976 385.89 560.323C383.732 559.609 382.807 563.01 384.953 563.72C394.196 566.779 406.114 564.818 411.027 555.51C416.381 545.364 409.819 533.289 400.573 528.101C396.233 525.667 390.219 524.871 388.526 519.501C387.846 517.346 384.444 518.266 385.128 520.437Z" fill="#FF008C"/>
<path d="M423.564 227.394C423.882 239.688 418.087 251.16 410.252 260.322C408.157 262.772 405.908 265.088 403.539 267.273C401.299 269.34 398.732 271.372 397.416 274.202C396.237 276.737 396.515 279.541 398.344 281.682C399.913 283.519 402.318 284.491 404.569 285.183C407.105 285.964 409.731 286.383 412.289 287.077C415.11 287.842 417.779 288.999 420.315 290.447C425.334 293.31 429.679 297.141 434.044 300.888C438.584 304.787 443.22 308.549 448.467 311.467C454.036 314.564 460.064 316.875 466.251 318.389C473.41 320.14 480.856 320.878 488.218 320.493C496.103 320.081 504.219 317.782 512.055 319.725C512.888 319.932 514.086 319.459 514.222 318.495C515.589 308.762 515.113 298.935 512.742 289.39L510.576 291.557C522.917 295.31 534.95 289.444 546.241 285.088C551.788 282.948 557.456 281.315 563.421 281.009C568.8 280.734 574.191 281.332 579.378 282.784C585.059 284.374 590.509 287.003 595.06 290.785C595.759 291.366 596.871 291.547 597.551 290.785C606.585 280.663 610.848 266.892 612.45 253.641C614.155 239.534 612.319 225.028 607.447 211.696C606.25 208.422 604.879 205.208 603.343 202.079C601.972 199.286 600.374 196.63 598.893 193.898C596.527 189.533 594.249 184.877 590.188 181.819C580.042 174.179 568.574 183.927 559.776 188.834C553.368 192.409 545.893 192.937 538.712 193.315C530.218 193.762 521.708 193.86 513.205 193.63L514.726 196.281C519.452 189.314 521.379 180.771 520.28 172.439C519.211 164.33 515.382 156.936 510.157 150.723C507.05 147.03 503.437 143.821 499.549 140.972C498.918 140.51 497.937 140.746 497.414 141.247C488.676 149.638 477.016 154.508 465.067 155.941C452.77 157.416 440.282 156.133 428.04 158.201C416.065 160.224 405.05 166.371 398.077 176.477C396.475 178.799 395.163 181.293 394.117 183.912C393.656 185.067 393.258 186.246 392.93 187.446C392.523 188.93 391.98 190.684 392.95 192.072C393.769 193.243 395.224 193.532 396.498 193.967C397.914 194.451 399.307 194.997 400.666 195.624C403.112 196.754 405.462 198.093 407.672 199.636C416.773 205.991 423.17 216.161 423.564 227.394C423.644 229.654 427.168 229.665 427.088 227.393C426.736 217.401 422.177 208.041 415.011 201.141C411.167 197.439 406.638 194.428 401.759 192.272C400.576 191.75 399.378 191.262 398.161 190.824C397.592 190.62 396.854 190.509 396.332 190.208C395.621 189.797 396.066 190.429 395.97 189.821C395.917 189.486 396.191 188.892 396.279 188.562C396.969 185.978 397.988 183.514 399.293 181.182C405.154 170.707 415.783 164.172 427.375 161.89C439.281 159.547 451.557 160.868 463.577 159.63C477.031 158.245 490.05 153.202 499.906 143.739L497.771 144.014C509.732 152.779 519.397 166.99 516.622 182.446C515.841 186.795 514.163 190.849 511.684 194.502C510.903 195.653 511.951 197.119 513.205 197.153C520.482 197.35 527.764 197.308 535.037 197.01C541.736 196.735 548.667 196.528 555.133 194.586C560.447 192.991 564.829 189.789 569.538 186.985C573.921 184.374 579.212 181.614 584.469 182.911C589.158 184.068 591.907 188.458 594.096 192.417C596.856 197.408 599.737 202.351 602.03 207.581C607.529 220.119 610.128 233.934 609.442 247.61C609.061 255.192 607.637 262.701 605.229 269.901C602.991 276.595 599.785 282.999 595.06 288.294H597.551C589.046 281.226 577.981 277.642 566.988 277.43C561.208 277.319 555.479 278.228 549.986 280.012C543.972 281.965 538.268 284.745 532.271 286.741C525.626 288.953 518.356 290.24 511.512 288.159C510.192 287.758 509.031 289.06 509.345 290.326C511.552 299.213 512.099 308.481 510.825 317.558L512.991 316.328C506.088 314.616 499.101 315.939 492.163 316.656C485.716 317.323 479.18 317.189 472.781 316.134C460.584 314.123 449.387 309.087 439.865 301.215C435.474 297.584 431.293 293.695 426.662 290.362C421.958 286.977 416.832 284.47 411.169 283.178C408.751 282.626 406.261 282.174 403.95 281.25C402.215 280.557 400.041 279.3 400.189 277.13C400.371 274.452 403.268 272.264 405.092 270.617C407.489 268.453 409.782 266.179 411.921 263.758C420.778 253.736 427.441 241.068 427.088 227.393C427.029 225.13 423.506 225.122 423.564 227.394Z" fill="#FF008C"/>
<path d="M463.551 188.466C479.167 194.36 495.818 197.378 512.499 197.601C514.767 197.631 514.768 194.108 512.499 194.078C496.111 193.859 479.827 190.859 464.487 185.069C462.364 184.267 461.446 187.671 463.551 188.466Z" fill="#FF008C"/>
<path d="M452.671 272.607C460.928 273.924 469.076 275.89 477.008 278.543C484.674 281.107 491.877 284.617 499.308 287.754C503.505 289.526 507.793 291.05 512.281 291.889C514.497 292.304 515.447 288.909 513.218 288.492C505.26 287.003 498.075 283.322 490.729 280.095C483.223 276.798 475.466 274.106 467.522 272.078C462.93 270.905 458.286 269.956 453.607 269.21C452.66 269.059 451.723 269.454 451.44 270.44C451.2 271.277 451.733 272.458 452.671 272.607Z" fill="#FF008C"/>
<path d="M390.775 190.82C388.768 189.302 386.42 188.217 383.984 187.594C381.842 187.046 379.446 186.707 377.39 187.743C376.441 188.221 375.713 189.058 375.545 190.121C375.326 191.5 376.113 192.645 377.052 193.573C378.633 195.134 380.65 196.227 382.766 196.873C385.317 197.651 388.039 197.733 390.641 197.179L389.704 193.782C386.989 194.896 384.653 196.588 382.952 199.004C381.382 201.233 379.912 204.954 382.969 206.643C385.902 208.262 389.066 206.229 391.01 204.04C393.018 201.78 394.231 199.016 394.436 195.996C394.5 195.046 393.58 194.234 392.674 194.234C391.667 194.234 390.977 195.043 390.913 195.996C390.787 197.85 390.035 199.644 388.895 201.105C388.337 201.82 387.659 202.524 386.915 203.048C386.181 203.564 385.585 203.748 384.744 203.598C384.354 203.528 384.646 203.478 384.644 203.583C384.65 203.281 384.88 202.81 384.994 202.538C385.283 201.843 385.693 201.157 386.154 200.561C387.299 199.079 388.912 197.889 390.641 197.179C391.521 196.818 392.145 196.009 391.871 195.012C391.607 194.049 390.638 193.583 389.704 193.782C387.713 194.206 385.645 194.069 383.702 193.476C382.752 193.186 381.865 192.781 381.024 192.252C380.616 191.996 380.236 191.721 379.879 191.399C379.726 191.26 379.102 190.466 379.005 190.467C379.053 190.466 378.977 190.75 378.966 190.824C378.941 190.998 378.578 191.019 378.929 190.911C379.106 190.856 379.472 190.679 379.885 190.617C380.594 190.51 381.654 190.671 382.49 190.858C384.868 191.39 387.053 192.392 388.997 193.862C389.756 194.436 390.967 193.982 391.407 193.23C391.935 192.327 391.536 191.395 390.775 190.82Z" fill="#FF008C"/>
<path d="M395.589 269.509C391.977 266.819 386.351 265.764 382.168 267.674C380.086 268.624 378.463 270.853 379.619 273.139C380.729 275.335 383.601 276.034 385.847 276.189C388.426 276.367 391.166 275.684 393.295 274.202L391.16 271.435C388.414 274.489 383.24 277.329 385.102 282.236C385.867 284.255 387.648 285.778 389.875 285.792C392.402 285.808 394.276 283.973 395.458 281.917C397.011 279.215 398.146 276.24 398.824 273.201C399.317 270.992 395.921 270.049 395.427 272.265C394.819 274.99 393.851 277.614 392.47 280.044C392.042 280.796 391.525 281.665 390.717 282.063C390.36 282.238 390.057 282.299 389.68 282.262C389.956 282.289 389.478 282.208 389.418 282.189C389.216 282.12 389.191 282.11 389.344 282.16C389.24 282.105 389.139 282.044 389.041 281.978C389.257 282.129 388.849 281.786 388.799 281.733C388.721 281.642 388.719 281.646 388.794 281.745C388.724 281.648 388.659 281.548 388.598 281.445C388.421 281.144 388.366 281.034 388.267 280.518C388.321 280.801 388.251 280.163 388.251 280.085C388.252 279.725 388.188 280.219 388.269 279.838C388.38 279.32 388.423 279.288 388.734 278.801C389.972 276.869 392.129 275.619 393.651 273.926C394.236 273.276 394.351 272.319 393.789 271.613C393.28 270.974 392.248 270.65 391.516 271.16C389.841 272.326 387.878 272.805 385.847 272.665C384.983 272.606 384.01 272.423 383.263 271.964C383.088 271.856 382.685 271.481 382.738 271.489C382.702 271.357 382.704 271.355 382.745 271.481C382.754 271.554 382.733 271.618 382.682 271.671C382.827 271.587 382.722 271.55 382.851 271.406C383.958 270.169 386.438 270.191 388.02 270.324C390.121 270.5 392.126 271.296 393.81 272.551C394.574 273.12 395.778 272.676 396.221 271.919C396.746 271.021 396.354 270.079 395.589 269.509Z" fill="#FF008C"/>
<path d="M395.444 336.055C392.658 332.088 388.928 327.981 383.74 327.732C381.148 327.608 377.812 328.668 377.09 331.485C376.441 334.017 378.332 336.519 380.545 337.544C383.792 339.047 387.447 338.147 390.716 337.199L389.359 333.979C387.243 335.141 385.319 336.688 383.824 338.589C383.048 339.577 382.169 340.712 381.847 341.948C381.481 343.351 382.157 344.723 383.381 345.436C385.809 346.85 388.382 345.423 390.369 343.949C392.448 342.408 394.348 340.672 395.995 338.674C396.6 337.94 396.713 336.901 395.995 336.183C395.372 335.559 394.112 335.445 393.504 336.183C392.278 337.67 390.915 339.034 389.424 340.256C388.473 341.035 386.661 342.682 385.499 342.501C385.428 342.49 385.073 342.371 385.13 342.39C385.3 342.445 385.12 342.436 385.073 342.324C385.176 342.395 385.216 342.5 385.195 342.639C385.216 342.918 385.24 342.966 385.268 342.781C385.371 342.737 385.521 342.315 385.578 342.219C385.973 341.545 386.421 340.912 386.939 340.328C388.142 338.97 389.55 337.893 391.137 337.021C392.885 336.062 391.701 333.245 389.78 333.802C387.401 334.491 384.128 335.592 381.837 334.249C381.51 334.057 381.074 333.698 380.911 333.492C380.757 333.297 380.607 333.054 380.517 332.822C380.632 333.116 380.459 332.246 380.485 332.657C380.478 332.539 380.48 332.421 380.491 332.303C380.476 332.48 380.492 332.462 380.539 332.249C380.431 332.458 380.713 332.04 380.734 332.019C381.066 331.691 381.518 331.53 381.962 331.412C386.387 330.24 390.112 334.572 392.402 337.833C392.948 338.611 393.942 338.974 394.812 338.465C395.581 338.015 395.993 336.838 395.444 336.055Z" fill="#FF008C"/>
<path d="M394.559 448.989C390.565 444.611 384.209 441.593 378.23 441.63C375.348 441.648 372.529 443.141 372.227 446.246C371.986 448.725 373.569 451.198 375.698 452.371C378.963 454.169 382.913 453.8 386.465 453.376L385.22 450.369C382.784 452.554 380.889 455.269 379.766 458.348C378.891 460.746 377.874 464.635 380.211 466.542C383.441 469.178 386.502 464.815 388.362 462.692C390.945 459.744 393.527 456.796 396.11 453.848C397.598 452.149 395.116 449.648 393.618 451.357C391.61 453.65 389.601 455.943 387.593 458.236C386.636 459.327 385.68 460.419 384.723 461.511C384.294 462.001 383.058 463.881 382.349 463.787C382.41 463.795 382.502 463.962 382.435 463.856C382.362 463.743 382.345 463.554 382.329 463.424C382.271 462.984 382.354 462.51 382.423 462.075C382.604 460.942 382.925 459.806 383.371 458.748C384.335 456.464 385.876 454.506 387.711 452.86C388.775 451.906 387.995 449.671 386.466 449.853C383.62 450.193 380.123 450.763 377.477 449.329C376.263 448.671 374.741 446.367 376.511 445.465C377.713 444.853 379.411 445.166 380.673 445.395C382.14 445.662 383.587 446.065 384.975 446.611C387.677 447.676 390.112 449.336 392.068 451.48C393.599 453.159 396.085 450.662 394.559 448.989Z" fill="#FF008C"/>
<path d="M498.945 246.194C495.275 244.32 493.968 241.772 490.988 239.386C489.338 238.065 487.104 237.135 484.841 237.325C483.313 237.453 481.909 238.07 480.431 238.422C475.348 239.632 469.42 237.216 467.379 233.105C465.339 228.994 467.458 223.732 472.044 221.523C473.918 220.62 476.313 220.22 478.225 221.065C479.83 221.773 481.082 223.309 482.891 223.23C483.678 223.196 484.39 222.843 485.05 222.48C490.948 219.227 493.021 214.129 500.159 212.68C506.395 211.415 513.688 212.171 518.942 215.417C523.559 218.269 526.814 222.628 527.96 227.36C529.107 232.091 528.154 237.151 525.406 241.387C520.639 248.733 507.228 250.421 498.945 246.194Z" fill="white"/>
<path d="M482.006 227.652C481.689 231.194 482.636 234.792 484.49 237.809C484.973 238.594 486.089 238.965 486.901 238.441C487.688 237.934 488.049 236.871 487.533 236.031C487.316 235.678 487.109 235.319 486.919 234.951C486.831 234.781 486.745 234.609 486.664 234.435C486.637 234.378 486.378 233.775 486.512 234.107C486.229 233.406 485.993 232.687 485.815 231.952C485.726 231.587 485.652 231.219 485.592 230.849C485.574 230.744 485.558 230.638 485.543 230.533C485.571 230.736 485.573 230.733 485.547 230.524C485.534 230.365 485.516 230.206 485.504 230.046C485.445 229.248 485.457 228.449 485.529 227.653C485.611 226.732 484.66 225.851 483.767 225.891C482.742 225.937 482.094 226.666 482.006 227.652Z" fill="#FF008C"/>
<path d="M513.983 577.1C518.157 570.425 523.269 564.416 529.072 559.101C530.747 557.567 528.251 555.081 526.581 556.61C520.566 562.119 515.267 568.403 510.941 575.322C509.736 577.25 512.783 579.02 513.983 577.1Z" fill="#FF008C"/>
<path d="M656.878 569.031C655.735 574.484 655.137 580.045 655.133 585.617C655.131 587.884 658.654 587.887 658.656 585.617C658.66 580.352 659.195 575.12 660.275 569.967C660.47 569.037 660.002 568.063 659.045 567.8C658.171 567.56 657.074 568.095 656.878 569.031Z" fill="#FF008C"/>
<path d="M338.224 472.002C337.195 471.2 325.679 482.972 324.773 484.037C321.016 488.452 317.495 494.012 318.421 499.636C317.133 491.812 312.057 485.132 307.186 478.529C304.938 475.481 302.085 472.688 298.477 470.789C300.096 468.631 303.276 467.114 305.316 465.145C307.633 462.911 309.774 460.545 311.684 458.051C313.594 455.556 315.275 452.938 316.683 450.216C317.567 448.508 320.316 444.4 319.846 442.541C322.635 453.569 328.406 464.354 338.224 472.002Z" fill="#84FF20"/>
<path d="M291.272 360.339C290.25 359.647 278.821 369.805 277.921 370.724C274.193 374.534 270.697 379.332 271.616 384.185C270.338 377.433 265.3 371.669 260.465 365.971C258.234 363.341 255.402 360.931 251.82 359.292C253.427 357.43 256.584 356.12 258.609 354.422C260.909 352.494 263.034 350.452 264.93 348.3C266.825 346.148 268.494 343.887 269.891 341.539C270.769 340.065 273.497 336.52 273.031 334.916C275.799 344.433 281.527 353.74 291.272 360.339Z" fill="#84FF20"/>
<path d="M722.668 268.986C721.878 268.451 713.041 276.305 712.345 277.016C709.462 279.962 706.76 283.671 707.47 287.424C706.482 282.204 702.587 277.746 698.848 273.341C697.123 271.308 694.934 269.444 692.164 268.176C693.407 266.737 695.847 265.724 697.413 264.411C699.191 262.92 700.834 261.341 702.3 259.677C703.766 258.013 705.056 256.266 706.137 254.45C706.815 253.31 708.925 250.569 708.564 249.329C710.704 256.687 715.133 263.883 722.668 268.986Z" fill="#84FF20"/>
<path d="M568.702 540.047C572.907 545.793 580.374 548.17 587.264 547.182C588.207 547.047 588.724 545.849 588.494 545.015C588.216 544.003 587.273 543.649 586.328 543.785C581.156 544.526 574.913 542.6 571.744 538.269C571.183 537.502 570.215 537.121 569.333 537.637C568.577 538.079 568.137 539.275 568.702 540.047Z" fill="#FF008C"/>
<path d="M609.054 548.471C616.238 553.241 626.235 553.529 633.827 549.567C635.838 548.517 634.059 545.476 632.049 546.525C625.529 549.928 616.957 549.496 610.832 545.429C608.938 544.171 607.172 547.221 609.054 548.471Z" fill="#FF008C"/>
<path d="M647.945 470.063C627.956 469.494 607.8 474.175 590.969 483.295C588.29 484.747 585.643 486.35 583.78 488.529C581.917 490.709 580.935 493.576 581.901 496.137C583.112 499.349 586.97 501.297 590.748 502.385C597.264 504.262 604.276 504.449 611.16 504.414C622.775 504.354 634.386 503.712 645.911 502.491C648.399 520.478 651.005 538.824 660.092 555.228C663.225 547.282 666.358 539.337 669.491 531.391C674.442 518.835 679.429 506.136 680.776 492.951C681.266 488.154 681.252 483.228 679.512 478.643C677.771 474.058 674.098 469.82 668.878 467.88C665.941 466.788 662.666 466.467 659.459 466.567C658.003 466.613 656.518 466.75 655.202 467.278C652.655 468.299 650.352 470.777 647.707 469.952" fill="#FF008C"/>
<path d="M647.945 468.303C628.676 467.792 609.164 471.931 591.993 480.765C588.006 482.816 583.556 485.133 581.196 489.128C578.965 492.904 579.46 497.431 582.823 500.343C586.167 503.239 590.761 504.427 595.022 505.159C600.041 506.022 605.137 506.188 610.221 506.18C622.14 506.161 634.058 505.501 645.912 504.254L644.213 502.96C646.74 521.218 649.565 539.748 658.572 556.118C659.368 557.565 661.27 557.019 661.791 555.697C664.953 547.677 668.116 539.658 671.277 531.639C674.356 523.831 677.437 515.998 679.665 507.896C683.311 494.637 686.615 474.998 671.737 467.236C667.852 465.21 663.359 464.616 659.022 464.823C656.847 464.927 654.854 465.365 652.945 466.431C651.548 467.21 649.878 468.693 648.176 468.255C645.979 467.689 645.042 471.086 647.239 471.652C650.797 472.568 652.993 469.903 656.07 468.831C657.788 468.232 659.731 468.273 661.527 468.327C663.501 468.387 665.454 468.648 667.347 469.223C673.745 471.165 677.825 476.864 678.938 483.274C679.583 486.988 679.297 490.861 678.83 494.578C678.333 498.527 677.484 502.436 676.453 506.277C674.399 513.929 671.561 521.341 668.666 528.706C665.251 537.395 661.818 546.076 658.394 554.76L661.614 554.339C652.77 538.266 650.09 519.947 647.61 502.024C647.515 501.332 646.601 500.658 645.912 500.73C636.076 501.765 626.201 502.391 616.313 502.588C611.542 502.684 606.752 502.753 601.987 502.441C597.574 502.152 592.983 501.556 588.856 499.885C585.675 498.597 582.331 496.141 583.593 492.287C584.911 488.263 589.531 486.031 593.003 484.207C600.793 480.114 609.109 477.075 617.656 475.003C627.565 472.6 637.755 471.556 647.945 471.826C650.213 471.886 650.212 468.363 647.945 468.303Z" fill="#FF008C"/>
<path d="M588.969 561.142C589.02 560.975 589.078 560.812 589.146 560.651L588.968 561.072C589.132 560.698 589.34 560.351 589.587 560.026L589.312 560.383C589.622 559.985 589.98 559.634 590.377 559.323L590.02 559.599C590.483 559.245 590.984 558.956 591.518 558.725L591.098 558.903C591.678 558.661 592.282 558.495 592.906 558.41L592.438 558.473C592.61 558.451 592.782 558.435 592.956 558.425C593.874 558.371 594.762 557.654 594.718 556.664C594.677 555.756 593.941 554.844 592.956 554.902C589.754 555.091 586.533 557.011 585.572 560.205C585.307 561.088 585.89 562.165 586.802 562.372C587.752 562.589 588.685 562.087 588.969 561.142Z" fill="#FF008C"/>
<path d="M584.969 575.732C585.448 580.107 591.513 579.141 594.428 578.353C597.955 577.399 601.343 575.438 603.651 572.571C604.247 571.831 604.374 570.804 603.651 570.08C603.034 569.463 601.759 569.335 601.16 570.08C599.479 572.168 597.223 573.708 594.692 574.585C593.409 575.03 592.068 575.351 590.713 575.464C590.134 575.512 589.393 575.543 588.979 575.457C588.847 575.429 588.714 575.396 588.585 575.356C588.539 575.342 588.297 575.258 588.469 575.323C588.284 575.253 588.358 575.236 588.333 575.253C588.259 575.179 588.256 575.177 588.323 575.247C588.451 575.368 588.508 575.529 588.492 575.732C588.388 574.786 587.756 573.97 586.73 573.97C585.858 573.97 584.864 574.78 584.969 575.732Z" fill="#FF008C"/>
<path d="M601.374 567.932C601.5 568.988 601.625 570.045 601.751 571.102C601.742 571.345 601.792 571.571 601.903 571.781C601.974 571.999 602.095 572.188 602.267 572.348C602.572 572.653 603.074 572.883 603.512 572.864C603.968 572.843 604.441 572.693 604.758 572.348C605.052 572.027 605.328 571.555 605.274 571.102C605.148 570.045 605.023 568.988 604.897 567.932C604.906 567.689 604.856 567.463 604.745 567.253C604.674 567.035 604.553 566.846 604.381 566.686C604.076 566.381 603.574 566.15 603.135 566.17C602.68 566.191 602.207 566.34 601.89 566.686C601.596 567.007 601.32 567.479 601.374 567.932Z" fill="#FF008C"/>
<path d="M577.787 529.497C582.658 531.21 588.259 531.139 593.069 529.247C593.954 528.899 594.571 528.067 594.3 527.08C594.068 526.237 593.023 525.5 592.133 525.85C587.836 527.54 583.079 527.631 578.723 526.099C577.826 525.784 576.796 526.458 576.556 527.33C576.289 528.302 576.886 529.18 577.787 529.497Z" fill="#FF008C"/>
<path d="M631.719 528.958C630.146 526.49 628.041 524.438 625.602 522.83C624.353 522.007 623.021 521.345 621.64 520.777C620.259 520.208 618.203 519.7 617.112 521.106C616.529 521.857 616.38 522.865 617.112 523.597C617.719 524.204 619.017 524.353 619.603 523.597C619.769 523.383 619.574 523.598 619.455 523.652C619.328 523.711 619.051 523.684 619.354 523.719C619.517 523.738 619.533 523.752 619.367 523.714C619.499 523.744 619.629 523.775 619.759 523.815C620.38 524.006 620.652 524.146 621.166 524.386C622.256 524.897 623.303 525.499 624.29 526.189C625.917 527.326 627.607 529.058 628.677 530.736C629.188 531.537 630.244 531.861 631.087 531.368C631.886 530.901 632.233 529.763 631.719 528.958Z" fill="#FF008C"/>
</svg>
