<svg width="1000" height="1000" viewBox="0 0 1000 1000" fill="none" xmlns="http://www.w3.org/2000/svg">
<path d="M786.638 400.126C788.232 402.111 790.38 403.422 792.941 403.612L791.532 401.157C790.54 403.141 789.936 405.243 789.834 407.464C789.731 409.71 790.254 411.928 790.639 414.125C791.475 418.888 791.7 423.738 791.429 428.563C791.311 430.662 794.575 430.655 794.693 428.563C794.944 424.089 794.734 419.626 794.095 415.191C793.477 410.903 792.296 406.913 794.35 402.804C794.925 401.653 794.211 400.443 792.941 400.349C791.253 400.223 789.96 399.082 788.945 397.819C787.63 396.182 785.334 398.504 786.638 400.126Z" fill="#FF008C"/>
<path d="M744.926 431.877C748.118 431.318 749.099 427.388 749.399 424.672C749.787 421.165 749.02 417.634 747.874 414.333C745.516 407.541 742.243 401.105 741.283 393.889C740.845 390.604 740.626 386.797 742.109 383.733C743.454 380.953 745.892 378.52 748.328 376.667C753.322 372.87 759.332 371.886 765.264 373.935C772.288 376.362 777.224 382.242 780.731 388.551C781.752 390.387 784.571 388.743 783.549 386.904C780.29 381.04 775.89 375.584 769.863 372.407C764.066 369.352 757.28 368.561 751.185 371.216C748.222 372.507 745.574 374.478 743.31 376.772C741.053 379.059 739.02 381.724 738.249 384.899C736.533 391.963 738.848 399.831 741.308 406.432C742.784 410.392 744.678 414.246 745.675 418.368C746.137 420.281 746.369 422.259 746.181 424.226C746.053 425.57 745.726 428.438 744.059 428.73C741.994 429.091 742.869 432.237 744.926 431.877Z" fill="#FF008C"/>
<path d="M582.846 286.576C583.5 352.062 585.672 417.515 587.441 482.974C588.35 516.612 589.159 550.254 589.6 583.903C589.714 592.654 590.521 601.375 590.849 610.117C591.177 618.851 590.563 627.503 590.277 636.231C590.267 636.529 590.247 636.855 590.057 637.074C589.93 637.221 589.747 637.294 589.57 637.36C586.143 638.633 582.404 638.935 578.837 638.227C578.079 638.076 577.231 637.801 576.902 637.058C576.776 636.773 576.744 636.454 576.715 636.141C575.907 627.617 575.027 619.249 574.933 610.689C574.837 601.967 574.751 593.244 574.671 584.521C574.35 549.623 574.123 514.724 573.755 479.827C573.387 444.936 572.877 410.046 571.989 375.165C571.101 340.299 569.834 305.442 567.953 270.621C583.564 259.991 582.728 274.825 582.846 286.576Z" fill="#FF008C"/>
<path d="M581.213 286.576C581.694 334.222 582.969 381.855 584.312 429.484C585.647 476.807 587.046 524.13 587.788 571.467C587.88 577.312 587.879 583.163 588.104 589.004C588.338 595.075 588.8 601.135 589.091 607.203C589.37 613.014 589.326 618.812 589.109 624.625C589 627.525 588.864 630.424 588.75 633.324C588.723 634.032 588.771 634.803 588.669 635.503L588.644 636.23C588.551 635.86 588.307 635.848 587.914 636.195C586.584 636.323 585.299 636.836 583.936 636.927C582.596 637.017 581.228 636.98 579.901 636.767C579.324 636.675 578.722 636.663 578.346 636.14C578.098 635.798 578.184 634.445 578.143 634.012C577.85 630.955 577.555 627.898 577.301 624.837C576.83 619.155 576.594 613.481 576.533 607.781C576.406 596.001 576.296 584.221 576.194 572.44C575.782 524.977 575.496 477.513 574.739 430.053C573.985 382.738 572.762 335.424 570.481 288.156C570.198 282.31 569.899 276.464 569.584 270.62L568.776 272.029C572.007 269.863 577.946 266.044 579.968 271.464C581.707 276.124 581.169 281.697 581.213 286.576C581.233 288.675 584.496 288.68 584.477 286.576C584.443 282.896 584.527 279.19 584.114 275.527C583.796 272.704 583.277 269.525 581.283 267.346C579.233 265.105 576.145 265.003 573.416 265.911C571.31 266.612 569.177 267.719 567.392 269.035C566.228 269.893 566.325 270.701 566.399 272.081C566.49 273.786 566.58 275.491 566.669 277.195C568.051 303.865 569.081 330.552 569.865 357.245C570.646 383.827 571.184 410.416 571.583 437.007C571.983 463.603 572.243 490.201 572.47 516.799C572.697 543.371 572.889 569.943 573.153 596.515C573.218 603.13 573.159 609.762 573.47 616.371C573.77 622.738 574.388 629.089 575.015 635.431C575.278 638.1 576.298 639.449 579.034 639.914C581.754 640.377 584.526 640.31 587.224 639.737C588.416 639.483 589.876 639.221 590.88 638.483C591.87 637.755 591.883 636.626 591.932 635.504C592.08 632.119 592.213 628.734 592.344 625.349C592.599 618.805 592.621 612.289 592.281 605.747C591.934 599.074 591.42 592.407 591.264 585.725C590.954 572.442 590.858 559.152 590.59 545.867C590.052 519.282 589.349 492.701 588.609 466.121C587.867 439.498 587.086 412.875 586.394 386.251C585.7 359.504 585.096 332.754 584.713 306.001C584.621 299.526 584.542 293.051 584.477 286.576C584.455 284.477 581.192 284.472 581.213 286.576Z" fill="#FF008C"/>
<path d="M901.549 461.455C904.56 468.377 905.496 475.996 905.286 483.49C905.116 489.544 904.524 495.839 902.717 501.649C901.353 506.031 899.379 510.264 896.805 514.069C894.736 517.128 891.92 520.528 888.245 521.643C884.354 522.823 881.047 520.286 878.745 517.321C875.11 512.637 873.083 506.792 871.985 501.027C869.732 489.194 871.169 476.612 874.177 465.043C875.113 461.447 876.272 457.85 878.379 454.752C880.291 451.938 883.247 449.149 886.63 448.313C889.959 447.491 893.074 449.674 895.301 451.931C897.99 454.655 899.991 457.979 901.549 461.455C902.407 463.369 905.22 461.711 904.367 459.808C901.698 453.854 896.878 446.4 889.945 445.047C882.95 443.683 876.635 450.333 873.882 456.043C870.957 462.109 869.658 469.121 868.708 475.748C867.744 482.479 867.355 489.319 868.017 496.099C868.657 502.654 870.222 509.181 873.388 514.999C875.852 519.525 879.633 524.516 885.137 525.16C889.51 525.672 893.456 522.982 896.307 519.93C899.808 516.181 902.329 511.584 904.281 506.873C906.557 501.382 907.531 495.694 908.131 489.798C908.962 481.629 908.754 473.216 906.399 465.297C905.841 463.423 905.147 461.601 904.367 459.808C903.531 457.887 900.719 459.547 901.549 461.455Z" fill="#FF008C"/>
<path d="M794.505 447.984C797.702 446.626 800.806 445.025 803.655 443.037C805.04 442.072 806.384 440.993 807.325 439.592C809.147 436.877 809.205 433.4 809.908 430.207C810.906 425.67 815.036 420.43 819.488 424.708C824.653 429.674 829.191 435.292 832.958 441.387C833.534 442.318 834.103 443.291 834.269 444.373C834.45 445.554 834.132 446.753 833.752 447.886C831.223 455.424 825.781 461.799 819.173 466.221C812.565 470.643 804.841 473.205 796.995 474.497C781.574 477.037 765.279 474.676 751.522 467.261C748.8 465.794 746.155 464.117 743.978 461.921C739.885 457.791 737.746 452.164 735.718 446.714C735.479 446.07 741.031 448.405 741.39 448.551C743.842 449.544 746.377 450.358 748.932 451.041C753.925 452.376 759.065 453.154 764.228 453.374C774.551 453.815 784.986 452.025 794.505 447.984Z" fill="white"/>
<path d="M795.331 449.393C798.316 448.113 801.221 446.645 803.92 444.83C806.473 443.113 808.689 441.167 809.831 438.239C810.868 435.584 810.878 432.708 811.647 429.989C812.176 428.117 813.385 425.526 815.405 424.874C816.374 424.562 817.259 424.963 818.018 425.573C819.276 426.582 820.381 427.874 821.481 429.049C823.631 431.344 825.66 433.754 827.533 436.281C828.421 437.48 829.278 438.703 830.103 439.947C830.933 441.199 832.024 442.575 832.504 444.014C832.989 445.469 832.362 447.007 831.855 448.372C831.361 449.703 830.754 450.986 830.071 452.229C824.375 462.592 813.693 468.813 802.515 471.68C790.62 474.731 777.846 474.581 766.016 471.309C759.552 469.521 752.87 466.871 747.474 462.813C744.742 460.758 742.673 458.087 741.058 455.094C740.267 453.628 739.573 452.11 738.943 450.569C738.627 449.794 738.324 449.014 738.026 448.231C737.787 447.603 737.388 446.895 737.287 446.234L737.123 447.492C737.07 447.595 735.849 448.413 735.698 448.207C735.721 448.238 735.871 448.234 735.907 448.254C736.072 448.341 736.324 448.368 736.507 448.425C737.092 448.607 737.667 448.821 738.24 449.038C739.105 449.365 739.96 449.716 740.815 450.065C744.808 451.692 748.991 452.88 753.221 453.702C762.161 455.442 771.365 455.504 780.328 453.893C785.345 452.991 790.243 451.532 794.941 449.557C795.759 449.213 796.326 448.481 796.081 447.55C795.878 446.782 794.885 446.069 794.073 446.41C777.182 453.512 757.932 453.523 740.976 446.628C739.886 446.185 738.79 445.745 737.673 445.375C736.693 445.051 735.422 444.634 734.577 445.481C733.923 446.137 734.076 446.959 734.365 447.733C734.755 448.776 735.149 449.819 735.562 450.854C736.361 452.856 737.215 454.844 738.24 456.742C740.318 460.587 743.122 463.79 746.725 466.273C750.421 468.82 754.59 470.751 758.77 472.357C775.133 478.643 794.688 478.982 811.007 472.327C818.796 469.151 825.774 464.22 830.706 457.337C832.999 454.136 835.31 450.094 835.861 446.138C836.175 443.879 835.301 442.052 834.133 440.183C832.907 438.221 831.599 436.309 830.217 434.454C827.457 430.75 824.431 427.25 821.126 424.022C819.74 422.669 818.134 421.487 816.109 421.49C814.459 421.493 812.95 422.302 811.773 423.411C808.824 426.189 808.304 430.067 807.62 433.837C807.243 435.912 806.727 437.999 805.254 439.586C803.723 441.235 801.71 442.451 799.775 443.568C797.812 444.702 795.767 445.682 793.684 446.575C791.759 447.399 793.419 450.211 795.331 449.393Z" fill="#FF008C"/>
<path d="M800.431 521.245C778.653 522.947 756.489 521.983 735.593 520.386C719.499 519.156 703.46 517.207 687.54 514.548C678.463 513.032 669.234 512.946 660.099 511.965C653.784 511.287 641.577 510.628 637.404 504.982C636.876 504.269 636.45 503.421 636.505 502.536C636.669 499.892 638.992 497.964 639.148 495C639.247 493.124 638.852 491.299 638.466 489.485C637.205 483.567 635.123 477.71 633.469 471.888C629.88 459.258 626.291 446.628 622.703 433.997C621.592 430.086 620.477 426.162 619.862 422.143C619.69 421.017 619.56 419.844 619.9 418.757C622.23 411.307 642.072 415.912 646.735 417.854C658.892 422.917 664.55 436.511 672.383 447.098C673.897 449.143 675.618 451.177 677.959 452.175C680.217 453.137 682.771 453.016 685.22 452.845C694.792 452.173 704.327 450.966 713.766 449.234C720.288 448.037 727.22 447.498 733.867 447.065C734.741 447.009 735.647 446.963 736.463 447.279C737.325 447.613 737.984 448.31 738.66 448.94C741.319 451.421 744.61 453.117 747.948 454.558C769.499 463.862 795.073 463.331 816.219 453.142C820.38 451.137 824.462 448.705 827.388 445.132C828.464 443.819 829.426 442.317 830.926 441.522C833.46 440.178 837.898 443.299 840.311 444.286C844.233 445.89 848.141 447.534 851.97 449.35C859.505 452.924 866.854 457.186 872.868 463.034C877.682 467.715 882.046 473.464 882.645 480.152C883.216 486.537 880.168 492.856 875.688 497.441C871.208 502.025 865.416 505.094 859.538 507.652C841.098 515.678 820.935 519.643 800.431 521.245Z" fill="white"/>
<path d="M800.43 519.613C775.879 521.508 751.094 520.273 726.609 517.992C714.188 516.835 701.808 515.247 689.497 513.227C678.46 511.415 667.265 511.1 656.152 509.935C652.149 509.516 648.085 508.971 644.275 507.614C642.637 507.031 640.964 506.246 639.671 505.059C638.975 504.419 638.113 503.546 638.135 502.535C638.156 501.549 638.799 500.555 639.237 499.711C640.474 497.332 640.992 495.164 640.654 492.47C640.281 489.487 639.496 486.533 638.688 483.643C637.028 477.705 635.147 471.828 633.462 465.897C630.007 453.737 626.377 441.612 623.116 429.399C622.354 426.546 621.354 423.408 621.323 420.435C621.309 419.04 621.807 418.198 622.903 417.542C625.34 416.084 628.697 416.196 631.433 416.347C634.752 416.531 638.048 417.105 641.274 417.893C644.081 418.579 646.718 419.44 649.214 420.932C656.992 425.58 661.69 433.903 666.465 441.301C668.967 445.177 671.517 449.79 675.318 452.534C677.54 454.138 680.209 454.63 682.904 454.591C685.895 454.547 688.903 454.209 691.878 453.922C704.061 452.749 716.023 450.066 728.221 449.098C729.614 448.988 731.008 448.888 732.403 448.794C733.72 448.705 735.346 448.319 736.48 449.167C737.44 449.884 738.26 450.792 739.215 451.527C740.356 452.405 741.559 453.186 742.818 453.884C747.486 456.474 752.664 458.329 757.797 459.751C768.158 462.62 779.106 463.479 789.789 462.296C800.31 461.131 810.858 458.135 820.13 452.956C822.389 451.695 824.558 450.229 826.466 448.474C827.403 447.612 828.243 446.668 829.032 445.67C829.732 444.784 830.432 443.728 831.411 443.126C832.95 442.182 835.26 443.592 836.651 444.295C838.789 445.375 840.956 446.293 843.166 447.219C853.488 451.547 863.949 456.533 872.014 464.482C875.616 468.032 878.994 472.182 880.415 477.122C881.856 482.131 880.739 487.298 878.088 491.7C872.403 501.142 860.977 505.669 851.099 509.275C840.218 513.246 828.896 515.928 817.455 517.68C811.807 518.545 806.125 519.163 800.43 519.613C798.35 519.778 798.332 523.043 800.43 522.877C812.525 521.921 824.585 520.184 836.357 517.207C842.099 515.755 847.769 514.008 853.314 511.922C858.603 509.933 863.911 507.742 868.767 504.83C877.894 499.359 885.906 489.791 884.061 478.476C883.224 473.342 880.312 468.796 876.941 464.944C873.314 460.8 869 457.29 864.388 454.3C859.475 451.115 854.209 448.509 848.861 446.143C846.142 444.94 843.347 443.892 840.642 442.661C838.628 441.744 836.742 440.529 834.6 439.909C832.368 439.263 830.423 439.605 828.665 441.148C826.758 442.822 825.465 445.07 823.514 446.738C819.386 450.268 814.069 452.569 809.024 454.444C798.635 458.306 787.509 459.978 776.443 459.45C765.562 458.931 754.055 456.386 744.465 451.066C743.272 450.404 742.103 449.677 741.03 448.832C739.985 448.01 739.104 446.953 737.979 446.235C735.587 444.707 732.111 445.54 729.455 445.739C723.352 446.198 717.333 446.967 711.307 448.023C705.036 449.123 698.726 449.986 692.39 450.609C689.246 450.918 686.065 451.285 682.904 451.327C679.955 451.367 677.616 450.581 675.566 448.419C672.245 444.916 669.798 440.449 667.198 436.408C664.66 432.463 662.056 428.525 658.944 425.002C655.951 421.614 652.388 418.616 648.245 416.744C645.695 415.592 642.963 414.891 640.234 414.311C636.703 413.561 633.067 413.026 629.451 413.026C626.514 413.027 623.141 413.318 620.687 415.105C616.65 418.044 618.302 423.454 619.28 427.557C620.782 433.86 622.731 440.072 624.501 446.303C628.032 458.73 631.693 471.117 635.263 483.53C636.145 486.598 637.103 489.789 637.451 492.972C637.593 494.274 637.57 495.524 637.07 496.747C636.659 497.754 636.061 498.678 635.623 499.673C634.514 502.193 634.783 504.449 636.59 506.566C637.822 508.009 639.5 509.083 641.212 509.869C645.099 511.652 649.354 512.372 653.566 512.903C658.267 513.496 663.003 513.915 667.726 514.257C674.113 514.72 680.525 515.049 686.852 516.08C693.18 517.111 699.519 518.082 705.878 518.922C730.99 522.239 756.515 524.138 781.854 523.728C788.053 523.627 794.248 523.354 800.43 522.877C802.51 522.716 802.528 519.452 800.43 519.613Z" fill="#FF008C"/>
<path d="M787.027 575.381C777.118 545.99 770.56 513.881 763.9 483.589C756.809 484.559 746.495 487.94 740.876 488.679C740.368 494.101 741.848 499.192 743.067 504.407C748.899 529.357 751.542 554.965 757.302 579.932C757.98 582.869 758.735 585.875 760.481 588.332C765.732 595.726 776.76 594.909 785.685 593.299" fill="white"/>
<path d="M788.607 574.946C780.738 551.558 775.193 527.468 769.903 503.39C768.422 496.646 766.962 489.898 765.48 483.154C765.273 482.216 764.307 481.897 763.472 482.015C755.674 483.114 748.242 486.038 740.448 487.105C739.708 487.206 739.304 488.029 739.25 488.678C738.866 493.303 739.826 497.844 740.897 502.317C741.987 506.863 742.994 511.427 743.911 516.012C745.772 525.316 747.322 534.678 748.884 544.036C750.447 553.394 752.02 562.752 753.927 572.047C754.832 576.46 755.54 581.125 757.143 585.352C758.422 588.725 760.564 591.593 763.718 593.413C770.38 597.257 778.911 596.16 786.125 594.871C788.189 594.502 787.314 591.356 785.257 591.724C779.287 592.791 772.219 593.802 766.497 591.182C763.488 589.804 761.355 587.384 760.216 584.282C758.734 580.249 758.038 575.852 757.172 571.655C753.515 553.941 751.089 536.004 747.667 518.246C746.702 513.239 745.662 508.244 744.484 503.282C743.339 498.462 742.099 493.676 742.514 488.678L741.316 490.251C749.11 489.185 756.542 486.261 764.34 485.161L762.333 484.022C767.628 508.114 772.637 532.296 779.362 556.042C781.242 562.679 783.261 569.276 785.46 575.814C786.127 577.794 789.28 576.944 788.607 574.946Z" fill="#FF008C"/>
<path d="M778.82 480.882C771.028 481.628 763.323 483.287 755.915 485.816C755.332 486.015 754.693 486.269 754.428 486.826C754.218 487.268 754.302 487.786 754.391 488.268C759.539 516.261 762.473 544.841 768.335 572.912C769.323 577.647 770.39 582.495 773.02 586.554C775.651 590.614 780.214 593.779 785.034 593.367C791.114 592.847 795.299 587.198 798.435 581.963C815.427 553.596 826.312 521.59 830.137 488.744C830.246 487.812 830.338 486.813 829.901 485.982C829.355 484.942 828.149 484.462 827.035 484.089C818.729 481.31 809.973 479.879 801.215 479.868" fill="white"/>
<path d="M778.821 479.251C773.689 479.754 768.593 480.601 763.589 481.852C761.008 482.498 758.448 483.239 755.928 484.093C753.832 484.802 752.402 485.916 752.757 488.336C753.528 493.578 754.599 498.789 755.438 504.023C756.285 509.311 757.086 514.606 757.876 519.902C759.458 530.519 760.993 541.144 762.755 551.733C763.65 557.114 764.603 562.485 765.65 567.838C766.591 572.652 767.39 577.623 769.108 582.236C770.671 586.433 773.101 590.244 776.899 592.741C780.408 595.048 784.801 595.733 788.735 594.126C792.565 592.562 795.397 589.411 797.722 586.089C800.386 582.284 802.614 578.132 804.822 574.053C814.178 556.776 821.375 538.311 826.182 519.261C828.588 509.731 830.381 500.053 831.584 490.298C831.856 488.094 832.252 485.694 830.406 484.032C828.766 482.555 826.169 482.065 824.109 481.473C819.158 480.052 814.073 479.11 808.946 478.615C806.376 478.367 803.797 478.248 801.216 478.237C799.116 478.229 799.113 481.492 801.216 481.501C806.079 481.521 810.929 481.945 815.71 482.839C818.016 483.27 820.304 483.8 822.564 484.429C823.695 484.743 824.818 485.081 825.934 485.444C826.702 485.693 827.962 485.942 828.42 486.691C828.887 487.454 828.502 488.8 828.402 489.633C828.259 490.819 828.108 492.004 827.945 493.188C827.639 495.401 827.301 497.61 826.932 499.813C826.169 504.367 825.27 508.898 824.238 513.398C820.16 531.192 814.013 548.51 805.91 564.869C803.894 568.94 801.759 572.952 799.508 576.898C797.48 580.452 795.476 584.164 792.713 587.215C790.292 589.888 787.11 592.094 783.337 591.735C779.409 591.361 776.063 588.448 774.093 585.189C771.834 581.454 770.884 577.121 769.997 572.897C768.979 568.056 768.052 563.196 767.184 558.326C765.43 548.473 763.926 538.578 762.454 528.68C760.986 518.806 759.549 508.926 757.921 499.077C757.512 496.601 757.091 494.127 756.654 491.655C756.457 490.54 756.246 489.428 756.053 488.312C756.068 488.397 755.884 487.615 755.93 487.533C755.899 487.589 755.696 487.777 756.056 487.496C756.448 487.189 757.22 487.096 757.687 486.945C762.302 485.442 767.025 484.274 771.808 483.451C774.134 483.052 776.472 482.745 778.821 482.514C780.892 482.311 780.913 479.046 778.821 479.251Z" fill="#FF008C"/>
<path d="M746.623 516.338C750.339 515.541 754.055 514.744 757.77 513.948C758.632 513.763 759.134 512.755 758.91 511.941C758.665 511.049 757.767 510.616 756.903 510.801C753.187 511.598 749.471 512.394 745.755 513.191C744.893 513.376 744.392 514.384 744.616 515.198C744.861 516.09 745.758 516.523 746.623 516.338Z" fill="#FF008C"/>
<path d="M754.203 555.137C756.738 555.137 759.272 555.137 761.806 555.137C762.659 555.137 763.477 554.387 763.438 553.506C763.398 552.622 762.721 551.874 761.806 551.874C759.272 551.874 756.738 551.874 754.203 551.874C753.35 551.874 752.532 552.624 752.572 553.506C752.611 554.39 753.289 555.137 754.203 555.137Z" fill="#FF008C"/>
<path d="M883.892 481.336C884.212 481.281 883.67 481.336 883.992 481.327C884.147 481.323 884.301 481.317 884.457 481.323C884.524 481.326 884.904 481.376 884.701 481.338C884.491 481.299 884.713 481.344 884.745 481.352C884.853 481.378 884.961 481.4 885.068 481.429C885.196 481.464 885.322 481.504 885.447 481.549C885.51 481.571 885.572 481.595 885.634 481.619C885.574 481.596 885.344 481.477 885.609 481.618C885.867 481.754 886.119 481.894 886.358 482.061C886.399 482.09 886.62 482.267 886.463 482.135C886.316 482.011 886.487 482.16 886.506 482.178C886.606 482.269 886.707 482.357 886.803 482.452C886.914 482.563 887.021 482.678 887.124 482.798C887.168 482.849 887.21 482.901 887.253 482.953C887.161 482.841 887.148 482.808 887.239 482.945C887.398 483.189 887.527 483.447 887.676 483.696C887.769 483.85 887.656 483.633 887.647 483.61C887.671 483.671 887.695 483.733 887.717 483.796C887.777 483.962 887.829 484.131 887.87 484.303C887.885 484.363 887.962 484.748 887.927 484.541C887.892 484.333 887.927 484.55 887.929 484.587C887.933 484.676 887.94 484.764 887.942 484.853C887.945 484.987 887.938 485.12 887.932 485.254C887.931 485.291 887.905 485.518 887.933 485.299C887.961 485.077 887.921 485.346 887.911 485.388C887.851 485.644 887.776 485.886 887.686 486.133C887.78 485.873 887.73 486.025 887.651 486.176C887.577 486.317 887.496 486.454 887.409 486.586C887.319 486.723 887.203 486.85 887.382 486.642C887.291 486.748 887.203 486.856 887.107 486.958C887.024 487.046 886.939 487.131 886.851 487.213C886.807 487.254 886.762 487.295 886.717 487.334C886.68 487.367 886.408 487.578 886.601 487.435C886.773 487.308 886.471 487.522 886.422 487.554C886.32 487.621 886.217 487.685 886.112 487.745C885.989 487.816 885.862 487.877 885.737 487.943C885.704 487.961 885.519 488.059 885.71 487.961C885.905 487.861 885.67 487.977 885.625 487.993C885.339 488.093 885.053 488.182 884.755 488.242C884.697 488.253 884.635 488.259 884.578 488.274C884.382 488.324 884.908 488.257 884.596 488.269C884.456 488.274 884.318 488.287 884.178 488.287C884.019 488.288 883.859 488.264 883.702 488.267C883.505 488.27 883.848 488.286 883.84 488.288C883.784 488.303 883.663 488.257 883.606 488.245C883.45 488.212 883.295 488.171 883.144 488.121C883.089 488.103 883.029 488.072 882.973 488.061C882.769 488.023 883.312 488.218 882.973 488.058C882.203 487.694 881.177 487.818 880.741 488.644C880.358 489.369 880.503 490.487 881.326 490.876C884.206 492.238 887.78 491.357 889.764 488.856C890.848 487.488 891.368 485.851 891.134 484.107C890.91 482.443 890.004 480.856 888.711 479.783C887.082 478.433 885.122 477.825 883.024 478.19C882.181 478.337 881.631 479.415 881.884 480.197C882.178 481.105 882.988 481.494 883.892 481.336Z" fill="#FF008C"/>
<path d="M893.531 461.801C894.244 462.527 894.603 462.975 895.108 463.775C895.348 464.155 895.57 464.546 895.772 464.948C895.874 465.148 895.969 465.352 896.062 465.557C896.177 465.812 895.99 465.373 896.095 465.633C896.148 465.763 896.199 465.894 896.247 466.026C896.56 466.872 896.781 467.742 896.936 468.63C896.952 468.717 896.975 468.876 896.951 468.696C896.966 468.807 896.978 468.919 896.989 469.031C897.015 469.282 897.033 469.534 897.045 469.787C897.066 470.265 897.06 470.742 897.033 471.219C896.985 472.073 897.818 472.889 898.665 472.851C899.59 472.809 900.245 472.134 900.297 471.219C900.538 466.901 898.861 462.573 895.839 459.493C895.221 458.864 894.15 458.874 893.531 459.493C892.901 460.123 892.912 461.17 893.531 461.801Z" fill="#FF008C"/>
<path d="M900.131 483.388C902.231 483.388 902.234 480.125 900.131 480.125C898.031 480.125 898.028 483.388 900.131 483.388Z" fill="#FF008C"/>
<path d="M799.84 430.314C799.623 434.783 797.019 438.816 791.863 439.752C788.115 440.433 784.357 438.994 780.635 438.181C776.976 437.382 773.186 437.184 769.463 437.598C766.849 437.889 764.228 438.495 761.94 439.793C757.844 442.114 754.178 448.28 749.456 449.084C743.783 450.051 738.065 445.032 732.556 444.267C725.703 443.315 719.463 439.704 712.438 439.469C707.156 439.293 701.407 441.378 698.891 446.026C692.625 439.957 687.813 432.223 683.288 424.805C682.778 423.969 682.259 422.991 682.556 422.058C682.778 421.359 683.406 420.88 684.012 420.467C690.409 416.109 698.224 414.001 705.963 414.066C713.703 414.131 721.357 416.311 728.214 419.902C732.24 422.011 736.038 424.613 740.312 426.16C749.348 429.431 754.809 423.893 763.189 421.943C767.508 420.938 772.165 421.455 776.157 423.383C778.285 424.411 780.215 425.817 782.357 426.815C787.25 429.093 793.201 426.545 793.562 420.605C796.178 420.743 798.326 422.958 799.154 425.443C799.687 427.04 799.918 428.706 799.84 430.314Z" fill="#84FF20"/>
<path d="M678.644 427.388C679.441 426.57 680.293 425.81 681.196 425.11L680.865 425.365C681.511 424.868 682.181 424.403 682.873 423.971C683.596 423.52 683.945 422.494 683.458 421.739C682.99 421.014 682 420.67 681.225 421.153C679.451 422.261 677.797 423.583 676.337 425.081C675.74 425.692 675.682 426.787 676.337 427.388C676.981 427.98 678.008 428.041 678.644 427.388Z" fill="#FF008C"/>
<path d="M681.411 430.815C682.301 429.924 683.192 429.034 684.082 428.143C684.378 427.847 684.56 427.408 684.56 426.989C684.56 426.589 684.382 426.111 684.082 425.836C683.771 425.55 683.363 425.338 682.929 425.358C682.496 425.377 682.087 425.523 681.775 425.836C680.884 426.726 679.994 427.617 679.103 428.507C678.807 428.803 678.625 429.243 678.625 429.661C678.625 430.061 678.803 430.539 679.103 430.815C679.414 431.1 679.822 431.312 680.257 431.293C680.69 431.273 681.098 431.127 681.411 430.815Z" fill="#FF008C"/>
<path d="M685.03 435.623C685.133 435.459 685.244 435.299 685.361 435.145L685.106 435.475C685.429 435.057 685.803 434.683 686.219 434.358L685.889 434.614C686.252 434.334 686.643 434.095 687.058 433.901C687.409 433.737 687.709 433.285 687.808 432.926C687.916 432.535 687.867 432.015 687.644 431.669C687.419 431.32 687.085 431.013 686.669 430.919L686.235 430.86C685.94 430.861 685.666 430.936 685.411 431.083C684.752 431.391 684.151 431.822 683.607 432.303C683.064 432.782 682.596 433.364 682.212 433.976C681.99 434.327 681.938 434.838 682.047 435.233C682.151 435.612 682.444 436.022 682.797 436.208C683.176 436.408 683.634 436.509 684.054 436.373C684.467 436.239 684.796 435.994 685.03 435.623Z" fill="#FF008C"/>
<path d="M688.652 440.648C689.394 440.129 690.136 439.609 690.878 439.09C691.069 438.987 691.221 438.847 691.336 438.669C691.48 438.512 691.578 438.327 691.628 438.115C691.696 437.898 691.706 437.681 691.657 437.464C691.648 437.247 691.583 437.045 691.464 436.857C691.239 436.509 690.905 436.202 690.489 436.107C690.08 436.014 689.588 436.022 689.231 436.272C688.489 436.791 687.747 437.311 687.005 437.83C686.814 437.932 686.662 438.073 686.547 438.25C686.403 438.408 686.305 438.593 686.255 438.805C686.187 439.022 686.177 439.239 686.226 439.456C686.235 439.673 686.3 439.875 686.419 440.063C686.644 440.411 686.978 440.718 687.394 440.813C687.803 440.905 688.295 440.897 688.652 440.648Z" fill="#FF008C"/>
<path d="M693.451 446.063C693.624 445.748 693.82 445.448 694.038 445.163L693.783 445.493C694.141 445.031 694.555 444.615 695.016 444.255L694.686 444.51C694.823 444.405 694.963 444.304 695.107 444.209C695.461 443.973 695.741 443.653 695.857 443.234C695.925 443.017 695.934 442.8 695.886 442.583C695.876 442.366 695.811 442.164 695.692 441.976C695.467 441.628 695.133 441.321 694.717 441.226C694.303 441.132 693.825 441.148 693.46 441.391C692.297 442.163 691.307 443.188 690.633 444.416C690.426 444.793 690.353 445.253 690.469 445.673C690.573 446.052 690.866 446.462 691.219 446.648C691.597 446.848 692.056 446.949 692.476 446.813C692.875 446.684 693.245 446.44 693.451 446.063Z" fill="#FF008C"/>
<path d="M697.239 449.982C698.129 449.017 699.02 448.052 699.91 447.088C700.201 446.772 700.388 446.37 700.388 445.934C700.388 445.534 700.21 445.055 699.91 444.78C699.599 444.494 699.191 444.283 698.757 444.302C698.334 444.321 697.898 444.46 697.603 444.78C696.712 445.745 695.822 446.71 694.931 447.674C694.64 447.99 694.453 448.392 694.453 448.828C694.453 449.228 694.631 449.707 694.931 449.982C695.242 450.268 695.65 450.479 696.085 450.46C696.508 450.441 696.943 450.302 697.239 449.982Z" fill="#FF008C"/>
<path d="M628.099 415.847C636.061 439.874 644.024 463.902 651.986 487.93C653.053 491.15 654.121 494.368 655.186 497.588C656.195 500.636 657.371 503.883 656.32 507.075C655.661 509.074 658.811 509.931 659.466 507.942C660.402 505.1 659.969 502.126 659.156 499.309C658.325 496.425 657.296 493.59 656.352 490.742C654.336 484.659 652.321 478.577 650.305 472.494C646.243 460.237 642.182 447.98 638.12 435.722C635.828 428.808 633.537 421.893 631.246 414.979C630.588 412.995 627.436 413.845 628.099 415.847Z" fill="#FF008C"/>
<path d="M632.583 461.144C636.096 460.654 639.608 460.164 643.121 459.674C643.97 459.555 644.508 458.429 644.261 457.666C643.96 456.735 643.163 456.4 642.254 456.527C638.741 457.017 635.228 457.507 631.715 457.997C630.867 458.116 630.329 459.242 630.576 460.005C630.877 460.936 631.674 461.271 632.583 461.144Z" fill="#FF008C"/>
<path d="M701.484 476.52C704.829 480.563 705.664 486.857 704.191 491.797C703.326 494.695 701.563 496.768 698.984 498.318C697.634 499.13 696.052 500.261 694.44 500.349C693.049 500.426 691.574 500.184 690.221 499.883C685.064 498.735 680.164 495.462 678.416 490.28C676.513 484.636 678.59 478.55 683.103 474.78C688.675 470.126 696.785 471.133 701.484 476.52C702.868 478.106 705.168 475.79 703.792 474.212C698.717 468.395 689.952 466.735 683.259 470.701C677.102 474.35 673.539 481.554 674.657 488.638C675.728 495.425 681.076 500.453 687.431 502.507C690.745 503.578 694.657 504.236 697.883 502.655C701.255 501.002 704.481 498.881 706.226 495.448C709.572 488.863 708.479 479.878 703.792 474.212C702.452 472.593 700.155 474.913 701.484 476.52Z" fill="#FF008C"/>
<path d="M694.569 482.941C695.916 484.53 696.154 487.683 694.688 489.29C694.284 489.734 693.747 490.031 693.221 490.32C692.897 490.498 692.555 490.68 692.185 490.678C689.611 490.663 687.07 489.098 686.848 486.31C686.662 483.956 688.589 481.601 690.944 481.425C692.299 481.323 693.689 481.904 694.569 482.941Z" fill="#FF008C"/>
<path d="M693.411 484.095C693.117 483.737 693.489 484.221 693.544 484.315C693.583 484.381 693.62 484.449 693.656 484.517C693.666 484.537 693.847 484.879 693.724 484.643C693.604 484.41 693.765 484.756 693.775 484.782C693.802 484.859 693.827 484.936 693.851 485.014C693.917 485.23 693.969 485.451 694.01 485.673C694.035 485.809 694.145 485.994 694.015 485.672C694.039 485.73 694.034 485.868 694.038 485.921C694.052 486.129 694.056 486.337 694.048 486.546C694.045 486.628 694.038 486.711 694.034 486.794C694.018 487.102 694.05 486.773 694.05 486.728C694.05 486.934 693.965 487.185 693.908 487.381C693.88 487.476 693.847 487.57 693.816 487.665C693.715 487.971 693.846 487.618 693.845 487.602C693.854 487.725 693.62 488.005 693.559 488.106C693.476 488.245 693.545 488.253 693.606 488.05C693.58 488.136 693.438 488.234 693.373 488.295C693.317 488.348 693.06 488.536 693.297 488.369C693.174 488.456 693.047 488.536 692.918 488.614C692.746 488.717 692.571 488.815 692.394 488.91C692.365 488.926 691.968 489.202 692.209 489.02C692.136 489.076 691.919 489.041 692.182 489.046C691.995 489.043 691.809 489.035 691.623 489.018C691.278 488.986 691.619 488.982 691.626 489.022C691.625 489.017 691.278 488.955 691.261 488.952C691.081 488.912 690.903 488.863 690.727 488.807C690.614 488.771 690.121 488.544 690.49 488.733C690.129 488.548 689.781 488.368 689.455 488.125C689.802 488.383 689.316 487.979 689.248 487.91C689.137 487.797 689.033 487.678 688.933 487.555C689.204 487.89 688.838 487.377 688.789 487.29C688.75 487.22 688.717 487.146 688.678 487.076C688.508 486.764 688.743 487.331 688.654 487.012C688.597 486.807 688.541 486.606 688.489 486.4C688.468 486.314 688.468 486.1 688.489 486.444C688.482 486.333 688.47 486.224 688.466 486.114C688.46 485.917 688.474 485.724 688.49 485.528C688.461 485.887 688.47 485.66 688.493 485.576C688.534 485.43 688.562 485.281 688.608 485.136C688.64 485.032 688.678 484.93 688.716 484.828C688.694 484.886 688.57 485.124 688.709 484.86C688.801 484.685 688.892 484.514 689 484.348C689.059 484.257 689.121 484.167 689.186 484.079C688.988 484.347 689.128 484.155 689.178 484.105C689.347 483.935 689.52 483.77 689.689 483.602C689.866 483.427 689.377 483.802 689.719 483.58C689.828 483.509 689.935 483.437 690.048 483.372C690.122 483.329 690.201 483.293 690.276 483.25C690.588 483.069 690.042 483.305 690.361 483.212C690.464 483.182 690.565 483.145 690.669 483.118C690.763 483.093 691.23 483.027 690.81 483.068C691.041 483.045 691.269 483.047 691.502 483.052C691.81 483.06 691.556 483.052 691.486 483.04C691.648 483.067 691.808 483.102 691.966 483.146C692.08 483.177 692.189 483.216 692.301 483.252C692.619 483.355 692.116 483.123 692.426 483.313C692.627 483.435 692.833 483.542 693.023 483.682C692.766 483.494 693.011 483.684 693.071 483.74C693.192 483.852 693.302 483.971 693.411 484.095C693.976 484.738 695.149 484.715 695.719 484.095C696.349 483.409 696.322 482.473 695.719 481.787C693.911 479.729 690.775 479.192 688.401 480.554C686.101 481.873 684.866 484.545 685.32 487.14C685.73 489.484 687.609 491.212 689.801 491.935C691.092 492.362 692.516 492.49 693.759 491.878C694.912 491.31 696.018 490.529 696.612 489.354C697.834 486.935 697.424 483.862 695.719 481.787C695.175 481.125 693.968 481.181 693.411 481.787C692.765 482.491 692.83 483.388 693.411 484.095Z" fill="#FF008C"/>
<path d="M588.076 449.627C588.43 479.46 590.67 501.619 590.941 531.452C591.071 545.771 591.485 579.687 591.485 594.001C591.485 617.933 588.952 616.026 591.372 618C566.945 598.068 535.393 587.061 503.868 587.474C474.81 587.855 443.844 596.04 416.084 604.254C390.607 611.792 368.737 630.019 343.614 639.438C319.387 648.52 291.243 651.499 268.264 639.61C253.604 632.025 243.145 621.928 227.064 617.559C210.87 613.16 194.99 612.808 178.871 617.998C167.357 621.705 156.189 626.775 144.245 628.681C136.479 629.921 128.496 629.785 120.777 628.282C119.929 628.117 119.025 627.902 118.449 627.258C117.745 626.47 117.749 625.298 117.792 624.243C119.252 588.517 117.614 553.142 117.39 517.42C117.139 477.572 116.637 437.723 115.393 397.891C114.482 364.894 115.04 331.492 118.293 299.039C145.584 305.867 170.123 302.121 196.309 292.035C210.344 286.63 224.475 280.199 239.513 279.973C257.126 279.707 277.95 289.629 294.361 296.284C317.471 305.656 338.751 318.65 364.396 319.67C397.93 321.004 428.471 302.397 459.66 290.005C479.42 282.154 500.552 276.869 521.885 276.425C544.475 275.955 560.626 282.363 580.087 292.29C581.229 292.873 582.418 293.495 583.153 294.546C583.923 295.645 584.08 297.045 584.214 298.379C589.182 347.791 587.485 399.72 588.076 449.627Z" fill="#84FF20"/>
<path d="M400.61 384.297C428.023 376.955 452.559 361.858 479.834 354.115C492.949 350.392 506.764 348.271 520.38 350.04C525.876 350.755 531.101 352.393 536.428 353.836C541.303 355.156 546.2 356.396 551.076 357.713C556.913 359.291 562.738 360.947 568.447 362.944C573.106 364.575 577.831 366.39 581.958 369.146C583.709 370.316 585.345 367.491 583.605 366.328C579.898 363.852 575.687 362.137 571.525 360.593C566.465 358.717 561.288 357.166 556.095 355.708C551.016 354.283 545.906 352.97 540.805 351.625C535.908 350.333 531.059 348.722 526.096 347.709C498.269 342.03 470.479 352.688 445.353 363.612C430.413 370.107 415.525 376.923 399.742 381.15C397.715 381.693 398.575 384.841 400.61 384.297Z" fill="#FF008C"/>
<path d="M129.659 385.076C142.739 388.183 156.315 388.73 169.607 386.725C182.732 384.745 194.84 379.685 207.104 374.852C213.992 372.137 220.962 369.593 228.193 367.947C230.24 367.481 229.374 364.334 227.326 364.8C214.743 367.664 203.062 373.25 190.998 377.669C178.693 382.175 165.973 384.79 152.831 384.662C145.313 384.589 137.84 383.666 130.526 381.929C128.484 381.444 127.613 384.59 129.659 385.076Z" fill="#FF008C"/>
<path d="M445.612 449.355C449.854 449.159 453.453 447.011 457.01 444.895C461.123 442.45 465.563 440.875 470.062 439.283C479.793 435.838 489.785 433.054 500.004 431.516C518.447 428.741 537.589 430.698 554.653 438.445C563.6 442.506 571.818 448.05 578.743 455.033C580.223 456.527 582.531 454.219 581.05 452.726C568.496 440.065 551.818 431.962 534.366 428.717C514.216 424.969 493.742 428.075 474.426 434.358C471.608 435.274 468.811 436.253 466.031 437.281C463.473 438.227 460.843 439.114 458.411 440.358C454.309 442.455 450.405 445.87 445.612 446.092C443.521 446.189 443.509 449.453 445.612 449.355Z" fill="#FF008C"/>
<path d="M227.764 450.134C229.863 450.134 229.867 446.871 227.764 446.871C225.664 446.871 225.66 450.134 227.764 450.134Z" fill="#FF008C"/>
<path d="M129.659 467.205C138.373 469.27 147.361 469.893 156.261 468.822C165.161 467.752 173.958 465.303 182.178 461.739C186.402 459.908 191.015 457.517 195.762 458.374C197.816 458.745 198.697 455.601 196.63 455.227C192.407 454.465 188.413 455.576 184.526 457.194C180.416 458.905 176.382 460.645 172.13 461.993C163.622 464.69 154.791 466.274 145.846 466.076C140.673 465.961 135.558 465.251 130.526 464.059C128.484 463.575 127.613 466.721 129.659 467.205Z" fill="#FF008C"/>
<path d="M423.693 532.715C442.512 524.374 462.806 519.308 483.337 517.838C493.368 517.12 503.408 517.299 513.348 518.909C522.735 520.431 531.912 523.031 540.858 526.227C551.32 529.965 561.476 534.489 571.606 539.035C573.506 539.888 575.168 537.076 573.253 536.217C555.159 528.098 536.803 519.935 517.192 516.281C496.826 512.488 475.706 514.119 455.598 518.703C444.076 521.33 432.848 525.109 422.046 529.897C420.13 530.746 421.788 533.559 423.693 532.715Z" fill="#FF008C"/>
<path d="M123.674 566.195C134.968 568.867 146.549 568.545 157.856 566.13C168.764 563.8 179.204 559.769 189.622 555.867C195.675 553.601 201.744 551.37 207.928 549.485C209.931 548.874 209.077 545.723 207.061 546.338C186.162 552.709 166.06 563.616 143.877 564.77C137.371 565.109 130.882 564.548 124.542 563.049C122.5 562.566 121.628 565.712 123.674 566.195Z" fill="#FF008C"/>
<path d="M367.512 339.766C369.138 364.55 370.763 389.335 372.388 414.12C400.47 401.714 429.852 392.253 459.897 385.944C445.052 409.568 430.122 433.14 415.107 456.657C439.543 467.046 462.447 481.028 482.854 498.016C457.321 509.515 426.707 503.929 400.929 514.868C408.938 536.819 411.912 562.347 417.339 585.299C414.029 586.14 410.741 584.1 407.933 582.157C387.624 568.106 367.316 554.055 347.007 540.003C341.958 566.599 333.33 592.512 321.427 616.825C314.466 588.732 307.247 560.703 299.772 532.742C271.329 545.547 241.223 554.652 210.452 559.757C227.153 538.226 243.089 516.101 258.219 493.438C259.22 491.938 260.265 490.187 259.803 488.444C259.276 486.449 257.079 485.482 255.16 484.723C229.952 474.754 210.045 455.068 190.891 435.886C216.291 430.624 242.407 428.826 268.29 430.557C262.62 430.177 249.026 356.885 247.503 348.836C253.9 351.588 259.142 360.509 264.362 365.246C273.455 373.498 282.694 381.596 291.858 389.769C298.729 395.898 305.097 402.213 310.938 409.315C318.064 398.247 329.912 388.943 338.137 378.186C347.929 365.379 357.72 352.572 367.512 339.766Z" fill="white"/>
<path d="M365.883 339.766C367.509 364.55 369.134 389.335 370.759 414.12C370.846 415.44 372.059 416.039 373.214 415.529C394.989 405.925 417.546 398.1 440.586 392.142C447.132 390.449 453.717 388.911 460.334 387.517L458.491 385.12C446.945 403.494 435.347 421.837 423.698 440.147C420.37 445.379 417.037 450.607 413.701 455.833C413.269 456.509 413.495 457.729 414.286 458.066C433.209 466.132 451.213 476.31 467.858 488.398C472.591 491.835 477.204 495.432 481.703 499.169L482.033 496.607C461.933 505.569 439.242 504.022 418.02 508.133C412.027 509.294 406.132 510.928 400.498 513.295C399.736 513.614 399.027 514.388 399.358 515.302C405.792 533.036 408.798 551.763 412.448 570.203C413.476 575.396 414.555 580.579 415.768 585.733L416.908 583.725C414.417 584.252 412.078 582.924 410.054 581.619C407.821 580.18 405.666 578.608 403.482 577.097C399.005 573.999 394.527 570.901 390.05 567.804C381.095 561.608 372.14 555.412 363.185 549.216C358.068 545.676 352.951 542.135 347.834 538.595C347.009 538.024 345.626 538.58 345.437 539.57C341.513 560.138 335.488 580.289 327.442 599.622C325.139 605.157 322.652 610.615 320.021 616.001L323.004 616.391C317.572 594.479 311.987 572.605 306.244 550.773C304.624 544.615 302.992 538.46 301.348 532.309C301.053 531.205 299.889 530.912 298.951 531.333C276.912 541.235 253.877 548.907 230.308 554.218C223.584 555.732 216.819 557.051 210.021 558.184L211.609 560.911C227.008 541.047 241.778 520.699 255.858 499.877C257.511 497.432 259.509 494.987 260.771 492.312C261.831 490.066 261.836 487.563 260.035 485.696C258.38 483.98 255.906 483.305 253.772 482.408C251.192 481.322 248.66 480.12 246.175 478.832C236.489 473.812 227.583 467.414 219.249 460.401C209.704 452.367 200.857 443.553 192.047 434.732L191.327 437.459C211.035 433.397 231.143 431.412 251.266 431.558C256.946 431.599 262.624 431.815 268.292 432.188C270.409 432.328 270.35 429.131 268.292 428.925C269.288 429.024 267.897 428.818 268.797 429.055C268.773 429.048 268.618 428.931 268.608 428.938C268.72 428.869 268.959 429.29 268.671 428.959C268.587 428.862 268.265 428.464 268.598 428.906C268.217 428.401 267.914 427.839 267.632 427.274C266.827 425.653 266.179 423.793 265.521 421.794C263.568 415.861 262.05 409.781 260.586 403.712C257.208 389.7 254.323 375.567 251.566 361.421C250.721 357.085 249.9 352.744 249.079 348.402L246.682 350.245C250.931 352.15 254.016 355.991 256.949 359.471C258.458 361.262 259.943 363.081 261.56 364.777C263.546 366.86 265.772 368.722 267.911 370.642C277.207 378.992 286.79 387.062 295.863 395.656C300.787 400.321 305.466 405.237 309.786 410.469C310.491 411.322 311.826 410.943 312.349 410.138C318.205 401.132 326.39 393.968 333.589 386.086C337.446 381.862 340.855 377.3 344.326 372.76C348.16 367.745 351.994 362.731 355.829 357.716C360.194 352.007 364.559 346.298 368.924 340.589C370.199 338.921 367.366 337.294 366.106 338.942C358.438 348.971 350.769 359.001 343.101 369.03C339.524 373.707 336.052 378.474 332.114 382.858C328.488 386.896 324.63 390.716 320.894 394.649C316.78 398.981 312.794 403.472 309.531 408.491L312.094 408.161C304.238 398.647 295.121 390.47 285.915 382.305C281.106 378.039 276.292 373.778 271.504 369.488C267.415 365.824 263.502 362.214 259.966 358.008C256.645 354.057 253.158 349.593 248.329 347.427C247.001 346.832 245.655 347.805 245.932 349.27C247.929 359.828 249.971 370.377 252.168 380.896C255.073 394.812 257.888 408.937 262.311 422.468C263.05 424.729 263.833 427.024 264.926 429.142C265.646 430.539 266.596 432.018 268.292 432.188V428.925C248.012 427.589 227.634 428.402 207.52 431.314C201.804 432.142 196.115 433.147 190.459 434.313C189.232 434.565 188.915 436.215 189.739 437.04C204.669 451.99 219.885 467.15 238.129 478.075C242.67 480.794 247.382 483.218 252.256 485.281C253.96 486.002 257.054 486.655 258.03 488.407C258.697 489.603 257.857 490.966 257.219 491.986C256.391 493.312 255.488 494.596 254.615 495.893C247.903 505.873 241.034 515.747 234.012 525.512C225.973 536.689 217.736 547.723 209.3 558.603C208.287 559.91 209.207 561.611 210.888 561.33C235.042 557.304 258.775 550.853 281.631 542.062C288.025 539.603 294.348 536.959 300.597 534.151L298.2 533.176C304.03 554.986 309.706 576.836 315.224 598.727C316.781 604.901 318.324 611.078 319.856 617.259C320.179 618.56 322.216 618.923 322.839 617.648C332.129 598.627 339.481 578.669 344.668 558.144C346.149 552.282 347.45 546.376 348.583 540.437L346.186 541.413C364.895 554.357 383.605 567.302 402.314 580.247C406.785 583.34 411.901 588.114 417.775 586.872C418.66 586.685 419.106 585.681 418.914 584.865C414.585 566.48 411.994 547.717 407.157 529.447C405.816 524.38 404.292 519.362 402.504 514.434L401.365 516.442C421.894 507.816 444.67 509.465 466.135 504.987C472.166 503.729 478.049 501.936 483.68 499.425C484.593 499.017 484.764 497.489 484.01 496.862C468.012 483.571 450.558 472.067 431.986 462.7C426.717 460.043 421.361 457.562 415.933 455.248L416.518 457.481C428.196 439.189 439.823 420.865 451.399 402.509C454.706 397.264 458.009 392.017 461.309 386.767C462.11 385.491 460.791 384.091 459.466 384.37C435.859 389.343 412.665 396.229 390.182 404.979C383.92 407.416 377.715 410 371.567 412.711L374.022 414.12C372.397 389.336 370.771 364.551 369.146 339.766C369.01 337.681 365.746 337.665 365.883 339.766Z" fill="#FF008C"/>
<path d="M305.437 435.595C294.952 444.728 289.331 460.082 290.245 473.868C291.13 487.218 297.687 500.1 307.96 508.672C320.609 519.228 343.9 526.079 358.779 517.178C374.942 507.509 385.43 488.413 384.171 469.538C382.809 449.108 367.412 430.2 347.519 425.352C332.945 421.8 316.749 425.742 305.437 435.595Z" fill="white"/>
<path d="M304.286 434.442C296.537 441.26 291.529 450.985 289.525 461.04C287.452 471.441 288.796 482.105 293.154 491.758C297.37 501.097 304.387 509.045 313.156 514.344C321.535 519.406 331.388 522.624 341.207 522.894C345.847 523.021 350.604 522.444 354.963 520.798C359.614 519.041 363.77 516.081 367.469 512.798C375.029 506.091 380.679 497.207 383.637 487.55C386.566 477.984 386.681 467.664 383.645 458.11C380.738 448.965 375.241 440.619 367.988 434.335C360.461 427.812 351.238 423.654 341.307 422.664C330.71 421.607 319.718 424.193 310.649 429.76C308.402 431.139 306.281 432.719 304.286 434.442C302.693 435.816 305.01 438.116 306.593 436.749C314.189 430.193 324.019 426.336 334.025 425.775C343.579 425.239 352.942 427.755 360.922 433.032C376.139 443.094 385.022 461.797 382.069 479.936C380.544 489.302 376.349 498.218 370.161 505.409C364.234 512.299 356.548 518.115 347.34 519.343C338.253 520.555 328.701 518.341 320.462 514.528C311.934 510.58 304.643 504.614 299.538 496.672C294.207 488.379 291.353 478.514 291.84 468.64C292.311 459.092 295.72 449.407 301.685 441.896C303.163 440.035 304.81 438.318 306.593 436.749C308.173 435.359 305.857 433.058 304.286 434.442Z" fill="#FF008C"/>
<path d="M391.676 449.222C384.657 454.837 376.885 458.996 370.169 465.248C363.539 471.422 357.324 478.032 350.572 484.077C347.124 487.165 343.555 490.129 339.751 492.771C334.928 496.122 333.847 497.505 330.044 492.754C322.851 483.769 315.28 475.06 307.906 466.222C307.115 465.273 306.277 464.191 306.357 462.958C306.425 461.905 307.15 461.026 307.841 460.228C309.367 458.464 313.725 451.403 315.996 451.083C318.785 450.691 321.597 455.587 323.379 457.619C328.341 463.276 333.302 468.935 338.264 474.593C352.07 458.549 368.42 444.699 386.516 433.72C387.387 433.192 388.405 432.65 389.375 432.959C390.187 433.218 390.703 433.997 391.127 434.736C392.698 437.483 393.908 440.435 394.716 443.495C394.968 444.449 395.179 445.474 394.864 446.409C394.399 447.788 392.966 448.55 391.676 449.222Z" fill="#FF008C"/>
<path d="M390.521 448.068C386.094 451.588 381.287 454.584 376.706 457.891C371.942 461.332 367.699 465.268 363.508 469.374C355.105 477.605 346.855 485.845 337.173 492.593C336.465 493.086 335.728 493.656 334.928 493.993C334.45 494.194 334.171 494.26 333.768 494.096C333.004 493.785 332.383 492.997 331.862 492.399C330.889 491.283 329.991 490.098 329.058 488.95C325.169 484.165 321.192 479.453 317.21 474.745C315.22 472.391 313.228 470.038 311.245 467.678C310.344 466.606 309.333 465.561 308.543 464.404C307.647 463.092 308.174 462.381 309.088 461.269C311.229 458.666 312.866 455.565 315.399 453.298C315.612 453.108 315.824 452.912 316.079 452.778C316.253 452.686 316.177 452.626 316.516 452.711C317.387 452.931 318.096 453.715 318.683 454.347C320.301 456.089 321.625 458.09 323.194 459.879C327.832 465.168 332.47 470.457 337.108 475.746C337.66 476.375 338.867 476.383 339.416 475.746C346.329 467.73 353.856 460.253 361.933 453.411C365.976 449.986 370.154 446.725 374.459 443.637C376.579 442.116 378.73 440.637 380.908 439.199C383.125 437.736 385.361 436.132 387.72 434.904C388.375 434.563 388.813 434.313 389.326 434.929C389.759 435.449 390.054 436.151 390.367 436.749C391.071 438.094 391.688 439.48 392.201 440.908C392.669 442.21 393.353 443.77 393.384 445.17C393.417 446.634 391.972 447.225 390.851 447.813C388.99 448.788 390.638 451.606 392.498 450.631C395.076 449.28 397.026 447.458 396.551 444.314C396.094 441.282 394.774 438.22 393.392 435.504C392.095 432.952 390.334 430.304 387.071 431.61C385.733 432.146 384.502 433.032 383.285 433.794C381.994 434.602 380.714 435.425 379.442 436.262C369.399 442.872 359.933 450.378 351.206 458.649C346.259 463.336 341.559 468.278 337.108 473.438H339.416C334.886 468.272 330.356 463.106 325.825 457.941C324.292 456.193 322.958 454.299 321.441 452.543C320.079 450.968 318.233 449.277 315.995 449.451C314.255 449.587 312.879 451.1 311.806 452.334C310.476 453.864 309.292 455.522 308.108 457.166C306.996 458.71 305.311 460.21 304.837 462.137C304.076 465.226 307.169 467.881 308.937 469.986C313.217 475.08 317.539 480.138 321.799 485.248C323.98 487.865 326.145 490.494 328.28 493.149C329.583 494.77 331.049 496.817 333.201 497.334C335.12 497.796 336.875 496.742 338.398 495.703C340.901 493.995 343.355 492.212 345.726 490.324C350.764 486.312 355.444 481.875 360.039 477.369C365.167 472.34 370.128 467.005 375.817 462.596C381.339 458.316 387.356 454.727 392.828 450.375C394.471 449.069 392.149 446.773 390.521 448.068Z" fill="#FF008C"/>
<path d="M288.982 362.499C296.66 362.679 304.103 365.049 310.507 369.281C312.264 370.442 313.901 367.617 312.154 366.463C305.284 361.922 297.21 359.429 288.982 359.236C286.881 359.187 286.882 362.45 288.982 362.499Z" fill="#FF008C"/>
<path d="M578.316 270.34C587.596 289.817 596.815 309.323 605.971 328.858C615.092 348.319 624.15 367.808 633.146 387.327C638.232 398.362 643.298 409.407 648.345 420.461C649.216 422.369 652.03 420.712 651.163 418.814C642.203 399.188 633.18 379.59 624.095 360.022C615.044 340.529 605.931 321.065 596.756 301.63C591.568 290.642 586.361 279.663 581.134 268.693C580.231 266.798 577.416 268.452 578.316 270.34Z" fill="#FF008C"/>
<path d="M591.385 622.146C601.252 608.375 610.753 594.342 619.866 580.06C628.979 565.779 637.706 551.252 646.036 536.5C650.74 528.167 655.315 519.762 659.766 511.291C660.741 509.434 657.926 507.782 656.948 509.644C649.069 524.642 640.792 539.43 632.118 553.983C623.445 568.535 614.379 582.853 604.933 596.917C599.598 604.86 594.14 612.72 588.567 620.499C587.342 622.209 590.171 623.84 591.385 622.146Z" fill="#FF008C"/>
<path d="M518.431 723.815C523.94 725.454 528.912 729.061 533.011 733.002C537.221 737.049 541.155 742.11 542.395 747.938C542.9 750.311 542.805 752.839 541.857 755.094C540.67 757.919 538.284 760.042 535.708 761.591C529.052 765.59 520.655 766.075 513.088 766.336C509.095 766.474 505.099 766.458 501.104 766.518C496.473 766.586 491.846 766.862 487.219 767.049C476.337 767.488 465.45 767.822 454.561 768.051C433.204 768.502 411.789 768.567 390.498 766.597C385.187 766.106 379.888 765.49 374.611 764.711C370.2 764.06 365.778 763.301 361.533 761.904C353.92 759.398 346.926 754.156 345.687 745.756C345.151 742.124 346.043 738.378 348.65 735.715C351.686 732.614 356.219 731.252 360.407 730.65C362.73 730.317 365.164 730.253 367.484 730.635C369.456 730.96 371.723 731.513 373.29 732.822C374.146 733.537 375.702 735.237 375.036 736.482C374.232 737.984 372.398 736.38 371.739 735.614C370.367 734.02 369.991 731.929 369.838 729.887C369.663 727.541 369.864 725.185 370.363 722.888C371.35 718.337 373.309 714.059 375.708 710.086C379.934 703.088 385.766 697.054 392.582 692.545C407.552 682.641 426.682 680.844 443.352 687.432C450.998 690.454 458.77 695.414 462.74 702.851C464.607 706.349 465.508 710.489 464.621 714.407C464.185 716.336 463.364 718.198 462.013 719.665C461.661 720.047 460.902 721.05 460.369 720.707C459.789 720.333 459.936 718.846 459.99 718.303C460.412 714.102 463.706 710.754 467.289 708.895C471.233 706.85 475.931 706.099 480.328 705.855C484.217 705.638 488.354 705.898 491.936 707.565C495.765 709.347 498.222 712.599 499.428 716.599C500.046 718.65 500.398 720.77 500.618 722.898C500.71 723.785 500.892 724.722 500.661 725.599C500.576 725.921 500.376 726.189 500.282 726.496C500.281 726.499 500.106 726.759 500.093 726.736C499.944 726.479 501.111 727.086 500.435 726.603L501.021 728.835C503.954 722.4 512.518 722.136 518.431 723.815C520.455 724.389 521.319 721.241 519.298 720.668C512.058 718.613 501.75 719.405 498.203 727.188C497.81 728.049 498.009 728.863 498.788 729.421C500.619 730.73 502.558 729.348 503.379 727.605C504.39 725.457 503.944 723.12 503.635 720.858C502.976 716.047 501.5 711.117 497.879 707.679C491.086 701.229 479.909 701.769 471.465 703.907C466.557 705.15 461.924 707.613 459.031 711.886C457.048 714.814 454.784 721.583 459.051 723.741C461.348 724.903 463.559 722.975 464.914 721.276C466.349 719.477 467.328 717.344 467.807 715.093C468.779 710.522 467.897 705.839 465.815 701.699C461.455 693.03 452.42 687.416 443.632 684.056C434.052 680.394 423.532 679.379 413.412 680.959C394.698 683.88 377.732 696.735 369.943 714.029C367.716 718.973 366.17 724.417 366.574 729.887C366.876 733.963 368.584 739.576 373.377 740.284C375.411 740.584 377.41 739.427 378.144 737.49C378.878 735.556 378.078 733.465 376.883 731.907C373.905 728.023 368.255 727.043 363.638 727.131C354.301 727.308 343.388 731.695 342.351 742.175C341.442 751.356 347.91 759.312 355.788 763.096C360.332 765.279 365.253 766.46 370.201 767.302C375.954 768.28 381.763 768.987 387.568 769.576C399.453 770.784 411.397 771.33 423.34 771.506C447.618 771.865 471.939 771.027 496.19 769.926C505.268 769.514 514.383 770.018 523.414 768.776C531.03 767.728 539.806 765.12 543.99 758.068C547.454 752.227 545.797 745.255 542.563 739.719C538.985 733.593 533.571 728.415 527.62 724.61C525.035 722.958 522.246 721.545 519.298 720.668C517.281 720.068 516.42 723.216 518.431 723.815Z" fill="#FF008C"/>
<path d="M679.806 683.995C675.424 682.307 668.248 677.718 672.275 672.259C674.119 669.758 677.31 668.464 680.172 667.569C683.472 666.537 687.142 665.747 690.618 666.005C692.832 666.17 696.476 667.085 696.566 669.843L697.764 668.27C695.222 668.79 693.536 665.891 692.856 663.865C691.988 661.281 692.078 658.378 692.426 655.703C693.109 650.441 695.362 645.454 698.531 641.229C704.862 632.785 715.36 627.04 726.047 627.685C731.463 628.011 737.05 630.083 740.954 633.922C745.249 638.145 747.53 644.081 748.342 649.966C748.745 652.884 748.915 656.064 748.38 658.975C747.932 661.412 746.663 664.474 743.704 664.232C742.905 664.167 741.851 663.842 741.482 663.044C740.943 661.876 742.022 660.363 742.801 659.55C744.397 657.884 746.743 657.195 748.98 656.948C751.595 656.661 754.263 656.855 756.865 657.183C759.406 657.505 762.256 657.752 764.591 658.847C767.311 660.121 769.518 662.607 769.193 665.776C768.936 668.293 766.916 670.184 764.348 669.469C763.325 669.185 762.489 668.542 762.192 667.501L761.052 669.508C768.859 668.101 779.706 666.412 784.404 674.632C785.941 677.323 786.499 680.902 784.425 683.478C781.758 686.788 776.562 687.258 772.683 687.969C752.444 691.679 731.708 692.465 711.226 690.579C700.562 689.597 689.865 687.77 679.806 683.995C677.837 683.257 676.987 686.41 678.938 687.142C688.648 690.785 698.952 692.595 709.237 693.649C720.019 694.754 730.907 695.086 741.736 694.655C753.052 694.204 764.34 692.897 775.461 690.757C779.86 689.911 784.654 688.822 787.392 684.934C789.647 681.732 789.361 677.55 787.804 674.127C785.869 669.875 782.062 666.957 777.586 665.796C771.868 664.312 765.886 665.334 760.185 666.361C759.322 666.516 758.82 667.581 759.045 668.368C759.974 671.622 763.415 673.285 766.632 672.784C770.261 672.219 772.431 668.764 772.483 665.268C772.541 661.318 769.996 657.958 766.578 656.197C763.611 654.668 760.136 654.329 756.865 653.92C751.025 653.189 743.473 653.02 739.605 658.322C737.463 661.259 737.586 665.32 741.213 666.916C744.438 668.334 747.896 667.072 749.834 664.246C751.959 661.148 752.046 656.893 751.892 653.276C751.734 649.564 751.086 645.834 749.841 642.329C747.394 635.438 742.758 629.719 735.964 626.79C723.418 621.38 709.054 625.758 699.608 635.078C694.937 639.686 691.37 645.555 689.824 651.958C688.39 657.898 687.928 666.859 693.884 670.625C695.334 671.542 696.969 671.757 698.632 671.417C699.309 671.278 699.852 670.521 699.83 669.843C699.711 666.207 696.716 664.023 693.436 663.184C689.428 662.158 684.987 662.9 681.055 663.921C677.22 664.917 673.074 666.456 670.356 669.482C667.784 672.347 667.099 676.294 668.966 679.73C670.992 683.458 675.128 685.674 678.938 687.142C680.899 687.898 681.748 684.744 679.806 683.995Z" fill="#FF008C"/>
<path d="M669.701 298.045C663.274 296.88 654.593 294.963 652.208 287.905C649.819 280.837 654.412 273.525 661.336 271.534C664.746 270.554 668.607 270.656 671.899 272.038C673.363 272.653 675.123 273.734 675.53 275.392C675.775 276.388 675.278 278.037 674.14 278.305C672.754 278.631 672.107 276.634 671.977 275.619C671.768 273.991 672.191 272.211 672.829 270.72C674.252 267.396 677.06 264.747 679.988 262.727C683.162 260.537 686.707 258.784 690.488 257.952C693.839 257.215 698.133 257.253 700.758 259.819C700.476 259.543 701.535 259.799 700.676 259.72C700.574 259.711 700.396 259.764 700.292 259.77C700.014 259.787 699.722 259.724 699.464 259.618C698.716 259.312 698.118 258.623 697.684 257.967C696.697 256.478 696.252 254.693 696.001 252.942C695.481 249.312 696.019 245.51 697.424 242.129C700.339 235.118 707.212 230.415 714.766 229.973C722.948 229.494 729.747 234.305 735.291 239.829C740.301 244.82 745.746 250.311 747.727 257.303C748.659 260.595 749.088 264.885 747.809 268.147C747.232 269.619 745.763 270.329 744.485 269.074C743.163 267.774 743.302 265.507 743.916 263.912C746.58 256.996 756.085 257.285 762.087 257.959C765.381 258.329 768.653 258.997 771.872 259.783C776.041 260.801 780.004 262.398 783.091 265.466C787.098 269.446 791.788 279.412 784.788 282.936C783.04 283.816 780.963 283.893 779.161 283.305C778.467 283.079 777.779 282.694 777.322 282.144C777.077 281.849 776.921 281.33 776.979 280.992C777.502 277.968 781.277 277.266 783.891 277.493C787.375 277.796 790.77 279.262 793.524 281.393C796.351 283.582 798.728 286.628 799.889 290.031C800.484 291.775 800.868 293.833 800.017 295.561C799.141 297.339 797.16 298.299 795.459 299.117C787.717 302.839 778.884 303.833 770.389 303.838C765.776 303.841 761.163 303.562 756.551 303.484C751.668 303.402 746.785 303.39 741.901 303.372C722.471 303.3 703.043 302.69 683.753 300.208C679.052 299.604 674.366 298.878 669.701 298.045C667.647 297.678 666.766 300.822 668.833 301.191C691.72 305.279 714.958 306.495 738.173 306.619C744.051 306.65 749.93 306.645 755.807 306.736C761.312 306.821 766.824 307.193 772.329 307.081C777.459 306.977 782.621 306.469 787.618 305.273C790.127 304.673 792.585 303.886 794.965 302.891C797.143 301.979 799.385 300.976 801.146 299.366C804.953 295.883 803.953 290.487 801.842 286.372C799.839 282.467 796.593 279.161 792.781 276.999C789.14 274.935 784.565 273.629 780.373 274.368C777.162 274.933 773.626 277.746 773.71 281.304C773.772 283.894 775.928 285.642 778.202 286.42C780.791 287.307 783.789 287.049 786.234 285.854C789.576 284.221 791.419 280.748 791.574 277.108C791.779 272.298 789.345 267.487 786.191 263.989C782.796 260.226 778.253 258.056 773.406 256.804C769.403 255.77 765.294 254.992 761.177 254.601C757.028 254.206 752.56 254.192 748.594 255.639C744.667 257.071 741.174 260.194 740.387 264.458C739.962 266.755 740.339 269.294 741.918 271.097C743.414 272.804 745.957 273.53 748.056 272.549C752.029 270.69 752.021 264.451 751.667 260.774C750.804 251.81 744.895 244.982 738.855 238.796C732.272 232.054 724.148 225.912 714.2 226.751C704.87 227.538 696.85 233.584 693.821 242.483C692.388 246.691 692.156 251.347 693.224 255.666C694.127 259.322 697.351 264.445 701.866 262.749C704.268 261.847 704.71 259.139 702.928 257.378C701.363 255.831 699.023 254.889 696.883 254.528C692.27 253.75 687.623 255.026 683.457 256.972C679.445 258.846 675.526 261.496 672.683 264.924C669.998 268.162 667.995 272.517 668.889 276.807C669.293 278.745 670.484 280.655 672.418 281.342C674.268 282 676.217 281.291 677.443 279.82C680.503 276.146 678.066 271.572 674.345 269.601C666.561 265.478 655.601 267.874 650.832 275.419C648.523 279.073 647.718 283.736 648.808 287.93C649.897 292.121 652.995 295.401 656.736 297.432C660.476 299.462 664.678 300.439 668.833 301.191C670.886 301.564 671.767 298.419 669.701 298.045Z" fill="#FF008C"/>
<path d="M350.794 249.342C352.449 253.023 352.305 256.874 350.031 260.24C347.849 263.471 344.354 265.722 340.938 267.458C337.083 269.416 332.477 268.892 328.292 268.924C322.989 268.965 317.677 269.686 312.374 269.908C301.138 270.378 289.87 270.113 278.668 269.112C275.84 268.86 273.013 268.569 270.195 268.213C267.946 267.93 265.637 267.562 263.529 266.692C259.642 265.087 257.078 261.172 257.699 256.91C258.386 252.203 262.903 248.544 266.734 246.264C269.031 244.896 276.024 241.675 276.619 246.52C276.765 247.705 276.189 248.856 274.835 248.363C272.903 247.658 272.036 245.011 271.901 243.168C271.585 238.871 273.923 234.674 276.717 231.582C287.278 219.895 308.462 217.737 319.738 229.676C322.868 232.99 324.712 237.716 323.32 242.231C322.823 243.842 321.418 246.572 319.337 246.267C316.799 245.894 319.004 243.572 320.076 242.924C322.186 241.649 324.844 241.001 327.229 240.462C329.759 239.89 332.341 239.616 334.935 239.733C339.341 239.931 343.778 241.449 347.099 244.417C348.663 245.815 349.889 247.45 350.794 249.342C351.701 251.236 354.516 249.582 353.612 247.695C351.323 242.913 346.922 239.52 341.988 237.776C336.334 235.777 330.053 236.217 324.363 237.824C321.672 238.584 318.683 239.469 316.629 241.473C314.853 243.206 314.129 245.976 315.943 247.977C317.691 249.906 320.659 249.935 322.739 248.551C325.039 247.021 326.378 244.21 326.829 241.554C328.766 230.157 317.725 221.829 307.847 219.435C298.518 217.173 288.173 218.95 280.194 224.314C276.128 227.048 272.449 230.737 270.371 235.224C268.255 239.792 267.483 246.162 271.519 249.993C273.309 251.692 276.156 252.49 278.22 250.779C279.784 249.482 280.145 247.299 279.715 245.396C279.206 243.143 277.482 241.507 275.264 240.946C272.581 240.267 269.796 241.084 267.365 242.225C262.303 244.602 257 248.816 255.037 254.219C253.267 259.088 255.077 264.815 259.168 267.924C263.866 271.493 270.593 271.589 276.219 272.145C282.992 272.816 289.792 273.217 296.597 273.348C303.341 273.479 310.09 273.345 316.824 272.947C320.091 272.754 323.354 272.361 326.621 272.224C329.334 272.11 332.051 272.273 334.763 272.134C337.304 272.004 339.804 271.634 342.11 270.513C344.302 269.447 346.384 268.164 348.304 266.661C352.001 263.768 354.958 259.777 355.212 254.947C355.346 252.415 354.64 249.982 353.612 247.695C352.753 245.783 349.939 247.441 350.794 249.342Z" fill="#FF008C"/>
<path d="M771.116 369.311C769.798 368.933 768.976 370.719 768.859 372.086C768.253 379.15 770.354 386.363 768.87 393.297C767.035 401.876 759.716 408.637 751.363 411.318C743.01 413.998 733.828 413.041 725.505 410.268C721.342 408.881 717.291 407.03 713.815 404.353C710.771 402.009 708.018 398.426 708.775 394.659C709.498 391.063 713.297 388.754 716.956 388.514C720.616 388.274 724.172 389.623 727.591 390.95C731.113 392.317 734.635 393.684 738.157 395.05C734.315 390.687 732.574 384.552 733.551 378.821C734.528 373.09 738.204 367.879 743.275 365.035C745.962 363.529 748.971 362.676 752.001 362.124C755.701 361.449 759.493 361.205 763.233 361.596C765.588 361.842 767.941 362.348 770.067 363.39C773.507 365.076 776.137 368.051 778.366 371.167C778.969 372.011 779.655 372.941 780.675 373.132C781.149 373.221 781.665 373.139 782.096 373.356C782.925 373.774 782.913 374.965 782.637 375.852C782.224 377.177 781.491 378.401 780.518 379.39C780.282 379.63 780.003 379.869 779.667 379.887C779.228 379.909 778.873 379.554 778.568 379.238C775.998 376.567 772.556 374.748 768.901 374.128" fill="#FF008C"/>
<path d="M771.553 367.737C766.737 366.882 767.04 373.725 767.153 376.709C767.334 381.471 768.158 386.261 767.606 391.026C766.706 398.786 761.126 405.06 754.282 408.402C746.115 412.391 736.401 411.804 727.893 409.305C723.521 408.022 719.25 406.251 715.522 403.595C712.726 401.603 709.07 397.905 710.633 394.115C712.426 389.768 718.151 389.715 721.933 390.718C724.507 391.4 726.979 392.453 729.457 393.415C732.214 394.484 734.97 395.554 737.726 396.623C739.383 397.266 740.266 395.001 739.314 393.896C735.556 389.536 734.014 383.368 735.442 377.772C736.848 372.263 740.847 367.664 746.086 365.469C749.115 364.2 752.472 363.548 755.729 363.232C759.083 362.905 762.574 362.907 765.873 363.664C768.986 364.378 771.578 365.917 773.81 368.186C774.773 369.166 775.657 370.223 776.475 371.325C777.314 372.454 778.074 373.728 779.373 374.382C779.652 374.522 779.94 374.632 780.243 374.705C780.508 374.743 780.773 374.777 781.039 374.805C781.473 374.882 781.521 374.85 781.183 374.71C781.276 375.303 780.85 376.067 780.587 376.561C780.458 376.802 780.314 377.047 780.159 377.275C780.011 377.51 779.841 377.729 779.652 377.932C779.187 378.261 779.291 378.391 779.963 378.322C780.02 378.249 778.357 376.809 778.268 376.736C775.688 374.607 772.633 373.153 769.338 372.555C767.284 372.182 766.404 375.326 768.47 375.701C771.964 376.336 774.876 377.94 777.417 380.391C778.742 381.668 780.293 381.871 781.674 380.543C782.935 379.332 783.976 377.538 784.323 375.82C784.632 374.287 784.253 372.58 782.727 371.865C782.101 371.571 781.344 371.734 780.757 371.426C780.078 371.069 779.613 370.106 779.17 369.513C777.045 366.673 774.594 363.975 771.439 362.264C768.019 360.408 764.032 359.847 760.188 359.783C756.157 359.716 752.016 360.242 748.133 361.332C741.325 363.242 735.8 367.778 733.126 374.39C730.153 381.742 731.885 390.261 737.006 396.204L738.594 393.477C733.597 391.538 728.61 389.267 723.464 387.758C719.259 386.525 714.509 386.331 710.805 389.02C707.258 391.595 706.126 395.845 707.939 399.847C709.8 403.954 713.928 406.787 717.799 408.806C733.559 417.026 757.19 417.754 767.579 400.8C770.253 396.436 771.163 391.51 771.03 386.44C770.953 383.499 770.615 380.573 770.459 377.637C770.386 376.25 770.351 374.858 770.407 373.469C770.432 372.851 770.423 372.205 770.605 371.608C770.74 371.164 771.126 370.962 770.685 370.884C772.739 371.249 773.621 368.104 771.553 367.737Z" fill="#FF008C"/>
<path d="M768.6 391.896C772.935 391.098 777.296 390.464 781.682 390.02C782.851 389.902 784.021 389.796 785.192 389.703C785.67 389.664 787.104 389.308 787.535 389.625C787.343 389.484 787.582 390.043 787.615 390.252C787.7 390.809 787.727 391.384 787.745 391.946C787.78 393.003 787.74 394.073 787.582 395.119C787.478 395.81 787.445 396.428 786.78 396.74C785.959 397.125 784.874 397.257 783.99 397.436C781.988 397.841 780.197 397.747 778.382 396.768C776.637 395.828 775.023 394.873 773.023 394.603C770.939 394.322 768.846 394.603 766.766 394.795C764.692 394.987 764.672 398.253 766.766 398.059C768.674 397.882 770.675 397.552 772.588 397.816C774.395 398.067 775.801 399.162 777.404 399.93C779.187 400.783 781.051 401.092 783.017 400.872C784.762 400.678 786.725 400.354 788.332 399.616C790.007 398.847 790.551 397.26 790.792 395.553C791.08 393.512 791.105 391.436 790.764 389.397C790.046 385.112 784.975 386.428 781.901 386.735C777.153 387.209 772.425 387.885 767.733 388.749C765.67 389.129 766.544 392.275 768.6 391.896Z" fill="#FF008C"/>
<path d="M777.751 406.764C777.708 407.397 777.819 408.071 778.058 408.659C778.35 409.379 778.734 410.021 779.289 410.574C780.273 411.554 781.697 412.202 783.103 412.102C783.54 412.071 783.94 411.941 784.257 411.624C784.54 411.341 784.753 410.877 784.735 410.47C784.716 410.048 784.577 409.61 784.257 409.316C783.951 409.035 783.533 408.808 783.103 408.838C782.896 408.853 782.69 408.848 782.483 408.823L782.917 408.881C782.626 408.842 782.346 408.764 782.074 408.654L782.464 408.818C782.161 408.689 781.879 408.522 781.618 408.321L781.948 408.576C781.688 408.371 781.457 408.137 781.254 407.875L781.509 408.205C781.321 407.956 781.164 407.689 781.04 407.402L781.205 407.792C781.093 407.521 781.015 407.241 780.974 406.95L781.032 407.384C781.007 407.178 781.001 406.972 781.015 406.764C781.042 406.363 780.813 405.886 780.537 405.61C780.254 405.327 779.789 405.114 779.383 405.132C778.961 405.151 778.523 405.289 778.229 405.61C777.925 405.941 777.782 406.313 777.751 406.764Z" fill="#FF008C"/>
<path d="M777.819 407.664C778.417 407.237 779.057 406.878 779.733 406.591L779.344 406.755C779.852 406.543 780.374 406.372 780.91 406.245C781.301 406.152 781.685 405.837 781.885 405.495C782.09 405.145 782.177 404.63 782.05 404.238C781.77 403.372 780.933 402.886 780.043 403.098C778.667 403.425 777.323 404.024 776.172 404.847C775.818 405.1 775.541 405.389 775.422 405.822C775.314 406.212 775.363 406.733 775.587 407.079C775.811 407.428 776.146 407.734 776.562 407.829C776.967 407.921 777.467 407.916 777.819 407.664Z" fill="#FF008C"/>
<path d="M772.586 442.506C777.88 440.427 783.558 440.989 789.093 441.466C795.076 441.981 800.941 441.951 806.875 440.935C808.94 440.581 808.065 437.436 806.007 437.788C800.058 438.807 794.175 438.639 788.19 438.125C782.675 437.651 776.978 437.294 771.719 439.359C769.786 440.118 770.628 443.275 772.586 442.506Z" fill="#FF008C"/>
</svg>
