<svg width="1000" height="1000" viewBox="0 0 1000 1000" fill="none" xmlns="http://www.w3.org/2000/svg">
<path d="M431.493 565.506C409.925 630.154 409.095 699.618 408.494 767.766C408.415 776.721 408.22 786.128 403.758 793.892C399.579 801.166 392.251 805.953 386.252 811.818C380.253 817.683 375.242 826.122 377.717 834.138C379.726 840.641 386.284 844.901 392.971 846.166C399.659 847.432 406.539 846.251 413.241 845.07C420.667 843.763 428.093 842.455 435.518 841.147C435.566 841.138 435.882 844.991 436.012 845.282C436.976 847.441 436.336 846.944 438.557 847.83C441.606 849.046 447.366 847.608 450.598 847.34C459.208 846.628 467.778 845.425 476.251 843.739C475.661 834.088 479.389 672.574 504.839 612.513" fill="#84FF20"/>
<path d="M573.094 563.688C602.608 625.116 612.154 693.926 621.307 761.459C622.509 770.333 623.884 779.641 629.285 786.783C634.346 793.475 642.216 797.304 648.904 802.369C655.592 807.434 661.624 815.178 660.174 823.441C658.998 830.145 653.027 835.194 646.551 837.29C640.076 839.385 633.102 839.077 626.304 838.748C618.773 838.383 611.242 838.018 603.711 837.652C603.662 837.65 603.832 841.512 603.74 841.817C603.054 844.08 603.628 843.507 601.535 844.664C598.663 846.253 592.768 845.55 589.528 845.69C580.896 846.065 572.244 845.948 563.626 845.339C561.183 807.706 553.283 769.462 545.451 732.681C540.668 710.218 535.205 687.809 527.861 666.031C522.001 648.65 513.204 616.963 489.109 618.952" fill="#84FF20"/>
<path d="M430.018 565.099C422.536 587.585 417.491 610.807 414.147 634.252C410.791 657.776 409.079 681.5 408.159 705.235C407.701 717.075 407.437 728.921 407.261 740.769C407.172 746.771 407.105 752.774 407.047 758.778C406.992 764.429 407.076 770.101 406.758 775.745C406.453 781.164 405.659 786.731 403.224 791.645C400.919 796.297 397.248 799.968 393.41 803.379C385.961 809.999 377.127 816.861 375.712 827.459C374.376 837.468 382.169 845.131 391.361 847.378C397.012 848.759 402.904 848.251 408.59 847.389C414.64 846.471 420.659 845.307 426.685 844.245C429.764 843.703 432.843 843.161 435.921 842.618L434.043 841.552C433.939 841.259 434.033 841.433 434.062 841.696C434.098 842.023 434.129 842.351 434.162 842.678C434.233 843.379 434.301 844.08 434.391 844.779C434.532 845.869 434.929 847.245 435.691 848.065C436.514 848.954 438.263 849.435 439.409 849.64C441.439 850.004 443.52 849.803 445.549 849.542C455.95 848.204 466.348 847.248 476.654 845.211C477.274 845.088 477.813 844.367 477.775 843.738C477.375 837.072 477.56 830.333 477.598 823.661C477.679 809.7 478.006 795.74 478.541 781.789C479.224 763.962 480.253 746.145 481.772 728.369C483.339 710.036 485.394 691.722 488.494 673.58C491.127 658.172 494.375 642.663 499.868 627.991C500.413 626.535 500.981 625.086 501.585 623.654C502.341 621.865 499.711 620.306 498.948 622.112C492.993 636.212 489.506 651.3 486.704 666.303C483.35 684.264 481.126 702.435 479.414 720.62C477.706 738.76 476.548 756.95 475.758 775.152C475.118 789.882 474.719 804.624 474.577 819.367C474.503 827.162 474.394 834.982 474.678 842.775C474.69 843.096 474.702 843.417 474.721 843.738L475.842 842.266C470.747 843.273 465.62 844.125 460.467 844.778C456.044 845.339 451.587 845.609 447.176 846.256C445.349 846.524 443.506 846.795 441.654 846.783C440.835 846.778 440.037 846.714 439.254 846.463C438.9 846.349 438.524 846.098 438.158 846.045C438.1 846.036 437.668 845.795 437.934 845.996C438.198 846.195 437.928 845.962 437.955 846.011C437.775 845.68 437.584 845.223 437.483 844.865C437.384 844.516 437.374 844.19 437.332 843.808C437.23 842.861 437.311 841.645 436.988 840.74C436.691 839.906 435.977 839.521 435.11 839.673C429.133 840.726 423.156 841.779 417.18 842.831C411.291 843.868 405.354 845.156 399.35 845.182C394.274 845.205 389.262 844.174 385.023 841.272C381.192 838.65 378.607 834.532 378.595 829.819C378.569 819.332 388.143 812.098 395.225 805.843C398.896 802.601 402.464 799.117 404.959 794.858C407.602 790.347 408.843 785.232 409.446 780.081C410.079 774.684 410.005 769.226 410.054 763.801C410.107 757.979 410.164 752.156 410.238 746.333C410.386 734.753 410.602 723.172 410.985 711.597C411.756 688.332 413.199 665.065 416.157 641.967C419.102 618.973 423.61 596.136 430.392 573.953C431.215 571.262 432.074 568.581 432.963 565.91C433.584 564.041 430.636 563.24 430.018 565.099Z" fill="#FF008C"/>
<path d="M430.058 787.416C426.268 787.186 422.455 786.988 418.732 786.195C416.925 785.81 415.117 785.306 413.432 784.539C411.572 783.692 410.164 782.426 408.723 781.004C407.976 780.267 406.359 780.501 406.171 781.678C405.469 786.079 404.217 790.371 401.811 794.159C399.675 797.523 396.802 800.339 393.852 802.986C387.848 808.372 381.252 813.358 377.737 820.852C376.065 824.417 375.161 828.309 375.735 832.244C376.262 835.857 378.094 839.15 380.713 841.672C386.805 847.538 395.479 848.767 403.585 848.019C408.916 847.527 414.19 846.446 419.458 845.518C424.947 844.552 430.435 843.585 435.924 842.618L434.045 841.552C434.106 841.706 434.028 841.497 434.035 841.429C434.017 841.618 434.081 841.855 434.1 842.045C434.158 842.603 434.211 843.162 434.271 843.721C434.38 844.746 434.5 845.579 434.894 846.527C435.267 847.428 435.566 848.155 436.471 848.629C437.642 849.241 438.976 849.616 440.283 849.761C443.386 850.105 446.522 849.359 449.587 848.975C453.723 848.456 457.886 848.181 462.022 847.63C466.925 846.976 471.804 846.171 476.656 845.211C477.276 845.088 477.815 844.367 477.777 843.738C477.54 839.748 477.598 835.726 477.587 831.732C477.563 823.354 477.656 814.976 477.822 806.6C477.945 800.36 478.114 794.122 478.323 787.885C478.349 787.101 477.601 786.302 476.796 786.358C461.244 787.438 445.642 788.346 430.058 787.416C428.095 787.299 428.101 790.353 430.057 790.47C445.642 791.4 461.244 790.492 476.796 789.412L475.269 787.885C474.701 804.816 474.34 821.776 474.589 838.717C474.613 840.39 474.624 842.068 474.723 843.738L475.844 842.266C470.701 843.283 465.526 844.14 460.324 844.797C455.898 845.355 451.439 845.633 447.025 846.279C445.124 846.557 443.197 846.84 441.27 846.776C440.567 846.753 439.892 846.671 439.223 846.452C438.844 846.328 438.484 846.151 438.107 846.025C438.01 845.992 437.687 845.782 437.931 845.992C438.201 846.225 437.923 845.933 437.921 845.923C437.854 845.546 437.575 845.197 437.47 844.83C437.369 844.479 437.383 844.262 437.338 843.842C437.237 842.914 437.338 841.615 436.99 840.74C436.662 839.915 436.005 839.516 435.112 839.673C426.009 841.277 416.918 843.058 407.78 844.444C399.855 845.646 391.067 845.888 384.36 840.797C381.664 838.75 379.617 835.914 378.886 832.583C378.101 829.011 378.97 825.265 380.547 822.031C383.994 814.962 390.298 810.27 396.011 805.145C399.157 802.323 402.173 799.287 404.448 795.7C406.984 791.703 408.375 787.135 409.116 782.489L406.564 783.163C408.07 784.65 409.602 786.073 411.525 787.004C413.431 787.925 415.449 788.586 417.512 789.05C421.626 789.976 425.86 790.215 430.057 790.47C432.02 790.589 432.014 787.535 430.058 787.416Z" fill="#FF008C"/>
<path d="M419.672 754.101C422.088 751.353 423.523 748.022 424.514 744.531C425.606 740.683 426.339 736.678 426.476 732.675C426.717 725.661 424.842 718.445 420.079 713.137C417.406 710.158 413.877 708.09 409.967 707.233C408.978 707.016 408.071 707.677 408.035 708.705C407.45 725.223 407.217 741.749 407.055 758.276C407.045 759.317 408.035 759.949 408.988 759.748C413.034 758.894 416.823 757.163 419.672 754.101C421.01 752.663 418.855 750.499 417.513 751.941C414.999 754.643 411.738 756.051 408.176 756.803L410.109 758.276C410.271 741.749 410.504 725.222 411.088 708.705L409.156 710.177C417.099 711.919 421.861 719.085 423.1 726.761C423.832 731.294 423.372 735.983 422.39 740.44C421.496 744.497 420.314 748.754 417.513 751.941C416.22 753.412 418.372 755.581 419.672 754.101Z" fill="#FF008C"/>
<path d="M480.607 681.616C470.747 685.344 462.335 692.844 458.561 702.814C454.721 712.957 456.19 725.344 463.621 733.5C467.676 737.95 473.104 741.047 478.816 742.83C479.824 743.145 480.68 742.306 480.749 741.358C482.184 721.564 484.123 701.787 487.108 682.162C487.286 680.996 486.454 680.024 485.23 680.284C483.655 680.618 482.119 681.064 480.607 681.616C478.775 682.284 479.566 685.236 481.419 684.56C482.931 684.009 484.467 683.563 486.042 683.229L484.163 681.35C481.137 701.246 479.15 721.29 477.695 741.358L479.628 739.885C475.007 738.442 470.63 736.061 467.116 732.706C463.553 729.305 461.244 724.98 460.191 720.178C458.067 710.504 461.35 700.408 468.124 693.322C471.827 689.449 476.409 686.454 481.419 684.56C483.24 683.872 482.451 680.919 480.607 681.616Z" fill="#FF008C"/>
<path d="M459.798 647.477C461.582 654.197 459.215 662.078 454.745 667.273C452.538 669.838 449.718 671.865 446.362 672.56C442.463 673.367 438.36 672.006 435.262 669.622C427.553 663.689 424.259 651.395 428.531 642.581C431.471 636.516 437.298 632.636 444.149 633.417C451.756 634.284 457.773 640.285 459.798 647.477C460.33 649.366 463.277 648.564 462.743 646.665C460.595 639.036 454.607 632.643 446.779 630.798C439.11 628.991 431.467 632.135 427.191 638.732C421.061 648.187 423.278 661.434 430.705 669.549C434.012 673.164 438.636 675.669 443.59 675.831C447.676 675.964 451.518 674.316 454.607 671.717C461.462 665.947 465.054 655.369 462.743 646.665C462.239 644.768 459.292 645.573 459.798 647.477Z" fill="#FF008C"/>
<path d="M450.93 772.456C449.751 772.513 448.848 772.445 447.755 772.028C447.057 771.763 446.396 771.271 445.797 770.62C445.368 770.154 444.884 769.216 444.677 768.562C444.355 767.544 444.289 767.009 444.295 765.95C444.307 764.072 444.852 762.2 445.933 760.536C446.378 759.849 447.16 758.977 447.785 758.493C448.187 758.182 448.625 757.909 449.065 757.658C449.272 757.54 449.483 757.427 449.697 757.322C449.811 757.265 449.927 757.21 450.043 757.158C450.335 757.027 449.906 757.204 450.226 757.084C450.617 756.938 451.015 756.811 451.424 756.718C451.595 756.679 451.767 756.648 451.94 756.618C451.59 756.678 452.245 756.594 452.352 756.589C452.716 756.572 453.075 756.588 453.437 756.622C453.307 756.61 453.407 756.615 453.666 756.669C453.853 756.709 454.039 756.757 454.222 756.812C454.404 756.868 454.582 756.932 454.759 757.001C454.387 756.856 454.872 757.059 454.961 757.104C455.282 757.268 455.58 757.461 455.878 757.662C456.23 757.9 455.79 757.557 456.106 757.844C456.218 757.947 456.334 758.046 456.445 758.152C456.723 758.42 456.981 758.707 457.223 759.008C456.987 758.715 457.316 759.14 457.369 759.217C457.469 759.363 457.566 759.511 457.659 759.662C457.868 760.003 458.048 760.357 458.224 760.716C458.26 760.788 458.291 760.863 458.324 760.936C458.192 760.639 458.284 760.841 458.31 760.906C458.384 761.095 458.455 761.284 458.52 761.476C458.644 761.843 458.748 762.217 458.834 762.595C458.875 762.774 458.911 762.955 458.943 763.136C458.961 763.237 458.976 763.339 458.992 763.44C459.031 763.688 458.957 763.062 458.993 763.461C459.027 763.85 459.057 764.237 459.058 764.628C459.059 764.999 459.031 765.364 459.005 765.733C458.978 766.101 459.052 765.554 458.969 765.996C458.931 766.197 458.894 766.397 458.848 766.596C458.745 767.035 458.608 767.462 458.447 767.882C458.422 767.946 458.328 768.147 458.458 767.857C458.408 767.969 458.356 768.08 458.302 768.19C458.211 768.375 458.113 768.556 458.008 768.733C457.893 768.929 457.765 769.117 457.638 769.306C457.593 769.373 457.42 769.599 457.615 769.349C457.537 769.449 457.456 769.546 457.373 769.641C457.091 769.968 456.781 770.263 456.456 770.547C456.464 770.541 456.127 770.81 456.3 770.677C456.429 770.578 456.058 770.846 456.018 770.873C455.827 771.002 455.63 771.124 455.429 771.237C455.222 771.355 455.01 771.463 454.795 771.567C454.474 771.721 454.655 771.643 454.263 771.784C453.121 772.197 452.022 772.386 450.93 772.456C448.978 772.58 448.964 775.635 450.93 775.51C455.536 775.217 459.737 773.061 461.436 768.579C462.739 765.142 462.139 760.923 460.137 757.871C457.975 754.575 454.247 752.818 450.35 753.838C445.318 755.154 441.875 759.673 441.315 764.736C441.033 767.285 441.556 770.05 443.115 772.128C444.971 774.602 447.893 775.658 450.93 775.51C452.886 775.414 452.898 772.36 450.93 772.456Z" fill="#FF008C"/>
<path d="M571.773 564.458C581.727 585.217 589.458 606.969 595.615 629.137C601.79 651.375 606.405 674.016 610.256 696.762C614.087 719.393 616.969 742.149 620.248 764.861C621 770.065 621.935 775.308 623.916 780.204C625.84 784.957 628.696 789.086 632.548 792.484C640.196 799.231 650.461 803.172 656.038 812.099C658.589 816.184 659.802 821.136 657.935 825.75C656.187 830.073 652.265 833.262 648.08 835.091C642.846 837.38 636.912 837.568 631.291 837.423C625.218 837.266 619.145 836.874 613.076 836.58C609.954 836.428 606.831 836.277 603.709 836.125C603.072 836.095 602.374 836.619 602.236 837.246C602.022 838.22 602.211 839.346 602.228 840.33C602.234 840.655 602.249 840.982 602.238 841.307C602.23 841.542 602.201 841.763 602.265 841.411C602.192 841.812 602.007 842.194 601.939 842.597C601.916 842.732 601.717 843.032 601.879 842.833C602.153 842.494 601.819 842.792 601.642 842.87C601.338 843.003 601.062 843.202 600.762 843.346C600.073 843.677 599.341 843.867 598.586 843.988C596.703 844.289 594.748 844.214 592.849 844.177C588.342 844.09 583.836 844.383 579.327 844.377C574.087 844.369 568.85 844.175 563.624 843.812L565.151 845.339C563.859 825.65 561.143 806.08 557.746 786.652C554.358 767.281 550.332 748.019 546.175 728.799C542.029 709.63 537.351 690.554 531.38 671.864C527.685 660.301 524.154 648.342 518.418 637.593C513.201 627.817 505.236 618.554 493.527 617.443C492.055 617.303 490.58 617.313 489.107 617.425C487.16 617.573 487.144 620.629 489.107 620.479C494.529 620.066 499.661 621.437 504.096 624.598C508.535 627.763 511.877 632.312 514.584 636.981C520.27 646.792 523.535 657.807 527.081 668.513C533.105 686.706 537.843 705.299 542 723.999C546.184 742.815 550.115 761.709 553.585 780.67C557.075 799.744 559.985 818.943 561.576 838.276C561.77 840.629 561.942 842.983 562.097 845.339C562.154 846.207 562.753 846.805 563.624 846.866C574.043 847.589 584.426 847.27 594.853 847.255C596.811 847.252 598.886 847.205 600.771 846.619C601.969 846.247 603.713 845.559 604.444 844.475C605.019 843.622 605.259 842.32 605.292 841.307C605.315 840.605 605.273 839.896 605.256 839.195C605.247 838.867 605.254 838.535 605.232 838.208C605.218 838.008 605.323 837.412 605.181 838.058L603.709 839.179C610.138 839.491 616.567 839.803 622.996 840.115C628.974 840.404 635.007 840.867 640.966 840.07C650.433 838.803 660.702 833.004 661.824 822.574C662.97 811.932 653.864 803.782 645.932 798.386C641.568 795.418 636.996 792.661 633.217 788.936C629.367 785.141 626.934 780.416 625.442 775.257C623.934 770.044 623.263 764.639 622.536 759.276C621.743 753.427 620.947 747.578 620.134 741.731C618.506 730.011 616.814 718.299 614.951 706.613C611.236 683.302 606.85 660.073 600.94 637.21C595.076 614.52 587.678 592.203 578.076 570.808C576.888 568.162 575.664 565.532 574.41 562.917C573.561 561.145 570.926 562.693 571.773 564.458Z" fill="#FF008C"/>
<path d="M602.978 786.649C607.025 785.886 611.109 785.143 614.988 783.721C616.867 783.032 618.712 782.207 620.403 781.13C622.278 779.935 623.664 778.371 625.027 776.637L622.475 775.963C623.636 779.942 625.25 783.843 627.707 787.205C629.986 790.323 632.831 792.88 635.906 795.191C642.065 799.818 649.097 803.351 654.082 809.379C656.433 812.221 658.381 815.705 658.785 819.426C659.165 822.928 658.117 826.356 655.974 829.137C651.009 835.58 642.621 837.322 634.921 837.447C629.839 837.53 624.746 837.145 619.673 836.899C614.352 836.641 609.031 836.383 603.71 836.125C603.054 836.093 602.399 836.621 602.238 837.246C601.989 838.207 602.214 839.388 602.231 840.364C602.236 840.653 602.231 840.942 602.24 841.23C602.245 841.386 602.145 841.988 602.267 841.411C602.19 841.777 602.061 842.143 601.964 842.506C601.929 842.64 601.679 843.128 601.877 842.838C602.104 842.504 602.067 842.694 601.767 842.802C601.419 842.928 601.097 843.183 600.764 843.346C600.074 843.682 599.335 843.869 598.578 843.989C596.736 844.281 594.829 844.214 592.972 844.179C588.401 844.093 583.833 844.384 579.261 844.376C574.044 844.367 568.829 844.173 563.625 843.811L565.152 845.338C564.883 841.304 564.313 837.276 563.817 833.266C562.775 824.862 561.619 816.472 560.39 808.094C559.484 801.919 558.534 795.751 557.543 789.59L556.07 791.523C571.771 790.634 587.5 789.554 602.978 786.649C604.907 786.287 604.09 783.343 602.166 783.704C586.956 786.558 571.498 787.596 556.07 788.469C555 788.529 554.435 789.391 554.598 790.401C557.271 807.023 559.747 823.699 561.612 840.434C561.793 842.065 561.989 843.7 562.098 845.338C562.156 846.207 562.753 846.805 563.625 846.865C572.357 847.473 581.053 847.456 589.796 847.207C592.822 847.121 595.844 847.43 598.858 847.011C600.858 846.733 604.056 845.899 604.793 843.73C605.133 842.727 605.303 841.766 605.29 840.713C605.283 840.105 605.264 839.497 605.249 838.888C605.242 838.622 605.25 838.352 605.231 838.087C605.214 837.849 605.335 837.47 605.183 838.058L603.71 839.179C613.399 839.649 623.124 840.402 632.824 840.506C641.144 840.595 649.844 839.302 656.164 833.424C658.797 830.975 660.859 827.758 661.578 824.205C662.355 820.368 661.656 816.517 660.012 813.002C656.522 805.54 649.596 800.821 642.967 796.397C639.15 793.849 635.315 791.254 632.18 787.866C628.843 784.259 626.785 779.83 625.42 775.151C625.129 774.153 623.611 773.533 622.868 774.478C621.63 776.052 620.411 777.528 618.695 778.599C617.038 779.633 615.251 780.418 613.405 781.048C609.754 782.294 605.948 782.991 602.166 783.704C600.237 784.068 601.054 787.012 602.978 786.649Z" fill="#FF008C"/>
<path d="M610.52 747.02C607.508 744.36 605.787 740.684 604.411 736.978C602.839 732.745 601.719 728.298 601.67 723.762C601.583 715.774 605.274 707.307 613.242 704.473L611.363 703.406C614.017 719.72 616.324 736.087 618.56 752.462L620.032 750.529C616.595 750.246 613.206 749.262 610.52 747.02C609.021 745.769 606.85 747.918 608.361 749.18C611.717 751.981 615.722 753.228 620.032 753.583C621.134 753.674 621.626 752.539 621.504 751.65C619.268 735.275 616.961 718.908 614.308 702.595C614.182 701.819 613.145 701.274 612.43 701.528C605.555 703.973 600.985 709.945 599.351 716.945C597.601 724.439 599.217 732.242 602.035 739.262C603.51 742.938 605.349 746.52 608.361 749.18C609.829 750.476 611.997 748.324 610.52 747.02Z" fill="#FF008C"/>
<path d="M538.324 688.03C547.573 690.25 556.065 695.993 560.642 704.462C565.334 713.143 565.565 724.446 559.788 732.68C556.631 737.181 552.013 740.557 547.052 742.823L549.295 743.735C545.359 724.144 540.912 704.637 535.449 685.411L533.976 687.344C535.445 687.467 536.886 687.704 538.324 688.03C540.237 688.464 541.054 685.52 539.135 685.085C537.434 684.699 535.715 684.436 533.976 684.29C532.978 684.206 532.251 685.332 532.504 686.223C537.967 705.449 542.414 724.955 546.351 744.547C546.562 745.599 547.767 745.837 548.594 745.46C553.459 743.237 557.935 739.956 561.274 735.754C564.651 731.503 566.562 726.472 567.072 721.075C568.093 710.274 563.172 699.582 554.817 692.806C550.235 689.09 544.872 686.462 539.135 685.085C537.225 684.627 536.41 687.571 538.324 688.03Z" fill="#FF008C"/>
<path d="M592.272 609.768C584.397 608.148 576.251 611.489 571.204 617.641C565.872 624.141 564.242 632.752 566.762 640.749C569.074 648.087 574.282 655.106 581.553 658.079C585.032 659.502 588.911 659.762 592.536 658.732C594.778 658.095 596.904 657.014 598.762 655.612C599.724 654.886 600.631 654.096 601.461 653.221C602.242 652.398 603.606 651.164 603.904 650.042C604.091 649.338 603.731 648.496 603.568 647.808C603.38 647.019 603.191 646.231 603 645.442C602.6 643.787 602.192 642.134 601.776 640.483C600.945 637.184 600.084 633.893 599.189 630.61C597.382 623.977 595.435 617.382 593.338 610.834C592.742 608.97 589.792 609.767 590.394 611.646C594.443 624.294 597.915 637.117 600.959 650.042L601.113 648.865C597.659 653.659 591.92 657.169 585.847 656.154C580.735 655.299 576.429 651.741 573.519 647.592C570.533 643.337 568.546 638.153 568.577 632.91C568.609 627.261 571.171 621.658 575.24 617.779C579.511 613.708 585.597 611.507 591.46 612.713C593.378 613.108 594.199 610.164 592.272 609.768Z" fill="#FF008C"/>
<path d="M579.987 774.483C582.756 774.268 585.306 773.223 586.993 770.946C588.391 769.057 588.871 766.563 588.638 764.255C588.114 759.052 584.557 754.588 579.472 753.192C575.551 752.115 571.666 753.57 569.462 756.986C567.497 760.032 567.058 764.221 568.323 767.616C569.117 769.749 570.493 771.57 572.423 772.802C574.65 774.224 577.389 774.645 579.987 774.483C581.94 774.361 581.953 771.306 579.987 771.429C579.446 771.463 578.903 771.476 578.361 771.455C577.735 771.429 577.439 771.398 576.971 771.311C576.527 771.227 576.087 771.117 575.657 770.976C575.475 770.917 575.295 770.852 575.117 770.782C574.697 770.618 575.274 770.857 575.031 770.745C574.906 770.687 574.783 770.628 574.661 770.565C574.304 770.382 573.969 770.171 573.638 769.946C573.356 769.754 573.698 770.025 573.386 769.752C573.227 769.612 573.069 769.474 572.918 769.325C572.266 768.683 572.147 768.527 571.673 767.664C571.584 767.503 571.504 767.338 571.423 767.173C571.387 767.099 571.354 767.024 571.321 766.95C571.221 766.724 571.449 767.291 571.311 766.918C571.176 766.553 571.054 766.187 570.957 765.809C570.865 765.452 570.795 765.09 570.739 764.726C570.702 764.478 570.773 765.103 570.74 764.704C570.733 764.622 570.723 764.541 570.717 764.459C570.7 764.255 570.688 764.05 570.682 763.845C570.672 763.476 570.68 763.106 570.706 762.738C570.72 762.534 570.74 762.331 570.765 762.128C570.719 762.507 570.802 761.927 570.825 761.809C570.893 761.451 570.979 761.097 571.082 760.747C571.127 760.593 571.176 760.44 571.229 760.288C571.265 760.182 571.466 759.669 571.409 759.801C571.338 759.967 571.541 759.522 571.579 759.444C571.658 759.286 571.741 759.13 571.828 758.977C572.009 758.656 572.212 758.349 572.429 758.051C572.197 758.369 572.568 757.887 572.623 757.824C572.724 757.71 572.828 757.599 572.934 757.491C573.068 757.356 573.207 757.229 573.348 757.103C573.404 757.052 573.463 757.005 573.521 756.957C573.811 756.712 573.257 757.133 573.571 756.921C573.854 756.729 574.138 756.552 574.44 756.391C574.56 756.327 574.906 756.182 574.594 756.307C574.791 756.228 574.991 756.157 575.195 756.097C575.364 756.046 575.535 756.002 575.708 755.966C575.786 755.949 575.864 755.936 575.942 755.92C576.324 755.838 575.71 755.939 575.956 755.914C576.354 755.873 576.752 755.857 577.153 755.876C577.234 755.88 577.88 755.948 577.546 755.9C577.73 755.926 577.914 755.961 578.096 755.999C578.586 756.103 579.062 756.251 579.533 756.418C580.204 756.655 581.323 757.24 581.994 757.765C583.519 758.958 584.654 760.734 585.207 762.55C585.804 764.508 585.846 766.753 584.997 768.377C584.021 770.242 582.312 771.249 579.987 771.429C578.041 771.579 578.024 774.635 579.987 774.483Z" fill="#FF008C"/>
<path d="M539.629 628.691C542.399 629.476 544.08 632.688 544.865 635.239C545.708 637.977 545.476 641.123 543.27 643.195C540.692 645.616 535.613 644.396 533.571 641.814C531.622 639.35 531.723 636.006 532.859 633.221C533.99 630.447 536.404 627.912 539.629 628.691C541.539 629.153 542.354 626.208 540.441 625.746C536.327 624.752 532.73 627.01 530.761 630.57C528.744 634.217 528.248 638.838 530.395 642.544C531.645 644.702 533.66 646.176 536.023 646.91C538.43 647.657 541.214 647.813 543.527 646.691C547.425 644.799 548.935 639.992 548.192 635.964C547.43 631.839 544.732 626.962 540.441 625.746C538.547 625.21 537.738 628.155 539.629 628.691Z" fill="#FF008C"/>
<path d="M464.809 600.187C467.579 600.972 469.259 604.184 470.045 606.735C470.888 609.473 470.655 612.62 468.45 614.691C465.871 617.112 460.793 615.892 458.751 613.31C456.802 610.846 456.903 607.502 458.039 604.717C459.17 601.943 461.583 599.408 464.809 600.187C466.719 600.649 467.533 597.704 465.621 597.242C461.507 596.248 457.909 598.506 455.941 602.066C453.923 605.714 453.428 610.334 455.575 614.041C456.825 616.198 458.84 617.672 461.203 618.406C463.61 619.153 466.393 619.309 468.706 618.187C472.605 616.295 474.115 611.488 473.371 607.46C472.61 603.335 469.912 598.458 465.621 597.242C463.727 596.706 462.918 599.652 464.809 600.187Z" fill="#FF008C"/>
<path d="M433.765 562.41C431.915 567.165 426.556 576.719 427.315 581.82C427.877 585.59 435.602 588.858 438.678 590.658C449.398 596.931 461.314 600.803 473.145 604.377C487.215 608.628 501.46 612.559 516.065 614.211C542.038 617.15 568.577 612.82 594.323 617.334C590.139 604.291 583.233 583.691 576.107 570.457" fill="#FF008C"/>
<path d="M432.291 562.005C430.504 566.54 428.106 570.814 426.665 575.491C426.028 577.56 425.474 579.85 425.815 582.023C426.152 584.176 427.795 585.758 429.452 587.024C431.312 588.444 433.377 589.558 435.442 590.647C437.894 591.94 440.273 593.359 442.745 594.614C448.731 597.653 455.009 600.094 461.361 602.247C474.77 606.79 488.525 610.841 502.418 613.598C516.524 616.397 530.742 616.96 545.087 616.832C561.37 616.686 577.796 616.016 593.916 618.807C594.989 618.993 596.181 618.132 595.794 616.928C591.745 604.315 587.483 591.726 582.176 579.578C580.712 576.226 579.153 572.912 577.424 569.687C576.495 567.954 573.858 569.495 574.787 571.229C581.05 582.912 585.481 595.595 589.698 608.129C590.773 611.325 591.819 614.53 592.849 617.74L594.728 615.862C566.789 611.024 538.279 616.261 510.3 611.908C496.615 609.779 483.255 605.915 470.043 601.835C463.755 599.894 457.493 597.823 451.421 595.275C446.056 593.023 441.023 590.19 435.909 587.439C433.76 586.284 431.459 585.071 429.782 583.259C428.287 581.642 428.747 579.52 429.253 577.556C430.585 572.395 433.293 567.747 435.236 562.817C435.957 560.988 433.005 560.194 432.291 562.005Z" fill="#FF008C"/>
<path d="M407.397 505.26C372.009 517.671 335.655 530.242 298.165 529.321C285.712 529.015 273.069 527.136 261.899 521.62C250.361 515.923 239.953 505.916 237.999 492.964C235.632 477.272 236.703 462.871 239.78 447.306C245.202 419.87 253.984 393.101 265.866 367.784C266.595 366.23 267.352 364.617 267.353 362.9C267.355 360.126 265.426 357.778 264.401 355.201C261.753 348.543 266.727 339.864 272.068 335.865C279.22 330.51 289.232 332.123 297.37 333.586C298.429 329.28 299.631 325.01 300.973 320.784C302.146 317.088 303.099 312.398 306.339 309.874C307.523 308.952 309.228 308.534 310.543 309.256C312 310.055 312.489 311.886 312.732 313.53C313.287 317.277 313.302 321.104 312.777 324.855C312.268 328.497 311.251 332.158 311.796 335.794C312.652 341.5 318.027 345.002 318.803 350.417C319.534 355.513 318.487 360.677 317.446 365.719C311.203 395.935 304.96 426.152 298.716 456.368C328.332 449.189 357.948 442.009 387.563 434.83" fill="white"/>
<path d="M406.992 503.787C382.222 512.473 357.242 521.192 331.245 525.395C318.408 527.471 305.296 528.411 292.306 527.526C280.3 526.708 268.13 524.037 257.816 517.6C249.244 512.25 241.795 504.178 239.731 494.025C238.443 487.688 238.176 480.999 238.245 474.549C238.315 467.977 238.936 461.42 239.962 454.932C241.992 442.103 245.145 429.394 248.822 416.945C252.481 404.558 256.829 392.366 261.866 380.471C263.138 377.467 264.455 374.481 265.813 371.515C267.039 368.835 268.888 365.939 268.88 362.899C268.873 360.012 267.162 357.691 266.035 355.161C265.052 352.956 265.002 350.555 265.567 348.23C266.715 343.511 269.949 338.868 274.111 336.32C278.656 333.538 284.207 333.413 289.36 333.917C291.913 334.166 294.441 334.605 296.964 335.058C297.759 335.2 298.63 334.851 298.842 333.991C300.186 328.557 301.782 323.192 303.456 317.852C304.129 315.704 304.923 313.429 306.515 311.773C307.224 311.035 308.195 310.271 309.292 310.438C310.422 310.61 310.806 311.803 311.039 312.77C312.451 318.641 311.125 324.53 310.36 330.361C310 333.107 309.959 335.944 310.959 338.568C311.746 340.635 312.967 342.449 314.205 344.267C315.382 345.997 316.614 347.772 317.134 349.828C317.837 352.612 317.573 355.751 317.204 358.567C316.391 364.759 314.82 370.897 313.557 377.009C311.006 389.356 308.455 401.702 305.904 414.049C303.018 428.02 300.131 441.991 297.244 455.962C297.008 457.107 297.945 458.125 299.123 457.84C322.184 452.249 345.245 446.659 368.307 441.068C374.861 439.48 381.415 437.891 387.97 436.302C389.879 435.839 389.07 432.893 387.158 433.357C364.096 438.947 341.035 444.538 317.974 450.128C311.419 451.717 304.865 453.306 298.311 454.895L300.189 456.773C305.627 430.456 311.064 404.139 316.502 377.821C317.836 371.362 319.484 364.879 320.287 358.328C320.658 355.296 320.834 352.007 320.079 349.016C319.523 346.816 318.294 344.866 317.034 343.009C315.771 341.146 314.367 339.272 313.673 337.104C312.713 334.105 313.303 330.9 313.826 327.876C314.378 324.682 314.762 321.492 314.672 318.244C314.599 315.628 314.531 312.549 313.343 310.154C312.006 307.46 308.977 306.729 306.37 308.054C303.951 309.283 302.469 311.904 301.477 314.316C300.373 317.003 299.64 319.87 298.795 322.645C297.735 326.13 296.772 329.643 295.898 333.179L297.776 332.113C292.433 331.155 286.934 330.208 281.495 330.826C276.093 331.438 271.316 333.706 267.744 337.856C264.423 341.715 261.745 346.966 262.181 352.194C262.422 355.097 263.833 357.348 265.03 359.927C265.596 361.146 265.98 362.412 265.751 363.762C265.481 365.356 264.629 366.831 263.956 368.28C252.71 392.498 244.25 418.005 238.861 444.158C236.109 457.515 234.466 471.091 235.53 484.735C235.992 490.65 236.659 496.541 239.182 501.973C241.401 506.752 244.776 510.985 248.668 514.513C267.516 531.595 295.834 532.41 319.777 529.968C346.814 527.211 372.854 518.876 398.413 510.011C401.546 508.925 404.675 507.829 407.804 506.732C409.646 506.086 408.853 503.134 406.992 503.787Z" fill="#FF008C"/>
<path d="M407.397 505.26C372.009 517.671 335.655 530.242 298.165 529.321C285.712 529.015 273.069 527.136 261.899 521.62C250.361 515.923 239.953 505.916 237.999 492.964C235.632 477.272 236.703 462.871 239.78 447.306C245.202 419.87 253.984 393.101 265.866 367.784C266.595 366.23 267.352 364.617 267.353 362.9C267.355 360.126 265.426 357.778 264.401 355.201C261.753 348.543 266.727 339.864 272.068 335.865C279.22 330.51 289.232 332.123 297.37 333.586C298.429 329.28 299.631 325.01 300.973 320.784C302.146 317.088 303.099 312.398 306.339 309.874C307.523 308.952 309.228 308.534 310.543 309.256C312 310.055 312.489 311.886 312.732 313.53C313.287 317.277 313.302 321.104 312.777 324.855C312.268 328.497 311.251 332.158 311.796 335.794C312.652 341.5 318.027 345.002 318.803 350.417C319.534 355.513 318.487 360.677 317.446 365.719C311.203 395.935 304.96 426.152 298.716 456.368C328.332 449.189 357.948 442.009 387.563 434.83" fill="white"/>
<path d="M406.992 503.787C382.222 512.473 357.242 521.192 331.245 525.395C318.408 527.471 305.296 528.411 292.306 527.526C280.3 526.708 268.13 524.037 257.816 517.6C249.244 512.25 241.795 504.178 239.731 494.025C238.443 487.688 238.176 480.999 238.245 474.549C238.315 467.977 238.936 461.42 239.962 454.932C241.992 442.103 245.145 429.394 248.822 416.945C252.481 404.558 256.829 392.366 261.866 380.471C263.138 377.467 264.455 374.481 265.813 371.515C267.039 368.835 268.888 365.939 268.88 362.899C268.873 360.012 267.162 357.691 266.035 355.161C265.052 352.956 265.002 350.555 265.567 348.23C266.715 343.511 269.949 338.868 274.111 336.32C278.656 333.538 284.207 333.413 289.36 333.917C291.913 334.166 294.441 334.605 296.964 335.058C297.759 335.2 298.63 334.851 298.842 333.991C300.186 328.557 301.782 323.192 303.456 317.852C304.129 315.704 304.923 313.429 306.515 311.773C307.224 311.035 308.195 310.271 309.292 310.438C310.422 310.61 310.806 311.803 311.039 312.77C312.451 318.641 311.125 324.53 310.36 330.361C310 333.107 309.959 335.944 310.959 338.568C311.746 340.635 312.967 342.449 314.205 344.267C315.382 345.997 316.614 347.772 317.134 349.828C317.837 352.612 317.573 355.751 317.204 358.567C316.391 364.759 314.82 370.897 313.557 377.009C311.006 389.356 308.455 401.702 305.904 414.049C303.018 428.02 300.131 441.991 297.244 455.962C297.008 457.107 297.945 458.125 299.123 457.84C322.184 452.249 345.245 446.659 368.307 441.068C374.861 439.48 381.415 437.891 387.97 436.302C389.879 435.839 389.07 432.893 387.158 433.357C364.096 438.947 341.035 444.538 317.974 450.128C311.419 451.717 304.865 453.306 298.311 454.895L300.189 456.773C305.627 430.456 311.064 404.139 316.502 377.821C317.836 371.362 319.484 364.879 320.287 358.328C320.658 355.296 320.834 352.007 320.079 349.016C319.523 346.816 318.294 344.866 317.034 343.009C315.771 341.146 314.367 339.272 313.673 337.104C312.713 334.105 313.303 330.9 313.826 327.876C314.378 324.682 314.762 321.492 314.672 318.244C314.599 315.628 314.531 312.549 313.343 310.154C312.006 307.46 308.977 306.729 306.37 308.054C303.951 309.283 302.469 311.904 301.477 314.316C300.373 317.003 299.64 319.87 298.795 322.645C297.735 326.13 296.772 329.643 295.898 333.179L297.776 332.113C292.433 331.155 286.934 330.208 281.495 330.826C276.093 331.438 271.316 333.706 267.744 337.856C264.423 341.715 261.745 346.966 262.181 352.194C262.422 355.097 263.833 357.348 265.03 359.927C265.596 361.146 265.98 362.412 265.751 363.762C265.481 365.356 264.629 366.831 263.956 368.28C252.71 392.498 244.25 418.005 238.861 444.158C236.109 457.515 234.466 471.091 235.53 484.735C235.992 490.65 236.659 496.541 239.182 501.973C241.401 506.752 244.776 510.985 248.668 514.513C267.516 531.595 295.834 532.41 319.777 529.968C346.814 527.211 372.854 518.876 398.413 510.011C401.546 508.925 404.675 507.829 407.804 506.732C409.646 506.086 408.853 503.134 406.992 503.787Z" fill="#FF008C"/>
<path d="M309.311 340.399C307.951 338.442 306.123 336.751 303.661 336.469C301.353 336.205 299.05 337.321 298.151 339.522C296.304 344.047 300.617 349.284 303.619 352.202L305.105 349.65C301.193 348.973 297.833 352.155 295.633 355.039C293.326 358.065 292.003 361.646 291.664 365.425C291.488 367.382 294.543 367.37 294.718 365.425C294.973 362.587 295.991 359.877 297.587 357.522C298.383 356.346 299.353 355.288 300.425 354.359C301.433 353.486 302.864 352.347 304.293 352.595C305.705 352.839 306.957 351.188 305.779 350.043C303.673 347.996 301.016 345.032 300.806 341.944C300.707 340.486 301.586 339.417 303.098 339.473C304.643 339.529 305.846 340.749 306.674 341.94C307.788 343.543 310.436 342.018 309.311 340.399Z" fill="#FF008C"/>
<path d="M262.761 355.662C263.337 358.263 266.149 359.833 268.702 359.296C271.549 358.698 273.173 355.891 273.308 353.158L270.463 353.929C272.145 356.244 274.585 358.135 277.612 357.649C280.364 357.207 282.459 354.361 281.402 351.613L278.611 352.79C280.106 355.428 283.202 356.864 286.181 356.218C289.283 355.545 291.403 352.561 291.465 349.476C291.504 347.51 288.45 347.511 288.411 349.476C288.331 353.472 283.185 354.665 281.248 351.249C280.419 349.788 277.821 350.773 278.457 352.425C278.984 353.796 277.823 354.773 276.479 354.675C275.04 354.57 273.909 353.5 273.1 352.387C272.222 351.177 270.334 351.569 270.255 353.158C270.192 354.418 269.517 355.924 268.188 356.282C267.097 356.577 265.95 355.953 265.706 354.851C265.28 352.933 262.335 353.744 262.761 355.662Z" fill="#FF008C"/>
<path d="M298.183 451.762C297.195 456.373 296.073 460.953 294.82 465.499C294.297 467.396 297.242 468.206 297.765 466.311C299.018 461.765 300.14 457.184 301.128 452.574C301.301 451.768 300.889 450.923 300.062 450.695C299.301 450.486 298.357 450.952 298.183 451.762Z" fill="#FF008C"/>
<path d="M339.391 525.442C350.916 523.954 362.575 520.041 373.648 516.612C384.989 513.101 396.199 509.188 407.4 505.259C407.401 505.259 407.384 505.2 407.383 505.198C404.01 493.221 400.637 481.244 397.264 469.268C394.042 457.826 390.352 446.36 387.587 434.826C385.092 435.46 382.694 434.868 380.211 435.261C376.586 435.834 372.887 437.72 369.438 438.956C368.852 439.166 368.248 439.387 367.794 439.814C367.305 440.274 367.047 440.923 366.811 441.552C364.495 447.743 362.984 454.234 362.328 460.811C361.474 469.376 362.067 478.019 361.605 486.614C361.143 495.209 359.512 504.024 354.72 511.174C351.863 515.436 347.872 518.402 344.423 522.087C343.722 522.836 342.94 523.607 342.03 524.101C341.117 524.596 339.958 524.556 339.391 525.442Z" fill="#FF008C"/>
<path d="M339.387 526.969C348.501 525.766 357.341 523.268 366.106 520.56C374.972 517.82 383.813 515.013 392.595 512.014C397.673 510.28 402.738 508.508 407.802 506.732C408.577 506.46 409.106 505.694 408.869 504.853C403.717 486.56 398.519 468.283 393.244 450.025C391.749 444.85 390.317 439.657 389.055 434.42C388.856 433.591 387.962 433.177 387.177 433.354C385.181 433.803 383.155 433.47 381.135 433.628C379.253 433.775 377.428 434.276 375.654 434.903C373.769 435.57 371.937 436.377 370.07 437.094C368.502 437.697 366.894 438.133 365.983 439.673C365.015 441.306 364.519 443.366 363.957 445.165C363.371 447.043 362.858 448.943 362.418 450.861C361.52 454.77 360.931 458.752 360.627 462.752C359.479 477.883 362.495 494.611 354.617 508.429C352.611 511.949 349.826 514.723 346.907 517.487C345.503 518.817 344.171 520.21 342.798 521.568C342.1 522.258 341.423 522.749 340.493 523.05C339.651 523.322 338.871 523.655 338.307 524.362C337.093 525.884 339.24 528.059 340.466 526.522C340.882 526.001 341.521 525.955 342.119 525.721C342.909 525.411 343.583 524.939 344.229 524.397C345.528 523.306 346.637 521.97 347.86 520.794C350.408 518.345 353.03 515.983 355.17 513.152C359.422 507.526 361.503 500.484 362.462 493.583C363.546 485.778 363.248 477.902 363.375 470.047C363.505 462.016 364.411 454.131 366.763 446.428C367.085 445.374 367.429 444.328 367.796 443.289C368.128 442.348 368.358 441.1 369.327 440.631C371.179 439.735 373.238 439.073 375.16 438.333C377.138 437.571 379.232 436.797 381.365 436.669C383.598 436.535 385.781 436.795 387.989 436.298L386.11 435.232C388.33 444.45 391.09 453.522 393.755 462.617C396.448 471.812 398.992 481.051 401.589 490.273C403.034 495.404 404.479 500.535 405.924 505.665L406.99 503.787C389.709 509.847 372.346 515.976 354.649 520.727C349.63 522.075 344.543 523.235 339.386 523.915C338.562 524.024 337.869 524.539 337.859 525.442C337.852 526.184 338.569 527.077 339.387 526.969Z" fill="#FF008C"/>
<path d="M465.038 594.859C470.293 596.552 475.6 598.082 480.951 599.441C507.012 606.057 534.655 608.96 561.32 604.462C573.663 602.379 584.281 600.066 595.655 594.553C607.478 588.822 618.68 581.75 628.678 573.208C658.341 547.865 673.44 509.025 676.511 470.715C679.259 441.41 672.661 410.687 655.547 386.615C655.311 386.283 655.07 385.939 654.989 385.54C654.853 384.863 655.204 384.193 655.535 383.585C661.205 373.157 664.151 361.138 663.23 349.263C662.304 337.332 657.483 325.941 650.857 315.976C636.593 294.526 613.963 279.311 589.344 271.73C564.725 264.15 538.229 263.867 512.863 268.351C495.097 271.492 477.038 277.339 464.128 289.942C451.219 302.546 444.944 323.28 453.317 339.261C429.703 351.911 409.146 371.027 393.903 393.172C382.131 410.274 372.853 429.342 368.799 449.704C360.322 492.282 376.935 538.914 410.424 566.541C426.338 579.669 445.402 588.533 465.038 594.859Z" fill="white"/>
<path d="M464.631 596.332C489.881 604.433 516.662 609.283 543.248 607.941C555.797 607.307 568.543 605.338 580.635 601.882C592.473 598.498 603.556 592.748 613.871 586.091C623.729 579.73 632.915 572.266 640.78 563.543C648.174 555.342 654.462 546.163 659.61 536.402C669.892 516.907 675.739 495.232 677.808 473.34C680.014 449.995 677.279 426.44 667.689 404.891C665.288 399.496 662.472 394.285 659.244 389.339C658.49 388.183 657.515 387.058 656.864 385.844C656.176 384.562 657.619 382.934 658.212 381.717C659.572 378.928 660.752 376.044 661.726 373.097C665.582 361.423 665.936 348.869 662.526 337.045C656.209 315.143 639.641 296.849 620.805 284.664C600.605 271.597 576.867 265.133 552.952 264.053C539.925 263.465 526.854 264.443 514.004 266.612C502.722 268.516 491.508 271.401 481.167 276.389C471.304 281.147 462.289 287.99 456.196 297.19C450.619 305.609 447.328 315.956 448.091 326.106C448.458 330.983 449.76 335.682 451.997 340.032L452.544 337.943C432.666 348.639 415.157 363.601 400.993 381.144C386.258 399.392 374.334 420.659 368.623 443.517C363.607 463.595 364.053 484.759 369.452 504.714C374.781 524.41 384.851 542.874 398.836 557.76C414.523 574.46 434.984 585.706 456.337 593.489C459.083 594.49 461.85 595.432 464.631 596.332C466.505 596.938 467.308 593.99 465.443 593.387C443.911 586.422 422.839 576.387 406.181 560.782C391.592 547.114 380.725 529.639 374.439 510.69C368.188 491.844 366.363 471.429 369.938 451.852C374.105 429.032 384.924 407.737 398.614 389.182C411.713 371.428 428.203 356.001 447.096 344.566C449.391 343.176 451.724 341.851 454.086 340.58C454.84 340.174 455.001 339.204 454.634 338.491C450.033 329.543 450.187 319.095 453.39 309.718C456.785 299.781 463.485 291.431 471.976 285.346C481.085 278.819 491.698 274.786 502.51 272.092C514.362 269.14 526.609 267.528 538.808 267.065C562.892 266.151 587.377 270.251 608.937 281.332C628.228 291.247 645.277 306.588 655.009 326.183C660.416 337.07 663.015 349.184 661.351 361.305C660.522 367.345 658.76 373.296 656.211 378.833C655.589 380.184 654.892 381.492 654.215 382.815C653.675 383.87 653.222 384.943 653.58 386.138C653.922 387.284 654.852 388.264 655.515 389.239C656.359 390.481 657.176 391.742 657.967 393.019C670.032 412.493 675.662 435.527 675.584 458.335C675.511 479.892 671.183 501.821 663.066 521.785C654.946 541.756 642.449 559.907 625.766 573.666C616.347 581.434 605.869 587.927 594.883 593.235C584.158 598.416 572.598 601.032 560.913 602.99C535.187 607.299 508.711 604.684 483.514 598.507C477.431 597.016 471.407 595.3 465.443 593.387C463.567 592.785 462.764 595.733 464.631 596.332Z" fill="#FF008C"/>
<path d="M606.67 352.428C622.068 357.648 636.034 366.799 647.053 378.746C650.189 382.146 653.067 385.765 655.679 389.582C656.782 391.195 659.43 389.669 658.316 388.041C648.769 374.087 635.713 362.613 620.617 354.986C616.376 352.844 611.98 351.008 607.482 349.483C605.616 348.85 604.816 351.799 606.67 352.428Z" fill="#FF008C"/>
<path d="M449.333 343.001C465.966 335.064 484.813 331.438 503.2 332.84C508.336 333.232 513.423 334.058 518.418 335.314C520.325 335.794 521.138 332.849 519.23 332.369C500.728 327.715 480.888 328.881 462.731 334.509C457.617 336.094 452.624 338.058 447.792 340.363C446.019 341.209 447.566 343.843 449.333 343.001Z" fill="#FF008C"/>
<path d="M692.109 663.963C692.152 667.954 692.629 671.941 693.515 675.833C693.698 676.637 694.624 677.111 695.393 676.899C696.219 676.672 696.643 675.827 696.46 675.021C695.632 671.385 695.203 667.691 695.163 663.963C695.142 661.999 692.088 661.994 692.109 663.963Z" fill="#FF008C"/>
<path d="M637.945 535.389C649.516 541.276 661.02 547.295 672.454 553.444C683.418 559.341 694.509 564.681 703.903 572.781C704.452 573.255 705.028 573.769 705.23 574.466C705.481 575.331 705.094 576.239 704.719 577.059C691.995 604.898 684.268 635.543 686.46 666.074C686.636 668.527 686.959 671.17 688.639 672.966C690.319 674.762 693.831 674.94 694.905 672.727C695.616 681.262 699.532 690.796 704.973 697.362C705.931 698.518 706.997 699.649 708.371 700.255C710.429 701.163 713.029 700.655 714.594 699.039C716.16 697.422 716.584 694.807 715.609 692.779C717.406 695.027 719.85 697.524 722.66 696.9C725.869 696.188 726.778 692.105 726.929 688.821C728.69 690.759 731.811 691.293 734.117 690.052C736.423 688.811 737.696 685.913 737.049 683.375C738.801 685.207 742.196 683.805 743.167 681.463C744.137 679.121 743.469 676.457 742.779 674.017C741.041 667.868 736.368 658.602 737.203 652.176C737.543 649.557 738.668 647.115 739.773 644.716C747.709 627.5 757.053 609.231 761.35 590.68C767.222 565.333 759.567 536.256 740.762 518.008C729.582 507.159 713.395 500.353 699.683 493.203C684.327 485.196 668.676 477.754 652.773 470.898" fill="white"/>
<path d="M637.178 536.708C649.284 542.869 661.287 549.22 673.273 555.612C678.658 558.484 684.09 561.276 689.341 564.392C692.011 565.976 694.633 567.644 697.165 569.442C698.389 570.311 699.592 571.208 700.763 572.147C701.599 572.817 703.941 574.152 703.74 575.374C703.52 576.714 702.541 578.188 701.994 579.432C701.354 580.886 700.73 582.346 700.117 583.811C698.873 586.784 697.69 589.783 696.572 592.805C694.39 598.707 692.457 604.702 690.814 610.776C687.507 622.997 685.365 635.569 684.749 648.222C684.578 651.727 684.525 655.238 684.598 658.746C684.667 662.091 684.71 665.519 685.239 668.829C685.679 671.573 686.967 674.374 689.703 675.442C692.045 676.356 694.946 675.818 696.227 673.498L693.381 672.728C693.987 679.554 696.198 686.228 699.58 692.179C702.378 697.101 707.745 705.355 714.406 701.134C717.511 699.167 718.357 695.266 716.931 692.008L714.533 693.859C716.89 696.775 720.609 699.999 724.533 697.802C727.605 696.083 728.291 692.012 728.459 688.821L725.852 689.901C728.166 692.287 731.936 692.967 734.891 691.371C737.866 689.764 739.236 686.19 738.525 682.97L735.972 684.455C738.962 687.261 743.639 685 744.789 681.476C746.126 677.379 744.022 672.602 742.628 668.77C741.161 664.737 739.524 660.669 738.845 656.41C738.524 654.393 738.573 652.409 739.126 650.438C739.791 648.068 740.924 645.848 741.957 643.624C746.382 634.094 750.962 624.633 754.951 614.908C758.773 605.593 762.256 595.903 763.828 585.922C766.502 568.948 763.627 551.174 755.778 535.888C751.888 528.312 746.705 521.287 740.385 515.56C733.437 509.263 725.233 504.533 716.951 500.231C708.255 495.715 699.488 491.304 690.731 486.909C680.967 482.008 671.089 477.334 661.108 472.892C658.594 471.774 656.074 470.67 653.547 469.58C651.762 468.81 650.204 471.44 652.006 472.217C661.665 476.386 671.234 480.763 680.699 485.356C689.674 489.711 698.492 494.37 707.417 498.824C715.489 502.853 723.612 506.901 731.041 512.055C738.06 516.925 744.088 522.98 748.833 530.09C757.968 543.778 762.403 560.471 761.689 576.882C761.294 585.977 759.03 594.773 756.08 603.351C752.756 613.015 748.542 622.338 744.227 631.591C742.12 636.109 739.951 640.602 737.907 645.15C736.921 647.344 736.022 649.572 735.706 651.973C735.46 653.846 735.635 655.722 735.96 657.575C736.664 661.586 738.165 665.422 739.556 669.233C740.206 671.015 740.854 672.8 741.367 674.628C741.92 676.599 742.764 679.328 741.574 681.236C740.939 682.253 739.19 683.289 738.132 682.296C736.997 681.231 735.251 682.294 735.58 683.782C735.999 685.681 735.101 687.82 733.349 688.734C731.57 689.663 729.369 689.142 728.011 687.742C727.048 686.748 725.472 687.543 725.405 688.821C725.299 690.822 725.038 693.746 723.234 695.017C720.77 696.755 718.048 693.376 716.693 691.699C715.511 690.237 713.662 692.105 714.294 693.55C715.538 696.391 713.118 699.513 710.083 699.157C708.344 698.953 707.11 697.552 706.056 696.283C704.994 695.003 704.042 693.634 703.162 692.224C699.52 686.382 697.046 679.604 696.435 672.727C696.31 671.312 694.376 670.532 693.59 671.957C692.611 673.73 690.1 672.568 689.262 671.286C687.772 669.009 687.94 665.703 687.808 663.097C687.494 656.924 687.579 650.733 688.024 644.569C688.907 632.347 691.235 620.254 694.625 608.486C696.325 602.586 698.292 596.764 700.491 591.031C701.598 588.147 702.763 585.284 703.988 582.448C704.595 581.042 705.219 579.643 705.851 578.247C706.446 576.931 707.123 575.54 706.706 574.06C706.347 572.787 705.271 571.934 704.304 571.121C703.18 570.176 702.027 569.266 700.857 568.38C698.498 566.595 696.045 564.936 693.536 563.369C688.431 560.18 683.104 557.369 677.788 554.554C664.792 547.671 651.827 540.742 638.719 534.07C636.972 533.181 635.424 535.815 637.178 536.708Z" fill="#FF008C"/>
<path d="M342.065 239.259C338.297 245.154 333.677 250.517 330.441 256.748C328.728 260.046 328.808 261.599 329.03 265.095C329.222 268.129 328.836 271.587 326.631 273.875C325.532 275.014 324.082 275.75 322.607 276.326C318.332 277.997 313.515 278.472 309.11 277.179C305.801 276.208 301.269 273.663 299.965 270.221C298.97 267.593 299.79 264.694 299.231 262.012C298.669 259.318 297.289 256.31 295.787 254.003C294.044 251.326 291.739 249.072 289.454 246.841C283.12 240.658 275.195 233.574 272.772 224.758C271.366 219.642 271.421 214.229 272.002 208.955C274.022 190.63 288.83 179.051 306.647 177.272C315.73 176.365 325.17 177.818 333.146 182.257C345.524 189.146 352.038 202.399 350.591 216.408C349.749 224.569 346.483 232.346 342.065 239.259Z" fill="#84FF20"/>
<path d="M308.607 298.78C311.471 299.497 314.423 299.906 317.362 299.691C320.719 299.446 324.07 298.344 326.665 296.201C327.426 295.573 328.142 294.82 328.425 293.874C328.973 292.048 327.781 290.02 328.386 288.212C328.646 287.434 329.215 286.793 329.516 286.029C329.928 284.988 329.787 283.746 329.153 282.823C328.851 282.384 328.447 282.015 328.196 281.544C327.714 280.64 327.879 279.53 328.197 278.556C328.514 277.582 328.974 276.636 329.057 275.615C329.338 272.137 325.637 271.236 323.187 270.057C322.228 269.596 321.245 269.155 320.197 268.967C319.21 268.79 318.197 268.844 317.195 268.905C314.055 269.096 310.919 269.351 307.789 269.671C304.828 269.973 301.488 270.56 299.736 273.29C298.94 274.53 298.724 276.206 299.454 277.487C299.833 278.153 300.451 278.714 300.583 279.469C300.712 280.21 300.337 280.933 300.04 281.625C299.755 282.287 299.534 282.977 299.379 283.682C299.202 284.49 299.132 285.353 299.407 286.147C299.717 287.045 300.498 287.385 300.973 288.151C301.573 289.118 301.167 290.366 301.214 291.503C301.299 293.522 302.768 294.258 303.747 295.733C304.748 297.242 305.548 297.938 307.394 298.457C307.797 298.57 308.201 298.678 308.607 298.78Z" fill="#84FF20"/>
<path d="M322.611 276.326C318.335 277.997 313.519 278.471 309.114 277.179C307.656 276.751 299.794 273.495 301.477 271.39C301.881 270.885 302.555 270.697 303.186 270.551C310.397 268.889 318.029 269.091 325.142 271.133C325.733 271.303 326.335 271.492 326.825 271.863C327.036 272.023 327.227 272.221 327.325 272.467C328.025 274.24 323.747 275.882 322.611 276.326Z" fill="#FF008C"/>
<path d="M322.197 274.854C318.191 276.377 313.677 276.993 309.512 275.706C307.632 275.125 305.765 274.207 304.125 273.128C303.733 272.87 303.344 272.599 303.023 272.254C302.964 272.189 302.819 271.952 302.763 271.933C302.585 271.874 302.822 271.706 302.742 271.887C302.741 271.891 302.759 272.181 302.743 272.171C302.771 272.189 302.665 272.262 302.723 272.299C302.731 272.304 303.087 272.152 303.109 272.147C303.569 272.047 304.025 271.922 304.488 271.826C305.637 271.587 306.796 271.391 307.961 271.255C312.338 270.747 316.808 270.887 321.133 271.738C322.401 271.987 323.669 272.28 324.906 272.658C325.028 272.696 325.923 273.087 325.865 272.828C325.852 272.769 325.608 273.059 325.546 273.105C324.527 273.866 323.379 274.392 322.197 274.854C320.387 275.561 321.175 278.515 323.009 277.799C324.549 277.197 326.113 276.559 327.41 275.511C329.002 274.225 329.56 272.078 327.743 270.664C326.799 269.93 325.56 269.651 324.425 269.357C322.932 268.972 321.419 268.666 319.894 268.441C317.011 268.015 314.102 267.829 311.188 267.949C308.336 268.067 305.379 268.385 302.614 269.118C300.902 269.571 299.228 270.87 299.84 272.835C300.28 274.248 301.711 275.226 302.9 275.968C304.276 276.826 305.763 277.506 307.262 278.119C312.263 280.164 318.039 279.688 323.009 277.799C324.828 277.107 324.04 274.153 322.197 274.854Z" fill="#FF008C"/>
<path d="M301.02 284.34C303.587 286.262 306.758 287.309 309.955 287.408C310.755 287.433 311.519 286.688 311.482 285.881C311.444 285.033 310.812 284.381 309.955 284.354C309.583 284.343 309.212 284.32 308.842 284.28C308.749 284.27 308.657 284.26 308.565 284.248C308.74 284.271 308.738 284.27 308.556 284.243C308.419 284.219 308.281 284.198 308.144 284.172C307.435 284.039 306.737 283.852 306.057 283.613C305.903 283.56 305.75 283.503 305.599 283.444C305.512 283.411 305.425 283.376 305.339 283.341C305.49 283.404 305.483 283.401 305.319 283.33C305.003 283.182 304.688 283.034 304.38 282.868C303.744 282.527 303.139 282.135 302.561 281.703C301.919 281.222 300.827 281.578 300.472 282.251C300.049 283.052 300.335 283.827 301.02 284.34Z" fill="#FF008C"/>
<path d="M323.543 286.223C324.861 286.213 326.216 285.819 327.298 285.059C327.63 284.826 327.889 284.548 328 284.146C328.101 283.781 328.055 283.294 327.846 282.97C327.636 282.644 327.323 282.357 326.934 282.268C326.552 282.181 326.09 282.188 325.757 282.422C325.448 282.639 325.119 282.821 324.772 282.969L325.136 282.815C324.708 282.993 324.262 283.114 323.803 283.178L324.209 283.123C323.988 283.152 323.766 283.167 323.544 283.169C323.15 283.172 322.743 283.337 322.464 283.616C322.199 283.881 322 284.315 322.017 284.696C322.034 285.09 322.164 285.5 322.464 285.775C322.761 286.048 323.131 286.226 323.543 286.223Z" fill="#FF008C"/>
<path d="M313.085 294.284C313.552 294.405 314.041 294.474 314.523 294.495C315.008 294.516 315.493 294.454 315.97 294.373C316.169 294.326 316.342 294.235 316.49 294.1C316.656 293.992 316.787 293.849 316.883 293.671C316.995 293.496 317.055 293.307 317.064 293.103C317.11 292.9 317.101 292.698 317.037 292.495C316.917 292.125 316.688 291.769 316.335 291.582L315.97 291.428C315.7 291.355 315.429 291.355 315.159 291.428C315.095 291.439 315.031 291.449 314.967 291.458L315.373 291.403C314.949 291.458 314.522 291.458 314.098 291.404L314.504 291.459C314.299 291.431 314.097 291.391 313.897 291.339C313.51 291.238 313.067 291.29 312.72 291.493C312.542 291.589 312.399 291.72 312.292 291.886C312.157 292.034 312.066 292.207 312.018 292.405C311.929 292.796 311.949 293.235 312.172 293.582C312.386 293.914 312.694 294.182 313.085 294.284Z" fill="#FF008C"/>
<path d="M311.024 299.187C310.978 301.424 313.18 302.847 315.236 302.78C316.3 302.746 317.302 302.381 318.097 301.667C318.844 300.998 319.254 300.025 319.297 299.035C319.332 298.236 318.57 297.472 317.77 297.508C316.913 297.546 316.281 298.179 316.243 299.035C316.24 299.113 316.234 299.188 316.224 299.265L316.278 298.859C316.26 298.973 316.235 299.085 316.199 299.194C316.181 299.249 316.107 299.43 316.207 299.191C316.305 298.953 316.229 299.13 316.201 299.182C316.17 299.239 316.133 299.292 316.102 299.348C315.996 299.542 316.179 299.214 316.204 299.227C316.204 299.226 315.978 299.471 315.966 299.481C315.924 299.52 315.772 299.64 315.973 299.487C316.174 299.333 316.018 299.451 315.971 299.482C315.905 299.525 315.717 299.681 315.636 299.668C315.661 299.672 315.975 299.545 315.762 299.611C315.707 299.628 315.653 299.648 315.598 299.664C315.459 299.703 315.318 299.731 315.175 299.752L315.581 299.698C315.262 299.737 314.948 299.734 314.63 299.692L315.036 299.746C314.811 299.711 314.599 299.652 314.383 299.583C314.234 299.525 314.278 299.544 314.516 299.639C314.466 299.616 314.416 299.59 314.367 299.563C314.318 299.536 314.271 299.507 314.224 299.477C314.094 299.386 314.13 299.417 314.331 299.567C314.274 299.489 314.167 299.413 314.097 299.343C313.997 299.223 314.027 299.263 314.188 299.463C314.158 299.419 314.129 299.374 314.103 299.327C314.076 299.281 314.052 299.234 314.029 299.186C314.127 299.43 314.149 299.478 314.096 299.328C314.073 299.224 314.046 299.125 314.031 299.019L314.086 299.425C314.079 299.344 314.076 299.267 314.078 299.187C314.094 298.388 313.364 297.623 312.551 297.66C311.71 297.698 311.042 298.331 311.024 299.187Z" fill="#FF008C"/>
<path d="M310.065 272.732C310.342 262.079 308.615 251.526 306.765 241.072C305.901 236.193 305.086 231.289 303.772 226.506C303.104 224.078 302.298 221.695 301.313 219.377C300.555 217.593 299.224 215.674 296.992 216.359C294.755 217.046 295.016 219.667 296.406 221.019C297.911 222.483 300.424 222.951 302.425 223.202C307.213 223.802 311.909 222.503 316.605 221.786C317.848 221.596 319.101 221.461 320.359 221.426C321.16 221.404 322.641 221.23 323.288 221.841C323.521 222.061 323.402 222.101 323.513 222.28C323.548 222.337 323.442 222.391 323.445 222.437C323.423 222.123 323.949 222.434 323.399 222.223C322.379 221.831 321.234 222.494 320.774 223.381C320.253 224.384 320.242 225.749 320.069 226.85C319.854 228.219 319.65 229.589 319.456 230.961C319.094 233.517 318.765 236.078 318.472 238.643C317.123 250.469 316.556 262.377 316.747 274.277C316.779 276.24 319.833 276.246 319.801 274.277C319.642 264.333 320.008 254.384 320.923 244.481C321.376 239.585 321.958 234.701 322.681 229.837C322.861 228.628 323.049 227.42 323.245 226.213C323.278 226.009 323.573 224.71 323.514 224.678C323.69 224.775 322.415 224.98 323.229 225.306C323.413 225.38 323.692 225.368 323.891 225.358C325.62 225.266 326.641 223.547 326.558 221.949C326.326 217.459 319.816 218.29 316.918 218.68C312.39 219.289 307.888 220.64 303.279 220.239C302.278 220.153 301.289 219.959 300.33 219.659C299.827 219.502 299.25 219.331 298.806 219.038C298.741 218.994 298.38 218.657 298.37 218.657C298.174 218.653 297.9 219.276 297.905 219.352C297.926 219.656 298.503 220.508 298.623 220.795C298.83 221.29 299.024 221.79 299.212 222.291C299.615 223.366 299.981 224.455 300.316 225.552C301.684 230.037 302.533 234.656 303.355 239.265C305.327 250.325 307.304 261.452 307.011 272.732C306.96 274.697 310.014 274.696 310.065 272.732Z" fill="#FF008C"/>
<path d="M308.574 151.689C308.453 154.252 308.333 156.814 308.212 159.376C308.175 160.175 308.941 160.939 309.739 160.903C310.599 160.864 311.226 160.232 311.266 159.376C311.387 156.814 311.507 154.252 311.628 151.689C311.665 150.89 310.899 150.127 310.101 150.162C309.241 150.201 308.614 150.833 308.574 151.689Z" fill="#FF008C"/>
<path d="M267.78 165.698C269.206 167.142 270.632 168.587 272.058 170.031C272.62 170.6 273.662 170.636 274.217 170.031C274.78 169.418 274.817 168.479 274.217 167.871C272.791 166.427 271.365 164.983 269.939 163.538C269.377 162.969 268.335 162.933 267.78 163.538C267.217 164.151 267.18 165.09 267.78 165.698Z" fill="#FF008C"/>
<path d="M249.1 206.631L253.712 207.262C254.138 207.32 254.501 207.335 254.888 207.108C255.205 206.922 255.507 206.559 255.59 206.195C255.679 205.804 255.66 205.365 255.436 205.019C255.237 204.71 254.905 204.369 254.524 204.317L249.912 203.686C249.486 203.628 249.123 203.613 248.736 203.84C248.419 204.025 248.117 204.389 248.034 204.753C247.945 205.144 247.964 205.582 248.188 205.929C248.387 206.238 248.719 206.579 249.1 206.631Z" fill="#FF008C"/>
<path d="M260.714 246.87C263.082 244.934 265.45 242.998 267.819 241.063C268.44 240.555 268.385 239.423 267.819 238.903C267.159 238.298 266.322 238.362 265.659 238.903C263.291 240.839 260.923 242.775 258.555 244.71C257.934 245.218 257.989 246.35 258.555 246.87C259.215 247.475 260.052 247.411 260.714 246.87Z" fill="#FF008C"/>
<path d="M352.317 169.684C352.563 169.282 352.83 168.894 353.117 168.52L352.878 168.829C353.558 167.953 354.343 167.167 355.219 166.486L354.909 166.725C355.283 166.437 355.671 166.17 356.072 165.923C356.753 165.505 357.074 164.538 356.62 163.834C356.18 163.151 355.259 162.838 354.531 163.286C352.558 164.499 350.89 166.168 349.68 168.143C349.262 168.825 349.509 169.852 350.228 170.232C350.972 170.625 351.871 170.412 352.317 169.684Z" fill="#FF008C"/>
<path d="M357.355 205.444C360.332 205.971 363.35 206.214 366.372 206.12C367.17 206.095 367.937 205.435 367.899 204.593C367.863 203.787 367.228 203.039 366.372 203.066C364.959 203.11 363.544 203.086 362.133 202.987C361.442 202.939 360.752 202.873 360.064 202.79C360.072 202.791 359.578 202.728 359.81 202.759C359.645 202.737 359.48 202.713 359.316 202.688C358.932 202.631 358.549 202.567 358.167 202.499C357.383 202.361 356.483 202.71 356.289 203.566C356.119 204.31 356.514 205.295 357.355 205.444Z" fill="#FF008C"/>
<path d="M348.683 244.116C350.499 246.186 352.577 248.008 354.835 249.583C355.492 250.042 356.56 249.725 356.925 249.036C357.337 248.255 357.078 247.436 356.377 246.946C356.119 246.766 355.863 246.584 355.61 246.396C355.472 246.294 355.337 246.173 355.192 246.081C355.268 246.129 355.404 246.248 355.252 246.128C355.183 246.074 355.115 246.02 355.046 245.965C354.54 245.563 354.046 245.146 353.565 244.714C352.603 243.851 351.695 242.928 350.842 241.956C350.313 241.354 349.216 241.376 348.683 241.956C348.093 242.599 348.119 243.473 348.683 244.116Z" fill="#FF008C"/>
<path d="M322.577 187.038C325.154 184.308 334 190.007 333.809 193.247C333.741 194.403 332.678 195.57 331.555 195.287C330.982 195.142 330.555 194.678 330.147 194.25C328.868 192.913 327.402 191.715 325.695 191.002C324.769 190.615 323.756 190.358 323.003 189.697C322.249 189.035 321.889 187.768 322.577 187.038Z" fill="white"/>
<path d="M323.653 188.118C323.664 188.107 323.818 187.948 323.826 187.955C323.918 188.039 323.501 188.15 323.706 188.053C323.769 188.023 323.852 187.975 323.91 187.934C324.122 187.783 323.765 188.029 323.764 187.99C323.762 187.956 324.11 187.886 324.157 187.872C324.444 187.789 324.181 187.789 324.091 187.87C324.118 187.846 324.322 187.852 324.358 187.85C324.514 187.843 324.67 187.846 324.825 187.856C324.922 187.862 325.02 187.88 325.117 187.882C324.748 187.875 324.905 187.845 325.01 187.869C325.397 187.957 325.78 188.031 326.159 188.152C326.341 188.21 326.521 188.274 326.699 188.341C326.809 188.383 326.918 188.427 327.026 188.471C326.978 188.452 326.734 188.338 326.989 188.459C327.395 188.652 327.797 188.846 328.188 189.067C328.548 189.271 328.9 189.49 329.243 189.721C329.413 189.837 329.582 189.955 329.747 190.077C329.793 190.111 330.118 190.365 329.828 190.134C329.922 190.209 330.016 190.284 330.109 190.361C330.409 190.61 330.699 190.87 330.975 191.145C331.106 191.275 331.235 191.409 331.359 191.546C331.432 191.627 331.857 192.164 331.59 191.802C331.779 192.058 331.959 192.319 332.108 192.601C332.138 192.657 332.164 192.75 332.206 192.797C332.326 192.929 332.092 192.434 332.167 192.703C332.208 192.851 332.25 193.007 332.296 193.154C332.37 193.394 332.244 192.958 332.272 192.966C332.284 192.968 332.283 193.162 332.28 193.178C332.251 193.338 332.285 193.185 332.29 193.155C332.288 193.165 332.12 193.612 332.227 193.395C332.088 193.677 332.123 193.66 331.877 193.831C332.067 193.699 331.805 193.831 331.803 193.845C331.862 193.798 331.929 193.782 332.004 193.798C331.821 193.796 331.805 193.801 331.957 193.814C332.006 193.826 332.129 194.063 331.842 193.761C331.514 193.417 331.951 193.894 331.598 193.556C331.376 193.343 331.171 193.114 330.954 192.896C330.458 192.397 329.936 191.925 329.384 191.488C328.112 190.48 326.78 189.783 325.266 189.208C324.763 189.018 324.186 188.804 323.864 188.402C323.998 188.568 323.851 188.363 323.835 188.334C323.753 188.17 323.74 188.152 323.797 188.279C323.764 188.184 323.737 188.086 323.717 187.987C323.749 188.179 323.677 188.027 323.734 187.953C323.704 188.12 323.71 188.115 323.753 187.937C323.741 188.01 323.708 188.07 323.653 188.118C324.184 187.488 324.271 186.577 323.653 185.958C323.108 185.413 322.027 185.325 321.493 185.958C320.292 187.385 320.52 189.45 321.863 190.725C323.096 191.895 324.819 192.149 326.196 192.965C326.843 193.349 327.403 193.767 327.96 194.263C328.565 194.801 329.085 195.436 329.705 195.954C330.467 196.591 331.352 196.956 332.354 196.806C333.324 196.66 334.094 196.059 334.651 195.277C336.144 193.184 334.894 190.839 333.369 189.225C331.839 187.606 329.889 186.37 327.838 185.526C325.852 184.709 323.165 184.254 321.493 185.958C320.116 187.363 322.274 189.524 323.653 188.118Z" fill="white"/>
<path d="M338.414 203.056C339.725 204.902 342.095 203.023 341.07 201.279C339.929 199.336 336.966 201.019 338.414 203.056Z" fill="white"/>
<path d="M337.093 203.827C337.234 204.023 337.379 204.222 337.547 204.397C337.706 204.562 337.902 204.705 338.085 204.838C338.336 205.02 338.637 205.15 338.933 205.235C339.225 205.319 339.552 205.367 339.857 205.337C340.062 205.317 340.274 205.296 340.475 205.245C340.678 205.194 340.885 205.096 341.069 205.013C341.61 204.771 342.059 204.31 342.374 203.816C342.694 203.315 342.885 202.635 342.84 202.041C342.816 201.716 342.773 201.39 342.649 201.088C342.56 200.871 342.477 200.651 342.352 200.452C342.233 200.263 342.092 200.087 341.948 199.916C341.575 199.476 341.004 199.136 340.446 198.995C339.9 198.857 339.288 198.856 338.749 199.026C338.222 199.193 337.701 199.482 337.327 199.895C337.131 200.111 336.942 200.35 336.82 200.618C336.622 201.053 336.525 201.387 336.496 201.871C336.456 202.545 336.71 203.28 337.093 203.827C337.325 204.158 337.603 204.418 338.005 204.528C338.371 204.629 338.857 204.584 339.182 204.374C339.508 204.164 339.795 203.851 339.883 203.462C339.97 203.08 339.963 202.618 339.729 202.285C339.632 202.146 339.547 201.999 339.479 201.843L339.633 202.208C339.573 202.063 339.53 201.913 339.507 201.757L339.562 202.163C339.545 202.032 339.544 201.901 339.56 201.77L339.505 202.175C339.523 202.052 339.554 201.933 339.601 201.817L339.447 202.182C339.498 202.062 339.562 201.951 339.64 201.847L339.401 202.156C339.491 202.041 339.593 201.94 339.708 201.851L339.399 202.09C339.516 202.002 339.642 201.929 339.777 201.872L339.412 202.026C339.548 201.97 339.688 201.931 339.834 201.909L339.428 201.963C339.575 201.944 339.722 201.943 339.869 201.961L339.463 201.907C339.597 201.926 339.726 201.961 339.851 202.012L339.486 201.858C339.608 201.911 339.722 201.977 339.828 202.057L339.519 201.819C339.642 201.914 339.75 202.024 339.845 202.147L339.606 201.838C339.706 201.971 339.791 202.113 339.858 202.265L339.704 201.9C339.766 202.047 339.809 202.198 339.831 202.357L339.777 201.951C339.793 202.088 339.794 202.225 339.778 202.363L339.832 201.957C339.812 202.108 339.772 202.253 339.713 202.393L339.867 202.028C339.807 202.165 339.732 202.292 339.641 202.41L339.88 202.101C339.788 202.217 339.684 202.319 339.568 202.41L339.877 202.171C339.768 202.253 339.652 202.322 339.527 202.376L339.892 202.222C339.767 202.275 339.638 202.311 339.504 202.331L339.91 202.276C339.783 202.293 339.657 202.293 339.53 202.276L339.936 202.331C339.813 202.313 339.695 202.28 339.581 202.232L339.945 202.386C339.822 202.332 339.707 202.263 339.6 202.181L339.909 202.42C339.778 202.317 339.664 202.2 339.56 202.07L339.799 202.379C339.775 202.348 339.752 202.317 339.729 202.285C339.633 202.107 339.502 201.964 339.336 201.857C339.188 201.722 339.015 201.631 338.817 201.584C338.451 201.483 337.964 201.528 337.64 201.737C337.314 201.948 337.027 202.261 336.938 202.65C336.852 203.028 336.856 203.499 337.093 203.827Z" fill="white"/>
<path d="M673.082 798.809C672.947 793.539 676.402 788.457 681.319 786.545C682.478 786.095 683.868 785.681 685.125 785.793C686.697 785.932 686.786 788.27 686.88 789.509C687.121 792.709 686.297 795.825 684.579 798.525L687.37 799.701C687.867 797.245 689.634 795.165 692.095 794.506C694.57 793.844 697.38 794.936 698.873 796.995C700.653 799.451 700.299 802.878 699.153 805.52C697.898 808.412 695.712 810.788 693.626 813.098L696.179 814.584C696.417 812.996 697.924 812.477 699.384 812.429C701.34 812.364 703.245 813.248 704.706 814.515C706.237 815.842 707.364 817.679 707.321 819.756C707.281 821.739 706.275 823.544 704.489 824.437L706.03 827.074C709.844 824.929 714.734 825.072 718.346 827.592C721.768 829.98 723.491 834.22 723.114 838.31C722.934 840.267 725.989 840.254 726.168 838.31C726.646 833.119 724.159 827.919 719.887 824.955C715.388 821.834 709.2 821.788 704.489 824.437C702.763 825.407 704.284 827.946 706.03 827.074C708.67 825.754 710.176 822.981 710.361 820.095C710.56 817.01 708.93 814.04 706.587 812.121C704.403 810.332 701.647 809.129 698.781 809.417C696.265 809.67 693.643 811.044 693.234 813.772C693.03 815.131 694.653 816.514 695.786 815.258C698.5 812.252 701.298 809.102 702.529 805.159C703.677 801.482 703.303 797.222 700.598 794.31C698.222 791.754 694.306 790.584 690.953 791.659C687.679 792.708 685.109 795.512 684.425 798.889C684.086 800.567 686.26 801.568 687.216 800.066C689.437 796.576 690.367 792.384 689.798 788.285C689.534 786.387 689.043 784.233 687.211 783.243C685.611 782.378 683.511 782.735 681.837 783.174C674.982 784.972 669.847 791.723 670.028 798.809C670.078 800.77 673.132 800.778 673.082 798.809Z" fill="#FF008C"/>
<path d="M678.731 831.336C679.025 831.309 679.317 831.316 679.609 831.355L679.204 831.3C679.554 831.352 679.892 831.447 680.218 831.583L679.854 831.429C680.197 831.577 680.518 831.766 680.815 831.994L680.506 831.756C680.783 831.976 681.031 832.225 681.248 832.505L681.009 832.196C681.197 832.447 681.355 832.716 681.48 833.004L681.326 832.639C681.349 832.694 681.371 832.748 681.391 832.804C681.535 833.185 681.731 833.504 682.093 833.716C682.42 833.908 682.903 833.989 683.27 833.87C683.639 833.751 683.996 833.522 684.182 833.168C684.364 832.824 684.479 832.371 684.336 831.992C684.084 831.322 683.77 830.783 683.316 830.23C682.956 829.792 682.496 829.423 682.019 829.12C681.07 828.515 679.857 828.179 678.731 828.282C678.318 828.32 677.954 828.427 677.651 828.729C677.387 828.994 677.187 829.429 677.204 829.809C677.222 830.204 677.352 830.613 677.651 830.889C677.934 831.148 678.333 831.372 678.731 831.336Z" fill="#FF008C"/>
<path d="M364.046 809.428C359.091 806.949 351.877 804.906 347.976 810.275C344.483 815.084 347.426 822.126 353.329 822.961C354.093 823.069 354.81 822.838 355.131 822.076C355.401 821.435 355.198 820.488 354.506 820.17C349.392 817.819 342.458 816.879 338.011 821.141C334.563 824.444 333.567 830.372 337.043 834.001L338.529 831.449C332.532 829.424 324.686 827.666 319.813 833.061C317.963 835.109 317.202 837.773 317.838 840.474C318.429 842.987 320.258 845.148 322.808 845.774C324.716 846.243 325.53 843.299 323.62 842.829C321.931 842.415 320.915 840.89 320.691 839.213C320.427 837.238 321.431 835.452 322.984 834.283C327.325 831.013 333.095 832.833 337.717 834.394C339.218 834.901 340.207 832.89 339.203 831.842C336.808 829.341 338.01 825.15 340.402 823.087C343.828 820.132 349.217 821.084 352.965 822.807L354.141 820.016C350.124 819.447 347.897 814.767 350.825 811.586C353.851 808.297 359.206 810.414 362.505 812.065C364.258 812.942 365.806 810.309 364.046 809.428Z" fill="#FF008C"/>
<path d="M440.112 401.759C440.154 401.805 440.194 401.852 440.234 401.899C440.1 401.722 440.068 401.679 440.136 401.771C440.189 401.862 440.258 401.945 440.313 402.035C440.4 402.176 440.461 402.39 440.566 402.513C440.392 402.309 440.475 402.284 440.544 402.481C440.574 402.566 440.601 402.651 440.625 402.738C440.654 402.839 440.679 402.94 440.7 403.043C440.713 403.104 440.749 403.428 440.727 403.151C440.703 402.857 440.734 403.255 440.738 403.307C440.744 403.398 440.748 403.488 440.749 403.579C440.752 403.762 440.745 403.944 440.729 404.126C440.724 404.187 440.717 404.247 440.71 404.308C440.744 404.069 440.751 404.009 440.732 404.129C440.709 404.217 440.7 404.311 440.681 404.4C440.639 404.595 440.588 404.788 440.526 404.978C440.498 405.065 440.464 405.151 440.435 405.238C440.334 405.535 440.574 404.952 440.447 405.213C440.36 405.393 440.274 405.57 440.173 405.742C440.082 405.897 439.908 406.071 439.844 406.236C439.943 405.98 439.985 406.06 439.856 406.21C439.796 406.278 439.735 406.345 439.673 406.41C439.61 406.474 439.546 406.537 439.479 406.598C439.435 406.64 439.136 406.85 439.36 406.712C439.592 406.568 439.266 406.776 439.225 406.803C439.15 406.853 439.074 406.9 438.996 406.945C438.918 406.989 438.839 407.032 438.758 407.071C438.718 407.091 438.677 407.111 438.636 407.129C438.529 407.177 438.581 407.154 438.792 407.062C438.631 407.052 438.338 407.208 438.176 407.244L440.109 408.716C440.108 408.637 440.106 408.558 440.109 408.478C440.109 408.468 440.127 408.086 440.111 408.326C440.097 408.535 440.121 408.281 440.131 408.236C440.146 408.159 440.164 408.082 440.185 408.005C440.21 407.909 440.243 407.816 440.271 407.721C440.321 407.554 440.301 407.644 440.249 407.754C440.326 407.593 440.404 407.434 440.498 407.281C440.539 407.213 440.589 407.15 440.627 407.081C440.728 406.899 440.465 407.26 440.603 407.105C440.722 406.972 440.838 406.837 440.969 406.715C441.026 406.661 441.089 406.612 441.147 406.558C441.06 406.64 440.977 406.676 441.122 406.582C441.289 406.473 441.457 406.374 441.636 406.285C442.354 405.931 442.609 404.856 442.184 404.196C441.71 403.461 440.862 403.269 440.095 403.648C438.222 404.573 437.018 406.641 437.056 408.716C437.074 409.746 438.013 410.404 438.988 410.189C441.185 409.703 442.796 407.869 443.471 405.789C444.163 403.659 443.766 401.285 442.272 399.6C441.741 399 440.648 399.017 440.113 399.6C439.525 400.239 439.546 401.12 440.112 401.759Z" fill="#FF008C"/>
<path d="M435.579 387.586C439.584 385.885 444.117 386.149 448.17 387.532C451.663 388.724 455.136 391.042 456.436 394.648C457.098 396.483 460.05 395.691 459.381 393.836C455.905 384.198 442.679 381.28 434.037 384.949C433.272 385.274 433.119 386.387 433.49 387.038C433.94 387.829 434.824 387.906 435.579 387.586Z" fill="#FF008C"/>
<path d="M499.862 419.524C499.904 419.57 499.944 419.616 499.984 419.664C499.85 419.486 499.818 419.444 499.886 419.536C499.939 419.627 500.008 419.71 500.063 419.8C500.15 419.94 500.211 420.154 500.316 420.277C500.142 420.074 500.225 420.049 500.294 420.246C500.324 420.331 500.351 420.416 500.375 420.502C500.404 420.603 500.429 420.705 500.45 420.808C500.463 420.869 500.499 421.193 500.477 420.915C500.453 420.622 500.484 421.019 500.488 421.072C500.494 421.162 500.498 421.253 500.499 421.344C500.502 421.526 500.495 421.709 500.479 421.89C500.474 421.951 500.467 422.012 500.46 422.073C500.494 421.833 500.501 421.774 500.482 421.894C500.459 421.982 500.45 422.075 500.431 422.165C500.389 422.36 500.338 422.553 500.276 422.742C500.248 422.83 500.214 422.916 500.185 423.003C500.084 423.299 500.324 422.717 500.197 422.978C500.11 423.158 500.024 423.335 499.923 423.507C499.832 423.661 499.658 423.836 499.594 424.001C499.693 423.744 499.735 423.825 499.606 423.974C499.546 424.043 499.485 424.109 499.423 424.174C499.36 424.239 499.296 424.302 499.229 424.363C499.185 424.404 498.886 424.615 499.11 424.476C499.342 424.332 499.016 424.54 498.975 424.568C498.9 424.617 498.824 424.665 498.746 424.709C498.668 424.754 498.589 424.796 498.508 424.836C498.468 424.856 498.427 424.875 498.386 424.893C498.279 424.941 498.331 424.919 498.542 424.827C498.381 424.816 498.088 424.973 497.926 425.009L499.859 426.481C499.858 426.401 499.856 426.322 499.859 426.243C499.859 426.233 499.877 425.85 499.861 426.091C499.847 426.3 499.871 426.046 499.881 426.001C499.896 425.924 499.914 425.847 499.935 425.77C499.96 425.674 499.993 425.581 500.021 425.486C500.071 425.319 500.051 425.409 499.999 425.519C500.076 425.357 500.154 425.199 500.248 425.045C500.289 424.978 500.339 424.914 500.377 424.846C500.478 424.664 500.215 425.024 500.353 424.87C500.472 424.736 500.588 424.602 500.719 424.479C500.776 424.425 500.839 424.377 500.897 424.322C500.81 424.405 500.727 424.44 500.872 424.346C501.039 424.238 501.207 424.138 501.386 424.05C502.104 423.695 502.359 422.62 501.934 421.961C501.46 421.226 500.612 421.034 499.845 421.413C497.972 422.338 496.768 424.406 496.806 426.481C496.824 427.51 497.763 428.169 498.738 427.953C500.935 427.468 502.546 425.634 503.221 423.554C503.913 421.424 503.516 419.05 502.022 417.364C501.491 416.765 500.398 416.782 499.863 417.364C499.275 418.004 499.296 418.884 499.862 419.524Z" fill="#FF008C"/>
<path d="M495.321 405.351C499.326 403.65 503.859 403.913 507.912 405.297C511.405 406.489 514.878 408.807 516.178 412.413C516.84 414.248 519.792 413.456 519.123 411.601C515.648 401.963 502.421 399.044 493.78 402.714C493.015 403.038 492.861 404.152 493.232 404.803C493.682 405.593 494.566 405.671 495.321 405.351Z" fill="#FF008C"/>
<path d="M465.716 420.495C462.211 418.39 458.179 417.256 454.151 416.697C450.38 416.174 446.281 416.281 442.905 418.252C440.03 419.932 437.848 422.931 437.527 426.284C437.195 429.758 439.286 432.708 442.026 434.608C445.631 437.108 450.362 438.207 454.675 437.471C456.608 437.141 455.789 434.198 453.863 434.526C447.829 435.556 436.259 430.148 442.128 422.878C444.557 419.869 448.534 419.265 452.182 419.532C456.306 419.833 460.621 420.998 464.174 423.132C465.863 424.146 467.401 421.507 465.716 420.495Z" fill="#FF008C"/>
<path d="M452.147 450.118C461.291 453.341 469.543 446.564 478.348 445.424C482.294 444.913 486.207 445.827 488.821 448.981C491.083 451.709 492.04 455.46 492.364 458.92C493.172 467.535 491.144 476.575 487.247 484.254C484.053 490.546 477.918 499.587 469.62 498.011C465.522 497.233 462.293 494.043 460.406 490.458C457.968 485.829 457.509 480.418 457.04 475.298C456.862 473.357 453.806 473.338 453.986 475.298C454.805 484.236 456.251 494.907 465.081 499.594C468.914 501.628 473.257 501.654 477.183 499.859C481.158 498.042 484.307 494.673 486.745 491.122C492.259 483.089 495.29 473.273 495.544 463.554C495.75 455.698 493.766 445.967 485.414 442.997C480.297 441.177 474.604 442.821 469.734 444.635C464.44 446.607 458.623 449.169 452.959 447.173C451.102 446.518 450.303 449.468 452.147 450.118Z" fill="#FF008C"/>
<path d="M455.062 475.491C468.156 475.756 481.304 472.746 492.979 466.81C490.73 475.589 488.398 484.559 483.347 492.084C481.867 494.289 480.088 496.409 477.703 497.578C472.574 500.091 466.116 497.318 462.62 492.802C459.124 488.286 457.877 482.476 456.727 476.882" fill="#FF008C"/>
<path d="M455.061 477.018C468.467 477.251 481.782 474.169 493.747 468.128L491.504 466.404C489.24 475.241 486.929 484.418 481.573 491.971C479.299 495.179 476.112 497.561 472.002 496.889C468.171 496.264 464.908 493.724 462.865 490.499C460.196 486.286 459.189 481.292 458.197 476.476C457.801 474.552 454.856 475.366 455.252 477.288C457.079 486.154 459.909 496.482 469.648 499.464C473.988 500.792 478.403 499.736 481.66 496.581C485.158 493.194 487.452 488.447 489.285 484.007C491.525 478.583 492.996 472.888 494.449 467.215C494.793 465.874 493.381 464.898 492.206 465.491C480.719 471.29 467.922 474.187 455.061 473.964C453.095 473.929 453.094 476.983 455.061 477.018Z" fill="#FF008C"/>
<path d="M453.611 363.416C459.834 358.903 468.434 358.486 475.014 362.499C476.697 363.525 478.233 360.885 476.556 359.862C469.125 355.331 459.132 355.657 452.07 360.779C450.494 361.922 452.016 364.573 453.611 363.416Z" fill="#FF008C"/>
<path d="M533.45 384.444C529.782 376.043 521.155 370.311 512.035 369.938C510.07 369.858 510.073 372.912 512.035 372.992C520.162 373.325 527.574 378.568 530.813 385.986C531.145 386.748 532.246 386.907 532.902 386.534C533.687 386.087 533.778 385.196 533.45 384.444Z" fill="#FF008C"/>
<path d="M591.471 422.698C591.077 423.731 590.775 424.806 590.633 425.942C591.081 424.886 591.345 423.798 591.471 422.698Z" fill="#FF008C"/>
<path d="M589.999 422.292C589.549 423.478 589.267 424.684 589.107 425.942C589.063 426.287 589.306 426.794 589.554 427.022C589.806 427.253 590.09 427.396 590.431 427.442C590.756 427.485 591.12 427.444 591.404 427.26L591.713 427.022C591.903 426.831 592.034 426.606 592.106 426.348C592.599 425.177 592.852 423.955 592.999 422.698C593.041 422.336 592.798 421.864 592.552 421.618C592.287 421.353 591.852 421.154 591.472 421.171C591.077 421.189 590.667 421.318 590.392 421.618L590.153 421.927C590.015 422.165 589.946 422.422 589.945 422.698C589.936 422.778 589.926 422.858 589.915 422.938L589.97 422.532C589.83 423.565 589.566 424.575 589.161 425.536L592.161 425.942C592.166 425.901 592.171 425.861 592.176 425.82L592.122 426.226C592.27 425.155 592.561 424.113 592.944 423.104C593.077 422.754 592.973 422.238 592.79 421.927C592.605 421.61 592.242 421.308 591.878 421.225C591.487 421.136 591.048 421.156 590.701 421.379L590.392 421.618C590.203 421.809 590.072 422.033 589.999 422.292Z" fill="#FF008C"/>
<path d="M654.994 385.54C654.857 384.862 655.209 384.193 655.539 383.585C661.21 373.157 664.156 361.138 663.234 349.263C662.308 337.332 657.487 325.941 650.861 315.976C636.598 294.526 613.967 279.311 589.349 271.73C564.73 264.15 538.234 263.867 512.868 268.351C495.102 271.492 477.042 277.339 464.133 289.943C451.223 302.546 444.948 323.28 453.321 339.261C449.87 341.11 446.493 343.112 443.18 345.227C477.871 350.913 513.459 351.104 548.203 345.749C551.226 363.812 555.068 383.393 568.904 395.391C574.022 399.829 580.232 402.926 585.078 407.659C589.104 411.59 592.092 417.303 591.474 422.698C594.777 414.04 606.277 409.249 615.287 412.556C625.371 416.258 631.338 427.511 631.186 438.253C631.071 446.409 626.41 455.675 618.293 456.488C630.511 461.91 642.73 467.331 654.949 472.753C661.638 475.721 668.425 478.694 675.434 480.716C675.884 477.384 676.249 474.048 676.516 470.715C679.263 441.41 672.665 410.687 655.551 386.615C655.316 386.284 655.074 385.939 654.994 385.54Z" fill="#FF008C"/>
<path d="M656.515 385.541C656.466 384.814 656.943 384.195 657.272 383.571C657.618 382.914 657.953 382.252 658.277 381.583C658.918 380.261 659.512 378.916 660.072 377.558C661.233 374.739 662.202 371.842 662.957 368.889C664.424 363.155 665.118 357.186 664.874 351.268C664.388 339.491 660.167 328.152 654.06 318.162C642.977 300.034 625.963 285.949 606.857 276.908C585.274 266.695 561.147 262.984 537.406 264.07C525.529 264.613 513.593 266.216 502.044 269.061C491.418 271.679 480.909 275.575 471.809 281.75C463.302 287.524 456.262 295.22 452.102 304.688C448.187 313.6 446.676 323.766 449.313 333.26C449.964 335.604 450.881 337.871 451.997 340.032L452.545 337.943C449.089 339.802 445.714 341.802 442.403 343.908C441.401 344.546 441.389 346.474 442.768 346.699C470.092 351.158 497.929 352.306 525.52 349.976C533.244 349.324 540.942 348.397 548.603 347.222L546.725 346.155C548.651 357.65 550.794 369.306 555.747 379.945C558.113 385.028 561.185 389.812 565.078 393.865C569.478 398.446 574.98 401.578 580.019 405.363C585.466 409.454 590.659 415.41 589.941 422.698C589.758 424.548 592.361 424.572 592.94 423.104C594.745 418.528 599.058 415.288 603.662 413.878C608.651 412.35 613.839 412.964 618.28 415.715C627.171 421.222 631.543 433.534 628.922 443.528C627.57 448.682 624.059 454.298 618.287 454.961C616.983 455.11 615.961 457.116 617.516 457.806C627.17 462.09 636.825 466.374 646.479 470.658C655.842 474.812 665.163 479.313 675.022 482.188C676.079 482.497 676.828 481.664 676.955 480.716C678.737 467.422 679.256 454.014 677.557 440.683C675.937 427.976 672.559 415.543 667.234 403.881C665.735 400.598 664.082 397.386 662.274 394.264C661.369 392.701 660.425 391.16 659.443 389.644C658.989 388.943 658.528 388.248 658.057 387.558C657.548 386.811 656.75 385.998 656.461 385.135C655.84 383.28 652.889 384.076 653.516 385.947C653.992 387.368 655.06 388.556 655.888 389.792C656.817 391.177 657.713 392.585 658.576 394.012C660.228 396.744 661.759 399.549 663.17 402.413C665.995 408.153 668.312 414.132 670.154 420.258C673.811 432.419 675.579 445.101 675.585 457.794C675.589 465.457 674.918 473.125 673.901 480.716L675.834 479.243C666.068 476.395 656.843 471.935 647.568 467.82C638.064 463.603 628.561 459.386 619.058 455.169L618.287 458.015C624.35 457.319 628.582 452.847 630.83 447.409C633.187 441.706 633.189 435.282 631.533 429.389C629.85 423.402 626.405 417.899 621.398 414.155C616.507 410.496 610.413 409.194 604.454 410.511C598.095 411.917 592.413 416.164 589.995 422.293L592.995 422.699C593.607 416.488 590.216 410.448 585.841 406.28C581.073 401.736 575.123 398.726 570.142 394.453C561.294 386.862 556.583 375.93 553.647 364.89C551.937 358.459 550.769 351.902 549.67 345.344C549.523 344.466 548.535 344.163 547.791 344.277C520.865 348.407 493.43 349.187 466.308 346.666C458.7 345.959 451.12 344.985 443.58 343.755L443.945 346.545C447.255 344.439 450.63 342.439 454.086 340.58C454.839 340.175 455.002 339.203 454.634 338.49C450.25 330.005 450.169 320.078 452.948 311.076C455.851 301.674 461.682 293.562 469.291 287.39C477.455 280.768 487.285 276.452 497.307 273.502C508.137 270.315 519.418 268.493 530.656 267.559C554.002 265.621 577.933 268.122 599.713 277.065C618.473 284.767 635.623 297.295 647.52 313.832C654.003 322.843 659.057 333.051 661.03 344.039C663.082 355.466 661.279 367.449 656.579 378.021C656.036 379.242 655.456 380.448 654.841 381.635C654.196 382.88 653.362 384.081 653.461 385.541C653.593 387.491 656.648 387.506 656.515 385.541Z" fill="#FF008C"/>
</svg>
