<svg width="1000" height="1000" viewBox="0 0 1000 1000" fill="none" xmlns="http://www.w3.org/2000/svg">
<path d="M630.28 788.334C632.905 782.638 630.493 774.573 628.644 768.84C627.227 764.444 624.847 760.183 621.062 756.964C619.428 755.574 617.499 754.373 615.278 753.839C608.167 752.13 601.688 758.912 599.844 763.999C598.36 768.092 598.448 772.469 598.781 776.744C599.028 779.9 599.443 783.166 601.331 785.889C603.535 789.068 607.433 791.074 611.232 792.848C614.115 794.194 617.23 795.521 620.509 795.321C624.982 795.048 628.64 791.893 630.28 788.334Z" fill="#FF008C"/>
<path d="M775.774 757.184C774.948 759.832 773.169 762.473 773.916 765.138C774.533 767.34 776.82 769.155 776.74 771.419C776.626 774.631 771.957 776.416 771.004 779.525C769.981 782.865 773.613 786.132 773.183 789.564C772.681 793.578 767.245 795.512 762.636 796.432C721.811 804.585 679.168 797.982 637.244 798.575C628.076 798.705 618.652 799.151 609.993 796.579C616.694 790.244 621.31 781.981 621.073 773.452C620.836 764.924 615.111 756.315 605.898 752.99C622.465 746.548 641.397 747.034 659.601 746.737C678.93 746.421 698.212 745.089 717.534 744.624C727.31 744.389 737.099 744.37 746.867 744.824C750.926 745.013 754.834 745.272 758.846 745.074C762.609 744.888 767.35 744.183 770.68 746.111C773.966 748.014 776.79 753.929 775.774 757.184Z" fill="white"/>
<path d="M774.121 756.727C773.139 759.711 771.274 762.684 772.367 765.922C772.8 767.204 773.61 768.279 774.298 769.427C774.797 770.259 775.269 771.135 774.842 772.09C774.433 773.003 773.573 773.726 772.864 774.4C771.95 775.269 771.032 776.125 770.3 777.16C768.735 779.377 768.956 781.895 769.934 784.302C770.753 786.318 772.384 788.809 770.849 790.872C769.443 792.761 766.756 793.611 764.589 794.208C761.501 795.057 758.286 795.533 755.128 796.037C751.509 796.613 747.873 797.078 744.227 797.451C715.558 800.386 686.726 797.855 658.018 797.049C650.003 796.824 641.993 796.772 633.977 796.909C626.094 797.043 618.097 797.141 610.456 794.919L611.215 797.794C616.876 792.392 621.469 785.411 622.551 777.533C623.523 770.458 621.273 763.428 616.517 758.115C613.752 755.026 610.235 752.765 606.361 751.331V754.648C616.918 750.585 628.213 749.313 639.441 748.847C651.274 748.356 663.126 748.469 674.963 748.026C699.825 747.097 724.648 745.47 749.532 746.673C752.821 746.832 756.115 746.956 759.405 746.763C762.098 746.605 764.93 746.209 767.597 746.789C769.962 747.303 771.522 748.738 772.722 750.791C773.706 752.475 774.67 754.75 774.121 756.727C773.527 758.863 776.845 759.774 777.438 757.641C778.555 753.624 776.184 748.704 773.304 745.967C769.452 742.306 763.882 743.088 759.035 743.344C752.757 743.675 746.441 743.024 740.165 742.863C733.619 742.695 727.069 742.712 720.523 742.839C707.638 743.087 694.768 743.762 681.894 744.308C669.425 744.837 656.961 744.938 644.488 745.244C631.313 745.568 617.856 746.554 605.447 751.331C603.838 751.95 603.802 754.039 605.447 754.648C611.22 756.785 616.014 761.448 618.13 767.257C620.391 773.464 619.279 780.131 616.194 785.856C614.27 789.427 611.711 792.567 608.783 795.362C607.83 796.271 608.326 797.883 609.542 798.236C616.403 800.231 623.595 800.466 630.694 800.396C638.032 800.324 645.359 800.214 652.697 800.361C667.546 800.657 682.375 801.513 697.218 801.968C711.936 802.419 726.698 802.484 741.376 801.165C748.656 800.511 755.935 799.55 763.099 798.09C767.669 797.159 774.385 795.121 774.909 789.564C775.058 787.987 774.572 786.486 773.971 785.052C773.422 783.74 772.576 782.316 772.548 780.857C772.502 778.45 775.593 776.784 776.941 775.102C779.045 772.479 778.608 769.789 776.886 767.083C776.008 765.702 775.228 764.514 775.575 762.804C775.938 761.014 776.87 759.368 777.438 757.641C778.132 755.533 774.811 754.63 774.121 756.727Z" fill="#FF008C"/>
<path d="M750.1 802.044C755.985 801.585 761.897 800.938 767.797 800.661C771.518 800.486 775.843 799.574 775.141 795.275C774.384 790.639 768.433 790.951 764.362 791.017C758.448 791.114 752.535 791.232 746.621 791.334C734.794 791.537 722.967 791.72 711.138 791.851C687.216 792.117 663.288 792.176 639.366 791.779C630.544 791.632 621.356 791.345 613.569 787.806C605.781 784.266 599.924 776.443 602.503 769.247C603.955 765.196 607.813 762.012 612.219 760.057C616.626 758.103 621.574 757.237 626.479 756.573C645.841 753.953 665.552 754.151 685.155 754.048C714.319 753.896 743.471 753.064 772.619 752.232C773.74 752.2 774.894 752.162 775.918 751.768C781.121 749.765 780.879 740.103 778.219 736.754C775.918 733.855 772.342 731.908 768.868 730.043C761.179 725.915 753.487 721.79 745.8 717.659C740.637 714.884 734.426 711.241 728.427 710.197C724.436 709.503 720.316 709.704 716.25 709.908C689.78 711.237 663.252 710.976 636.751 710.786C622.061 710.681 607.491 709.985 592.821 711.01C579.749 711.924 567.631 703.979 554.33 709.692C543.116 714.508 538.94 726.521 539.09 737.228C539.374 757.485 552.212 770.226 570.756 780.921C581.035 786.849 591.512 792.529 602.17 797.951C611.367 802.63 620.621 802.94 631.074 803.166C642.589 803.414 654.108 803.478 665.627 803.454C688.6 803.406 711.727 803.698 734.683 803.001C739.833 802.844 744.968 802.444 750.1 802.044Z" fill="#84FF20"/>
<path d="M774.657 791.199C772.526 789.562 769.709 789.739 767.174 789.512C764.237 789.249 761.304 789.169 758.355 789.224C752.276 789.338 746.202 789.623 740.121 789.723C727.719 789.927 715.315 790.103 702.911 790.214C690.534 790.326 678.156 790.374 665.778 790.324C659.548 790.3 653.318 790.25 647.088 790.171C641.262 790.098 635.41 790.127 629.598 789.687C620.373 788.99 608.603 786.456 604.504 776.957C602.741 772.872 603.806 768.704 606.914 765.607C610.655 761.88 615.92 760.218 620.973 759.2C626.775 758.032 632.725 757.472 638.618 756.994C644.799 756.492 650.995 756.21 657.193 756.045C669.326 755.722 681.467 755.821 693.602 755.705C718.372 755.47 743.135 754.791 767.895 754.086C770.631 754.008 773.746 754.313 776.372 753.426C778.458 752.721 777.563 749.398 775.458 750.109C774.134 750.556 772.756 750.508 771.373 750.547C769.8 750.592 768.226 750.637 766.653 750.682C763.424 750.773 760.194 750.865 756.964 750.954C750.588 751.132 744.211 751.303 737.834 751.461C725.246 751.774 712.656 752.037 700.064 752.194C675.097 752.506 649.893 751.537 625.099 755.042C619.514 755.831 613.778 756.959 608.853 759.849C604.821 762.215 601.127 765.952 600.346 770.734C598.707 780.777 608.437 788.235 616.906 790.912C622.282 792.612 627.987 793.128 633.595 793.352C639.665 793.594 645.749 793.603 651.822 793.666C664.532 793.797 677.242 793.811 689.952 793.746C702.678 793.681 715.403 793.537 728.127 793.35C734.448 793.258 740.77 793.178 747.09 793.045C753.154 792.917 759.226 792.382 765.29 792.792C766.645 792.884 767.996 793.005 769.35 793.095C770.656 793.182 771.86 793.354 772.92 794.169C773.662 794.74 774.839 794.278 775.274 793.552C775.801 792.671 775.389 791.762 774.657 791.199Z" fill="#FF008C"/>
<path d="M634.808 778.977C642.211 778.697 649.621 778.728 657.022 779.067C659.235 779.169 659.23 775.729 657.022 775.627C649.621 775.287 642.211 775.257 634.808 775.537C632.601 775.62 632.59 779.061 634.808 778.977Z" fill="#FF008C"/>
<path d="M636.202 768.508C650.252 769.8 664.362 769.154 678.435 768.694C692.739 768.228 707.051 767.998 721.362 768.009C729.518 768.015 737.674 768.1 745.829 768.26C748.043 768.303 748.043 764.863 745.829 764.82C731.517 764.54 717.2 764.493 702.887 764.688C688.666 764.882 674.459 765.554 660.241 765.788C652.221 765.92 644.193 765.803 636.202 765.068C633.999 764.865 634.012 768.306 636.202 768.508Z" fill="#FF008C"/>
<path d="M758.729 767.307C759.275 767.202 759.837 767.074 760.392 767.029C759.925 767.067 760.37 767.033 760.45 767.023C760.579 767.007 760.709 766.992 760.838 766.978C761.118 766.947 761.399 766.92 761.68 766.897C762.784 766.805 763.892 766.773 765 766.795C765.9 766.812 766.761 765.991 766.72 765.075C766.678 764.128 765.964 763.374 765 763.355C762.591 763.307 760.18 763.534 757.815 763.99C756.929 764.161 756.343 765.27 756.613 766.106C756.919 767.05 757.781 767.49 758.729 767.307Z" fill="#FF008C"/>
<path d="M676.187 779.179C699.954 780.533 723.776 780.853 747.57 780.12C754.284 779.913 760.995 779.62 767.702 779.248C769.903 779.126 769.917 775.685 767.702 775.808C743.933 777.126 720.11 777.41 696.317 776.641C689.604 776.423 682.893 776.121 676.187 775.739C673.976 775.613 673.983 779.053 676.187 779.179Z" fill="#FF008C"/>
<path d="M599.561 788.256C595.291 783.963 592.485 778.246 592.324 772.135C592.169 766.267 594.542 760.489 598.443 756.144C602.491 751.637 607.881 749.309 613.587 747.618C619.799 745.778 626.226 744.626 632.635 743.73C647.41 741.664 662.434 741.187 677.337 741.159C684.97 741.144 692.601 741.323 700.226 741.665C707.876 742.009 715.508 742.343 723.168 742.209C740.38 741.909 757.594 741.204 774.801 740.682C777.009 740.615 777.019 737.175 774.801 737.242C758.921 737.724 743.042 738.262 727.16 738.68C711.2 739.1 695.286 737.756 679.327 737.719C663.764 737.683 648.104 738.187 632.668 740.282C626.072 741.177 619.46 742.328 613.06 744.187C607.085 745.924 601.251 748.332 596.824 752.845C591.974 757.789 588.865 764.588 588.875 771.563C588.886 778.771 592.088 785.621 597.129 790.688C598.692 792.26 601.125 789.828 599.561 788.256Z" fill="#FF008C"/>
<path d="M489.007 441.775C471.129 464.301 449.388 483.754 425.021 499.028C426.389 466.865 429.394 434.548 433.882 402.647C434.067 401.33 434.25 399.952 433.802 398.701C432.904 396.192 429.828 395.167 427.168 395.321C424.509 395.474 421.938 396.451 419.274 396.5C413.395 396.607 408.364 392.212 405.028 387.37C402.643 383.908 400.501 381.379 397.228 378.789C394.644 376.744 393.072 372.506 390.253 371.034C382.868 367.18 378.67 379.872 377.373 384.71C375.705 390.929 376.259 397.583 377.986 403.786C380.464 412.687 385.377 420.412 388.995 428.782C393.276 438.685 388.71 449.942 384.625 459.927C374.866 483.78 366.881 506.48 367.753 532.794C368.032 541.218 369.182 549.94 373.697 557.058C379.928 566.882 391.48 571.977 402.785 574.719C442.203 584.28 486.44 570.014 512.846 539.226" fill="white"/>
<path d="M487.79 440.558C473.923 457.999 457.779 473.645 439.839 486.866C434.746 490.62 429.51 494.177 424.151 497.542L426.74 499.028C427.623 478.378 429.164 457.758 431.34 437.205C432.425 426.959 433.663 416.73 435.064 406.523C435.635 402.364 436.962 397.398 432.599 394.83C428.66 392.51 424.521 394.259 420.377 394.708C416.26 395.154 412.606 393.137 409.736 390.335C406.801 387.47 404.845 383.8 402.022 380.826C400.607 379.336 398.886 378.171 397.488 376.681C396.248 375.36 395.322 373.767 394.205 372.344C392.255 369.861 389.381 368.056 386.119 368.759C380.745 369.917 378.109 376.779 376.579 381.367C373.886 389.445 374.276 397.876 376.835 405.95C378.235 410.369 380.205 414.586 382.255 418.733C384.244 422.757 386.652 426.798 388.027 431.085C390.89 440.014 386.979 449.59 383.639 457.816C376.658 475.005 369.955 492.433 367.299 510.898C365.974 520.109 365.494 529.538 366.41 538.815C367.278 547.598 369.8 556.197 375.969 562.757C381.491 568.629 388.972 572.319 396.556 574.759C404.059 577.173 411.947 578.518 419.8 579.091C435.394 580.228 451.255 577.981 465.996 572.803C480.835 567.591 494.643 559.437 506.148 548.691C508.935 546.088 511.573 543.331 514.06 540.441C515.498 538.771 513.075 536.328 511.628 538.009C501.753 549.48 489.444 558.639 475.772 565.101C462.1 571.564 447.073 575.274 431.961 575.855C424.446 576.145 416.89 575.685 409.482 574.369C401.916 573.025 394.31 570.963 387.541 567.244C380.544 563.4 374.922 557.716 372.23 550.093C369.295 541.781 369.145 532.537 369.512 523.821C370.271 505.827 375.383 488.476 381.769 471.747C383.381 467.523 385.082 463.334 386.787 459.146C388.524 454.881 390.224 450.572 391.308 446.087C392.336 441.831 392.782 437.435 392.052 433.095C391.316 428.719 389.047 424.673 387.091 420.741C383.089 412.696 378.89 404.523 378.196 395.401C377.709 389.016 379.142 382.368 382.257 376.746C383.269 374.919 384.755 372.56 386.928 372.1C389.663 371.521 391.557 374.464 392.961 376.437C394.064 377.988 395.206 379.325 396.672 380.539C398.193 381.8 399.6 383.189 400.877 384.696C403.453 387.739 405.385 391.2 408.454 393.821C411.434 396.364 415.087 398.226 419.081 398.219C422.81 398.212 427.349 395.718 430.863 397.8C432.685 398.879 432.408 400.837 432.153 402.677C431.817 405.109 431.481 407.542 431.156 409.977C430.504 414.872 429.887 419.773 429.306 424.677C426.95 444.558 425.181 464.509 424.028 484.496C423.749 489.338 423.507 494.182 423.299 499.027C423.244 500.316 424.807 501.191 425.888 500.512C445.007 488.505 462.55 473.982 477.875 457.4C482.169 452.753 486.284 447.943 490.222 442.99C490.804 442.258 490.924 441.275 490.222 440.558C489.629 439.952 488.367 439.833 487.79 440.558Z" fill="#FF008C"/>
<path d="M649.608 720.377C652.233 713.698 649.821 704.24 647.973 697.516C646.555 692.362 644.175 687.365 640.39 683.59C638.757 681.96 636.827 680.551 634.606 679.925C627.495 677.921 621.016 685.875 619.172 691.84C617.688 696.639 617.776 701.773 618.109 706.786C618.356 710.487 618.771 714.317 620.659 717.51C622.863 721.239 626.761 723.59 630.56 725.67C633.443 727.249 636.558 728.806 639.837 728.571C644.311 728.25 647.968 724.551 649.608 720.377Z" fill="#FF008C"/>
<path d="M795.11 683.849C794.284 686.954 792.505 690.05 793.252 693.175C793.869 695.758 796.156 697.887 796.076 700.541C795.962 704.308 791.293 706.401 790.34 710.047C789.317 713.964 792.948 717.795 792.519 721.82C792.017 726.527 786.581 728.794 781.972 729.874C741.147 739.435 698.504 731.691 656.58 732.387C647.412 732.539 637.988 733.061 629.329 730.045C636.03 722.617 640.646 712.926 640.409 702.925C640.172 692.924 634.447 682.829 625.234 678.93C641.801 671.376 660.733 671.945 678.937 671.597C698.266 671.227 717.548 669.664 736.87 669.119C746.646 668.843 756.435 668.821 766.203 669.354C770.262 669.575 774.17 669.879 778.182 669.647C781.945 669.429 786.686 668.602 790.016 670.863C793.301 673.094 796.126 680.031 795.11 683.849Z" fill="white"/>
<path d="M793.446 683.391C792.522 686.699 790.824 689.887 791.544 693.419C791.833 694.836 792.576 696.118 793.258 697.375C793.859 698.481 794.552 699.688 794.293 700.992C793.85 703.217 791.416 704.934 790.131 706.685C788.424 709.011 788.104 711.652 788.881 714.402C789.588 716.902 791.363 719.613 790.685 722.291C790.113 724.555 787.868 725.932 785.872 726.82C783.176 728.02 780.184 728.547 777.311 729.137C773.74 729.87 770.143 730.482 766.531 730.982C737.225 735.043 707.545 731.926 678.144 730.922C669.881 730.639 661.623 730.564 653.356 730.729C645.427 730.887 637.38 730.978 629.781 728.386L630.54 731.261C636.359 724.755 640.678 716.781 641.829 708.052C642.87 700.151 640.972 691.941 636.142 685.54C633.512 682.053 630.121 679.188 626.097 677.444V680.415C636.495 675.72 647.964 674.275 659.257 673.752C671.256 673.196 683.275 673.307 695.277 672.768C707.986 672.197 720.682 671.38 733.397 670.947C739.688 670.732 745.984 670.61 752.28 670.658C758.616 670.705 764.924 671.062 771.25 671.35C774.438 671.495 777.581 671.412 780.761 671.175C783.342 670.982 786.324 670.71 788.664 672.052C790.479 673.093 791.66 675.187 792.448 677.059C793.249 678.963 793.944 681.323 793.446 683.391C792.928 685.542 796.244 686.46 796.763 684.305C797.776 680.095 795.907 675.14 793.363 671.808C790.066 667.491 785 667.403 780.002 667.794C773.737 668.283 767.492 667.635 761.229 667.408C754.602 667.169 747.968 667.161 741.339 667.291C728.118 667.55 714.918 668.36 701.713 669.021C688.978 669.658 676.25 669.774 663.51 670.152C650.158 670.549 636.665 671.889 624.36 677.444C623.247 677.947 623.221 679.921 624.36 680.414C630.782 683.197 635.364 688.912 637.437 695.526C639.714 702.793 638.693 710.66 635.565 717.522C633.681 721.655 631.132 725.447 628.107 728.828C627.217 729.823 627.609 731.275 628.866 731.703C635.846 734.084 643.283 734.319 650.589 734.218C658.019 734.115 665.434 734.018 672.864 734.204C688.081 734.586 703.271 735.633 718.484 736.136C733.557 736.634 748.7 736.602 763.693 734.789C767.304 734.352 770.905 733.824 774.485 733.176C777.883 732.56 781.363 731.962 784.663 730.921C789.63 729.355 794.936 725.945 794.179 720.002C793.952 718.216 793.267 716.585 792.664 714.903C792.165 713.512 791.622 711.99 791.993 710.504C792.642 707.902 795.415 706.208 796.745 703.97C798.615 700.823 797.462 697.937 795.873 694.991C795.027 693.425 794.588 692.02 794.924 690.232C795.307 688.2 796.208 686.292 796.763 684.305C797.359 682.17 794.041 681.258 793.446 683.391Z" fill="#FF008C"/>
<path d="M630.508 621.648C612.851 618.494 594.733 617.928 576.913 619.974C570.352 620.728 563.246 622.151 558.999 627.208C556.05 630.72 554.996 635.432 554.488 639.99C551.246 669.072 566.52 695.747 590.085 711.684C600.365 718.636 610.841 725.297 621.499 731.655C630.695 737.142 639.949 737.506 650.403 737.77C661.918 738.062 673.437 738.137 684.955 738.109C707.929 738.053 731.056 738.395 754.012 737.577C759.162 737.394 764.297 736.924 769.429 736.455C775.314 735.917 781.226 735.158 787.126 734.833C790.846 734.628 795.172 733.558 794.47 728.517C793.713 723.081 787.762 723.446 783.691 723.524C777.777 723.637 771.864 723.776 765.95 723.896C754.123 724.134 742.296 724.348 730.467 724.502C706.545 724.814 682.617 724.883 658.695 724.417C649.873 724.245 640.685 723.908 632.898 719.758C625.11 715.607 619.253 706.433 621.832 697.994C623.284 693.244 627.141 689.51 631.548 687.218C635.955 684.926 640.903 683.911 645.808 683.132C665.17 680.059 684.881 680.291 704.484 680.171C733.648 679.992 762.8 679.016 791.948 678.041C793.069 678.004 794.223 677.959 795.247 677.497C800.449 675.148 800.208 663.818 797.548 659.89C795.247 656.491 791.671 654.208 788.197 652.02C780.508 647.179 772.816 642.342 765.129 637.498C759.966 634.244 753.754 629.971 747.756 628.747C743.765 627.933 739.645 628.169 735.579 628.408C709.109 629.967 682.581 629.661 656.08 629.438C641.39 629.315 626.82 628.498 612.15 629.701C599.078 630.773 586.96 621.456 573.659 628.155C562.445 633.803 558.269 647.89 558.419 660.446C558.49 666.402 559.35 671.805 560.892 676.754" fill="#84FF20"/>
<path d="M794.338 724.263C792.221 722.355 789.628 722.352 786.941 722.102C783.93 721.823 780.957 721.654 777.929 721.713C771.77 721.834 765.616 722.185 759.455 722.304C746.803 722.548 734.15 722.757 721.497 722.887C708.87 723.017 696.243 723.07 683.616 723.001C677.386 722.967 671.155 722.904 664.926 722.806C659.145 722.716 653.324 722.747 647.569 722.128C637.96 721.095 627.431 717.119 623.88 707.247C622.304 702.865 622.779 698.289 625.503 694.466C628.521 690.231 633.412 687.822 638.296 686.445C644.036 684.826 650.086 684.139 656.003 683.523C662.173 682.88 668.368 682.505 674.566 682.282C687.018 681.833 699.484 681.96 711.941 681.828C736.962 681.563 761.973 680.762 786.98 679.927C789.763 679.834 793.072 680.198 795.705 679.155C797.739 678.349 796.853 675.021 794.791 675.838C793.476 676.359 792.099 676.316 790.706 676.362C788.967 676.421 787.228 676.479 785.489 676.537C782.343 676.642 779.196 676.746 776.049 676.848C769.59 677.058 763.13 677.262 756.67 677.449C743.917 677.819 731.161 678.128 718.403 678.308C705.753 678.487 693.097 678.385 680.448 678.671C667.831 678.956 655.109 679.644 642.675 681.928C637.247 682.925 631.737 684.513 627.278 687.89C623.319 690.887 620.3 695.08 619.644 700.086C618.35 709.96 625.975 718.79 634.572 722.447C639.722 724.637 645.284 725.479 650.836 725.848C656.928 726.253 663.059 726.227 669.162 726.308C681.954 726.477 694.748 726.505 707.541 726.437C720.432 726.369 733.322 726.203 746.211 725.985C752.625 725.876 759.038 725.758 765.451 725.625C771.678 725.497 777.923 724.837 784.15 725.273C785.519 725.369 786.879 725.54 788.248 725.635C789.518 725.723 790.913 725.801 791.905 726.695C793.546 728.174 795.987 725.749 794.338 724.263Z" fill="#FF008C"/>
<path d="M654.135 709.108C661.538 708.781 668.95 708.816 676.349 709.214C678.562 709.333 678.555 705.893 676.349 705.774C668.95 705.376 661.538 705.34 654.135 705.668C651.93 705.766 651.918 709.207 654.135 709.108Z" fill="#FF008C"/>
<path d="M655.533 696.831C669.572 698.345 683.694 697.589 697.766 697.05C712.068 696.503 726.38 696.234 740.693 696.246C748.849 696.253 757.005 696.353 765.16 696.541C767.374 696.592 767.373 693.151 765.16 693.101C750.848 692.772 736.531 692.717 722.217 692.946C707.994 693.173 693.791 693.961 679.571 694.236C671.549 694.391 663.516 694.252 655.533 693.391C653.335 693.154 653.352 696.596 655.533 696.831Z" fill="#FF008C"/>
<path d="M778.059 695.434C778.61 695.309 779.164 695.199 779.722 695.108C779.851 695.087 779.979 695.067 780.108 695.048C780.187 695.036 780.628 694.951 780.168 695.037C780.443 694.986 780.731 694.969 781.01 694.942C782.113 694.834 783.221 694.797 784.33 694.822C785.23 694.843 786.091 694.016 786.05 693.102C786.007 692.153 785.294 691.405 784.33 691.382C781.919 691.327 779.496 691.585 777.144 692.117C776.266 692.315 775.666 693.377 775.943 694.232C776.241 695.153 777.118 695.647 778.059 695.434Z" fill="#FF008C"/>
<path d="M695.521 709.344C719.277 710.931 743.111 711.308 766.904 710.447C773.619 710.205 780.33 709.862 787.036 709.426C789.234 709.283 789.25 705.841 787.036 705.985C763.277 707.53 739.443 707.864 715.651 706.962C708.936 706.707 702.226 706.352 695.521 705.904C693.311 705.756 693.32 709.197 695.521 709.344Z" fill="#FF008C"/>
<path d="M618.89 720.496C610.447 710.559 609.39 696.035 616.109 684.911C619.308 679.617 623.895 676.013 629.55 673.624C635.484 671.117 641.879 669.64 648.19 668.449C663.306 665.596 678.822 664.9 694.177 664.772C701.969 664.707 709.764 664.868 717.547 665.25C725.367 665.634 733.166 666.135 740.999 666.018C758.709 665.752 776.428 664.83 794.129 664.2C796.336 664.122 796.347 660.681 794.129 660.76C777.751 661.342 761.373 662.037 744.991 662.49C728.704 662.94 712.459 661.265 696.167 661.32C680.316 661.375 664.315 662.072 648.687 664.872C642.017 666.068 635.289 667.588 629 670.156C622.99 672.61 617.959 676.107 614.224 681.498C605.488 694.106 606.579 711.302 616.457 722.928C617.893 724.618 620.316 722.174 618.89 720.496Z" fill="#FF008C"/>
<path d="M307.241 479.688C312.868 473.737 318.499 467.784 323.826 461.561C328.438 456.019 333.16 451.67 336.846 445.433C337.101 445 337.364 444.542 337.369 444.039C337.379 442.95 336.2 442.161 336.098 441.077C335.977 439.791 337.407 438.573 336.901 437.384C336.341 436.065 334.428 436.54 333.707 435.478C332.975 434.401 333.596 433.472 333.179 432.437C332.199 430.004 331.094 428.814 328.985 426.867C323.918 422.188 318.651 417.725 313.205 413.493C302.749 405.367 291.631 398.093 279.993 391.774C277.893 390.633 275.65 389.493 273.261 389.577C267.453 389.78 264.727 396.322 261.221 399.947C256.053 405.291 250.486 410.591 244.542 415.065C242.777 413.921 241.125 411.911 239.365 410.565C237.217 408.922 235.069 407.278 232.921 405.635C228.498 402.251 224.075 398.868 219.652 395.484C219.316 395.227 218.973 394.966 218.574 394.823C217.706 394.513 216.752 394.812 215.879 395.11C212.812 396.159 209.745 397.208 206.678 398.257C204.863 398.878 200.594 399.619 200.602 402.129C200.61 405.02 201.125 407.931 201.422 410.796C202.037 416.735 202.871 422.651 203.919 428.528C205.304 436.29 207.064 443.985 209.192 451.576C210.748 457.126 211.777 467.672 216.855 470.743C237.177 483.034 257.677 495.41 280.066 503.336C286.175 505.498 288.745 499.249 292.533 495.243C297.436 490.058 302.339 484.873 307.241 479.688Z" fill="#84FF20"/>
<path d="M315.414 450.341C321.762 444.447 329.143 439.689 334.406 432.693C334.788 432.186 334.65 431.475 334.406 430.957C332.859 427.658 329.909 425.341 327.248 422.963C324.208 420.248 321.101 417.61 317.929 415.05C311.563 409.914 304.951 405.082 298.109 400.598C294.761 398.403 291.358 396.291 287.906 394.264C284.469 392.247 280.949 389.943 277.198 388.558C274.148 387.431 270.81 387.706 268.12 389.578C265.739 391.235 264.046 393.597 262.332 395.894C260.013 399.003 257.166 401.682 254.37 404.358C250.97 407.612 247.435 410.739 243.68 413.58H245.416C244.54 412.983 243.779 412.252 243.013 411.522C242.241 410.786 240.845 410.867 240.311 411.87C239.318 413.738 238.335 415.612 237.373 417.497C236.991 418.244 237.097 419.468 237.99 419.85C247.763 424.03 253.817 433.48 263.009 438.561C265.178 439.759 267.526 440.709 269.96 441.2C272.992 441.813 276.572 441.436 279.355 442.944C283.026 444.932 283.155 449.853 283.331 453.515C283.676 460.708 284.861 467.818 285.975 474.926C286.273 476.829 289.501 476.398 289.353 474.469C289.347 474.385 289.334 474.814 289.223 474.873C289.3 474.832 289.402 474.541 289.459 474.463C289.619 474.24 289.762 474.054 290.133 473.646C290.919 472.779 291.774 471.974 292.635 471.183C294.601 469.377 296.648 467.662 298.695 465.95C304.536 461.064 309.853 455.541 315.414 450.341C317.034 448.826 314.598 446.397 312.982 447.908C307.24 453.277 301.734 458.933 295.707 463.983C293.521 465.814 291.332 467.651 289.271 469.622C288.091 470.751 285.771 472.611 285.913 474.469L289.292 474.012C288.257 467.409 287.101 460.787 286.798 454.103C286.602 449.808 286.407 444.802 283.187 441.547C281.231 439.569 278.584 438.866 275.904 438.517C272.855 438.119 269.898 437.914 267.027 436.712C262.149 434.67 258.162 430.978 254.296 427.475C249.849 423.445 245.311 419.268 239.726 416.88L240.343 419.233C241.305 417.348 242.288 415.474 243.282 413.606L240.58 413.954C241.56 414.888 242.559 415.787 243.68 416.55C244.134 416.86 244.965 416.891 245.416 416.55C251.603 411.869 257.496 406.573 262.738 400.848C265.774 397.533 268.586 390.945 273.934 391.308C275.8 391.434 277.52 392.387 279.131 393.259C280.824 394.175 282.503 395.116 284.172 396.075C287.577 398.03 290.934 400.068 294.241 402.186C300.735 406.347 307.043 410.81 313.106 415.578C316.617 418.339 320.053 421.198 323.408 424.148C326.271 426.666 329.78 429.163 331.436 432.693V430.956C326.382 437.674 319.079 442.247 312.982 447.908C311.356 449.418 313.793 451.847 315.414 450.341Z" fill="#FF008C"/>
<path d="M283.408 440.974C279.532 437.635 275.594 434.304 271.072 431.917C264.817 428.615 259.243 424.5 253.522 420.334C247.703 416.097 242.147 411.516 236.594 406.94C231.533 402.769 225.553 398.994 220.884 394.486C220.084 393.714 218.812 393.049 217.93 393.726C217.577 393.997 217.381 394.432 217.034 394.712C215.725 395.77 213.76 393.909 212.17 394.46C210.485 395.044 210.545 397.768 208.943 398.551C208.087 398.969 207.064 398.666 206.187 398.292C205.311 397.919 204.396 397.467 203.453 397.608C202.257 397.787 201.678 399.524 201.578 400.473C203.263 401.793 204.96 403.098 206.663 404.395C211.359 407.973 216.101 411.49 220.859 414.985C235.136 425.473 249.451 436.035 264.251 445.781C266.804 446.38 269.056 449.904 270.862 451.582C271.388 452.071 272.028 452.596 272.734 452.471C273.463 452.342 273.909 451.575 274.598 451.304C275.689 450.875 277.021 451.805 278.052 451.247C279.299 450.572 278.652 449.08 279.249 448.108C280.119 446.692 280.731 446.972 282.077 446.126C283.958 444.943 286.131 443.322 283.863 441.366C283.711 441.236 283.56 441.105 283.408 440.974Z" fill="#84FF20"/>
<path d="M632.827 642.042C635.452 635.363 633.04 625.905 631.191 619.182C629.774 614.027 627.394 609.03 623.609 605.255C621.975 603.625 620.046 602.216 617.825 601.59C610.714 599.586 604.235 607.54 602.39 613.505C600.906 618.304 600.995 623.438 601.328 628.451C601.575 632.152 601.99 635.982 603.878 639.175C606.082 642.904 609.98 645.255 613.778 647.335C616.662 648.914 619.777 650.471 623.056 650.236C627.529 649.915 631.187 646.216 632.827 642.042Z" fill="#FF008C"/>
<path d="M778.321 605.513C777.495 608.618 775.716 611.714 776.463 614.839C777.08 617.422 779.367 619.551 779.287 622.205C779.173 625.972 774.504 628.065 773.551 631.711C772.528 635.628 776.159 639.459 775.73 643.484C775.228 648.191 769.792 650.458 765.183 651.538C724.358 661.099 681.715 653.355 639.791 654.051C630.623 654.203 621.199 654.726 612.54 651.709C619.241 644.281 623.857 634.591 623.62 624.589C623.383 614.588 617.658 604.493 608.445 600.594C625.012 593.04 643.944 593.609 662.148 593.261C681.477 592.891 700.759 591.328 720.081 590.783C729.857 590.507 739.646 590.485 749.414 591.018C753.473 591.239 757.381 591.543 761.393 591.311C765.156 591.093 769.897 590.266 773.227 592.527C776.512 594.759 779.337 601.695 778.321 605.513Z" fill="white"/>
<path d="M776.664 605.056C775.74 608.364 774.043 611.552 774.763 615.084C775.052 616.501 775.794 617.783 776.477 619.041C777.078 620.146 777.771 621.354 777.512 622.657C777.069 624.882 774.634 626.599 773.35 628.35C771.643 630.676 771.323 633.317 772.1 636.067C772.806 638.567 774.582 641.278 773.904 643.957C773.331 646.22 771.087 647.597 769.091 648.485C766.394 649.685 763.403 650.212 760.53 650.802C756.958 651.535 753.361 652.147 749.749 652.648C720.443 656.708 690.764 653.591 661.363 652.587C653.1 652.304 644.841 652.229 636.575 652.394C628.645 652.552 620.599 652.643 613 650.051L613.759 652.926C619.578 646.42 623.897 638.446 625.047 629.717C626.089 621.816 624.191 613.606 619.361 607.205C616.731 603.718 613.34 600.853 609.316 599.109V602.08C619.713 597.385 631.183 595.94 642.476 595.417C654.474 594.861 666.494 594.972 678.496 594.433C691.204 593.863 703.901 593.045 716.616 592.612C722.907 592.397 729.203 592.275 735.498 592.323C741.834 592.37 748.142 592.727 754.469 593.015C757.657 593.16 760.8 593.077 763.98 592.84C766.561 592.647 769.543 592.375 771.882 593.717C773.697 594.758 774.879 596.852 775.666 598.724C776.467 600.628 777.162 602.988 776.664 605.056C776.146 607.207 779.463 608.125 779.981 605.97C780.995 601.76 779.126 596.805 776.582 593.473C773.285 589.156 768.218 589.068 763.221 589.459C756.955 589.948 750.71 589.3 744.447 589.074C737.82 588.834 731.187 588.826 724.558 588.956C711.337 589.215 698.136 590.025 684.932 590.686C672.197 591.323 659.469 591.439 646.728 591.817C633.377 592.214 619.884 593.554 607.579 599.109C606.466 599.612 606.44 601.586 607.579 602.079C614.001 604.862 618.583 610.577 620.656 617.192C622.933 624.458 621.912 632.325 618.783 639.187C616.899 643.32 614.35 647.112 611.326 650.494C610.436 651.488 610.828 652.94 612.085 653.368C619.065 655.749 626.501 655.984 633.808 655.883C641.238 655.78 648.652 655.683 656.083 655.869C671.3 656.251 686.49 657.298 701.703 657.801C716.776 658.299 731.918 658.267 746.911 656.454C750.523 656.017 754.124 655.489 757.703 654.841C761.102 654.225 764.581 653.627 767.882 652.586C772.849 651.02 778.155 647.61 777.398 641.667C777.171 639.882 776.485 638.25 775.883 636.568C775.384 635.177 774.841 633.655 775.211 632.169C775.86 629.567 778.633 627.873 779.964 625.635C781.834 622.488 780.681 619.602 779.091 616.656C778.246 615.09 777.807 613.685 778.143 611.897C778.526 609.865 779.427 607.957 779.981 605.97C780.578 603.835 777.26 602.923 776.664 605.056Z" fill="#FF008C"/>
<path d="M752.643 658.119C758.529 657.581 764.44 656.822 770.34 656.497C774.061 656.292 778.387 655.222 777.684 650.181C776.927 644.745 770.976 645.11 766.905 645.188C760.991 645.301 755.078 645.44 749.165 645.56C737.338 645.798 725.51 646.012 713.682 646.166C689.759 646.478 665.831 646.547 641.91 646.081C633.087 645.909 623.899 645.572 616.112 641.422C608.325 637.271 602.467 628.097 605.047 619.658C606.498 614.908 610.356 611.174 614.763 608.882C619.169 606.59 624.117 605.575 629.023 604.796C648.385 601.723 668.095 601.955 687.699 601.835C716.862 601.656 746.014 600.68 775.162 599.705C776.283 599.668 777.437 599.623 778.462 599.161C783.664 596.812 783.422 585.482 780.763 581.554C778.461 578.155 774.886 575.871 771.411 573.684C763.722 568.843 756.031 564.006 748.344 559.162C743.181 555.908 736.969 551.635 730.97 550.411C726.98 549.597 722.859 549.833 718.793 550.072C692.323 551.631 665.795 551.325 639.294 551.102C610.026 550.856 573.59 545.97 552.915 571.65C546.666 579.411 544.91 587.817 546.112 597.568C547.029 605.001 549.572 612.335 553.97 618.437C558.492 624.709 566.94 629.047 573.299 633.348C583.579 640.3 594.056 646.961 604.713 653.319C613.91 658.806 623.164 659.169 633.617 659.434C645.132 659.726 656.652 659.801 668.17 659.773C691.143 659.717 714.271 660.059 737.227 659.241C742.377 659.057 747.512 658.588 752.643 658.119Z" fill="#84FF20"/>
<path d="M777.549 645.927C775.432 644.019 772.839 644.016 770.152 643.767C767.141 643.487 764.168 643.318 761.14 643.377C754.98 643.498 748.827 643.849 742.665 643.968C730.014 644.212 717.361 644.421 704.708 644.551C692.081 644.681 679.454 644.734 666.827 644.665C660.596 644.631 654.366 644.568 648.137 644.47C642.356 644.38 636.535 644.411 630.78 643.792C621.171 642.759 610.642 638.783 607.091 628.911C605.515 624.529 605.99 619.953 608.714 616.13C611.732 611.895 616.623 609.486 621.507 608.109C627.247 606.49 633.297 605.803 639.214 605.187C645.384 604.544 651.579 604.169 657.777 603.946C670.229 603.497 682.695 603.624 695.152 603.492C720.173 603.227 745.184 602.426 770.191 601.591C772.974 601.498 776.283 601.862 778.916 600.819C780.95 600.013 780.064 596.685 778.002 597.502C776.687 598.023 775.31 597.98 773.917 598.027C772.178 598.085 770.439 598.143 768.7 598.201C765.554 598.306 762.407 598.41 759.26 598.512C752.801 598.723 746.341 598.926 739.881 599.113C727.128 599.483 714.372 599.792 701.614 599.972C688.963 600.151 676.308 600.05 663.659 600.335C651.042 600.62 638.32 601.308 625.886 603.592C620.458 604.589 614.948 606.177 610.488 609.554C606.53 612.551 603.511 616.744 602.855 621.751C601.561 631.624 609.186 640.454 617.783 644.111C622.932 646.301 628.495 647.143 634.047 647.512C640.139 647.917 646.27 647.891 652.373 647.972C665.165 648.141 677.959 648.169 690.752 648.101C703.643 648.033 716.533 647.867 729.422 647.649C735.836 647.54 742.249 647.422 748.662 647.289C754.889 647.161 761.134 646.501 767.361 646.937C768.729 647.033 770.09 647.204 771.459 647.299C772.729 647.387 774.124 647.465 775.116 648.359C776.757 649.838 779.197 647.413 777.549 645.927Z" fill="#FF008C"/>
<path d="M637.354 630.773C644.757 630.446 652.169 630.481 659.568 630.879C661.78 630.998 661.774 627.558 659.568 627.439C652.169 627.041 644.757 627.005 637.354 627.333C635.149 627.431 635.137 630.872 637.354 630.773Z" fill="#FF008C"/>
<path d="M638.744 618.495C652.783 620.009 666.905 619.253 680.977 618.714C695.279 618.167 709.591 617.898 723.904 617.91C732.06 617.917 740.216 618.017 748.371 618.205C750.585 618.256 750.584 614.815 748.371 614.765C734.059 614.436 719.742 614.381 705.428 614.61C691.205 614.837 677.002 615.625 662.782 615.9C654.76 616.055 646.727 615.916 638.744 615.055C636.546 614.818 636.562 618.26 638.744 618.495Z" fill="#FF008C"/>
<path d="M761.278 617.098C761.829 616.973 762.383 616.863 762.941 616.772C763.069 616.751 763.198 616.731 763.327 616.712C763.406 616.7 763.847 616.615 763.386 616.701C763.661 616.65 763.95 616.633 764.228 616.606C765.332 616.498 766.44 616.461 767.549 616.486C768.449 616.507 769.309 615.68 769.268 614.766C769.226 613.817 768.513 613.069 767.549 613.046C765.138 612.991 762.715 613.249 760.363 613.781C759.485 613.979 758.885 615.041 759.162 615.897C759.46 616.817 760.336 617.311 761.278 617.098Z" fill="#FF008C"/>
<path d="M678.732 631.009C702.488 632.596 726.322 632.973 750.115 632.112C756.83 631.87 763.541 631.527 770.246 631.091C772.444 630.948 772.461 627.506 770.246 627.65C746.488 629.195 722.654 629.529 698.862 628.627C692.147 628.372 685.437 628.017 678.732 627.569C676.522 627.421 676.531 630.862 678.732 631.009Z" fill="#FF008C"/>
<path d="M602.101 642.16C593.658 632.223 592.601 617.699 599.32 606.575C602.519 601.281 607.106 597.677 612.761 595.288C618.695 592.781 625.09 591.304 631.401 590.113C646.517 587.26 662.033 586.564 677.388 586.436C685.18 586.371 692.975 586.532 700.758 586.914C708.578 587.298 716.377 587.799 724.21 587.682C741.92 587.416 759.639 586.494 777.34 585.864C779.547 585.786 779.558 582.345 777.34 582.424C760.962 583.006 744.584 583.702 728.202 584.154C711.915 584.604 695.669 582.929 679.378 582.984C663.527 583.039 647.526 583.736 631.898 586.537C625.228 587.732 618.5 589.252 612.211 591.82C606.201 594.274 601.169 597.771 597.435 603.162C588.699 615.77 589.79 632.966 599.668 644.592C601.104 646.282 603.527 643.839 602.101 642.16Z" fill="#FF008C"/>
<path d="M520.488 696.914C521.867 701.275 524.279 704.584 524.784 709.408C525.319 714.513 524.605 719.732 523.044 724.605C520.423 732.786 515.584 740.063 510.463 746.96C505.341 753.857 499.854 760.534 495.668 768.036C492.059 774.503 489.424 782.141 491.478 789.257C493.753 797.142 501.603 802.592 509.74 803.669C517.876 804.746 526.13 802.058 533.223 797.929C538.233 795.013 542.175 791.29 546.432 787.451C550.728 783.578 555.205 780.413 558.584 775.532C556.832 773.669 555.045 771.753 554.043 769.399C552.102 764.841 554.386 758.977 559.771 758.606C564.048 758.312 567.235 762.338 569.274 765.577C568.79 764.808 596.016 740.631 598.53 738.232C602.903 734.059 610.378 730.228 610.211 723.176C610.142 720.241 608.859 717.475 607.399 714.928C605.703 711.97 603.738 709.176 601.777 706.387C592.171 692.73 582.566 679.073 572.96 665.416" fill="#FF008C"/>
<path d="M518.83 697.371C519.731 700.142 521.126 702.708 522.094 705.451C523.156 708.464 523.362 711.594 523.185 714.767C522.819 721.304 520.516 727.562 517.409 733.271C511.128 744.813 501.767 754.279 495.099 765.572C491.92 770.956 489.252 776.969 489.05 783.313C488.869 788.971 491.01 794.354 495.021 798.341C503.642 806.911 516.637 807.073 527.346 802.72C534.033 800.001 539.649 795.862 544.989 791.07C550.181 786.409 556.019 782.154 560.069 776.4C560.514 775.768 560.292 774.839 559.8 774.315C557.895 772.287 555.662 770.045 555.169 767.185C554.835 765.244 555.35 763.073 556.779 761.672C560.924 757.608 565.658 763.092 567.789 766.445C568.777 768.001 571.704 767.007 570.933 765.12C571.078 765.475 570.853 766.186 570.815 766.27C570.937 766.004 570.862 766.205 570.723 766.371C570.92 766.136 571.121 765.907 571.33 765.682C571.986 764.976 572.677 764.302 573.367 763.629C575.459 761.593 577.601 759.607 579.746 757.627C584.773 752.988 589.856 748.407 594.934 743.823C596.427 742.476 597.929 741.138 599.402 739.77C602.176 737.196 605.382 735.077 607.967 732.304C611.488 728.526 612.841 723.857 611.133 718.864C609.053 712.778 604.636 707.472 600.979 702.274C592.135 689.699 583.29 677.123 574.445 664.548C573.181 662.751 570.197 664.468 571.475 666.284C579.368 677.507 587.262 688.73 595.156 699.954C598.897 705.272 602.953 710.496 606.131 716.18C607.525 718.672 608.849 721.568 608.431 724.502C608.152 726.457 607.053 728.195 605.752 729.635C603.155 732.511 599.855 734.655 597.025 737.286C595.583 738.627 594.112 739.937 592.651 741.256C587.646 745.775 582.637 750.289 577.678 754.858C575.289 757.061 572.9 759.266 570.581 761.543C569.671 762.436 566.976 764.472 567.616 766.035L570.759 764.709C568.974 761.899 566.774 759.006 563.641 757.631C560.61 756.299 557.023 756.799 554.555 759.043C552.374 761.027 551.393 764.15 551.699 767.043C552.115 770.978 554.765 773.978 557.368 776.748L557.099 774.664C553.638 779.58 548.628 783.147 544.213 787.142C539.683 791.24 535.127 795.141 529.643 797.921C519.835 802.891 507.04 804.566 498.237 796.65C494.264 793.078 492.228 788.234 492.508 782.886C492.824 776.846 495.676 771.189 498.781 766.127C505.354 755.41 514.217 746.256 520.273 735.202C523.623 729.088 526.048 722.457 526.58 715.466C526.837 712.078 526.693 708.549 525.663 705.29C524.707 702.262 523.13 699.477 522.147 696.457C521.465 694.361 518.142 695.257 518.83 697.371Z" fill="#FF008C"/>
<path d="M465.727 367.302C481.107 367.251 496.673 369.901 510.508 376.618C524.344 383.334 536.359 394.323 542.826 408.277C553.287 430.853 548.192 457.409 540.724 481.144C533.63 503.692 524.107 524.629 512.426 545.121C512.087 545.716 511.738 546.347 511.74 547.032C511.742 547.717 512.095 548.346 512.439 548.938C522.91 566.957 534.573 584.091 544.607 602.107C556.359 623.207 571.372 643.08 584.586 663.308C585.137 664.15 585.704 665.04 585.783 666.043C585.9 667.534 584.928 668.867 583.992 670.033C574.283 682.128 563.058 693 550.682 702.346C544.289 707.175 537.588 711.556 530.651 715.56C526.211 718.124 520.654 724.682 515.161 722.505C511.883 721.206 509.612 718.241 507.511 715.409C502.745 708.988 497.979 702.566 493.212 696.144C478.53 676.363 463.845 656.573 449.925 636.242C437.883 618.654 420.96 598.778 417.399 577.302C415.404 565.271 415.951 552.604 420.59 541.325C423.864 533.363 429.049 526.338 434.574 519.737C451.162 499.916 472.371 482.572 497.633 477.11" fill="white"/>
<path d="M465.726 369.022C490.224 369 515.649 376.17 532.235 395.166C540.094 404.167 544.881 415.298 546.412 427.126C548.026 439.593 546.401 452.284 543.562 464.452C537.668 489.719 527.384 514.065 515.063 536.831C513.57 539.59 511.718 542.3 510.469 545.174C509.248 547.982 511.31 550.434 512.689 552.768C516.232 558.764 519.9 564.685 523.584 570.595C530.842 582.237 537.918 593.943 544.743 605.844C551.42 617.489 558.931 628.629 566.515 639.696C570.28 645.191 574.067 650.669 577.792 656.191C579.634 658.922 581.516 661.639 583.264 664.432C584.363 666.187 583.975 667.239 582.774 668.817C581.761 670.148 580.655 671.42 579.573 672.696C571.438 682.285 562.333 691.049 552.452 698.826C547.125 703.02 541.544 706.889 535.79 710.473C533.251 712.053 530.553 713.436 528.114 715.166C525.995 716.669 524.029 718.392 521.789 719.723C519.647 720.996 517.371 721.771 515.026 720.556C512.476 719.235 510.673 716.793 508.995 714.541C504.779 708.883 500.584 703.209 496.379 697.543C487.991 686.242 479.596 674.947 471.333 663.556C463.365 652.573 455.726 641.368 447.867 630.309C440.921 620.534 433.661 610.924 427.851 600.405C421.877 589.587 418.275 578.197 418.037 565.777C417.911 559.194 418.678 552.604 420.626 546.302C422.519 540.178 425.624 534.56 429.292 529.329C436.11 519.606 444.427 510.664 453.321 502.811C461.949 495.193 471.567 488.608 482.122 483.957C487.254 481.695 492.614 479.972 498.089 478.768C500.251 478.293 499.336 474.976 497.175 475.451C473.742 480.604 453.875 495.615 438.047 513.125C429.549 522.526 421.271 532.826 417.403 545.082C413.521 557.384 413.626 571.433 417.097 583.825C420.435 595.742 427.023 606.516 433.964 616.643C441.247 627.268 448.782 637.742 456.194 648.279C464.552 660.16 473.128 671.886 481.762 683.568C486.126 689.472 490.504 695.366 494.88 701.262C499.124 706.979 503.237 712.828 507.651 718.415C510.925 722.557 515.479 726.059 520.942 723.959C523.445 722.997 525.584 721.36 527.697 719.748C529.935 718.039 532.269 716.631 534.681 715.183C546.193 708.27 556.991 700.19 566.818 691.035C571.648 686.535 576.242 681.781 580.572 676.798C582.578 674.488 584.889 672.14 586.485 669.519C588.33 666.49 587.118 664.031 585.348 661.336C577.673 649.65 569.56 638.259 561.805 626.626C557.993 620.908 554.265 615.131 550.726 609.238C547.096 603.194 543.746 596.989 540.141 590.93C532.864 578.698 525.099 566.766 517.768 554.568C516.884 553.097 516.006 551.623 515.137 550.145C514.692 549.388 514.183 548.631 513.796 547.844C513.312 546.857 513.728 546.316 514.234 545.419C515.893 542.484 517.525 539.536 519.112 536.561C522.31 530.563 525.342 524.476 528.182 518.3C533.795 506.095 538.667 493.546 542.658 480.717C550.092 456.824 555.297 429.351 543.587 405.907C532.466 383.642 508.913 370.788 485.049 367.035C478.655 366.03 472.197 365.576 465.726 365.582C463.513 365.584 463.509 369.024 465.726 369.022Z" fill="#FF008C"/>
<path d="M438.08 709.196C435.58 713.026 434.548 716.988 431.136 720.436C427.526 724.084 423.035 726.839 418.276 728.719C410.286 731.875 401.59 732.742 393.009 733.15C384.429 733.558 375.786 733.543 367.33 735.057C360.04 736.363 352.461 739.164 348.258 745.261C343.599 752.018 344.356 761.545 348.679 768.522C353.001 775.498 360.31 780.181 367.998 783.053C373.429 785.081 378.807 785.772 384.474 786.633C390.193 787.503 395.478 788.961 401.395 788.482C401.727 785.946 402.076 783.349 403.262 781.083C405.559 776.693 411.543 774.745 415.241 778.676C418.18 781.799 417.083 786.815 415.87 790.445C416.158 789.583 452.113 795.328 455.562 795.753C461.561 796.492 469.262 799.848 474.612 795.25C476.839 793.337 478.166 790.592 479.211 787.849C480.425 784.662 481.341 781.372 482.256 778.087C486.736 762.002 491.215 745.918 495.695 729.833" fill="#FF008C"/>
<path d="M436.594 708.328C434.974 710.857 433.853 713.657 432.268 716.205C430.615 718.863 428.238 721.013 425.691 722.803C420.448 726.487 414.377 728.612 408.124 729.831C394.524 732.482 380.505 730.946 366.872 733.399C361.567 734.353 356.154 736.043 351.775 739.284C347.137 742.717 344.213 747.63 343.526 753.372C342.129 765.07 349.682 775.153 359.324 780.847C365.408 784.439 372.093 786.406 379.029 787.529C382.666 788.118 386.3 788.682 389.929 789.317C393.723 789.98 397.537 790.481 401.394 790.202C402.416 790.128 402.985 789.466 403.114 788.482C403.46 785.848 403.809 782.797 405.578 780.682C406.896 779.106 408.989 778.037 411.075 778.307C416.842 779.054 415.448 786.233 414.21 789.988C413.6 791.838 416.428 793.024 417.354 791.313C417.2 791.598 416.463 792.252 416.08 792.092C416.141 792.117 416.273 792.073 416.343 792.078C416.647 792.101 416.956 792.092 417.26 792.111C418.166 792.167 419.07 792.267 419.973 792.367C422.787 792.682 425.569 793.064 428.367 793.457C435.075 794.397 441.772 795.416 448.469 796.43C450.471 796.733 452.472 797.046 454.476 797.327C458.475 797.886 462.399 799.085 466.44 799.315C469.013 799.462 471.662 799.088 473.936 797.816C476.26 796.517 477.994 794.348 479.228 792.027C482.142 786.547 483.458 780.181 485.111 774.245C489.191 759.593 493.272 744.942 497.352 730.291C497.947 728.155 494.629 727.243 494.035 729.376C490.398 742.435 486.761 755.494 483.124 768.552C481.414 774.693 479.94 780.976 477.715 786.956C476.772 789.489 475.602 792.075 473.544 793.901C471.679 795.556 469.228 795.989 466.808 795.893C464.334 795.795 461.916 795.206 459.5 794.707C458.304 794.459 457.107 794.238 455.896 794.076C455.711 794.052 455.525 794.028 455.34 794.004C456.032 794.095 455.466 794.021 455.305 793.998C453.262 793.701 451.222 793.392 449.181 793.082C442.511 792.072 435.841 791.058 429.16 790.122C425.941 789.672 422.72 789.221 419.489 788.874C418.122 788.727 415.228 788.017 414.383 789.577L417.527 790.903C418.56 787.769 419.38 784.207 418.432 780.948C417.513 777.79 414.807 775.359 411.533 774.921C408.515 774.517 405.418 775.797 403.362 778.008C400.71 780.859 400.16 784.777 399.674 788.482L401.394 786.762C394.939 787.229 388.536 785.524 382.195 784.563C376.1 783.638 370.123 782.414 364.531 779.727C354.818 775.059 346.241 766.4 346.833 754.893C347.099 749.731 349.615 745.063 353.81 742.035C358.176 738.886 363.501 737.421 368.744 736.551C381.926 734.364 395.43 735.712 408.587 733.235C415.39 731.953 422.123 729.603 427.776 725.525C430.451 723.595 432.941 721.383 434.792 718.632C436.622 715.914 437.797 712.822 439.564 710.064C440.762 708.195 437.786 706.468 436.594 708.328Z" fill="#FF008C"/>
<path d="M658.387 457.979C668.172 469.845 675.985 483.567 679.555 498.527C683.125 513.486 682.237 529.745 675.538 543.589C664.701 565.986 640.927 578.871 617.833 588.133C595.894 596.931 573.662 602.829 550.407 606.776C549.732 606.891 549.022 607.021 548.494 607.456C547.965 607.892 547.703 608.563 547.462 609.205C540.157 628.723 534.291 648.602 526.71 667.78C517.832 690.242 511.971 714.448 504.694 737.488C504.391 738.447 504.062 739.45 503.336 740.146C502.257 741.182 500.609 741.274 499.114 741.289C483.605 741.441 468.082 739.645 453.01 735.993C445.223 734.107 437.588 731.698 430.095 728.869C425.299 727.058 416.703 726.914 414.907 721.285C413.835 717.926 414.69 714.291 415.549 710.871C417.497 703.115 419.446 695.358 421.394 687.602C431.339 648.007 441.324 608.309 455.352 569.92C467.204 537.49 480.02 498.718 510.196 478.476C521.415 470.95 534.689 466.742 545.417 458.531" fill="white"/>
<path d="M657.172 459.196C672.881 478.318 683.586 503.213 678.755 528.3C676.538 539.814 670.975 550.178 662.899 558.639C655.332 566.566 646.099 572.688 636.443 577.772C625.701 583.428 614.34 587.935 602.867 591.863C590.1 596.234 577.047 599.743 563.839 602.497C560.537 603.185 557.225 603.827 553.905 604.426C550.992 604.951 547.503 604.856 546.127 607.95C544.746 611.056 543.729 614.375 542.595 617.578C541.428 620.87 540.288 624.172 539.159 627.478C534.634 640.725 530.283 654.038 525.153 667.068C520.164 679.742 516.138 692.756 512.306 705.818C510.397 712.324 508.531 718.842 506.602 725.342C505.619 728.655 504.62 731.964 503.591 735.263C503.237 736.398 502.987 738.271 501.974 739.034C500.909 739.837 498.986 739.574 497.746 739.577C483.754 739.612 469.777 738.058 456.132 734.96C449.388 733.429 442.736 731.509 436.2 729.252C433.504 728.321 430.86 727.177 428.095 726.464C426.009 725.926 423.886 725.52 421.834 724.85C420.06 724.271 418.098 723.453 417.044 721.822C415.477 719.399 416.143 715.925 416.732 713.303C418.264 706.478 420.126 699.713 421.83 692.93C425.25 679.315 428.655 665.696 432.206 652.115C439.318 624.919 447.031 597.845 456.635 571.41C463.909 551.391 470.884 531.008 481.764 512.589C487.092 503.569 493.389 495.091 501.067 487.928C505.083 484.18 509.452 480.841 514.154 477.998C519.529 474.747 525.227 472.087 530.829 469.26C536.197 466.55 541.484 463.659 546.286 460.016C548.027 458.695 546.315 455.706 544.549 457.046C534.246 464.864 521.834 469.041 510.965 475.926C501.765 481.753 493.952 489.444 487.357 498.069C473.985 515.556 465.799 536.414 458.269 556.908C453.89 568.828 449.569 580.766 445.663 592.851C441.241 606.533 437.221 620.341 433.428 634.209C429.635 648.076 426.067 662.013 422.55 675.958C420.791 682.932 419.042 689.909 417.289 696.886C416.383 700.493 415.477 704.101 414.571 707.708C413.778 710.866 412.799 714.077 412.695 717.354C412.61 720.05 413.198 722.832 415.073 724.856C416.54 726.439 418.589 727.374 420.597 728.06C422.696 728.777 424.879 729.196 427.025 729.742C429.846 730.458 432.537 731.621 435.285 732.569C448.707 737.205 462.602 740.316 476.715 741.88C483.787 742.664 490.905 743.045 498.02 743.017C500.909 743.006 504.05 742.869 505.566 739.978C506.226 738.719 506.567 737.273 506.987 735.925C507.54 734.15 508.084 732.373 508.621 730.594C512.673 717.188 516.36 703.672 520.602 690.323C524.852 676.95 530.195 663.999 534.833 650.765C539.598 637.167 543.899 623.391 549.025 609.921C549.267 609.287 549.408 608.853 550.052 608.599C550.769 608.316 551.688 608.296 552.449 608.163C554.204 607.858 555.957 607.541 557.707 607.211C561.19 606.556 564.664 605.851 568.126 605.094C574.841 603.626 581.513 601.961 588.124 600.081C600.855 596.46 613.375 592.051 625.517 586.777C645.855 577.944 666.678 565.433 676.835 544.845C688.445 521.312 683.303 493.561 670.274 471.784C667.116 466.506 663.507 461.514 659.604 456.763C658.198 455.052 655.777 457.497 657.172 459.196Z" fill="#FF008C"/>
<path d="M267.709 449.942C268.44 459.401 269.605 468.828 271.211 478.179C272.008 482.818 272.914 487.439 273.93 492.036C274.824 496.082 275.872 500.213 278.372 503.602C279.672 505.364 282.659 503.651 281.342 501.865C278.955 498.629 278.045 494.745 277.195 490.884C276.2 486.365 275.311 481.824 274.528 477.264C272.974 468.214 271.857 459.097 271.149 449.942C270.98 447.749 267.538 447.73 267.709 449.942Z" fill="#FF008C"/>
<path d="M699.133 450.914C699.254 451.266 691.672 454.972 691.101 455.27C620.142 492.298 545.466 522.466 473.276 556.762C472.219 557.265 470.944 557.763 469.935 557.17C469.297 556.795 468.956 556.08 468.652 555.406C454.882 524.933 443.538 497.345 443.354 462.956C443.183 431.01 451.592 397.624 473.351 373.392C503.213 340.136 554.036 330.643 596.821 343.573C646.091 358.464 683.072 402.983 699.133 450.914Z" fill="white"/>
<path d="M697.412 450.914C697.431 450.65 697.687 449.768 698 449.689C697.91 449.712 697.812 449.82 697.728 449.867C697.471 450.01 697.222 450.17 696.965 450.315C696.157 450.772 695.332 451.201 694.507 451.627C693.176 452.315 691.832 452.976 690.496 453.652C684.783 456.539 679.122 459.529 673.405 462.409C660.897 468.709 648.296 474.823 635.634 480.81C610.436 492.725 585.003 504.136 559.561 515.521C534.146 526.894 508.717 538.243 483.497 550.048C480.24 551.573 476.986 553.105 473.736 554.646C472.845 555.069 471.148 556.363 470.462 555.211C469.644 553.839 469.097 552.236 468.443 550.778C465.849 544.987 463.302 539.175 460.905 533.299C456.233 521.847 452.117 510.143 449.291 498.089C443.746 474.439 443.57 449.393 449.079 425.71C454.289 403.309 465.118 382.08 482.521 366.727C498.475 352.652 518.831 344.269 539.749 341.124C560.845 337.952 582.821 340.119 602.874 347.397C623.102 354.739 641.146 367.328 656.066 382.731C671.235 398.391 683.317 416.985 691.969 436.974C694.011 441.69 695.836 446.5 697.473 451.371C698.175 453.459 701.499 452.564 700.791 450.457C693.682 429.313 682.885 409.433 668.885 392.059C654.977 374.8 637.684 359.996 617.784 350.087C597.986 340.229 575.848 335.545 553.751 336.39C532.011 337.221 510.224 343.321 491.936 355.277C472.287 368.123 458.25 387.389 450.311 409.351C441.946 432.492 439.765 458.253 442.978 482.586C446.339 508.043 456.122 531.775 466.598 555.018C467.199 556.351 467.729 557.872 469.065 558.655C470.422 559.449 471.999 559.158 473.372 558.587C476.64 557.226 479.808 555.564 483.013 554.059C489.529 551.001 496.06 547.973 502.602 544.969C515.552 539.021 528.544 533.164 541.547 527.333C567.729 515.593 593.96 503.958 620 491.904C632.937 485.915 645.827 479.823 658.637 473.564C670.296 467.868 681.784 461.849 693.387 456.046C694.909 455.285 696.43 454.521 697.926 453.712C699.098 453.079 700.739 452.434 700.852 450.914C701.017 448.706 697.575 448.716 697.412 450.914Z" fill="#FF008C"/>
<path d="M631.477 308.994C631.598 309.346 624.016 313.053 623.445 313.351C552.486 350.378 477.81 380.546 405.62 414.842C404.562 415.345 403.288 415.843 402.278 415.25C401.641 414.875 401.3 414.16 400.995 413.486C387.226 383.013 375.882 355.425 375.698 321.036C375.527 289.09 383.936 255.704 405.694 231.472C435.556 198.216 486.38 188.723 529.164 201.654C578.434 216.544 615.415 261.063 631.477 308.994Z" fill="white"/>
<path d="M629.755 308.994C629.775 308.73 630.031 307.848 630.343 307.769C630.253 307.792 630.155 307.9 630.072 307.947C629.815 308.09 629.566 308.25 629.309 308.395C628.501 308.852 627.676 309.281 626.851 309.708C625.52 310.395 624.176 311.056 622.839 311.732C617.127 314.62 611.466 317.61 605.749 320.489C593.241 326.789 580.639 332.903 567.978 338.89C542.779 350.805 517.347 362.216 491.905 373.601C466.489 384.974 441.06 396.323 415.841 408.128C412.583 409.653 409.329 411.185 406.079 412.726C405.189 413.149 403.492 414.443 402.806 413.292C401.988 411.919 401.44 410.316 400.787 408.858C398.193 403.067 395.646 397.255 393.249 391.379C388.577 379.928 384.461 368.223 381.635 356.169C376.09 332.519 375.914 307.473 381.422 283.79C386.633 261.389 397.462 240.16 414.865 224.807C430.819 210.732 451.175 202.349 472.092 199.204C493.189 196.032 515.165 198.199 535.218 205.477C555.446 212.819 573.489 225.409 588.41 240.812C603.579 256.471 615.66 275.065 624.313 295.054C626.354 299.77 628.179 304.58 629.817 309.452C630.519 311.539 633.843 310.644 633.134 308.537C626.025 287.393 615.229 267.513 601.228 250.139C587.32 232.88 570.027 218.076 550.128 208.167C530.33 198.309 508.192 193.625 486.095 194.47C464.355 195.301 442.568 201.402 424.28 213.357C404.631 226.203 390.594 245.469 382.655 267.431C374.29 290.572 372.108 316.333 375.321 340.666C378.683 366.123 388.466 389.855 398.942 413.098C399.543 414.431 400.073 415.952 401.409 416.735C402.765 417.53 404.343 417.239 405.716 416.667C408.984 415.307 412.152 413.644 415.357 412.139C421.873 409.081 428.404 406.053 434.945 403.049C447.896 397.102 460.887 391.244 473.891 385.414C500.073 373.673 526.304 362.038 552.344 349.984C565.281 343.995 578.171 337.903 590.981 331.644C602.639 325.948 614.128 319.929 625.731 314.126C627.253 313.365 628.773 312.601 630.27 311.792C631.442 311.159 633.082 310.515 633.196 308.994C633.36 306.786 629.919 306.797 629.755 308.994Z" fill="#FF008C"/>
<path d="M579.765 473.346C568.183 489.641 541.561 523.415 527.628 537.753C513.695 552.09 497.264 564.431 478.418 571.103C463.231 576.48 446.917 578.031 430.808 577.784C372.978 576.895 324.408 551.877 279.062 518.05C272.655 513.27 267.205 515.023 259.319 514.743C256.293 514.636 253.154 514.143 250.671 512.41C248.189 510.676 246.564 507.424 247.508 504.546C244.062 504.044 239.351 502.995 238.375 498.989C237.909 497.076 238.887 494.784 240.761 494.181C237.811 494.013 234.968 492.478 233.208 490.106C232.253 488.818 231.598 487.183 231.941 485.617C232.284 484.05 233.903 482.724 235.455 483.128C230.897 482.054 227.557 477.23 228.155 472.585C228.26 471.776 228.518 470.906 229.199 470.456C229.782 470.071 230.533 470.087 231.231 470.122C236.605 470.389 241.816 471.372 247.099 472.001C252.605 472.656 258.752 471.743 264.302 471.61C261.727 468.195 260.837 463.569 261.962 459.442C262.174 458.667 262.498 457.851 263.187 457.437C263.942 456.984 264.902 457.146 265.757 457.357C271.58 458.79 276.893 461.75 282.127 464.678C297.904 473.504 312.157 480.423 329.131 486.356C338.709 489.704 347.89 494.08 357.261 497.97C368.977 502.831 380.996 506.934 393.13 510.629C402.589 513.509 412.123 516.143 421.72 518.528C423.269 518.913 424.885 519.293 426.447 518.961C428.057 518.618 429.408 517.56 430.693 516.531C455.606 496.589 486.665 459.423 510.077 437.739" fill="white"/>
<path d="M578.282 472.478C565.815 489.996 552.326 506.906 538.358 523.245C522.482 541.815 504.351 559.09 481.263 568.209C467.304 573.723 452.287 575.807 437.349 576.06C423.505 576.295 409.639 575.116 396.038 572.521C369.954 567.543 345.178 557.469 322.128 544.416C310.37 537.757 299.042 530.359 288.054 522.5C283.107 518.961 278.298 514.212 272.075 513.243C266.035 512.302 259.454 514.272 253.627 512.039C250.807 510.958 248.283 508.201 249.169 505.003C249.395 504.188 248.889 503.026 247.967 502.888C245.935 502.583 243.719 502.227 241.96 501.091C240.433 500.104 238.678 496.867 241.22 495.839C243.008 495.116 242.772 492.63 240.763 492.461C238.68 492.285 236.731 491.378 235.272 489.878C234.566 489.151 233.915 488.253 233.675 487.252C233.477 486.428 233.705 484.59 235 484.787C237.13 485.11 238.11 482.054 235.915 481.469C232.794 480.638 230.373 477.968 229.887 474.753C229.788 474.099 229.672 473.195 229.899 472.553C230.281 471.475 231.588 471.853 232.573 471.923C234.858 472.084 237.134 472.361 239.402 472.675C243.416 473.228 247.429 473.953 251.491 473.955C255.77 473.958 260.029 473.453 264.304 473.33C265.499 473.296 266.591 471.853 265.789 470.742C264.43 468.858 263.514 466.739 263.27 464.413C263.15 463.28 263.179 462.109 263.375 460.986C263.45 460.56 263.517 459.799 263.766 459.433C264.336 458.592 265.026 458.939 265.924 459.174C271.184 460.552 275.983 463.217 280.7 465.849C289.705 470.875 298.834 475.674 308.252 479.887C317.845 484.177 327.805 487.419 337.518 491.392C347.977 495.67 358.218 500.416 368.828 504.328C379.281 508.182 389.91 511.551 400.611 514.641C406.135 516.235 411.682 517.746 417.251 519.173C419.663 519.792 422.173 520.66 424.676 520.791C426.957 520.911 428.896 520.037 430.695 518.698C437.45 513.672 443.625 507.722 449.67 501.882C456.32 495.458 462.77 488.829 469.163 482.15C483.061 467.631 496.552 452.636 511.296 438.955C512.922 437.446 510.485 435.018 508.863 436.523C495.607 448.823 483.388 462.215 470.934 475.311C458.312 488.583 445.623 502.008 431.478 513.689C429.885 515.004 428.087 516.899 425.992 517.302C423.461 517.789 420.258 516.394 417.832 515.77C412.264 514.34 406.717 512.825 401.195 511.227C390.171 508.038 379.223 504.551 368.469 500.538C357.773 496.548 347.455 491.685 336.865 487.44C326.862 483.429 316.691 480.041 306.892 475.507C297.175 471.012 287.93 465.719 278.482 460.711C276.172 459.487 273.819 458.351 271.39 457.382C269.229 456.52 266.55 455.322 264.174 455.432C259.315 455.657 259.442 462.874 260.091 466.25C260.523 468.498 261.483 470.626 262.819 472.478L264.304 469.89C258.987 470.043 253.657 470.815 248.335 470.401C242.833 469.973 237.422 468.756 231.904 468.438C229.785 468.316 227.836 468.61 226.889 470.747C226.074 472.585 226.269 474.964 226.846 476.844C228.026 480.689 231.109 483.751 235 484.787L235.915 481.469C231.301 480.769 229.096 485.552 230.809 489.38C232.556 493.282 236.634 495.553 240.763 495.9L240.305 492.522C236.552 494.04 235.51 498.523 237.786 501.794C239.855 504.766 243.678 505.698 247.053 506.204L245.852 504.089C243.955 510.931 250.538 515.432 256.475 516.223C262.419 517.015 268.951 515.182 274.646 517.478C277.798 518.749 280.48 521.242 283.204 523.224C285.985 525.247 288.788 527.241 291.613 529.202C297.373 533.199 303.227 537.061 309.19 540.748C332.283 555.029 357.175 566.702 383.587 573.298C397.071 576.664 410.894 578.699 424.778 579.322C439.945 580.002 455.394 579.213 470.146 575.416C496.1 568.736 517.605 551.846 535.159 532.141C550.16 515.302 564.201 497.466 577.564 479.306C578.806 477.618 580.038 475.922 581.253 474.214C582.539 472.407 579.557 470.687 578.282 472.478Z" fill="#FF008C"/>
<path d="M388.611 405.275C388.727 405.142 388.846 405.013 388.974 404.892C389.025 404.844 389.076 404.797 389.129 404.75C389.156 404.727 389.43 404.507 389.199 404.686C388.976 404.859 389.227 404.67 389.279 404.635C389.351 404.586 389.425 404.539 389.499 404.493C389.633 404.411 389.771 404.335 389.912 404.265C389.949 404.246 390.266 404.113 389.993 404.219C389.724 404.324 390.02 404.21 390.08 404.188C390.244 404.127 390.412 404.074 390.582 404.028C390.734 403.986 390.889 403.951 391.045 403.921C391.125 403.906 391.228 403.907 391.305 403.877C391.181 403.926 390.926 403.921 391.215 403.896C391.549 403.867 391.885 403.866 392.218 403.891C392.288 403.897 392.359 403.911 392.428 403.911C391.982 403.909 392.198 403.875 392.336 403.903C392.509 403.937 392.679 403.971 392.849 404.017C393.001 404.058 393.152 404.105 393.299 404.159C393.334 404.171 393.664 404.298 393.386 404.189C393.119 404.084 393.408 404.205 393.466 404.234C393.622 404.312 393.775 404.399 393.922 404.493C393.981 404.531 394.038 404.572 394.097 404.61C394.412 404.81 393.795 404.361 394.085 404.598C394.78 405.166 395.846 405.329 396.517 404.598C397.095 403.968 397.261 402.773 396.517 402.165C395.029 400.949 393.151 400.29 391.216 400.456C389.316 400.619 387.449 401.379 386.179 402.843C385.59 403.522 385.461 404.617 386.179 405.276C386.825 405.869 387.981 406.001 388.611 405.275Z" fill="#FF008C"/>
<path d="M332.183 431.52C331.116 432.714 330.761 434.391 331.336 435.906C331.624 436.666 332.067 437.314 332.714 437.811C333.086 438.097 333.473 438.28 333.915 438.445C334.041 438.492 334.223 438.541 334.324 438.578C334.659 438.704 334.506 438.628 334.393 438.59C334.321 438.566 334.453 438.807 334.4 438.603C334.406 438.625 334.488 439.119 334.465 438.848C334.491 439.152 334.476 439.47 334.435 439.772C334.475 439.474 334.365 440.114 334.368 440.101C334.337 440.282 334.308 440.463 334.282 440.645C334.214 441.118 334.144 441.594 334.167 442.073C334.217 443.123 334.598 444.018 335.3 444.795C335.493 445.007 335.756 445.17 335.843 445.405C335.81 445.315 335.817 445.384 335.824 445.279C335.812 445.476 335.775 445.45 335.667 445.61C335.148 446.381 335.519 447.516 336.284 447.964C337.131 448.459 338.117 448.119 338.638 447.347C339.201 446.511 339.365 445.44 339.126 444.464C338.899 443.539 338.261 443.084 337.733 442.362C337.638 442.232 337.613 442.113 337.605 441.967C337.583 441.592 337.624 441.371 337.685 441.015C337.812 440.272 337.964 439.515 337.897 438.757C337.817 437.861 337.572 437.014 336.967 436.326C336.422 435.706 335.528 435.334 334.861 435.138C334.926 435.158 334.652 434.977 334.849 435.143C334.794 435.097 334.548 434.763 334.704 435.008C334.647 434.918 334.591 434.825 334.546 434.728C334.684 435.021 334.517 434.565 334.507 434.529C334.422 434.224 334.496 434.607 334.501 434.424C334.505 434.287 334.535 434.072 334.486 434.32C334.497 434.265 334.656 433.84 334.516 434.128C334.552 434.054 334.817 433.728 334.616 433.953C335.235 433.261 335.299 432.203 334.616 431.521C333.986 430.891 332.805 430.825 332.183 431.52Z" fill="#FF008C"/>
<path d="M303.781 470.567C309.68 464.865 315.828 459.427 322.207 454.267C322.93 453.682 322.815 452.443 322.207 451.835C321.492 451.12 320.499 451.248 319.774 451.835C313.396 456.994 307.248 462.433 301.348 468.135C299.754 469.676 302.188 472.107 303.781 470.567Z" fill="#FF008C"/>
<path d="M209.671 399.215C215.529 403.991 221.387 408.767 227.245 413.543C227.964 414.129 228.973 414.247 229.677 413.543C230.283 412.937 230.401 411.7 229.677 411.11C223.819 406.334 217.962 401.559 212.104 396.783C211.384 396.196 210.375 396.079 209.671 396.783C209.066 397.388 208.948 398.625 209.671 399.215Z" fill="#FF008C"/>
<path d="M237.176 419.717C237.546 420.087 237.916 420.457 238.286 420.827C238.442 420.995 238.626 421.113 238.839 421.182C239.044 421.29 239.265 421.34 239.502 421.331C239.739 421.339 239.96 421.29 240.165 421.182C240.378 421.113 240.563 420.995 240.718 420.827L240.987 420.479C241.143 420.21 241.221 419.921 241.222 419.611L241.161 419.153C241.079 418.862 240.932 418.609 240.719 418.394C240.348 418.024 239.978 417.654 239.608 417.284C239.452 417.116 239.268 416.998 239.055 416.928C238.85 416.821 238.629 416.771 238.392 416.78C238.155 416.771 237.934 416.821 237.729 416.928C237.516 416.998 237.331 417.116 237.176 417.284L236.907 417.632C236.751 417.9 236.673 418.19 236.672 418.5L236.733 418.958C236.815 419.249 236.962 419.502 237.176 419.717Z" fill="#FF008C"/>
<path d="M258.297 434.401C262.073 437.363 265.752 440.445 269.328 443.645C270.02 444.264 271.078 444.327 271.761 443.645C272.39 443.015 272.456 441.834 271.761 441.212C268.184 438.013 264.505 434.93 260.73 431.969C260 431.396 259.01 431.256 258.297 431.969C257.701 432.564 257.562 433.825 258.297 434.401Z" fill="#FF008C"/>
<path d="M262.637 418.109C264.788 417.23 266.743 416.014 268.354 414.323C269.151 413.487 269.823 412.552 270.461 411.593C270.978 410.815 271.504 409.88 272.327 409.384C273.204 408.856 274.443 408.995 275.428 408.858C276.711 408.681 277.956 408.359 279.168 407.902C281.617 406.979 283.882 405.683 286.127 404.352C288.03 403.224 286.301 400.249 284.391 401.382C282.297 402.623 280.177 403.91 277.873 404.724C276.749 405.121 275.581 405.432 274.391 405.539C273.168 405.648 271.988 405.687 270.871 406.259C268.97 407.233 268.039 409.198 266.822 410.837C265.533 412.57 263.722 413.974 261.723 414.792C260.857 415.146 260.264 415.932 260.522 416.908C260.737 417.724 261.779 418.46 262.637 418.109Z" fill="white"/>
<path d="M278.153 425.426C282.851 421.783 287.323 417.859 291.546 413.674C293.121 412.114 290.688 409.681 289.113 411.242C284.891 415.426 280.418 419.351 275.72 422.993C274.985 423.563 275.121 424.827 275.72 425.426C276.445 426.151 277.416 425.997 278.153 425.426Z" fill="white"/>
<path d="M289.689 434.014C292.28 431.671 294.871 429.328 297.461 426.985C298.13 426.38 298.122 425.16 297.461 424.553C296.746 423.896 295.743 423.907 295.029 424.553C292.438 426.896 289.847 429.239 287.257 431.581C286.587 432.187 286.596 433.407 287.257 434.014C287.972 434.67 288.975 434.66 289.689 434.014Z" fill="white"/>
<path d="M293.014 450.297C296.811 446.814 300.607 443.331 304.403 439.847C305.088 439.219 305.04 438.052 304.403 437.415C303.721 436.733 302.657 436.785 301.971 437.415C298.174 440.898 294.378 444.382 290.582 447.865C289.897 448.493 289.945 449.66 290.582 450.297C291.263 450.979 292.328 450.927 293.014 450.297Z" fill="white"/>
<path d="M311.133 431.782C311.776 431.066 312.42 430.35 313.063 429.634C313.368 429.295 313.567 428.883 313.567 428.418C313.576 428.181 313.527 427.96 313.419 427.755C313.35 427.542 313.231 427.357 313.063 427.201C312.736 426.9 312.305 426.677 311.847 426.698C311.405 426.717 310.936 426.862 310.631 427.201C309.987 427.917 309.344 428.633 308.7 429.349C308.395 429.688 308.196 430.1 308.196 430.565C308.187 430.802 308.237 431.023 308.344 431.228C308.414 431.441 308.532 431.626 308.7 431.782C309.028 432.083 309.458 432.306 309.916 432.285C310.358 432.266 310.827 432.121 311.133 431.782Z" fill="white"/>
<path d="M423.923 485.046C423.29 493.88 422.716 502.779 421.441 511.548C421.306 512.474 421.671 513.385 422.642 513.664C423.449 513.896 424.625 513.38 424.758 512.463C426.078 503.385 426.708 494.19 427.363 485.046C427.521 482.837 424.08 482.846 423.923 485.046Z" fill="#FF008C"/>
<path d="M424.619 698.162C445.686 708.56 468.567 715.025 491.958 717.216C498.59 717.837 505.251 718.098 511.911 718.018C514.123 717.992 514.129 714.552 511.911 714.578C488.883 714.854 465.895 710.877 444.287 702.91C438.176 700.657 432.195 698.074 426.355 695.192C424.376 694.215 422.631 697.181 424.619 698.162Z" fill="#FF008C"/>
<path d="M569.076 642.526C557.172 657.309 543.785 670.884 529.147 682.968C524.989 686.4 520.729 689.706 516.377 692.888C514.607 694.181 516.322 697.168 518.113 695.858C533.614 684.524 547.976 671.661 560.868 657.425C564.536 653.374 568.081 649.215 571.509 644.959C572.885 643.25 570.465 640.801 569.076 642.526Z" fill="#FF008C"/>
<path d="M570.847 639.464C578.514 643.94 586.585 647.715 594.937 650.727C599.129 652.238 603.404 653.631 607.746 654.642C612.15 655.668 616.649 656.13 621.109 655.18C623.273 654.719 622.358 651.402 620.195 651.863C615.887 652.781 611.498 652.069 607.29 650.988C603.275 649.956 599.314 648.672 595.42 647.253C587.497 644.367 579.864 640.744 572.583 636.493C570.667 635.375 568.934 638.347 570.847 639.464Z" fill="#FF008C"/>
<path d="M716.956 560.287C721.515 564.634 726.074 568.981 730.633 573.327C732.235 574.855 734.672 572.426 733.066 570.895C728.507 566.548 723.947 562.201 719.388 557.855C717.786 556.327 715.35 558.756 716.956 560.287Z" fill="#FF008C"/>
<path d="M472.572 695.335C478.144 678.865 483.776 662.408 490.048 646.188C496.195 630.29 502.78 614.33 511.014 599.381C514.825 592.463 519.295 585.966 525.107 580.571C530.454 575.607 536.639 571.645 543.108 568.311C556.158 561.585 570.297 557.488 583.945 552.211C597.37 547.02 610.798 540.618 621.022 530.226C622.266 528.961 623.449 527.64 624.579 526.272C625.979 524.578 623.558 522.131 622.147 523.84C612.834 535.112 599.746 542.158 586.39 547.565C572.67 553.121 558.377 557.194 544.981 563.555C538.353 566.703 532.005 570.425 526.277 575.028C520.206 579.907 515.205 585.842 511.087 592.439C506.645 599.555 503.049 607.209 499.541 614.817C495.893 622.731 492.487 630.756 489.255 638.849C482.747 655.145 476.964 671.72 471.319 688.331C470.63 690.361 469.942 692.391 469.255 694.421C468.544 696.523 471.866 697.425 472.572 695.335Z" fill="#FF008C"/>
<path d="M611.57 508.252C614.009 513.711 616.525 519.233 620.521 523.758C624.172 527.893 628.984 530.873 634.503 531.573C635.426 531.691 636.223 530.699 636.223 529.853C636.223 528.827 635.429 528.251 634.503 528.133C623.69 526.762 618.443 515.25 614.541 506.516C614.159 505.661 612.931 505.476 612.187 505.899C611.309 506.399 611.194 507.409 611.57 508.252Z" fill="#FF008C"/>
<path d="M573.153 338.039C549.766 351.056 523.764 359.962 499.374 370.909C491.853 374.285 484.353 377.722 476.985 381.423C471.579 384.138 466.089 386.583 460.82 389.528C473.458 389.478 485.568 384.825 497.345 380.239C504.971 377.269 512.597 374.299 520.223 371.329C533.784 366.047 547.432 360.74 561.708 357.908C569.077 356.446 577.574 356.589 584.276 353.034C591.123 349.403 598.933 348.16 606.517 346.662C600.552 344.942 594.507 343.497 588.408 342.338C583.134 341.336 578.581 339.174 573.322 338.091" fill="#FF008C"/>
<path d="M572.287 336.554C558.406 344.261 543.78 350.481 529.118 356.524C514.24 362.655 499.392 368.812 484.841 375.693C480.695 377.653 476.606 379.726 472.481 381.728C468.273 383.769 464.044 385.769 459.954 388.042C458.458 388.874 459.132 391.262 460.822 391.248C471.017 391.162 480.855 388.256 490.343 384.75C500.13 381.134 509.814 377.219 519.537 373.433C529.06 369.724 538.587 365.98 548.383 363.04C553.236 361.583 558.168 360.27 563.16 359.38C567.617 358.585 572.15 358.301 576.592 357.411C579.028 356.923 581.409 356.235 583.683 355.226C586.091 354.159 588.365 352.932 590.872 352.083C596.105 350.312 601.57 349.385 606.976 348.321C608.703 347.981 608.522 345.448 606.976 345.004C601.314 343.378 595.587 341.987 589.805 340.86C584.341 339.795 579.216 337.587 573.781 336.432C571.621 335.974 570.698 339.289 572.866 339.75C578.302 340.904 583.426 343.112 588.89 344.177C594.672 345.305 600.4 346.695 606.061 348.321V345.004C601.38 345.925 596.663 346.743 592.08 348.095C589.733 348.787 587.431 349.631 585.208 350.659C583.171 351.601 581.262 352.623 579.096 353.261C574.813 354.525 570.34 354.909 565.932 355.502C561.073 356.156 556.295 357.254 551.568 358.546C541.793 361.216 532.301 364.802 522.864 368.465C513.109 372.252 503.374 376.092 493.609 379.852C483.092 383.9 472.219 387.711 460.822 387.808L461.69 391.013C468.85 387.033 476.351 383.572 483.731 380.021C491.123 376.463 498.598 373.062 506.126 369.803C520.705 363.49 535.544 357.794 550.061 351.336C558.2 347.715 566.233 343.849 574.023 339.524C575.959 338.449 574.226 335.477 572.287 336.554Z" fill="#FF008C"/>
<path d="M449.202 327.377C448.091 328.979 446.408 330.086 444.756 331.062C442.925 332.145 441.041 333.197 439.113 334.095C437.065 335.05 434.843 335.8 432.596 336.101C431.901 336.195 430.769 336.413 430.149 335.975C429.513 335.525 429.611 334.471 429.711 333.795C430.162 330.742 432.64 328.344 435.062 326.67C437.749 324.815 440.767 323.431 443.886 322.48C445.479 321.994 447.938 321.264 449.299 322.649C450.536 323.907 450.031 326.058 449.202 327.377C448.021 329.257 450.996 330.986 452.172 329.114C453.398 327.163 453.863 324.608 453.075 322.403C452.179 319.898 449.879 318.531 447.28 318.448C445.057 318.377 442.815 319.142 440.761 319.919C438.717 320.692 436.717 321.608 434.84 322.729C431.238 324.88 427.608 327.997 426.531 332.229C425.919 334.637 426.108 337.628 428.498 338.997C430.846 340.342 434.264 339.428 436.665 338.701C439.767 337.762 442.618 336.216 445.432 334.641C448.003 333.202 450.47 331.569 452.172 329.114C453.436 327.29 450.456 325.568 449.202 327.377Z" fill="#FF008C"/>
<path d="M438.411 328.122C444.201 332.407 435.955 337.451 430.791 336.16C429.996 335.962 429.193 335.619 428.766 335.001C428.377 334.438 428.363 333.745 428.36 333.088C428.357 332.363 428.356 331.624 428.612 330.935C429.012 329.86 429.986 329.029 430.975 328.298C431.66 327.791 432.383 327.302 433.223 327.022C434.767 326.508 437.182 327.213 438.411 328.122Z" fill="#FF008C"/>
<path d="M437.547 329.606C437.239 329.374 437.604 329.657 437.646 329.693C437.747 329.78 437.845 329.869 437.941 329.962C438.031 330.049 438.118 330.139 438.202 330.232C438.224 330.256 438.497 330.532 438.293 330.329C438.104 330.139 438.328 330.382 438.357 330.426C438.415 330.514 438.47 330.604 438.521 330.696C438.556 330.76 438.653 330.893 438.655 330.967C438.548 330.705 438.525 330.658 438.587 330.826C438.602 330.87 438.616 330.915 438.628 330.96C438.649 331.034 438.661 331.11 438.683 331.183C438.777 331.502 438.687 330.754 438.669 331.081C438.664 331.165 438.67 331.26 438.674 331.344C438.688 331.682 438.552 331.346 438.703 331.234C438.65 331.273 438.625 331.588 438.603 331.66C438.597 331.678 438.519 331.913 438.513 331.911C438.489 331.903 438.715 331.493 438.511 331.869C438.428 332.021 438.326 332.158 438.236 332.305C438.055 332.599 438.514 332.017 438.265 332.263C438.195 332.332 438.133 332.414 438.065 332.486C437.948 332.61 437.824 332.729 437.696 332.843C437.617 332.914 437.535 332.98 437.455 333.049C437.232 333.239 437.766 332.829 437.37 333.106C437.03 333.344 436.672 333.555 436.303 333.744C436.157 333.818 435.933 333.981 435.775 333.994C436.129 333.966 435.92 333.934 435.748 334.001C435.599 334.058 435.449 334.112 435.298 334.163C434.881 334.303 434.455 334.418 434.023 334.506C433.872 334.537 433.585 334.636 433.432 334.609C433.799 334.676 433.607 334.586 433.417 334.604C433.26 334.618 433.103 334.629 432.945 334.636C432.751 334.645 432.556 334.647 432.362 334.642C432.283 334.641 431.705 334.556 431.675 334.596C431.723 334.532 432.082 334.67 431.742 334.603C431.651 334.584 431.559 334.57 431.468 334.551C431.146 334.482 430.82 334.395 430.516 334.268C430.933 334.443 430.001 333.897 430.371 334.198L430.264 334.103C430.132 333.96 430.129 333.97 430.255 334.132L430.166 333.989C430.218 334.151 430.213 334.136 430.151 333.943C430.14 333.897 430.079 333.391 430.104 333.75C430.097 333.639 430.092 333.529 430.088 333.418C430.076 333.004 430.096 332.592 430.1 332.178C430.104 331.679 430.015 332.402 430.127 331.917C430.155 331.798 430.186 331.683 430.216 331.565C430.336 331.095 430.066 331.732 430.296 331.376C430.381 331.243 430.456 331.105 430.545 330.974C430.349 331.259 430.659 330.847 430.681 330.822C430.755 330.741 430.831 330.663 430.908 330.586C431.185 330.311 431.484 330.056 431.793 329.819C431.533 330.018 431.98 329.684 431.985 329.681C432.123 329.58 432.263 329.481 432.405 329.384C432.74 329.157 433.085 328.953 433.447 328.772C433.927 328.531 433.302 328.809 433.601 328.709C433.752 328.659 433.902 328.623 434.055 328.583C434.462 328.475 433.698 328.572 434.131 328.577C434.319 328.579 434.506 328.565 434.695 328.575C434.793 328.58 434.889 328.59 434.985 328.596C435.186 328.619 435.18 328.617 434.968 328.593C435.067 328.609 435.165 328.627 435.262 328.648C435.604 328.718 435.942 328.812 436.271 328.927C436.364 328.959 436.455 328.995 436.547 329.028C436.165 328.892 436.71 329.106 436.783 329.142C437.05 329.278 437.304 329.431 437.547 329.606C438.28 330.133 439.494 329.758 439.9 328.989C440.37 328.1 440.066 327.198 439.283 326.636C438.046 325.747 436.486 325.301 434.985 325.156C433.32 324.996 431.798 325.614 430.457 326.561C428.976 327.608 427.532 328.789 426.929 330.564C426.631 331.439 426.629 332.42 426.647 333.335C426.665 334.264 426.815 335.212 427.369 335.981C429.096 338.381 432.823 338.366 435.407 337.717C437.678 337.146 439.96 335.906 441.288 333.924C442.018 332.834 442.267 331.503 441.99 330.225C441.658 328.687 440.489 327.545 439.283 326.636C438.562 326.092 437.329 326.497 436.93 327.253C436.452 328.158 436.776 329.026 437.547 329.606Z" fill="#FF008C"/>
<path d="M402.419 347.46C401.276 349.031 399.543 350.096 397.878 351.03C396.024 352.07 394.118 353.089 392.168 353.935C390.115 354.827 387.889 355.529 385.657 355.77C384.949 355.846 383.777 356.057 383.167 355.57C382.564 355.088 382.698 354.035 382.819 353.367C383.369 350.319 385.878 348.011 388.352 346.383C391.082 344.587 394.13 343.282 397.272 342.401C398.872 341.953 401.365 341.283 402.669 342.729C403.853 344.042 403.28 346.155 402.419 347.46C401.196 349.313 404.174 351.038 405.389 349.196C406.655 347.278 407.162 344.714 406.413 342.503C405.556 339.976 403.273 338.597 400.68 338.456C398.465 338.335 396.196 339.061 394.13 339.79C392.072 340.516 390.051 341.398 388.152 342.475C384.494 344.55 380.827 347.594 379.654 351.804C378.988 354.197 379.142 357.201 381.512 358.598C383.844 359.971 387.267 359.129 389.688 358.455C392.808 357.587 395.694 356.095 398.541 354.584C401.151 353.199 403.629 351.618 405.389 349.196C405.94 348.439 405.512 347.286 404.772 346.843C403.908 346.325 402.962 346.712 402.419 347.46Z" fill="#FF008C"/>
<path d="M391.632 347.927C397.324 352.342 388.967 357.199 383.834 355.793C383.043 355.576 382.248 355.215 381.835 354.588C381.459 354.017 381.46 353.323 381.472 352.666C381.485 351.942 381.501 351.203 381.773 350.519C382.196 349.454 383.189 348.645 384.194 347.936C384.89 347.445 385.625 346.972 386.47 346.711C388.025 346.232 390.424 346.991 391.632 347.927Z" fill="#FF008C"/>
<path d="M390.415 349.143C390.638 349.32 390.855 349.502 391.059 349.701C391.169 349.809 391.447 350.013 391.487 350.167L391.363 350.005C391.408 350.066 391.452 350.128 391.494 350.191C391.554 350.282 391.61 350.375 391.662 350.47C391.706 350.549 391.742 350.68 391.8 350.747C391.681 350.609 391.694 350.415 391.762 350.704C391.784 350.793 391.802 350.892 391.83 350.978C391.935 351.296 391.826 350.552 391.816 350.882C391.812 350.986 391.779 351.231 391.807 351.326C391.72 351.036 391.889 350.957 391.811 351.218C391.786 351.303 391.763 351.39 391.74 351.475C391.725 351.531 391.608 351.811 391.731 351.522C391.86 351.219 391.689 351.591 391.659 351.647C391.593 351.767 391.472 352.056 391.35 352.124C391.354 352.122 391.643 351.794 391.436 352.006C391.366 352.078 391.304 352.157 391.235 352.23C391.092 352.38 390.94 352.522 390.782 352.657C390.757 352.679 390.619 352.777 390.618 352.793C390.824 352.636 390.854 352.612 390.707 352.722C390.647 352.765 390.587 352.807 390.527 352.849C390.181 353.086 389.817 353.295 389.441 353.481C389.336 353.533 389.228 353.581 389.122 353.631C388.84 353.764 389.176 353.619 389.204 353.598C389.004 353.746 388.647 353.811 388.411 353.886C387.986 354.021 387.552 354.131 387.113 354.212C387.028 354.228 386.835 354.295 386.753 354.273C386.778 354.279 387.177 354.227 386.849 354.259C386.569 354.285 386.291 354.31 386.01 354.317C385.812 354.322 385.614 354.32 385.417 354.312C385.3 354.307 385.184 354.299 385.067 354.289C384.648 354.252 385.061 354.256 385.065 354.296C385.064 354.284 384.534 354.195 384.508 354.189C384.381 354.159 384.256 354.126 384.132 354.089C384.064 354.068 383.49 353.828 383.775 353.97C383.679 353.922 383.587 353.867 383.491 353.819C383.039 353.595 383.783 353.914 383.341 353.717L383.235 353.609C383.349 353.768 383.349 353.756 383.233 353.575C383.282 353.906 383.199 353.392 383.193 353.364C383.21 353.442 383.207 353.673 383.197 353.329C383.192 353.163 383.188 352.998 383.189 352.831C383.192 352.473 383.204 352.115 383.228 351.758C383.262 351.261 383.131 351.976 383.271 351.498C383.273 351.492 383.445 350.927 383.319 351.244C383.413 351.005 383.564 350.773 383.72 350.57C383.505 350.849 383.849 350.445 383.867 350.427C383.98 350.308 384.099 350.194 384.221 350.083C384.344 349.971 384.472 349.864 384.601 349.758C385.019 349.416 384.348 349.931 384.788 349.617C385.389 349.188 386.002 348.741 386.684 348.447C386.392 348.572 386.926 348.37 386.927 348.37C386.975 348.356 387.468 348.246 387.203 348.293C386.92 348.344 387.354 348.288 387.377 348.287C387.565 348.279 387.754 348.284 387.941 348.297C388.014 348.303 388.473 348.387 388.066 348.306C388.212 348.335 388.359 348.36 388.505 348.393C388.847 348.471 389.176 348.581 389.507 348.695C389.816 348.801 389.566 348.714 389.503 348.686C389.675 348.761 389.844 348.843 390.01 348.931C390.273 349.072 390.524 349.232 390.763 349.412C391.485 349.955 392.717 349.551 393.117 348.795C393.594 347.891 393.27 347.022 392.499 346.442C391.298 345.537 389.778 345.077 388.304 344.895C386.645 344.69 385.117 345.249 383.748 346.16C382.397 347.059 380.958 348.122 380.287 349.651C379.865 350.613 379.768 351.624 379.752 352.666C379.737 353.598 379.818 354.564 380.306 355.383C381.221 356.921 383.052 357.48 384.722 357.691C385.92 357.842 387.149 357.723 388.326 357.469C390.627 356.972 392.912 355.786 394.321 353.86C395.105 352.788 395.404 351.456 395.164 350.154C394.906 348.76 393.933 347.568 392.848 346.711C392.143 346.154 391.094 345.972 390.415 346.711C389.845 347.331 389.661 348.548 390.415 349.143Z" fill="#FF008C"/>
<path d="M320.384 318.048C322.845 318.871 325.306 319.693 327.767 320.516C328.621 320.801 329.684 320.187 329.883 319.314C330.1 318.364 329.596 317.504 328.682 317.198C326.221 316.376 323.76 315.553 321.299 314.731C320.445 314.445 319.381 315.06 319.183 315.932C318.966 316.882 319.47 317.742 320.384 318.048Z" fill="#FF008C"/>
<path d="M324.27 362.299C328 360.705 331.548 358.717 334.855 356.366C335.586 355.846 336.006 354.841 335.472 354.013C335.004 353.287 333.903 352.838 333.118 353.396C329.812 355.746 326.264 357.735 322.534 359.329C321.703 359.684 321.457 360.969 321.916 361.682C322.473 362.545 323.381 362.679 324.27 362.299Z" fill="#FF008C"/>
<path d="M327.631 281.87C329.272 284.058 330.913 286.246 332.555 288.434C332.834 288.806 333.116 289.096 333.583 289.224C333.994 289.338 334.543 289.286 334.908 289.051C335.618 288.593 336.103 287.467 335.525 286.698C333.884 284.51 332.242 282.322 330.601 280.133C330.322 279.761 330.04 279.471 329.573 279.343C329.161 279.23 328.613 279.281 328.248 279.516C327.538 279.974 327.053 281.1 327.631 281.87Z" fill="#FF008C"/>
<path d="M233.796 769.953C230.143 766.218 224.847 760.605 228.069 755.001C231.631 748.802 238.539 755.817 241.184 759.108C241.72 759.774 242.828 759.717 243.443 759.243C244.161 758.688 244.249 757.815 243.886 757.024C240.535 749.723 243.105 740.731 248.577 735.185C251.347 732.377 255.025 730.307 258.997 729.918C261.592 729.663 263.958 730.236 265.602 732.37C267.104 734.32 268.064 736.793 269.041 739.033C271.369 744.368 273.565 750.962 270.588 756.477C269.537 758.424 272.475 760.151 273.558 758.214C276.718 752.564 283.965 747.099 290.74 749.801C295.643 751.757 299.051 758.401 295.742 763.065C294.571 764.716 297.066 766.421 298.444 765.15C301.47 762.357 306.684 762.084 309.84 764.846C312.963 767.579 313.585 772.461 311.441 775.957C310.281 777.85 313.255 779.58 314.411 777.694C317.385 772.845 316.458 765.876 312.016 762.194C307.406 758.375 300.379 758.686 296.011 762.717L298.713 764.801C302.126 759.99 300.296 753.386 296.345 749.49C291.558 744.77 284.391 744.869 278.782 748.079C275.345 750.045 272.515 753.032 270.588 756.477L273.558 758.214C276.66 752.468 275.43 745.915 273.176 740.102C272.057 737.215 270.833 734.209 269.2 731.569C267.657 729.075 265.456 727.16 262.505 726.622C257.356 725.685 251.951 727.893 247.992 731.083C244.266 734.084 241.536 738.301 240.085 742.842C238.408 748.086 238.613 753.745 240.915 758.76L243.617 756.676C241.23 753.706 238.271 750.592 234.493 749.501C231.041 748.503 227.46 749.772 225.435 752.73C223.573 755.451 223.242 759.183 224.237 762.282C225.526 766.301 228.477 769.433 231.363 772.386C232.914 773.971 235.345 771.538 233.796 769.953Z" fill="#FF008C"/>
<path d="M401.739 331.563C405.34 340.342 409.023 349.087 412.788 357.797C413.159 358.657 414.404 358.834 415.141 358.414C416.028 357.91 416.125 356.909 415.758 356.061C412.111 347.624 408.544 339.153 405.056 330.649C404.701 329.783 403.916 329.19 402.94 329.447C402.124 329.662 401.387 330.705 401.739 331.563Z" fill="#FF008C"/>
<path d="M424.075 363.067C423.615 364.417 424.621 365.585 425.811 366.043C426.549 366.327 427.444 366.339 428.227 366.262C430.063 366.082 431.734 365.413 433.193 364.286C436.016 362.105 437.35 358.33 436.907 354.833C436.794 353.944 436.197 353.068 435.187 353.113C434.352 353.15 433.346 353.877 433.467 354.833C433.548 355.474 433.574 356.119 433.531 356.764C433.518 356.944 433.503 357.124 433.479 357.303C433.52 356.992 433.466 357.344 433.444 357.458C433.386 357.761 433.313 358.062 433.225 358.358C433.181 358.506 433.133 358.653 433.082 358.799C433.071 358.829 432.887 359.3 433.03 358.961C432.91 359.245 432.77 359.52 432.618 359.787C432.465 360.055 432.296 360.312 432.117 360.563C432.315 360.285 432.055 360.637 432.006 360.694C431.893 360.825 431.776 360.952 431.654 361.076C431.55 361.181 431.443 361.284 431.332 361.383C431.295 361.417 430.955 361.711 431.108 361.583C431.26 361.457 430.906 361.728 430.863 361.758C430.72 361.856 430.574 361.949 430.425 362.038C430.169 362.189 429.905 362.324 429.634 362.447C429.909 362.321 429.607 362.454 429.495 362.494C429.355 362.543 429.214 362.589 429.072 362.63C428.788 362.713 428.499 362.77 428.209 362.826C428.603 362.75 428.174 362.827 428.081 362.834C427.934 362.846 427.786 362.852 427.639 362.854C427.491 362.855 427.343 362.852 427.196 362.844C427.097 362.839 426.999 362.831 426.901 362.821L427.09 362.845C427.007 362.828 426.925 362.804 426.845 362.775C427.036 362.859 427.076 362.87 426.967 362.808C426.857 362.739 426.894 362.767 427.078 362.892C427.356 363.204 427.461 363.567 427.392 363.982C427.682 363.129 427.059 362.064 426.191 361.866C425.236 361.648 424.386 362.155 424.075 363.067Z" fill="#FF008C"/>
<path d="M433.104 355.394H436.591C437.032 355.394 437.495 355.202 437.807 354.89C438.105 354.592 438.33 354.103 438.311 353.674C438.269 352.742 437.555 351.954 436.591 351.954H433.104C432.663 351.954 432.2 352.146 431.888 352.458C431.589 352.756 431.365 353.246 431.384 353.674C431.426 354.606 432.14 355.394 433.104 355.394Z" fill="#FF008C"/>
<path d="M384.923 330.858C384.999 330.593 385.082 330.33 385.18 330.072C385.197 330.026 385.35 329.673 385.248 329.894C385.146 330.117 385.311 329.767 385.332 329.724C385.551 329.27 385.806 328.833 386.092 328.418C386.17 328.305 386.253 328.195 386.334 328.083C386.096 328.412 386.37 328.045 386.407 328C386.555 327.824 386.709 327.653 386.868 327.487C387.059 327.288 387.258 327.097 387.464 326.913C387.55 326.836 387.637 326.761 387.725 326.688C387.778 326.643 387.831 326.599 387.885 326.556C387.736 326.669 387.711 326.688 387.81 326.614C388.221 326.316 388.639 326.036 389.085 325.791C389.307 325.67 389.534 325.56 389.762 325.451C390.092 325.293 389.485 325.547 389.859 325.409C389.966 325.369 390.073 325.327 390.181 325.288C390.656 325.12 391.144 324.987 391.639 324.893C391.752 324.872 391.866 324.856 391.978 324.835C391.546 324.917 391.991 324.837 392.067 324.83C392.342 324.805 392.618 324.795 392.894 324.793C393.793 324.786 394.656 324.006 394.614 323.073C394.572 322.146 393.858 321.345 392.894 321.353C387.765 321.39 383.009 325.011 381.606 329.944C381.36 330.809 381.907 331.855 382.807 332.06C383.723 332.268 384.66 331.785 384.923 330.858Z" fill="#FF008C"/>
<path d="M433.317 300.688C427.24 298.892 420.514 301.352 416.842 306.452C416.299 307.206 416.711 308.368 417.459 308.805C418.326 309.312 419.268 308.944 419.812 308.188C422.6 304.317 427.932 302.684 432.403 304.005C434.53 304.634 435.439 301.315 433.317 300.688Z" fill="#FF008C"/>
<path d="M529.168 201.654C486.383 188.723 435.56 198.216 405.698 231.472C387.663 251.557 378.807 277.932 376.398 304.562C383.766 300.226 391.133 295.889 398.501 291.552C401.433 289.826 404.389 288.082 406.895 285.78C415.756 277.644 417.453 264.21 424.854 254.726C423.56 264.568 423.524 274.575 424.745 284.427C433.572 282.82 442.314 280.752 450.926 278.235C456.586 269.302 462.245 260.369 467.905 251.436C466.44 275.93 470.832 300.756 480.612 323.261C485.903 321.867 491.195 320.473 496.486 319.079C496.287 312.702 496.115 306.149 498.257 300.139C500.4 294.129 505.417 288.701 511.761 288.014C518.72 287.262 525.459 292.809 527.083 299.619C528.706 306.428 525.777 313.827 520.655 318.599C530.728 328.655 540.801 338.712 550.873 348.769C575.327 337.457 599.6 325.795 623.448 313.351C624.02 313.053 631.601 309.346 631.48 308.994C615.419 261.063 578.438 216.544 529.168 201.654Z" fill="#FF008C"/>
<path d="M529.625 199.995C516.564 196.069 502.873 194.188 489.237 194.387C475.724 194.585 462.177 196.799 449.386 201.191C436.665 205.558 424.707 212.062 414.38 220.705C403.188 230.072 394.261 241.965 387.88 255.063C381.176 268.825 377.195 283.735 375.29 298.892C375.053 300.779 374.852 302.669 374.678 304.563C374.556 305.894 376.22 306.664 377.266 306.048C382.106 303.199 386.945 300.35 391.784 297.502C396.327 294.828 401.11 292.354 405.363 289.227C412.499 283.982 415.918 276.152 419.372 268.279C421.315 263.851 423.372 259.443 426.339 255.594L423.134 254.726C421.859 264.585 421.823 274.559 423.025 284.427C423.168 285.599 424.004 286.305 425.202 286.086C430.106 285.188 434.983 284.158 439.827 282.983C442.249 282.395 444.663 281.772 447.066 281.115C448.268 280.786 449.468 280.449 450.665 280.103C452.061 279.699 452.464 279.02 453.219 277.827C458.61 269.32 464 260.812 469.39 252.304L466.185 251.436C465.058 270.778 467.502 290.329 473.362 308.798C475.015 314.007 476.957 319.115 479.127 324.129C479.426 324.821 480.398 325.096 481.069 324.92C486.361 323.526 491.652 322.132 496.943 320.738C497.654 320.551 498.229 319.824 498.206 319.079C497.905 309.366 497.758 296.677 507.507 291.178C515.841 286.477 525.406 293.894 525.794 302.732C526.039 308.297 523.419 313.606 519.439 317.383C518.765 318.022 518.794 319.171 519.439 319.815C529.511 329.872 539.584 339.929 549.657 349.985C550.24 350.567 551.038 350.58 551.742 350.254C570.145 341.739 588.458 333.024 606.577 323.918C613.665 320.355 620.706 316.703 627.773 313.099C628.873 312.537 629.975 311.974 631.05 311.366C631.839 310.92 632.876 310.426 633.137 309.477C633.355 308.685 632.909 307.85 632.657 307.118C632.331 306.171 631.998 305.227 631.657 304.286C630.993 302.457 630.301 300.637 629.581 298.829C623.834 284.404 616.375 270.665 607.286 258.071C598.168 245.436 587.471 233.908 575.238 224.233C563.131 214.658 549.625 206.911 535.049 201.77C533.255 201.138 531.446 200.548 529.625 199.995C527.502 199.35 526.595 202.669 528.711 203.312C543.077 207.678 556.526 214.643 568.635 223.497C580.8 232.392 591.577 243.2 600.801 255.1C610.024 267.001 617.729 280.103 623.802 293.874C625.292 297.253 626.673 300.678 627.952 304.141C628.277 305.023 628.596 305.906 628.908 306.793C629.054 307.205 629.198 307.619 629.34 308.033C629.415 308.251 629.476 308.546 629.582 308.742L629.703 309.097L630.206 307.876C630.199 307.902 630.489 307.704 630.139 307.908C630.002 307.988 629.867 308.075 629.73 308.157C629.236 308.45 628.728 308.722 628.221 308.993C622.188 312.214 616.052 315.267 609.956 318.363C592.396 327.28 574.643 335.813 556.793 344.132C554.532 345.186 552.269 346.236 550.006 347.284L552.09 347.553C542.017 337.496 531.944 327.44 521.871 317.383V319.815C529.975 312.127 532.468 298.309 523.337 290.341C519.363 286.873 513.949 285.264 508.818 286.881C503.7 288.494 499.661 292.756 497.469 297.558C494.396 304.289 494.542 311.842 494.766 319.079L496.029 317.42C490.738 318.814 485.446 320.208 480.155 321.602L482.098 322.393C474.585 305.033 470.302 286.265 469.493 267.369C469.266 262.059 469.316 256.742 469.625 251.436C469.729 249.651 467.282 249.207 466.42 250.568C460.76 259.501 455.101 268.434 449.441 277.367L450.469 276.577C441.853 279.086 433.116 281.152 424.288 282.769L426.466 284.428C425.263 274.559 425.3 264.586 426.574 254.726C426.669 253.991 425.972 253.249 425.312 253.067C424.513 252.848 423.841 253.246 423.369 253.858C418.268 260.476 415.953 268.615 412.067 275.911C410.119 279.568 407.742 282.946 404.505 285.578C400.59 288.761 395.899 291.088 391.565 293.639C386.221 296.785 380.876 299.931 375.531 303.078L378.119 304.563C379.469 289.844 382.769 275.158 388.659 261.568C394.4 248.321 402.568 236.142 413.194 226.32C422.715 217.521 434.031 210.704 446.11 206.037C458.431 201.275 471.53 198.613 484.716 197.971C497.926 197.327 511.219 198.653 524.02 201.993C525.592 202.403 527.155 202.845 528.711 203.312C530.836 203.951 531.743 200.632 529.625 199.995Z" fill="#FF008C"/>
</svg>
