<svg width="1000" height="1000" viewBox="0 0 1000 1000" fill="none" xmlns="http://www.w3.org/2000/svg">
<path d="M397.621 252.863C395.621 252.838 394.376 250.278 395.112 248.419C395.848 246.56 397.892 245.51 399.877 245.269C397.963 244.673 398.214 241.532 399.932 240.498C401.65 239.464 403.852 239.929 405.753 240.566C405.233 238.95 404.707 237.29 404.797 235.595C404.887 233.9 405.729 232.137 407.275 231.437C408.773 230.76 410.59 231.233 411.915 232.206C413.239 233.179 414.174 234.58 415.081 235.951C413.854 233.069 417.293 229.733 420.338 230.467C423.383 231.202 425.1 234.819 424.487 237.891C424.576 234.303 428.9 231.673 432.252 232.956C435.604 234.238 437.16 238.68 435.649 241.935C436.518 239.024 439.994 237.075 442.835 238.151C445.675 239.227 446.9 243.361 444.882 245.632C446.556 244.482 448.458 243.278 450.462 243.609C452.465 243.94 453.918 246.782 452.341 248.061C454.901 246.976 458.381 246.111 460.035 248.346C460.493 248.965 460.708 249.739 460.761 250.507C460.975 253.643 458.555 256.478 455.686 257.761C452.817 259.044 449.573 259.11 446.43 259.155C436.662 259.294 426.894 259.433 417.126 259.572" fill="#FF008C"/>
<path d="M397.623 251.56C396.379 251.465 395.945 249.722 396.383 248.757C397.045 247.299 398.77 246.737 400.226 246.525C401.644 246.319 401.267 244.415 400.226 244.012C399.386 243.687 399.996 242.133 400.442 241.734C401.711 240.6 404.031 241.375 405.41 241.823C406.339 242.124 407.309 241.146 407.013 240.22C406.329 238.086 405.031 234.17 407.636 232.716C410.321 231.217 412.741 234.773 413.958 236.608C414.726 237.767 416.879 237.067 416.34 235.604C415.514 233.365 418.126 231.1 420.305 231.81C422.568 232.548 423.611 235.354 423.233 237.544L425.793 237.891C425.959 235.106 429.375 233.161 431.909 234.212C434.493 235.284 435.599 238.795 434.526 241.277L436.908 242.281C437.633 240.112 440.37 238.379 442.6 239.464C444.382 240.331 445.285 243.101 443.963 244.71C443.098 245.764 444.223 247.656 445.543 246.757C446.819 245.887 448.579 244.537 450.233 244.897C451.073 245.08 452.257 246.354 451.422 247.14C450.53 247.98 451.455 249.829 452.69 249.318C454.221 248.684 456.26 247.849 457.933 248.391C459.837 249.008 459.688 251.463 459.005 252.945C457.058 257.17 451.856 257.726 447.785 257.827C437.57 258.082 427.346 258.123 417.129 258.269C415.453 258.292 415.448 260.899 417.129 260.875C426.814 260.737 436.499 260.601 446.184 260.461C450.212 260.403 454.684 260.34 458.086 257.874C460.876 255.85 463.056 252.152 461.675 248.664C460.069 244.61 455.189 245.483 451.997 246.804L453.265 248.982C455.124 247.232 454.234 244.32 452.308 243.005C449.675 241.206 446.5 242.958 444.227 244.506L445.807 246.553C448.185 243.657 447.272 238.961 443.895 237.205C440.149 235.257 435.649 237.838 434.395 241.588C433.935 242.965 436.186 243.958 436.777 242.592C438.511 238.581 436.945 233.275 432.602 231.699C428.358 230.158 423.452 233.435 423.187 237.89C423.101 239.335 425.495 239.695 425.746 238.237C426.392 234.493 424.491 229.866 420.371 229.149C416.547 228.483 412.391 232.404 413.827 236.297L416.209 235.293C414.186 232.242 410.744 228.295 406.621 230.311C402.539 232.308 403.379 237.414 404.5 240.912L406.103 239.309C403.436 238.443 399.612 237.917 397.905 240.765C396.663 242.836 397.18 245.615 399.534 246.525V244.012C396.878 244.398 394.022 246.109 393.649 248.994C393.322 251.529 395.03 253.969 397.624 254.165C399.297 254.292 399.288 251.686 397.623 251.56Z" fill="#FF008C"/>
<path d="M518.461 762.274C492.378 763.68 465.886 765.348 439.643 766.311C421.174 766.989 402.69 765.947 384.238 764.905C337.473 762.266 290.661 759.623 244.201 753.675C230.847 751.965 217.287 749.912 205.159 744.067C201.551 742.329 197.629 739.46 197.819 735.459C203.517 731.75 211.233 733.703 217.632 734.038C311.544 738.952 407.587 730.742 501.238 722.316C535.479 719.235 569.955 715.576 602.726 705.186C625.975 697.815 649.401 685.999 662.035 665.137C674.165 645.108 675.66 617.385 672.023 594.678C670.555 585.509 668.559 513.832 656.672 516.338C653.78 516.948 652.566 520.286 650.776 522.639C645.261 529.884 633.001 527.381 627.044 520.495C625.082 518.227 623.414 515.514 620.71 514.217C616.319 512.11 611.005 514.644 607.633 518.159C604.261 521.674 601.961 526.149 598.35 529.418C592.82 534.424 584.362 535.918 577.452 533.11C573.933 531.68 570.561 528.674 570.582 524.876C570.595 522.478 571.945 520.326 573.107 518.23C586.698 493.711 578.684 464.373 578.786 437.935C578.905 407.301 595.68 385.045 614.65 362.189C624.165 350.726 634.339 339.035 638.205 324.647C644.233 302.216 638.816 283.867 653.492 263.328C658.793 255.908 665.127 249.111 672.787 244.163C689.911 233.099 712.594 232.471 731.494 240.115C748.643 247.051 758.092 257.463 766.439 274.064C771.386 283.902 775.738 294.038 779.466 304.4C781.779 310.831 783.885 317.421 787.53 323.203C799.972 342.942 821.943 353.19 834.256 374.018C848.379 397.911 855.781 425.778 855.162 453.538C854.668 475.699 846.309 496.631 829.124 511.223C827.84 512.313 826.45 513.46 825.976 515.076C825.645 516.202 825.81 517.404 825.946 518.569C828.292 538.704 824.14 559.64 819.278 579.109C812.247 607.265 799.795 634.085 782.614 657.487C755.015 695.08 715.348 723.668 670.956 737.96C648.321 745.247 624.699 748.872 601.191 752.448C573.725 756.625 546.203 760.779 518.461 762.274Z" fill="#84FF20"/>
<path d="M400.031 335.065C389.269 335.969 378.098 335.152 368.319 330.568C358.54 325.984 350.343 317.174 348.457 306.54C346.986 298.244 349.445 289.562 354.027 282.49C358.608 275.419 365.173 269.824 372.234 265.226C399.468 247.495 435.585 244.265 465.534 256.883C474.901 260.829 483.828 266.363 490.183 274.296C496.539 282.23 500.06 292.807 498.001 302.762C495.84 313.212 487.879 321.72 478.637 327.058C469.396 332.395 458.881 335.021 448.522 337.586" fill="white"/>
<path d="M400.031 333.762C388.679 334.69 376.618 333.828 366.486 328.164C357.997 323.418 350.954 315.208 349.578 305.349C347.995 294.007 353.751 283.09 361.6 275.307C369.172 267.8 378.77 262.129 388.598 258.104C408.124 250.108 430.169 248.367 450.681 253.362C470.445 258.175 493.396 270.111 496.927 292.268C498.6 302.764 494.092 312.556 486.503 319.656C478.207 327.42 467.277 331.3 456.498 334.207C453.734 334.952 450.955 335.642 448.176 336.33C446.548 336.733 447.238 339.247 448.868 338.843C460.595 335.939 472.789 332.93 482.85 325.926C491.469 319.925 498.449 311.044 499.693 300.362C500.997 289.176 495.922 278.06 488.25 270.141C480.429 262.068 470.03 256.769 459.483 253.201C438.428 246.079 414.975 246.276 393.934 253.347C383.393 256.889 373.314 262.137 364.637 269.12C355.599 276.394 348.336 286.268 346.943 298.048C345.66 308.896 350.641 319.18 358.892 326.072C367.893 333.593 379.595 336.476 391.131 336.682C394.102 336.735 397.071 336.61 400.031 336.368C401.691 336.233 401.706 333.625 400.031 333.762Z" fill="#FF008C"/>
<path d="M504.891 592.423C507.701 597.749 511.109 602.759 515.028 607.33C515.084 607.395 515.146 607.464 515.229 607.487C515.38 607.529 515.523 607.408 515.631 607.294C519.062 603.692 520.601 597.952 519.057 593.157C517.377 587.94 513.915 583.337 509.906 579.672" fill="#FF008C"/>
<path d="M503.766 593.081C505.639 596.606 507.751 599.997 510.114 603.214C511.289 604.814 512.495 606.423 513.815 607.908C515.162 609.424 516.336 608.572 517.389 607.248C519.431 604.68 520.64 601.544 520.912 598.277C521.199 594.822 520.087 591.555 518.513 588.524C516.593 584.827 513.879 581.567 510.828 578.751C509.597 577.614 507.749 579.453 508.985 580.594C512.822 584.136 516.215 588.462 517.801 593.504C518.499 595.721 518.515 598.076 517.953 600.326C517.662 601.491 517.237 602.609 516.662 603.664C516.368 604.205 516.04 604.732 515.675 605.229C515.524 605.436 515.365 605.636 515.199 605.831C515.081 605.97 514.96 606.106 514.834 606.239C514.654 606.422 514.671 606.419 514.883 606.231L516.151 606.566C515.051 605.702 514.159 604.268 513.312 603.163C512.396 601.969 511.516 600.746 510.67 599.502C508.976 597.011 507.43 594.426 506.017 591.766C505.229 590.284 502.979 591.6 503.766 593.081Z" fill="#FF008C"/>
<path d="M388.531 531.675C376.074 554.155 370.91 583.274 376.587 608.492C377.936 614.486 379.9 620.444 383.4 625.493C391.281 636.861 404.375 637.853 417.086 636.635C426.574 635.727 435.655 632.414 444.474 628.8C457.446 623.484 470.125 617.453 482.433 610.743C493.71 604.596 504.965 597.704 517.559 594.602C526.019 592.519 542.201 592.679 545.415 603.456C546.537 607.218 547.194 611.755 550.654 613.61C554.729 615.795 559.701 612.514 562.27 608.669C567.052 601.513 567.724 592.032 564.922 583.893C562.121 575.755 556.119 568.944 548.921 564.225C552.406 562.853 554.072 558.648 553.707 554.92C553.342 551.193 551.409 547.828 549.519 544.594C545.551 537.803 541.583 531.011 537.616 524.22C520.767 532.71 503.901 541.163 487.016 549.58C478.377 553.887 469.734 558.184 461.086 562.471C457.192 564.401 447.042 572.794 442.833 570.845C448.985 544.657 455.172 519.843 455.532 492.662" fill="white"/>
<path d="M387.406 531.018C375.591 552.44 370.476 578.169 374.13 602.426C375.87 613.977 379.546 627.077 390.054 633.655C399.199 639.38 411.345 639.057 421.607 637.34C428.551 636.178 435.246 633.871 441.774 631.286C448.228 628.731 454.602 625.963 460.9 623.045C467.404 620.031 473.824 616.833 480.147 613.457C485.981 610.343 491.7 607.014 497.572 603.971C507.08 599.044 517.471 594.403 528.408 594.903C532.513 595.09 536.908 595.928 540.293 598.397C541.807 599.502 543.055 601.002 543.785 602.735C544.735 604.99 545.04 607.478 545.966 609.752C546.89 612.022 548.326 614.053 550.647 615.036C553.191 616.113 556.011 615.53 558.333 614.178C563.261 611.308 566.054 605.576 567.206 600.178C569.726 588.373 564.805 576.582 556.286 568.42C554.223 566.443 551.961 564.676 549.579 563.1V565.351C552.54 564.093 554.359 561.106 554.875 558.015C555.512 554.201 554.2 550.504 552.455 547.159C550.412 543.241 548.038 539.475 545.809 535.66C543.453 531.628 541.097 527.595 538.741 523.563C538.37 522.928 537.588 522.778 536.958 523.096C522.623 530.319 508.274 537.517 493.911 544.688C486.779 548.25 479.642 551.804 472.503 555.353C467.033 558.072 461.403 560.54 456.29 563.899C454.008 565.397 451.725 566.913 449.298 568.171C447.853 568.919 445.194 570.444 443.491 569.72L444.09 571.192C448.819 551.072 453.744 530.925 455.812 510.317C456.401 504.449 456.75 498.56 456.835 492.663C456.86 490.985 454.253 490.984 454.229 492.663C453.931 513.205 450.144 533.388 445.584 553.356C444.278 559.077 442.92 564.786 441.577 570.499C441.459 571.002 441.642 571.743 442.176 571.97C446.186 573.676 451.067 570.309 454.326 568.27C456.305 567.031 458.22 565.692 460.21 564.47C462.968 562.775 466.003 561.485 468.9 560.046C483.758 552.669 498.602 545.264 513.432 537.831C521.717 533.678 529.997 529.516 538.274 525.346L536.491 524.878C540.641 531.981 544.829 539.063 548.939 546.189C550.678 549.204 552.511 552.534 552.451 556.119C552.402 559.036 551.041 561.921 548.264 563.1C547.295 563.512 547.542 564.873 548.264 565.351C557.734 571.617 565.136 581.725 565.272 593.423C565.337 598.937 563.851 605.156 560.092 609.367C558.412 611.249 555.97 613.092 553.317 613.006C550.789 612.925 549.22 610.916 548.352 608.745C547.45 606.483 547.13 604.031 546.191 601.786C545.453 600.025 544.333 598.438 542.901 597.171C539.873 594.494 535.887 593.193 531.946 592.633C522.307 591.266 513.066 594.018 504.295 597.853C498.43 600.417 492.817 603.511 487.224 606.612C481.368 609.859 475.482 613.04 469.49 616.03C463.502 619.017 457.437 621.846 451.301 624.515C445.052 627.232 438.739 629.886 432.251 631.983C426.122 633.964 419.885 635.249 413.449 635.614C408.376 635.901 403.203 635.757 398.279 634.394C393.488 633.069 389.205 630.506 385.966 626.71C381.912 621.961 379.723 615.837 378.247 609.857C372.562 586.821 376.074 561.437 385.817 539.975C386.996 537.378 388.279 534.831 389.657 532.334C390.467 530.864 388.217 529.547 387.406 531.018Z" fill="#FF008C"/>
<path d="M369.106 496.264C347.909 514.698 335.604 541.017 323.237 566.24C313.516 586.067 303.398 605.7 292.892 625.122C283.928 641.692 276.059 661.945 263.582 676.029C257.805 682.552 244.399 691.616 235.63 684.574C232.569 682.117 229.45 678.757 225.549 679.197C220.954 679.715 218.728 685.24 218.799 689.863C218.931 698.469 223.766 706.652 230.696 711.757C237.626 716.861 246.435 719.055 255.039 718.847C252.952 721.957 253.97 726.364 256.389 729.224C258.808 732.083 262.311 733.753 265.703 735.34C272.827 738.674 279.952 742.007 287.076 745.34C320.524 684.06 354.726 623.093 391.005 563.436C398.856 550.525 407.058 538.003 414.817 525.016C417.817 519.995 420.837 514.931 422.769 509.41C424.701 503.889 425.491 497.809 423.935 492.171" fill="white"/>
<path d="M368.19 495.342C352.027 509.458 340.932 528.155 331.281 547.071C326.114 557.197 321.235 567.468 316.148 577.634C310.501 588.918 304.726 600.137 298.822 611.29C293.508 621.33 288.184 631.331 283.151 641.516C278.39 651.15 273.513 660.834 267.148 669.532C261.966 676.614 255.063 683.617 246.135 685.501C244.144 685.921 242.048 685.977 240.076 685.429C237.841 684.807 236.206 683.362 234.466 681.904C231.113 679.094 226.613 676.204 222.322 679.001C218.837 681.272 217.455 685.897 217.501 689.863C217.559 694.768 219.126 699.624 221.67 703.795C227.149 712.778 236.829 718.138 247.082 719.647C249.722 720.036 252.377 720.203 255.045 720.151L253.92 718.19C252.026 721.197 252.378 724.955 254 728.003C255.712 731.221 258.88 733.369 262.037 735.004C265.847 736.977 269.806 738.69 273.691 740.508C277.935 742.494 282.18 744.48 286.424 746.465C287.047 746.757 287.845 746.661 288.207 745.998C297.404 729.149 306.654 712.328 315.988 695.555C325.284 678.849 334.662 662.19 344.152 645.594C353.642 628.998 363.242 612.468 372.982 596.02C382.727 579.563 392.591 563.18 402.771 546.989C407.79 539.005 412.821 531.023 417.6 522.892C422.011 515.388 426.13 507.225 426.066 498.303C426.051 496.116 425.756 493.938 425.197 491.825C424.768 490.205 422.253 490.892 422.684 492.517C425.046 501.447 421.587 510.41 417.303 518.165C412.864 526.2 407.878 533.955 403 541.728C392.973 557.703 383.154 573.794 373.518 590.008C363.836 606.298 354.293 622.671 344.863 639.108C335.433 655.545 326.113 672.05 316.879 688.601C307.606 705.22 298.419 721.887 289.288 738.584C288.176 740.617 287.066 742.649 285.956 744.682L287.739 744.215C280.363 740.764 272.973 737.342 265.611 733.861C262.623 732.448 259.456 730.909 257.316 728.302C255.325 725.877 254.415 722.292 256.17 719.505C256.695 718.672 256.014 717.525 255.045 717.544C244.579 717.749 233.767 714.399 226.73 706.324C223.542 702.666 221.287 698.176 220.436 693.39C219.749 689.529 219.907 684.346 223.181 681.593C227.204 678.211 231.705 683.1 234.714 685.496C238.068 688.166 242.174 688.871 246.335 688.11C254.766 686.568 261.922 680.373 267.096 673.865C273.578 665.711 278.551 656.497 283.215 647.221C285.589 642.502 287.882 637.743 290.258 633.025C292.752 628.072 295.419 623.212 298.032 618.322C309.297 597.24 319.861 575.829 330.494 554.426C339.724 535.844 349.78 517.159 364.546 502.321C366.313 500.544 368.145 498.834 370.033 497.185C371.298 496.08 369.449 494.243 368.19 495.342Z" fill="#FF008C"/>
<path d="M346.873 426.824C327.757 400.16 311.792 371.24 299.417 340.856C297.184 335.374 294.304 330.129 294.647 324.122C294.977 318.357 296.964 312.679 300.39 308.022C301.833 306.059 303.611 303.617 302.505 301.447C301.491 299.455 298.699 299.245 296.534 299.798C292.065 300.938 288.206 304.254 286.406 308.501C286.027 302.899 286.738 297.318 285.988 291.734C285.411 287.436 284.024 283.168 281.398 279.718C281.021 279.223 280.604 278.733 280.048 278.453C279.492 278.173 278.765 278.149 278.288 278.549C277.887 278.885 277.744 279.431 277.622 279.94C276.036 286.604 277.292 294.579 278.401 301.312C277.78 297.542 277.432 294.405 275.614 290.98C273.825 287.61 272.509 284.495 269.62 281.829C269 281.256 268.243 280.686 267.403 280.778C266.595 280.866 265.964 281.576 265.723 282.352C265.481 283.128 265.553 283.963 265.644 284.771C266.374 291.227 269.389 297.884 272.533 303.525C270.875 300.551 269.63 297.559 267.53 294.816C265.617 292.316 263.32 289.968 260.842 288.015C260.079 287.413 259.29 286.798 258.356 286.529C257.422 286.259 256.297 286.416 255.676 287.164C254.863 288.144 255.225 289.61 255.669 290.804C258.175 297.546 262.064 303.513 265.79 309.627C264.572 307.628 261.964 306.585 260.241 305.14C258.407 303.603 257.022 302.215 254.713 301.247C254.14 301.006 253.526 300.789 252.909 300.867C251.732 301.016 250.923 302.238 250.853 303.422C250.676 306.393 253.099 308.904 254.688 311.138C259.325 317.659 262.643 320.458 260.348 328.081C258.162 335.341 259.009 343.243 263.564 349.477C264.595 350.887 265.794 352.201 266.525 353.787C267.308 355.486 267.503 357.386 267.737 359.241C269.339 371.916 273.239 384.177 277.364 396.268C284.438 417.003 292.291 437.619 303.518 456.433C314.744 475.247 335.182 504.714 381.239 514.136" fill="white"/>
<path d="M347.999 426.166C334.822 407.764 323.128 388.309 313.083 368.026C308.032 357.828 303.649 347.378 299.157 336.93C298.107 334.488 297.077 332.018 296.459 329.425C295.802 326.672 295.815 323.894 296.286 321.111C296.725 318.518 297.491 315.96 298.609 313.579C299.719 311.215 301.266 309.225 302.667 307.044C304.02 304.937 304.925 302.136 303.092 300.004C301.568 298.231 298.983 298.015 296.822 298.405C291.765 299.318 287.32 303.208 285.283 307.843L287.711 308.501C287.43 303.982 287.811 299.456 287.58 294.936C287.373 290.897 286.614 286.903 284.957 283.198C283.923 280.888 281.005 275.063 277.632 277.424C276.249 278.392 276.119 280.575 275.907 282.096C275.639 284.024 275.544 285.966 275.579 287.911C275.663 292.529 276.398 297.111 277.146 301.658C277.418 303.31 279.927 302.608 279.659 300.966C279.096 297.515 278.588 294.089 277.04 290.913C275.552 287.859 273.994 284.684 271.731 282.121C270.747 281.008 269.495 279.669 267.933 279.497C266.367 279.325 265.035 280.409 264.531 281.842C263.978 283.418 264.361 285.245 264.637 286.843C264.965 288.748 265.467 290.622 266.079 292.455C267.441 296.535 269.327 300.427 271.409 304.183C272.223 305.651 274.471 304.339 273.66 302.868C271.803 299.498 270.227 296.058 267.786 293.049C265.647 290.413 262.976 287.464 259.964 285.812C257.244 284.319 253.607 285.554 253.916 289.079C254.06 290.723 254.839 292.301 255.48 293.798C256.226 295.54 257.057 297.245 257.947 298.919C260.012 302.807 262.374 306.528 264.667 310.284L266.917 308.969C265.618 306.997 263.599 305.977 261.728 304.643C259.705 303.2 258.06 301.365 255.771 300.297C253.544 299.257 251.071 299.291 249.944 301.81C249.001 303.919 249.853 306.357 250.985 308.214C253.374 312.136 256.872 315.412 258.866 319.581C260.981 324.002 258.559 328.404 258.056 332.901C257.497 337.899 258.405 343.054 260.783 347.497C262.066 349.894 264.139 351.807 265.306 354.25C266.518 356.788 266.491 359.93 266.917 362.669C268.771 374.59 272.512 386.108 276.408 397.491C283.666 418.693 291.82 439.714 303.498 458.924C310.205 469.957 318.021 480.338 327.62 489.031C340.59 500.777 356.298 509.017 373.168 513.566C375.724 514.255 378.301 514.858 380.894 515.393C382.531 515.73 383.231 513.219 381.587 512.879C364.317 509.318 347.839 502.239 334.065 491.125C323.96 482.97 315.58 472.989 308.56 462.104C297.886 445.554 289.969 427.491 283.235 409.032C279.298 398.241 275.442 387.346 272.487 376.24C271.001 370.651 269.777 364.981 269.042 359.241C268.717 356.704 268.407 354.204 267.026 351.985C265.629 349.742 263.832 347.851 262.66 345.452C260.461 340.953 260 335.701 261 330.824C261.473 328.518 262.318 326.33 262.393 323.951C262.453 322.069 262.023 320.244 261.245 318.539C259.398 314.495 256.105 311.192 253.643 307.531C253.055 306.657 252.507 305.735 252.266 304.699C252.045 303.753 252.082 301.994 253.483 302.194C255.823 302.528 257.839 304.891 259.586 306.276C261.249 307.594 263.469 308.466 264.667 310.284C265.583 311.675 267.799 310.413 266.917 308.969C264.782 305.471 262.588 302.004 260.627 298.403C259.686 296.673 258.797 294.913 258.003 293.11C257.618 292.238 257.248 291.356 256.927 290.458C256.717 289.869 256.207 288.722 256.61 288.101C258.034 285.904 264.042 292.683 264.964 293.731C267.728 296.874 269.409 300.553 271.409 304.183L273.66 302.868C271.758 299.437 270.016 295.905 268.737 292.191C268.107 290.359 267.583 288.487 267.228 286.582C267.081 285.795 266.198 280.968 268.261 282.389C271.116 284.356 272.65 288.118 274.197 291.079C275.954 294.444 276.541 297.951 277.146 301.658L279.659 300.966C278.96 296.717 278.288 292.448 278.189 288.135C278.139 285.929 278.221 283.698 278.62 281.525C278.756 280.786 278.737 279.231 279.735 279.798C280.45 280.204 281.047 281.441 281.45 282.106C286.333 290.162 284.551 299.592 285.105 308.501C285.177 309.657 286.968 310.443 287.533 309.159C289.305 305.127 293.049 301.635 297.515 300.918C299.361 300.622 302.01 301.121 301.459 303.572C300.955 305.812 298.901 307.723 297.747 309.653C295.206 313.902 293.717 318.765 293.373 323.7C293.003 329.007 295.028 333.88 297.082 338.652C301.341 348.542 305.477 358.444 310.228 368.116C315.016 377.863 320.183 387.424 325.713 396.771C331.939 407.295 338.63 417.54 345.749 427.481C346.717 428.833 348.978 427.533 347.999 426.166Z" fill="#FF008C"/>
<path d="M269.822 667.996C267.865 670.831 265.798 673.529 263.582 676.03C257.805 682.552 244.399 691.616 235.63 684.575C232.569 682.117 229.45 678.757 225.549 679.197C220.954 679.715 218.727 685.24 218.799 689.863C218.931 698.469 223.766 706.653 230.696 711.757C237.626 716.862 246.435 719.055 255.039 718.848C252.952 721.957 253.97 726.364 256.389 729.224C258.808 732.083 262.311 733.754 265.703 735.341C272.827 738.674 279.952 742.007 287.076 745.34C294.636 731.489 307.389 708.437 315.042 694.629C304.451 679.09 285.408 677.167 269.822 667.996Z" fill="white"/>
<path d="M268.696 667.338C264.068 674.011 258.757 680.1 251.327 683.691C248.251 685.178 244.642 686.26 241.201 685.683C237.197 685.012 234.786 681.804 231.561 679.675C228.391 677.581 224.43 677.094 221.394 679.696C218.801 681.919 217.682 685.6 217.512 688.906C217.093 697.104 221.435 705.322 227.386 710.723C234.854 717.5 245.107 720.345 255.039 720.15L253.914 718.19C252.068 721.115 252.361 724.732 253.859 727.74C255.517 731.072 258.744 733.295 261.958 734.966C265.803 736.964 269.803 738.692 273.728 740.528C277.958 742.507 282.188 744.486 286.418 746.465C287.041 746.756 287.839 746.66 288.201 745.997C295.576 732.487 303.028 719.019 310.481 705.551C312.375 702.129 314.27 698.707 316.166 695.286C316.381 694.899 316.43 694.353 316.166 693.97C312.17 688.173 306.713 683.802 300.537 680.499C294.368 677.201 287.748 674.87 281.313 672.165C277.604 670.606 273.955 668.901 270.479 666.87C269.028 666.022 267.715 668.274 269.164 669.121C280.878 675.966 294.775 678.681 305.75 686.842C308.907 689.191 311.683 692.046 313.916 695.286V693.97C306.454 707.434 299.002 720.904 291.588 734.394C289.704 737.821 287.824 741.25 285.95 744.682L287.733 744.214C280.305 740.739 272.86 737.299 265.45 733.787C262.459 732.37 259.282 730.802 257.187 728.148C255.28 725.733 254.444 722.23 256.164 719.505C256.689 718.672 256.007 717.525 255.039 717.544C246.447 717.712 237.529 715.55 230.699 710.131C224.555 705.257 220.114 697.679 220.1 689.704C220.095 686.728 221.018 682.943 223.683 681.217C227.229 678.921 230.928 682.323 233.518 684.509C236.239 686.805 239.095 688.329 242.726 688.426C246.119 688.517 249.454 687.458 252.486 686.016C260.385 682.257 266.048 675.715 270.947 668.653C271.905 667.272 269.647 665.968 268.696 667.338Z" fill="#FF008C"/>
<path d="M423.941 492.171L369.112 496.264C347.915 514.698 335.61 541.017 323.243 566.24C313.522 586.067 303.404 605.7 292.898 625.122C285.526 638.75 278.892 654.866 269.828 667.996C271.169 666.053 295.835 687.661 298.087 689.448C307.231 696.701 318.088 705.922 318.523 716.781C326.062 706.824 334.075 693.944 340.124 683.017C366.839 634.755 392.197 585.741 416.158 536.053C419.544 529.032 423.088 521.617 423.194 513.669C423.29 506.535 425.922 499.351 423.941 492.171Z" fill="white"/>
<path d="M380.918 549.098C373.647 564.138 370.899 580.986 369.951 597.665C369.683 602.392 369.552 607.127 369.585 611.862C369.614 615.951 369.764 620.07 369.077 624.101C368.524 627.351 367.426 630.508 365.844 633.401C367.593 629.602 369.847 626.84 372.21 623.564C375.071 619.6 377.151 614.745 379.537 610.474C381.266 607.381 383.021 604.215 383.655 600.728C384.184 597.82 383.906 594.836 383.736 591.885C382.921 577.672 384.711 563.314 388.991 549.737" fill="#FF008C"/>
<path d="M379.792 548.44C370.065 568.694 368.079 591.81 368.301 613.987C368.334 617.241 368.366 620.536 367.819 623.755C367.283 626.908 366.23 629.928 364.717 632.743L366.968 634.059C369.332 629.027 373.186 624.965 375.902 620.145C377.286 617.689 378.508 615.149 379.83 612.661C381.129 610.216 382.552 607.846 383.617 605.284C385.941 599.689 385.028 593.967 384.882 588.092C384.733 582.083 385.045 576.063 385.814 570.102C386.689 563.315 388.202 556.612 390.246 550.084C390.748 548.479 388.233 547.793 387.733 549.391C384.201 560.672 382.332 572.472 382.243 584.296C382.22 587.297 382.336 590.29 382.516 593.284C382.695 596.247 382.821 599.216 381.992 602.099C381.203 604.844 379.786 607.334 378.411 609.816C377.088 612.204 375.893 614.659 374.612 617.069C373.154 619.812 371.495 622.357 369.657 624.857C367.81 627.37 366.047 629.912 364.717 632.743C364.014 634.239 366.163 635.556 366.968 634.059C369.658 629.051 370.775 623.656 370.901 618.003C371.033 612.118 370.847 606.242 371.115 600.355C371.62 589.266 372.852 578.165 375.658 567.404C377.24 561.337 379.327 555.41 382.042 549.755C382.765 548.25 380.518 546.927 379.792 548.44Z" fill="#FF008C"/>
<path d="M423.938 490.868C415.795 491.475 407.652 492.083 399.509 492.691C389.651 493.427 379.794 494.163 369.937 494.898C369.676 494.918 369.405 494.918 369.146 494.957C368.567 495.045 368.309 495.241 367.875 495.615C366.83 496.515 365.818 497.457 364.819 498.407C361.038 502.001 357.53 505.875 354.266 509.943C347.665 518.17 342.046 527.125 336.952 536.349C331.801 545.675 327.166 555.272 322.481 564.837C316.998 576.028 311.392 587.16 305.66 598.227C300.066 609.026 294.124 619.652 288.618 630.496C283.544 640.49 278.894 650.718 273.157 660.36C271.745 662.733 270.264 665.062 268.7 667.338C267.873 668.542 269.819 670.077 270.747 668.917C270.676 669.005 270.119 669.213 270.177 669.177C270.099 669.225 269.919 669.045 270.102 669.179C270.17 669.229 270.316 669.244 270.396 669.276C270.616 669.367 270.188 669.18 270.426 669.291C270.539 669.343 270.651 669.398 270.762 669.456C271.022 669.593 271.278 669.738 271.531 669.888C272.941 670.726 274.275 671.698 275.592 672.674C279.189 675.34 282.654 678.187 286.098 681.045C289.135 683.566 292.141 686.122 295.149 688.677C298.608 691.616 302.224 694.359 305.557 697.447C311.026 702.513 316.822 708.938 317.217 716.781C317.286 718.153 318.883 718.449 319.645 717.439C328.892 705.196 336.686 691.964 344.078 678.546C352.245 663.724 360.283 648.831 368.193 633.87C376.102 618.909 383.883 603.879 391.533 588.784C399.183 573.689 406.703 558.528 414.092 543.302C417.515 536.248 421.457 529.148 423.403 521.503C424.381 517.662 424.323 513.849 424.737 509.942C425.167 505.895 426.014 501.876 425.977 497.79C425.959 495.776 425.705 493.773 425.195 491.824C424.77 490.203 422.255 490.891 422.681 492.517C423.728 496.508 423.37 500.594 422.824 504.634C422.554 506.634 422.249 508.631 422.062 510.642C421.877 512.615 421.93 514.6 421.7 516.569C420.79 524.362 416.909 531.515 413.544 538.472C406.282 553.488 398.892 568.441 391.376 583.33C383.823 598.292 376.142 613.19 368.334 628.021C360.527 642.852 352.592 657.616 344.532 672.311C337.13 685.808 329.566 699.193 320.613 711.741C319.56 713.216 318.487 714.677 317.395 716.123L319.823 716.781C319.161 703.619 306.735 695.09 297.626 687.373C290.876 681.655 284.182 675.836 277.08 670.552C275.556 669.418 274.008 668.258 272.337 667.345C271.427 666.848 269.763 666 268.904 667.074L270.951 668.653C278.304 657.953 283.722 646.102 289.505 634.523C295.645 622.226 302.39 610.229 308.7 598.017C315.05 585.726 321.208 573.341 327.293 560.918C332.68 549.922 338.139 538.933 344.528 528.476C351.576 516.942 359.816 506.106 370.031 497.185L369.11 497.567C375.304 497.104 381.499 496.642 387.694 496.179L417.162 493.98C419.42 493.811 421.679 493.643 423.938 493.474C425.6 493.35 425.614 490.742 423.938 490.868Z" fill="#FF008C"/>
<path d="M285.684 308.831C284.56 308.115 283.098 308.317 281.804 308.638C279.241 309.272 276.733 310.293 274.684 311.958C272.634 313.623 271.075 315.982 270.719 318.598" fill="white"/>
<path d="M286.345 307.706C284.668 306.733 282.752 307.028 280.967 307.509C279.098 308.012 277.25 308.725 275.593 309.734C272.527 311.601 270.01 314.624 269.466 318.252C269.362 318.947 269.641 319.653 270.377 319.855C270.992 320.024 271.874 319.645 271.979 318.945C272.414 316.044 274.245 313.666 276.692 312.119C278.007 311.287 279.433 310.681 280.921 310.233C282.153 309.86 283.815 309.251 285.03 309.956C286.484 310.799 287.797 308.548 286.345 307.706Z" fill="#FF008C"/>
<path d="M544.154 603.803C545.435 608.17 546.427 614.06 551.616 615.381C556.793 616.699 561.582 612.409 564.036 608.306C569.943 598.432 568.634 585.731 562.671 576.225C559.348 570.929 554.771 566.539 549.574 563.1V565.351C552.535 564.093 554.354 561.106 554.87 558.015C555.507 554.201 554.195 550.504 552.45 547.159C550.407 543.241 548.033 539.475 545.804 535.66C543.448 531.628 541.093 527.595 538.737 523.563C538.366 522.928 537.584 522.778 536.954 523.095C523.626 529.811 510.284 536.499 496.933 543.168C496.306 543.482 495.394 543.75 494.89 544.261C494.361 544.797 494.35 545.825 494.22 546.526C493.937 548.058 493.708 549.6 493.517 551.146C493.106 554.46 492.919 557.801 492.93 561.141C492.95 567.49 493.678 573.849 495.021 580.053C496.556 587.147 499.057 593.841 502.069 600.427C502.382 601.111 503.266 601.162 503.852 600.895C510.101 598.045 516.783 595.467 523.696 594.97C528.819 594.601 534.516 594.974 539.057 597.603C541.487 599.01 543.315 601.105 544.154 603.803C544.651 605.399 547.168 604.718 546.667 603.11C543.063 591.525 527.195 590.982 517.427 593.294C512.286 594.511 507.334 596.456 502.536 598.645L504.319 599.112C500.521 590.806 497.737 582.251 496.419 573.19C495.087 564.036 495.186 554.598 497.068 545.529L496.469 546.308C510.414 539.343 524.349 532.36 538.269 525.346L536.486 524.878C540.636 531.981 544.824 539.063 548.934 546.189C550.673 549.204 552.506 552.534 552.446 556.119C552.398 559.036 551.036 561.921 548.259 563.1C547.29 563.512 547.537 564.873 548.259 565.351C556.304 570.674 562.887 578.7 564.756 588.338C565.697 593.187 565.375 598.301 563.702 602.956C562.207 607.116 559.202 611.996 554.499 612.908C548.891 613.996 547.796 606.958 546.667 603.11C546.196 601.504 543.68 602.188 544.154 603.803Z" fill="#FF008C"/>
<path d="M388.53 531.676C386.1 533.091 383.938 540.928 382.892 543.504C376.965 558.099 374.34 574.221 373.796 589.915C372.98 613.406 374.302 638.372 399.921 647.275C413.102 651.855 427.609 651.424 441.232 648.406C458.511 644.578 478.625 637.93 493.53 628.418C502.098 622.951 509.91 615.997 515.087 607.251C507.901 598.397 502.488 588.129 499.135 577.235C497.459 571.788 496.296 566.182 495.683 560.515C495.455 558.4 493.378 546.4 495.814 545.183C492.881 546.648 489.95 548.118 487.015 549.581C478.376 553.888 469.733 558.185 461.085 562.472C457.191 564.402 447.041 572.795 442.833 570.845C448.985 544.658 455.171 519.844 455.531 492.663" fill="white"/>
<path d="M387.872 530.55C385.359 532.148 384.28 535.799 383.318 538.435C382.018 541.996 380.632 545.539 379.418 549.129C376.176 558.717 374.254 568.719 373.24 578.777C372.407 587.036 372.117 595.422 372.424 603.719C372.684 610.741 373.483 617.868 375.736 624.555C377.873 630.896 381.386 636.768 386.484 641.168C392.857 646.668 401.018 649.594 409.227 650.989C419.138 652.674 429.294 652.108 439.126 650.174C448.294 648.37 457.37 645.778 466.179 642.676C483.314 636.642 501.029 628.097 512.425 613.434C513.798 611.667 515.064 609.828 516.212 607.907C516.534 607.367 516.374 606.782 516.008 606.328C509.532 598.307 504.504 589.118 501.191 579.359C498.455 571.298 497.075 562.893 496.221 554.445C496.04 552.66 495.899 550.858 495.954 549.063C495.974 548.422 496.005 547.774 496.15 547.146C496.199 546.932 496.296 546.644 496.331 546.521C496.401 546.28 496.395 546.351 496.472 546.307C497.939 545.466 496.647 543.312 495.156 544.057C486.268 548.497 477.376 552.932 468.477 557.351C465.072 559.042 461.509 560.555 458.293 562.594C455.823 564.16 453.424 565.839 450.886 567.298C449.505 568.092 448.08 568.863 446.566 569.373C445.692 569.667 444.404 570.108 443.49 569.719L444.089 571.191C448.817 551.071 453.742 530.924 455.81 510.316C456.399 504.448 456.748 498.559 456.833 492.662C456.858 490.984 454.252 490.984 454.227 492.662C453.929 513.204 450.142 533.387 445.583 553.356C444.276 559.076 442.918 564.785 441.575 570.498C441.457 571.001 441.641 571.742 442.174 571.969C444.599 573.001 447.184 572.041 449.441 570.996C452.314 569.665 454.964 567.882 457.603 566.148C460.451 564.277 463.383 562.783 466.439 561.267C471.134 558.936 475.829 556.603 480.522 554.267C485.841 551.619 491.156 548.963 496.472 546.307L495.156 544.057C492.817 545.397 493.275 549.601 493.402 551.821C493.562 554.632 494.06 557.831 494.364 560.372C495.712 571.672 498.827 582.57 504.047 592.705C506.877 598.2 510.284 603.364 514.165 608.171L513.961 606.592C504.761 621.988 488.172 631.321 471.954 637.748C463.51 641.094 454.804 643.781 445.987 645.954C436.698 648.244 427.281 649.772 417.683 649.302C408.999 648.877 399.924 646.954 392.451 642.332C386.855 638.87 382.581 633.832 379.831 627.873C377.073 621.898 375.868 615.262 375.327 608.743C374.726 601.514 374.853 594.205 375.225 586.967C375.725 577.253 377.039 567.569 379.464 558.142C380.677 553.429 382.17 548.789 383.978 544.271C385.097 541.473 385.887 538.545 387.174 535.813C387.647 534.809 388.208 533.423 389.187 532.8C390.599 531.903 389.293 529.646 387.872 530.55Z" fill="#FF008C"/>
<path d="M393.33 399.79C382.15 402.021 370.11 400.451 360.262 394.708C350.414 388.966 342.981 378.939 341.124 367.691C338.399 351.191 347.896 334.404 361.47 324.636C375.045 314.868 392.019 311.057 408.663 309.425C421.664 308.15 434.906 308.077 447.665 310.883C460.424 313.69 472.731 319.525 481.885 328.846C491.039 338.166 496.771 351.17 495.921 364.206C495.037 377.756 487.079 390.333 476.056 398.263C465.033 406.192 451.234 409.729 437.655 409.738" fill="white"/>
<path d="M392.984 398.534C381.286 400.817 368.632 398.903 358.668 392.167C349.754 386.141 343.185 376.218 342.128 365.405C341.069 354.571 345.25 343.804 351.981 335.435C359.344 326.279 369.599 320.166 380.621 316.397C392.368 312.379 404.895 310.708 417.252 310.08C430.256 309.419 443.478 310.319 455.881 314.516C466.886 318.24 477.194 324.59 484.487 333.747C491.682 342.782 495.796 354.549 494.444 366.135C493.168 377.074 487.13 387.125 478.935 394.318C469.988 402.17 458.292 406.529 446.567 407.913C443.609 408.262 440.634 408.424 437.656 408.434C435.979 408.44 435.976 411.046 437.656 411.041C450.291 410.999 463.128 408.049 473.903 401.279C483.74 395.098 491.588 385.663 495.221 374.567C498.987 363.064 497.329 350.64 491.699 340.035C485.895 329.105 476.199 320.772 465.12 315.473C453.186 309.765 439.977 307.491 426.821 307.29C413.495 307.087 399.768 308.451 386.852 311.811C375.04 314.883 363.457 320.119 354.604 328.694C346.372 336.667 340.425 347.411 339.478 358.947C338.545 370.305 343.18 381.428 351.215 389.387C359.981 398.07 372.28 402.307 384.515 402.055C387.592 401.992 390.658 401.636 393.677 401.047C395.322 400.726 394.625 398.213 392.984 398.534Z" fill="#FF008C"/>
<path d="M320.918 385.817C308.02 391.334 296.564 400.332 288.597 411.924C287.642 413.314 286.74 414.741 285.896 416.202C285.475 416.93 285.045 417.664 284.673 418.419C284.185 419.41 284.675 420.17 285.055 421.125C286.6 425.01 288.21 428.87 289.901 432.693C293.315 440.409 297.077 447.977 301.321 455.271C305.739 462.866 310.59 470.223 316.183 477.01C322.942 485.213 330.8 492.488 339.613 498.441C350.461 505.768 362.669 510.957 375.351 514.134C377.189 514.594 379.037 515.01 380.892 515.393C382.529 515.73 383.229 513.219 381.585 512.88C362.782 509.002 345.038 500.919 330.575 488.183C320.287 479.124 312.087 468.172 305.056 456.466C297.885 444.526 292.056 431.853 286.964 418.903L286.833 419.907C294.418 405.471 307.326 394.444 322.233 388.067C323.771 387.41 322.444 385.164 320.918 385.817Z" fill="#FF008C"/>
<path d="M363.013 494.221C349.362 487.761 340.584 473.516 337.509 458.731C334.434 443.945 336.346 428.581 339.354 413.781C332.849 419.448 326.295 425.164 321.052 432.015C315.809 438.866 311.903 447.017 311.469 455.633C310.572 473.444 322.712 484.165 335.504 493.895C348.947 504.121 364.736 510.76 381.24 514.136" fill="#FF008C"/>
<path d="M363.67 493.096C354.272 488.591 347.312 480.452 342.95 471.107C337.887 460.257 336.716 448.095 337.453 436.261C337.917 428.811 339.13 421.437 340.61 414.128C340.872 412.831 339.431 411.99 338.432 412.86C330.273 419.966 321.951 427.254 316.333 436.635C311.192 445.217 308.721 455.314 310.98 465.203C312.898 473.596 318.198 480.603 324.382 486.389C331.373 492.93 339.295 498.741 347.685 503.347C358.054 509.039 369.32 513.004 380.893 515.392C382.53 515.73 383.23 513.219 381.586 512.879C371.705 510.841 362.051 507.675 353.005 503.188C344.443 498.94 336.573 493.496 329.311 487.297C323.143 482.032 317.291 475.854 314.53 468.073C311.338 459.079 312.645 449.332 316.93 440.932C322.338 430.332 331.442 422.397 340.274 414.703L338.096 413.435C335.409 426.714 333.555 440.394 335.378 453.92C336.864 464.949 340.995 475.655 348.197 484.232C352.088 488.864 356.892 492.728 362.354 495.346C363.859 496.068 365.183 493.822 363.67 493.096Z" fill="#FF008C"/>
<path d="M358.453 509.49C365.547 517.936 377.392 520.254 388.276 522.045C395.561 523.245 402.847 524.444 410.132 525.643C417.643 526.879 425.248 528.143 432.203 531.237C439.157 534.331 445.503 539.512 448.368 546.564C453.693 525.439 455.397 503.407 453.385 481.715" fill="#FF008C"/>
<path d="M357.534 510.412C365.498 519.746 378.437 521.739 389.874 523.622C397.414 524.863 404.959 526.077 412.494 527.349C419.447 528.523 426.552 529.876 432.929 533.009C438.95 535.968 444.484 540.594 447.113 546.91C447.567 548.002 449.282 548.285 449.626 546.91C453.765 530.405 455.757 513.363 455.484 496.347C455.406 491.461 455.135 486.581 454.69 481.715C454.539 480.059 451.931 480.043 452.084 481.715C453.62 498.51 452.99 515.499 450.108 532.119C449.286 536.855 448.282 541.556 447.113 546.218H449.626C444.393 533.646 431.066 528.302 418.594 525.817C411.239 524.351 403.794 523.286 396.395 522.068C389.798 520.982 383.11 520.098 376.644 518.357C370.131 516.602 363.836 513.795 359.376 508.569C358.286 507.291 356.45 509.142 357.534 510.412Z" fill="#FF008C"/>
<path d="M364.606 510.68C342.893 503.472 324.779 487.81 322.402 463.807C320.988 449.524 325.243 435.173 332.706 423.062C339.274 412.404 350.497 404.093 361.401 398.035C373.343 391.4 390.21 388.635 403.734 387.674C418.785 386.605 434.133 388.548 448.089 394.436C460.294 399.585 471.449 407.834 478.503 419.047C489.382 436.34 491.073 458.127 482.235 476.649C474.85 492.127 461.008 504.155 445.065 510.473C437.757 513.369 430.033 515.129 422.24 516.165C402.945 518.729 383.076 516.811 364.606 510.68Z" fill="white"/>
<path d="M364.956 509.423C353.153 505.478 341.984 498.888 334.085 489.123C325.186 478.123 322.001 463.842 324.045 449.95C325.273 441.605 328.21 433.558 332.354 426.228C336.137 419.538 341.213 413.918 347.162 409.078C352.869 404.434 359.286 400.229 365.998 397.187C372.844 394.084 380.26 392.234 387.64 390.927C403.255 388.161 419.462 387.626 434.944 391.455C449.564 395.071 463.664 402.497 473.395 414.202C482.934 425.676 487.547 441.087 486.437 455.909C485.344 470.49 478.44 483.957 468.042 494.107C457.042 504.845 442.959 511.153 427.956 513.947C411.196 517.068 393.712 516.566 377.101 512.804C373 511.876 368.949 510.741 364.956 509.423C363.36 508.897 362.675 511.413 364.263 511.937C381.082 517.486 399.024 519.634 416.673 518.083C433.019 516.647 449.171 512.169 462.47 502.259C474.34 493.413 483.583 480.946 487.308 466.508C491.19 451.464 488.966 435.216 481.527 421.614C474.168 408.16 461.625 398.569 447.592 392.827C431.74 386.342 414.487 385.109 397.593 386.917C389.835 387.748 382.088 389.061 374.599 391.279C367.238 393.458 360.508 396.752 354.067 400.905C347.45 405.171 341.167 410.166 336.089 416.215C330.831 422.479 326.989 429.978 324.357 437.697C319.317 452.473 319.393 469.163 326.935 483.078C333.098 494.45 343.574 502.917 355.172 508.325C358.129 509.704 361.169 510.902 364.263 511.937C365.858 512.47 366.541 509.953 364.956 509.423Z" fill="#FF008C"/>
<path d="M461.357 435.174C483.936 411.372 503.703 384.904 520.114 356.496C523.075 351.371 526.644 346.568 527.125 340.571C527.586 334.815 526.393 328.918 523.636 323.837C522.475 321.696 521.047 319.034 522.439 317.035C523.716 315.2 526.51 315.373 528.58 316.217C532.851 317.958 536.22 321.77 537.423 326.222C538.564 320.725 538.622 315.099 540.128 309.67C541.287 305.491 543.244 301.453 546.317 298.394C546.758 297.955 547.238 297.526 547.827 297.325C548.416 297.123 549.14 297.199 549.557 297.661C549.909 298.049 549.976 298.609 550.027 299.13C550.688 305.948 548.354 313.676 546.335 320.195C547.465 316.545 548.238 313.485 550.507 310.341C552.74 307.247 554.469 304.34 557.695 302.094C558.389 301.611 559.216 301.15 560.035 301.356C560.824 301.554 561.352 302.343 561.485 303.145C561.618 303.947 561.433 304.764 561.232 305.552C559.627 311.848 555.731 318.031 551.846 323.189C553.894 320.469 555.537 317.675 557.992 315.245C560.229 313.03 562.825 311.018 565.547 309.422C566.385 308.93 567.25 308.429 568.212 308.289C569.174 308.15 570.267 308.459 570.78 309.284C571.451 310.367 570.893 311.769 570.29 312.892C566.886 319.228 562.218 324.607 557.691 330.155C559.171 328.341 561.897 327.664 563.802 326.468C565.829 325.196 567.39 324.011 569.81 323.367C570.411 323.207 571.048 323.075 571.649 323.237C572.794 323.546 573.429 324.866 573.337 326.049C573.106 329.017 570.363 331.173 568.483 333.169C562.998 338.995 559.329 341.314 560.561 349.18C561.735 356.67 559.816 364.383 554.452 369.935C553.238 371.192 551.871 372.329 550.93 373.801C549.922 375.376 549.469 377.232 548.984 379.038C545.666 391.375 540.127 402.988 534.388 414.402C524.547 433.976 513.951 453.325 500.259 470.429C486.567 487.532 462.295 513.931 415.383 516.971" fill="white"/>
<path d="M462.281 436.095C477.212 420.338 490.928 403.433 503.263 385.57C509.419 376.654 515.23 367.498 520.676 358.131C523.209 353.773 526.251 349.51 527.686 344.623C529.108 339.785 528.691 334.306 527.333 329.501C526.555 326.749 525.271 324.32 524.024 321.769C523.507 320.711 522.788 319.186 523.37 318.014C523.858 317.031 525.038 316.854 526.026 316.922C528.328 317.08 530.58 318.542 532.22 320.08C534.112 321.854 535.462 324.076 536.17 326.569C536.504 327.746 538.419 327.872 538.683 326.569C540.436 317.89 539.962 308.326 545.734 301.005C546.317 300.265 547.019 299.291 547.829 298.787C548.964 298.081 548.78 299.613 548.815 300.392C548.914 302.6 548.736 304.822 548.385 307.002C547.679 311.374 546.389 315.626 545.082 319.848L547.595 320.541C548.68 317.021 549.725 313.691 551.882 310.656C552.909 309.21 553.89 307.721 555.03 306.36C556.107 305.074 557.507 303.432 559.089 302.768C561.204 301.879 559.614 306.544 559.362 307.298C558.736 309.175 557.935 310.984 557.025 312.74C555.236 316.193 553.054 319.424 550.724 322.532L552.974 323.847C555.367 320.64 557.47 317.364 560.494 314.69C561.937 313.415 563.476 312.256 565.101 311.223C565.95 310.683 568.717 308.586 569.658 309.942C570.141 310.64 569.38 311.838 569.061 312.431C568.601 313.285 568.11 314.122 567.602 314.948C566.592 316.592 565.498 318.182 564.356 319.737C561.958 323.003 559.336 326.097 556.773 329.233C555.729 330.511 557.497 332.353 558.616 331.076C560.114 329.367 562.42 328.814 564.317 327.682C565.33 327.077 566.291 326.389 567.32 325.808C568.233 325.292 570.216 324.105 571.305 324.494C572.315 324.854 572.07 326.307 571.793 327.068C571.426 328.077 570.732 328.948 570.019 329.734C568.5 331.408 566.862 332.995 565.281 334.611C562.732 337.217 560.011 339.973 559.282 343.687C558.853 345.871 559.12 347.961 559.394 350.142C559.697 352.562 559.68 355.063 559.264 357.469C558.398 362.479 555.979 366.616 552.386 370.153C550.581 371.931 549.236 373.764 548.44 376.192C547.588 378.787 546.979 381.461 546.137 384.063C542.578 395.071 537.451 405.482 532.238 415.783C522.484 435.057 511.891 454.051 498.238 470.877C490.292 480.668 481.41 489.721 471.004 496.911C456.739 506.767 440.204 512.802 423.02 514.948C420.483 515.265 417.937 515.499 415.386 515.668C413.721 515.779 413.709 518.386 415.386 518.275C434.049 517.034 452.31 511.804 468.225 501.854C479.805 494.614 489.745 485.182 498.446 474.711C512.22 458.135 523.032 439.485 532.831 420.354C538.182 409.907 543.503 399.365 547.449 388.29C548.467 385.432 549.387 382.538 550.182 379.61C550.527 378.342 550.826 377.044 551.341 375.83C551.906 374.498 552.783 373.438 553.798 372.422C557.402 368.814 560.172 364.903 561.416 359.878C562.024 357.424 562.278 354.865 562.178 352.34C562.084 349.968 561.458 347.623 561.674 345.241C562.036 341.252 565.136 338.493 567.768 335.796C569.375 334.149 571.125 332.551 572.566 330.755C573.891 329.103 575.064 326.913 574.514 324.728C572.959 318.549 565.518 324.067 562.553 325.688C560.549 326.784 558.325 327.462 556.773 329.233L558.616 331.076C560.991 328.169 563.404 325.291 565.675 322.299C567.934 319.324 570.33 316.134 571.831 312.691C572.442 311.29 572.688 309.673 571.717 308.371C570.835 307.189 569.275 306.793 567.869 307.033C566.118 307.331 564.505 308.479 563.058 309.447C561.577 310.438 560.157 311.531 558.815 312.704C555.552 315.558 553.293 319.088 550.724 322.532C549.719 323.878 551.979 325.173 552.974 323.847C555.259 320.8 557.401 317.634 559.17 314.256C560.762 311.218 562.527 307.621 562.81 304.152C562.93 302.681 562.378 301.09 561.018 300.35C559.373 299.456 557.653 300.482 556.348 301.479C553.669 303.525 551.802 306.28 549.874 308.999C547.495 312.355 546.282 315.953 545.082 319.848C544.587 321.455 547.1 322.141 547.595 320.541C548.814 316.602 550.017 312.642 550.747 308.577C551.105 306.583 551.367 304.56 551.432 302.533C551.484 300.896 551.685 298.613 550.793 297.163C549.911 295.729 548.016 295.655 546.673 296.442C545.162 297.326 543.974 298.964 542.977 300.366C540.744 303.507 539.316 307.217 538.465 310.958C537.347 315.872 537.167 320.94 536.17 325.876H538.683C537.432 321.47 534.358 317.595 530.235 315.542C528.358 314.608 526.188 313.973 524.091 314.482C522.018 314.985 520.593 316.775 520.568 318.91C520.539 321.371 522.077 323.527 523.108 325.651C524.318 328.145 525.128 330.842 525.57 333.576C526.007 336.277 526.13 339.202 525.653 341.907C525.19 344.534 524.114 346.979 522.843 349.307C520.268 354.023 517.407 358.625 514.624 363.222C511.663 368.114 508.6 372.945 505.44 377.711C499.182 387.151 492.544 396.342 485.535 405.238C477.618 415.287 469.238 424.967 460.438 434.252C459.285 435.469 461.124 437.315 462.281 436.095Z" fill="#FF008C"/>
<path d="M538.44 327.905C539.81 327.343 541.3 328.068 542.555 328.649C543.918 329.281 545.258 330.038 546.412 331.007C548.612 332.854 550.248 335.428 550.28 338.368C550.299 340.044 552.905 340.049 552.887 338.368C552.846 334.694 550.89 331.308 548.081 329.021C546.672 327.872 545.119 326.945 543.457 326.212C541.696 325.436 539.653 324.611 537.747 325.391C537.096 325.658 536.635 326.258 536.837 326.994C537.006 327.611 537.785 328.173 538.44 327.905Z" fill="#FF008C"/>
<path d="M398.336 426.513C402.006 424.678 406.794 425.09 410.051 427.62C410.607 428.051 411.353 428.161 411.894 427.62C412.344 427.17 412.453 426.211 411.894 425.777C407.653 422.483 401.843 421.851 397.021 424.263C395.52 425.013 396.839 427.262 398.336 426.513Z" fill="#FF008C"/>
<path d="M360.78 419.183C362.578 419.407 364.585 419.653 366.219 420.554C366.404 420.656 366.584 420.765 366.759 420.881C366.907 420.98 367.091 421.118 367.117 421.139C367.441 421.408 367.741 421.703 368.01 422.026C368.156 422.201 367.929 421.908 368.062 422.091C368.129 422.185 368.194 422.28 368.255 422.377C368.365 422.551 368.463 422.732 368.555 422.917C368.654 423.117 368.505 422.774 368.586 422.982C368.628 423.088 368.665 423.196 368.697 423.305C368.724 423.392 368.748 423.481 368.769 423.57C368.769 423.57 368.844 423.979 368.817 423.767C368.906 424.465 369.353 425.07 370.121 425.07C370.756 425.07 371.513 424.47 371.424 423.767C371.132 421.475 369.743 419.623 367.778 418.444C365.667 417.177 363.174 416.875 360.78 416.576C360.08 416.489 359.477 417.238 359.477 417.879C359.477 418.656 360.078 419.095 360.78 419.183Z" fill="#FF008C"/>
<path d="M482.536 410.951C488.446 426.582 502.208 437.23 516.267 445.275C517.725 446.109 519.039 443.858 517.582 443.025C504.177 435.353 490.699 425.201 485.049 410.259C484.461 408.705 481.941 409.378 482.536 410.951Z" fill="#FF008C"/>
<path d="M304.305 716.084C306.837 717.421 309.687 718.234 312.59 718.446C314.068 718.554 315.609 718.497 316.948 717.904C318.286 717.311 319.38 716.082 319.388 714.702C319.392 713.948 319.085 713.225 318.759 712.535C316.92 708.643 314.33 705.062 311.148 702.013C311.103 704.351 309.421 706.335 308.077 708.311C306.506 710.618 305.311 713.148 304.545 715.785" fill="#FF008C"/>
<path d="M303.647 717.209C305.8 718.327 308.111 719.129 310.511 719.504C312.862 719.872 315.384 720.044 317.605 719.029C319.678 718.083 321.057 715.949 320.563 713.658C320.316 712.51 319.675 711.399 319.126 710.371C318.572 709.333 317.966 708.324 317.311 707.347C315.793 705.082 314.03 702.985 312.069 701.091C311.234 700.285 309.895 700.891 309.845 702.013C309.737 704.394 307.777 706.351 306.554 708.255C305.128 710.475 304.038 712.91 303.288 715.438C302.81 717.05 305.325 717.738 305.801 716.131C306.573 713.53 307.744 711.097 309.277 708.859C310.731 706.736 312.33 704.691 312.451 702.013L310.226 702.934C312.064 704.709 313.725 706.65 315.14 708.78C315.816 709.798 316.44 710.851 317.007 711.935C317.47 712.818 318.357 714.103 318.008 715.139C317.268 717.336 314.141 717.279 312.3 717.12C309.746 716.898 307.234 716.138 304.962 714.958C303.476 714.186 302.156 716.435 303.647 717.209Z" fill="#FF008C"/>
<path d="M443.09 564.332C439.772 576.483 436.227 588.57 432.457 600.588C431.954 602.192 434.469 602.878 434.97 601.281C438.74 589.263 442.285 577.176 445.603 565.025C446.045 563.405 443.532 562.714 443.09 564.332Z" fill="#FF008C"/>
<path d="M517.98 586.62C517.823 588.938 518.367 591.274 519.47 593.313C519.794 593.914 520.675 594.154 521.253 593.781C521.862 593.388 522.067 592.64 521.72 591.998C521.602 591.78 521.49 591.559 521.387 591.334C521.357 591.27 521.328 591.206 521.3 591.141C521.361 591.29 521.364 591.296 521.308 591.159C521.27 591.06 521.23 590.961 521.193 590.862C521.016 590.381 520.872 589.887 520.763 589.386C520.711 589.143 520.671 588.9 520.63 588.655C520.616 588.557 520.619 588.585 520.641 588.739C520.632 588.669 520.624 588.598 520.617 588.528C520.604 588.405 520.593 588.281 520.584 588.158C520.549 587.646 520.551 587.133 520.586 586.621C520.632 585.939 519.954 585.287 519.283 585.317C518.537 585.351 518.029 585.89 517.98 586.62Z" fill="#FF008C"/>
<path d="M526.738 584.936C526.087 587.289 526.384 589.814 527.519 591.969C527.837 592.573 528.728 592.806 529.302 592.436C529.916 592.04 530.109 591.3 529.769 590.653C529.706 590.533 529.644 590.412 529.587 590.289C529.558 590.228 529.53 590.166 529.502 590.104C529.56 590.244 529.571 590.269 529.535 590.18C529.447 589.941 529.357 589.704 529.285 589.459C529.218 589.231 529.161 589 529.114 588.768C529.094 588.668 529.079 588.567 529.059 588.467C529.037 588.318 529.038 588.333 529.062 588.511C529.053 588.444 529.046 588.376 529.039 588.309C528.991 587.836 528.984 587.359 529.018 586.885C529.027 586.753 529.028 586.609 529.057 586.479C528.985 586.805 529.057 586.5 529.07 586.423C529.117 586.155 529.179 585.891 529.252 585.629C529.433 584.973 529.027 584.183 528.341 584.026C527.652 583.869 526.933 584.233 526.738 584.936Z" fill="#FF008C"/>
<path d="M535.383 587.289V593.316C535.383 593.997 535.982 594.65 536.686 594.619C537.392 594.587 537.989 594.046 537.989 593.316V587.289C537.989 586.607 537.39 585.954 536.686 585.985C535.98 586.017 535.383 586.558 535.383 587.289Z" fill="#FF008C"/>
<path d="M246.307 689.352C247.158 691.378 248.01 693.405 248.861 695.431C248.999 695.759 249.14 696.023 249.46 696.21C249.739 696.374 250.151 696.443 250.464 696.341C251.065 696.147 251.657 695.411 251.374 694.738C250.523 692.712 249.672 690.685 248.82 688.659C248.682 688.331 248.542 688.067 248.221 687.88C247.942 687.716 247.53 687.647 247.217 687.749C246.616 687.943 246.024 688.679 246.307 689.352Z" fill="#FF008C"/>
<path d="M252.921 683.731C253.754 684.951 254.514 686.221 255.188 687.536C255.882 688.89 256.37 690.025 256.871 691.425C257.1 692.065 257.769 692.563 258.474 692.335C259.105 692.131 259.63 691.419 259.384 690.732C258.332 687.794 256.931 684.993 255.171 682.415C254.787 681.853 254.008 681.548 253.388 681.948C252.829 682.308 252.51 683.128 252.921 683.731Z" fill="#FF008C"/>
<path d="M259.838 681.977C260.4 682.431 260.927 682.924 261.411 683.46C261.529 683.59 261.644 683.722 261.757 683.857C261.82 683.931 261.881 684.007 261.942 684.083C261.957 684.101 262.103 684.29 262.021 684.181C261.926 684.056 262.112 684.307 262.13 684.33C262.175 684.393 262.221 684.457 262.266 684.521C262.378 684.68 262.487 684.842 262.592 685.006C262.972 685.598 263.3 686.217 263.592 686.857C263.747 687.196 263.542 686.722 263.622 686.922C263.658 687.013 263.695 687.103 263.73 687.194C263.793 687.357 263.853 687.522 263.909 687.688C264.029 688.039 264.133 688.394 264.225 688.753C264.394 689.414 265.167 689.878 265.828 689.664C266.51 689.443 266.92 688.768 266.738 688.061C265.949 684.979 264.159 682.136 261.681 680.134C261.152 679.706 260.349 679.578 259.838 680.134C259.402 680.609 259.272 681.519 259.838 681.977Z" fill="#FF008C"/>
<path d="M247.769 674.883C244.88 674.415 242.718 671.46 243.113 668.54C243.316 667.042 244.377 665.463 245.913 665.102C246.6 664.941 247.232 665.096 247.735 665.597C248.113 665.972 248.484 666.621 248.232 667.163L250.613 667.474C250.422 666.1 250.131 664.326 250.97 663.101C251.543 662.265 252.615 661.75 253.4 662.601C254.337 663.617 254.761 665.255 255.143 666.543C255.64 668.222 255.949 669.94 256.065 671.686C256.176 673.351 258.783 673.363 258.671 671.686C258.515 669.338 258.084 667.012 257.314 664.786C256.658 662.89 255.835 660.598 253.814 659.792C251.909 659.033 249.862 660.089 248.778 661.697C247.492 663.603 247.802 666.024 248.1 668.167C248.252 669.257 250.031 669.445 250.482 668.478C251.398 666.513 250.61 664.373 248.86 663.168C247.021 661.902 244.65 662.421 243.006 663.745C239.901 666.246 239.817 670.894 242.005 674.014C243.207 675.728 244.978 677.056 247.077 677.396C247.771 677.509 248.479 677.216 248.68 676.486C248.85 675.864 248.468 674.996 247.769 674.883Z" fill="#FF008C"/>
<path d="M525.461 602.359C524.784 606.613 525.44 610.905 527.414 614.74C527.784 615.459 528.921 615.612 529.461 615.004C532.34 611.764 533.552 607.436 532.839 603.17L530.326 603.862C531.381 606.747 532.908 609.371 534.894 611.713C535.503 612.432 536.901 612.072 537.072 611.138C537.833 606.984 536.07 602.734 532.561 600.368C531.977 599.975 531.117 600.256 530.778 600.836C530.403 601.477 530.66 602.224 531.246 602.619C533.719 604.286 535.098 607.504 534.559 610.446L536.737 609.871C535.059 607.891 533.73 605.607 532.839 603.17C532.258 601.581 530.05 602.211 530.326 603.862C530.876 607.153 529.827 610.674 527.618 613.161L529.664 613.425C528.037 610.262 527.414 606.572 527.974 603.052C528.085 602.358 527.796 601.65 527.064 601.449C526.444 601.279 525.572 601.66 525.461 602.359Z" fill="#FF008C"/>
<path d="M377.702 342.956C384.062 345.452 391.072 343.453 396.437 339.627C397.791 338.661 396.491 336.4 395.122 337.376C390.26 340.843 384.175 342.711 378.395 340.443C376.833 339.83 376.156 342.35 377.702 342.956Z" fill="#FF008C"/>
<path d="M420.987 335.419C424.448 341.107 431.097 344.604 437.756 344.107C439.419 343.983 439.432 341.376 437.756 341.501C431.996 341.93 426.25 339.055 423.238 334.103C422.367 332.672 420.112 333.981 420.987 335.419Z" fill="#FF008C"/>
<path d="M425.692 348.032C428.151 348.368 430.786 349.126 432.455 351.086C432.696 351.37 433.13 351.812 433.033 352.207C432.911 352.706 432.16 353.121 431.733 353.313C430.621 353.813 429.32 353.794 428.13 353.704C425.803 353.528 423.138 353.143 421.133 351.877C420.279 351.338 419.169 350.315 419.306 349.206C419.377 348.632 419.888 348.322 420.477 348.133C422.223 347.572 424.235 347.844 426.038 348.078C426.737 348.169 427.341 347.414 427.341 346.775C427.341 345.996 426.739 345.563 426.038 345.472C423.829 345.185 421.37 344.945 419.26 345.817C418.123 346.287 417.169 347.144 416.832 348.362C416.327 350.182 417.29 352.029 418.631 353.232C421.092 355.44 424.712 356.008 427.895 356.291C429.588 356.441 431.329 356.341 432.895 355.634C434.426 354.942 435.937 353.403 435.613 351.589C435.285 349.748 433.448 348.207 431.919 347.311C430.232 346.323 428.311 345.782 426.385 345.519C425.688 345.423 424.986 345.687 424.782 346.429C424.615 347.037 424.99 347.936 425.692 348.032Z" fill="#FF008C"/>
<path d="M387.447 348.23C389.961 347.957 392.871 348.053 394.935 349.716C395.388 350.081 395.691 350.323 395.409 350.899C395.189 351.347 394.799 351.722 394.397 352.006C393.466 352.664 392.308 352.942 391.202 353.137C388.907 353.541 386.237 353.795 383.986 353.086C383.07 352.798 381.705 352.096 381.513 351.041C381.398 350.413 381.721 350.04 382.245 349.678C383.027 349.139 383.975 348.872 384.889 348.658C385.824 348.439 386.648 348.323 387.447 348.23C388.146 348.149 388.75 347.689 388.75 346.927C388.75 346.286 388.151 345.542 387.447 345.624C385.185 345.887 382.636 346.195 380.736 347.564C379.693 348.316 378.93 349.396 378.899 350.72C378.857 352.545 380.161 354.041 381.673 354.902C384.573 356.554 388.283 356.201 391.454 355.721C393.002 355.487 394.598 355.057 395.887 354.133C397.227 353.173 398.46 351.552 398.085 349.806C397.668 347.865 395.262 346.667 393.556 346.107C391.603 345.467 389.475 345.403 387.447 345.624C386.748 345.7 386.144 346.168 386.144 346.927C386.144 347.572 386.743 348.307 387.447 348.23Z" fill="#FF008C"/>
<path d="M392.035 348.577C390.575 348.587 389.266 349.957 389.322 351.416C389.379 352.875 390.79 354.14 392.246 354.036C392.737 354.001 393.21 353.834 393.653 353.621C394.831 353.052 395.929 351.89 395.705 350.601C395.566 349.8 394.932 349.154 394.202 348.795C393.473 348.436 392.652 348.318 391.846 348.214" fill="#FF008C"/>
<path d="M392.035 347.274C390.268 347.319 388.738 348.532 388.191 350.198C387.627 351.915 388.481 353.707 389.917 354.684C391.441 355.721 393.424 355.403 394.887 354.414C396.308 353.453 397.504 351.724 396.879 349.94C396.544 348.981 395.842 348.188 394.944 347.712C393.973 347.199 392.919 347.049 391.845 346.91C391.167 346.822 390.514 347.572 390.542 348.213C390.577 348.995 391.118 349.422 391.845 349.517C392.098 349.549 391.878 349.521 391.83 349.514C391.903 349.525 391.977 349.535 392.05 349.546C392.215 349.571 392.38 349.598 392.543 349.631C392.872 349.696 393.183 349.795 393.501 349.898C393.685 349.957 393.326 349.802 393.495 349.896C393.551 349.928 393.612 349.954 393.67 349.985C393.77 350.04 393.961 350.122 394.029 350.213C394.014 350.192 393.813 350.018 393.987 350.187C394.033 350.231 394.081 350.271 394.125 350.316C394.17 350.36 394.211 350.407 394.254 350.453C394.416 350.627 394.179 350.316 394.248 350.449C394.283 350.515 394.327 350.585 394.368 350.647C394.459 350.788 394.42 350.641 394.351 350.589C394.439 350.656 394.38 350.875 394.449 350.947C394.417 350.913 394.442 350.641 394.43 350.874C394.427 350.933 394.429 350.996 394.428 351.054C394.424 351.295 394.419 350.996 394.441 350.973C394.418 350.997 394.384 351.196 394.375 351.232C394.337 351.372 394.411 351.313 394.409 351.172C394.41 351.205 394.339 351.316 394.329 351.334C394.291 351.405 394.206 351.615 394.134 351.647C394.238 351.601 394.27 351.488 394.166 351.605C394.124 351.653 394.083 351.701 394.04 351.747C393.931 351.864 393.812 351.97 393.693 352.077C393.488 352.26 393.728 352.046 393.729 352.052C393.731 352.061 393.593 352.149 393.572 352.163C393.466 352.234 393.357 352.302 393.246 352.364C393.113 352.438 392.977 352.501 392.841 352.566C392.663 352.651 393.026 352.513 392.836 352.565C392.745 352.589 392.657 352.628 392.567 352.655C392.478 352.681 392.379 352.693 392.292 352.723C392.11 352.787 392.497 352.718 392.303 352.727C392.179 352.733 392.06 352.741 391.936 352.734L391.891 352.731C391.775 352.719 391.774 352.72 391.889 352.733L391.975 352.743C391.917 352.732 391.86 352.719 391.803 352.705C391.746 352.69 391.689 352.673 391.633 352.655C391.564 352.632 391.412 352.511 391.542 352.624C391.67 352.736 391.557 352.625 391.498 352.594C391.446 352.566 391.395 352.536 391.344 352.505C391.305 352.481 391.174 352.423 391.159 352.382C391.161 352.385 391.397 352.594 391.214 352.419C391.128 352.337 391.04 352.258 390.959 352.17C390.927 352.135 390.88 352.058 390.844 352.035L390.94 352.157C390.906 352.109 390.874 352.059 390.842 352.009C390.79 351.925 390.745 351.763 390.675 351.697C390.705 351.725 390.768 351.98 390.709 351.763C390.693 351.706 390.673 351.651 390.658 351.594C390.661 351.607 390.614 351.423 390.619 351.422C390.636 351.416 390.639 351.716 390.63 351.504C390.624 351.364 390.659 351.196 390.638 351.06C390.644 351.101 390.575 351.364 390.634 351.145C390.658 351.06 390.677 350.975 390.704 350.89C390.721 350.839 390.757 350.775 390.765 350.724C390.745 350.851 390.673 350.928 390.766 350.755C390.794 350.703 390.823 350.652 390.854 350.602C390.877 350.565 391.06 350.32 390.931 350.479C390.812 350.624 390.94 350.474 390.971 350.439C391.021 350.384 391.072 350.33 391.126 350.279C391.169 350.238 391.215 350.2 391.258 350.16C391.46 349.971 391.06 350.281 391.278 350.15C391.382 350.087 391.586 350.02 391.665 349.935C391.638 349.964 391.382 350.028 391.6 349.968C391.685 349.945 391.768 349.915 391.854 349.896C391.906 349.884 391.981 349.881 392.028 349.862L391.857 349.888C391.916 349.883 391.976 349.88 392.035 349.88C392.716 349.862 393.37 349.293 393.338 348.577C393.307 347.885 392.765 347.255 392.035 347.274Z" fill="#FF008C"/>
<path d="M429.285 348.577C427.825 348.587 426.516 349.957 426.572 351.416C426.629 352.875 428.04 354.14 429.496 354.036C429.987 354.001 430.46 353.834 430.903 353.621C432.081 353.052 433.179 351.89 432.955 350.601C432.816 349.8 432.182 349.154 431.452 348.795C430.723 348.436 429.902 348.318 429.096 348.214" fill="#FF008C"/>
<path d="M429.285 347.274C427.518 347.319 425.988 348.532 425.441 350.198C424.877 351.915 425.731 353.707 427.167 354.684C428.691 355.721 430.674 355.403 432.137 354.414C433.558 353.453 434.754 351.724 434.129 349.94C433.794 348.981 433.092 348.188 432.194 347.712C431.223 347.199 430.169 347.049 429.095 346.91C428.417 346.822 427.764 347.572 427.792 348.213C427.827 348.995 428.368 349.422 429.095 349.517C429.348 349.549 429.128 349.521 429.08 349.514C429.153 349.525 429.227 349.535 429.3 349.546C429.465 349.571 429.63 349.598 429.793 349.631C430.122 349.696 430.433 349.795 430.751 349.898C430.935 349.957 430.576 349.802 430.745 349.896C430.801 349.928 430.862 349.954 430.92 349.985C431.02 350.04 431.211 350.122 431.279 350.213C431.264 350.192 431.063 350.018 431.237 350.187C431.283 350.231 431.331 350.271 431.375 350.316C431.42 350.36 431.461 350.407 431.504 350.453C431.666 350.627 431.429 350.316 431.498 350.449C431.533 350.515 431.577 350.585 431.618 350.647C431.709 350.788 431.67 350.641 431.601 350.589C431.689 350.656 431.63 350.875 431.699 350.947C431.667 350.913 431.692 350.641 431.68 350.874C431.677 350.933 431.679 350.996 431.678 351.054C431.674 351.295 431.669 350.996 431.691 350.973C431.668 350.997 431.634 351.196 431.625 351.232C431.587 351.372 431.661 351.313 431.659 351.172C431.66 351.205 431.589 351.316 431.579 351.334C431.541 351.405 431.456 351.615 431.384 351.647C431.488 351.601 431.52 351.488 431.416 351.605C431.374 351.653 431.333 351.701 431.29 351.747C431.181 351.864 431.062 351.97 430.943 352.077C430.738 352.26 430.978 352.046 430.979 352.052C430.981 352.061 430.843 352.149 430.822 352.163C430.716 352.234 430.607 352.302 430.496 352.364C430.363 352.438 430.227 352.501 430.091 352.566C429.913 352.651 430.276 352.513 430.086 352.565C429.995 352.589 429.907 352.628 429.817 352.655C429.728 352.681 429.629 352.693 429.542 352.723C429.36 352.787 429.747 352.718 429.553 352.727C429.429 352.733 429.309 352.741 429.185 352.734L429.141 352.731C429.025 352.719 429.024 352.72 429.139 352.733L429.225 352.743C429.167 352.732 429.11 352.719 429.053 352.705C428.996 352.69 428.939 352.673 428.883 352.655C428.814 352.632 428.662 352.511 428.792 352.624C428.92 352.736 428.807 352.625 428.748 352.594C428.696 352.566 428.645 352.536 428.594 352.505C428.555 352.481 428.424 352.423 428.409 352.382C428.411 352.385 428.647 352.594 428.464 352.419C428.378 352.337 428.29 352.258 428.209 352.17C428.177 352.135 428.13 352.058 428.094 352.035L428.19 352.157C428.156 352.109 428.124 352.059 428.092 352.009C428.04 351.925 427.995 351.763 427.925 351.697C427.955 351.725 428.018 351.98 427.959 351.763C427.943 351.706 427.923 351.651 427.908 351.594C427.911 351.607 427.864 351.423 427.869 351.422C427.886 351.416 427.889 351.716 427.88 351.504C427.874 351.364 427.909 351.196 427.888 351.06C427.894 351.101 427.825 351.364 427.884 351.145C427.908 351.06 427.927 350.975 427.954 350.89C427.971 350.839 428.007 350.775 428.015 350.724C427.995 350.851 427.923 350.928 428.016 350.755C428.044 350.703 428.073 350.652 428.104 350.602C428.127 350.565 428.31 350.32 428.181 350.479C428.062 350.624 428.19 350.474 428.221 350.439C428.271 350.384 428.322 350.33 428.376 350.279C428.419 350.238 428.465 350.2 428.508 350.16C428.71 349.971 428.31 350.281 428.528 350.15C428.632 350.087 428.836 350.02 428.915 349.935C428.888 349.964 428.632 350.028 428.85 349.968C428.935 349.945 429.018 349.915 429.104 349.896C429.156 349.884 429.231 349.881 429.278 349.862L429.107 349.888C429.166 349.883 429.226 349.88 429.285 349.88C429.966 349.862 430.62 349.293 430.588 348.577C430.557 347.885 430.015 347.255 429.285 347.274Z" fill="#FF008C"/>
<path d="M675.688 383.829C678.924 395.402 693.919 419.976 708.004 407.743C711.341 404.845 713.464 400.766 714.799 396.553C716.232 392.033 716.834 387.143 715.718 382.534C714.766 378.608 712.626 375.074 711.382 371.231C709.587 365.686 709.72 359.735 709.28 353.924C708.839 348.112 707.659 342.024 703.818 337.641C698.826 331.943 689.733 330.538 683.064 334.129C674.025 338.996 673.326 348.802 673.146 357.9C672.974 366.615 673.342 375.434 675.688 383.829Z" fill="#FF008C"/>
<path d="M674.433 384.176C675.804 389.008 678.118 393.642 680.809 397.867C683.707 402.415 687.274 406.857 691.871 409.783C696.023 412.426 700.956 413.254 705.478 411.024C711.914 407.85 715.44 400.484 716.891 393.789C717.78 389.687 717.913 385.385 716.746 381.322C715.604 377.35 713.417 373.771 712.311 369.785C710.11 361.855 711.427 353.422 709.245 345.476C707.395 338.736 702.891 333.241 695.953 331.468C689.624 329.85 682.649 331.547 678.047 336.265C673.622 340.803 672.394 347.217 672.014 353.319C671.511 361.406 671.667 369.69 673.002 377.692C673.367 379.877 673.846 382.039 674.433 384.176C674.877 385.791 677.393 385.105 676.946 383.483C674.782 375.614 674.326 367.453 674.427 359.328C674.498 353.649 674.499 347.451 677.039 342.229C679.665 336.829 685.11 333.461 691.115 333.463C697.533 333.465 703.035 337.074 705.614 342.937C708.591 349.705 707.878 357.336 708.702 364.509C709.143 368.35 710.109 371.902 711.635 375.449C713.194 379.074 714.81 382.595 714.976 386.604C715.376 396.313 707.949 414.414 695.361 408.726C690.983 406.747 687.525 402.914 684.77 399.081C681.949 395.155 679.557 390.826 677.87 386.291C677.526 385.367 677.215 384.431 676.946 383.483C676.49 381.872 673.974 382.556 674.433 384.176Z" fill="#FF008C"/>
<path d="M718.406 291.763C720.355 297.479 721.891 309.857 714.705 312.643C704.219 316.708 701.224 298.124 702.517 291.637C702.822 290.106 703.296 288.575 704.206 287.306C706.141 284.606 710.076 283.566 713.093 284.957C715.781 286.196 717.451 288.961 718.406 291.763Z" fill="#FF008C"/>
<path d="M717.151 292.109C718.55 296.282 719.281 301.145 718.396 305.499C717.988 307.503 717.175 309.594 715.428 310.8C713.993 311.789 712.002 312.239 710.325 311.662C707.004 310.519 705.472 306.31 704.64 303.247C703.701 299.793 703.141 295.848 703.717 292.294C704.279 288.829 706.266 285.694 710.107 285.644C713.827 285.596 716.044 288.963 717.151 292.109C717.704 293.681 720.223 293.004 719.664 291.416C718.483 288.06 716.458 284.784 712.964 283.506C709.825 282.357 705.935 283.36 703.714 285.85C700.205 289.782 700.641 296.14 701.472 300.967C702.232 305.376 703.842 310.614 707.742 313.257C711.962 316.117 717.737 313.789 719.828 309.435C722.418 304.044 721.506 296.907 719.664 291.416C719.133 289.834 716.615 290.513 717.151 292.109Z" fill="#FF008C"/>
<path d="M671.5 295.238C673.448 300.954 674.984 313.332 667.799 316.118C657.312 320.183 654.317 301.599 655.61 295.112C655.916 293.581 656.39 292.05 657.3 290.781C659.235 288.081 663.17 287.041 666.186 288.431C668.875 289.671 670.545 292.436 671.5 295.238Z" fill="#FF008C"/>
<path d="M670.237 295.584C671.636 299.756 672.367 304.62 671.482 308.973C671.074 310.978 670.261 313.069 668.514 314.274C667.079 315.264 665.088 315.714 663.411 315.137C660.09 313.993 658.558 309.785 657.726 306.722C656.787 303.268 656.227 299.323 656.803 295.768C657.365 292.303 659.352 289.168 663.193 289.119C666.913 289.071 669.13 292.438 670.237 295.584C670.79 297.156 673.309 296.479 672.75 294.891C671.569 291.535 669.544 288.259 666.05 286.98C662.911 285.831 659.021 286.835 656.8 289.324C653.291 293.256 653.727 299.615 654.558 304.442C655.318 308.851 656.928 314.088 660.828 316.731C665.048 319.592 670.823 317.263 672.914 312.909C675.504 307.519 674.592 300.382 672.75 294.891C672.219 293.309 669.701 293.987 670.237 295.584Z" fill="#FF008C"/>
<path d="M770.31 393.663C767.208 397.84 763.393 401.508 759.082 404.423C754.448 407.557 749.231 409.455 744.275 411.982C736.211 416.095 729.876 422.746 725.473 430.602C715.163 449 715.82 470.364 716.727 490.758C716.995 496.808 717.258 502.863 717.206 508.921C717.155 514.835 716.451 520.705 716.332 526.611C716.23 531.676 716.834 536.807 719.267 541.325C721.371 545.232 724.836 548.504 729.232 549.565C739.466 552.034 748.356 543.118 754.069 535.854C757.515 531.471 760.567 526.805 763.191 521.886C765.528 517.505 767.755 512.467 772.007 509.588C773.943 508.278 776.218 507.376 778.585 507.432C780.901 507.487 782.851 508.637 784.452 510.243C786.135 511.932 787.457 513.935 789.003 515.742C790.512 517.506 792.289 519.033 794.253 520.271C802.534 525.494 813.28 524.929 821.005 518.952C822.818 517.549 824.364 515.911 825.711 514.059C826.699 512.701 824.439 511.399 823.461 512.743C817.831 520.484 807.32 523.39 798.535 519.593C796.352 518.65 794.315 517.341 792.577 515.717C790.945 514.193 789.646 512.385 788.258 510.649C785.434 507.117 781.886 504.362 777.115 504.9C766.634 506.084 762.966 517.552 758.264 525.275C755.438 529.916 752.223 534.4 748.532 538.397C745.267 541.933 741.291 545.277 736.616 546.713C732.194 548.072 727.59 547.14 724.295 543.822C720.968 540.472 719.441 535.768 719.057 531.151C718.584 525.46 719.446 519.751 719.685 514.069C719.929 508.265 719.804 502.453 719.582 496.65C718.802 476.304 716.847 455.014 725.656 435.973C729.231 428.245 734.494 421.174 741.688 416.477C746.213 413.523 751.354 411.783 756.105 409.257C760.438 406.952 764.431 403.965 767.881 400.476C769.577 398.761 771.123 396.914 772.56 394.978C773.561 393.631 771.3 392.33 770.31 393.663Z" fill="#FF008C"/>
<path d="M651.247 402.733C652.495 418.626 653.563 434.532 654.844 450.423C656.2 467.23 657.783 484.025 659.97 500.747C661.207 510.211 662.634 519.651 664.325 529.046C664.621 530.694 667.133 529.996 666.838 528.353C663.845 511.727 661.682 494.964 659.959 478.162C658.278 461.761 657.015 445.322 655.806 428.881C655.165 420.164 654.538 411.446 653.853 402.733C653.723 401.071 651.115 401.057 651.247 402.733Z" fill="#FF008C"/>
<path d="M755.888 749.501C752.947 745.311 750.691 739.652 753.806 734.918C754.989 733.121 756.906 731.935 759.088 732.038C760.971 732.127 762.948 733.141 763.635 734.983C764.105 736.242 766.385 736.207 766.195 734.636C765.748 730.942 765.375 726.98 766.539 723.377C767.637 719.977 770.479 717.662 774.121 717.752C777.767 717.842 781.004 720.035 782.638 723.248C784.536 726.979 784.249 731.458 782.887 735.305C782.315 736.919 784.771 737.502 785.4 735.998C786.729 732.821 791.369 732.173 794.03 733.929C797.379 736.141 797.773 741.084 796.131 744.441C795.741 745.239 796.192 746.507 797.256 746.402C800.395 746.093 803.895 745.669 806.865 747.012C809.22 748.076 811.259 750.645 810.548 753.325C810.118 754.947 812.631 755.64 813.061 754.017C813.982 750.546 812.031 747.158 809.134 745.29C805.648 743.044 801.182 743.409 797.256 743.796L798.381 745.757C800.68 741.056 799.959 734.369 795.092 731.524C790.816 729.024 784.822 730.676 782.887 735.305L785.4 735.998C787.779 729.28 786.664 720.467 779.892 716.734C777.01 715.146 773.384 714.596 770.255 715.773C767.098 716.959 764.953 719.679 763.976 722.846C762.807 726.636 763.12 730.759 763.588 734.636L766.148 734.29C764.045 728.656 756.464 728.016 752.628 732.218C747.645 737.674 749.841 745.408 753.637 750.816C754.593 752.179 756.854 750.878 755.888 749.501Z" fill="#FF008C"/>
<path d="M393.36 743.257C388.37 735.894 383.783 728.261 379.649 720.385C378.647 718.476 377.627 716.563 376.727 714.602C375.918 712.843 375.044 710.561 375.835 708.644C376.518 706.991 378.355 705.761 379.954 707.014C381.441 708.179 382.552 710.061 383.598 711.609C386.272 715.567 388.424 719.848 390.009 724.354C390.575 725.965 392.767 725.299 392.522 723.661C391.878 719.361 392.22 714.941 393.465 710.779C394.089 708.692 394.939 706.686 396.016 704.793C396.855 703.317 398.059 701.309 400.023 701.412C401.9 701.511 403.372 703.257 403.879 704.933C404.566 707.197 404.096 709.665 403.692 711.934C402.84 716.723 401.971 721.51 401.111 726.298C400.91 727.414 402.404 728.709 403.289 727.565C406.696 723.161 414.531 721.409 417.326 727.433C417.849 728.561 418.107 729.847 417.973 731.089C417.826 732.451 417.178 733.381 416.332 734.403C415.457 735.459 414.864 736.832 415.747 738.075C416.535 739.183 418.082 739.487 419.065 738.468C420.23 737.26 418.389 735.415 417.222 736.625C417.68 736.886 417.96 736.811 418.061 736.4C418.167 736.252 418.282 736.111 418.405 735.977C418.658 735.678 418.919 735.391 419.15 735.075C419.519 734.572 419.804 734.038 420.036 733.46C420.508 732.283 420.678 730.991 420.575 729.729C420.358 727.082 419.069 724.518 416.979 722.86C412.176 719.047 404.952 721.191 401.446 725.723L403.624 726.99C404.456 722.362 405.289 717.734 406.119 713.105C406.812 709.246 407.61 704.802 404.954 701.479C402.705 698.666 398.852 697.879 396.066 700.385C394.696 701.617 393.768 703.363 392.962 704.992C392.091 706.757 391.37 708.605 390.832 710.498C389.548 715.014 389.315 719.72 390.009 724.354L392.522 723.661C390.912 719.083 388.779 714.7 386.092 710.657C384.056 707.593 380.948 702.208 376.5 704.332C371.937 706.51 372.66 711.908 374.384 715.715C376.522 720.435 379.102 725.005 381.68 729.495C384.633 734.638 387.783 739.664 391.109 744.573C392.045 745.953 394.304 744.651 393.36 743.257Z" fill="#FF008C"/>
<path d="M150.971 744.979C149.577 743.632 148.42 742.11 147.53 740.385C147.056 739.466 146.676 738.507 146.386 737.515C146.198 736.869 145.815 735.877 146.384 735.32C147.317 734.407 149.065 735.135 149.904 735.778C151.388 736.917 152.512 738.419 154.127 739.408C154.53 739.655 155.037 739.63 155.442 739.408C156.804 738.659 157.674 737.4 158.32 736.021C158.931 734.715 159.357 733.171 160.343 732.084C161.542 730.763 163.384 731.24 164.551 732.366C166.144 733.903 166.417 736.404 166.675 738.484C166.878 740.127 169.487 740.147 169.281 738.484C168.963 735.925 168.615 733.21 166.942 731.133C165.53 729.381 163.139 728.227 160.879 728.801C158.979 729.283 157.788 730.901 157.001 732.588C156.266 734.167 155.759 736.261 154.127 737.157H155.442C153.368 735.887 152.07 733.593 149.73 732.711C147.994 732.056 145.729 732.198 144.407 733.622C142.685 735.477 143.792 738.318 144.638 740.316C145.679 742.772 147.211 744.969 149.129 746.822C150.335 747.988 152.18 746.147 150.971 744.979Z" fill="#FF008C"/>
<path d="M365.546 405.702C368.61 402.636 373.224 401.388 377.414 402.504C379.036 402.937 379.728 400.423 378.106 399.991C373.03 398.639 367.418 400.141 363.703 403.859C362.517 405.047 364.359 406.891 365.546 405.702Z" fill="#FF008C"/>
<path d="M399.847 404.758C402.497 404.578 405.122 405.162 407.415 406.517C409.915 407.994 411.622 410.331 413.269 412.662C413.675 413.236 414.407 413.506 415.052 413.129C415.62 412.797 415.928 411.924 415.519 411.346C413.61 408.645 411.628 405.978 408.73 404.266C406.07 402.695 402.929 401.942 399.847 402.152C398.182 402.265 398.17 404.872 399.847 404.758Z" fill="#FF008C"/>
<path d="M378.704 461.666C378.33 459.742 380.235 458.057 382.032 457.926C383.915 457.788 385.702 459.055 386.792 460.488C388.167 462.296 388.691 464.651 388.971 466.861C389.255 469.101 389.411 471.386 389.356 473.643C389.301 475.942 388.967 478.218 388.367 480.438C387.809 482.507 387.11 485.175 385.35 486.573C380.717 490.255 379.53 480.622 379.336 477.995C379.214 476.332 376.607 476.319 376.73 477.995C376.915 480.511 377.34 483.048 378.188 485.431C378.864 487.333 379.982 489.26 382.079 489.801C387.119 491.1 389.661 485.398 390.759 481.567C392.175 476.631 392.186 471.495 391.523 466.436C390.963 462.17 389.284 457.659 385.01 455.889C380.68 454.096 375.222 457.37 376.191 462.359C376.511 464.004 379.023 463.307 378.704 461.666Z" fill="#FF008C"/>
<path d="M378.418 481.778C377.941 480.159 377.711 478.467 377.736 476.779C377.755 475.566 377.972 474.227 378.913 473.463C379.551 472.945 380.403 472.795 381.217 472.679C383.443 472.363 385.687 472.175 387.935 472.116C388.267 472.108 388.617 472.106 388.907 472.269C389.3 472.489 389.482 472.951 389.602 473.385C390.673 477.259 389.086 481.325 387.442 484.993C387.147 485.652 386.83 486.334 386.268 486.788C385.218 487.634 383.623 487.403 382.48 486.688C381.241 485.912 380.335 484.622 380.024 483.194" fill="#FF008C"/>
<path d="M379.674 481.431C379.292 480.091 379.066 478.736 379.04 477.341C379.024 476.481 378.973 475.282 379.604 474.6C380.267 473.884 381.715 473.906 382.61 473.801C384.006 473.636 385.407 473.522 386.811 473.459C387.139 473.444 387.466 473.431 387.794 473.423C387.895 473.42 388.092 473.451 388.186 473.416C388.416 473.332 388.301 473.49 388.183 473.321C388.46 473.719 388.52 474.39 388.581 474.855C388.739 476.075 388.63 477.329 388.373 478.527C388.088 479.854 387.646 481.143 387.144 482.402C386.743 483.409 386.367 484.671 385.685 485.53C385.043 486.337 383.896 486.028 383.138 485.562C382.157 484.959 381.544 483.946 381.281 482.847C380.89 481.216 378.377 481.907 378.767 483.54C379.467 486.466 382.313 489.151 385.488 488.542C387.051 488.242 387.95 487.014 388.567 485.65C389.321 483.983 390.045 482.284 390.555 480.524C391.027 478.895 391.328 477.166 391.239 475.465C391.16 473.955 390.937 471.828 389.409 471.077C388.615 470.687 387.667 470.814 386.811 470.853C385.875 470.895 384.94 470.96 384.008 471.047C382.384 471.199 380.537 471.239 379.024 471.902C375.336 473.52 376.294 479.081 377.161 482.124C377.62 483.734 380.136 483.05 379.674 481.431Z" fill="#FF008C"/>
<path d="M377.34 433.718C374.97 432.84 372.116 433.816 370.581 435.769C368.79 438.047 369.095 441.073 370.911 443.238C371.909 444.427 373.313 445.11 374.837 445.287C375.538 445.368 376.14 444.63 376.14 443.984C376.14 443.212 375.54 442.763 374.837 442.681C375.127 442.715 374.647 442.637 374.594 442.623C374.44 442.584 374.29 442.534 374.141 442.48C374.393 442.572 373.96 442.389 373.912 442.364C373.808 442.307 373.705 442.246 373.605 442.181C373.359 442.022 372.8 441.476 372.632 441.227C372.237 440.643 372.157 440.479 372.008 439.79C371.991 439.713 371.976 439.635 371.963 439.557C371.982 439.707 371.983 439.704 371.967 439.549C371.96 439.39 371.949 439.234 371.954 439.074C371.956 439.013 372.024 438.544 371.968 438.827C371.995 438.691 372.023 438.556 372.062 438.422C372.099 438.292 372.141 438.163 372.193 438.038C372.085 438.303 372.285 437.875 372.311 437.829C372.387 437.695 372.473 437.568 372.56 437.441C372.409 437.661 372.643 437.343 372.682 437.3C372.772 437.199 372.867 437.102 372.965 437.01C373.001 436.976 373.365 436.676 373.147 436.84C373.38 436.665 373.63 436.512 373.889 436.38C373.94 436.354 374.313 436.199 374.057 436.296C374.202 436.241 374.349 436.19 374.498 436.146C374.647 436.103 374.799 436.075 374.95 436.038C375.103 436.013 375.102 436.011 374.947 436.032C375.004 436.025 375.061 436.02 375.119 436.016C375.409 436.002 375.694 435.995 375.983 436.03C375.672 435.992 376.148 436.074 376.204 436.088C376.355 436.128 376.502 436.177 376.648 436.231C377.308 436.476 378.076 435.958 378.251 435.321C378.451 434.592 378.002 433.964 377.34 433.718Z" fill="#FF008C"/>
<path d="M410.144 347.558C408.587 347.197 406.984 346.99 405.385 346.968C403.835 346.947 402.041 346.98 401.235 348.56C400.902 349.212 400.757 349.944 400.603 350.654C400.433 351.444 400.292 352.256 400.275 353.065C400.244 354.551 400.676 356.051 401.768 357.102C402.984 358.272 404.64 358.676 406.195 357.972C406.836 357.681 406.991 356.751 406.662 356.189C406.277 355.53 405.523 355.429 404.879 355.721C405.135 355.605 404.719 355.752 404.657 355.763C404.974 355.704 404.53 355.74 404.456 355.739C404.737 355.743 404.447 355.729 404.367 355.707C404.295 355.687 404.224 355.664 404.153 355.638C404.289 355.699 404.288 355.698 404.152 355.633C404.017 355.555 403.883 355.482 403.755 355.393C403.938 355.519 403.704 355.348 403.653 355.3C403.538 355.193 403.428 355.078 403.329 354.955C403.488 355.152 403.286 354.88 403.257 354.834C403.229 354.787 403.023 354.362 403.127 354.621C403.056 354.444 403.004 354.257 402.962 354.072C402.889 353.753 402.88 353.61 402.879 353.218C402.879 352.463 402.982 351.949 403.15 351.195C403.227 350.847 403.303 350.496 403.401 350.152C403.435 350.032 403.47 349.908 403.518 349.792C403.389 350.101 403.698 349.432 403.552 349.735C403.66 349.633 403.668 349.622 403.576 349.702C403.713 349.628 403.725 349.62 403.614 349.677C403.661 349.661 404.019 349.586 403.778 349.622C404.144 349.566 404.53 349.578 404.899 349.574C406.49 349.557 407.927 349.718 409.451 350.071C410.113 350.224 410.893 349.866 411.054 349.161C411.205 348.496 410.854 347.722 410.144 347.558Z" fill="#FF008C"/>
<path d="M408.529 372.886C409.626 371.49 410.992 370.151 412.691 369.528C414.362 368.915 416.174 368.957 417.678 369.968C418.262 370.361 419.121 370.081 419.461 369.501C419.836 368.86 419.579 368.112 418.993 367.718C417.019 366.39 414.385 366.197 412.159 366.958C409.954 367.711 408.113 369.226 406.686 371.043C406.252 371.596 406.147 372.346 406.686 372.886C407.138 373.338 408.092 373.443 408.529 372.886Z" fill="#FF008C"/>
<path d="M404.742 372.373C405.513 373.356 406.284 374.34 407.055 375.323C407.247 375.568 407.683 375.705 407.977 375.705C408.296 375.705 408.678 375.563 408.898 375.323C409.126 375.075 409.295 374.749 409.28 374.402L409.233 374.056C409.172 373.835 409.06 373.643 408.898 373.481C408.127 372.497 407.356 371.514 406.585 370.53C406.393 370.286 405.958 370.148 405.663 370.148C405.344 370.148 404.962 370.29 404.742 370.53C404.514 370.778 404.345 371.105 404.36 371.452L404.407 371.798C404.469 372.019 404.58 372.21 404.742 372.373Z" fill="#FF008C"/>
<path d="M420.054 365.569C419.011 366.757 418.248 368.186 417.921 369.739C417.849 370.083 417.871 370.433 418.053 370.743C418.211 371.013 418.521 371.271 418.831 371.342C419.485 371.491 420.284 371.145 420.434 370.432C420.539 369.936 420.689 369.454 420.884 368.986L420.752 369.297C421.022 368.663 421.37 368.068 421.791 367.522L421.587 367.786C421.687 367.658 421.79 367.534 421.897 367.412C422.126 367.15 422.278 366.847 422.278 366.491C422.278 366.171 422.136 365.789 421.897 365.569C421.648 365.341 421.322 365.172 420.975 365.188C420.643 365.202 420.281 365.31 420.054 365.569Z" fill="#FF008C"/>
<path d="M257.652 443.225C260.737 459.421 268.114 474.689 278.756 487.271C281.79 490.858 285.095 494.206 288.632 497.299C289.889 498.4 291.74 496.563 290.475 495.457C278.306 484.812 268.989 471.023 263.687 455.744C262.19 451.432 261.019 447.015 260.165 442.532C259.851 440.886 257.339 441.583 257.652 443.225Z" fill="#FF008C"/>
<path d="M249.302 483.337C251.315 493.62 256.964 503.069 265.079 509.698C266.367 510.751 268.222 508.918 266.922 507.855C259.111 501.474 253.753 492.543 251.815 482.644C251.493 481 248.98 481.696 249.302 483.337Z" fill="#FF008C"/>
<path d="M389.358 265.496C393.595 266.552 397.582 268.326 401.209 270.758L401.52 268.376C398.914 269.425 396.307 270.473 393.7 271.522C393.048 271.784 392.589 272.391 392.79 273.125C392.961 273.744 393.736 274.299 394.393 274.035C397 272.986 399.607 271.938 402.213 270.889C403.258 270.469 403.511 269.169 402.524 268.508C398.728 265.962 394.487 264.088 390.051 262.983C388.424 262.577 387.729 265.09 389.358 265.496Z" fill="#FF008C"/>
<path d="M439.309 264.031C434.899 266.781 429.466 267.044 424.807 269.253C423.775 269.741 424.088 271.37 425.118 271.634C428.773 272.573 432.427 273.512 436.081 274.451C437.707 274.869 438.4 272.356 436.774 271.938C433.12 270.999 429.465 270.06 425.811 269.121L426.122 271.503C430.794 269.289 436.176 269.056 440.625 266.281C442.045 265.395 440.738 263.14 439.309 264.031Z" fill="#FF008C"/>
<path d="M407.26 258.34C408.776 257.874 409.305 261 409.49 261.95C409.808 263.584 409.833 265.267 409.83 266.927C409.824 270.688 409.693 274.45 409.489 278.205C409.398 279.881 412.004 279.876 412.095 278.205C412.346 273.587 412.66 268.869 412.37 264.247C412.182 261.238 411.138 254.424 406.567 255.827C404.968 256.317 405.65 258.834 407.26 258.34Z" fill="#FF008C"/>
<path d="M406.175 288.435C410.898 291.687 417.592 290.704 421.113 286.155C421.544 285.599 421.655 284.854 421.113 284.312C420.664 283.863 419.704 283.752 419.27 284.312C417.921 286.055 416.068 287.252 413.893 287.664C411.656 288.089 409.341 287.459 407.49 286.185C406.91 285.786 406.044 286.077 405.707 286.652C405.329 287.299 405.594 288.035 406.175 288.435Z" fill="#FF008C"/>
<path d="M420.5 281.778C419.811 282.757 419.659 283.992 419.848 285.149C419.933 285.67 420.129 286.186 420.392 286.643C420.717 287.208 421.15 287.635 421.664 288.023C421.915 288.213 422.38 288.234 422.668 288.155C422.97 288.071 423.298 287.838 423.447 287.556C423.607 287.253 423.687 286.887 423.578 286.552C423.467 286.208 423.265 285.989 422.979 285.773C423.34 286.045 423.055 285.827 422.974 285.75C422.904 285.683 422.837 285.612 422.774 285.539C422.694 285.446 422.647 285.309 422.833 285.62C422.813 285.587 422.787 285.557 422.766 285.525C422.706 285.436 422.651 285.345 422.6 285.251C422.577 285.208 422.554 285.165 422.533 285.121C422.509 285.07 422.434 284.895 422.527 285.116C422.629 285.357 422.501 285.033 422.481 284.97C422.42 284.773 422.377 284.573 422.349 284.369L422.395 284.715C422.357 284.403 422.358 284.092 422.399 283.78L422.353 284.126C422.388 283.894 422.448 283.672 422.525 283.45C422.595 283.246 422.379 283.751 422.484 283.547C422.511 283.495 422.535 283.442 422.563 283.391C422.619 283.288 422.683 283.189 422.75 283.093C422.935 282.83 422.964 282.388 422.882 282.089C422.799 281.787 422.565 281.459 422.283 281.31C421.614 280.957 420.92 281.181 420.5 281.778Z" fill="#FF008C"/>
<path d="M406.756 289.572C407.442 289.025 407.938 288.156 408.121 287.303C408.337 286.296 408.222 285.301 407.765 284.377C407.626 284.096 407.28 283.859 406.986 283.778C406.674 283.692 406.259 283.731 405.982 283.91C405.355 284.314 405.19 285.038 405.514 285.692C405.544 285.752 405.572 285.813 405.598 285.874L405.467 285.563C405.554 285.78 405.614 286.003 405.649 286.235L405.602 285.888C405.639 286.171 405.638 286.453 405.601 286.735L405.647 286.388C405.608 286.654 405.538 286.91 405.437 287.159L405.568 286.848C405.463 287.094 405.33 287.323 405.167 287.535L405.371 287.271C405.235 287.441 405.083 287.593 404.913 287.729C404.669 287.923 404.531 288.354 404.531 288.65C404.531 288.97 404.673 289.352 404.913 289.572C405.161 289.8 405.487 289.969 405.834 289.954L406.181 289.907C406.402 289.845 406.593 289.733 406.756 289.572Z" fill="#FF008C"/>
<path d="M347.826 381.214C346.03 377.546 350.134 374.159 352.834 372.372C356.422 369.997 360.315 369.247 364.574 369.663C373.421 370.528 381.644 375.243 389.072 379.801C405.511 389.89 420.215 402.425 435.744 413.804C444.578 420.278 453.566 426.539 462.667 432.633C464.065 433.568 465.371 431.312 463.982 430.382C455.417 424.648 446.951 418.764 438.62 412.694C430.302 406.633 422.2 400.298 414.03 394.042C405.91 387.824 397.599 381.879 388.829 376.604C381.031 371.913 372.217 367.256 362.915 366.948C357.916 366.782 353.525 368.414 349.628 371.497C346.238 374.179 343.453 378.194 345.576 382.529C346.314 384.036 348.562 382.716 347.826 381.214Z" fill="#FF008C"/>
<path d="M401.789 385.216C408.035 380.588 415.311 377.018 423.064 376.452C443.129 374.987 463.62 386.734 473.602 404.005C475.285 406.917 477.025 410.065 476.757 413.418C476.508 416.523 474.573 419.212 472.594 421.618C470.189 424.541 467.612 427.316 465.037 430.09C464.714 430.438 464.377 430.796 463.937 430.974C463.38 431.2 462.747 431.103 462.164 430.956C459.278 430.227 456.809 428.406 454.423 426.625C451.763 424.639 449.103 422.653 446.443 420.668C437.351 413.88 428.258 407.092 419.243 400.201C413.952 396.157 408.688 392.076 403.425 387.996C402.332 387.149 401.186 385.496 402.242 384.602" fill="#FF008C"/>
<path d="M402.448 386.341C407.364 382.724 412.823 379.733 418.821 378.393C424.085 377.218 429.734 377.438 435.016 378.407C445.563 380.341 455.447 385.542 463.191 392.934C467.15 396.713 470.471 401.036 473.135 405.815C474.631 408.499 476.053 411.521 475.227 414.655C474.466 417.543 472.352 419.928 470.457 422.147C469.382 423.406 468.279 424.641 467.164 425.865C466.105 427.027 465.002 428.624 463.731 429.557C462.733 430.288 460.623 429.085 459.687 428.585C458.305 427.847 457.024 426.938 455.766 426.009C450.222 421.915 444.716 417.766 439.197 413.638C432.876 408.91 426.566 404.168 420.293 399.376C417.153 396.977 414.023 394.565 410.896 392.148C410.182 391.596 402.629 386.093 403.164 385.524C404.311 384.301 402.471 382.455 401.321 383.681C398.852 386.311 402.563 388.964 404.43 390.411C407.342 392.668 410.256 394.924 413.175 397.172C419.275 401.873 425.409 406.529 431.565 411.154C437.758 415.807 443.968 420.436 450.175 425.07C453.037 427.206 455.873 429.688 459.128 431.215C460.374 431.8 461.836 432.43 463.241 432.411C464.905 432.389 465.89 431.087 466.925 429.971C469.45 427.245 471.99 424.509 474.285 421.584C476.162 419.19 477.822 416.525 478.061 413.418C478.328 409.929 476.629 406.66 474.948 403.729C473.518 401.237 471.899 398.87 470.106 396.625C462.766 387.434 452.454 380.543 441.181 377.205C434.838 375.326 427.969 374.491 421.381 375.32C413.947 376.254 407.109 379.694 401.132 384.091C399.795 385.074 401.094 387.337 402.448 386.341Z" fill="#FF008C"/>
<path d="M358.734 326.935C366.212 326.633 373.704 326.697 381.176 327.126C382.778 327.218 384.409 327.324 385.968 326.944C390.056 325.947 392.738 321.893 396.686 320.438C396.324 322.816 395.963 325.194 395.602 327.572C399.759 327.491 403.921 327.654 408.059 328.062C410.169 324.579 412.891 321.469 416.063 318.915C415.113 322.129 414.371 325.404 413.841 328.713C420.71 328.209 427.647 328.643 434.399 330C435.778 327.365 437.74 325.037 440.105 323.232C440.085 325.944 441.981 328.384 444.322 329.754C446.663 331.124 449.401 331.614 452.082 332.024C462.28 333.585 472.815 334.308 482.821 331.801C474.781 325.452 466.528 318.985 456.815 315.726C453.092 314.476 449.223 313.725 445.367 312.977C441.449 312.217 437.529 311.457 433.574 310.919C420.514 309.142 407.168 309.815 394.242 312.395C389.776 313.286 385.336 314.41 381.137 316.171C378.942 317.091 376.823 318.182 374.707 319.271C370.699 321.333 366.692 323.395 362.685 325.458" fill="#FF008C"/>
<path d="M358.733 328.238C366.288 327.941 373.845 328.02 381.394 328.441C384.55 328.617 387.317 328.28 389.996 326.498C392.347 324.935 394.361 322.737 397.031 321.694L395.428 320.091C395.066 322.469 394.705 324.847 394.344 327.226C394.221 328.034 394.673 328.891 395.6 328.875C399.761 328.803 403.916 328.966 408.057 329.365C408.509 329.408 408.959 329.084 409.183 328.719C411.27 325.322 413.893 322.355 416.983 319.836L414.805 318.568C413.865 321.788 413.124 325.055 412.584 328.366C412.458 329.135 412.916 330.08 413.84 330.015C420.609 329.54 427.393 329.94 434.051 331.256C434.605 331.366 435.238 331.188 435.523 330.657C436.894 328.099 438.737 325.936 441.025 324.153L438.801 323.231C439.019 332.09 449.977 333.139 456.571 333.95C465.424 335.039 474.453 335.196 483.167 333.057C484.045 332.842 484.522 331.496 483.742 330.879C477.601 326.03 471.402 321.122 464.407 317.545C456.913 313.713 448.743 312.234 440.537 310.736C423.359 307.6 405.558 307.955 388.607 312.333C379.15 314.777 370.651 319.893 362.026 324.332C360.534 325.1 361.851 327.349 363.341 326.582C367.134 324.631 370.927 322.679 374.719 320.727C378.432 318.816 382.13 316.991 386.128 315.746C394.199 313.233 402.788 311.993 411.208 311.463C419.67 310.931 428.172 311.304 436.541 312.674C440.615 313.341 444.678 314.127 448.72 314.969C452.705 315.799 456.645 316.84 460.374 318.496C468.282 322.009 475.152 327.395 481.899 332.722L482.474 330.544C474.772 332.434 466.796 332.426 458.947 331.613C455.25 331.23 451.376 330.885 447.802 329.819C444.748 328.908 441.494 326.753 441.407 323.231C441.377 322.007 440.045 321.637 439.183 322.31C436.736 324.217 434.738 326.608 433.273 329.342L434.744 328.743C427.86 327.382 420.843 326.917 413.841 327.409L415.097 329.058C415.637 325.748 416.378 322.481 417.319 319.261C417.712 317.912 416.085 317.223 415.141 317.993C411.886 320.646 409.13 323.827 406.933 327.404L408.058 326.758C403.916 326.359 399.761 326.196 395.601 326.269L396.857 327.918C397.219 325.54 397.58 323.162 397.941 320.783C398.072 319.921 397.372 318.777 396.338 319.18C393.69 320.215 391.685 322.083 389.42 323.732C388.364 324.5 387.234 325.23 385.968 325.594C384.332 326.064 382.607 325.902 380.931 325.808C373.539 325.394 366.132 325.34 358.733 325.631C357.062 325.697 357.053 328.304 358.733 328.238Z" fill="#FF008C"/>
<path d="M348.752 374.575C348.82 376.019 349.551 377.175 350.691 378.035C351.801 378.871 353.13 379.183 354.376 379.746C356.965 380.918 357.99 383.9 360.274 385.498C360.798 385.864 361.409 386.167 362.03 386.334C362.481 386.455 363.328 386.415 363.477 386.664C363.707 387.048 363.629 387.696 363.747 388.13C363.894 388.673 364.145 389.173 364.476 389.624C365.121 390.503 365.997 391.134 366.867 391.772C367.622 392.327 368.509 392.915 368.792 393.856C369.273 395.458 371.79 394.775 371.305 393.163C370.65 390.982 368.701 390.131 367.142 388.703C366.314 387.944 366.275 387.259 366.045 386.209C365.732 384.781 364.81 384.1 363.403 383.919C360.624 383.563 359.546 380.558 357.684 378.841C356.615 377.855 355.358 377.329 354.015 376.824C353.013 376.448 351.418 375.856 351.358 374.575C351.279 372.905 348.673 372.896 348.752 374.575Z" fill="#FF008C"/>
<path d="M359.012 369.477C359.631 370.628 360.453 371.666 361.468 372.495C362.504 373.341 363.749 373.804 364.817 374.587C366.531 375.846 366.828 378.309 368.138 379.918C368.848 380.789 369.778 381.332 370.863 381.602C371.477 381.755 372.101 381.825 372.659 382.141C373.263 382.483 373.74 383.039 374.187 383.559C376.33 386.048 378.354 388.65 380.433 391.193C381.495 392.492 383.329 390.639 382.276 389.35C380.269 386.895 378.287 384.418 376.255 381.984C375.403 380.964 374.459 380.02 373.2 379.528C372.147 379.117 370.92 379.191 370.139 378.267C368.828 376.714 368.563 374.544 367.068 373.083C366.136 372.171 364.927 371.701 363.843 371.014C362.725 370.306 361.886 369.32 361.262 368.162C360.466 366.685 358.216 367.999 359.012 369.477Z" fill="#FF008C"/>
<path d="M381.005 375.33C381.741 375.602 382.103 377.001 382.417 377.71C382.669 378.277 382.957 378.804 383.348 379.288C383.818 379.871 384.423 380.169 385.031 380.579C385.642 380.991 385.983 381.853 386.359 382.469C386.855 383.284 387.351 384.098 387.847 384.913C388.84 386.544 389.834 388.175 390.827 389.806C391.698 391.236 393.953 389.928 393.077 388.491C392.032 386.774 390.986 385.057 389.941 383.34C389.392 382.44 388.844 381.54 388.296 380.64C387.8 379.825 387.343 379.015 386.545 378.457C386.05 378.11 385.542 377.941 385.197 377.424C384.85 376.904 384.629 376.3 384.383 375.729C383.815 374.412 383.092 373.332 381.698 372.817C381.038 372.572 380.27 373.089 380.095 373.727C379.895 374.455 380.343 375.085 381.005 375.33Z" fill="#FF008C"/>
</svg>
