<svg width="1000" height="1000" viewBox="0 0 1000 1000" fill="none" xmlns="http://www.w3.org/2000/svg">
<path d="M527.974 400.853C553.827 391.167 578.137 377.377 599.717 360.158C609.688 352.202 619.286 343.251 625.019 331.856C635.628 310.771 630.992 284.59 619.086 264.209C611.449 251.135 601.137 239.898 590.154 229.571C579.253 219.323 567.629 212.148 560.64 198.725C557.148 192.02 552.779 184.912 545.599 182.545C542.891 181.652 539.981 181.526 537.138 181.749C528.481 182.428 520.122 186.396 514.124 192.675C510.12 188.42 504.604 185.793 499.308 183.408C497.256 182.484 495.107 181.623 492.857 181.59C490.607 181.557 488.214 182.518 487.117 184.483C486.154 186.21 486.359 188.401 487.186 190.197C488.012 191.993 489.386 193.472 490.765 194.888C495.399 199.645 500.403 203.102 505.817 206.791C501.97 213.991 503.163 223.644 506.634 230.88C518.051 254.676 544.737 267.878 557.63 290.907C558.242 292 558.839 293.214 558.636 294.45C558.443 295.63 557.565 296.563 556.724 297.413C527.703 326.763 494.351 351.413 461.148 375.935" fill="white"/>
<path d="M528.396 402.397C550.509 394.091 571.504 382.887 590.648 369.043C599.869 362.375 609.065 355.26 616.644 346.721C623.996 338.437 629.365 328.712 631.428 317.765C635.574 295.766 627.843 273.175 615.225 255.265C608.471 245.679 600.427 237.086 591.921 229.042C584.17 221.711 575.302 215.48 568.366 207.315C566.633 205.276 565.056 203.111 563.662 200.826C562.295 198.587 561.17 196.214 559.841 193.952C557.339 189.691 554.269 185.538 550.025 182.875C545.187 179.841 539.418 179.655 533.925 180.537C528.663 181.382 523.546 183.43 519.125 186.403C516.906 187.896 514.846 189.619 512.987 191.542H515.252C512.196 188.352 508.411 186.019 504.477 184.068C500.671 182.18 496.179 179.561 491.782 180.047C487.583 180.512 484.399 183.757 484.951 188.12C485.512 192.566 489.364 195.963 492.52 198.789C496.405 202.269 500.703 205.241 505.005 208.173L504.431 205.982C497.498 219.303 505.23 234.189 513.607 244.754C522.021 255.365 532.658 263.891 542.08 273.547C546.73 278.312 551.113 283.371 554.651 289.028C555.483 290.358 557.013 292.23 557.062 293.845C557.112 295.503 554.679 297.2 553.625 298.252C550.618 301.252 547.564 304.205 544.469 307.115C532.143 318.704 519.182 329.599 505.92 340.096C492.621 350.623 479.011 360.749 465.373 370.831C463.695 372.072 462.016 373.312 460.337 374.552C458.696 375.763 460.292 378.544 461.953 377.317C475.69 367.171 489.425 357.018 502.893 346.517C516.296 336.067 529.434 325.261 541.978 313.789C545.112 310.922 548.207 308.015 551.26 305.063C552.815 303.559 554.359 302.044 555.89 300.516C557.208 299.201 558.854 297.874 559.707 296.186C561.426 292.782 558.528 289.094 556.726 286.33C554.851 283.455 552.764 280.716 550.554 278.09C541.788 267.67 531.057 259.162 521.753 249.257C512.825 239.754 502.664 226.653 505.429 212.71C505.783 210.926 506.356 209.213 507.196 207.598C507.617 206.79 507.367 205.915 506.621 205.407C503.441 203.24 500.254 201.069 497.265 198.639C494.403 196.312 491.125 193.674 489.166 190.502C488.294 189.09 487.68 187.249 488.334 185.622C488.918 184.167 490.522 183.407 491.996 183.23C495.62 182.793 499.536 185.194 502.671 186.739C506.439 188.596 510.062 190.753 512.987 193.807C513.578 194.424 514.66 194.42 515.252 193.807C518.87 190.065 523.298 187.125 528.196 185.341C533.113 183.55 538.93 182.467 544.09 183.777C554.318 186.372 557.475 197.869 562.914 205.495C568.883 213.863 577.043 220.119 584.713 226.818C593.099 234.14 601.009 242.183 607.959 250.886C621.377 267.69 630.797 288.646 629.165 310.55C628.378 321.126 624.64 331.052 618.354 339.58C611.845 348.41 603.205 355.564 594.541 362.182C576.417 376.025 556.466 387.544 535.376 396.23C532.782 397.298 530.17 398.322 527.544 399.308C525.633 400.026 526.461 403.124 528.396 402.397Z" fill="#FF008C"/>
<path d="M518.308 197.835C516.432 202.285 519.231 208.022 523.913 209.257C528.927 210.579 533.919 206.66 534.504 201.703L531.77 202.835C534.174 204.978 537.538 207.362 540.874 205.842C543.785 204.516 543.95 201.229 545.995 199.161H543.73C545.749 201.297 548.537 202.115 551.405 201.685C552.267 201.556 552.725 200.479 552.524 199.715C552.282 198.797 551.405 198.47 550.554 198.597C548.827 198.856 547.168 198.137 545.995 196.896C545.403 196.27 544.326 196.294 543.73 196.896C542.16 198.484 541.777 200.83 540.272 202.403C538.397 204.362 535.501 201.878 534.035 200.571C532.926 199.582 531.463 200.331 531.301 201.703C530.944 204.728 527.352 207.069 524.456 206.078C521.493 205.064 520.235 201.442 521.396 198.687C521.735 197.884 521.031 196.934 520.278 196.717C519.357 196.453 518.642 197.043 518.308 197.835Z" fill="#FF008C"/>
<path d="M506.759 208.051C507.418 206.714 509.019 204.894 510.734 205.174C512.378 205.442 513.536 208.137 514.074 209.467C515.538 213.088 515.692 217.08 515.759 220.934L518.904 220.508L518.839 220.297L518.678 221.531C519.073 220.596 521.148 219.809 522.026 219.435C523.357 218.868 524.763 218.47 526.161 218.107C529.171 217.325 532.296 216.682 535.295 217.832C537.221 218.57 538.055 215.475 536.147 214.743C532.263 213.254 527.965 214.24 524.111 215.344C522.27 215.871 520.424 216.529 518.762 217.492C517.42 218.27 515.24 219.496 515.816 221.359C516.338 223.046 518.994 222.79 518.962 220.934C518.872 215.764 518.54 210.235 515.749 205.717C514.39 203.518 512.447 201.601 509.66 202.057C507.201 202.459 505.08 204.231 503.993 206.435C503.085 208.277 505.846 209.902 506.759 208.051Z" fill="#FF008C"/>
<path d="M357.487 764.925C357.248 781.563 357.079 798.637 362.8 814.262C363.251 815.495 363.798 816.791 364.893 817.515C365.934 818.204 367.261 818.236 368.509 818.245C375.877 818.3 383.245 818.356 390.613 818.411C390.778 817.002 391.175 815.621 391.784 814.34C407.348 817.433 423.39 818.102 439.157 816.315C443.836 815.784 448.705 814.952 452.458 812.107C458.934 807.196 459.757 796.428 454.101 790.591C449.534 785.877 442.496 784.852 436.393 782.437C425.644 778.184 417.074 768.772 413.845 757.672" fill="white"/>
<path d="M355.884 764.925C355.73 775.624 355.616 786.366 357.047 796.994C357.757 802.259 358.838 807.478 360.503 812.529C361.214 814.685 361.882 817.267 363.798 818.687C365.809 820.178 368.603 819.847 370.963 819.865C377.512 819.914 384.062 819.963 390.611 820.012C391.561 820.019 392.098 819.265 392.212 818.411C392.362 817.291 392.697 816.175 393.165 815.148L391.356 815.884C402.428 818.066 413.723 819.092 425.007 818.86C430.566 818.745 436.145 818.373 441.653 817.6C446.271 816.951 451.067 815.685 454.563 812.417C460.102 807.239 461.097 797.788 456.88 791.512C451.633 783.704 441.156 783.42 433.481 779.334C424.819 774.723 418.178 766.658 415.387 757.246C414.802 755.275 411.71 756.114 412.299 758.098C414.703 766.205 419.699 773.387 426.391 778.545C429.737 781.124 433.44 783.103 437.417 784.526C441.529 785.998 445.904 786.957 449.701 789.192C452.96 791.112 455.221 793.954 456.001 797.682C456.715 801.095 456.077 804.825 454.241 807.789C451.979 811.439 447.949 813.119 443.902 813.977C438.914 815.036 433.694 815.318 428.611 815.541C416.416 816.076 404.184 815.156 392.208 812.796C391.567 812.67 390.703 812.866 390.4 813.532C389.677 815.118 389.24 816.685 389.01 818.411L390.611 816.809C385.208 816.769 379.804 816.728 374.401 816.688C373.091 816.678 371.781 816.668 370.471 816.659C369.287 816.65 368.012 816.77 366.842 816.556C364.613 816.148 364.117 813.289 363.52 811.46C360.414 801.935 359.382 791.916 359.095 781.945C358.931 776.273 359.005 770.598 359.086 764.925C359.116 762.864 355.913 762.863 355.884 764.925Z" fill="#FF008C"/>
<path d="M467.508 750.645C473.348 766.226 479.413 782.188 490.435 794.654C491.304 795.637 492.286 796.645 493.57 796.92C494.79 797.182 496.037 796.728 497.202 796.282C504.084 793.649 510.965 791.015 517.847 788.381C517.487 787.009 517.354 785.578 517.454 784.164C533.075 781.372 548.258 776.148 562.289 768.738C566.453 766.54 570.684 763.99 573.141 759.973C577.383 753.04 574.225 742.712 566.831 739.338C560.86 736.613 553.932 738.222 547.369 738.198C535.809 738.155 524.399 732.512 517.347 723.353" fill="white"/>
<path d="M465.961 751.071C469.586 760.741 473.246 770.456 478.162 779.56C480.614 784.101 483.394 788.452 486.579 792.515C488.038 794.376 489.595 796.671 491.68 797.878C494.259 799.37 496.954 798.083 499.461 797.124C505.731 794.725 512 792.325 518.27 789.925C519.098 789.609 519.61 788.866 519.389 787.956C519.082 786.692 518.985 785.462 519.053 784.164L517.877 785.708C528.392 783.812 538.703 780.851 548.606 776.84C553.543 774.841 558.386 772.611 563.095 770.121C567.135 767.984 571.154 765.525 573.871 761.756C578.396 755.478 577.11 746.289 571.776 740.893C564.522 733.555 553.69 737.203 544.643 736.483C534.393 735.668 524.771 730.305 518.476 722.221C517.212 720.596 514.96 722.877 516.212 724.485C521.566 731.362 529.277 736.334 537.704 738.526C542.11 739.673 546.585 739.935 551.116 739.678C555.899 739.407 561.024 738.721 565.601 740.544C572.027 743.103 575.206 751.49 572.489 757.774C570.814 761.651 567.104 764.209 563.557 766.222C559.229 768.679 554.694 770.817 550.119 772.77C539.512 777.299 528.372 780.574 517.026 782.62C516.315 782.748 515.885 783.504 515.85 784.164C515.768 785.734 515.929 787.279 516.3 788.807L517.419 786.837C512.219 788.827 507.02 790.817 501.82 792.807C500.597 793.275 499.374 793.743 498.15 794.211C496.941 794.674 495.328 795.602 493.993 795.376C492.978 795.204 492.21 794.245 491.564 793.521C490.715 792.569 489.899 791.584 489.106 790.584C483.153 783.07 478.782 774.385 475.059 765.592C472.914 760.525 470.98 755.371 469.049 750.22C468.332 748.307 465.236 749.136 465.961 751.071Z" fill="#FF008C"/>
<path d="M389.797 597.069C407.537 653.462 429.447 708.542 455.289 761.713C467.739 758.625 479.915 754.431 491.63 749.207C497.488 746.595 503.231 743.726 508.836 740.608C513.878 737.803 518.648 735.003 522.116 730.247C522.408 729.847 522.7 729.408 522.721 728.913C522.74 728.453 522.522 728.02 522.31 727.612C517.858 719.036 512.536 710.538 508.859 701.673C499.531 679.182 490.41 656.6 482.219 633.665C473.07 608.049 465.066 582.044 457.539 555.91" fill="white"/>
<path d="M388.254 597.495C395.202 619.567 402.781 641.44 410.988 663.076C419.188 684.692 428.012 706.073 437.437 727.184C442.735 739.051 448.229 750.831 453.907 762.521C454.219 763.163 455.066 763.419 455.716 763.257C472.266 759.134 488.332 753.093 503.497 745.283C510.169 741.847 517.652 738.313 522.487 732.37C523.626 730.968 524.776 729.508 524.067 727.626C523.373 725.785 522.237 724.04 521.296 722.316C519.246 718.564 517.131 714.847 515.131 711.067C511.057 703.367 507.907 695.251 504.616 687.195C501.278 679.027 497.986 670.839 494.777 662.619C488.306 646.048 482.218 629.334 476.605 612.453C471.03 595.685 465.862 578.784 460.919 561.82C460.304 559.709 459.693 557.597 459.084 555.485C458.514 553.508 455.423 554.349 455.996 556.336C460.798 573.002 465.79 589.615 471.152 606.11C476.497 622.554 482.247 638.859 488.42 655.011C494.611 671.213 501.009 687.377 507.833 703.325C511.065 710.878 515.294 717.942 519.196 725.156C519.672 726.037 520.144 726.92 520.609 727.808C520.736 728.051 521.149 728.58 521.115 728.848C521.073 729.189 520.557 729.681 520.353 729.94C519.227 731.368 517.914 732.653 516.511 733.807C513.735 736.093 510.535 737.843 507.398 739.575C492.659 747.71 476.984 754.107 460.764 758.617C458.805 759.162 456.838 759.677 454.864 760.169L456.673 760.905C446.622 740.215 437.153 719.243 428.311 698.009C419.476 676.794 411.249 655.326 403.644 633.639C399.344 621.375 395.245 609.04 391.342 596.643C390.725 594.684 387.632 595.521 388.254 597.495Z" fill="#FF008C"/>
<path d="M341.091 593.59C337.061 652.57 337.391 711.847 342.079 770.779C354.799 772.441 367.665 772.972 380.479 772.377C386.886 772.079 393.279 771.5 399.635 770.639C405.353 769.864 410.814 768.995 415.777 765.83C416.195 765.564 416.627 765.262 416.827 764.808C417.012 764.387 416.967 763.904 416.919 763.447C415.898 753.839 414.039 743.986 413.845 734.39C413.355 710.046 413.091 685.693 413.821 661.351C414.636 634.162 416.659 607.028 419.173 579.948" fill="white"/>
<path d="M339.489 593.59C337.919 616.638 337.005 639.729 336.762 662.829C336.52 685.845 336.938 708.868 338.017 731.861C338.626 744.846 339.449 757.82 340.477 770.779C340.553 771.729 341.158 772.261 342.079 772.38C359.372 774.62 376.913 774.811 394.248 772.902C401.72 772.079 410.133 771.482 416.585 767.213C418.21 766.138 418.671 764.863 418.469 762.974C418.24 760.833 417.964 758.696 417.683 756.561C417.127 752.341 416.528 748.127 416.085 743.894C415.187 735.302 415.283 726.624 415.159 717.994C415.033 709.216 414.958 700.438 414.972 691.659C414.998 674.09 415.431 656.528 416.351 638.982C417.272 621.428 418.614 603.897 420.186 586.389C420.379 584.242 420.575 582.095 420.774 579.949C420.965 577.897 417.761 577.91 417.572 579.949C415.987 597.039 414.594 614.149 413.579 631.283C412.564 648.411 411.965 665.558 411.814 682.715C411.663 699.939 411.857 717.17 412.244 734.39C412.429 742.632 413.758 750.779 414.788 758.942C414.918 759.97 415.043 760.998 415.161 762.028C415.24 762.728 415.607 763.836 415.11 764.353C414.531 764.955 413.44 765.36 412.702 765.725C411.878 766.132 411.032 766.484 410.165 766.79C406.692 768.02 403.029 768.578 399.392 769.07C382.527 771.351 365.38 771.619 348.45 769.914C346.322 769.7 344.199 769.452 342.079 769.178L343.68 770.779C341.853 747.75 340.682 724.671 340.181 701.575C339.681 678.563 339.843 655.537 340.666 632.534C341.13 619.542 341.808 606.56 342.692 593.59C342.832 591.533 339.629 591.542 339.489 593.59Z" fill="#FF008C"/>
<path d="M261.712 357.367C250.831 308.165 243.746 268.509 237.008 218.571L355.655 318.935L456.538 192.966L461.875 346.158L590.514 361.637L506.712 431.027L596.919 574.611L463.477 544.186L461.342 674.426L361.527 576.212L287.867 689.371L271.32 546.855L132.006 539.382L229.152 448.108L122.398 354.164L261.712 357.367Z" fill="white"/>
<path d="M263.251 356.941C255.403 321.418 248.54 285.702 243.068 249.733C241.468 239.217 239.972 228.686 238.547 218.145L235.871 219.703C249.309 231.071 262.747 242.439 276.186 253.806C297.431 271.777 318.676 289.749 339.921 307.72C344.787 311.836 349.653 315.952 354.518 320.068C355.122 320.578 356.207 320.787 356.783 320.068C368.204 305.806 379.626 291.544 391.048 277.282C409.113 254.725 427.177 232.168 445.242 209.611C449.383 204.44 453.524 199.269 457.665 194.098L454.932 192.966C455.533 210.215 456.134 227.463 456.735 244.712C457.693 272.209 458.651 299.707 459.609 327.204C459.829 333.522 460.049 339.84 460.269 346.158C460.302 347.101 460.983 347.652 461.871 347.759C476.368 349.504 490.866 351.248 505.363 352.993C528.459 355.772 551.555 358.551 574.651 361.33C579.937 361.966 585.223 362.602 590.509 363.238L589.377 360.505C579.921 368.334 570.466 376.163 561.011 383.992C546.004 396.419 530.997 408.845 515.99 421.271C512.518 424.145 509.047 427.02 505.575 429.895C505.049 430.33 504.974 431.277 505.325 431.835C508.307 436.582 511.289 441.329 514.271 446.076C521.436 457.481 528.601 468.885 535.766 480.29C544.484 494.166 553.202 508.043 561.92 521.919C569.42 533.856 576.92 545.794 584.419 557.732C586.893 561.669 589.367 565.607 591.841 569.544C592.891 571.216 593.923 573.801 595.373 575.167C595.438 575.229 595.483 575.342 595.531 575.419L597.34 573.067C582.238 569.624 567.135 566.18 552.033 562.737C528.157 557.293 504.281 551.849 480.405 546.406C474.902 545.151 469.4 543.897 463.898 542.642C462.877 542.409 461.888 543.112 461.871 544.186C461.629 558.899 461.388 573.611 461.147 588.324C460.764 611.666 460.382 635.008 459.999 658.349C459.911 663.708 459.823 669.067 459.735 674.426L462.469 673.294C451.163 662.169 439.856 651.044 428.55 639.919C410.685 622.34 392.819 604.761 374.954 587.182C370.854 583.148 366.754 579.114 362.654 575.08C361.891 574.329 360.701 574.541 360.139 575.404C351.859 588.125 343.578 600.845 335.298 613.566C322.051 633.916 308.804 654.266 295.558 674.616C292.532 679.265 289.505 683.914 286.479 688.563L289.463 689.371C287.596 673.293 285.73 657.215 283.863 641.136C280.891 615.541 277.919 589.947 274.948 564.352C274.271 558.519 273.593 552.687 272.916 546.855C272.812 545.957 272.265 545.305 271.315 545.254C255.569 544.409 239.822 543.565 224.076 542.72C199.156 541.383 174.237 540.046 149.317 538.71C143.545 538.4 137.773 538.091 132.001 537.781L133.134 540.515C144.106 530.206 155.078 519.897 166.05 509.588C183.461 493.229 200.871 476.871 218.282 460.512C222.281 456.755 226.28 452.997 230.279 449.24C230.881 448.675 230.915 447.535 230.279 446.975C218.228 436.371 206.177 425.766 194.126 415.161C174.951 398.286 155.775 381.412 136.6 364.537C132.242 360.702 127.884 356.867 123.526 353.032L122.393 355.766C138.14 356.128 153.886 356.49 169.632 356.852L244.391 358.57C250.163 358.703 255.935 358.836 261.707 358.968C263.769 359.016 263.768 355.813 261.707 355.766C245.961 355.404 230.214 355.042 214.468 354.68L139.709 352.961C133.937 352.828 128.165 352.696 122.393 352.563C121.059 352.532 120.21 354.372 121.261 355.297C133.312 365.902 145.363 376.506 157.414 387.111C176.59 403.986 195.765 420.86 214.941 437.735C219.299 441.57 223.657 445.405 228.015 449.24V446.975C217.043 457.284 206.071 467.593 195.099 477.902C177.688 494.261 160.277 510.619 142.866 526.978C138.867 530.735 134.868 534.493 130.869 538.25C129.805 539.249 130.677 540.913 132.001 540.984C147.747 541.828 163.494 542.673 179.24 543.517C204.16 544.854 229.079 546.191 253.999 547.528C259.771 547.837 265.543 548.147 271.315 548.456L269.714 546.855C271.58 562.933 273.447 579.012 275.314 595.09C278.286 620.685 281.257 646.28 284.229 671.875C284.906 677.707 285.583 683.539 286.26 689.371C286.439 690.913 288.322 691.597 289.244 690.18C297.525 677.459 305.805 664.738 314.086 652.018C327.332 631.668 340.579 611.318 353.826 590.968C356.852 586.319 359.878 581.67 362.905 577.021L360.389 577.345C371.696 588.47 383.002 599.594 394.308 610.719C412.174 628.298 430.039 645.877 447.905 663.456C452.005 667.49 456.105 671.524 460.204 675.558C461.202 676.54 462.915 675.813 462.938 674.426C463.179 659.713 463.42 645.001 463.662 630.288C464.044 606.946 464.427 583.604 464.81 560.263C464.897 554.904 464.985 549.545 465.073 544.186L463.046 545.73C478.148 549.174 493.251 552.617 508.353 556.06C532.229 561.504 556.105 566.948 579.981 572.391C585.483 573.646 590.986 574.9 596.488 576.155C597.791 576.452 599.073 575.039 598.297 573.803C595.314 569.056 592.332 564.309 589.35 559.562C582.185 548.157 575.02 536.753 567.855 525.348C559.137 511.472 550.419 497.595 541.702 483.719C534.202 471.782 526.702 459.844 519.202 447.906C516.728 443.969 514.254 440.031 511.781 436.094L509.466 432.409C509.115 431.851 508.748 430.908 508.248 430.471C508.183 430.414 508.137 430.294 508.09 430.219L507.84 432.159C517.295 424.33 526.75 416.501 536.205 408.672C551.212 396.246 566.219 383.819 581.226 371.393C584.698 368.519 588.17 365.644 591.641 362.769C592.841 361.776 591.722 360.182 590.509 360.036C576.012 358.291 561.514 356.547 547.017 354.802C523.921 352.023 500.825 349.244 477.728 346.465C472.443 345.829 467.157 345.193 461.871 344.556L463.472 346.158C462.871 328.909 462.27 311.66 461.669 294.412C460.711 266.915 459.753 239.417 458.795 211.92C458.575 205.602 458.354 199.284 458.134 192.966C458.091 191.713 456.324 190.681 455.401 191.834C443.979 206.096 432.557 220.358 421.136 234.619C403.071 257.176 385.006 279.734 366.941 302.291C362.8 307.461 358.659 312.632 354.518 317.803H356.783C343.344 306.436 329.906 295.068 316.468 283.7C295.223 265.729 273.977 247.758 252.732 229.787C247.867 225.671 243.001 221.555 238.135 217.439C236.84 216.344 235.245 217.418 235.459 218.997C240.332 255.049 246.239 290.936 253.514 326.583C255.641 337.005 257.868 347.406 260.163 357.793C260.608 359.804 263.696 358.953 263.251 356.941Z" fill="#FF008C"/>
<path d="M566.223 431.231C566.326 436.579 566.428 441.927 566.531 447.275C566.56 448.758 566.625 450.352 567.523 451.533C568.288 452.538 569.554 453.089 570.248 454.145C571.217 455.619 570.767 457.643 569.807 459.124C568.848 460.604 567.457 461.751 566.379 463.148C555.743 476.934 587.326 503.8 596.718 511.543C598.321 512.865 599.988 514.189 601.061 515.968C601.952 517.446 602.381 519.166 602.544 520.884C603.127 527.05 600.147 533.427 595.044 536.937C589.941 540.446 582.92 540.947 577.371 538.196C574.931 536.987 572.808 535.226 570.81 533.375C562.094 525.3 554.355 515.001 546.806 505.814C538.1 495.219 520.948 468.054 515.25 455.58" fill="#FF008C"/>
<path d="M564.619 431.231C564.675 434.149 564.731 437.066 564.788 439.983C564.842 442.811 564.756 445.683 564.975 448.503C565.07 449.72 565.284 450.942 565.913 452.009C566.529 453.053 567.501 453.637 568.364 454.437C570.344 456.274 568.235 458.708 566.864 460.184C564.711 462.503 563.12 464.858 562.723 468.053C562.398 470.666 562.884 473.338 563.746 475.807C565.921 482.035 570.067 487.488 574.328 492.435C578.75 497.568 583.636 502.296 588.697 506.794C590.598 508.482 592.528 510.136 594.481 511.762C595.806 512.865 597.197 513.913 598.396 515.155C600.208 517.032 600.94 519.422 601.007 521.996C601.122 526.412 599.325 530.806 596.19 533.912C592.898 537.175 588.253 538.66 583.668 538.305C578.518 537.905 574.578 534.767 570.976 531.336C567.05 527.597 563.433 523.547 559.942 519.404C554.275 512.68 548.569 505.882 543.42 498.748C538.71 492.222 534.306 485.469 530.056 478.637C525.99 472.1 522.021 465.473 518.507 458.62C517.856 457.35 517.226 456.07 516.63 454.772C515.772 452.901 513.011 454.527 513.865 456.389C516.886 462.974 520.609 469.258 524.349 475.454C528.748 482.741 533.345 489.917 538.206 496.905C542.993 503.787 548.313 510.235 553.601 516.734C557.146 521.092 560.753 525.408 564.619 529.487C568.207 533.274 572.109 537.508 576.91 539.747C585.8 543.891 596.743 540.591 601.624 532.033C603.95 527.955 604.881 522.92 603.73 518.327C602.674 514.117 599.36 511.687 596.205 509.046C591.506 505.114 586.94 501.015 582.624 496.664C577.67 491.67 572.866 486.32 569.326 480.207C566.866 475.96 564.351 470.134 566.769 465.501C568.674 461.85 573.716 459.221 572.121 454.381C571.352 452.047 568.572 451.405 568.214 448.912C568.024 447.584 568.109 446.182 568.083 444.844C568.052 443.224 568.021 441.603 567.99 439.983C567.934 437.065 567.878 434.148 567.822 431.231C567.782 429.173 564.58 429.166 564.619 431.231Z" fill="#FF008C"/>
<path d="M642.228 268.053C647.994 260.402 653.621 251.638 662.692 248.555C670.905 245.763 680.067 248.455 687.531 252.872C700.654 260.637 710.125 273.284 718.095 286.284C738.639 319.797 751.677 359.22 747.447 398.3C746.174 410.061 742.08 423.273 731.215 427.954C727.128 429.715 722.576 430.001 718.129 430.154C695.196 430.944 672.178 428.869 649.318 430.86C614.126 433.925 580.552 446.491 547.516 459.001C537.405 462.83 527.2 466.691 516.506 468.282C500.375 470.681 484.043 468.204 472.88 455.692C463.138 444.773 458.275 429.193 461.53 414.766C464.427 401.927 472.79 390.847 482.839 382.346C495.338 371.773 510.529 363.802 524.069 354.818C537.985 345.584 552.477 337.267 566.803 328.697C594.535 312.108 622.508 294.215 642.228 268.053Z" fill="#84FF20"/>
<path d="M381.69 514.295C409.675 533.934 439.044 551.6 469.508 567.118C470.68 567.715 472.053 568.319 473.259 567.794C474.075 567.439 474.598 566.647 475.077 565.898C483.368 552.927 492.262 540.342 501.72 528.197C509.245 518.533 519.098 506.62 521.238 494.301C522.084 489.437 521.983 484.223 524.44 479.941C526.896 475.658 533.404 473.184 536.772 476.795C539.257 479.46 539.162 484.42 542.545 485.773C544.661 486.62 547.059 485.469 548.788 483.985C551.97 481.255 561.095 461.41 566.392 468.184C567.551 469.668 567.763 471.658 567.932 473.533C570.192 471.34 573.941 470.874 576.669 472.447C579.398 474.021 580.873 477.498 580.107 480.554C582.586 479.065 585.993 479.321 588.222 481.163C590.452 483.005 591.345 486.302 590.35 489.018C593.768 488.578 596.323 492.348 596.679 495.775C597.987 508.367 586.92 521.479 577.412 528.531C574.082 531 570.434 533.117 567.633 536.173C564.911 539.143 563.14 542.839 561.364 546.455C550.08 569.424 536.251 595.693 515.216 611.123C494.813 626.09 468.49 631.62 443.254 629.771C418.018 627.923 393.715 619.163 371.107 607.797C354.07 599.232 337.619 589.007 324.344 575.318" fill="white"/>
<path d="M380.881 515.677C398.587 528.093 416.835 539.731 435.571 550.53C444.901 555.908 454.351 561.079 463.91 566.039C466.088 567.169 468.359 568.687 470.731 569.362C473.125 570.043 474.929 568.978 476.25 567.028C479.282 562.556 482.139 557.968 485.194 553.509C491.322 544.563 497.757 535.837 504.439 527.298C510.363 519.726 516.45 512.027 520.219 503.103C522.093 498.665 522.91 494.201 523.49 489.445C524.004 485.229 524.748 480.273 528.687 477.863C530.117 476.988 531.893 476.396 533.577 476.753C535.268 477.113 536.185 478.459 536.862 479.94C538.307 483.104 539.262 487.092 543.349 487.602C549.623 488.384 552.854 481.155 555.684 476.895C557.237 474.556 558.844 472.184 560.865 470.217C561.523 469.576 562.394 468.835 563.16 468.537C563.78 468.296 564.187 468.305 564.605 468.63C565.958 469.683 566.175 471.857 566.329 473.533C566.456 474.912 567.988 475.648 569.063 474.665C570.915 472.973 573.859 472.573 576.021 473.929C578.065 475.211 579.077 477.793 578.562 480.128C578.263 481.483 579.658 482.639 580.914 481.936C585.442 479.404 590.403 483.777 588.806 488.592C588.497 489.521 589.337 490.708 590.35 490.619C592.713 490.412 594.208 492.539 594.813 494.598C595.51 496.969 595.234 499.738 594.727 502.121C593.606 507.394 590.838 512.233 587.545 516.448C584.218 520.706 580.242 524.533 575.858 527.691C573.503 529.388 571.054 530.959 568.829 532.83C566.589 534.714 564.751 536.966 563.233 539.463C560.288 544.306 558.048 549.623 555.475 554.672C552.981 559.567 550.404 564.422 547.676 569.192C542.108 578.925 535.912 588.38 528.438 596.768C520.928 605.196 512.146 612.183 502.076 617.319C491.684 622.62 480.288 625.911 468.743 627.463C444.074 630.779 419.143 625.873 396.07 617.124C384.3 612.661 372.863 607.227 361.866 601.108C351.253 595.202 341.041 588.472 331.954 580.384C329.72 578.396 327.561 576.327 325.475 574.185C324.035 572.706 321.771 574.971 323.211 576.45C340.951 594.67 364.125 607.284 387.369 617.069C411.111 627.062 436.944 633.437 462.844 631.298C486.716 629.326 509.88 620.295 526.889 603.098C543.243 586.563 553.552 565.493 563.882 544.965C565.277 542.193 566.787 539.417 568.922 537.137C571.042 534.873 573.626 533.154 576.155 531.389C580.743 528.186 584.956 524.513 588.572 520.23C592.197 515.938 595.318 511.109 597.069 505.737C598.602 501.034 599.438 494.845 596.377 490.561C594.974 488.598 592.836 487.199 590.35 487.417L591.894 489.444C593.007 486.088 591.973 482.154 589.198 479.91C586.387 477.637 582.422 477.423 579.298 479.171L581.65 480.979C582.475 477.236 580.952 473.202 577.638 471.163C574.21 469.055 569.704 469.746 566.799 472.4L569.532 473.533C569.246 470.423 568.464 466.118 564.84 465.29C562.52 464.76 560.361 466.281 558.768 467.79C554.714 471.631 552.149 476.784 548.956 481.297C548.458 482.002 548.087 482.545 547.302 483.14C545.741 484.323 543.427 485.184 541.977 483.398C540.919 482.095 540.487 480.299 539.831 478.784C539.109 477.113 538.126 475.56 536.564 474.559C533.352 472.5 529.07 473.565 526.191 475.698C522.451 478.469 521.177 482.981 520.553 487.397C519.868 492.247 519.33 496.875 517.463 501.453C515.625 505.963 513.045 510.17 510.295 514.174C504.483 522.637 497.804 530.494 491.732 538.771C488.458 543.234 485.258 547.751 482.135 552.321C480.574 554.606 479.031 556.903 477.508 559.214C476.794 560.297 476.084 561.383 475.379 562.472C474.669 563.567 474.034 564.905 473.15 565.867C472.306 566.786 471.28 566.21 470.315 565.735C469.012 565.094 467.727 564.412 466.437 563.745C464.008 562.489 461.585 561.219 459.17 559.936C454.339 557.369 449.538 554.748 444.766 552.073C425.754 541.416 407.22 529.906 389.24 517.587C386.984 516.042 384.737 514.482 382.498 512.912C380.806 511.726 379.204 514.501 380.881 515.677Z" fill="#FF008C"/>
<path d="M665.629 272.954C662.263 293.779 663.702 315.29 669.922 335.457C675.603 353.876 685.28 370.949 698.019 385.402C705.088 393.423 713.102 400.574 721.836 406.737C723.523 407.928 725.125 405.152 723.452 403.972C708.423 393.365 695.666 379.604 686.151 363.867C675.954 347.003 669.619 327.893 667.689 308.279C666.56 296.807 666.878 285.187 668.718 273.806C669.044 271.79 665.958 270.922 665.629 272.954Z" fill="#FF008C"/>
<path d="M703.111 388.577C703.218 388.688 728.67 368.212 730.414 366.89C737.057 361.853 743.772 356.845 750.82 352.381C753.124 350.921 758.129 349.375 759.835 347.488C763.231 343.731 760.914 335.959 759.778 331.542C757.29 321.873 753.729 312.48 749.18 303.592C746.871 299.081 743.845 293.111 738.403 293.181C734.951 293.226 730.045 296.014 726.653 296.976C717.756 299.497 708.709 301.496 699.648 303.329C688.55 305.574 677.384 307.581 666.18 309.222C667.56 322.313 670.833 335.205 675.934 347.341C682.35 362.604 691.641 376.639 703.111 388.577Z" fill="white"/>
<path d="M703.116 390.178C704.029 390.202 704.962 389.19 705.607 388.687C706.96 387.631 708.304 386.563 709.648 385.495C713.538 382.404 717.417 379.299 721.297 376.196C724.366 373.742 727.429 371.281 730.509 368.841C730.697 368.692 730.886 368.543 731.074 368.394C731.229 368.272 731.69 367.922 731.182 368.307C732.924 366.988 734.667 365.67 736.42 364.364C740.285 361.487 744.193 358.666 748.202 355.994C749.893 354.868 751.568 353.695 753.407 352.82C754.953 352.085 756.546 351.447 758.065 350.654C761.091 349.074 762.758 346.739 763.13 343.319C763.503 339.904 762.684 336.396 761.843 333.106C760.78 328.942 759.612 324.812 758.212 320.748C756.716 316.407 754.998 312.14 753.082 307.966C751.468 304.451 749.811 300.816 747.649 297.594C745.856 294.923 743.424 292.338 740.119 291.737C736.452 291.07 732.845 292.882 729.542 294.226C725.381 295.918 720.936 296.904 716.58 297.966C711.85 299.12 707.094 300.164 702.326 301.151C692.611 303.163 682.856 304.986 673.06 306.557C670.629 306.947 668.195 307.32 665.759 307.678C665.132 307.77 664.516 308.592 664.583 309.222C667.114 332.839 675.633 355.546 689.564 374.81C693.357 380.055 697.507 385.035 701.984 389.709C703.412 391.201 705.675 388.934 704.248 387.445C688.609 371.115 677.193 350.997 671.444 329.114C669.729 322.585 668.505 315.933 667.786 309.222L666.61 310.766C685.321 308.016 704.087 304.606 722.387 299.801C724.375 299.279 726.401 298.804 728.339 298.112C730.14 297.469 731.882 296.671 733.671 295.994C736.615 294.88 739.584 294.048 742.259 296.209C744.71 298.19 746.179 301.236 747.588 303.982C749.595 307.894 751.433 311.89 753.048 315.981C754.683 320.124 756.115 324.348 757.335 328.632C758.282 331.96 759.279 335.362 759.788 338.791C760.166 341.34 760.473 345.071 758.165 346.862C755.762 348.727 752.595 349.418 750.016 350.998C740.103 357.07 730.955 364.398 721.886 371.65C718.089 374.686 714.293 377.724 710.491 380.755C708.891 382.032 707.29 383.307 705.685 384.578C705.074 385.061 704.462 385.544 703.849 386.025C703.62 386.206 703.39 386.385 703.16 386.565C703.1 386.612 702.79 386.851 702.994 386.694C703.204 386.532 702.898 386.767 702.845 386.808C702.737 386.889 702.589 386.971 702.497 387.069C702.218 387.369 701.852 386.942 703.116 386.975C701.054 386.921 701.056 390.123 703.116 390.178Z" fill="#FF008C"/>
<path d="M748.003 346.145C750.553 347.904 754.711 350.359 757.843 348.933C759.364 348.24 760.553 347.01 761.508 345.679C764.157 341.984 765.207 337.428 765.501 332.951C766.251 321.52 762.24 309.863 754.545 301.11C751.924 298.129 748.795 295.416 744.984 294.061C743.212 293.431 741.277 293.11 739.422 293.456C737.077 293.894 735.02 295.4 733.746 297.341C731.887 300.17 731.318 304.455 731.27 307.749C731.213 311.689 731.671 315.63 732.569 319.473C734.331 327.015 737.773 334.188 742.467 340.46C744.051 342.576 745.798 344.624 748.003 346.145Z" fill="#FF008C"/>
<path d="M707.302 254.574C703.504 260.825 700.979 267.507 697.438 273.936C695.489 277.474 693.616 281.054 691.821 284.673C690.425 287.487 687.237 291.87 686.961 294.991C688.956 272.45 693.657 250.15 700.931 228.722C701.193 227.949 701.477 227.148 702.06 226.577C706.08 222.648 712.71 232.551 714.81 234.794C716.18 236.256 728.898 248.205 728.399 249.304C736.826 230.692 746.032 211.703 761.378 198.214C760.493 204.716 758.678 211.049 756.869 217.356C753.322 229.723 749.774 242.091 746.227 254.458C744.523 260.397 742.814 266.351 740.466 272.065C740.101 272.951 739.539 273.968 738.582 274.023C738.044 274.054 737.549 273.754 737.094 273.465C727.163 267.168 717.233 260.871 707.302 254.574Z" fill="white"/>
<path d="M705.919 253.766C703.772 257.33 701.981 261.08 700.199 264.836C698.421 268.585 696.511 272.24 694.55 275.896C692.727 279.294 691.113 282.816 689.174 286.148C687.565 288.911 685.732 291.75 685.359 294.991H688.562C690.282 275.743 693.979 256.686 699.574 238.188C700.284 235.84 701.024 233.502 701.795 231.173C702.197 229.959 702.536 227.536 704.007 227.275C705.8 226.956 708.196 229.6 709.402 230.893C710.926 232.528 712.21 234.376 713.744 235.996C714.915 237.234 716.179 238.391 717.396 239.582C719.523 241.661 721.644 243.749 723.695 245.903C724.525 246.775 725.35 247.655 726.121 248.58C726.49 249.023 726.404 248.906 726.706 249.343C727.158 249.996 726.675 249.457 726.855 248.879C726.328 250.575 729.023 251.788 729.782 250.113C736.271 235.786 743.1 221.252 753.174 209.037C756.033 205.57 759.143 202.322 762.51 199.347L759.833 197.789C758.81 205.117 756.678 212.214 754.643 219.309C752.55 226.603 750.458 233.896 748.366 241.19C746.309 248.362 744.361 255.578 742.115 262.694C741.591 264.355 741.042 266.009 740.453 267.648C740.185 268.393 739.91 269.136 739.624 269.874C739.38 270.506 739.157 271.664 738.645 272.146C738.242 272.526 738.745 272.32 738.251 272.296C737.945 272.281 737.318 271.713 737.063 271.551C736.363 271.107 735.664 270.664 734.964 270.22C733.286 269.156 731.608 268.092 729.929 267.027C722.656 262.415 715.383 257.803 708.11 253.192C706.364 252.085 704.756 254.855 706.494 255.957C713.347 260.303 720.201 264.649 727.054 268.994C728.732 270.059 730.411 271.123 732.089 272.187C733.687 273.201 735.282 274.45 736.998 275.247C740.704 276.967 742.081 272.425 743.05 269.837C745.81 262.475 747.788 254.824 749.954 247.273C752.137 239.662 754.32 232.052 756.503 224.441C758.943 215.936 761.695 207.427 762.922 198.64C763.138 197.089 761.527 195.949 760.245 197.082C748.214 207.715 739.861 221.685 732.87 235.971C730.844 240.11 728.918 244.298 727.016 248.496L729.943 249.73C730.447 248.109 728.375 246.269 727.438 245.228C725.584 243.171 723.616 241.215 721.648 239.269C719.98 237.62 718.288 235.996 716.621 234.346C715.22 232.96 714.062 231.358 712.776 229.868C710.885 227.678 708.629 225.194 705.777 224.312C704.516 223.922 703.1 223.989 701.945 224.664C700.043 225.775 699.507 227.916 698.857 229.871C695.558 239.78 692.808 249.872 690.62 260.084C688.153 271.598 686.407 283.264 685.359 294.991C685.174 297.061 688.331 297.003 688.562 294.991C688.896 292.085 691.061 289.333 692.462 286.858C694.348 283.527 695.953 280.028 697.775 276.658C701.564 269.653 704.573 262.206 708.685 255.382C709.751 253.612 706.983 252.001 705.919 253.766Z" fill="#FF008C"/>
<path d="M776.903 387.937C769.769 386.322 762.631 386.052 755.41 384.737C751.436 384.014 747.446 383.376 743.445 382.825C740.332 382.395 735.163 380.766 732.117 381.496C754.123 376.224 776.761 373.593 799.39 373.679C800.206 373.682 801.056 373.696 801.782 374.068C806.785 376.631 799.503 386.065 798.044 388.769C797.093 390.532 789.806 406.388 788.605 406.265C808.931 408.339 829.861 411.033 847.527 421.295C841.082 422.523 834.5 422.815 827.945 423.105C815.092 423.672 802.238 424.239 789.384 424.806C783.212 425.078 777.024 425.35 770.859 424.94C769.903 424.876 768.761 424.666 768.405 423.776C768.204 423.276 768.331 422.711 768.46 422.188C771.274 410.771 774.089 399.354 776.903 387.937Z" fill="white"/>
<path d="M777.332 386.392C773.265 385.489 769.132 384.975 764.999 384.479C760.724 383.966 756.502 383.281 752.258 382.565C748.555 381.941 744.807 381.535 741.13 380.771C738.076 380.136 734.811 379.291 731.694 379.952L732.546 383.04C751.597 378.493 771.086 375.911 790.666 375.381C793.089 375.316 795.514 375.281 797.938 375.278C799.154 375.276 801.29 374.918 801.825 376.305C802.514 378.094 800.778 381.052 799.875 382.674C798.846 384.524 797.572 386.239 796.585 388.111C795.764 389.668 795.043 391.282 794.275 392.865C793.014 395.47 791.742 398.071 790.389 400.629C789.826 401.693 789.254 402.755 788.622 403.78C788.403 404.134 788.183 404.495 787.928 404.824C788.194 404.481 787.895 404.908 787.851 404.896C787.817 404.886 787.776 405.003 787.739 405.003C787.962 405.004 788.299 404.67 788.608 404.663C786.509 404.71 786.593 407.66 788.608 407.866C804.194 409.459 819.992 411.374 834.728 416.983C838.872 418.56 842.882 420.461 846.722 422.678L847.105 419.751C839.813 421.114 832.374 421.308 824.982 421.634C817.566 421.961 810.151 422.288 802.735 422.615C795.364 422.941 787.987 423.377 780.61 423.519C778.822 423.553 777.034 423.56 775.246 423.524C774.271 423.504 773.296 423.472 772.323 423.423C771.739 423.394 770.46 423.559 769.988 423.177C769.77 423 769.845 423.051 770.007 422.613C770.148 422.234 770.208 421.801 770.305 421.407C770.523 420.523 770.741 419.638 770.959 418.754C771.434 416.824 771.91 414.895 772.386 412.965C774.407 404.764 776.429 396.563 778.45 388.362C778.943 386.361 775.856 385.507 775.362 387.511C773.42 395.39 771.477 403.269 769.535 411.149C769.059 413.078 768.584 415.008 768.108 416.938C767.653 418.784 767.009 420.678 766.768 422.565C766.24 426.69 770.953 426.589 773.784 426.687C781.781 426.963 789.805 426.388 797.792 426.036C805.702 425.687 813.612 425.338 821.522 424.989C830.345 424.6 839.25 424.466 847.956 422.839C849.346 422.58 849.466 420.563 848.339 419.912C834.29 411.805 818.299 408.348 802.376 406.237C797.796 405.629 793.203 405.133 788.608 404.663V407.866C790.357 407.827 791.389 405.441 792.117 404.152C793.456 401.779 794.667 399.331 795.868 396.886C796.912 394.763 797.925 392.624 798.966 390.499C799.805 388.789 800.903 387.233 801.882 385.601C803.373 383.112 805.005 380.256 805.114 377.282C805.161 375.996 804.799 374.679 803.923 373.712C802.542 372.187 800.597 372.078 798.666 372.075C788.079 372.063 777.491 372.643 766.969 373.812C755.097 375.131 743.313 377.179 731.694 379.952C729.682 380.432 730.538 383.466 732.546 383.04C735.32 382.451 738.439 383.496 741.146 384.037C744.853 384.777 748.636 385.174 752.363 385.816C756.329 386.5 760.286 387.116 764.283 387.596C768.372 388.087 772.456 388.586 776.48 389.48C778.489 389.927 779.346 386.84 777.332 386.392Z" fill="#FF008C"/>
<path d="M805.949 266.597C806.852 265.618 807.853 264.584 809.164 264.353C810.624 264.094 812.045 264.902 813.272 265.735C818.503 269.287 823.008 273.903 826.431 279.219C833.585 273.103 842.045 268.477 849.901 263.162C858.831 257.119 868.011 251.421 877.602 246.481C875.239 247.699 872.792 252.09 871.151 254.178C863.464 263.961 856.829 274.503 849.74 284.713C846.207 289.801 842.56 294.816 838.62 299.597C835.054 303.924 831.095 309.422 826.352 312.459C821.346 306.064 816.434 299.595 811.619 293.054C795.841 297.912 780.212 303.25 764.758 309.056C771.651 301.867 778.685 294.812 785.854 287.898C792.893 281.11 799.308 273.793 805.949 266.597Z" fill="white"/>
<path d="M807.085 267.729C807.686 267.083 808.358 266.237 809.243 265.979C810.137 265.719 811.038 266.226 811.779 266.673C813.57 267.753 815.236 269.101 816.803 270.481C819.978 273.277 822.746 276.482 825.052 280.027C825.647 280.943 826.759 281.037 827.567 280.351C833.439 275.364 840.088 271.429 846.552 267.278C853.214 263 859.714 258.506 866.527 254.464C870.425 252.15 874.386 249.945 878.414 247.864L876.797 245.099C874.941 246.133 873.621 247.944 872.406 249.636C871.055 251.518 869.733 253.396 868.324 255.236C864.784 259.86 861.452 264.639 858.177 269.453C851.459 279.329 844.95 289.363 837.369 298.613C833.772 303.002 830.364 307.924 825.547 311.076L827.488 311.327C822.567 305.037 817.741 298.675 813.005 292.246C812.589 291.681 811.923 291.286 811.197 291.51C795.42 296.373 779.792 301.71 764.335 307.512L765.893 310.189C772.79 303 779.831 295.957 786.99 289.03C794.01 282.238 800.467 274.906 807.085 267.729C808.48 266.216 806.221 263.946 804.82 265.465C798.202 272.641 791.745 279.973 784.725 286.766C777.567 293.693 770.525 300.736 763.629 307.924C762.596 309 763.614 311.191 765.187 310.601C780.643 304.798 796.271 299.462 812.048 294.598L810.239 293.862C815.137 300.511 820.134 307.087 825.223 313.591C825.636 314.119 826.624 314.195 827.164 313.842C831.521 310.99 834.795 306.884 838.022 302.869C841.572 298.451 845.085 294.03 848.383 289.418C855.303 279.74 861.625 269.645 868.681 260.063C870.389 257.744 872.225 255.516 873.857 253.143C875.115 251.314 876.416 248.977 878.414 247.864C880.223 246.857 878.623 244.156 876.797 245.099C869.574 248.83 862.575 252.975 855.744 257.382C849.136 261.645 842.535 265.934 835.96 270.25C832.27 272.671 828.668 275.228 825.302 278.087L827.817 278.411C824.982 274.053 821.51 270.12 817.456 266.859C815.604 265.37 813.509 263.521 811.163 262.9C808.546 262.208 806.521 263.635 804.82 265.465C803.418 266.973 805.677 269.243 807.085 267.729Z" fill="#FF008C"/>
<path d="M509.121 366.39C502.81 381.745 504.815 399.064 509.782 414.494C510.815 417.701 511.911 420.918 513.408 423.943C514.719 426.593 516.276 429.121 517.938 431.563C521.752 437.166 526.135 442.408 530.858 447.265C535.534 452.073 540.643 456.778 546.469 460.165C548.254 461.203 549.868 458.437 548.085 457.4C543.206 454.563 538.913 450.744 534.908 446.798C530.249 442.208 525.914 437.245 522.094 431.933C518.646 427.138 515.814 422.159 513.858 416.581C511.223 409.061 509.25 401.234 508.594 393.277C507.864 384.416 508.813 375.504 512.209 367.242C512.541 366.436 511.85 365.49 511.091 365.272C510.176 365.009 509.449 365.595 509.121 366.39Z" fill="#FF008C"/>
<path d="M359.626 601.638C359.46 623.854 359.663 646.073 360.295 668.281C360.92 690.201 361.963 712.109 363.422 733.989C364.258 746.526 365.231 759.054 366.33 771.572C366.508 773.609 369.713 773.628 369.532 771.572C367.591 749.44 366.046 727.275 364.939 705.086C363.847 683.184 363.178 661.261 362.91 639.334C362.756 626.769 362.734 614.203 362.828 601.638C362.844 599.577 359.641 599.575 359.626 601.638Z" fill="#FF008C"/>
<path d="M384.734 614.052C384.578 634.456 385.028 654.862 385.801 675.251C386.591 696.093 387.729 716.921 389.07 737.734C389.797 749.017 390.586 760.296 391.417 771.572C391.567 773.615 394.771 773.631 394.619 771.572C393.119 751.216 391.757 730.849 390.646 710.468C389.51 689.646 388.627 668.808 388.19 647.958C387.952 636.658 387.85 625.354 387.937 614.052C387.952 611.99 384.75 611.988 384.734 614.052Z" fill="#FF008C"/>
<path d="M427.029 643.268C433.183 657.801 439.584 672.228 446.049 686.624C452.756 701.559 459.545 716.456 466.291 731.374C469.893 739.339 473.483 747.31 477.033 755.299C477.869 757.179 480.629 755.551 479.799 753.682C473.389 739.26 466.855 724.892 460.339 710.517C453.579 695.607 446.828 680.693 440.219 665.715C436.69 657.718 433.203 649.701 429.794 641.652C429.454 640.849 428.286 640.689 427.603 641.078C426.774 641.55 426.694 642.477 427.029 643.268Z" fill="#FF008C"/>
<path d="M461.328 633.417C468.776 663.118 479.161 692.066 492.279 719.734C495.972 727.523 499.886 735.206 504.005 742.778C504.99 744.589 507.757 742.974 506.77 741.162C492.268 714.504 480.397 686.445 471.393 657.463C468.836 649.231 466.513 640.927 464.417 632.566C463.916 630.568 460.826 631.415 461.328 633.417Z" fill="#FF008C"/>
<path d="M447.104 743.923C465.743 737.948 483.799 730.147 500.904 720.631C505.766 717.926 510.549 715.08 515.252 712.107C516.989 711.008 515.384 708.236 513.635 709.342C497.26 719.695 479.88 728.457 461.785 735.384C456.659 737.346 451.479 739.16 446.253 740.835C444.298 741.462 445.134 744.555 447.104 743.923Z" fill="#FF008C"/>
<path d="M433.865 716.624C452.458 711.475 470.402 703.968 487.107 694.315C491.819 691.592 496.428 688.695 500.932 685.642C502.628 684.492 501.028 681.716 499.315 682.877C483.508 693.592 466.368 702.315 448.367 708.701C443.309 710.496 438.186 712.104 433.014 713.536C431.03 714.085 431.873 717.176 433.865 716.624Z" fill="#FF008C"/>
<path d="M423.319 690.876C431.547 686.319 440.597 683.693 449.473 680.731C453.913 679.25 458.321 677.667 462.593 675.748C467.176 673.689 471.569 671.24 475.973 668.83C481.142 666 486.311 663.17 491.48 660.341C493.289 659.351 491.674 656.584 489.864 657.575C480.937 662.462 472.113 667.699 462.923 672.08C454.386 676.151 445.224 678.593 436.333 681.738C431.313 683.514 426.366 685.528 421.702 688.111C419.899 689.11 421.512 691.877 423.319 690.876Z" fill="#FF008C"/>
<path d="M463.745 645.378C470.773 642.403 477.801 639.428 484.83 636.453C485.632 636.113 485.792 634.944 485.404 634.262C484.932 633.432 484.005 633.352 483.213 633.687C476.185 636.662 469.157 639.637 462.128 642.612C461.325 642.952 461.166 644.121 461.554 644.803C462.026 645.633 462.953 645.713 463.745 645.378Z" fill="#FF008C"/>
<path d="M416.072 657.158C417.191 656.017 418.675 655.481 420.155 654.966C421.865 654.371 423.555 653.735 425.222 653.029C428.659 651.572 431.967 649.848 435.131 647.867C436.874 646.776 435.268 644.004 433.514 645.102C430.283 647.125 426.892 648.916 423.362 650.362C420.175 651.667 416.298 652.354 413.807 654.894C412.363 656.366 414.626 658.633 416.072 657.158Z" fill="#FF008C"/>
<path d="M340.154 746.773C359.079 747.389 378.088 747.291 396.863 744.575C402.158 743.809 407.418 742.823 412.625 741.598C414.631 741.126 413.782 738.038 411.774 738.51C393.513 742.804 374.716 743.962 356.005 743.884C350.72 743.863 345.437 743.742 340.155 743.57C338.093 743.503 338.095 746.706 340.154 746.773Z" fill="#FF008C"/>
<path d="M340.805 717.474C359.82 717.655 378.838 716.49 397.687 713.974C403.029 713.261 408.355 712.444 413.664 711.523C415.691 711.171 414.831 708.084 412.812 708.434C394.298 711.648 375.566 713.548 356.783 714.112C351.459 714.272 346.131 714.322 340.805 714.272C338.743 714.252 338.741 717.455 340.805 717.474Z" fill="#FF008C"/>
<path d="M339.182 684.766C358.623 681.622 378.431 683.372 397.951 681.094C403.424 680.455 408.856 679.514 414.183 678.094C416.173 677.564 415.329 674.473 413.332 675.006C394.25 680.092 374.356 678.775 354.833 679.928C349.307 680.254 343.796 680.794 338.33 681.678C336.301 682.006 337.162 685.092 339.182 684.766Z" fill="#FF008C"/>
<path d="M339.349 647.07C358.81 647.892 378.309 648.715 397.781 647.757C403.278 647.486 408.766 647.068 414.238 646.48C416.265 646.262 416.288 643.057 414.238 643.277C394.853 645.362 375.327 645.203 355.869 644.525C350.361 644.333 344.855 644.1 339.349 643.868C337.288 643.781 337.292 646.983 339.349 647.07Z" fill="#FF008C"/>
<path d="M339.94 620.795C357.964 622.903 376.013 625.013 394.157 625.733C399.265 625.935 404.376 626.022 409.488 625.977C411.548 625.959 411.553 622.756 409.488 622.775C391.33 622.935 373.222 621.341 355.191 619.344C350.105 618.781 345.022 618.187 339.94 617.593C337.897 617.354 337.914 620.558 339.94 620.795Z" fill="#FF008C"/>
<path d="M414.227 666.709C418.096 676.149 421.965 685.589 425.834 695.03C425.759 679.827 427.593 664.617 431.278 649.868C431.614 648.525 431.961 647.088 431.49 645.787C431.12 644.768 430.3 643.989 429.506 643.25C425.07 639.119 420.634 634.989 416.198 630.858C415.778 642.997 416.479 654.991 414.37 666.953" fill="#FF008C"/>
<path d="M412.678 667.135C416.547 676.575 420.416 686.015 424.285 695.456C424.927 697.022 427.438 696.979 427.431 695.03C427.396 685.47 428.077 675.905 429.548 666.457C430.294 661.663 431.231 656.898 432.357 652.179C432.836 650.175 433.611 648.036 433.184 645.956C432.74 643.794 430.905 642.371 429.375 640.946C425.358 637.206 421.342 633.466 417.325 629.726C416.298 628.77 414.638 629.455 414.592 630.859C414.195 642.75 414.861 654.751 412.821 666.527C412.472 668.543 415.558 669.409 415.909 667.379C418.001 655.302 417.388 643.051 417.794 630.859L415.061 631.991C418.478 635.172 421.895 638.354 425.312 641.536C426.151 642.317 426.99 643.099 427.83 643.88C428.528 644.531 429.406 645.183 429.846 646.048C430.292 646.926 430.089 647.915 429.878 648.832C429.613 649.982 429.314 651.123 429.046 652.272C426.979 661.152 425.575 670.191 424.832 679.278C424.404 684.518 424.209 689.773 424.228 695.03L427.373 694.604C423.504 685.164 419.635 675.724 415.766 666.283C415.435 665.477 414.705 664.925 413.796 665.165C413.036 665.365 412.35 666.335 412.678 667.135Z" fill="#FF008C"/>
<path d="M624.582 752.953C620.776 750.221 622.816 743.634 626.598 741.953C632.492 739.333 638.766 744.437 640.629 749.797C641.941 753.569 641.955 757.678 641.35 761.589C641.042 763.579 644.009 764.492 644.438 762.441C645.212 758.74 646.653 755.203 648.759 752.058C650.657 749.223 653.297 746.472 656.627 745.406C664.355 742.931 669.814 750.784 670.004 757.686C670.159 763.327 668.004 768.713 665.974 773.872C665.274 775.652 667.941 776.516 668.9 775.106C673.623 768.166 683.177 765.587 691.022 767.998C699.522 770.61 703.95 779.143 703.231 787.697C702.831 792.445 700.741 796.966 697.176 800.151C695.636 801.527 697.907 803.786 699.441 802.416C706.91 795.743 708.423 784.097 704.117 775.275C699.643 766.108 689.057 762.336 679.43 764.567C674.061 765.811 669.246 768.919 666.135 773.49L669.062 774.724C671.121 769.49 673.191 764.08 673.216 758.373C673.235 753.909 671.766 749.379 668.769 746.023C665.957 742.875 661.747 741.265 657.562 741.906C653.599 742.514 650.192 745.103 647.705 748.14C644.54 752.007 642.372 756.704 641.35 761.589L644.438 762.441C645.715 754.194 644.436 744.376 636.419 739.929C633.108 738.092 629.053 737.479 625.495 738.966C622.501 740.217 620.391 743.024 619.69 746.164C618.881 749.785 619.885 753.507 622.966 755.718C624.643 756.922 626.243 754.145 624.582 752.953Z" fill="#FF008C"/>
<path d="M618.793 797.525C619.006 797.255 619.232 796.998 619.482 796.761C619.596 796.653 619.712 796.549 619.833 796.45C619.919 796.38 619.913 796.384 619.816 796.461C619.878 796.415 619.941 796.37 620.006 796.327C620.289 796.144 620.572 795.969 620.874 795.819C620.927 795.793 621.329 795.617 621.059 795.727C621.203 795.669 621.35 795.617 621.497 795.568C621.794 795.469 622.097 795.388 622.403 795.323C622.557 795.291 622.711 795.262 622.867 795.238C622.553 795.287 623.05 795.222 623.068 795.221C623.656 795.171 624.509 795.191 624.914 795.246C625.312 795.299 626.152 795.507 626.701 795.708C626.754 795.727 627.163 795.899 626.904 795.784C627.047 795.848 627.189 795.916 627.329 795.988C627.607 796.131 627.877 796.289 628.138 796.462C629.028 797.055 629.724 797.88 630.229 799.073C630.567 799.869 631.742 800.044 632.42 799.647C633.245 799.165 633.334 798.256 632.995 797.456C630.385 791.301 620.662 790.018 616.528 795.261C615.993 795.939 615.866 796.863 616.528 797.525C617.084 798.081 618.254 798.208 618.793 797.525Z" fill="black"/>
<path d="M276.341 811.434C271.722 810.115 273.548 803.463 276.018 800.983C278.304 798.688 281.983 798.611 284.966 799.266C288.998 800.151 292.633 802.243 296.139 804.345C297.804 805.343 299.152 803.174 298.079 801.829C295.02 797.996 293.884 790.362 298.748 787.35C301.923 785.384 308.244 786.504 308.695 790.902C308.87 792.607 311.332 793.184 311.84 791.327C313.064 786.862 317.662 783.569 322.323 784.108C326.965 784.645 330.691 788.999 330.804 793.599C330.855 795.656 334.058 795.664 334.007 793.599C333.853 787.375 328.977 781.745 322.749 780.957C316.541 780.17 310.389 784.5 308.752 790.476L311.898 790.902C311.371 785.77 306.289 782.775 301.399 783.236C295.529 783.789 292.063 789.116 292.269 794.758C292.394 798.197 293.679 801.419 295.815 804.094L297.755 801.579C291.663 797.927 283.556 793.503 276.38 796.845C271.995 798.888 269.612 804.456 270.519 809.093C271.037 811.74 272.901 813.783 275.49 814.522C277.475 815.089 278.323 812 276.341 811.434Z" fill="#FF008C"/>
<path d="M677.525 188.04C675.936 194.368 674.347 200.695 672.758 207.022C672.256 209.022 675.344 209.875 675.846 207.874C677.435 201.546 679.024 195.219 680.613 188.892C681.115 186.892 678.027 186.039 677.525 188.04Z" fill="#FF008C"/>
<path d="M751.113 455.561C755.857 459.519 760.601 463.478 765.345 467.437C766.008 467.991 766.959 468.087 767.61 467.437C768.179 466.868 768.277 465.729 767.61 465.172C762.866 461.214 758.121 457.255 753.377 453.296C752.714 452.742 751.763 452.646 751.113 453.296C750.543 453.865 750.446 455.004 751.113 455.561Z" fill="#FF008C"/>
<path d="M799.434 341.906C804.333 343.389 809.648 343.349 814.521 341.78C816.475 341.151 815.639 338.057 813.67 338.692C809.306 340.097 804.674 340.146 800.285 338.818C798.308 338.219 797.463 341.309 799.434 341.906Z" fill="#FF008C"/>
<path d="M784.254 223.2C782.672 226.364 781.09 229.529 779.507 232.693C779.133 233.441 779.283 234.462 780.082 234.884C780.808 235.268 781.873 235.109 782.273 234.309C783.855 231.145 785.437 227.981 787.02 224.816C787.394 224.068 787.244 223.047 786.445 222.625C785.719 222.242 784.654 222.4 784.254 223.2Z" fill="#FF008C"/>
<path d="M438.64 433.505C429.37 430.577 420.338 421.086 409.884 425.388C401.368 428.892 400.557 439.408 401.46 447.329C402.735 458.514 405.581 469.559 409.997 479.919C413.868 488.998 420.141 498.096 430.368 500.401C435.558 501.57 440.913 500.605 445.01 497.121C448.82 493.881 450.921 488.855 449.89 483.896C449.47 481.879 446.382 482.733 446.801 484.747C447.592 488.546 445.706 492.274 442.881 494.741C439.796 497.436 435.557 498.199 431.606 497.396C422.433 495.53 416.831 487.489 413.261 479.45C409.179 470.259 406.521 460.325 405.064 450.388C404.477 446.387 404.028 442.252 404.624 438.222C405.121 434.86 406.399 431.294 409.322 429.297C413.496 426.446 419.033 427.591 423.334 429.547C428.227 431.773 432.622 434.962 437.789 436.593C439.759 437.216 440.602 434.125 438.64 433.505Z" fill="#FF008C"/>
<path d="M404.938 458.021C415.52 462.079 427.445 462.749 438.438 459.903C439.756 459.562 441.389 459.254 442.294 460.245C442.627 460.609 442.786 461.088 442.937 461.552C443.816 464.253 444.695 466.954 445.575 469.656C447.15 474.495 448.742 479.448 448.579 484.521C448.417 489.593 446.165 494.898 441.652 497.454C437.551 499.777 432.235 499.416 427.989 497.354C423.743 495.291 420.445 491.737 417.824 487.891C412.332 479.832 409.477 470.387 406.844 461.067" fill="#FF008C"/>
<path d="M404.512 459.566C412.82 462.711 421.89 463.876 430.724 462.912C432.872 462.678 435.011 462.339 437.121 461.867C438.041 461.662 438.96 461.348 439.895 461.217C441.032 461.059 441.197 461.383 441.54 462.428C442.995 466.864 444.573 471.293 445.778 475.805C446.874 479.909 447.532 484.265 446.381 488.43C445.417 491.919 443.212 495.177 439.776 496.603C431.85 499.894 424.022 493.888 419.663 487.739C413.935 479.658 411.053 470.063 408.388 460.641C407.828 458.661 404.737 459.502 405.3 461.492C407.906 470.707 410.739 480.088 416.072 488.148C420.909 495.458 428.559 501.957 437.922 500.424C447.081 498.924 450.963 489.333 450.028 480.974C449.445 475.765 447.633 470.809 446.02 465.853C445.654 464.728 445.287 463.602 444.921 462.477C444.55 461.336 444.274 460.014 443.427 459.113C442.011 457.606 439.812 457.919 438.013 458.359C427.149 461.019 415.844 460.445 405.363 456.477C403.434 455.747 402.6 458.842 404.512 459.566Z" fill="#FF008C"/>
<path d="M377.967 394.354C386.523 396.009 394.926 398.352 403.104 401.363L402.721 398.436C398.061 400.994 393.401 403.552 388.74 406.111C386.933 407.103 388.547 409.869 390.357 408.876C395.017 406.318 399.677 403.76 404.338 401.201C405.633 400.49 405.179 398.725 403.955 398.275C395.778 395.264 387.375 392.92 378.819 391.265C376.805 390.876 375.943 393.962 377.967 394.354Z" fill="#FF008C"/>
<path d="M443.548 386.752C436.657 388.792 430.295 392.225 424.77 396.813C424.033 397.424 424.194 398.933 425.094 399.328C430.324 401.623 435.554 403.917 440.785 406.212C441.576 406.559 442.504 406.444 442.976 405.637C443.373 404.958 443.197 403.796 442.401 403.446C437.171 401.152 431.941 398.857 426.71 396.562L427.034 399.077C432.123 394.853 438.062 391.717 444.399 389.84C446.371 389.256 445.531 386.164 443.548 386.752Z" fill="#FF008C"/>
<path d="M413.559 393.276C415.058 400.845 416.556 408.415 418.055 415.984C418.455 418.004 421.543 417.149 421.143 415.133C419.645 407.564 418.146 399.994 416.647 392.425C416.247 390.405 413.16 391.26 413.559 393.276Z" fill="#FF008C"/>
<path d="M461.876 346.158L456.538 192.966L355.656 318.935L237.008 218.571C243.74 268.457 250.817 308.084 261.679 357.215C274.417 356.495 287.155 355.776 299.893 355.057C300.55 347.996 301.926 341.003 303.994 334.22C313.753 338.766 316.416 353 326.554 356.625C329.339 357.622 332.364 357.656 335.322 357.679C346.564 357.767 357.805 357.855 369.046 357.943C369.144 351.766 369.243 345.589 369.341 339.412C373.066 342.593 374.952 347.442 378.346 350.975C386.637 359.606 400.541 357.937 412.432 356.577C427.797 354.82 443.346 354.677 458.741 356.152C460.028 352.864 461.176 349.543 462.223 346.199L461.876 346.158Z" fill="#FF008C"/>
<path d="M463.47 346.158C463.292 341.058 463.115 335.959 462.937 330.86C462.513 318.701 462.09 306.542 461.666 294.383C461.151 279.597 460.636 264.81 460.121 250.024C459.678 237.309 459.234 224.594 458.791 211.878C458.575 205.667 458.507 199.429 458.141 193.225C458.136 193.139 458.135 193.052 458.132 192.966C458.089 191.713 456.322 190.681 455.399 191.834C452.044 196.023 448.688 200.213 445.333 204.402C437.28 214.459 429.226 224.515 421.173 234.571C411.464 246.694 401.755 258.817 392.047 270.94C383.661 281.411 375.275 291.882 366.89 302.353C364.14 305.786 361.39 309.22 358.64 312.654C357.353 314.261 355.779 315.845 354.684 317.594C354.638 317.668 354.571 317.735 354.516 317.803H356.781C352.833 314.464 348.885 311.124 344.938 307.785C335.493 299.796 326.048 291.806 316.604 283.817C305.154 274.132 293.704 264.446 282.254 254.761C272.392 246.419 262.531 238.077 252.67 229.735C247.89 225.692 243.154 221.591 238.328 217.604C238.262 217.549 238.198 217.494 238.133 217.439C236.838 216.344 235.244 217.418 235.457 218.997C237.937 237.362 240.649 255.696 243.715 273.973C246.655 291.506 249.923 308.983 253.476 326.402C255.603 336.834 257.831 347.245 260.128 357.64C260.272 358.291 261.001 358.854 261.672 358.816C274.41 358.097 287.148 357.378 299.886 356.658C300.814 356.606 301.401 355.963 301.487 355.057C302.147 348.132 303.518 341.303 305.531 334.646L303.179 335.603C310.406 339.061 313.45 347.341 318.622 352.979C321.569 356.192 325.203 358.362 329.559 358.964C332.447 359.363 335.382 359.281 338.291 359.304C341.432 359.328 344.573 359.353 347.714 359.377C354.822 359.433 361.931 359.489 369.039 359.544C369.915 359.551 370.627 358.805 370.641 357.943C370.739 351.766 370.837 345.589 370.935 339.412L368.201 340.545C370.517 342.576 372.089 345.172 373.792 347.701C375.451 350.165 377.266 352.449 379.646 354.254C383.939 357.507 389.287 358.798 394.579 359.165C400.173 359.554 405.786 358.936 411.339 358.303C418.734 357.461 426.151 356.915 433.594 356.781C441.985 356.63 450.379 356.963 458.734 357.754C459.48 357.825 460.037 357.196 460.278 356.578C461.554 353.301 462.704 349.98 463.76 346.625C464.104 345.532 463.195 344.716 462.216 344.598L461.869 344.556C461.003 344.452 460.276 345.367 460.267 346.158C460.258 347.109 461.014 347.656 461.869 347.759L462.216 347.801L460.672 345.774C459.616 349.128 458.466 352.45 457.19 355.727L458.734 354.551C444.153 353.171 429.448 353.206 414.878 354.709C409.23 355.292 403.592 356.099 397.901 356.078C392.774 356.06 387.435 355.383 382.98 352.666C377.302 349.203 375.328 342.546 370.466 338.28C369.437 337.378 367.755 337.969 367.732 339.412C367.634 345.589 367.536 351.766 367.438 357.943L369.039 356.342C362.84 356.293 356.641 356.245 350.441 356.196C344.444 356.149 338.412 356.286 332.42 356.019C330 355.91 327.58 355.542 325.422 354.382C323.777 353.498 322.367 352.295 321.093 350.937C318.463 348.134 316.477 344.81 314.239 341.703C311.694 338.17 308.797 334.753 304.795 332.838C303.855 332.388 302.761 332.744 302.443 333.795C300.346 340.729 298.972 347.846 298.285 355.057L299.886 353.456C287.148 354.175 274.41 354.894 261.672 355.614L263.216 356.789C259.219 338.699 255.44 320.559 252.008 302.353C248.715 284.881 245.747 267.35 243.072 249.773C241.47 239.244 239.97 228.7 238.545 218.146L235.869 219.704C239.816 223.043 243.764 226.382 247.712 229.722L276.046 253.69L310.395 282.746C320.257 291.088 330.118 299.43 339.98 307.772C344.759 311.814 349.495 315.916 354.321 319.903C354.387 319.957 354.451 320.013 354.516 320.068C355.12 320.579 356.205 320.787 356.781 320.068C360.136 315.878 363.491 311.689 366.846 307.499C374.9 297.443 382.954 287.387 391.007 277.33C400.716 265.208 410.424 253.085 420.133 240.962C428.518 230.491 436.904 220.02 445.29 209.549C448.04 206.115 450.79 202.681 453.54 199.248C454.831 197.636 456.384 196.053 457.496 194.308C457.543 194.234 457.608 194.167 457.663 194.098L454.93 192.966C455.107 198.065 455.285 203.165 455.463 208.264C455.886 220.423 456.31 232.582 456.734 244.741C457.249 259.527 457.764 274.313 458.279 289.1C458.722 301.815 459.165 314.53 459.608 327.245C459.825 333.457 459.893 339.694 460.258 345.899C460.264 345.985 460.264 346.072 460.267 346.158C460.339 348.213 463.542 348.222 463.47 346.158Z" fill="#FF008C"/>
<path d="M259.539 357.317L259.609 357.331C259.661 357.328 259.714 357.325 259.767 357.322L259.539 357.317Z" fill="#FF008C"/>
<path d="M259.114 358.861C259.136 358.866 259.159 358.87 259.181 358.875C259.327 358.905 259.476 358.94 259.625 358.932C259.641 358.931 259.657 358.93 259.673 358.929C259.704 358.927 259.736 358.925 259.768 358.923C259.988 358.932 260.194 358.886 260.385 358.786C260.583 358.721 260.755 358.611 260.9 358.454C261.056 358.309 261.166 358.138 261.231 357.939C261.331 357.748 261.377 357.543 261.369 357.322L261.312 356.896C261.236 356.625 261.098 356.39 260.9 356.19L260.576 355.939C260.326 355.795 260.057 355.722 259.768 355.721L259.568 355.716L259.54 355.716C259.319 355.707 259.114 355.753 258.923 355.853C258.724 355.918 258.552 356.028 258.407 356.185C258.251 356.33 258.141 356.501 258.076 356.7C257.976 356.891 257.93 357.096 257.938 357.317L257.996 357.743C258.072 358.014 258.209 358.249 258.407 358.449L258.732 358.7C258.981 358.844 259.251 358.917 259.54 358.918L259.739 358.923L259.768 358.923V355.721C259.715 355.724 259.662 355.727 259.609 355.73L260.035 355.787L259.965 355.773C259.753 355.706 259.54 355.696 259.327 355.744C259.114 355.754 258.915 355.817 258.732 355.934C258.545 356.035 258.395 356.172 258.282 356.347C258.141 356.501 258.045 356.683 257.996 356.891L257.938 357.317C257.939 357.606 258.012 357.875 258.157 358.125L258.407 358.449C258.607 358.648 258.843 358.785 259.114 358.861Z" fill="#FF008C"/>
<path d="M375.287 378.365C382.196 373.33 390.468 370.504 399.023 370.361C401.082 370.326 401.088 367.123 399.023 367.158C389.943 367.31 381.015 370.247 373.67 375.6C372.021 376.802 373.617 379.582 375.287 378.365Z" fill="#FF008C"/>
<path d="M444.014 370.195C436.951 364.514 427.697 365.405 419.504 367.727C417.524 368.288 418.365 371.379 420.355 370.815C427.265 368.857 435.684 367.581 441.749 372.46C442.428 373.006 443.349 373.111 444.014 372.46C444.581 371.905 444.686 370.736 444.014 370.195Z" fill="#FF008C"/>
</svg>
