<svg width="1000" height="1000" viewBox="0 0 1000 1000" fill="none" xmlns="http://www.w3.org/2000/svg">
<path d="M463.507 152.694C446.743 153.023 429.975 154.183 413.306 155.972C404.91 156.874 396.527 157.948 388.2 159.35C379.643 160.791 373.803 165.11 368.14 171.672C357.717 183.75 350.927 198.711 347.341 214.256C345.655 221.566 337.038 266.965 350.983 265.759C357.344 265.209 354.576 250.471 354.397 246.336C353.979 236.628 354.468 226.849 356.378 217.307C359.006 204.174 364.415 191.447 373.074 181.228C375.823 177.984 378.911 174.984 382.506 172.714C392.919 166.138 404.705 167.823 416.161 165.872C430.001 163.515 444.788 163.504 458.797 162.683" fill="#84FF20"/>
<path d="M348.806 312.68C345.997 312.171 343.593 311.945 341.211 309.865C336.795 306.009 335.045 299.398 333.854 293.597C331.665 282.934 332.718 271.466 336.928 261.554C339.663 255.116 343.981 249.084 350.019 246.577C354.17 244.853 359.269 244.913 363.616 244.314C368.506 243.64 373.472 246.172 376.647 249.778C380.291 253.914 382.07 259.357 383.255 264.74C385.527 275.06 385.88 286.161 381.787 295.903C379.152 302.176 374.438 307.734 368.457 311.041C362.209 314.495 355.621 313.915 348.806 312.68Z" fill="#84FF20"/>
<path d="M368.787 436.761C347.081 443.185 325.791 450.155 304.046 456.498C279.993 463.513 255.791 470.559 230.887 473.305C229.545 473.453 228.145 473.581 226.88 473.108C225.676 472.656 224.734 471.71 223.834 470.791C215.58 462.365 207.029 455.18 199.255 446.213C187.872 433.083 174.793 421.423 160.447 411.615C155.355 408.134 150.024 404.848 144.116 403.072C134.127 400.069 123.702 403.442 115.007 408.557C109.339 411.892 103.673 415.505 100.464 420.878C95.2798 429.56 97.0531 440.95 102.032 449.751C106.475 457.603 113.664 464.351 122.493 466.203C125.528 466.84 128.682 466.891 131.654 467.778C138.065 469.69 141.813 478.329 145.901 483.268C150.853 489.253 156.182 494.928 161.862 500.228C173.172 510.784 185.889 519.871 199.707 526.851C206.605 530.335 213.771 533.29 221.134 535.637C256.617 546.947 317.401 537.817 348.615 517.502" fill="white"/>
<path d="M368.379 435.281C345.337 442.106 322.481 449.537 299.406 456.251C288.031 459.561 276.634 462.815 265.11 465.572C253.72 468.295 242.111 470.713 230.437 471.818C229.23 471.932 227.981 472.036 226.888 471.414C225.715 470.746 224.797 469.575 223.856 468.629C221.866 466.628 219.836 464.666 217.796 462.717C213.756 458.858 209.672 455.042 205.779 451.033C201.857 446.996 198.268 442.658 194.399 438.571C190.673 434.635 186.788 430.847 182.759 427.221C174.704 419.971 166.06 413.149 156.848 407.42C152.351 404.624 147.438 402.081 142.212 401.01C137.04 399.951 131.684 400.383 126.625 401.807C121.529 403.241 116.811 405.646 112.303 408.382C108.1 410.933 103.891 413.785 100.822 417.689C94.5643 425.651 94.7318 436.576 98.3751 445.634C101.805 454.162 108.236 462.132 116.772 465.924C118.943 466.889 121.185 467.568 123.53 467.946C126.202 468.375 128.978 468.483 131.559 469.356C135.28 470.616 137.825 474.343 139.936 477.436C142.483 481.17 145.046 484.72 148.027 488.13C151.726 492.362 155.617 496.425 159.693 500.293C167.533 507.732 176.058 514.474 185.16 520.304C201.469 530.75 219.726 538.541 239.026 540.963C256.262 543.126 273.909 542.09 291.006 539.27C307.876 536.486 324.75 531.838 340.074 524.138C343.27 522.533 346.387 520.773 349.389 518.827C351.041 517.757 349.504 515.099 347.84 516.177C334.425 524.872 318.851 530.114 303.367 533.703C286.38 537.64 268.792 539.569 251.353 538.886C243.51 538.579 235.667 537.724 228.017 535.934C218.314 533.663 208.922 529.821 200.059 525.311C180.899 515.561 163.952 501.785 149.872 485.586C147.016 482.302 144.639 478.839 142.164 475.274C139.92 472.041 137.329 468.602 133.656 466.912C129.211 464.868 124.021 465.422 119.434 463.721C115.144 462.13 111.407 459.266 108.342 455.909C102.032 448.996 97.8693 439.161 99.0554 429.701C99.6533 424.933 101.844 420.662 105.279 417.321C108.891 413.808 113.403 411.113 117.817 408.734C122.375 406.278 127.356 404.352 132.52 403.707C137.88 403.037 143.071 403.957 147.994 406.134C152.852 408.283 157.303 411.26 161.639 414.301C166.036 417.385 170.306 420.644 174.439 424.074C182.657 430.897 190.339 438.367 197.384 446.397C204.702 454.739 212.942 462.097 220.798 469.911C222.487 471.591 224.146 473.774 226.472 474.587C228.976 475.462 231.941 474.735 234.489 474.412C240.189 473.689 245.862 472.765 251.502 471.67C262.871 469.464 274.099 466.594 285.252 463.491C307.883 457.193 330.277 450.122 352.727 443.22C358.208 441.535 363.696 439.869 369.194 438.24C371.084 437.68 370.279 434.718 368.379 435.281Z" fill="#FF008C"/>
<path d="M108.533 424.691C105.451 417.521 101.333 410.797 96.3466 404.795C94.5253 402.602 92.4585 399.782 93.6325 397.184C94.2274 395.868 95.5248 395.034 96.7642 394.292C103.606 390.199 110.768 386.64 118.162 383.66C120.474 382.729 122.843 381.845 125.325 381.611C126.527 381.497 127.77 381.544 128.893 381.986C130.136 382.474 131.147 383.409 132.076 384.369C136.722 389.166 140.088 395.03 143.405 400.826C142.309 400.707 141.222 400.518 140.131 400.36C132.65 399.277 124.962 399.643 117.617 401.431C115.299 401.995 112.561 403.247 112.469 405.631C112.441 406.347 112.678 407.046 112.951 407.708C114.638 411.803 117.873 415.24 121.859 417.171C122.37 417.419 122.947 417.7 123.125 418.24C123.407 419.099 122.508 419.856 121.721 420.301C117.816 422.51 113.656 424.268 109.35 425.529" fill="#84FF20"/>
<path d="M110.462 423.561C108.121 418.153 105.225 412.996 101.787 408.208C100.103 405.864 98.0374 403.733 96.5025 401.294C96.0148 400.519 95.373 399.492 95.5379 398.527C95.7311 397.396 97.0099 396.758 97.8908 396.226C103.105 393.075 108.547 390.276 114.109 387.793C116.91 386.542 119.764 385.245 122.719 384.4C124.115 384.001 125.672 383.627 127.135 383.829C128.409 384.006 129.327 384.789 130.207 385.666C134.908 390.345 138.2 396.247 141.468 401.956L143.401 398.587C139.388 398.116 135.474 397.498 131.416 397.514C127.44 397.529 123.456 397.945 119.556 398.714C116.483 399.319 112.702 400.117 110.968 403.046C109.147 406.124 111.189 409.9 113.038 412.478C114.149 414.026 115.421 415.439 116.909 416.632C117.651 417.226 118.415 417.791 119.227 418.286C119.605 418.516 119.991 418.732 120.385 418.935C120.549 419.02 120.717 419.097 120.88 419.182C120.986 419.231 121.089 419.285 121.188 419.346C121.458 419.512 121.4 419.448 121.015 419.152V417.962C120.95 418.427 119.486 418.978 119.012 419.227C117.886 419.819 116.742 420.373 115.581 420.89C113.367 421.876 111.074 422.68 108.751 423.37C105.995 424.189 107.169 428.512 109.942 427.689C114.363 426.375 118.898 424.648 122.847 422.235C124.807 421.037 126.313 418.756 124.729 416.589C124.114 415.748 123.195 415.369 122.309 414.892C121.478 414.444 120.667 413.934 119.927 413.347C118.443 412.169 117.161 410.725 116.172 409.111C115.565 408.122 114.09 406.096 115.051 405.042C116.159 403.827 118.318 403.544 119.821 403.222C122.169 402.72 124.54 402.369 126.933 402.178C129.602 401.966 132.285 401.934 134.958 402.083C137.799 402.242 140.58 402.734 143.401 403.065C145.157 403.271 146.1 401.033 145.335 399.696C142.006 393.88 138.605 387.998 133.963 383.107C131.57 380.585 128.899 379.058 125.321 379.372C121.83 379.678 118.593 381.051 115.395 382.394C108.945 385.105 102.672 388.214 96.639 391.761C93.9518 393.341 91.0929 395.197 91.0475 398.687C91.0043 402.005 93.3576 404.645 95.3205 407.061C99.9341 412.74 103.691 419.113 106.596 425.821C107.076 426.931 108.705 427.183 109.659 426.624C110.806 425.954 110.945 424.675 110.462 423.561Z" fill="#84FF20"/>
<path d="M128.824 429.886C124.489 431.285 119.699 432.762 115.288 430.809C112.14 429.416 109.948 426.601 108.04 423.845C105.43 420.075 102.826 416.305 100.18 412.561C98.6319 410.37 97.0799 408.183 95.5126 406.007C94.7528 404.951 93.9894 403.899 93.2212 402.85C92.5078 401.876 91.5661 400.849 91.1652 399.691C90.3747 397.406 93.4227 395.655 94.9294 394.484C96.9034 392.951 98.957 391.516 101.063 390.17C104.869 387.738 108.877 385.713 112.95 383.774C116.415 382.125 120.203 380.352 124.097 380.158C125.899 380.069 127.646 380.386 129.088 381.532C130.933 382.998 132.249 385.164 133.642 387.031C141.022 396.93 148.403 406.829 155.784 416.728C156.951 418.293 159.616 416.765 158.434 415.179C151.25 405.544 144.066 395.909 136.882 386.274C133.978 382.379 131.316 377.752 126.04 377.151C121.762 376.663 117.419 378.41 113.59 380.113C109.229 382.052 104.922 384.187 100.852 386.682C98.545 388.097 96.3052 389.622 94.144 391.251C92.2067 392.711 89.7109 394.256 88.5513 396.463C87.2447 398.951 88.3366 401.33 89.8498 403.417C91.5671 405.785 93.2944 408.146 94.9916 410.529C98.1165 414.917 101.275 419.29 104.281 423.761C106.685 427.336 109.251 431.14 113.178 433.185C118.487 435.95 124.244 434.587 129.64 432.846C131.512 432.242 130.711 429.277 128.824 429.886Z" fill="#FF008C"/>
<path d="M169.087 417.764C166.566 416.131 159.009 409.897 156.489 408.264C147.838 402.661 136.643 401.386 126.449 401.264C124.251 401.237 122.013 401.305 119.927 401.997C117.84 402.689 115.897 404.091 115.015 406.104C113.482 409.604 115.678 413.835 118.91 415.872C122.143 417.91 126.111 418.301 129.917 418.639C127.685 424.65 127.93 431.539 130.584 437.376C133.238 443.212 138.268 447.926 144.264 450.196" fill="white"/>
<path d="M169.857 416.439C166.181 414.027 162.849 411.07 159.337 408.429C154.812 405.027 149.573 402.854 144.072 401.579C137.794 400.125 131.121 399.55 124.682 399.739C121.436 399.834 118.147 400.492 115.65 402.706C113.49 404.621 112.606 407.454 113.163 410.262C113.786 413.406 116.085 416.121 118.862 417.624C122.251 419.458 126.142 419.836 129.913 420.174L128.433 418.232C125.981 425.025 126.438 432.738 129.748 439.169C132.716 444.935 137.835 449.343 143.852 451.676C145.695 452.391 146.493 449.424 144.668 448.717C139.391 446.671 134.983 442.645 132.398 437.62C129.449 431.889 129.22 425.066 131.393 419.047C131.76 418.031 130.824 417.186 129.913 417.105C124.806 416.648 117.638 415.816 116.197 409.788C115.594 407.265 116.98 405.142 119.174 403.975C121.735 402.612 124.845 402.759 127.657 402.819C138.194 403.042 149.151 404.585 157.789 411.079C161.301 413.72 164.632 416.676 168.309 419.089C169.964 420.176 171.504 417.52 169.857 416.439Z" fill="#FF008C"/>
<path d="M103.422 426.965C107.38 429.037 112.271 427.655 116.21 425.548C119.865 423.594 128.593 416.467 132.898 419.69C134.096 420.587 134.473 422.223 134.475 423.72C134.48 427.088 132.945 430.428 130.386 432.618C132.507 431.337 135.209 431.065 137.543 431.895C138.736 432.319 139.9 433.103 140.321 434.297C140.669 435.286 140.451 436.375 140.23 437.4C139.92 438.839 139.609 440.277 139.299 441.716C141.665 439.745 145.705 441.188 146.92 444.018C148.136 446.847 146.959 450.28 144.758 452.433C142.556 454.586 139.53 455.674 136.531 456.374" fill="white"/>
<path d="M102.641 428.289C108.669 431.261 114.996 428.216 120.157 424.914C122.325 423.526 124.54 422.075 126.953 421.144C128.574 420.519 131.488 419.595 132.532 421.627C133.303 423.129 132.939 425.219 132.462 426.753C131.878 428.633 130.759 430.234 129.295 431.533C127.968 432.709 129.668 434.788 131.154 433.943C133.159 432.802 136.011 432.461 138.018 433.827C139.086 434.554 139.027 435.606 138.791 436.77C138.483 438.286 138.14 439.796 137.814 441.308C137.565 442.461 138.916 443.926 140.068 443.041C141.316 442.082 142.858 442.183 144.149 443.05C145.688 444.082 146.133 445.969 145.725 447.713C144.685 452.156 140.103 453.941 136.117 454.894C134.197 455.353 135.01 458.313 136.933 457.853C142.532 456.514 148.727 453.206 148.931 446.676C149.014 444.043 147.734 441.56 145.434 440.239C143.321 439.025 140.516 438.856 138.519 440.391L140.773 442.124C141.534 438.595 143.452 433.94 139.853 431.376C136.879 429.256 132.664 429.553 129.605 431.293L131.465 433.702C134.245 431.237 135.945 427.64 136 423.913C136.048 420.684 134.374 417.764 130.972 417.383C128.28 417.082 125.579 418.28 123.25 419.497C120.813 420.771 118.575 422.362 116.22 423.771C112.773 425.832 108.056 427.545 104.19 425.639C102.425 424.769 100.868 427.415 102.641 428.289Z" fill="#FF008C"/>
<path d="M138.057 397.779C136.267 395.439 134.442 393.127 132.568 390.854C130.75 388.652 128.964 386.25 126.883 384.288C124.63 382.164 122.311 382.624 119.627 383.598C116.994 384.554 114.407 385.65 111.89 386.88C109.424 388.085 107.025 389.425 104.705 390.891C102.476 392.301 99.9028 393.773 98.1975 395.821C95.1544 399.476 96.7228 403.566 99.1008 407.093C102.96 412.817 107.038 418.406 111.006 424.055C112.133 425.659 114.795 424.127 113.656 422.506C110.562 418.102 107.475 413.693 104.378 409.291C103.025 407.368 101.55 405.481 100.434 403.406C99.7408 402.117 99.148 400.572 99.7062 399.124C100.498 397.07 102.846 395.794 104.576 394.634C106.609 393.27 108.709 392.008 110.865 390.849C113.035 389.684 115.26 388.617 117.538 387.68C118.635 387.228 119.744 386.805 120.862 386.407C121.939 386.023 123.211 385.355 124.266 386.086C125.355 386.84 126.207 388.09 127.067 389.083C127.988 390.147 128.898 391.22 129.799 392.302C131.716 394.605 133.587 396.947 135.407 399.327C135.914 399.99 136.723 400.324 137.507 399.878C138.159 399.507 138.559 398.436 138.057 397.779Z" fill="#FF008C"/>
<path d="M406.838 551.662C379.245 603.426 374.891 663.922 369.048 722.29C368.134 731.425 367.14 740.681 363.825 749.243C357.961 764.389 343.509 772.269 331.156 781.541C324.511 786.529 318.717 794.678 321.075 802.644C323.4 810.497 332.401 814.188 340.504 815.37C353.248 817.229 373.279 817.729 382.327 806.923C383.57 805.438 384.704 803.733 386.46 802.916C389.152 801.665 392.622 803.138 394.022 805.756C395.422 808.374 394.936 811.738 393.269 814.195C407.191 813.447 421.077 812.02 434.859 809.918C434.917 809.91 435.375 786.725 435.46 785.438C436.669 767.227 438.223 749.356 440.997 731.275C449.406 676.456 458.509 619.763 488.791 573.299" fill="white"/>
<path d="M405.515 550.887C393.149 574.147 385.279 599.46 380.025 625.2C374.734 651.113 371.944 677.457 369.344 703.75C368.685 710.42 368.046 717.091 367.367 723.758C366.652 730.793 365.812 737.861 363.775 744.656C362.1 750.243 359.484 755.329 355.684 759.771C352.079 763.984 347.789 767.553 343.354 770.854C338.861 774.198 334.163 777.27 329.741 780.708C325.19 784.247 321.099 789.051 319.578 794.719C318.134 800.095 319.633 805.702 323.583 809.62C327.268 813.275 332.396 815.294 337.394 816.364C342.052 817.36 346.919 817.759 351.674 817.906C356.824 818.064 362.033 817.784 367.086 816.729C371.716 815.762 376.301 814.064 380.078 811.16C382.238 809.499 383.675 807.358 385.574 805.453C387.491 803.532 390.307 803.575 392.119 805.679C394.028 807.895 393.405 811.162 391.946 813.42C391.331 814.371 392.128 815.791 393.271 815.729C407.332 814.966 421.347 813.512 435.269 811.398C435.798 811.318 436.188 810.794 436.341 810.326C436.648 809.388 436.457 808.086 436.481 807.124C436.537 804.852 436.587 802.579 436.638 800.307C436.738 795.779 436.825 791.251 436.952 786.724C437.173 778.883 438.006 771.007 438.715 763.198C439.642 753.007 440.794 742.835 442.321 732.716C445 714.965 447.792 697.215 451.291 679.605C454.766 662.116 458.977 644.741 464.667 627.831C470.308 611.069 477.442 594.785 486.617 579.643C487.754 577.768 488.923 575.912 490.118 574.073C491.197 572.413 488.542 570.873 487.468 572.524C477.792 587.409 470.16 603.524 464.096 620.191C457.98 637.001 453.448 654.349 449.755 671.838C446.051 689.378 443.19 707.082 440.454 724.794C437.383 744.667 435.323 764.595 433.979 784.657C433.437 792.753 433.604 800.918 433.362 809.028C433.356 809.231 433.339 809.437 433.343 809.639C433.348 809.922 433.2 810.066 433.382 809.51L434.454 808.438C420.803 810.511 407.057 811.911 393.271 812.66L394.596 814.969C397.684 810.189 396.647 803.016 390.632 801.232C384.585 799.439 382.042 805.915 378.012 808.902C370.097 814.768 359.032 815.258 349.572 814.747C344.802 814.49 339.917 814.035 335.323 812.67C330.588 811.263 325.678 808.728 323.324 804.164C320.539 798.765 322.87 792.623 326.418 788.209C329.995 783.759 334.904 780.671 339.51 777.4C348.494 771.022 357.778 764.247 363.146 754.351C369.518 742.604 369.991 728.359 371.273 715.35C373.875 688.923 376.332 662.438 381.02 636.28C385.646 610.47 392.483 584.861 403.788 561.119C405.182 558.192 406.643 555.299 408.165 552.436C409.092 550.693 406.443 549.141 405.515 550.887Z" fill="#FF008C"/>
<path d="M469.32 561.618C463.923 617.169 472.078 675.723 495.138 726.755C500.004 737.523 505.592 748.009 509.291 759.231C513.372 771.611 507.471 779.322 503.22 790.797C500.333 798.588 499.872 808.576 506.168 813.997C512.374 819.341 521.939 817.572 529.393 814.178C541.114 808.842 558.227 798.42 559.984 784.435C560.226 782.514 560.256 780.467 561.291 778.829C562.876 776.32 566.591 775.68 569.185 777.123C571.78 778.566 573.193 781.658 573.121 784.626C584.422 776.461 595.324 767.743 605.775 758.515C605.775 758.515 542.46 669.411 547.064 553.817" fill="white"/>
<path d="M467.787 561.618C465.336 587.021 465.692 612.693 468.924 638.01C472.15 663.276 478.171 688.2 487.32 711.985C491.993 724.132 497.892 735.681 503.121 747.582C504.466 750.643 505.732 753.739 506.863 756.886C507.923 759.835 508.901 762.812 509.089 765.962C509.418 771.472 507.507 776.627 505.374 781.611C501.471 790.734 496.424 802.012 502.149 811.564C508.134 821.55 521.168 819.575 530.168 815.503C538.823 811.588 547.481 806.465 553.95 799.409C557.093 795.98 559.755 791.96 560.96 787.423C561.593 785.04 561.271 782.165 562.409 779.961C563.499 777.851 566.433 777.376 568.412 778.448C570.62 779.644 571.595 782.231 571.587 784.626C571.583 785.704 572.927 786.652 573.896 785.951C585.3 777.701 596.305 768.91 606.861 759.6C607.331 759.185 607.473 758.264 607.101 757.74C604.882 754.615 602.859 751.337 600.867 748.065C595.5 739.25 590.589 730.154 586.041 720.891C579.369 707.299 573.503 693.314 568.479 679.031C562.297 661.454 557.387 643.424 553.955 625.108C550.058 604.313 548.114 583.146 548.384 561.985C548.419 559.261 548.492 556.538 548.599 553.817C548.676 551.842 545.607 551.845 545.53 553.817C544.688 575.381 546.162 596.99 549.653 618.28C552.737 637.085 557.401 655.623 563.417 673.702C568.396 688.664 574.298 703.325 581.047 717.577C585.806 727.627 590.987 737.487 596.672 747.046C598.346 749.862 600.065 752.652 601.847 755.401C602.619 756.591 603.354 758.112 604.346 759.14C604.387 759.182 604.417 759.241 604.451 759.289L604.691 757.43C594.33 766.567 583.54 775.204 572.347 783.301L574.656 784.626C574.674 779.572 571.037 774.399 565.538 774.859C563.017 775.07 560.665 776.439 559.581 778.78C558.491 781.132 558.698 783.81 558.083 786.289C555.749 795.693 547.029 802.456 539.173 807.272C535.206 809.704 531.005 812.005 526.655 813.676C521.852 815.521 516.286 816.743 511.249 815.117C506.41 813.555 503.554 809.223 502.892 804.333C502.193 799.175 503.542 794.06 505.431 789.302C507.478 784.147 510.122 779.151 511.414 773.727C512.804 767.892 512.038 762.353 510.066 756.755C505.668 744.268 499.229 732.627 494.044 720.469C484.047 697.033 477.235 672.245 473.288 647.09C469.337 621.908 468.31 596.249 470.087 570.825C470.302 567.753 470.56 564.684 470.855 561.618C471.045 559.653 467.975 559.666 467.787 561.618Z" fill="#FF008C"/>
<path d="M364.317 324.163C360.553 323.481 357.331 323.179 354.138 320.391C348.221 315.223 345.875 306.363 344.279 298.589C341.345 284.299 342.757 268.929 348.399 255.646C351.804 247.629 358.818 241.591 367.116 238.945C373.374 236.949 380.013 236.55 386.57 236.166C392.495 235.819 399.457 235.192 402.89 240.677C406.585 246.579 408.991 253.133 410.485 259.916C413.53 273.746 414.003 288.624 408.518 301.679C404.985 310.086 398.668 317.535 390.652 321.966C382.279 326.595 373.451 325.818 364.317 324.163Z" fill="#84FF20"/>
<path d="M464.24 578.981C441.632 576.575 419.033 572.976 397.441 565.856C375.849 558.735 355.21 547.962 338.578 532.462C327.884 522.495 323.713 512.461 321.519 498.353C319.526 485.534 320.823 471.69 328.228 460.704C333.751 452.508 342.167 446.588 351.203 442.585C360.239 438.582 369.946 436.354 379.612 434.294C371.212 430.981 366.218 423.982 361.244 416.84C352.005 403.577 346.698 387.098 348.986 371.097C351.918 350.587 366.914 333.361 384.728 322.781C378.694 317.533 373.103 311.718 369.443 304.47C364.93 295.532 363.945 284.871 366.743 275.258C370.161 263.512 378.911 253.826 389.256 247.298C399.602 240.77 411.492 237.11 423.421 234.4C464.945 224.966 508.885 226.384 549.713 238.477C560.4 241.643 570.546 245.095 578.158 253.523C584.951 261.045 588.596 271.261 588.645 281.351C588.712 295.165 582.444 305.711 575.041 316.727C578.389 320.686 583.947 322.04 587.837 325.575C592.509 329.82 596.456 334.842 599.66 340.273C606.156 351.287 609.643 364.038 610.221 376.781C610.728 387.965 609.552 396.143 604.652 406.153C599.946 415.766 594.006 424.983 585.662 431.841C588.358 429.626 601.603 438.225 604.229 439.973C610.465 444.123 615.567 449.746 619.108 456.348C625.526 468.314 626.91 482.625 624.295 495.95C621.679 509.275 615.258 521.656 607.006 532.439C574.309 575.16 519.25 584.329 468.755 579.441C467.249 579.295 465.744 579.141 464.24 578.981Z" fill="white"/>
<path d="M464.238 577.446C427.29 573.496 389.493 566.095 357.861 545.53C344.616 536.918 331.217 526.231 325.993 510.767C320.868 495.593 319.995 477.004 328.62 462.927C339.439 445.269 361.135 439.805 380.019 435.774C381.658 435.424 381.28 433.328 380.019 432.815C371.908 429.514 366.637 422.116 361.907 415.102C356.74 407.441 352.93 398.846 351.107 389.77C349.351 381.023 349.656 371.959 352.279 363.419C354.687 355.575 358.906 348.332 364.166 342.061C370.181 334.889 377.48 328.901 385.502 324.106C386.302 323.627 386.571 322.359 385.812 321.696C377.266 314.23 369.79 305.49 367.473 294.077C365.255 283.151 368.04 272.049 374.458 263.04C387.923 244.143 412.279 237.783 433.888 233.814C457.953 229.395 482.68 228.619 506.988 231.361C519.181 232.737 531.274 235.039 543.126 238.215C553.358 240.956 564.453 243.835 572.853 250.616C581.338 257.465 586.33 268.012 587.021 278.828C587.729 289.898 583.727 299.989 578.038 309.274C576.653 311.536 575.193 313.75 573.716 315.953C573.321 316.541 573.522 317.321 573.956 317.812C576.618 320.828 580.292 322.404 583.667 324.447C587.271 326.627 590.198 329.861 592.842 333.104C598.575 340.136 602.72 348.452 605.335 357.117C607.943 365.756 609.059 374.829 608.752 383.845C608.458 392.461 605.984 400.322 602.036 407.943C597.591 416.52 592.052 424.543 584.576 430.756C583.251 431.858 585.021 434.19 586.436 433.166C586.913 432.821 587.937 433.119 588.709 433.347C590.132 433.767 591.489 434.387 592.817 435.043C595.715 436.472 598.503 438.129 601.231 439.857C608.67 444.568 614.68 450.743 618.591 458.696C628.147 478.123 624.092 501.105 613.835 519.346C604.634 535.709 590.941 549.416 574.881 559.069C559.745 568.167 542.716 573.679 525.349 576.554C507.674 579.48 489.584 579.701 471.759 578.18C469.25 577.966 466.743 577.711 464.238 577.446C462.277 577.239 462.292 580.309 464.239 580.515C483.275 582.53 502.434 582.863 521.432 580.232C539.714 577.7 557.758 572.361 573.862 563.219C590.719 553.649 605.175 539.854 615.148 523.196C626.205 504.729 631.231 481.569 622.954 461.007C619.206 451.697 612.916 443.856 604.522 438.331C602.059 436.709 599.538 435.166 596.953 433.746C594.218 432.244 591.2 430.547 588.077 430.055C587.016 429.888 585.801 429.855 584.887 430.517L586.747 432.926C593.654 427.185 599.016 419.859 603.331 412.028C607.545 404.38 610.733 396.432 611.576 387.681C613.344 369.327 608.499 349.585 597.763 334.538C594.906 330.533 591.622 326.508 587.708 323.49C584.004 320.634 579.275 319.21 576.125 315.642L576.365 317.501C582.551 308.282 588.341 298.574 589.797 287.367C591.247 276.195 588.418 264.4 581.629 255.352C574.92 246.409 565.032 241.688 554.623 238.374C542.53 234.522 530.116 231.645 517.575 229.707C492.118 225.773 466.137 225.72 440.668 229.582C417.704 233.065 391.68 238.722 375.531 256.825C368.187 265.058 363.579 275.452 363.644 286.59C363.713 298.614 369.093 309.259 377.27 317.836C379.289 319.954 381.439 321.941 383.642 323.866L383.953 321.456C369.06 330.36 356.07 343.602 350.134 360.156C343.578 378.438 347.812 398.58 357.977 414.69C363.323 423.161 369.638 431.881 379.203 435.774V432.815C361.54 436.585 342.439 441.443 330.134 455.709C318.47 469.232 317.442 487.81 321.113 504.57C322.749 512.039 325.586 519.214 330.159 525.386C335.21 532.202 341.859 537.753 348.613 542.81C363.17 553.709 379.805 561.651 397.032 567.336C418.784 574.514 441.522 578.086 464.239 580.515C466.2 580.725 466.185 577.654 464.238 577.446Z" fill="#FF008C"/>
<path d="M464.24 578.981C441.632 576.575 419.033 572.976 397.441 565.856C375.849 558.735 355.21 547.962 338.578 532.462C327.884 522.495 323.713 512.461 321.519 498.353C319.526 485.534 320.823 471.69 328.228 460.704C333.751 452.508 342.167 446.588 351.203 442.585C360.239 438.582 369.946 436.354 379.612 434.294C371.212 430.981 366.218 423.982 361.244 416.84C352.005 403.577 346.698 387.098 348.986 371.097C351.918 350.587 366.914 333.361 384.728 322.781C378.694 317.533 373.103 311.718 369.443 304.47C364.93 295.532 363.945 284.871 366.743 275.258C370.161 263.512 378.911 253.826 389.256 247.298C399.602 240.77 411.492 237.11 423.421 234.4C464.945 224.966 508.885 226.384 549.713 238.477C560.4 241.643 570.546 245.095 578.158 253.523C584.951 261.045 588.596 271.261 588.645 281.351C588.712 295.165 582.444 305.711 575.041 316.727C578.389 320.686 583.947 322.04 587.837 325.575C592.509 329.82 596.456 334.842 599.66 340.273C606.156 351.287 609.643 364.038 610.221 376.781C610.728 387.965 609.552 396.143 604.652 406.153C599.946 415.766 594.006 424.983 585.662 431.841C588.358 429.626 601.603 438.225 604.229 439.973C610.465 444.123 615.567 449.746 619.108 456.348C625.526 468.314 626.91 482.625 624.295 495.95C621.679 509.275 615.258 521.656 607.006 532.439C574.309 575.16 519.25 584.329 468.755 579.441C467.249 579.295 465.744 579.141 464.24 578.981Z" fill="white"/>
<path d="M464.238 577.446C427.29 573.496 389.493 566.095 357.861 545.53C344.616 536.918 331.217 526.231 325.993 510.767C320.868 495.593 319.995 477.004 328.62 462.927C339.439 445.269 361.135 439.805 380.019 435.774C381.658 435.424 381.28 433.328 380.019 432.815C371.908 429.514 366.637 422.116 361.907 415.102C356.74 407.441 352.93 398.846 351.107 389.77C349.351 381.023 349.656 371.959 352.279 363.419C354.687 355.575 358.906 348.332 364.166 342.061C370.181 334.889 377.48 328.901 385.502 324.106C386.302 323.627 386.571 322.359 385.812 321.696C377.266 314.23 369.79 305.49 367.473 294.077C365.255 283.151 368.04 272.049 374.458 263.04C387.923 244.143 412.279 237.783 433.888 233.814C457.953 229.395 482.68 228.619 506.988 231.361C519.181 232.737 531.274 235.039 543.126 238.215C553.358 240.956 564.453 243.835 572.853 250.616C581.338 257.465 586.33 268.012 587.021 278.828C587.729 289.898 583.727 299.989 578.038 309.274C576.653 311.536 575.193 313.75 573.716 315.953C573.321 316.541 573.522 317.321 573.956 317.812C576.618 320.828 580.292 322.404 583.667 324.447C587.271 326.627 590.198 329.861 592.842 333.104C598.575 340.136 602.72 348.452 605.335 357.117C607.943 365.756 609.059 374.829 608.752 383.845C608.458 392.461 605.984 400.322 602.036 407.943C597.591 416.52 592.052 424.543 584.576 430.756C583.251 431.858 585.021 434.19 586.436 433.166C586.913 432.821 587.937 433.119 588.709 433.347C590.132 433.767 591.489 434.387 592.817 435.043C595.715 436.472 598.503 438.129 601.231 439.857C608.67 444.568 614.68 450.743 618.591 458.696C628.147 478.123 624.092 501.105 613.835 519.346C604.634 535.709 590.941 549.416 574.881 559.069C559.745 568.167 542.716 573.679 525.349 576.554C507.674 579.48 489.584 579.701 471.759 578.18C469.25 577.966 466.743 577.711 464.238 577.446C462.277 577.239 462.292 580.309 464.239 580.515C483.275 582.53 502.434 582.863 521.432 580.232C539.714 577.7 557.758 572.361 573.862 563.219C590.719 553.649 605.175 539.854 615.148 523.196C626.205 504.729 631.231 481.569 622.954 461.007C619.206 451.697 612.916 443.856 604.522 438.331C602.059 436.709 599.538 435.166 596.953 433.746C594.218 432.244 591.2 430.547 588.077 430.055C587.016 429.888 585.801 429.855 584.887 430.517L586.747 432.926C593.654 427.185 599.016 419.859 603.331 412.028C607.545 404.38 610.733 396.432 611.576 387.681C613.344 369.327 608.499 349.585 597.763 334.538C594.906 330.533 591.622 326.508 587.708 323.49C584.004 320.634 579.275 319.21 576.125 315.642L576.365 317.501C582.551 308.282 588.341 298.574 589.797 287.367C591.247 276.195 588.418 264.4 581.629 255.352C574.92 246.409 565.032 241.688 554.623 238.374C542.53 234.522 530.116 231.645 517.575 229.707C492.118 225.773 466.137 225.72 440.668 229.582C417.704 233.065 391.68 238.722 375.531 256.825C368.187 265.058 363.579 275.452 363.644 286.59C363.713 298.614 369.093 309.259 377.27 317.836C379.289 319.954 381.439 321.941 383.642 323.866L383.953 321.456C369.06 330.36 356.07 343.602 350.134 360.156C343.578 378.438 347.812 398.58 357.977 414.69C363.323 423.161 369.638 431.881 379.203 435.774V432.815C361.54 436.585 342.439 441.443 330.134 455.709C318.47 469.232 317.442 487.81 321.113 504.57C322.749 512.039 325.586 519.214 330.159 525.386C335.21 532.202 341.859 537.753 348.613 542.81C363.17 553.709 379.805 561.651 397.032 567.336C418.784 574.514 441.522 578.086 464.239 580.515C466.2 580.725 466.185 577.654 464.238 577.446Z" fill="#FF008C"/>
<path d="M588.339 320.645C597.21 320.615 602.425 314.801 605.665 307.216C606.97 304.162 608.281 301.308 610.342 298.656C613.087 295.125 617.052 292.783 619.71 289.184C622.388 285.558 623.378 280.857 622.984 276.366C622.347 269.127 619.164 261.15 612.425 257.826C604.528 253.93 606.394 245.025 601.258 238.957C599.625 237.028 597.369 235.699 594.992 234.84C587.513 232.137 578.819 234.055 572.438 238.799C566.057 243.544 561.852 250.81 559.731 258.474C557.61 266.138 557.433 274.215 557.965 282.149C558.782 294.361 561.566 304.222 570.672 312.856C575.458 317.394 581.744 320.666 588.339 320.645Z" fill="#84FF20"/>
<path d="M591.097 305.082C605.623 313.464 616.604 295.611 618.444 284.775C619.709 277.327 618.841 269.589 615.947 262.527C613.913 257.563 610.729 252.779 605.842 249.891C600.956 247.002 594.132 246.421 589.385 249.497C587.607 250.649 586.212 252.227 585.012 253.885C575.342 267.252 575.425 285.232 584.749 298.778C586.425 301.214 588.428 303.542 591.097 305.082Z" fill="#FF008C"/>
<path d="M602.852 305.082C616.049 313.464 626.025 295.611 627.697 284.775C628.846 277.327 628.057 269.589 625.428 262.527C623.58 257.563 620.688 252.779 616.248 249.891C611.809 247.002 605.61 246.421 601.298 249.497C599.682 250.649 598.415 252.227 597.325 253.885C588.54 267.252 588.615 285.232 597.086 298.778C598.609 301.214 600.428 303.542 602.852 305.082Z" fill="#84FF20"/>
<path d="M458.797 162.683C482.866 161.272 507.026 161.967 531.034 164.071C543.067 165.126 555.068 166.537 567.029 168.221C577.914 169.754 587.205 170.585 594.362 179.898C598.071 184.723 600.432 190.458 602.137 196.3C605.623 208.248 606.485 220.75 606.663 233.138C606.753 239.398 606.67 245.658 606.662 251.919C606.658 255.044 606.67 258.169 606.735 261.294C606.76 262.507 606.944 263.642 606.433 264.734C605.91 265.849 604.917 266.829 604.368 267.987C602.404 272.132 602.04 277.044 603.504 281.402C604.012 282.912 604.759 284.4 605.994 285.407C608.492 287.445 612.001 288.14 614.595 286.302C617.373 284.335 619.433 281.971 620.305 278.597C621.243 274.965 620.689 271.057 619.276 267.581C618.566 265.836 617.642 264.171 617.126 262.359C614.65 253.665 615.86 243.185 615.467 234.187C614.922 221.705 615.519 209.442 613.217 197.213C611.964 190.562 610.025 184.675 606.705 178.773C594.252 156.638 566.644 157.964 544.484 156.274C517.532 154.219 490.531 152.162 463.507 152.694" fill="#84FF20"/>
<path d="M355.932 246.337C355.298 231.04 356.92 215.532 362.782 201.279C365.474 194.732 369.074 188.475 373.58 183.006C378.22 177.377 383.747 172.741 390.848 170.656C397.614 168.669 404.727 168.74 411.685 168.009C415.332 167.626 418.932 166.922 422.572 166.479C426.411 166.012 430.266 165.687 434.125 165.435C442.012 164.919 449.916 164.715 457.807 164.274C466.045 163.813 474.284 163.519 482.536 163.484C499.074 163.414 515.61 164.226 532.081 165.698C540.276 166.431 548.456 167.327 556.619 168.362C563.385 169.219 570.277 169.914 576.955 171.34C582.709 172.568 587.948 174.901 591.928 179.353C596.734 184.729 599.365 191.784 601.2 198.65C605.336 214.123 605.227 230.287 605.15 246.18C605.13 250.177 605.11 254.173 605.153 258.169C605.171 259.865 605.517 261.825 605.22 263.499C605.068 264.357 604.444 265.055 603.958 265.747C603.363 266.595 602.906 267.457 602.517 268.418C600.244 274.038 600.133 283.025 605.551 286.99C608.143 288.887 611.742 289.583 614.674 288.05C617.227 286.715 619.554 284.217 620.804 281.635C622.37 278.398 622.597 274.731 621.95 271.228C621.285 267.629 619.254 264.563 618.363 261.047C617.441 257.406 617.178 253.651 617.077 249.908C617.024 247.937 613.955 247.929 614.008 249.908C614.112 253.761 614.397 257.647 615.292 261.406C616.134 264.939 618.157 268.021 618.9 271.583C619.619 275.031 619.263 278.815 617.179 281.742C615.477 284.133 612.785 286.459 609.684 285.632C606.139 284.685 604.753 281.437 604.288 278.073C603.812 274.626 604.379 270.582 606.356 267.651C607.267 266.302 608.152 265.166 608.294 263.486C608.457 261.57 608.234 259.574 608.216 257.648C608.177 253.478 608.204 249.307 608.223 245.137C608.298 229.482 608.274 213.574 604.288 198.321C602.479 191.397 599.88 184.508 595.448 178.813C591.737 174.044 586.737 170.858 580.959 169.176C574.777 167.376 568.186 166.823 561.826 165.972C553.671 164.881 545.498 163.92 537.31 163.119C521.035 161.527 504.695 160.559 488.342 160.426C472.114 160.294 455.898 161.224 439.696 162.046C431.849 162.444 424.002 163.033 416.242 164.31C409.281 165.457 402.192 165.384 395.232 166.533C388.106 167.708 381.723 170.616 376.388 175.521C371.324 180.176 367.176 185.95 363.865 191.956C356.682 204.983 353.439 219.793 352.834 234.57C352.673 238.491 352.701 242.416 352.863 246.336C352.945 248.304 356.014 248.315 355.932 246.337Z" fill="#FF008C"/>
<path d="M588.266 464.834C614.778 477.845 642.083 489.24 669.98 498.933C670.442 499.093 670.939 499.255 671.412 499.129C671.946 498.986 672.316 498.514 672.645 498.069C682.006 485.447 691.366 472.824 700.727 460.201C707.524 451.036 714.329 441.854 720.364 432.159C723.404 427.276 726.244 422.265 728.768 417.094C731.263 411.983 732.768 406.335 734.955 401.069C735.987 398.584 737.093 396.079 738.845 394.037C743.086 389.093 750.415 387.813 756.81 389.051C757.257 389.138 757.729 389.233 758.16 389.083C758.788 388.863 759.127 388.2 759.411 387.598C762.604 380.851 766.77 374.566 771.741 368.998C774.362 366.062 777.665 363.132 781.599 363.224C782.144 363.236 782.702 363.313 783.184 363.57C783.857 363.927 784.312 364.598 784.613 365.298C785.972 368.462 784.595 372.071 783.227 375.232C781.818 378.49 780.408 381.749 778.998 385.007C777.845 387.67 776.471 389.905 779.259 392.033C783.257 395.083 787.465 397.899 791.039 401.436C794.613 404.974 797.571 409.374 798.342 414.343C799.317 420.622 796.603 427.098 792.209 431.688C788.854 435.193 784.865 437.09 780.671 439.332C776.404 441.612 774.116 444.956 771.944 449.203C758.045 476.384 746.11 504.801 728.315 529.607C722.539 537.659 715.398 547.359 706.815 552.489C697.09 558.302 685.891 561.641 674.567 562.051C666.749 562.334 658.95 561.256 651.23 559.989C618.788 554.665 586.868 545.923 556.492 533.345" fill="white"/>
<path d="M587.493 466.159C608.037 476.233 629.049 485.352 650.443 493.464C655.742 495.473 661.065 497.42 666.409 499.305C668.586 500.072 671.352 501.684 673.31 499.678C674.234 498.731 674.959 497.513 675.746 496.452C676.632 495.257 677.519 494.061 678.406 492.865C685.5 483.298 692.595 473.731 699.689 464.165C706.472 455.018 713.329 445.909 719.522 436.347C722.6 431.595 725.511 426.731 728.144 421.717C730.721 416.812 732.663 411.763 734.516 406.551C736.143 401.975 737.767 396.517 741.728 393.382C745.121 390.696 749.7 389.906 753.921 390.205C756.057 390.356 758.569 391.457 760.121 389.414C760.801 388.519 761.198 387.399 761.705 386.402C762.335 385.162 762.998 383.94 763.694 382.736C766.332 378.167 769.424 373.854 772.96 369.936C774.505 368.225 776.206 366.535 778.305 365.518C779.313 365.03 780.47 364.697 781.6 364.758C782.981 364.834 783.441 366.091 783.598 367.326C783.929 369.925 782.716 372.578 781.712 374.902C780.56 377.569 779.405 380.234 778.252 382.9C777.427 384.807 776.161 386.881 776.094 389.009C776.017 391.46 777.798 392.848 779.581 394.185C783.889 397.412 788.391 400.492 791.908 404.62C795.04 408.296 797.217 412.843 796.987 417.757C796.763 422.555 794.415 427.172 791.126 430.603C789.359 432.447 787.291 433.907 785.093 435.191C782.957 436.439 780.654 437.434 778.581 438.784C774.816 441.236 772.423 444.902 770.415 448.832C760.575 468.09 751.763 487.88 741.056 506.687C735.813 515.896 730.067 524.782 723.75 533.292C720.786 537.284 717.661 541.183 714.13 544.692C710.63 548.17 706.76 550.941 702.378 553.202C692.907 558.089 682.291 560.617 671.638 560.561C660.096 560.502 648.528 558.134 637.242 555.914C615.172 551.573 593.411 545.602 572.287 537.864C567.118 535.971 561.989 533.969 556.902 531.866C556.13 531.547 555.223 532.212 555.014 532.938C554.762 533.816 555.324 534.511 556.086 534.826C577.314 543.6 599.283 550.527 621.657 555.711C632.815 558.297 644.084 560.514 655.417 562.19C666.635 563.849 677.849 564.329 688.934 561.535C698.934 559.015 708.596 554.417 716.007 547.151C723.21 540.09 729.117 531.501 734.639 523.101C746.732 504.706 756.127 484.74 765.783 465.008C768.176 460.116 770.585 455.231 773.064 450.381C775.193 446.219 777.62 442.705 781.828 440.454C786.273 438.076 790.764 435.748 794.116 431.872C797.353 428.13 799.548 423.512 800.001 418.557C800.994 407.69 792.349 399.878 784.439 393.989C783.338 393.169 782.23 392.358 781.13 391.535C780.369 390.965 779.265 390.346 779.161 389.294C779.077 388.444 779.558 387.518 779.891 386.761C780.456 385.474 781.016 384.184 781.574 382.894C782.735 380.211 783.93 377.541 785.049 374.841C786.029 372.479 786.904 369.922 786.667 367.326C786.454 364.986 785.334 362.393 782.825 361.826C780.549 361.312 778.034 362.101 776.072 363.237C771.749 365.739 768.483 370.235 765.592 374.198C763.997 376.386 762.514 378.656 761.154 380.997C760.529 382.072 759.93 383.163 759.357 384.267C759.053 384.852 758.757 385.44 758.469 386.032C758.302 386.374 758.003 387.485 757.617 387.649C757.36 387.758 756.437 387.432 756.146 387.389C755.529 387.296 754.908 387.218 754.286 387.165C753.19 387.07 752.085 387.049 750.986 387.109C748.802 387.228 746.603 387.613 744.551 388.384C739.903 390.132 736.724 393.487 734.65 397.95C732.385 402.821 730.907 407.996 728.919 412.976C726.817 418.241 723.933 423.249 721.036 428.11C718.028 433.158 714.786 438.063 711.425 442.882C704.735 452.475 697.649 461.793 690.684 471.186C687.087 476.035 683.491 480.885 679.895 485.735C678.121 488.127 676.347 490.518 674.574 492.91C673.687 494.106 672.8 495.302 671.913 496.498C671.737 496.736 671.336 497.57 671.056 497.639C670.539 497.767 669.512 497.148 669.033 496.98C647.081 489.303 625.501 480.574 604.391 470.82C599.246 468.442 594.13 466.004 589.042 463.508C587.275 462.642 585.718 465.288 587.493 466.159Z" fill="#FF008C"/>
<path d="M757.898 391.252C759.022 391.625 760.269 392.488 760.22 393.811C760.171 395.115 758.852 396.113 757.829 396.706C755.305 398.169 752.369 398.536 750.309 400.784C749.823 401.315 749.749 402.01 750.069 402.644C751.956 406.372 752.188 410.635 750.862 414.58C750.231 416.456 753.194 417.261 753.821 415.396C755.412 410.665 754.965 405.533 752.719 401.095L752.479 402.954C753.863 401.443 755.85 400.91 757.688 400.152C759.415 399.44 761.037 398.465 762.163 396.935C764.718 393.462 762.432 389.526 758.713 388.293C756.835 387.67 756.029 390.633 757.898 391.252Z" fill="#FF008C"/>
<path d="M765.883 400.412C764.226 402.07 762.979 404.037 762.183 406.241C761.49 408.163 760.701 411.24 761.726 413.162C762.731 415.044 765.27 415.514 767.22 415.28C769.447 415.012 771.271 413.87 772.621 412.109L769.817 410.926C768.451 414.273 767.779 419.066 770.239 422.105C773.105 425.644 777.428 423.316 780.205 421.027L777.795 419.168C776.438 421.972 776.585 425.333 778.52 427.848C780.454 430.362 783.652 431.372 786.714 430.786C788.652 430.415 787.831 427.457 785.898 427.827C781.876 428.597 778.662 424.401 780.445 420.717C781.22 419.114 779.389 417.741 778.035 418.857C776.431 420.179 773.457 422.24 772.178 419.464C771.089 417.101 771.847 414.018 772.776 411.742C773.064 411.037 772.519 410.198 771.887 409.932C771.127 409.611 770.444 409.943 769.971 410.559C769.244 411.508 768.051 412.112 766.875 412.251C766.236 412.327 765.49 412.28 764.888 412.026C764.223 411.745 764.37 411.197 764.405 410.537C764.564 407.525 765.936 404.7 768.053 402.582C769.451 401.183 767.281 399.013 765.883 400.412Z" fill="#FF008C"/>
<path d="M99.8325 387.253C99.7602 387.218 99.5914 387.077 99.52 387.074C99.6213 387.079 99.7993 387.29 99.5649 387.079C99.3486 386.884 99.7167 387.349 99.587 387.109C99.5546 387.058 99.5244 387.007 99.4963 386.954C99.4251 386.808 99.439 386.848 99.538 387.073C99.543 387.003 99.4711 386.881 99.453 386.813C99.4333 386.739 99.4286 386.61 99.3965 386.542C99.428 386.797 99.437 386.841 99.4236 386.674C99.4211 386.627 99.4203 386.581 99.4211 386.534C99.4208 386.488 99.4221 386.442 99.4251 386.395C99.4398 386.228 99.4319 386.272 99.4014 386.527C99.4332 386.481 99.4462 386.314 99.4625 386.258C99.4794 386.199 99.4986 386.141 99.5201 386.083C99.4372 386.27 99.4203 386.312 99.4693 386.208C99.5296 386.101 99.5809 385.991 99.6469 385.888C99.6747 385.843 99.7039 385.8 99.7344 385.758C99.8002 385.666 99.773 385.7 99.6528 385.86C99.6724 385.712 100.068 385.433 100.174 385.339C100.439 385.103 99.902 385.511 100.202 385.32C100.308 385.253 100.41 385.181 100.518 385.117C100.687 385.017 100.937 384.834 101.135 384.798C100.777 384.864 101.124 384.805 101.222 384.77C101.383 384.712 101.546 384.661 101.712 384.618C101.836 384.585 101.961 384.562 102.086 384.534C102.433 384.457 101.858 384.525 102.183 384.526C102.351 384.527 102.519 384.524 102.687 384.526C103.003 384.53 102.45 384.439 102.777 384.543C102.822 384.557 103.096 384.587 103.118 384.64C102.91 384.547 102.882 384.535 103.034 384.606C103.095 384.636 103.155 384.669 103.214 384.704L103.301 384.758C103.437 384.852 103.416 384.833 103.24 384.7C103.283 384.767 103.408 384.849 103.466 384.908C103.513 384.956 103.558 385.007 103.601 385.059C103.478 384.894 103.448 384.858 103.512 384.952C103.526 384.979 103.699 385.249 103.683 385.258C103.603 385.059 103.581 385.014 103.618 385.123C103.634 385.17 103.648 385.218 103.659 385.267C103.692 385.434 103.69 385.396 103.651 385.154C103.656 385.221 103.658 385.288 103.656 385.356C103.651 386.158 104.365 386.927 105.19 386.89C106.025 386.853 106.72 386.216 106.724 385.356C106.732 384.006 105.962 382.826 104.85 382.108C103.693 381.36 102.195 381.321 100.896 381.659C98.6468 382.243 96.3212 384.056 96.3519 386.581C96.368 387.905 97.0443 389.318 98.2836 389.903C99.008 390.245 99.9729 390.129 100.383 389.352C100.743 388.671 100.607 387.619 99.8325 387.253Z" fill="#FF008C"/>
<path d="M100.209 382.689C97.0191 371.97 106.308 363.31 116.015 361.243C126.589 358.991 137.705 362.455 146.858 367.694C156.434 373.175 164.444 380.893 172.179 388.661C180.514 397.034 188.807 405.45 197.12 413.845C213.366 430.252 229.165 447.415 246.819 462.338C255.031 469.28 263.723 475.614 273.17 480.779C282.565 485.915 292.484 490.047 302.554 493.659C343.258 508.263 388.527 509.951 430.137 498.069C465.695 487.915 497.705 467.783 523.434 441.357C551.758 412.265 572.974 376.099 585.407 337.498C587.03 332.462 588.492 327.377 589.816 322.254C590.31 320.34 587.351 319.524 586.857 321.438C576.354 362.086 556.209 400.447 528.188 431.768C503.125 459.781 471.403 481.717 435.489 493.24C393.724 506.642 347.775 505.942 306.311 491.734C296.01 488.204 285.865 484.073 276.245 478.952C266.184 473.597 256.97 466.97 248.304 459.587C230.691 444.58 214.874 427.413 198.61 410.988C190.315 402.611 182.051 394.204 173.722 385.862C166.102 378.231 158.152 370.701 148.772 365.255C140.121 360.233 130.012 356.831 119.902 357.613C110.885 358.31 101.893 362.584 98.1202 371.233C96.417 375.137 96.031 379.408 97.2501 383.504C97.8122 385.393 100.775 384.589 100.209 382.689Z" fill="#FF008C"/>
<path d="M359.956 418.547C351.537 431.639 354.488 447.863 358.429 461.914C360.559 469.511 363.668 477.443 363.089 485.46C362.843 488.873 361.791 492.374 359.69 495.116C358.331 496.891 356.571 497.81 354.487 498.531C351.765 499.472 348.888 500.063 346.02 500.308C343.877 500.49 341.062 500.693 339.155 499.81C337.375 498.985 335.814 501.63 337.606 502.46C339.661 503.412 342 503.546 344.235 503.481C346.989 503.4 349.762 502.986 352.436 502.328C354.771 501.754 357.211 500.994 359.257 499.696C361.815 498.075 363.513 495.252 364.613 492.499C367.633 484.943 365.809 476.697 363.693 469.168C361.405 461.026 358.722 452.884 357.852 444.431C356.99 436.063 357.975 427.297 362.606 420.096C363.678 418.43 361.022 416.889 359.956 418.547Z" fill="#FF008C"/>
<path d="M569.187 777.123C571.781 778.566 573.195 781.658 573.123 784.626C584.424 776.461 595.326 767.743 605.777 758.515C605.777 758.515 592.981 740.505 579.313 710.179C572.637 714.956 566.268 720.124 560.232 723.59C545.514 732.04 530.082 739.245 514.15 745.093C511.03 746.238 507.833 746.854 504.685 747.355C506.383 751.25 507.961 755.192 509.293 759.231C513.374 771.612 507.473 779.322 503.221 790.797C500.335 798.588 499.874 808.576 506.17 813.997C512.376 819.341 521.941 817.572 529.395 814.179C541.116 808.843 558.229 798.42 559.986 784.435C560.228 782.514 560.258 780.467 561.292 778.829C562.878 776.32 566.593 775.68 569.187 777.123Z" fill="#FF008C"/>
<path d="M568.415 778.448C570.595 779.739 571.601 782.16 571.59 784.626C571.585 785.705 572.931 786.651 573.899 785.951C585.303 777.702 596.309 768.91 606.864 759.6C607.334 759.185 607.476 758.264 607.104 757.74C600.375 748.259 594.727 737.882 589.408 727.571C586.325 721.594 583.407 715.533 580.64 709.404C580.32 708.695 579.163 708.408 578.541 708.854C574.08 712.054 569.751 715.438 565.238 718.565C560.92 721.557 556.326 724.092 551.699 726.57C542.072 731.725 532.166 736.366 522.029 740.432C519.139 741.591 516.237 742.745 513.298 743.773C510.375 744.796 507.33 745.384 504.279 745.875C503.197 746.049 503.013 747.326 503.362 748.129C504.689 751.181 505.94 754.267 507.051 757.405C508.056 760.242 508.942 763.101 509.102 766.127C509.38 771.411 507.601 776.379 505.566 781.171C501.707 790.254 496.822 800.73 501.571 810.488C503.763 814.993 508.157 817.951 513.066 818.679C518.275 819.451 523.613 818.236 528.427 816.256C536.931 812.759 545.33 807.796 551.986 801.418C555.665 797.892 558.863 793.7 560.532 788.84C560.943 787.643 561.242 786.411 561.426 785.158C561.65 783.626 561.643 782.006 562.17 780.535C563.077 778.003 566.152 777.275 568.415 778.448C570.166 779.356 571.72 776.709 569.964 775.798C567.791 774.671 565.253 774.511 562.993 775.496C560.639 776.522 559.311 778.642 558.864 781.118C558.432 783.515 558.337 785.851 557.52 788.174C556.797 790.23 555.711 792.151 554.464 793.933C549.129 801.557 540.644 806.869 532.479 811.001C524.759 814.908 512.569 819.567 505.803 811.444C502.769 807.802 502.35 802.634 502.945 798.111C503.642 792.816 505.983 787.942 508.06 783.083C510.343 777.744 512.443 772.232 512.181 766.323C511.876 759.453 508.712 752.791 506.012 746.58L505.095 748.834C507.835 748.393 510.57 747.877 513.218 747.032C515.814 746.204 518.356 745.163 520.891 744.167C526.013 742.154 531.083 740.003 536.09 737.719C541.119 735.424 546.084 732.991 550.978 730.423C555.719 727.935 560.496 725.418 564.96 722.456C570.149 719.013 575.032 715.132 580.09 711.504L577.99 710.953C585.118 726.741 593.164 742.266 602.723 756.735C603.29 757.592 603.859 758.45 604.454 759.289L604.694 757.429C594.334 766.567 583.543 775.204 572.35 783.301L574.659 784.626C574.675 781.082 573.067 777.636 569.964 775.798C568.26 774.79 566.715 777.442 568.415 778.448Z" fill="#FF008C"/>
<path d="M397.136 751.887C386.504 751.125 374.985 750.572 364.315 747.913C364.157 748.358 363.996 748.802 363.825 749.243C357.96 764.389 343.509 772.269 331.156 781.541C324.511 786.529 318.717 794.677 321.075 802.644C323.4 810.497 332.401 814.188 340.504 815.37C353.248 817.228 373.279 817.729 382.327 806.923C383.57 805.438 384.704 803.733 386.46 802.916C389.152 801.665 392.622 803.138 394.022 805.756C395.422 808.374 394.936 811.738 393.269 814.194C407.191 813.447 421.077 812.02 434.86 809.918C434.917 809.91 435.375 786.725 435.46 785.438C436.233 773.796 437.152 762.292 438.435 750.784C422.845 751.68 400.127 752.102 397.136 751.887Z" fill="#FF008C"/>
<path d="M397.135 750.353C386.277 749.578 375.334 749.046 364.722 746.433C363.871 746.224 363.122 746.706 362.835 747.505C358.891 758.47 350.118 765.991 340.931 772.626C332.067 779.028 319.71 785.836 319.025 798.165C318.367 810.014 330.796 815.546 340.658 816.929C350.482 818.308 360.995 818.739 370.597 815.84C375.939 814.227 380.62 811.457 384.15 807.099C385.065 805.97 386.041 804.638 387.477 804.162C388.749 803.74 390.199 804.144 391.262 804.903C394.077 806.911 393.616 810.837 391.943 813.42C391.327 814.371 392.126 815.791 393.268 815.729C407.329 814.966 421.344 813.512 435.267 811.398C435.801 811.317 436.177 810.793 436.338 810.326C436.508 809.833 436.426 809.134 436.44 808.627C436.471 807.479 436.498 806.331 436.525 805.183C436.603 801.824 436.675 798.466 436.75 795.107C436.911 787.933 437.281 780.835 437.836 773.673C438.428 766.033 439.122 758.401 439.969 750.784C440.057 749.99 439.194 749.206 438.434 749.25C426.233 749.946 413.992 750.333 401.77 750.403C400.229 750.412 398.674 750.456 397.135 750.353C395.164 750.221 395.172 753.29 397.135 753.422C400.755 753.664 404.443 753.457 408.065 753.392C414.464 753.276 420.863 753.093 427.258 752.845C430.985 752.7 434.711 752.531 438.434 752.319L436.9 750.784C436.162 757.427 435.539 764.082 434.999 770.743C434.585 775.856 434.064 780.997 433.898 786.125C433.708 792.007 433.622 797.894 433.488 803.779C433.455 805.218 433.423 806.658 433.385 808.098C433.374 808.516 433.365 808.934 433.35 809.352C433.338 809.706 433.155 810.161 433.379 809.51L434.451 808.439C420.801 810.512 407.055 811.912 393.268 812.66L394.593 814.969C397.719 810.142 396.586 802.695 390.352 801.157C384.321 799.669 381.835 806.191 377.711 809.117C369.55 814.909 358.372 815.304 348.748 814.7C343.885 814.394 338.925 813.884 334.281 812.344C329.628 810.802 324.759 807.98 322.879 803.196C320.642 797.5 323.472 791.496 327.262 787.207C331.043 782.929 336.048 779.869 340.663 776.579C345.781 772.931 350.891 769.18 355.317 764.693C359.958 759.988 363.554 754.549 365.794 748.321L363.907 749.393C374.78 752.07 386.009 752.628 397.135 753.422C399.106 753.563 399.097 750.493 397.135 750.353Z" fill="#FF008C"/>
<path d="M354.256 245.897C344.131 260.825 340.426 279.664 343.557 297.376C344.448 302.413 345.941 307.291 347.936 311.998C348.261 312.767 349.381 312.921 350.035 312.548C350.83 312.096 350.907 311.208 350.586 310.449C343.874 294.61 343.951 276.224 350.152 260.245C351.902 255.736 354.192 251.447 356.906 247.446C358.017 245.807 355.359 244.27 354.256 245.897Z" fill="#FF008C"/>
<path d="M599.953 247.769C588.617 262.113 586.384 282.779 594.683 299.134C596.892 303.487 600.348 308.036 605.491 308.822C607.423 309.118 608.256 306.161 606.307 305.863C602.109 305.221 599.453 301.62 597.594 298.092C595.684 294.467 594.367 290.545 593.574 286.53C591.975 278.428 592.676 269.907 595.426 262.132C596.975 257.751 599.24 253.586 602.123 249.939C603.334 248.405 601.177 246.219 599.953 247.769Z" fill="#FF008C"/>
<path d="M482.107 581.437C483.986 606.301 487.575 631.061 493.111 655.379C498.676 679.827 506.233 703.867 516.358 726.823C521.902 739.392 528.245 751.611 535.51 763.274C536.552 764.947 539.208 763.408 538.16 761.725C525.187 740.898 515.173 718.34 507.384 695.101C499.433 671.376 493.745 646.906 489.875 622.195C487.758 608.679 486.207 595.078 485.176 581.437C485.028 579.48 481.958 579.464 482.107 581.437Z" fill="#FF008C"/>
<path d="M504.877 583.026C507.453 607.818 512.76 632.208 519.444 656.195C522.628 667.619 526.159 678.941 529.47 690.327C532.452 700.581 535.479 710.849 539.491 720.758C544.089 732.116 550.021 742.796 557.749 752.333C558.993 753.867 561.152 751.684 559.919 750.163C553.103 741.751 547.701 732.309 543.456 722.366C539.352 712.755 536.298 702.73 533.364 692.714C526.677 669.884 519.582 647.18 514.565 623.905C511.655 610.403 509.373 596.767 507.946 583.026C507.744 581.082 504.673 581.061 504.877 583.026Z" fill="#FF008C"/>
<path d="M528.709 577.753C532.097 599.318 535.286 620.931 539.719 642.313C544.101 663.449 549.742 684.386 557.916 704.394C562.578 715.805 568.027 726.881 574.361 737.459C575.374 739.152 578.029 737.611 577.011 735.91C565.845 717.262 557.531 697.113 551.329 676.309C545.183 655.691 541.025 634.545 537.46 613.347C535.422 601.228 533.575 589.078 531.669 576.937C531.363 574.992 528.405 575.818 528.709 577.753Z" fill="#FF008C"/>
<path d="M427.858 766.361C428.187 742.008 431.364 717.731 435.937 693.836C440.676 669.07 446.988 644.596 454.615 620.565C458.592 608.035 462.943 595.621 467.736 583.379C468.457 581.539 465.49 580.742 464.777 582.563C455.956 605.092 448.578 628.194 442.421 651.588C435.96 676.131 430.836 701.067 427.701 726.261C426.045 739.565 424.97 752.952 424.789 766.361C424.763 768.337 427.831 768.338 427.858 766.361Z" fill="#FF008C"/>
<path d="M400.73 762.908C404.536 737.938 408.011 712.907 412.749 688.091C417.464 663.391 423.405 638.821 432.273 615.254C437.161 602.262 442.98 589.62 449.932 577.599C450.922 575.886 448.271 574.339 447.282 576.05C434.782 597.664 425.992 621.226 419.391 645.251C412.644 669.807 408.113 694.91 404.146 720.045C401.935 734.048 399.907 748.078 397.771 762.092C397.476 764.024 400.433 764.857 400.73 762.908Z" fill="#FF008C"/>
<path d="M383.905 756.874C386.07 733.378 386.349 709.708 390.692 686.459C395.317 661.702 400.466 636.894 409.138 613.188C413.957 600.014 419.918 587.257 427.348 575.346C428.396 573.665 425.742 572.123 424.698 573.797C411.275 595.317 402.775 619.454 396.597 643.942C393.498 656.23 390.953 668.649 388.589 681.097C386.425 692.485 384.779 703.867 383.855 715.426C382.751 729.236 382.108 743.076 380.836 756.874C380.655 758.839 383.725 758.827 383.905 756.874Z" fill="#FF008C"/>
<path d="M451.49 611.223C454.791 621.506 458.117 631.919 458.8 642.697C459.71 635.415 461.557 628.077 464.518 621.348C467.588 614.371 468.09 607.625 468.097 600.026C468.103 593.028 468.109 586.031 468.116 579.033C459.725 580.959 450.975 579.341 442.52 577.72C437.352 576.729 432.184 575.739 427.016 574.748C428.848 575.099 433.281 579.069 435.161 580.332C438.182 582.362 440.429 585.924 442.287 588.987C446.461 595.87 449.043 603.599 451.49 611.223Z" fill="#FF008C"/>
<path d="M450.006 611.632C453.257 621.76 456.546 632.017 457.261 642.697C457.396 644.713 460.084 644.623 460.33 642.697C460.868 638.479 461.729 634.296 462.925 630.214C464.091 626.238 465.885 622.539 467.208 618.629C469.839 610.858 469.625 602.621 469.632 594.528C469.637 589.363 469.641 584.198 469.646 579.034C469.647 577.996 468.668 577.34 467.704 577.554C461.08 579.022 454.258 578.276 447.647 577.118C440.888 575.935 434.159 574.561 427.42 573.269C425.502 572.901 424.662 575.769 426.604 576.228C427.704 576.488 428.747 577.379 429.639 578.035C430.867 578.937 432.044 579.904 433.254 580.83C434.452 581.747 435.637 582.573 436.672 583.689C437.931 585.047 438.974 586.582 439.961 588.143C444.564 595.43 447.384 603.47 450.006 611.632C450.608 613.504 453.572 612.703 452.966 610.816C450.187 602.166 447.17 593.599 442.189 585.936C441.115 584.283 439.946 582.655 438.573 581.235C437.434 580.055 436.093 579.173 434.802 578.18C433.553 577.218 432.332 576.219 431.058 575.289C429.966 574.493 428.76 573.586 427.42 573.269L426.604 576.228C433.657 577.58 440.7 579.045 447.781 580.241C454.655 581.402 461.648 582.035 468.52 580.513L466.577 579.033C466.569 587.861 466.897 596.765 466.428 605.582C466.219 609.52 465.657 613.424 464.455 617.189C463.205 621.104 461.361 624.788 460.164 628.732C458.78 633.295 457.864 637.971 457.261 642.697H460.33C459.595 631.727 456.305 621.221 452.966 610.816C452.364 608.942 449.4 609.744 450.006 611.632Z" fill="#FF008C"/>
<path d="M680.054 798.779C673.317 795.305 669.336 787.06 673.547 780.111C675.365 777.111 678.469 775.109 682.025 775.159C685.4 775.207 688.63 776.949 690.205 779.975C691.015 781.529 693.475 780.453 693.01 778.792C690.436 769.601 690.764 758.756 697.883 751.62C700.786 748.711 704.671 746.584 708.833 746.36C710.955 746.246 713.318 746.547 714.997 747.968C716.837 749.525 717.427 752.156 718.099 754.363C719.629 759.389 721.161 765.248 718.505 770.169C717.718 771.627 719.778 773.444 720.915 772.028C723.681 768.582 729.091 767.578 732.737 770.285C736.374 772.984 736.915 778.526 734.387 782.117C733.494 783.385 735.235 785.013 736.486 784.216C739.082 782.564 742.711 782.618 745.053 784.746C747.335 786.819 747.867 790.139 746.721 792.927C746.127 794.373 748.301 795.489 749.286 794.42C752.082 791.386 756.863 790.267 760.623 792.168C764.34 794.047 766.484 798.489 765.671 802.569C765.287 804.498 768.245 805.323 768.631 803.385C769.705 797.995 767.156 792.063 762.171 789.518C757.227 786.993 750.867 788.18 747.116 792.25L749.68 793.743C751.261 789.896 750.155 785.047 746.958 782.344C743.618 779.519 738.617 779.223 734.937 781.566L737.037 783.666C740.461 778.801 739.338 771.469 734.601 767.869C729.872 764.277 722.452 765.241 718.745 769.858L721.155 771.718C723.95 766.539 723.07 760.607 721.539 755.178C720.809 752.591 720.124 749.693 718.59 747.445C717.115 745.285 714.818 743.964 712.263 743.508C701.787 741.639 692.455 750.335 689.642 759.793C687.725 766.238 688.256 773.202 690.051 779.608L692.855 778.426C689.686 772.338 681.318 770.325 675.542 773.842C669.234 777.682 667.187 785.947 670.05 792.546C671.713 796.381 674.805 799.521 678.505 801.429C680.258 802.333 681.812 799.686 680.054 798.779Z" fill="#FF008C"/>
<path d="M221.181 787.769C217.705 779.757 213.591 769.818 217.266 761.164C217.609 760.358 218.05 759.271 218.803 758.752C219.644 758.173 220.558 758.947 221.245 759.45C222.846 760.623 224.236 762.128 225.321 763.786C227.538 767.173 228.552 771.139 228.219 775.172C228.079 776.874 230.995 777.298 231.233 775.58C231.687 772.31 232.712 769.173 234.378 766.317C235.195 764.916 236.134 763.519 237.273 762.355C237.723 761.895 238.361 761.19 238.986 761.665C239.527 762.074 239.841 763.035 240.13 763.627C243.06 769.643 243.217 776.756 240.888 782.984C240.285 784.597 242.97 785.749 243.693 784.166C245.202 780.865 249.601 779.13 252.842 781.063C256.091 783.001 256.602 787.712 254.423 790.598C253.232 792.174 255.896 793.705 257.073 792.146C260.268 787.917 258.95 781.132 254.391 778.414C249.825 775.69 243.242 777.808 241.043 782.617L243.848 783.799C245.297 779.923 245.855 775.703 245.443 771.583C245.056 767.715 243.993 763.247 241.629 760.071C240.417 758.443 238.465 757.924 236.653 758.949C234.935 759.92 233.673 761.781 232.599 763.38C230.314 766.778 228.836 770.712 228.274 774.764L231.288 775.172C231.606 771.323 230.77 767.456 229.01 764.026C227.371 760.832 224.548 757.276 221.153 755.845C216.857 754.033 214.546 759.049 213.615 762.356C212.449 766.494 212.686 770.877 213.554 775.046C214.585 779.994 216.527 784.698 218.531 789.318C219.315 791.125 221.959 789.565 221.181 787.769Z" fill="#FF008C"/>
<path d="M396.021 290.255C396.707 295.911 403.696 298.746 408.601 299.692C414.217 300.776 420.052 299.956 425.097 297.242C426.837 296.306 425.289 293.656 423.548 294.592C419.495 296.773 414.738 297.574 410.185 296.868C407.947 296.521 405.739 295.844 403.725 294.802C401.967 293.892 399.358 292.463 399.09 290.255C398.855 288.319 395.783 288.295 396.021 290.255Z" fill="#FF008C"/>
<path d="M454.563 297.122C465.203 301.565 478.345 298.54 486.046 289.984C487.364 288.519 485.201 286.342 483.876 287.814C476.822 295.651 465.089 298.218 455.378 294.162C454.608 293.84 453.699 294.51 453.491 295.234C453.238 296.115 453.802 296.804 454.563 297.122Z" fill="#FF008C"/>
<path d="M394.619 279.124C399.545 275.743 405.656 275.531 411.429 275.781C417.764 276.055 424.245 276.733 430.369 274.649C432.229 274.016 431.431 271.051 429.554 271.69C417.739 275.709 404.034 268.947 393.071 276.474C391.453 277.585 392.986 280.246 394.619 279.124Z" fill="#FF008C"/>
<path d="M487.903 271.095C482.909 266.8 476.304 265.985 469.949 265.828C462.028 265.632 454.093 265.687 446.17 265.626C444.194 265.611 444.192 268.68 446.17 268.695C453.704 268.753 461.241 268.762 468.775 268.874C474.583 268.96 481.111 269.29 485.733 273.265C487.223 274.547 489.403 272.385 487.903 271.095Z" fill="#FF008C"/>
<path d="M429.24 280.624C428.941 290.339 428.642 300.055 428.342 309.77C428.272 312.054 428.051 314.389 428.18 316.671C428.276 318.37 428.705 320.102 430.041 321.255C431.34 322.376 433.441 322.765 435.123 322.726C436.843 322.686 438.223 322.012 438.894 320.373C439.642 318.547 436.674 317.751 435.935 319.557C436.017 319.357 435.8 319.592 435.609 319.612C435.343 319.639 435.084 319.662 434.816 319.654C434.169 319.636 433.469 319.535 432.854 319.333C431.34 318.835 431.235 317.332 431.231 315.931C431.223 312.071 431.46 308.195 431.579 304.336C431.822 296.432 432.066 288.528 432.309 280.624C432.37 278.648 429.301 278.651 429.24 280.624Z" fill="#FF008C"/>
<path d="M431.5 332.012C438.261 333.695 445.332 332.633 451.696 329.972C457.947 327.359 463.13 323.329 468.523 319.333C469.625 318.516 470.777 318.293 471.395 319.78C472.037 321.328 471.349 323.342 470.878 324.864C470.026 327.616 468.627 330.23 466.808 332.467C462.942 337.221 457.277 340.286 451.155 340.807C447.711 341.1 443.791 340.798 440.658 339.215C437.589 337.665 436.17 334.373 434.926 331.355C434.184 329.555 431.214 330.344 431.967 332.171C433.209 335.185 434.533 338.388 437.109 340.527C439.87 342.82 443.68 343.627 447.18 343.895C454.202 344.432 461.308 341.99 466.507 337.246C468.925 335.04 470.945 332.336 472.366 329.388C473.777 326.462 475.379 322.448 474.418 319.183C473.97 317.662 472.878 316.338 471.371 315.783C469.652 315.15 468.03 315.867 466.659 316.919C463.618 319.255 460.606 321.596 457.335 323.609C449.913 328.179 441.045 331.225 432.316 329.053C430.399 328.575 429.581 331.535 431.5 332.012Z" fill="#FF008C"/>
<path d="M440.106 341.933C446.356 341.264 452.098 339.109 457.673 336.283C462.814 333.677 468.466 331.242 472.549 327.056C473.929 325.641 471.761 323.469 470.379 324.886C466.596 328.765 461.303 330.991 456.545 333.419C451.351 336.07 445.949 338.238 440.106 338.865C438.163 339.073 438.142 342.144 440.106 341.933Z" fill="#FF008C"/>
<path d="M565.325 245.903C553.769 251.989 540.345 253.25 527.304 253.984C474.864 256.933 420.462 252.735 373.555 229.106C377.762 221.795 381.97 214.485 386.177 207.174C394.798 210.432 403.633 213.121 412.608 215.217C406.413 210.409 400.219 205.601 394.025 200.792C401.361 199.293 402.098 186.94 409.448 185.512C411.637 185.087 413.869 185.819 415.968 186.572C424.62 189.673 433.086 193.292 441.305 197.404C437.46 191.062 432.389 185.466 426.453 181.018C430.835 180.657 434.078 176.362 438.441 175.824C440.428 175.58 442.417 176.152 444.324 176.762C460.8 182.032 476.214 190.602 489.384 201.817C494.511 206.182 499.539 211.083 505.973 213.07C504.546 209.099 503.119 205.127 501.692 201.156C517.343 205.742 533.354 210.501 546.479 220.181C554.845 226.351 561.812 234.425 566.597 243.653" fill="#FF008C"/>
<path d="M564.55 244.578C553.232 250.475 540.284 251.707 527.743 252.424C515.023 253.152 502.274 253.453 489.535 253.172C464.154 252.613 438.725 249.731 414.207 242.979C400.464 239.194 387.071 234.182 374.329 227.781L374.879 229.881C379.087 222.57 383.294 215.259 387.502 207.948L385.769 208.653C394.397 211.904 403.224 214.59 412.199 216.697C413.55 217.014 414.99 215.139 413.692 214.132C407.498 209.324 401.304 204.515 395.11 199.707L394.432 202.272C400.113 201.002 402.156 194.797 405.138 190.55C406.826 188.144 409.032 186.505 412.114 187.037C414.366 187.426 416.556 188.399 418.684 189.197C420.91 190.031 423.123 190.9 425.321 191.802C430.476 193.919 435.545 196.241 440.531 198.729C441.84 199.382 443.476 198.014 442.63 196.629C438.604 190.043 433.384 184.342 427.228 179.693L426.453 182.553C429.114 182.267 431.302 181.008 433.537 179.62C435.983 178.1 438.265 176.894 441.231 177.498C444.229 178.108 447.184 179.297 450.042 180.371C452.887 181.44 455.692 182.611 458.452 183.883C469.586 189.015 479.957 195.704 489.24 203.709C494.214 207.998 499.183 212.511 505.565 214.549C506.629 214.889 507.845 213.756 507.452 212.662C506.025 208.691 504.598 204.72 503.172 200.749L501.284 202.636C521.005 208.415 541.323 214.747 555.557 230.452C559.385 234.676 562.632 239.377 565.271 244.428C566.186 246.179 568.836 244.629 567.921 242.879C563.132 233.714 556.307 225.738 548.085 219.48C539.547 212.981 529.617 208.607 519.534 205.105C513.783 203.108 507.941 201.388 502.1 199.677C501.037 199.365 499.812 200.45 500.213 201.564C501.639 205.535 503.066 209.506 504.493 213.477L506.381 211.59C500.671 209.766 496.169 205.654 491.723 201.809C487.062 197.779 482.166 194.03 477.009 190.654C466.767 183.949 455.4 178.369 443.622 174.941C440.294 173.972 437.258 174.074 434.171 175.69C431.69 176.987 429.336 179.175 426.453 179.484C424.886 179.652 424.435 181.403 425.679 182.343C431.399 186.663 436.244 192.067 439.98 198.178L442.08 196.079C437.565 193.826 432.981 191.718 428.332 189.757C423.801 187.846 419.179 185.837 414.455 184.452C410.912 183.413 407.47 183.817 404.713 186.353C402.59 188.306 401.233 190.974 399.777 193.42C398.305 195.893 396.621 198.641 393.617 199.312C392.576 199.545 392.026 201.168 392.94 201.877C399.134 206.686 405.328 211.494 411.522 216.302L413.015 213.738C404.039 211.631 395.213 208.944 386.585 205.694C385.961 205.459 385.168 205.85 384.852 206.399C380.644 213.71 376.437 221.021 372.229 228.332C371.836 229.016 372.034 230.056 372.78 230.431C395.786 241.988 420.769 249.039 446.194 252.741C471.932 256.49 498.04 257 523.987 255.695C538.309 254.974 553.147 253.976 566.1 247.229C567.852 246.316 566.302 243.666 564.55 244.578Z" fill="#FF008C"/>
</svg>
