<svg width="1000" height="1000" viewBox="0 0 1000 1000" fill="none" xmlns="http://www.w3.org/2000/svg">
<path d="M383.753 537.297C392.757 526.578 397.335 512.251 396.216 498.297C395.097 484.343 388.293 470.928 377.696 461.781C386.761 449.488 390.418 435.646 388.752 420.44C386.825 402.85 372.516 386.655 355.837 381.553C356.426 388.753 351.442 395.512 345.152 399.065C338.862 402.619 331.468 403.57 324.27 404.185C304.801 405.846 285.086 405.47 265.785 402.295C255.825 400.657 245.981 398.271 236.422 395.023C229.455 392.656 218.812 390.615 213.815 384.972C212.997 384.049 212.066 382.935 210.837 383.027C210.263 383.07 209.749 383.381 209.265 383.691C195.917 392.248 186.786 406.731 185.422 422.823C184.731 430.986 185.989 439.26 188.922 446.901C189.581 448.618 198.359 468.648 199.658 467.111C190.559 477.881 182.056 488.673 179.88 503.124C177.796 516.963 182.683 532.343 194.199 540.29C190.488 537.742 181.568 561.022 180.527 564.123C176.378 576.48 178.307 590.312 184.917 601.467C192.51 614.282 205.473 623.336 219.516 628.3C244.755 637.22 275.554 637.345 301.937 635.9C313.016 635.293 324.138 634.53 335.071 632.557C344.86 630.791 355.259 630.83 364.578 627.202C378.194 621.901 390.299 612.194 397.229 599.33C407.958 579.411 404.991 548.967 383.753 537.297Z" fill="white"/>
<path d="M384.896 538.44C392.283 529.573 396.79 518.599 397.795 507.1C398.769 495.95 396.121 484.629 390.563 474.934C387.485 469.563 383.509 464.702 378.839 460.639L379.092 462.597C387.412 451.235 391.526 437.538 390.63 423.463C390.227 417.123 388.702 411.09 385.843 405.404C383.004 399.756 379.02 394.636 374.322 390.414C369.104 385.725 362.977 382.081 356.267 379.995C355.313 379.698 354.151 380.519 354.221 381.553C354.857 390.834 346.766 397.538 338.673 400.105C333.928 401.61 328.964 402.173 324.023 402.59C318.492 403.058 312.946 403.36 307.396 403.48C285.335 403.957 263.115 401.563 241.966 395.113C237.81 393.846 233.684 392.489 229.528 391.222C225.701 390.055 221.824 388.793 218.405 386.671C216.811 385.682 215.609 384.463 214.319 383.125C212.595 381.336 210.592 380.966 208.45 382.297C204.783 384.575 201.401 387.437 198.429 390.559C192.583 396.699 188.186 404.209 185.769 412.339C182.981 421.718 182.983 431.811 185.424 441.265C186.773 446.488 189.039 451.356 191.315 456.225C192.501 458.761 193.715 461.289 195.049 463.752C195.863 465.255 196.766 467.291 198.193 468.328C198.994 468.909 200.054 469.008 200.801 468.254L198.516 465.969C190.867 475.028 183.283 484.556 179.81 496.088C176.641 506.61 177.209 518.154 181.965 528.115C184.556 533.542 188.453 538.238 193.383 541.686L195.014 538.895C192.266 537.153 189.692 540.933 188.457 542.842C186.156 546.398 184.402 550.327 182.732 554.208C181.435 557.219 180.167 560.259 179.086 563.356C176.923 569.551 176.28 576.317 177.022 582.824C178.605 596.701 186.178 608.928 196.942 617.633C207.721 626.349 220.746 631.188 234.177 634.077C248.673 637.194 263.58 638.175 278.379 638.202C293.812 638.229 309.416 637.537 324.743 635.705C328.805 635.219 332.825 634.544 336.86 633.882C340.685 633.256 344.544 632.881 348.388 632.401C352.278 631.916 356.17 631.357 359.97 630.371C363.412 629.478 366.721 628.163 369.931 626.64C381.777 621.019 392.237 611.911 398.53 600.32C403.678 590.837 405.726 579.602 404.611 568.892C403.503 558.263 399.238 547.715 391.107 540.524C389.102 538.751 386.907 537.201 384.569 535.902C382.749 534.891 381.118 537.681 382.938 538.692C401.564 549.042 405.289 573.964 398.485 592.609C394.407 603.786 385.978 613.113 376.077 619.518C370.529 623.106 364.439 626.003 357.994 627.533C350.769 629.248 343.313 629.567 336.001 630.766C320.99 633.227 305.866 634.298 290.667 634.778C276.537 635.224 262.333 634.997 248.294 633.214C235 631.524 221.331 628.508 209.456 622.093C198.384 616.113 188.616 607.042 183.599 595.329C180.918 589.071 179.667 582.202 180.019 575.404C180.259 570.76 181.374 566.308 183.029 561.984C184.369 558.481 185.818 555.017 187.415 551.624C188.875 548.523 190.495 544.857 192.765 542.449C192.93 542.273 193.102 542.103 193.283 541.944C193.615 541.651 193.033 542.142 193.355 541.884C193.44 541.816 193.548 541.754 193.645 541.707C193.703 541.678 193.578 541.726 193.554 541.712C193.771 541.839 192.977 541.428 193.383 541.686C195.162 542.813 196.696 540.071 195.014 538.895C186.883 533.21 182.25 523.554 181.253 513.837C180.136 502.947 183.55 492.49 189.316 483.343C192.693 477.985 196.722 473.085 200.801 468.254C202.123 466.687 200.001 464.467 198.516 465.969C198.981 465.498 199.549 465.618 200.098 465.736C200.054 465.727 200.316 466.02 200.134 465.758C200.061 465.654 199.948 465.557 199.863 465.461C199.814 465.406 199.681 465.23 199.892 465.504C199.823 465.414 199.757 465.322 199.693 465.229C199.133 464.413 198.633 463.559 198.153 462.694C196.877 460.394 195.726 458.024 194.601 455.648C193.51 453.344 192.453 451.023 191.428 448.689C191.254 448.291 191.08 447.893 190.908 447.494C190.847 447.351 190.785 447.208 190.724 447.065C190.568 446.7 190.811 447.288 190.657 446.907C190.039 445.376 189.51 443.809 189.043 442.225C186.336 433.039 186.076 423.177 188.672 413.936C190.921 405.929 195.206 398.551 200.977 392.569C202.389 391.105 203.887 389.723 205.459 388.433C206.24 387.793 207.041 387.18 207.861 386.592C208.66 386.019 209.7 385.04 210.648 384.761C211.52 384.505 212.135 385.526 212.672 386.115C213.325 386.83 214.03 387.474 214.793 388.07C216.259 389.215 217.855 390.156 219.533 390.955C223.122 392.665 226.935 393.829 230.736 394.958C234.992 396.222 239.182 397.69 243.447 398.926C264.076 404.903 285.712 407.16 307.147 406.716C312.532 406.605 317.913 406.323 323.28 405.883C328.166 405.484 333.097 404.997 337.843 403.716C346.165 401.468 354.166 396.15 356.78 387.525C357.364 385.599 357.59 383.559 357.453 381.553L355.408 383.111C366.634 386.601 376.236 394.85 381.987 405.037C388.137 415.93 388.9 429.187 385.845 441.181C384.015 448.365 380.672 454.998 376.301 460.966C375.907 461.505 376.056 462.491 376.554 462.924C384.392 469.744 390.111 478.794 392.892 488.809C395.755 499.122 395.248 510.094 391.687 520.172C389.637 525.974 386.549 531.427 382.611 536.155C381.289 537.742 383.563 540.04 384.896 538.44Z" fill="#FF008C"/>
<path d="M283.779 419.715C329.734 419.715 366.987 408.382 366.987 394.402C366.987 380.423 329.734 369.09 283.779 369.09C237.824 369.09 200.57 380.423 200.57 394.402C200.57 408.382 237.824 419.715 283.779 419.715Z" fill="white"/>
<path d="M365.378 394.403C365.368 395.541 365.036 396.73 364.464 397.776C363.691 399.19 362.771 400.212 361.509 401.352C358.368 404.188 354.41 406.163 350.536 407.783C338.358 412.875 324.931 415.197 311.878 416.621C295.184 418.442 278.251 418.593 261.519 417.183C247.761 416.023 233.779 413.888 220.735 409.21C216.308 407.623 211.91 405.692 208.063 402.954C206.645 401.945 205.316 400.778 204.209 399.431C203.43 398.483 202.728 397.236 202.413 396.056C202.096 394.872 202.1 393.875 202.432 392.678C202.759 391.498 203.506 390.208 204.321 389.24C206.843 386.245 210.351 384.186 213.824 382.481C218.781 380.048 224.086 378.332 229.412 376.913C236.198 375.104 243.124 373.819 250.08 372.869C266.596 370.614 283.419 370.187 300.048 371.189C314.445 372.057 329.004 373.961 342.815 378.253C347.726 379.779 352.597 381.621 357.034 384.249C359.973 385.991 362.947 388.203 364.502 391.098C365.045 392.109 365.368 393.301 365.378 394.403C365.397 396.481 368.629 396.486 368.61 394.402C368.535 386.288 359.34 381.36 352.94 378.563C340.366 373.067 326.493 370.614 312.937 369.071C295.611 367.099 278.012 366.939 260.644 368.466C246.423 369.716 231.879 371.921 218.467 376.998C213.88 378.734 209.319 380.811 205.413 383.818C202.685 385.919 200.069 388.651 199.242 392.103C197.365 399.939 205.275 405.562 211.272 408.651C222.798 414.589 236.079 417.225 248.813 418.995C265.979 421.382 283.432 421.894 300.723 420.806C315.584 419.871 330.688 417.886 344.898 413.279C349.929 411.649 354.965 409.673 359.464 406.86C362.615 404.889 365.853 402.345 367.505 398.92C368.192 397.497 368.595 395.988 368.61 394.402C368.629 392.323 365.397 392.321 365.378 394.403Z" fill="#FF008C"/>
<path d="M283.78 419.715C312.915 419.715 338.548 415.159 353.412 408.262C343.086 399.604 315.809 393.418 283.78 393.418C251.752 393.418 224.474 399.604 214.148 408.262C229.013 415.159 254.645 419.715 283.78 419.715Z" fill="#FF008C"/>
<path d="M283.784 421.331C303.497 421.314 323.782 419.658 342.741 413.951C346.659 412.771 350.513 411.372 354.231 409.657C355.127 409.244 355.313 407.747 354.558 407.12C348.983 402.49 341.792 399.935 334.915 397.969C324.959 395.122 314.623 393.583 304.323 392.68C292.08 391.607 279.731 391.512 267.471 392.351C256.833 393.078 246.16 394.475 235.816 397.114C227.894 399.136 219.402 401.81 213.009 407.12C212.255 407.747 212.44 409.244 213.336 409.657C220.397 412.914 227.935 415.05 235.522 416.674C245.21 418.749 255.082 419.984 264.959 420.68C271.224 421.122 277.504 421.325 283.784 421.331C285.863 421.333 285.866 418.101 283.784 418.1C264.445 418.083 244.618 416.476 226.007 410.931C222.248 409.811 218.531 408.511 214.967 406.867L215.294 409.405C220.536 405.052 227.548 402.758 234 400.946C243.746 398.209 253.832 396.706 263.905 395.855C275.783 394.851 287.754 394.762 299.647 395.552C309.981 396.238 320.32 397.582 330.378 400.1C334.794 401.206 339.192 402.528 343.387 404.312C346.507 405.64 349.651 407.227 352.273 409.405L352.6 406.867C345.749 410.027 338.361 412.031 331.001 413.598C321.503 415.62 311.839 416.816 302.154 417.48C296.04 417.9 289.912 418.094 283.784 418.1C281.705 418.101 281.701 421.333 283.784 421.331Z" fill="#FF008C"/>
<path d="M283.897 306.282C285.412 298.181 282.573 289.864 278.642 282.621C268.685 264.276 251.671 250.398 232.737 241.616C213.802 232.833 192.973 228.825 172.188 226.924C179.582 240.523 183.895 255.578 187.249 270.689C189.497 280.819 191.353 291.082 194.848 300.852C198.344 310.622 203.632 320.01 211.62 326.631C216.392 330.586 222 333.449 227.84 335.523C234.739 337.974 242.359 339.345 249.362 337.209C257.55 334.711 259.953 328.932 262.727 321.712C265.606 323.842 269.719 323.586 272.937 322.016C279.06 319.028 282.671 312.837 283.897 306.282Z" fill="#84FF20"/>
<path d="M285.163 304.585C285.849 295.485 283.578 286.243 279.017 278.361C274.134 269.92 265.858 264.997 258.368 258.983C251.626 253.569 244.793 248.099 236.925 244.512C231.555 250.233 235.831 264.794 237.852 271.313C240.524 279.93 244.722 288.523 252.039 293.8C257.759 297.925 264.896 299.65 271.928 300.176C276.725 300.534 282.286 300.731 285.163 304.585Z" fill="#FF008C"/>
<path d="M345.069 262.826C341.13 273.599 333.989 282.978 323.493 288.208C317.201 291.342 310.987 292.532 304.024 290.246C300.093 288.955 296.616 286.319 294.312 282.882C290.713 286.556 288.57 289.339 283.387 290.371C278.729 291.3 273.837 291.106 269.262 289.831C254.081 285.598 246.221 274.291 245.052 259.227C242.767 229.803 256.808 201.972 267.095 174.311C272.786 159.007 277.402 143.322 281.454 127.505C291.395 141.516 301.343 155.536 312.028 168.989C319.299 178.143 327.008 185.92 333.179 195.949C339.482 206.194 344.867 217.164 347.417 228.987C349.752 239.813 349.021 252.02 345.069 262.826Z" fill="#84FF20"/>
<path d="M347.411 228.987C346.312 223.889 344.683 218.95 342.683 214.16C340.79 215.24 338.829 216.236 336.953 217.258C320.194 226.389 306.731 241.426 299.5 259.088C296.899 265.44 295.07 272.212 295.176 279.075C295.206 281 295.42 282.925 295.802 284.816C298.001 287.305 300.862 289.21 304.019 290.246C310.982 292.532 317.195 291.343 323.487 288.208C333.983 282.979 341.124 273.599 345.064 262.826C349.015 252.02 349.746 239.813 347.411 228.987Z" fill="#FF008C"/>
<path d="M363.738 326.22C354.06 327.503 339.177 324.151 334.645 314.384C333.257 311.392 332.825 308.037 332.811 304.739C324.617 305.349 318.675 303.419 313.612 296.659C309.482 291.144 307.925 284.069 307.758 277.181C307.383 261.742 313.697 246.358 324.403 235.228C330.998 228.372 339.098 223.123 347.543 218.742C371.551 206.286 398.545 200.522 422.755 188.464C432.684 183.519 442.065 177.553 451.424 171.6C444.214 191.035 436.994 210.496 431.375 230.45C423.561 258.199 417.7 287.419 396.7 308.749C387.912 317.674 376.36 324.508 363.818 326.209C363.791 326.213 363.765 326.217 363.738 326.22Z" fill="#84FF20"/>
<path d="M360.507 326.065C357.386 326.505 348.669 328.291 348.126 323.381C347.819 320.597 351.762 317.614 353.564 316.114C358.602 311.922 365.079 307.594 371.34 305.451C380.424 302.342 390.49 302.176 399.671 304.985C395.971 311.732 389.673 316.801 382.713 320.085C375.754 323.368 368.127 324.991 360.507 326.065Z" fill="#FF008C"/>
<path d="M446.237 328.566C442.38 328.089 435.47 334.06 432.677 336.285C428.266 339.797 424.36 343.888 420.406 347.892C413.494 354.89 405.6 365.555 396.054 368.921C392.534 370.162 388.693 369.981 384.966 369.785C382.399 369.65 379.743 369.491 377.459 368.312C373.878 366.463 370.762 361.918 369.244 358.236C368.766 357.074 366.926 344.636 368.088 344.664C359.808 344.462 352.924 335.554 354.816 327.491C356.472 320.433 363.204 315.813 369.808 312.822C374.055 310.9 378.512 309.344 383.139 308.779C394.207 307.428 405.127 311.804 415.145 316.7C425.163 321.596 435.171 327.198 446.237 328.566Z" fill="#84FF20"/>
<path d="M198.66 366.503C197.891 366.129 197.14 365.717 196.408 365.28C189.146 360.949 183.837 354.013 179.182 347.103C174.027 339.451 168.216 331.159 159.312 328.738C162.631 329.641 168.16 328.126 171.74 328.248C176.55 328.412 181.181 329.429 185.945 329.854C193.041 330.487 198.746 331.002 205.745 333.111C208.726 334.008 211.731 334.916 214.473 336.389C217.886 338.221 225.207 343.385 225.43 347.777C225.647 352.049 216.925 354.215 216.746 351.691C217.089 356.52 217.217 361.98 213.857 365.466C211.675 367.729 208.351 368.651 205.215 368.413C202.93 368.239 200.731 367.51 198.66 366.503Z" fill="#84FF20"/>
<path d="M343.758 643.906C364.367 652.021 383.521 663.516 404.173 671.52C424.826 679.525 447.999 683.899 469.085 677.116C479.558 673.747 488.991 667.797 498.106 661.635C523.632 644.376 547.642 624.992 571.616 605.634C572.386 605.013 573.186 604.351 573.551 603.432C574.015 602.262 573.676 600.945 573.333 599.734C571.267 592.438 568.462 584.255 561.519 581.204C554.629 578.175 546.743 581.572 540.08 585.071C514.948 598.271 490.392 612.331 465.585 626.212C461.914 628.266 458.155 630.353 454.013 631.088C443.177 633.013 433.238 625.511 424.023 619.495C406.464 608.03 386.236 600.682 365.412 598.203" fill="white"/>
<path d="M343.325 645.464C359.314 651.781 374.392 660.11 390.012 667.246C405.213 674.19 421.069 679.958 437.802 681.622C445.922 682.429 454.158 682.19 462.169 680.581C470.274 678.953 477.921 675.735 485.114 671.708C492.5 667.574 499.484 662.721 506.414 657.874C513.607 652.842 520.69 647.654 527.694 642.362C541.692 631.786 555.377 620.804 569.028 609.786C570.626 608.496 572.468 607.29 573.874 605.788C575.213 604.356 575.572 602.654 575.236 600.751C574.659 597.488 573.396 594.148 572.103 591.107C569.459 584.887 564.932 579.462 557.86 578.56C549.657 577.515 541.851 582.291 534.908 585.974C526.944 590.197 519.025 594.507 511.133 598.864C495.362 607.569 479.719 616.501 463.977 625.257C460.426 627.233 456.699 629.227 452.592 629.671C448.915 630.069 445.285 629.32 441.855 628.014C434.603 625.253 428.413 620.252 421.863 616.214C408.149 607.76 392.904 601.723 377.125 598.476C373.248 597.678 369.338 597.062 365.409 596.587C364.535 596.482 363.801 597.406 363.793 598.203C363.783 599.163 364.546 599.715 365.409 599.819C381.06 601.708 396.396 606.383 410.45 613.52C417.373 617.036 423.711 621.365 430.254 625.511C436.398 629.404 443.305 633.115 450.785 633.01C458.964 632.895 466.184 627.732 473.059 623.873C480.782 619.537 488.498 615.187 496.226 610.858C511.519 602.292 526.791 593.551 542.45 585.663C548.789 582.47 557.122 579.291 563.456 584.226C568.361 588.049 570.478 594.994 571.937 600.778C572.147 601.607 572.343 602.511 571.804 603.261C571.284 603.985 570.406 604.544 569.725 605.094C568.11 606.398 566.495 607.702 564.879 609.005C561.523 611.712 558.164 614.416 554.798 617.112C548.067 622.502 541.308 627.858 534.486 633.133C520.984 643.574 507.243 653.784 492.952 663.128C486.211 667.535 479.204 671.692 471.636 674.52C464.088 677.341 456.111 678.712 448.064 678.836C431.885 679.085 415.988 674.654 401.122 668.578C385.574 662.224 370.847 654.074 355.548 647.17C351.797 645.477 348.011 643.86 344.183 642.348C342.249 641.584 341.41 644.707 343.325 645.464Z" fill="#FF008C"/>
<path d="M295.062 407.726C297.519 392.626 300.283 377.672 305.194 363.148C309.744 349.693 315.677 336.739 322.565 324.325C336.874 298.536 355.216 275.286 374.791 253.321C386.108 240.62 397.852 228.31 409.593 216.003C411.028 214.498 408.747 212.21 407.308 213.718C386.226 235.816 365.116 257.983 346.534 282.268C328.993 305.192 313.773 330.141 303.824 357.329C301.056 364.894 298.714 372.616 296.872 380.459C294.824 389.181 293.384 398.029 291.946 406.867C291.615 408.901 294.729 409.776 295.062 407.726Z" fill="#FF008C"/>
<path d="M422.01 205.367L423.764 204.198C423.952 204.096 424.103 203.958 424.217 203.782C424.36 203.626 424.456 203.443 424.506 203.232C424.573 203.017 424.583 202.803 424.535 202.588C424.525 202.373 424.461 202.173 424.343 201.987C424.121 201.642 423.79 201.339 423.378 201.245L422.948 201.187C422.657 201.188 422.385 201.261 422.133 201.408L420.38 202.576C420.191 202.678 420.04 202.817 419.926 202.993C419.783 203.149 419.687 203.332 419.637 203.542C419.57 203.757 419.56 203.972 419.608 204.186C419.618 204.401 419.682 204.602 419.8 204.787C420.022 205.132 420.353 205.436 420.765 205.53L421.195 205.587C421.487 205.586 421.758 205.513 422.01 205.367Z" fill="#FF008C"/>
<path d="M280.162 625.478C283.254 634.627 286.848 643.606 290.924 652.361C296.453 664.238 303.053 676.783 300.902 689.706C298.946 701.462 290.156 710.73 281.783 719.21C266.866 734.318 251.949 749.425 237.033 764.533C224.089 777.644 210.534 788.186 200.828 804.519C203.878 811.843 212.826 818.041 218.367 823.618C219.9 820.585 224.081 819.245 227.092 820.823C230.102 822.401 231.379 826.601 229.757 829.588C229.215 830.587 228.378 831.552 228.479 832.685C228.552 833.49 229.094 834.165 229.618 834.781C236.541 842.918 244.456 850.209 253.131 856.444C264.254 864.438 284.115 864.981 281.732 845.665C281.096 840.514 277.595 835.029 277.78 829.888C277.921 825.97 280.974 820.873 282.914 817.561C287.977 808.915 295.576 801.938 303.524 795.98C314.831 787.505 327.349 780.508 337.379 770.553C359.607 748.491 366.446 714.858 364.673 683.589C363.264 658.741 356.627 633.27 340.41 614.391" fill="white"/>
<path d="M278.61 625.908C281.399 634.137 284.583 642.23 288.15 650.154C291.603 657.821 295.624 665.303 297.97 673.415C300.168 681.017 300.428 688.897 297.313 696.288C294.412 703.167 289.417 708.949 284.319 714.295C271.953 727.264 259.149 739.839 246.56 752.59C240.558 758.668 234.605 764.793 228.428 770.695C222.849 776.025 217.192 781.289 211.999 787.004C209.404 789.859 206.937 792.827 204.634 795.924C203.475 797.483 202.362 799.078 201.303 800.707C200.744 801.566 200.173 802.43 199.667 803.322C199.1 804.322 199.24 804.938 199.715 805.96C202.637 812.244 208.529 816.821 213.571 821.336C214.817 822.45 216.049 823.579 217.231 824.76C217.948 825.477 219.269 825.353 219.768 824.433C220.978 822.205 223.936 821.051 226.282 822.218C228.389 823.265 229.397 826.112 228.586 828.289C228.115 829.553 227.142 830.503 226.926 831.883C226.623 833.825 227.88 835.231 229.061 836.6C231.387 839.296 233.822 841.898 236.358 844.397C241.363 849.33 246.764 853.947 252.522 857.981C255.848 860.312 259.744 861.966 263.728 862.753C271.314 864.252 280.112 862.382 282.765 854.194C284.506 848.82 283.113 843.274 281.294 838.14C280.277 835.269 278.99 832.077 279.493 828.971C279.984 825.946 281.59 823.117 283.087 820.489C286.465 814.557 290.58 809.354 295.566 804.687C300.616 799.96 306.217 795.899 311.901 791.979C323.206 784.181 334.888 776.693 343.727 765.996C359.792 746.554 366.043 720.872 366.531 696.085C367.038 670.304 362.215 642.702 347.509 621.034C345.674 618.33 343.681 615.733 341.558 613.248C340.205 611.665 337.929 613.96 339.273 615.533C356.366 635.535 362.561 662.71 363.268 688.451C363.941 712.913 359.326 738.664 345.02 759.013C337.204 770.132 326.489 778.107 315.385 785.689C304.064 793.42 292.442 801.241 284.299 812.501C282.532 814.944 280.989 817.549 279.55 820.197C278.08 822.899 276.658 825.801 276.264 828.885C275.442 835.327 279.903 841.026 280.277 847.347C280.501 851.123 279.793 855.248 276.657 857.722C273.986 859.83 270.359 860.237 267.073 859.983C263.289 859.691 259.536 858.409 256.255 856.528C253.788 855.113 251.53 853.309 249.307 851.546C246.516 849.333 243.816 847.008 241.213 844.578C238.61 842.147 236.106 839.612 233.708 836.979C232.634 835.8 231.436 834.627 230.507 833.327C229.54 831.974 231.247 830.498 231.702 829.148C233.525 823.735 228.994 817.909 223.297 818.615C220.657 818.943 218.259 820.444 216.978 822.802L219.516 822.475C213.619 816.583 205.623 811.618 202.229 803.704V805.334C209.293 793.515 219.142 784.001 229.037 774.578C240.163 763.982 250.811 752.883 261.605 741.951C267.315 736.168 273.025 730.385 278.736 724.601C283.555 719.72 288.522 714.926 292.816 709.562C296.876 704.492 300.399 698.845 301.979 692.479C303.673 685.656 302.906 678.581 300.897 671.915C298.537 664.085 294.705 656.807 291.332 649.388C287.72 641.443 284.527 633.314 281.726 625.049C281.062 623.09 277.94 623.93 278.61 625.908Z" fill="#FF008C"/>
<path d="M295.542 409.144C306.802 395.072 318.596 381.326 332.089 369.329C345.126 357.737 359.882 347.812 376.244 341.571C385.267 338.13 394.725 335.811 404.359 335.021C406.417 334.852 406.435 331.619 404.359 331.79C386.761 333.233 369.916 339.453 354.823 348.475C339.289 357.759 325.692 369.952 313.428 383.183C306.377 390.79 299.735 398.763 293.257 406.859C291.97 408.467 294.242 410.768 295.542 409.144Z" fill="#FF008C"/>
<path d="M245.375 631.1C249.289 670.442 252.022 709.901 253.571 749.407C254.337 768.938 254.813 788.48 255 808.025C255.163 825.003 253.67 842.832 256.81 859.571C263.937 863.054 274.749 861.798 282.594 862.323C281.741 859.034 283.995 855.266 287.297 854.462C290.599 853.658 294.333 855.967 295.088 859.281C295.341 860.389 295.35 861.667 296.174 862.45C296.761 863.007 297.614 863.156 298.414 863.273C308.987 864.808 319.745 865.054 330.377 864.004C344.008 862.657 359.277 849.945 344.729 837.018C340.07 832.879 333.959 830.589 329.497 826.238C322.467 819.382 320.82 808.843 319.835 799.074C315.134 752.448 320.674 720.774 316.904 673.38" fill="white"/>
<path d="M243.759 631.1C245.485 648.466 246.984 665.855 248.251 683.261C249.519 700.668 250.556 718.09 251.362 735.524C252.169 752.974 252.745 770.436 253.09 787.901C253.261 796.563 253.452 805.233 253.385 813.897C253.319 822.308 253.033 830.721 253.249 839.133C253.354 843.24 253.579 847.346 254.014 851.432C254.237 853.525 254.512 855.613 254.848 857.69C254.982 858.514 254.989 859.657 255.415 860.387C255.835 861.106 256.92 861.4 257.656 861.688C263.99 864.171 271.216 863.721 277.888 863.788C279.458 863.804 281.027 863.84 282.594 863.939C283.689 864.009 284.371 862.855 284.152 861.894C283.359 858.415 286.718 855.015 290.187 856.176C291.887 856.744 293.188 858.125 293.565 859.879C294.006 861.929 294.417 863.751 296.621 864.529C297.642 864.89 298.791 864.948 299.857 865.09C301.221 865.271 302.587 865.433 303.956 865.573C306.613 865.844 309.278 866.035 311.947 866.145C317.203 866.363 322.472 866.265 327.716 865.855C335.436 865.25 343.512 862.89 348.686 856.723C350.832 854.165 352.322 851.017 352.244 847.617C352.151 843.578 349.976 839.977 347.218 837.157C344.004 833.871 339.969 831.673 336.122 829.238C332.432 826.902 329.219 824.187 326.972 820.391C322.534 812.891 321.848 803.693 321.081 795.209C319.37 776.298 319.3 757.336 319.606 738.366C319.912 719.29 320.229 700.222 319.066 681.165C318.908 678.569 318.724 675.974 318.519 673.38C318.357 671.321 315.124 671.303 315.288 673.38C316.823 692.824 316.809 712.295 316.484 731.782C316.17 750.578 315.932 769.371 317.276 788.137C317.925 797.199 318.338 806.771 321.246 815.454C322.571 819.412 324.504 823.161 327.302 826.283C330.285 829.612 334.205 831.843 337.963 834.17C343.966 837.885 352.137 844.508 347.792 852.391C344.18 858.943 335.96 861.906 328.926 862.523C323.605 862.99 318.255 863.131 312.917 862.951C310.329 862.863 307.743 862.7 305.164 862.46C303.875 862.34 302.587 862.202 301.302 862.044C300.208 861.909 298.542 861.981 297.55 861.442C296.867 861.07 296.874 860.046 296.746 859.36C296.567 858.394 296.234 857.446 295.7 856.615C294.615 854.925 292.953 853.679 291.046 853.06C287.279 851.836 283.245 853.829 281.613 857.371C280.822 859.086 280.616 860.91 281.036 862.753L282.594 860.708C278.345 860.438 274.083 860.611 269.831 860.456C265.725 860.306 261.389 859.966 257.625 858.176L258.368 859.142C255.74 844.934 256.428 830.393 256.595 816.024C256.769 801.108 256.343 786.168 255.923 771.259C255.079 741.32 253.557 711.4 251.356 681.529C250.116 664.702 248.659 647.89 246.991 631.1C246.787 629.05 243.553 629.028 243.759 631.1Z" fill="#FF008C"/>
<path d="M736.444 706.233C723.125 731.184 697.803 773.963 686.003 799.668C680.17 812.376 674.525 825.17 669.07 838.045C664.332 849.23 660.457 861.428 653.814 871.642C648.15 872.002 641.343 868.222 636.011 866.43C637.473 864.487 637.009 861.38 635.045 859.948C633.08 858.515 629.981 859.024 628.578 861.01C628.109 861.674 627.754 862.517 626.995 862.81C626.455 863.018 625.851 862.884 625.289 862.742C617.879 860.874 610.696 858.103 603.952 854.508C595.304 849.9 588.673 837.328 601.82 832.747C606.03 831.28 610.697 831.432 614.834 829.772C621.353 827.155 625.317 820.634 628.633 814.442C644.459 784.888 657.733 736.951 683.625 691.12" fill="white"/>
<path d="M735.053 705.417C724.665 724.867 713.55 743.923 702.962 763.264C697.755 772.774 692.615 782.331 687.841 792.067C681.963 804.058 676.655 816.35 671.366 828.608C668.27 835.782 665.335 843.006 662.441 850.262C659.613 857.353 656.576 864.395 652.424 870.827L653.819 870.026C647.731 870.318 642.036 866.783 636.445 864.872L637.411 867.245C639.406 864.361 638.507 859.882 635.329 858.223C633.84 857.446 632.006 857.302 630.41 857.827C629.595 858.096 628.84 858.507 628.19 859.068C627.881 859.335 627.627 859.62 627.38 859.944C627.138 860.26 626.856 861.015 626.513 861.194C625.853 861.54 624.228 860.798 623.507 860.597C622.329 860.269 621.157 859.919 619.993 859.545C617.737 858.822 615.508 858.014 613.313 857.124C609.638 855.634 605.693 854.031 602.476 851.671C598.934 849.073 594.661 843.87 596.373 839.135C597.335 836.473 600.138 834.98 602.676 834.164C607.046 832.757 611.754 832.882 616.001 831.023C623.135 827.901 627.232 820.61 630.685 814.027C633.887 807.92 636.723 801.625 639.428 795.284C645.875 780.171 651.641 764.776 657.844 749.563C664.958 732.112 672.598 714.854 681.54 698.254C682.68 696.136 683.843 694.03 685.025 691.935C686.048 690.122 683.257 688.491 682.234 690.304C672.873 706.902 664.906 724.227 657.573 741.803C651.093 757.332 645.173 773.086 638.743 788.635C636.022 795.215 633.192 801.757 630.05 808.148C628.53 811.239 626.954 814.317 625.199 817.282C623.245 820.583 620.973 823.859 617.881 826.199C611.312 831.168 601.718 828.601 595.643 834.519C591.483 838.571 592.453 844.62 595.491 849.021C599.635 855.023 606.533 857.892 613.092 860.497C615.294 861.371 617.529 862.162 619.79 862.869C620.884 863.211 621.984 863.533 623.09 863.835C624.197 864.137 625.42 864.59 626.584 864.523C627.597 864.465 628.441 863.941 629.062 863.167C629.596 862.5 629.918 861.714 630.658 861.243C631.861 860.476 633.677 860.555 634.598 861.73C635.504 862.886 635.426 864.451 634.621 865.615C633.991 866.525 634.672 867.676 635.586 867.988C638.821 869.094 641.92 870.558 645.149 871.681C646.74 872.235 648.364 872.718 650.028 872.995C651.303 873.206 653.685 873.77 654.798 872.911C655.474 872.39 655.931 871.34 656.371 870.614C656.862 869.805 657.335 868.986 657.795 868.159C658.684 866.561 659.52 864.934 660.314 863.287C661.945 859.908 663.406 856.449 664.813 852.972C667.704 845.832 670.525 838.677 673.57 831.599C676.886 823.892 680.27 816.215 683.722 808.569C688.753 797.425 694.138 786.5 699.897 775.714C706.042 764.203 712.41 752.811 718.789 741.429C724.6 731.063 730.456 720.72 736.112 710.269C736.692 709.197 737.269 708.124 737.844 707.049C738.823 705.215 736.034 703.58 735.053 705.417Z" fill="#FF008C"/>
<path d="M707.906 721.313C710.706 749.457 711.146 761.795 712.255 790.057C712.803 804.029 713.144 818.009 713.277 831.992C713.393 844.138 712.325 856.892 714.572 868.867C719.671 871.359 727.405 870.46 733.017 870.836C732.407 868.482 734.02 865.787 736.382 865.212C738.744 864.637 741.415 866.289 741.955 868.66C742.136 869.453 742.143 870.367 742.733 870.927C743.152 871.325 743.762 871.432 744.335 871.515C751.898 872.613 759.595 872.789 767.2 872.038C776.952 871.075 787.876 861.981 777.468 852.733C774.135 849.772 769.763 848.134 766.571 845.021C761.542 840.117 760.364 832.577 759.659 825.588C756.296 792.233 762.302 742.855 755.839 690.614" fill="white"/>
<path d="M706.291 721.313C708.263 741.168 709.489 761.028 710.282 780.963C710.772 793.31 711.219 805.656 711.459 818.01C711.58 824.235 711.715 830.465 711.657 836.69C711.602 842.721 711.402 848.753 711.579 854.783C711.676 858.095 711.887 861.405 712.304 864.693C712.492 866.173 712.488 868.122 713.095 869.49C713.587 870.598 715.407 870.998 716.475 871.299C721.839 872.813 727.527 872.111 733.017 872.452C734.122 872.521 734.783 871.369 734.575 870.407C733.863 867.102 738.327 865.368 740.069 868.263C740.479 868.943 740.45 869.738 740.678 870.479C740.959 871.393 741.503 872.139 742.344 872.603C743.173 873.06 744.169 873.114 745.087 873.237C746.286 873.399 747.488 873.542 748.693 873.66C753.386 874.12 758.114 874.228 762.823 873.984C766.66 873.784 770.365 873.434 773.925 871.902C779.516 869.495 785.204 863.833 782.705 857.242C781.321 853.592 778.226 850.991 775.029 848.933C771.806 846.857 768.294 845.104 766.006 841.908C761.852 836.106 761.428 828.269 760.906 821.391C760.391 814.613 760.226 807.812 760.18 801.017C760.071 784.917 760.587 768.819 760.621 752.719C760.659 734.385 760.152 716.032 758.267 697.786C758.02 695.393 757.748 693.002 757.455 690.614C757.347 689.741 756.789 689.009 755.839 688.999C755.048 688.99 754.117 689.749 754.223 690.614C756.496 709.099 757.283 727.723 757.38 746.337C757.466 762.84 756.967 779.337 756.937 795.839C756.925 802.906 757.004 809.979 757.391 817.037C757.769 823.915 758.052 831.241 760.349 837.79C761.574 841.284 763.476 844.561 766.327 846.978C769.329 849.522 773.029 851.067 776.02 853.61C778.488 855.708 780.825 858.737 779.827 862.152C778.997 864.994 776.384 867.032 773.876 868.36C770.485 870.156 766.841 870.533 763.066 870.739C758.358 870.995 753.63 870.899 748.936 870.452C747.794 870.343 746.653 870.215 745.516 870.062C745.123 870.01 744.446 870.029 744.074 869.829C743.705 869.631 743.728 869.357 743.643 868.929C743.3 867.195 742.534 865.77 741.074 864.719C738.17 862.629 734.193 863.358 732.279 866.403C731.354 867.875 731.095 869.577 731.459 871.266L733.017 869.221C727.297 868.866 720.741 869.99 715.387 867.472L716.13 868.438C714.263 858.287 714.761 847.901 714.879 837.636C715.001 827.021 714.698 816.389 714.4 805.779C713.888 787.58 713.242 769.353 712.053 751.184C711.401 741.212 710.51 731.257 709.522 721.313C709.318 719.263 706.085 719.241 706.291 721.313Z" fill="#FF008C"/>
<path d="M414.178 333.567C416.257 333.567 416.261 330.336 414.178 330.336C412.099 330.336 412.095 333.567 414.178 333.567Z" fill="#FF008C"/>
<path d="M525.299 513.443C517.988 508.485 508.834 506.315 500.075 507.463C491.316 508.611 483.031 513.067 477.244 519.741C469.654 528.495 466.651 540.374 465.846 551.932C465.283 560.019 465.729 568.394 469.058 575.786C472.387 583.177 479.034 589.44 487.06 590.579C488.901 590.841 490.826 590.825 492.56 590.154C495.535 589.002 497.519 586.056 498.345 582.975C498.528 582.292 498.664 581.576 498.536 580.881C498.3 579.589 497.226 578.64 496.222 577.794C491.067 573.451 485.825 568.702 483.532 562.364C480.411 553.734 483.497 543.98 488.489 536.28C490.262 533.545 492.339 530.902 495.135 529.225C499.019 526.896 503.894 526.71 508.302 527.749C512.71 528.789 516.762 530.945 520.745 533.102" fill="white"/>
<path d="M526.121 512.047C519.248 507.447 510.858 505.12 502.593 505.609C494.634 506.079 487.02 509.118 480.808 514.088C467.926 524.394 463.945 542.162 464.033 557.92C464.079 566.149 465.641 574.766 470.539 581.57C474.81 587.502 481.634 592.393 489.212 592.352C493.237 592.33 496.624 590.208 498.57 586.71C499.446 585.134 500.269 583.135 500.205 581.3C500.136 579.306 498.804 577.875 497.371 576.651C491.391 571.545 485.032 565.841 484.041 557.564C483.077 549.509 486.668 541.024 491.527 534.751C494.098 531.432 497.476 529.169 501.734 528.822C506.026 528.471 510.215 529.718 514.08 531.497C516.073 532.414 518.006 533.453 519.936 534.497C521.765 535.487 523.398 532.698 521.566 531.707C514.454 527.859 506.361 523.862 498.081 526.221C490.49 528.384 485.899 536.26 483.123 543.132C480.162 550.461 479.591 558.78 483.365 565.928C485.154 569.318 487.742 572.257 490.505 574.886C491.884 576.199 493.324 577.445 494.776 578.675C495.4 579.204 496.132 579.73 496.601 580.412C497.145 581.202 496.95 582.034 496.693 582.9C495.617 586.52 492.904 589.165 488.997 589.118C485.472 589.076 482.031 587.671 479.157 585.696C472.887 581.388 469.408 574.277 468.044 566.964C466.575 559.089 467.129 550.607 468.633 542.775C470.084 535.218 472.808 527.677 477.735 521.665C487.69 509.518 505.047 505.35 519.367 511.951C521.152 512.774 522.857 513.745 524.49 514.838C526.223 515.998 527.842 513.2 526.121 512.047Z" fill="#FF008C"/>
<path d="M311.674 637.093C307.583 641.982 293.3 663.311 301.573 669.176C303.85 670.789 307.055 669.502 309.212 667.731C311.715 665.676 313.683 663.034 315.311 660.234C317.983 655.639 319.8 650.549 320.641 645.3" fill="#FF008C"/>
<path d="M310.53 635.95C308.286 638.646 306.329 641.604 304.516 644.602C302.138 648.535 299.965 652.695 298.564 657.087C297.466 660.528 296.675 664.694 298.462 668.047C299.546 670.081 301.627 671.509 303.962 671.528C307.207 671.556 310.067 669.38 312.205 667.153C317.672 661.458 320.923 653.425 322.197 645.73C322.534 643.696 319.42 642.821 319.081 644.871C318.042 651.146 315.712 657.27 311.959 662.436C309.921 665.241 303.685 671.514 301.168 666.252C299.972 663.752 300.944 660.119 301.846 657.44C303.114 653.67 304.993 650.109 307.026 646.701C308.769 643.777 310.804 640.651 312.815 638.235C314.136 636.648 311.862 634.35 310.53 635.95Z" fill="#FF008C"/>
<path d="M285.937 159.29C291.006 191.755 293.745 224.551 294.831 257.382C295.918 290.258 295.356 323.171 293.839 356.023C292.985 374.522 291.826 393.005 290.486 411.474C290.335 413.549 293.568 413.539 293.717 411.474C296.11 378.491 297.924 345.455 298.463 312.385C299 279.374 298.268 246.322 295.557 213.41C294.042 195.014 291.901 176.669 289.053 158.431C288.733 156.382 285.619 157.252 285.937 159.29Z" fill="#FF008C"/>
<path d="M788.691 656.287C781.444 678.478 758.825 694.039 736.536 698.247C732.219 699.062 727.836 699.49 723.45 699.744C700.748 701.058 674.38 696.801 657.054 680.765C651.329 675.467 647.195 668.452 644.699 661.029C639.205 644.699 641.12 625.946 649.793 611.118C654.377 603.283 666.067 592.694 663.797 582.733C663.261 580.385 662.347 578.074 662.425 575.663C662.517 572.823 664.017 570.166 666.051 568.222C668.086 566.278 670.621 564.969 673.197 563.881C679.189 561.351 684.295 561.591 690.504 560.69C697.872 559.62 705.264 558.683 712.692 558.18C726.849 557.221 741.284 557.839 754.901 562.216C763.219 564.89 776.059 571.059 773.708 582.083C773.157 584.665 771.806 587.071 771.676 589.71C771.475 593.809 774.202 597.373 776.663 600.622C788.835 616.694 795.18 635.277 788.963 655.432C788.874 655.719 788.784 656.003 788.691 656.287Z" fill="white"/>
<path d="M787.133 655.857C782.649 669.417 772.339 680.291 760.227 687.506C754.18 691.108 747.645 693.856 740.832 695.628C732.943 697.68 724.71 698.298 716.579 698.349C701.947 698.44 686.859 696.216 673.556 689.869C666.917 686.702 660.545 682.489 655.604 676.99C650.246 671.026 646.751 663.546 644.869 655.797C641.203 640.702 643.546 623.339 652.223 610.288C655.989 604.623 660.824 599.621 663.687 593.383C665.028 590.461 665.982 587.241 665.626 583.995C665.183 579.949 662.903 576.215 664.998 572.242C666.912 568.613 670.802 566.511 674.498 565.088C678.377 563.595 682.453 563.192 686.554 562.775C691.093 562.314 695.599 561.56 700.129 561.01C704.77 560.447 709.425 559.986 714.093 559.706C723.054 559.167 732.121 559.255 741.008 560.629C748.163 561.735 755.491 563.492 761.96 566.842C766.557 569.222 771.931 573.023 772.347 578.684C772.632 582.56 770.247 585.894 770.06 589.71C769.862 593.765 772.201 597.344 774.525 600.453C779.319 606.868 783.619 613.617 786.374 621.181C789.049 628.525 790.25 636.309 789.577 644.112C789.232 648.11 788.362 652.042 787.133 655.857C786.494 657.841 789.613 658.691 790.249 656.716C792.828 648.708 793.609 640.281 792.428 631.948C791.283 623.863 788.278 616.119 784.22 609.061C782.124 605.417 779.698 602.023 777.191 598.656C775.97 597.017 774.722 595.301 773.961 593.39C773.157 591.371 773.149 589.423 773.758 587.352C774.35 585.342 775.178 583.429 775.463 581.338C775.681 579.733 775.629 578.122 775.266 576.54C774.607 573.66 772.881 571.105 770.784 569.068C766.442 564.851 760.58 562.311 754.881 560.516C745.948 557.701 736.558 556.462 727.213 556.22C717.593 555.97 707.979 556.78 698.442 557.988C693.845 558.571 689.27 559.267 684.659 559.733C680.351 560.168 676.192 560.852 672.189 562.568C668.385 564.199 664.686 566.446 662.508 570.083C661.461 571.831 660.825 573.845 660.808 575.889C660.789 578.159 661.531 580.328 662.078 582.503C663.827 589.444 658.772 596.052 654.864 601.283C652.828 604.009 650.66 606.663 648.853 609.553C646.72 612.963 645.034 616.694 643.677 620.475C640.863 628.317 639.644 636.782 640.078 645.1C640.514 653.476 642.582 661.801 646.439 669.267C650.178 676.504 655.65 682.366 662.28 687.042C674.925 695.959 690.492 699.97 705.743 701.189C721.524 702.45 737.937 701.24 752.616 694.984C766.161 689.212 778.502 679.473 785.867 666.578C787.654 663.449 789.118 660.136 790.249 656.716C790.904 654.737 787.784 653.889 787.133 655.857Z" fill="#FF008C"/>
<path d="M717.866 583.44C744.19 583.44 765.529 577.411 765.529 569.975C765.529 562.539 744.19 556.511 717.866 556.511C691.543 556.511 670.203 562.539 670.203 569.975C670.203 577.411 691.543 583.44 717.866 583.44Z" fill="white"/>
<path d="M763.917 569.975C763.908 570.514 763.808 570.864 763.437 571.473C763.09 572.041 762.508 572.647 761.815 573.21C760.081 574.618 757.783 575.661 755.643 576.47C748.685 579.101 741.163 580.316 733.792 581.054C724.378 581.997 714.852 582.079 705.419 581.36C697.593 580.763 689.664 579.655 682.182 577.203C679.684 576.385 677.206 575.4 674.991 573.967C674.197 573.453 673.532 572.933 672.875 572.225C672.465 571.783 672.063 571.106 671.933 570.683C671.755 570.108 671.775 569.823 671.952 569.201C672.026 568.944 672.017 569.006 672.022 568.996C672.105 568.818 672.201 568.646 672.303 568.478C672.577 568.028 672.571 568.05 672.933 567.663C674.386 566.109 676.379 565.079 678.341 564.198C684.702 561.341 691.929 560.096 698.801 559.248C708.127 558.096 717.586 557.86 726.967 558.372C735.095 558.816 743.292 559.793 751.143 562.013C753.902 562.793 756.652 563.718 759.189 565.071C760.815 565.937 762.609 567.12 763.437 568.478C763.822 569.109 763.908 569.42 763.917 569.975C763.953 572.052 767.185 572.059 767.149 569.975C767.065 565.148 761.609 562.459 757.791 560.876C750.558 557.877 742.593 556.609 734.853 555.775C724.732 554.685 714.466 554.599 704.322 555.447C696.157 556.13 687.801 557.3 680.051 560.066C675.992 561.515 669.948 563.879 668.763 568.607C667.618 573.174 672.273 576.399 675.787 578.111C682.476 581.372 690.053 582.773 697.37 583.75C707.386 585.086 717.562 585.367 727.645 584.772C736.288 584.262 745.082 583.196 753.384 580.647C756.253 579.766 759.137 578.696 761.727 577.161C763.561 576.074 765.447 574.653 766.444 572.715C766.886 571.857 767.132 570.942 767.149 569.975C767.185 567.895 763.954 567.895 763.917 569.975Z" fill="#FF008C"/>
<path d="M675.805 576.313C683.829 580.554 699.653 583.439 717.864 583.439C734.923 583.439 749.886 580.907 758.308 577.101C750.283 572.861 734.46 569.975 716.248 569.975C699.189 569.975 684.226 572.507 675.805 576.313Z" fill="#FF008C"/>
<path d="M674.989 577.709C678.891 579.747 683.176 581.021 687.452 582C693.166 583.308 699.009 584.081 704.849 584.547C717.693 585.573 730.809 585.203 743.512 582.96C748.846 582.019 754.164 580.715 759.123 578.497C760.228 578.003 760.128 576.232 759.123 575.707C755.221 573.668 750.937 572.395 746.661 571.416C740.947 570.107 735.103 569.335 729.264 568.868C716.42 567.842 703.304 568.212 690.601 570.455C685.266 571.397 679.949 572.701 674.989 574.919C673.094 575.766 674.736 578.552 676.62 577.709C680.721 575.875 685.173 574.784 689.566 573.923C695.387 572.783 701.3 572.153 707.22 571.833C719.404 571.172 731.869 571.64 743.845 574.107C748.502 575.066 753.255 576.283 757.492 578.497V575.707C753.391 577.54 748.94 578.632 744.546 579.492C738.725 580.632 732.812 581.262 726.893 581.583C714.708 582.243 702.244 581.775 690.267 579.309C685.61 578.349 680.857 577.132 676.62 574.919C674.779 573.957 673.144 576.745 674.989 577.709Z" fill="#FF008C"/>
<path d="M197.85 252.507C207.564 260.703 216.846 269.404 225.636 278.583C234.386 287.719 242.776 297.275 250.182 307.542C264.48 327.362 274.034 349.925 281.505 373.077C285.695 386.062 289.286 399.228 292.861 412.392C293.406 414.396 296.524 413.546 295.977 411.533C289.544 387.846 283.026 364.065 273.113 341.548C268.224 330.444 262.484 319.706 255.627 309.687C248.412 299.146 240.126 289.36 231.432 280.017C221.612 269.465 211.152 259.518 200.135 250.223C198.555 248.889 196.258 251.164 197.85 252.507Z" fill="#FF008C"/>
<path d="M190.355 342.645C204.097 343.192 215.396 352.523 225.064 361.399C230.981 366.832 236.8 372.377 242.611 377.924C247.843 382.919 253.168 387.863 257.948 393.302C263.022 399.076 267.417 405.551 269.625 412.98C270.216 414.969 273.336 414.122 272.741 412.121C268.555 398.039 257.48 387.689 247.192 377.834C241.115 372.013 235.006 366.224 228.842 360.495C223.642 355.661 218.282 350.921 212.313 347.048C205.709 342.763 198.292 339.73 190.355 339.414C188.276 339.331 188.279 342.562 190.355 342.645Z" fill="#FF008C"/>
<path d="M274.707 558.791C299.786 574.784 324.865 590.778 349.945 606.772C351.363 607.676 352.825 608.599 354.475 608.924C359.586 609.932 363.799 605.132 366.83 600.896C393.952 562.98 425.564 526.825 466.502 504.527C471.443 501.835 476.711 499.303 482.336 499.175C484.543 499.125 486.927 499.534 488.479 501.105C490.03 502.676 490.207 505.678 488.367 506.899C494.276 509.166 499.66 512.788 503.987 517.407C506.719 520.325 508.401 526.108 504.629 527.432C506.774 528.063 508.225 530.476 507.776 532.666C507.328 534.857 505.047 536.506 502.826 536.243C505.184 538.843 501.934 543.843 498.601 542.744C502.918 546.001 496.327 549.44 493.655 549.342C490.035 549.209 483.218 545.3 480.518 542.967C476.244 550.749 468.79 556.721 460.264 559.197C459.014 559.56 457.733 559.854 456.557 560.412C449.831 563.602 446.149 579.389 443.359 585.963C439.204 595.755 435.262 605.647 430.543 615.188C422.335 631.783 411.328 647.733 395.432 657.226C371.28 671.649 340.541 668.593 313.517 660.779C283.429 652.08 250.609 631.572 225.344 613.061" fill="white"/>
<path d="M273.897 560.186C291.437 571.371 308.977 582.557 326.516 593.742C330.881 596.526 335.247 599.31 339.612 602.094L346.04 606.193C348.018 607.454 349.968 608.899 352.126 609.839C360.395 613.438 366.191 604.517 370.295 598.842C380.512 584.715 391.305 570.981 403.053 558.089C414.664 545.348 427.221 533.389 440.987 522.989C447.84 517.812 454.984 513.014 462.407 508.692C466.261 506.448 470.188 504.128 474.366 502.536C476.526 501.713 478.796 501.053 481.107 500.859C482.949 500.704 485.11 500.668 486.716 501.735C487.733 502.411 488.868 504.513 487.558 505.504C486.408 506.374 486.586 507.928 487.944 508.458C492.919 510.399 497.504 513.325 501.35 517.03C502.85 518.474 504.195 519.961 504.847 521.983C505.221 523.143 505.698 525.28 504.206 525.874C502.734 526.46 502.62 528.442 504.206 528.99C505.493 529.435 506.45 530.856 506.225 532.237C505.96 533.859 504.345 534.731 502.832 534.628C501.298 534.524 500.885 536.402 501.69 537.386C502.954 538.933 500.812 541.673 499.036 541.186C497.581 540.788 496.155 542.832 497.464 543.887C497.897 544.236 498.504 544.625 498.381 545.225C498.253 545.845 497.336 546.394 496.854 546.683C495.565 547.456 494.165 547.914 492.675 547.585C488.785 546.725 484.692 544.387 481.667 541.824C480.897 541.172 479.671 541.181 479.129 542.151C476.642 546.609 473.162 550.467 468.93 553.332C466.857 554.736 464.627 555.938 462.284 556.823C459.929 557.713 457.27 558.05 455.099 559.368C452.023 561.237 450.059 564.67 448.542 567.821C446.674 571.699 445.279 575.786 443.883 579.851C442.405 584.157 440.631 588.316 438.872 592.515C436.384 598.457 433.883 604.395 431.148 610.228C426.521 620.097 421.175 629.751 414.31 638.257C407.572 646.606 399.423 653.752 389.735 658.473C379.989 663.221 369.139 665.339 358.353 665.676C347.249 666.023 336.155 664.584 325.336 662.154C314.389 659.695 303.731 656.218 293.44 651.75C271.947 642.418 251.848 629.936 232.762 616.418C230.55 614.852 228.352 613.267 226.165 611.666C224.486 610.436 222.872 613.239 224.535 614.456C243.617 628.424 263.667 641.368 285.079 651.487C305.565 661.169 327.884 667.963 350.644 668.869C361.665 669.308 372.896 668.18 383.363 664.573C393.634 661.033 402.8 655.11 410.451 647.417C427.18 630.6 435.82 608.039 444.842 586.586C447.861 579.406 449.318 571.268 453.981 564.87C454.882 563.633 455.979 562.469 457.379 561.807C458.681 561.191 460.155 560.94 461.521 560.504C462.745 560.114 463.943 559.645 465.119 559.128C469.816 557.062 474.088 553.921 477.477 550.068C479.176 548.135 480.666 546.029 481.92 543.782L479.382 544.109C481.521 545.922 483.961 547.402 486.468 548.645C488.736 549.769 491.484 551.103 494.09 550.946C498.518 550.681 504.768 545.644 499.749 541.602L498.177 544.303C503.283 545.701 507.211 539.06 503.975 535.101L502.832 537.86C505.918 538.07 508.919 535.827 509.398 532.729C509.869 529.679 507.905 526.857 505.065 525.874V528.99C510.456 526.845 508.358 520.039 505.461 516.635C501.114 511.526 494.994 507.758 488.802 505.342L489.188 508.295C492.236 505.989 491.795 501.519 488.845 499.301C485.444 496.743 480.399 497.393 476.564 498.42C472.132 499.608 468.03 501.82 464.044 504.04C460.148 506.21 456.327 508.513 452.582 510.934C437.695 520.56 424.044 532.027 411.512 544.545C398.924 557.117 387.446 570.754 376.655 584.886C373.932 588.454 371.253 592.055 368.612 595.685C366.164 599.048 363.907 602.844 360.621 605.476C359.22 606.598 357.513 607.499 355.675 607.442C353.482 607.374 351.59 605.902 349.814 604.77L336.242 596.115C318.226 584.626 300.211 573.137 282.195 561.647L275.528 557.396C273.769 556.274 272.147 559.07 273.897 560.186Z" fill="#FF008C"/>
<path d="M725.787 558.571C725.578 557.931 725.353 557.297 725.12 556.666C722.704 550.118 718.999 544.03 714.32 538.857C704.07 527.523 688.763 520.884 673.539 524.896L674.143 538.579C680.783 539.204 686.239 544.518 688.964 550.605C690.133 553.218 690.89 555.964 691.412 558.774C692.106 562.512 692.382 566.363 692.644 570.161C692.905 573.953 693.167 577.745 693.428 581.536C700.574 582.744 708.932 583.439 717.866 583.439C722.731 583.439 727.424 583.233 731.844 582.851C731.185 574.384 728.39 566.549 725.787 558.571Z" fill="#84FF20"/>
<path d="M548.264 459.274C545.167 453.21 548.188 444.784 553.787 441.312C557.153 439.226 561.179 438.454 565.133 438.24C566.995 438.139 568.858 438.157 570.721 438.181C572.103 438.2 574.564 438.727 575.837 438.153C578.07 437.147 578.43 433.887 581.142 432.9C583 432.224 585.392 432.789 586.339 434.525C587.254 436.204 586.616 438.299 587.016 440.168C587.066 440.404 592.769 442.401 593.433 442.786C595.621 444.054 597.621 445.647 599.344 447.498C602.823 451.236 605.757 455.586 605.514 460.921C605.227 467.242 599.618 473.267 593.31 472.767" fill="white"/>
<path d="M549.654 458.458C546.679 452.399 550.305 444.705 556.078 441.891C559.944 440.008 564.397 439.771 568.62 439.778C571.806 439.784 575.856 441.001 578.273 438.295C579.228 437.225 579.804 435.724 580.946 434.832C581.971 434.031 583.903 433.947 584.768 435.062C585.959 436.598 584.793 439.069 585.535 440.791C585.925 441.697 587.006 441.978 587.844 442.314C589.007 442.78 590.183 443.211 591.351 443.661C591.588 443.753 591.825 443.845 592.061 443.938C592.148 443.973 592.638 444.193 592.357 444.057C593.072 444.403 593.74 444.859 594.39 445.311C597.575 447.525 600.406 450.667 602.245 454.086C604.195 457.71 604.537 461.98 602.491 465.638C600.623 468.981 597.228 471.387 593.305 471.151C591.228 471.025 591.235 474.257 593.305 474.382C601.869 474.899 608.12 466.08 606.963 458.098C606.322 453.668 603.708 449.878 600.748 446.644C598.28 443.948 595.397 441.768 591.986 440.459C590.839 440.019 589.297 439.483 588.39 439.073C588.29 439.028 588.051 438.865 587.945 438.863C587.572 438.858 588.667 439.235 588.511 439.355C588.534 439.338 588.48 438.639 588.478 438.526C588.458 437.294 588.543 436.039 588.196 434.839C587.001 430.696 581.495 429.918 578.55 432.648C577.384 433.73 576.829 435.412 575.602 436.403C574.411 437.366 572.119 436.613 570.716 436.565C565.888 436.403 560.735 436.564 556.186 438.347C551.844 440.049 548.555 443.138 546.744 447.455C545.04 451.516 544.904 456.098 546.863 460.089C547.78 461.956 550.568 460.32 549.654 458.458Z" fill="#FF008C"/>
<path d="M600.365 488.797C595.336 513.151 589.816 537.408 583.554 561.476C580.425 573.507 577.111 585.49 573.582 597.41C571.817 603.373 569.892 609.289 568.121 615.249C567.012 618.979 566.778 625.392 564.329 628.37C562.796 630.234 560.019 630.31 557.607 630.232C542.916 629.753 527.897 629.157 513.749 624.797C503.016 621.49 491.391 613.527 482.768 606.38C482.37 606.05 481.969 605.705 481.714 605.256C481.251 604.443 481.344 603.439 481.469 602.512C482.396 595.611 484.336 588.847 487.205 582.503C493.466 568.66 499.003 554.658 505.333 540.797C515.955 517.54 526.576 494.283 537.198 471.026C539.928 465.047 543.721 458.253 550.246 457.471C552.434 457.209 554.633 457.701 556.782 458.19C567.133 460.547 577.484 462.903 587.835 465.259C591.412 466.074 595.179 466.987 597.821 469.531C602.705 474.232 601.736 482.158 600.365 488.797Z" fill="white"/>
<path d="M598.807 488.367C592.252 520.088 584.87 551.649 576.104 582.836C573.934 590.555 571.675 598.245 569.295 605.901C568.231 609.324 566.974 612.754 566.198 616.256C565.576 619.06 565.289 621.947 564.399 624.689C564.087 625.65 563.683 626.744 562.959 627.482C561.956 628.502 560.361 628.609 559.013 628.633C555.263 628.7 551.47 628.418 547.725 628.237C540.015 627.865 532.296 627.25 524.702 625.817C517.541 624.466 510.661 622.405 504.191 619.017C497.899 615.721 491.984 611.679 486.421 607.272C485.784 606.768 485.152 606.258 484.523 605.743C484.024 605.334 483.275 604.894 483.053 604.265C482.818 603.597 483.057 602.699 483.156 602.022C483.312 600.95 483.497 599.882 483.704 598.819C484.442 595.022 485.487 591.285 486.826 587.656C488.157 584.048 489.842 580.577 491.383 577.057C493.015 573.329 494.614 569.587 496.207 565.842C508.877 536.046 522.66 506.728 536.11 477.278C538.607 471.809 540.865 465.056 545.712 461.147C548.148 459.182 550.998 458.722 554.033 459.258C558.067 459.971 562.062 461.048 566.056 461.957C573.81 463.723 581.617 465.341 589.332 467.272C592.306 468.016 595.381 469.023 597.414 471.456C599.28 473.691 599.828 476.705 599.86 479.538C599.893 482.516 599.402 485.458 598.807 488.367C598.391 490.397 601.505 491.265 601.923 489.226C603.135 483.302 604.266 476.214 600.875 470.768C596.966 464.491 588.509 463.757 581.956 462.266C573.708 460.388 565.461 458.501 557.21 456.633C553.588 455.812 550.032 455.304 546.537 456.869C543.849 458.073 541.756 460.247 540.045 462.592C538.177 465.151 536.803 468.018 535.492 470.89L530.215 482.443C526.663 490.221 523.111 497.998 519.559 505.776C512.522 521.186 505.292 536.524 498.588 552.083C495.27 559.781 492.05 567.522 488.691 575.202C487.069 578.912 485.3 582.57 483.872 586.362C482.455 590.126 481.355 594.012 480.588 597.961C480.228 599.811 479.725 601.833 479.751 603.725C479.776 605.595 480.7 606.763 482.084 607.901C484.899 610.215 487.796 612.434 490.775 614.532C496.792 618.769 503.191 622.58 510.077 625.229C517.416 628.052 525.348 629.415 533.128 630.328C541.174 631.273 549.28 631.586 557.372 631.84C560.312 631.932 563.655 631.789 565.642 629.294C567.459 627.012 568.038 623.916 568.557 621.121C569.927 613.737 572.487 606.669 574.648 599.486C579.486 583.409 583.844 567.181 587.922 550.895C592.043 534.44 595.837 517.903 599.383 501.315C600.244 497.288 601.09 493.258 601.923 489.226C602.342 487.197 599.228 486.329 598.807 488.367Z" fill="#FF008C"/>
<path d="M763.913 569.975C763.903 570.514 763.803 570.864 763.432 571.473C763.086 572.04 762.504 572.647 761.811 573.21C760.076 574.618 757.778 575.661 755.638 576.47C748.681 579.101 741.158 580.317 733.788 581.054C724.373 581.996 714.847 582.08 705.415 581.36C697.637 580.766 689.763 579.668 682.322 577.251C679.555 576.352 676.761 575.258 674.378 573.556C674.002 573.288 673.661 573.007 673.298 572.66C672.995 572.371 672.592 571.912 672.508 571.794C672.377 571.607 672.26 571.413 672.149 571.214C671.954 570.866 672.038 571.021 671.991 570.881C671.933 570.707 671.884 570.531 671.844 570.351C671.776 570.049 671.829 570.318 671.839 570.38C671.817 570.247 671.82 570.109 671.818 569.975C671.782 567.898 668.55 567.892 668.586 569.975C668.67 574.803 674.126 577.491 677.944 579.074C685.177 582.074 693.142 583.341 700.882 584.175C710.93 585.258 721.123 585.35 731.194 584.522C739.432 583.844 747.866 582.675 755.684 579.884C760.007 578.342 767.047 575.529 767.144 569.975C767.18 567.895 763.949 567.895 763.913 569.975Z" fill="#FF008C"/>
<path d="M563.598 552.387C562.981 544.257 570.549 541.548 576.99 540.502C586.254 538.998 595.519 537.498 604.783 535.995C623.312 532.991 641.841 529.986 660.37 526.982C665.55 526.142 666.46 519.764 671.753 519.583C680.52 519.284 681.848 537.186 681.466 543.049C681.388 544.25 681.239 545.523 680.487 546.462C679.213 548.052 676.846 548.028 674.809 548.052C670.794 548.099 666.827 548.875 662.895 549.687C632.231 556.025 602.066 564.78 572.773 575.846" fill="white"/>
<path d="M565.211 552.387C565.02 549.275 566.169 546.66 568.818 544.943C571.454 543.235 574.6 542.521 577.661 542.021C587.744 540.373 597.831 538.75 607.916 537.115C618.165 535.453 628.413 533.791 638.661 532.129C643.744 531.305 648.828 530.481 653.911 529.657C657.845 529.019 662.165 529.005 665.253 526.19C667.124 524.485 668.678 521.527 671.439 521.217C673.489 520.987 675.1 522.226 676.209 523.936C678.98 528.209 679.632 533.935 679.856 538.912C679.941 540.811 680.52 545.092 678.469 546.018C676.827 546.759 674.628 546.398 672.883 546.512C670.337 546.678 667.806 547.083 665.301 547.56C655.573 549.416 645.908 551.713 636.311 554.151C617.033 559.049 598 564.91 579.307 571.706C576.98 572.552 574.658 573.413 572.342 574.288C570.414 575.015 571.249 578.14 573.201 577.404C592.783 570.016 612.745 563.644 632.993 558.344C643.194 555.674 653.466 553.268 663.795 551.148C666.327 550.628 668.871 550.12 671.445 549.863C673.684 549.64 675.974 549.824 678.192 549.431C680.226 549.071 681.921 547.845 682.613 545.856C683.097 544.467 683.12 542.907 683.135 541.444C683.192 536.009 682.537 530.177 680.434 525.13C679.435 522.73 678.002 520.312 675.69 518.968C673.209 517.524 670.011 517.675 667.653 519.303C665.285 520.939 663.839 524.055 661.104 525.122C660.121 525.505 659.003 525.575 657.971 525.743L653.544 526.461L645.673 527.737C634.933 529.479 624.192 531.22 613.452 532.962C602.779 534.692 592.106 536.422 581.434 538.153C574.8 539.229 565.731 540.08 562.75 547.27C562.078 548.891 561.873 550.643 561.98 552.387C562.107 554.453 565.339 554.468 565.211 552.387Z" fill="#FF008C"/>
<path d="M557.294 613.89C566.03 619.421 577.291 613.924 582.872 606.545C586.339 601.96 588.859 596.521 589.267 590.788C589.675 585.054 587.786 579.031 583.589 575.103C583.034 574.584 582.413 574.088 581.672 573.924C580.373 573.636 579.112 574.416 577.914 574.994C574.798 576.499 570.798 576.983 567.73 575.276C565.671 574.13 562.142 572.233 560.717 575.655C559.831 577.783 561.769 579.955 563.523 581.451C560.847 581.04 557.999 582.766 557.126 585.329C556.253 587.892 557.455 590.998 559.825 592.306C557.428 592.258 555.087 593.874 554.281 596.132C553.476 598.391 554.265 601.123 556.151 602.603C553.869 603.291 552.638 606.02 553.082 608.362C553.525 610.704 555.281 612.615 557.294 613.89Z" fill="white"/>
<path d="M556.479 615.285C562.424 618.944 569.629 618.146 575.566 614.9C581.804 611.49 586.299 605.661 588.935 599.138C591.673 592.364 591.75 584.394 587.947 577.995C586.279 575.187 583.416 571.427 579.704 572.452C577.971 572.931 576.49 573.996 574.722 574.427C573.041 574.838 571.235 574.891 569.579 574.336C566.828 573.414 563.956 570.802 560.981 572.796C559.478 573.804 558.679 575.733 558.955 577.502C559.28 579.588 560.849 581.26 562.381 582.593L563.524 579.835C560.049 579.422 556.541 581.713 555.52 585.061C554.519 588.341 556.119 591.98 559.01 593.701L559.826 590.69C556.734 590.735 553.89 592.615 552.79 595.536C551.715 598.392 552.696 601.798 555.009 603.746L555.722 601.045C552.952 602.011 551.214 604.787 551.387 607.715C551.58 610.99 553.85 613.564 556.479 615.285C558.225 616.427 559.845 613.63 558.11 612.495C556.525 611.457 554.918 609.906 554.64 607.932C554.435 606.471 555.099 604.678 556.581 604.161C557.63 603.796 558.293 602.301 557.294 601.461C554.26 598.905 555.688 593.981 559.826 593.921C561.426 593.898 562.028 591.736 560.641 590.911C558.98 589.922 558.021 587.811 558.636 585.92C559.309 583.849 561.462 582.821 563.524 583.067C564.906 583.231 565.669 581.181 564.666 580.308C563.724 579.488 562.288 578.334 562.127 576.993C562.003 575.961 562.745 575.225 563.724 575.338C564.616 575.44 565.475 575.895 566.257 576.31C567.538 576.991 568.783 577.572 570.226 577.805C573.305 578.3 576.326 577.558 579.091 576.211C579.691 575.919 580.378 575.47 581.07 575.483C581.75 575.496 582.268 576.065 582.724 576.51C583.811 577.575 584.706 578.789 585.442 580.121C591.295 590.715 585.077 605.007 575.507 611.175C570.28 614.544 563.657 615.909 558.11 612.495C556.334 611.402 554.71 614.196 556.479 615.285Z" fill="#FF008C"/>
<path d="M200.57 618.446C223.021 634.894 270.514 656.118 299.667 667.456C302.029 644.652 318.076 612.652 337.227 599.949C337.535 599.745 337.857 599.509 338.147 599.248C317 585.762 295.854 572.276 274.707 558.791" fill="white"/>
<path d="M199.762 619.841C210.75 627.871 222.914 634.331 235.028 640.469C249.011 647.554 263.285 654.069 277.705 660.212C284.841 663.252 292.016 666.201 299.244 669.014C300.32 669.433 301.19 668.387 301.289 667.456C302.355 657.407 305.622 647.519 309.78 638.35C314.218 628.562 319.867 619.131 327.062 611.112C328.876 609.09 330.794 607.159 332.834 605.365C334.887 603.56 337.219 602.145 339.296 600.39C340.127 599.688 339.78 598.369 338.969 597.852C322.514 587.358 306.059 576.865 289.604 566.371C284.912 563.379 280.221 560.387 275.529 557.395C273.771 556.274 272.148 559.069 273.899 560.185C290.354 570.679 306.809 581.173 323.264 591.667C327.956 594.659 332.647 597.651 337.338 600.643L337.011 598.105C335.107 599.713 332.945 601.015 331.044 602.65C329.17 604.261 327.399 605.99 325.716 607.799C322.016 611.777 318.718 616.138 315.752 620.685C309.71 629.951 304.917 640.137 301.625 650.698C299.923 656.162 298.662 661.761 298.058 667.456L300.103 665.898C286.658 660.665 273.378 654.999 260.256 649.004C246.351 642.651 232.567 635.948 219.276 628.383C213.145 624.892 207.093 621.216 201.393 617.051C199.712 615.823 198.098 618.625 199.762 619.841Z" fill="#FF008C"/>
<path d="M345.869 835.876C340.494 831.177 333.304 828.734 328.781 823.052C324.376 817.52 322.865 810.25 321.938 803.407C321.82 802.534 320.704 802.081 319.951 802.279C303.243 806.672 285.837 810.644 268.5 807.906C266.178 807.539 263.868 807.082 261.6 806.459C259.432 805.863 257.46 804.992 255.397 804.127C254.412 803.713 253.34 804.742 253.351 805.685C253.492 817.388 252.898 829.098 253.296 840.798C253.49 846.531 253.952 852.259 254.884 857.922C255.105 859.267 255.083 860.564 256.462 861.186C257.509 861.657 258.583 862.056 259.689 862.365C261.896 862.981 264.189 863.293 266.468 863.489C271.833 863.951 277.223 863.598 282.591 863.939C283.687 864.009 284.368 862.855 284.149 861.894C283.564 859.325 285.378 856.347 288.056 855.95C289.376 855.754 290.797 856.239 291.826 857.064C293.044 858.041 293.444 859.262 293.718 860.736C294.012 862.32 294.695 863.694 296.232 864.366C297.905 865.097 299.986 865.12 301.782 865.333C305.961 865.83 310.164 866.127 314.371 866.223C318.578 866.319 322.79 866.215 326.988 865.91C330.355 865.665 333.674 865.317 336.892 864.243C342.268 862.448 347.771 859.117 350.579 854.021C352.065 851.327 352.596 848.258 351.952 845.238C351.155 841.509 348.635 838.375 345.869 835.876C344.33 834.485 342.037 836.763 343.584 838.161C345.967 840.314 348.149 842.879 348.836 846.097C349.354 848.524 348.703 850.964 347.409 853.035C344.454 857.763 338.777 860.6 333.51 861.845C329.976 862.681 326.24 862.78 322.624 862.923C318.419 863.089 314.206 863.055 310.004 862.82C307.984 862.707 305.967 862.547 303.954 862.342C301.994 862.141 299.89 862.058 297.979 861.558C296.556 861.185 296.834 859.216 296.393 858.046C295.874 856.671 294.997 855.481 293.846 854.568C291.164 852.44 287.299 851.987 284.426 854.025C281.655 855.992 280.276 859.43 281.033 862.753L282.591 860.708C278.343 860.438 274.081 860.61 269.829 860.456C265.722 860.306 261.387 859.966 257.623 858.176L258.365 859.141C255.111 841.545 256.796 823.463 256.583 805.685L254.538 807.243C256.378 808.015 258.136 808.823 260.062 809.383C262.096 809.975 264.169 810.426 266.254 810.791C270.66 811.564 275.119 811.979 279.591 812.024C288.455 812.113 297.288 810.839 305.942 809.003C310.932 807.945 315.878 806.692 320.81 805.395L318.822 804.266C319.794 811.445 321.506 818.846 326 824.703C330.662 830.779 337.962 833.246 343.584 838.161C345.144 839.524 347.439 837.248 345.869 835.876Z" fill="#FF008C"/>
<path d="M231.361 768.882C235.27 774.215 239.176 779.549 243.088 784.88C246.197 789.118 249.509 793.525 254.43 795.752C256.31 796.603 257.954 793.819 256.061 792.962C251.326 790.82 248.274 786.519 245.291 782.449C241.578 777.383 237.864 772.317 234.151 767.251C232.934 765.591 230.129 767.201 231.361 768.882Z" fill="#FF008C"/>
<path d="M321.298 664.261C321.651 669.463 321.537 674.685 320.919 679.863C320.613 682.425 320.165 684.971 319.607 687.49C319.094 689.806 318.565 692.123 317.159 694.08C315.943 695.771 318.745 697.386 319.949 695.711C321.366 693.739 322.024 691.389 322.564 689.053C323.193 686.333 323.67 683.584 324.031 680.817C324.747 675.327 324.904 669.784 324.53 664.261C324.39 662.197 321.158 662.182 321.298 664.261Z" fill="#FF008C"/>
<path d="M282.321 664.892C284.516 682.115 286.324 699.387 287.735 716.692C289.145 733.997 290.161 751.334 290.781 768.685C291.129 778.435 291.35 788.189 291.451 797.945C291.472 800.023 294.704 800.028 294.682 797.945C294.504 780.583 293.936 763.226 292.97 745.891C292.003 728.555 290.641 711.242 288.886 693.969C287.899 684.263 286.786 674.57 285.553 664.892C285.442 664.02 284.89 663.286 283.937 663.276C283.149 663.268 282.211 664.027 282.321 664.892Z" fill="#FF008C"/>
<path d="M317.51 822.289C317.61 822.122 317.713 821.956 317.824 821.796C317.837 821.777 317.967 821.618 317.96 821.606C317.837 821.762 317.812 821.794 317.886 821.702C317.91 821.671 317.934 821.641 317.959 821.611C318.194 821.326 318.45 821.058 318.722 820.808C318.858 820.684 319.008 820.521 319.167 820.429C319.002 820.524 319.001 820.555 319.167 820.436C319.246 820.379 319.326 820.324 319.407 820.27C319.716 820.065 320.038 819.88 320.371 819.717C320.441 819.683 320.512 819.649 320.583 819.617C320.787 819.523 320.712 819.512 320.573 819.618C320.704 819.517 320.964 819.471 321.123 819.42C321.476 819.307 321.835 819.217 322.2 819.151C322.292 819.135 322.399 819.131 322.488 819.105C322.391 819.133 322.191 819.137 322.406 819.121C322.6 819.106 322.793 819.09 322.988 819.086C323.378 819.077 323.767 819.1 324.154 819.148C324.996 819.253 325.806 818.33 325.77 817.533C325.727 816.568 325.056 816.03 324.154 815.917C320.444 815.454 316.609 817.472 314.72 820.659C314.289 821.386 314.531 822.463 315.3 822.869C316.078 823.28 317.05 823.066 317.51 822.289Z" fill="#FF008C"/>
<path d="M324.611 831.396C324.932 830.801 325.254 830.205 325.62 829.636C325.716 829.487 325.815 829.339 325.917 829.195C325.968 829.122 326.022 829.052 326.073 828.98C326.194 828.81 325.819 829.287 326.049 829.015C326.265 828.757 326.487 828.508 326.734 828.279C326.784 828.232 326.835 828.186 326.887 828.142C327.143 827.921 326.873 828.188 326.838 828.17C326.86 828.181 327.214 827.91 327.262 827.881C327.393 827.801 327.528 827.726 327.666 827.658C327.945 827.52 327.681 827.699 327.606 827.674C327.649 827.689 327.801 827.6 327.844 827.585C327.987 827.536 328.133 827.494 328.281 827.461C328.363 827.442 328.445 827.429 328.527 827.413C328.725 827.374 328.152 827.431 328.445 827.431C328.612 827.431 328.775 827.426 328.943 827.434C329.171 827.444 328.869 827.441 328.81 827.413C328.886 827.448 329.024 827.458 329.105 827.479C329.923 827.689 330.897 827.211 331.093 826.35C331.284 825.509 330.84 824.588 329.964 824.363C328.047 823.871 326.158 824.563 324.68 825.791C323.417 826.84 322.589 828.342 321.821 829.766C321.419 830.509 321.611 831.559 322.4 831.976C323.153 832.374 324.182 832.191 324.611 831.396Z" fill="#FF008C"/>
<path d="M331.029 834.958C332.485 834.286 333.941 833.614 335.397 832.942C335.744 832.782 336.042 832.331 336.14 831.976C336.246 831.589 336.198 831.075 335.977 830.731C335.754 830.386 335.423 830.083 335.011 829.989C334.564 829.887 334.18 829.96 333.766 830.152C332.31 830.824 330.854 831.496 329.398 832.167C329.051 832.328 328.753 832.779 328.656 833.133C328.549 833.52 328.597 834.035 328.819 834.378C329.041 834.723 329.372 835.027 329.784 835.121C330.231 835.222 330.615 835.149 331.029 834.958Z" fill="#FF008C"/>
<path d="M274.093 823.695C278.623 825.166 282.917 831.348 279.82 835.949C278.067 838.555 274.42 839.574 271.454 838.539C265.905 836.602 262.33 826.995 268.845 823.827C270.458 823.043 272.387 823.141 274.093 823.695Z" fill="#FF008C"/>
<path d="M273.661 825.254C276.181 826.106 278.485 828.604 279.116 831.293C279.416 832.569 279.253 833.858 278.481 835.045C277.716 836.221 276.415 836.913 275.065 837.205C274.453 837.337 273.731 837.371 273.048 837.28C272.812 837.248 272.377 837.141 272.076 837.046C271.963 837.01 271.852 836.971 271.741 836.931C271.565 836.861 271.555 836.858 271.71 836.922C271.619 836.88 271.528 836.837 271.438 836.791C271.164 836.654 270.9 836.499 270.644 836.33C270.515 836.245 270.388 836.156 270.264 836.063C270.32 836.105 270.466 836.23 270.222 836.025C269.711 835.599 269.242 835.122 268.828 834.601C268.638 834.364 269.036 834.9 268.736 834.477C268.642 834.344 268.549 834.211 268.46 834.074C268.281 833.802 268.114 833.521 267.96 833.234C267.618 832.595 267.534 832.409 267.311 831.678C267.233 831.423 267.165 831.166 267.108 830.906C267.074 830.751 267.045 830.596 267.018 830.44C266.932 829.937 267.038 830.754 266.994 830.249C266.968 829.942 266.953 829.634 266.959 829.325C266.961 829.199 266.972 829.072 266.976 828.945C266.989 828.545 266.947 828.999 266.998 828.701C267.058 828.358 267.141 828.019 267.255 827.69C267.267 827.656 267.458 827.215 267.314 827.524C267.377 827.388 267.445 827.255 267.518 827.125C267.592 826.993 267.673 826.866 267.755 826.74C267.865 826.588 267.872 826.574 267.773 826.698C267.838 826.617 267.904 826.538 267.973 826.461C268.185 826.224 268.416 825.998 268.667 825.801C268.444 825.976 268.894 825.652 268.884 825.659C269.08 825.531 269.284 825.409 269.495 825.305C269.858 825.124 270.25 825 270.651 824.932C271.669 824.761 272.689 824.952 273.661 825.254C275.652 825.872 276.503 822.754 274.52 822.138C272.206 821.419 269.683 821.447 267.55 822.686C266.02 823.575 264.889 824.914 264.243 826.552C263.058 829.553 263.985 833.177 265.714 835.773C267.688 838.736 270.903 840.867 274.583 840.519C278.867 840.114 282.617 836.817 282.482 832.3C282.345 827.74 278.743 823.566 274.52 822.138C272.546 821.47 271.699 824.59 273.661 825.254Z" fill="#FF008C"/>
<path d="M227.546 800.928C225.197 794.176 233.998 787.027 239.635 792.379C244.26 796.771 240.418 808.676 233.252 806.301C230.683 805.449 228.436 803.483 227.546 800.928Z" fill="#FF008C"/>
<path d="M229.104 800.498C228.631 799.086 228.648 797.963 229.167 796.533C229.551 795.47 230.485 794.21 231.511 793.432C231.596 793.368 232.035 793.075 232.27 792.94C232.429 792.847 232.591 792.761 232.756 792.679C232.826 792.644 232.897 792.611 232.968 792.578C233.417 792.371 232.823 792.627 233.087 792.53C233.404 792.414 233.724 792.313 234.053 792.238C234.121 792.222 234.572 792.139 234.445 792.157C234.361 792.169 234.799 792.13 234.921 792.126C235.101 792.12 235.281 792.121 235.461 792.131C235.539 792.135 235.616 792.142 235.693 792.147C235.959 792.168 235.463 792.105 235.727 792.149C236.093 792.209 236.45 792.305 236.8 792.427C237.252 792.585 238.027 793.077 238.492 793.521C238.584 793.609 238.673 793.7 238.759 793.794C238.815 793.855 239.065 794.164 238.957 794.021C238.849 793.876 239.078 794.204 239.122 794.273C239.213 794.417 239.299 794.565 239.378 794.716C239.438 794.83 239.491 794.947 239.547 795.062C239.386 794.73 239.572 795.13 239.603 795.219C239.715 795.53 239.805 795.848 239.877 796.171C239.911 796.324 239.938 796.478 239.965 796.633C239.977 796.699 239.987 796.766 239.996 796.833C239.994 796.814 239.966 796.551 239.98 796.741C240.005 797.085 240.034 797.426 240.034 797.772C240.034 798.097 240.019 798.423 239.99 798.747C239.979 798.868 239.944 799.166 239.984 798.876C239.959 799.061 239.927 799.247 239.892 799.431C239.768 800.075 239.587 800.704 239.357 801.318C239.325 801.405 239.29 801.491 239.255 801.576C239.263 801.555 239.359 801.34 239.281 801.508C239.213 801.653 239.146 801.798 239.074 801.941C238.931 802.223 238.774 802.498 238.604 802.763C238.52 802.894 238.43 803.021 238.342 803.149C238.121 803.469 238.421 803.09 238.233 803.288C238.012 803.523 237.808 803.767 237.569 803.985C237.475 804.071 237.378 804.151 237.282 804.233C237.106 804.383 237.504 804.082 237.312 804.208C237.26 804.242 237.211 804.282 237.159 804.315C236.895 804.481 236.633 804.631 236.351 804.766C236.186 804.845 236.443 804.725 236.454 804.721C236.356 804.754 236.261 804.791 236.163 804.822C236.004 804.872 235.843 804.905 235.683 804.947C235.323 805.042 235.824 804.964 235.552 804.973C235.38 804.979 235.209 804.996 235.036 804.994C234.858 804.993 234.682 804.979 234.504 804.962C234.858 804.996 234.362 804.929 234.247 804.902C233.868 804.814 233.443 804.675 233.121 804.535C231.331 803.756 229.76 802.305 229.104 800.498C228.806 799.678 228.006 799.125 227.116 799.369C226.325 799.587 225.688 800.533 225.988 801.357C227.462 805.414 231.883 808.876 236.358 808.098C239.632 807.529 241.815 804.435 242.721 801.45C243.677 798.301 243.476 794.546 241.37 791.898C238.798 788.666 234.283 788.126 230.776 790.071C226.882 792.232 224.537 797.019 225.988 801.357C226.265 802.184 227.101 802.725 227.975 802.485C228.783 802.263 229.381 801.329 229.104 800.498Z" fill="#FF008C"/>
<path d="M341.142 670.149C342.433 679.886 341.922 690.018 340.904 699.755C339.855 709.78 337.677 719.476 332.201 728.091C328.82 733.411 324.384 738.034 319.031 741.387C317.273 742.489 318.893 745.286 320.662 744.177C330.625 737.937 337.508 727.768 341.024 716.669C342.47 712.104 343.219 707.341 343.81 702.6C344.475 697.261 344.85 691.881 344.99 686.502C345.131 681.059 345.091 675.555 344.374 670.149C344.258 669.277 343.714 668.543 342.758 668.533C341.973 668.525 341.028 669.284 341.142 670.149Z" fill="#FF008C"/>
<path d="M767.801 517.123C760.657 522.722 746.813 524.909 740.583 516.83C737.655 513.033 736.766 507.932 737.432 503.183C735.21 504.092 732.539 503.807 730.56 502.449C726.198 499.458 726.628 491.262 727.769 486.704C729.157 481.166 732.672 476.127 737.224 472.716C745.048 466.852 755.14 465.027 764.883 464.201C774.625 463.375 784.571 463.352 793.899 460.422C790.212 466.615 787.23 473.226 785.028 480.088C782.911 486.686 781.513 493.51 779.134 500.018C776.754 506.526 773.255 512.848 767.801 517.123Z" fill="#84FF20"/>
<path d="M712.69 581.715C714.692 568.649 716.088 555.447 719.299 542.599C722.318 530.519 727.399 518.865 734.537 508.638C738.575 502.854 743.369 497.614 748.85 493.168C750.465 491.858 748.167 489.584 746.565 490.883C736.72 498.869 729.21 509.411 723.761 520.792C720.977 526.606 718.651 532.644 716.938 538.86C715.168 545.288 713.93 551.854 712.87 558.432C711.668 565.891 710.718 573.388 709.574 580.856C709.441 581.725 709.794 582.583 710.703 582.843C711.466 583.063 712.558 582.576 712.69 581.715Z" fill="#FF008C"/>
<path d="M695.375 496.604C692.043 496.451 688.967 494.666 686.525 492.393C681.482 487.699 678.739 480.948 677.656 474.143C676.573 467.339 677.006 460.395 677.442 453.519C678.099 443.167 678.755 432.815 679.411 422.463C692.216 430.518 702.746 442.146 709.495 455.684C713.453 463.624 716.678 471.741 716.12 480.731C716.002 482.633 715.844 484.57 715.112 486.329C713.317 490.643 707.818 492.984 703.464 491.287C704.004 491.498 701.557 494.494 701.15 494.835C699.611 496.124 697.346 496.695 695.375 496.604Z" fill="#84FF20"/>
<path d="M687.707 452.332C696.716 466.097 700.141 482.605 702.995 498.562C704.545 507.231 705.894 515.939 707.223 524.644C708.572 533.485 709.779 542.356 710.397 551.282C711.083 561.198 711.048 571.209 709.624 581.062C709.498 581.933 709.84 582.788 710.753 583.05C711.51 583.267 712.616 582.784 712.74 581.921C715.341 563.927 713.577 545.801 710.958 527.918C709.657 519.036 708.257 510.161 706.742 501.313C705.284 492.8 703.684 484.279 701.373 475.951C698.916 467.095 695.548 458.418 690.497 450.701C689.362 448.968 686.563 450.585 687.707 452.332Z" fill="#FF008C"/>
<path d="M745.621 432.619C744.21 440.077 739.533 445.819 733.918 450.645C732.711 451.683 731.107 452.499 729.566 452.098C726.221 451.228 723.017 443.971 722.44 440.95C721.463 435.841 722.734 430.423 725.185 425.905C728.305 420.154 733.206 415.587 738.268 411.44C738.718 411.071 739.271 410.681 739.831 410.838C740.203 410.941 740.467 411.261 740.699 411.569C745.166 417.491 746.999 425.329 745.621 432.619Z" fill="#84FF20"/>
<path d="M731.582 432.137C726.215 450.318 722.971 469.176 719.972 487.867C716.552 509.178 713.77 530.606 711.689 552.089C710.747 561.801 709.938 571.535 709.517 581.285C709.428 583.364 712.659 583.36 712.749 581.285C713.563 562.418 715.617 543.584 717.953 524.853C720.601 503.62 723.771 482.419 727.951 461.429C729.852 451.88 731.94 442.339 734.698 432.996C735.288 430.998 732.171 430.144 731.582 432.137Z" fill="#FF008C"/>
<path d="M644.609 465.186C643.464 469.895 640.816 473.335 638.157 477.313C629.787 473.605 620.46 466.592 620.889 456.522C620.935 455.444 621.162 454.247 622.038 453.618C623.299 452.714 625.035 453.498 626.37 454.288C628.564 455.587 630.758 456.886 632.952 458.186C632.352 453.94 635.145 449.465 639.222 448.14C639.943 447.905 640.744 447.764 641.447 448.046C642.05 448.288 642.495 448.807 642.872 449.336C646.055 453.803 645.905 459.856 644.609 465.186Z" fill="#FF008C"/>
<path d="M819.657 552.241C815.945 555.357 811.773 556.561 807.275 558.191C802.728 550.246 799.366 539.071 805.677 531.211C806.353 530.37 807.244 529.54 808.323 529.552C809.874 529.57 810.808 531.23 811.416 532.658C812.414 535.004 813.413 537.351 814.411 539.697C816.442 535.921 821.343 533.97 825.413 535.317C826.133 535.555 826.862 535.915 827.261 536.56C827.604 537.112 827.655 537.793 827.645 538.443C827.564 543.927 823.858 548.715 819.657 552.241Z" fill="#FF008C"/>
<path d="M656.427 419.604C654.536 424.066 651.367 427.034 648.101 430.531C640.44 425.52 632.367 417.093 634.417 407.224C634.636 406.168 635.053 405.023 636.019 404.544C637.409 403.855 638.996 404.909 640.186 405.905C642.142 407.541 644.097 409.177 646.053 410.814C646.146 406.527 649.625 402.562 653.863 401.912C654.612 401.797 655.425 401.787 656.074 402.179C656.63 402.515 656.985 403.099 657.272 403.682C659.692 408.604 658.566 414.554 656.427 419.604Z" fill="#FF008C"/>
<path d="M642.091 818.366C638.069 816.15 634.556 813.151 630.655 810.741C629.941 810.3 628.838 810.558 628.445 811.321C625.098 817.808 621.146 825.826 613.781 828.448C607.231 830.78 597.72 829.64 593.882 836.824C591.242 841.765 593.831 847.442 597.25 851.259C599.258 853.5 601.695 855.173 604.356 856.542C608.42 858.631 612.639 860.436 616.956 861.935C619.409 862.788 621.899 863.55 624.416 864.187C625.591 864.485 626.842 864.76 627.962 864.126C628.937 863.575 629.301 862.65 629.974 861.825C630.906 860.684 632.845 860.366 634.06 861.227C635.488 862.24 635.547 864.27 634.617 865.614C633.987 866.525 634.669 867.676 635.583 867.988C639.21 869.228 642.668 870.917 646.326 872.074C648.16 872.654 650.049 873.095 651.972 873.24C652.765 873.299 653.912 873.457 654.631 873.037C655.426 872.573 655.904 871.379 656.368 870.613C660.749 863.383 663.847 855.464 666.938 847.623C668.73 843.074 670.593 838.561 672.518 834.066C672.835 833.328 672.807 832.253 671.939 831.856C667.025 829.607 661.903 827.814 656.958 825.627C651.912 823.396 646.947 820.987 642.091 818.366C640.261 817.379 638.628 820.168 640.461 821.157C645.316 823.777 650.281 826.187 655.327 828.418C660.271 830.604 665.396 832.398 670.308 834.646L669.728 832.435C666.936 838.952 664.354 845.542 661.694 852.113C659.079 858.574 656.209 864.958 652.42 870.827L653.815 870.026C647.728 870.318 642.033 866.783 636.442 864.872L637.408 867.245C639.36 864.424 638.543 860.19 635.599 858.377C634.164 857.493 632.323 857.314 630.709 857.738C629.899 857.95 629.133 858.333 628.471 858.842C627.691 859.441 627.329 860.228 626.7 860.94C626.347 861.339 626.267 861.296 625.72 861.184C625.198 861.078 624.682 860.918 624.167 860.779C622.987 860.459 621.813 860.117 620.646 859.753C618.457 859.069 616.294 858.305 614.161 857.464C610.388 855.977 606.404 854.35 603.033 852.064C599.393 849.595 595.106 844.693 596.15 839.904C596.714 837.317 598.962 835.66 601.28 834.673C605.323 832.951 609.851 833.091 614.009 831.777C622.687 829.035 627.328 820.526 631.235 812.952L629.025 813.531C632.925 815.941 636.438 818.941 640.461 821.157C642.283 822.161 643.915 819.371 642.091 818.366Z" fill="#FF008C"/>
<path d="M778.61 851.591C774.142 847.709 768.198 845.823 765.095 840.49C762.206 835.525 761.617 829.499 761.12 823.889C761.039 822.974 760.131 821.889 759.075 822.331C752.05 825.266 743.955 825.99 736.41 826.153C728.865 826.317 721.008 825.996 713.626 824.365C712.622 824.143 711.565 824.828 711.581 825.923C711.707 834.909 711.38 843.895 711.535 852.878C711.611 857.286 711.873 861.687 712.485 866.055C712.63 867.088 712.666 868.314 713.013 869.297C713.363 870.285 714.375 870.573 715.274 870.908C716.932 871.527 718.686 871.82 720.438 872.024C724.615 872.512 728.828 872.192 733.017 872.452C734.122 872.52 734.782 871.369 734.575 870.407C734.181 868.578 735.724 866.485 737.686 866.726C738.534 866.83 739.368 867.311 739.89 867.988C740.563 868.861 740.446 870.016 740.875 870.994C741.971 873.489 745.433 873.312 747.722 873.56C750.713 873.884 753.719 874.065 756.727 874.103C761.964 874.169 767.745 874.26 772.72 872.393C776.504 870.972 780.396 868.501 782.243 864.764C784.663 859.866 782.383 855.024 778.61 851.591C777.075 850.194 774.783 852.473 776.325 853.876C779.425 856.697 781.395 860.478 778.765 864.301C776.493 867.605 772.303 869.498 768.479 870.231C765.845 870.736 763.06 870.777 760.385 870.847C757.378 870.925 754.367 870.86 751.366 870.652C749.988 870.556 748.611 870.431 747.237 870.275C746.492 870.19 745.748 870.1 745.006 869.992C744.42 869.906 743.983 869.959 743.751 869.449C743.34 868.544 743.398 867.534 742.859 866.631C742.274 865.652 741.385 864.811 740.381 864.272C735.609 861.708 730.356 866.148 731.459 871.266L733.017 869.22C727.297 868.866 720.74 869.99 715.387 867.472L716.129 868.438C714.839 861.423 714.693 854.266 714.748 847.152C714.804 840.072 714.911 833.004 714.812 825.923L712.767 827.481C720.431 829.175 728.578 829.555 736.41 829.385C740.393 829.298 744.365 828.968 748.305 828.378C752.265 827.785 756.229 826.995 759.934 825.447L757.889 823.889C758.428 829.969 759.098 836.368 762.119 841.795C763.627 844.503 765.732 846.679 768.253 848.46C770.901 850.33 773.867 851.74 776.325 853.876C777.889 855.234 780.184 852.958 778.61 851.591Z" fill="#FF008C"/>
<path d="M725.328 721.301V729.773C725.328 730.618 726.071 731.427 726.944 731.388C727.819 731.349 728.56 730.678 728.56 729.773V721.301C728.56 720.456 727.816 719.646 726.944 719.685C726.068 719.724 725.328 720.395 725.328 721.301Z" fill="#FF008C"/>
<path d="M726.172 757.73V767.897C726.172 768.742 726.915 769.552 727.788 769.512C728.663 769.473 729.403 768.803 729.403 767.897V757.73C729.403 756.885 728.66 756.076 727.788 756.115C726.912 756.154 726.172 756.825 726.172 757.73Z" fill="#FF008C"/>
<path d="M728.701 802.229C728.987 803.64 729.272 805.052 729.558 806.463C729.635 806.844 729.974 807.237 730.301 807.428C730.647 807.631 731.157 807.717 731.546 807.591C731.937 807.465 732.314 807.223 732.511 806.849C732.722 806.449 732.764 806.048 732.674 805.604C732.388 804.193 732.103 802.781 731.817 801.37C731.74 800.988 731.401 800.596 731.074 800.404C730.728 800.202 730.218 800.116 729.829 800.241C729.438 800.368 729.061 800.61 728.864 800.984C728.653 801.383 728.611 801.784 728.701 802.229Z" fill="black"/>
<path d="M745.656 772.98V783.994C745.656 784.867 746.399 785.609 747.272 785.609C748.148 785.609 748.888 784.87 748.888 783.994V772.98C748.888 772.107 748.145 771.364 747.272 771.364C746.396 771.364 745.656 772.104 745.656 772.98Z" fill="#FF008C"/>
<path d="M738.11 731.046C738.678 733.87 739.246 736.693 739.813 739.517C739.98 740.347 741.011 740.901 741.801 740.645C742.682 740.36 743.108 739.547 742.929 738.658C742.362 735.834 741.794 733.011 741.226 730.187C741.06 729.357 740.029 728.803 739.239 729.059C738.358 729.344 737.932 730.157 738.11 731.046Z" fill="#FF008C"/>
<path d="M742.273 709.439V711.981C742.273 712.395 742.454 712.831 742.747 713.124C743.027 713.404 743.487 713.615 743.889 713.597C744.307 713.578 744.74 713.441 745.032 713.124C745.322 712.808 745.505 712.419 745.505 711.981V709.439C745.505 709.025 745.325 708.59 745.032 708.297C744.751 708.017 744.292 707.806 743.889 707.824C743.471 707.843 743.038 707.98 742.747 708.297C742.456 708.613 742.273 709.002 742.273 709.439Z" fill="#FF008C"/>
<path d="M687.202 714.069C685.511 718.306 683.82 722.544 682.13 726.781C681.806 727.592 682.483 728.556 683.258 728.768C684.178 729.021 684.921 728.454 685.246 727.64C686.936 723.402 688.627 719.165 690.318 714.928C690.642 714.117 689.965 713.153 689.19 712.94C688.269 712.687 687.527 713.255 687.202 714.069Z" fill="#FF008C"/>
<path d="M669.469 746.286C667.743 751.359 666.016 756.431 664.289 761.503C663.618 763.476 666.738 764.323 667.405 762.362C669.132 757.29 670.859 752.218 672.585 747.145C673.257 745.172 670.137 744.325 669.469 746.286Z" fill="#FF008C"/>
<path d="M656.925 781.483C654.949 785.437 652.972 789.391 650.995 793.344C650.605 794.124 650.787 795.094 651.575 795.555C652.291 795.974 653.393 795.759 653.785 794.975C655.762 791.022 657.739 787.068 659.716 783.115C660.106 782.334 659.923 781.364 659.136 780.904C658.42 780.485 657.317 780.7 656.925 781.483Z" fill="#FF008C"/>
<path d="M666.495 805.989C667.342 804.295 668.189 802.6 669.036 800.906C669.414 800.151 669.262 799.121 668.457 798.695C667.724 798.308 666.65 798.468 666.246 799.275C665.399 800.969 664.552 802.664 663.704 804.358C663.327 805.113 663.479 806.143 664.284 806.569C665.016 806.956 666.091 806.796 666.495 805.989Z" fill="black"/>
<path d="M681.742 769.56C683.436 767.3 685.13 765.041 686.825 762.782C687.06 762.469 687.087 761.896 686.988 761.537C686.885 761.162 686.595 760.756 686.245 760.571C685.87 760.373 685.416 760.274 685 760.408C684.575 760.546 684.301 760.796 684.035 761.151C682.34 763.41 680.646 765.669 678.951 767.928C678.716 768.242 678.69 768.814 678.788 769.173C678.892 769.548 679.181 769.954 679.531 770.139C679.906 770.337 680.36 770.437 680.776 770.302C681.201 770.164 681.475 769.915 681.742 769.56Z" fill="#FF008C"/>
<path d="M696.992 743.296C697.839 742.167 698.686 741.037 699.533 739.907C699.768 739.594 699.795 739.021 699.696 738.662C699.593 738.288 699.303 737.881 698.954 737.697C698.579 737.499 698.124 737.399 697.709 737.534L697.323 737.697C697.08 737.84 696.887 738.034 696.743 738.276L694.201 741.665C693.966 741.978 693.94 742.551 694.038 742.91C694.142 743.285 694.431 743.691 694.781 743.876C695.156 744.074 695.61 744.173 696.026 744.039L696.412 743.876C696.655 743.732 696.848 743.539 696.992 743.296Z" fill="#FF008C"/>
<path d="M703.671 711.91C704.517 711.622 705.362 711.334 706.207 711.046C706.607 710.91 706.955 710.676 707.173 710.304C707.375 709.957 707.461 709.447 707.336 709.059C707.209 708.668 706.967 708.29 706.593 708.093C706.222 707.897 705.759 707.79 705.348 707.93C704.503 708.218 703.658 708.506 702.812 708.794C702.413 708.93 702.064 709.164 701.847 709.536C701.644 709.883 701.558 710.393 701.684 710.781C701.81 711.172 702.053 711.55 702.426 711.747C702.798 711.943 703.26 712.05 703.671 711.91Z" fill="#FF008C"/>
<path d="M749.702 814.06C749.681 813.945 749.662 813.83 749.645 813.714L749.703 814.143C749.611 813.446 749.612 812.745 749.702 812.048L749.645 812.477C749.743 811.78 749.928 811.105 750.201 810.456L750.038 810.842C750.132 810.628 750.233 810.418 750.344 810.212C750.742 809.467 750.555 808.419 749.764 808.001C749.014 807.605 747.979 807.785 747.553 808.581C746.503 810.542 746.193 812.737 746.586 814.919C746.654 815.297 747.009 815.697 747.328 815.884C747.674 816.087 748.185 816.173 748.573 816.047C748.964 815.921 749.341 815.678 749.539 815.305C749.752 814.901 749.782 814.509 749.702 814.06Z" fill="#FF008C"/>
<path d="M672.492 713.156C681.494 707.181 692.69 705.46 703.494 705.46C714.298 705.459 725.06 707.023 735.864 706.952C740.527 706.921 745.357 706.539 749.457 704.316C753.557 702.093 756.742 697.596 756.112 692.975C753.069 696.256 748.345 697.238 743.938 698.014C722.925 701.714 700.61 704.496 680.808 696.554C678.52 701.074 676.232 705.595 673.945 710.115" fill="#FF008C"/>
<path d="M673.31 714.551C683.66 707.767 696.351 706.724 708.405 707.172C715.278 707.427 722.125 708.119 728.996 708.423C735.204 708.697 742.012 709.08 747.917 706.787C753.479 704.627 758.461 699.331 757.73 692.975C757.581 691.672 756.029 690.733 754.972 691.832C751.886 695.044 747.269 695.797 743.069 696.534C738.025 697.418 732.968 698.241 727.884 698.862C717.902 700.082 707.709 700.624 697.711 699.27C692.072 698.507 686.53 697.096 681.24 694.997C680.617 694.749 679.711 695.154 679.415 695.739C677.128 700.259 674.84 704.78 672.552 709.3C671.615 711.151 674.402 712.789 675.342 710.931C677.63 706.411 679.918 701.89 682.205 697.37L680.381 698.112C700.352 706.04 722.436 703.381 743.045 699.804C748.109 698.925 753.535 697.99 757.257 694.117L754.499 692.975C755.124 698.416 750.655 702.574 745.832 704.103C739.885 705.989 733.171 705.425 727.034 705.094C714.552 704.421 702.008 702.798 689.58 704.976C683.251 706.085 677.073 708.225 671.679 711.761C669.947 712.896 671.564 715.695 673.31 714.551Z" fill="#FF008C"/>
<path d="M481.032 850.586C478.931 848.591 476.58 846.462 475.567 843.667C474.831 841.637 474.9 838.778 476.683 837.28C478.693 835.591 481.673 836.658 483.358 838.296C485.549 840.427 486.392 843.579 487.219 846.422L490.172 845.177C486.491 838.78 486.096 830.416 489.616 823.846C490.934 821.386 493.765 818.221 496.892 818.634C500.481 819.109 501.473 824.428 502.228 827.224C503.521 832.017 504.195 836.928 504.288 841.889C504.322 843.67 507.023 844.134 507.462 842.318C508.882 836.442 515.419 832.525 520.862 836.135C523.115 837.63 524.522 840.27 523.967 842.987C523.41 845.709 521.399 847.925 518.631 848.405L519.49 851.521C523.043 850.122 527.671 848.116 531.469 849.773C533.863 850.818 536.16 853.913 534.653 856.49C533.601 858.289 536.393 859.917 537.444 858.121C539.694 854.273 537.45 849.679 533.968 847.462C529.277 844.475 523.319 846.56 518.631 848.405C516.699 849.166 517.422 851.88 519.49 851.521C525.598 850.461 528.936 843.209 526.408 837.741C523.669 831.819 515.941 829.859 510.482 833.091C507.409 834.911 505.182 837.999 504.346 841.459L507.519 841.889C507.422 836.733 506.731 831.578 505.405 826.592C504.343 822.6 503.048 817.39 498.716 815.789C494.737 814.319 490.642 817.023 488.262 820.056C485.582 823.471 484.325 827.975 484.024 832.253C483.668 837.306 484.858 842.421 487.381 846.808C488.288 848.384 490.851 847.339 490.334 845.563C489.27 841.903 488.04 837.9 484.955 835.409C482.158 833.15 477.973 832.262 474.925 834.567C472.239 836.599 471.472 840.256 472.143 843.425C472.961 847.295 475.991 850.254 478.746 852.871C480.254 854.303 482.543 852.021 481.032 850.586Z" fill="#FF008C"/>
<path d="M839.544 850.558C837.525 848.272 835.309 845.829 834.571 842.784C834.004 840.445 834.497 837.355 836.852 836.172C839.251 834.967 842.27 836.123 844.089 837.851C846.354 840.004 847.609 842.984 848.835 845.8C849.437 847.185 851.384 846.586 851.788 845.415C852.93 842.103 855.316 837.635 859.298 837.342C861.708 837.165 865.452 840.741 863.199 842.98C862.101 844.072 863.207 846.221 864.771 845.68C867.958 844.579 869.78 841.902 871.763 839.355C873.345 837.322 875.653 834.793 878.48 836.193C881.399 837.639 882.577 841.68 882.637 844.679C882.732 849.365 881.358 853.927 878.839 857.863C877.715 859.62 880.511 861.242 881.629 859.494C885.545 853.375 887.62 844.62 884.184 837.839C882.835 835.175 880.46 832.855 877.363 832.59C874.412 832.339 871.953 834.095 870.14 836.249C868.33 838.4 866.727 841.592 863.912 842.565L865.484 845.265C869.456 841.316 865.314 834.99 860.597 834.208C854.481 833.193 850.367 839.639 848.672 844.555L851.625 844.17C850.062 840.578 848.325 836.821 845.046 834.469C842.196 832.424 838.039 831.653 834.917 833.554C831.829 835.436 830.765 839.214 831.268 842.632C831.862 846.668 834.652 849.892 837.259 852.843C838.638 854.404 840.917 852.112 839.544 850.558Z" fill="#FF008C"/>
<path d="M151.067 844.124C145.117 842.702 139.126 841.099 133.565 838.504C128.311 836.051 123.264 832.652 120.218 827.594C116.931 822.134 116.651 815.664 118.698 809.706C120.876 803.369 125.468 798.219 131.214 794.868C138.236 790.774 146.478 789.315 154.523 789.363C155.798 789.371 156.819 787.497 155.665 786.605C148.233 780.854 147.055 770.329 150.698 762.092C152.67 757.633 155.779 753.763 159.401 750.532C163.131 747.205 167.687 744.156 172.753 743.502C177.418 742.9 183.053 744.882 184.885 749.56L186.873 747.573C184.381 746.748 183.04 744.154 182.85 741.658C182.617 738.598 183.992 735.952 186.182 733.88C188.714 731.483 192.047 730.007 195.342 728.99C199.065 727.841 203.353 727.183 207.064 728.75C210.336 730.131 212.895 733.33 212.593 736.979C212.445 738.758 214.753 738.924 215.603 737.794C219.556 732.541 228.916 733.171 232.33 738.662C233.426 740.425 236.222 738.804 235.12 737.032C230.323 729.314 218.211 728.99 212.813 736.163L215.824 736.979C216.17 732.8 213.644 728.973 210.215 726.782C206.076 724.138 200.838 724.251 196.229 725.387C188.704 727.243 179.21 732.354 179.601 741.35C179.779 745.45 181.984 749.356 186.014 750.689C187.111 751.052 188.448 749.844 188.001 748.702C186.058 743.742 181.301 740.793 176.113 740.244C170.364 739.635 164.731 742.331 160.246 745.695C151.567 752.204 144.404 762.442 145.54 773.762C146.124 779.582 148.683 785.256 153.38 788.89L154.523 786.132C139.661 786.043 123.23 791.577 116.7 806.057C113.795 812.497 113.174 819.829 115.996 826.411C118.532 832.329 123.462 836.738 129.011 839.81C135.588 843.451 142.938 845.503 150.208 847.24C152.229 847.723 153.092 844.608 151.067 844.124Z" fill="#FF008C"/>
<path d="M302.086 476.786C306.66 480.351 312.248 482.412 318.079 482.358C323.902 482.304 329.471 480.143 333.968 476.49C335.582 475.179 333.284 472.905 331.683 474.205C323.855 480.563 312.335 480.709 304.371 474.501C302.75 473.237 300.447 475.508 302.086 476.786Z" fill="#FF008C"/>
<path d="M355.202 475.327C358.75 478.532 363.895 479.853 368.507 478.402C372.826 477.043 376.224 473.545 377.563 469.237C378.181 467.247 375.063 466.395 374.447 468.378C373.45 471.585 370.869 474.272 367.647 475.286C364.152 476.385 360.201 475.495 357.487 473.042C355.947 471.651 353.655 473.93 355.202 475.327Z" fill="#FF008C"/>
<path d="M303.95 453.581C307.491 450.056 311.855 447.454 316.648 446.03C318.967 445.342 321.353 444.918 323.77 444.812C326.184 444.705 328.943 445.324 331.064 443.865C332.766 442.694 331.152 439.892 329.433 441.075C328.407 441.781 327.178 441.598 325.992 441.565C324.713 441.529 323.432 441.57 322.158 441.694C319.6 441.942 317.07 442.457 314.634 443.282C309.759 444.932 305.313 447.664 301.665 451.296C300.189 452.765 302.473 455.05 303.95 453.581Z" fill="#FF008C"/>
<path d="M375.784 443.053C374.167 440.133 371.308 437.984 368.026 437.325C366.164 436.951 364.226 436.89 362.333 436.853C361.346 436.833 360.37 436.873 359.392 437.012C358.89 437.083 358.403 437.18 357.911 437.305C357.744 437.348 357.541 437.437 357.374 437.455C357.266 437.468 357.516 437.65 357.459 437.524C357.1 436.728 355.945 436.536 355.248 436.944C354.43 437.423 354.308 438.356 354.669 439.155C355.61 441.238 357.881 440.544 359.592 440.23C361.413 439.895 363.38 440.088 365.217 440.21C368.505 440.43 371.35 441.716 372.994 444.684C374.002 446.504 376.794 444.876 375.784 443.053Z" fill="#FF008C"/>
<path d="M343.926 489.166C345.361 488.165 346.91 487.4 348.596 486.93C349.414 486.701 350.253 486.522 351.1 486.452C351.889 486.387 352.655 486.408 353.188 486.726C353.34 486.817 353.56 486.999 353.772 487.262C353.65 487.112 353.924 487.51 353.922 487.506C353.916 487.496 354.148 487.936 354.068 487.753C354.207 488.071 354.307 488.436 354.347 488.78C354.319 488.538 354.344 489.012 354.344 489.058C354.344 489.041 354.313 489.579 354.341 489.35C354.167 490.758 353.194 491.962 352.082 492.757C351.373 493.264 351.033 494.166 351.502 494.968C351.912 495.668 352.999 496.057 353.713 495.547C355.516 494.259 357.064 492.455 357.457 490.209C357.818 488.151 357.189 485.877 355.567 484.489C353.631 482.831 351.034 483.074 348.7 483.576C346.416 484.066 344.21 485.04 342.296 486.375C341.581 486.874 341.25 487.79 341.716 488.586C342.13 489.293 343.207 489.667 343.926 489.166Z" fill="#FF008C"/>
<path d="M324.922 505.215C325.867 508.324 327.983 511.051 330.837 512.636C334.002 514.395 337.931 514.687 341.316 513.4C342.132 513.09 342.692 512.311 342.445 511.413C342.23 510.632 341.277 509.972 340.457 510.284C337.857 511.272 334.928 511.213 332.468 509.846C330.339 508.664 328.745 506.683 328.038 504.356C327.434 502.372 324.314 503.218 324.922 505.215Z" fill="#FF008C"/>
<path d="M325.047 507.106C326.275 505.683 327.643 504.388 329.13 503.239L328.803 503.492C328.93 503.394 329.059 503.296 329.188 503.2C329.538 502.94 329.81 502.672 329.93 502.235C330.037 501.848 329.989 501.333 329.767 500.99C329.545 500.645 329.214 500.341 328.802 500.247C328.405 500.157 327.898 500.156 327.557 500.41C325.807 501.714 324.19 503.167 322.762 504.821C322.479 505.149 322.289 505.517 322.289 505.963C322.289 506.36 322.465 506.833 322.762 507.106C323.07 507.389 323.474 507.598 323.905 507.579C324.315 507.561 324.769 507.428 325.047 507.106Z" fill="#FF008C"/>
<path d="M674.915 621.315C676.979 624.571 680.367 627.015 684.197 627.681C688.34 628.401 692.463 627.24 695.707 624.594C696.383 624.042 696.28 622.882 695.707 622.309C695.038 621.64 694.1 621.756 693.422 622.309C688.514 626.313 681.064 624.981 677.705 619.684C676.595 617.933 673.797 619.552 674.915 621.315Z" fill="#FF008C"/>
<path d="M715.873 625.312C718.962 629.259 724.419 629.592 728.934 628.495C733.542 627.375 738.174 625.469 740.183 620.852C740.533 620.046 740.414 619.127 739.603 618.641C738.923 618.234 737.74 618.422 737.392 619.221C736.709 620.791 735.681 622.169 734.219 623.093C732.506 624.175 730.409 624.775 728.463 625.281C724.86 626.218 720.651 626.212 718.158 623.027C717.617 622.334 716.443 622.469 715.874 623.027C715.188 623.698 715.339 624.628 715.873 625.312Z" fill="#FF008C"/>
<path d="M678.194 607.151C683.462 607.96 689.588 607.885 693.386 603.528C693.959 602.871 694.033 601.89 693.386 601.243C692.801 600.658 691.677 600.582 691.101 601.243C688.106 604.68 683.215 604.674 679.053 604.035C678.191 603.903 677.315 604.254 677.065 605.164C676.855 605.929 677.326 607.018 678.194 607.151Z" fill="#FF008C"/>
<path d="M735.702 603.294C734.169 604.77 731.759 603.978 730.052 603.29C727.564 602.288 725.12 601.157 722.659 600.089C721.859 599.742 720.926 599.853 720.448 600.669C720.049 601.352 720.223 602.53 721.028 602.879C723.977 604.16 726.908 605.613 729.939 606.691C732.641 607.651 735.804 607.681 737.987 605.579C739.488 604.134 737.201 601.851 735.702 603.294Z" fill="#FF008C"/>
<path d="M699.08 607.252C698.733 616.615 698.647 625.986 698.823 635.354C698.862 637.431 702.093 637.438 702.054 635.354C701.879 625.986 701.965 616.615 702.312 607.252C702.389 605.172 699.157 605.175 699.08 607.252Z" fill="#FF008C"/>
<path d="M700.244 648.461C706.047 650.859 713.027 648.029 715.505 642.261C715.849 641.46 715.743 640.529 714.925 640.05C714.244 639.652 713.061 639.824 712.714 640.63C711.817 642.719 710.319 644.35 708.266 645.334C706.053 646.394 703.383 646.287 701.103 645.345C700.297 645.011 699.327 645.706 699.116 646.473C698.861 647.402 699.435 648.126 700.244 648.461Z" fill="#FF008C"/>
<path d="M711.896 639.58L714.412 641.891C714.725 642.179 715.122 642.364 715.554 642.364C715.951 642.364 716.424 642.188 716.697 641.891C716.979 641.583 717.189 641.179 717.17 640.748C717.151 640.33 717.014 639.897 716.697 639.606L714.181 637.295C713.868 637.007 713.471 636.822 713.039 636.822C712.643 636.822 712.169 636.998 711.896 637.295C711.614 637.603 711.404 638.007 711.423 638.438C711.442 638.856 711.579 639.289 711.896 639.58Z" fill="#FF008C"/>
</svg>
