<svg width="1000" height="1000" viewBox="0 0 1000 1000" fill="none" xmlns="http://www.w3.org/2000/svg">
<path d="M519.722 423.928C466.308 416.752 417.053 391.905 365.13 377.463C352.937 374.071 340.397 371.233 327.752 371.771C315.107 372.308 302.209 376.556 293.356 385.601C291.217 387.786 289.219 390.824 290.232 393.709C291.651 397.745 297.258 397.827 301.482 397.147C301.344 400.483 301.397 404.297 303.895 406.511C306.654 408.957 310.869 408.176 314.518 408.701C318.573 409.285 322.137 411.602 325.577 413.828C395.918 459.343 475.668 490.247 558.312 504.015" fill="white"/>
<path d="M520.148 422.381C502.312 419.966 484.816 415.585 467.634 410.282C450.285 404.928 433.236 398.663 416.149 392.537C399.118 386.432 382.021 380.443 364.568 375.642C347.55 370.961 329.231 367.466 311.937 372.832C304.511 375.137 297.26 379.046 291.918 384.784C289.35 387.543 287.135 391.548 289.172 395.245C290.715 398.042 294.026 398.936 297.004 399.059C298.648 399.126 300.287 398.945 301.909 398.694L299.878 397.147C299.732 400.916 299.889 405.305 303.062 407.896C306.353 410.583 310.662 409.664 314.54 410.32C319.091 411.09 322.975 414.069 326.768 416.502C330.775 419.073 334.812 421.596 338.878 424.071C355.141 433.973 371.869 443.111 388.983 451.456C406.008 459.757 423.417 467.277 441.128 473.992C458.932 480.742 477.048 486.67 495.4 491.746C513.675 496.801 532.184 501.011 550.85 504.347C553.193 504.765 555.538 505.17 557.886 505.562C559.906 505.899 560.774 502.808 558.739 502.468C540.27 499.384 521.945 495.459 503.836 490.698C485.728 485.937 467.837 480.349 450.237 473.961C432.691 467.594 415.438 460.429 398.546 452.489C381.601 444.524 365.019 435.788 348.873 426.308C340.814 421.577 332.921 416.599 325.042 411.577C321.288 409.185 317.436 407.238 312.926 406.939C309.277 406.697 304.696 407.113 303.465 402.755C302.952 400.939 303.014 399.015 303.087 397.147C303.131 396.005 302.032 395.449 301.056 395.6C298.542 395.99 294.94 396.355 292.793 394.645C289.604 392.103 293.243 387.922 295.246 385.985C300.624 380.785 307.465 377.346 314.641 375.387C331.468 370.793 349.028 374.619 365.412 379.207C381.961 383.843 398.198 389.507 414.371 395.3C430.541 401.091 446.669 407.022 463.047 412.208C479.408 417.389 496.043 421.824 513.002 424.547C515.096 424.883 517.194 425.191 519.295 425.475C520.161 425.592 521.007 425.267 521.269 424.355C521.483 423.609 521.006 422.497 520.148 422.381Z" fill="#FF008C"/>
<path d="M374.375 413.022C377.581 415.205 393.87 428.007 396.155 431.142C397.757 433.341 398.805 435.888 399.813 438.416C407.715 458.228 414.158 478.623 419.073 499.379C421.632 510.186 425.353 520.661 428.547 531.286C430.642 538.258 437.884 555.113 433.288 561.97C432.2 563.593 430.388 564.616 428.506 565.139C419.82 567.553 416.019 559.298 408.623 557.368C400.137 555.154 396.228 552.782 393.415 543.538" fill="#84FF20"/>
<path d="M263.891 528.538C292.305 535.7 320.761 542.77 349.55 548.267C364.915 551.2 380.363 553.682 395.834 555.994C402.699 557.019 409.167 558.663 416.13 559.238C418.592 559.441 421.477 559.429 423.015 557.509C425.416 554.51 423.218 550.445 422.282 547.357C420.943 542.935 419.596 538.516 418.246 534.098C415.547 525.261 412.831 516.429 410.098 507.602C404.709 490.193 399.256 472.804 393.738 455.435C391.956 449.824 390.156 444.189 387.523 438.918C386.869 437.61 385.907 436.156 384.436 436.098C383.635 436.067 382.89 436.477 382.203 436.887C376.906 440.044 372.417 443.999 366.958 446.888C362.812 449.081 358.666 451.275 354.52 453.469C344.512 458.764 334.504 464.059 324.496 469.355C305.599 479.353 286.702 489.351 267.806 499.349L263.891 528.538Z" fill="#84FF20"/>
<path d="M387.737 434.945C383.658 438.327 374.222 443.888 369.718 446.654C366.736 448.486 363.771 450.346 360.823 452.233C328.117 473.17 297.564 497.47 269.807 524.629C266.83 527.542 263.255 530.718 259.122 530.201C254.998 529.684 252.242 525.619 251.015 521.647C249.066 515.339 249.622 508.294 252.535 502.369C246.569 502.408 243.784 498.205 240.703 493.796C238.021 489.959 235.171 484.745 235.618 480.001C235.869 477.339 236.47 474.71 237.4 472.204C237.513 471.9 237.633 471.58 237.585 471.259C237.49 470.635 236.831 470.29 236.261 470.019C232.853 468.401 229.816 465.935 227.728 462.793C224.369 457.74 226.23 450.773 230.895 447.245C236.718 442.842 242.571 438.377 248.396 433.936C260.248 424.897 272.198 415.988 284.244 407.209C292.876 400.917 301.574 394.683 310.802 389.302C313.397 387.789 316.08 387 318.785 385.822C321.456 384.658 323.732 382.972 326.848 383.345C328.865 383.586 330.665 384.682 332.392 385.751C353.813 399.008 375.356 412.356 394.165 429.114" fill="#84FF20"/>
<path d="M251.851 504.786C265.888 492.439 280.193 480.394 294.858 468.8C309.214 457.45 323.921 446.548 338.934 436.083C347.712 429.965 356.593 423.996 365.554 418.15C367.277 417.026 365.671 414.247 363.935 415.38C348.157 425.673 332.635 436.358 317.468 447.534C302.692 458.422 288.252 469.765 274.136 481.496C265.849 488.383 257.673 495.401 249.582 502.517C248.029 503.883 250.305 506.145 251.851 504.786Z" fill="#FF008C"/>
<path d="M489.539 750.621C492.326 755.173 496.345 758.963 501.054 761.478C501.908 761.934 502.79 762.352 503.727 762.599C506.45 763.318 509.424 762.502 511.73 760.885C514.036 759.268 515.743 756.924 517.083 754.447C520.298 748.499 521.586 741.529 520.707 734.825C517.39 736.651 513.52 737.1 509.867 738.094C502.368 740.133 495.745 744.489 489.266 748.779" fill="#FF008C"/>
<path d="M488.157 751.43C490.174 754.675 492.717 757.55 495.731 759.899C498.647 762.171 502.253 764.6 506.104 764.46C514.33 764.163 519.109 755.685 521.176 748.701C522.503 744.217 522.89 739.463 522.314 734.825C522.165 733.623 521.067 732.82 519.9 733.44C517.305 734.819 514.408 735.363 511.57 736.02C508.788 736.664 506.111 737.547 503.489 738.679C498.156 740.982 493.288 744.198 488.459 747.394C486.745 748.529 488.35 751.308 490.079 750.164C494.905 746.97 499.777 743.729 505.118 741.445C507.756 740.318 510.488 739.553 513.279 738.919C516.12 738.274 518.93 737.587 521.52 736.21L519.106 734.825C519.677 739.422 519.297 744.048 517.893 748.468C516.643 752.404 514.588 756.693 511.242 759.27C509.571 760.556 507.438 761.396 505.307 761.244C503.297 761.1 501.45 759.94 499.796 758.877C496.198 756.564 493.182 753.439 490.927 749.811C489.839 748.061 487.063 749.67 488.157 751.43Z" fill="#FF008C"/>
<path d="M237.466 475.258C250.17 463.766 263.436 452.896 277.226 442.73C290.944 432.617 305.162 423.182 319.812 414.473C328.102 409.545 336.53 404.854 345.081 400.397C346.912 399.442 345.292 396.672 343.462 397.626C328.215 405.574 313.365 414.274 298.984 423.699C284.615 433.117 270.72 443.256 257.351 454.046C249.789 460.15 242.404 466.47 235.197 472.99C233.663 474.378 235.937 476.641 237.466 475.258Z" fill="#FF008C"/>
<path d="M247.806 436.297C248.884 444.689 255.445 451.932 263.881 453.374L262.704 451.827C262.047 459.367 263.671 467.186 268.399 473.227C270.442 475.839 273.031 478.077 275.991 479.59C276.725 479.965 277.484 480.296 278.254 480.59C278.454 480.666 279.092 480.767 279.217 480.932C279.394 481.165 279.274 481.754 279.269 482.025C279.229 483.849 279.38 485.66 279.759 487.447C280.614 491.472 282.622 495.184 285.429 498.178C286.844 499.688 289.11 497.416 287.698 495.91C285.346 493.401 283.719 490.335 282.94 486.987C282.544 485.282 282.448 483.591 282.483 481.847C282.516 480.14 282.024 478.625 280.331 477.944C277.317 476.733 274.69 475.305 272.395 472.949C270.064 470.555 268.323 467.623 267.252 464.461C265.873 460.386 265.54 456.097 265.912 451.828C265.968 451.19 265.379 450.391 264.734 450.281C257.829 449.101 251.919 443.343 251.014 436.298C250.903 435.431 250.356 434.703 249.41 434.693C248.628 434.685 247.695 435.438 247.806 436.297Z" fill="#FF008C"/>
<path d="M650.816 552.583C606.027 558.693 503.078 566.531 457.994 570.893C417.592 574.803 376.997 578.745 337.734 588.457C342.69 613.822 345.07 639.625 344.831 665.407C344.847 663.639 408.176 657.356 414.151 656.669C437.807 653.952 461.499 651.5 485.219 649.315C531.276 645.072 654.962 630.388 701.079 630.732" fill="white"/>
<path d="M650.394 551.036C634.583 553.188 618.691 554.775 602.812 556.33C583.008 558.27 563.187 560.037 543.364 561.769C524.332 563.432 505.296 565.046 486.264 566.716C466.899 568.415 447.542 570.218 428.21 572.262C401.048 575.133 373.894 578.648 347.212 584.586C343.903 585.323 340.603 586.099 337.312 586.91C336.425 587.129 336.03 588.051 336.192 588.883C341.092 614.087 343.445 639.733 343.231 665.407C343.217 667.156 346.119 667.666 346.382 665.834C346.415 665.604 345.829 666.954 345.842 666.607C345.843 666.574 345.485 666.69 345.822 666.622C346.218 666.543 346.611 666.398 347.006 666.307C348.209 666.031 349.43 665.83 350.648 665.631C354.504 665.002 358.383 664.503 362.259 664.015C372.688 662.703 383.139 661.562 393.59 660.445C420.297 657.589 446.987 654.561 473.725 651.999C496.901 649.779 520.058 647.412 543.215 644.993C570.688 642.124 598.167 639.295 625.681 636.855C648.743 634.81 671.904 632.739 695.066 632.367C697.071 632.335 699.078 632.322 701.084 632.336C703.148 632.35 703.151 629.141 701.084 629.127C678.867 628.976 656.582 631.001 634.467 632.883C606.568 635.257 578.71 638.092 550.861 640.987C528.508 643.312 506.165 645.772 483.785 647.843C455.105 650.499 426.491 653.751 397.85 656.783C387.355 657.894 376.862 659.03 366.385 660.298C361.876 660.844 357.367 661.409 352.873 662.065C350.333 662.436 347.632 662.684 345.173 663.463C344.44 663.696 343.418 664.082 343.289 664.981L346.44 665.407C346.656 639.449 344.24 613.511 339.286 588.03L338.165 590.004C364.877 583.42 392.139 579.472 419.455 576.42C439.921 574.134 460.429 572.209 480.941 570.393C499.595 568.742 518.256 567.161 536.913 565.54C556.871 563.805 576.828 562.041 596.77 560.124C613.331 558.533 629.898 556.892 646.401 554.771C648.017 554.563 649.632 554.349 651.247 554.129C653.283 553.852 652.416 550.761 650.394 551.036Z" fill="#FF008C"/>
<path d="M161.79 577.57C161.541 599.174 161.292 620.778 161.044 642.382C160.922 652.972 160.799 663.562 160.678 674.152C160.569 683.587 159.097 691.452 167.292 698.007C179.699 707.932 193.582 716.975 207.082 725.37C217.418 731.798 228.76 740.006 240.205 744.237C249.771 747.773 263.812 744.034 273.489 742.252C286.91 739.78 300.087 736.179 313.412 733.264C326.388 730.425 339.5 728.243 352.489 725.463C365.882 722.596 379.131 719.096 392.373 715.598C401.258 713.251 410.142 710.903 419.027 708.556L419.821 591.617L239.622 585.2L161.79 577.57Z" fill="#84FF20"/>
<path d="M366.674 600.609L419.825 591.617L310.809 554.827C260.651 561.055 210.656 568.592 160.891 577.428L196.189 596.439C233.041 590.413 270.009 585.094 307.066 580.493L366.674 600.609Z" fill="white"/>
<path d="M367.099 602.156C373.075 601.145 379.052 600.133 385.029 599.122C394.565 597.509 404.102 595.895 413.639 594.282C415.843 593.909 418.046 593.536 420.249 593.163C421.93 592.879 421.611 590.529 420.249 590.07C413.15 587.674 406.05 585.278 398.951 582.882C384.346 577.953 369.742 573.025 355.138 568.096C342.793 563.93 330.448 559.764 318.103 555.598C315.881 554.848 313.578 553.79 311.281 553.295C310.625 553.154 309.941 553.33 309.283 553.412C307.249 553.666 305.216 553.921 303.184 554.179C299.118 554.695 295.054 555.219 290.99 555.752C283.06 556.792 275.134 557.864 267.213 558.969C235.418 563.402 203.697 568.361 172.067 573.845C168.198 574.516 164.33 575.195 160.463 575.881C159.092 576.124 158.924 578.191 160.079 578.813C169.104 583.674 178.129 588.534 187.154 593.395L193.398 596.758C193.944 597.051 194.486 597.354 195.036 597.639C196.134 598.209 197.18 597.893 198.389 597.696C211.83 595.506 225.285 593.411 238.755 591.411C252.338 589.393 265.934 587.47 279.544 585.648C286.335 584.739 293.129 583.853 299.926 582.992C301.456 582.798 302.985 582.606 304.515 582.414C305.139 582.336 306.173 582.014 306.703 582.061C306.969 582.085 307.285 582.258 307.536 582.342C317.457 585.69 327.378 589.039 337.299 592.387C346.776 595.585 356.252 598.783 365.728 601.981C365.901 602.039 366.073 602.097 366.246 602.155C368.206 602.817 369.048 599.72 367.099 599.062C362.495 597.508 357.891 595.954 353.287 594.401C344.28 591.361 335.272 588.321 326.265 585.282C320.225 583.243 314.184 581.204 308.143 579.166C306.93 578.756 305.805 579.045 304.515 579.206C299.671 579.812 294.828 580.43 289.987 581.06C280.333 582.318 270.685 583.622 261.044 584.975C241.621 587.7 222.226 590.622 202.862 593.739C200.495 594.121 198.128 594.505 195.761 594.892L196.997 595.053C186.675 589.494 176.354 583.935 166.032 578.376C164.587 577.599 163.143 576.821 161.699 576.043L161.316 578.975C192.924 573.365 224.623 568.274 256.4 563.713C272.315 561.428 288.249 559.276 304.2 557.259C306.034 557.027 307.996 556.977 309.791 556.557C310.185 556.465 310.225 556.378 310.469 556.403C310.721 556.429 311.013 556.586 311.25 556.666L314.814 557.869C326.3 561.745 337.787 565.622 349.273 569.498C364.074 574.493 378.875 579.488 393.676 584.483C399.288 586.377 404.899 588.271 410.51 590.164C413.315 591.111 416.145 592.308 419.017 593.035C419.145 593.067 419.271 593.121 419.396 593.163V590.07C413.42 591.081 407.443 592.092 401.466 593.103C391.93 594.717 382.393 596.33 372.856 597.944C370.652 598.316 368.449 598.689 366.246 599.062C364.214 599.406 365.076 602.498 367.099 602.156Z" fill="#FF008C"/>
<path d="M366.672 600.609L307.065 580.493C270.008 585.095 233.04 590.413 196.188 596.439L242.833 621.561L366.672 600.609Z" fill="#FF008C"/>
<path d="M367.096 599.062C362.462 597.498 357.828 595.935 353.194 594.371C344.227 591.345 335.26 588.318 326.293 585.292C320.237 583.248 314.18 581.204 308.124 579.16C306.873 578.738 305.672 579.061 304.357 579.226C299.52 579.831 294.685 580.449 289.852 581.078C280.206 582.334 270.567 583.638 260.935 584.99C241.546 587.711 222.183 590.629 202.853 593.741C200.488 594.122 198.123 594.506 195.758 594.892C194.379 595.118 194.23 597.207 195.375 597.824C199.341 599.96 203.307 602.096 207.273 604.232C214.693 608.229 222.114 612.225 229.534 616.221C232.44 617.787 235.347 619.352 238.253 620.917C239.49 621.583 240.72 622.374 242.008 622.939C242.828 623.299 243.753 623.024 244.611 622.878L249.1 622.119C254.55 621.197 260 620.275 265.449 619.353C273.128 618.054 280.807 616.755 288.486 615.456C297.037 614.009 305.589 612.562 314.14 611.115C322.227 609.747 330.313 608.379 338.399 607.011C344.683 605.948 350.967 604.885 357.251 603.822C360.388 603.291 363.56 602.855 366.68 602.226C366.818 602.199 366.957 602.179 367.096 602.156C369.127 601.812 368.266 598.72 366.243 599.062C362.147 599.755 358.052 600.448 353.957 601.141C344.079 602.812 334.201 604.483 324.324 606.154C312.411 608.17 300.499 610.185 288.587 612.2C278.258 613.948 267.928 615.696 257.599 617.443C254.227 618.014 250.856 618.584 247.484 619.154C245.884 619.425 244.182 619.564 242.611 619.979C242.544 619.997 242.472 620.002 242.403 620.014L243.639 620.176C238.39 617.349 233.142 614.522 227.893 611.695C219.522 607.187 211.151 602.678 202.78 598.17C200.851 597.131 198.923 596.093 196.994 595.054L196.611 597.986C215.771 594.854 234.962 591.911 254.181 589.162C263.771 587.79 273.368 586.466 282.971 585.191C287.803 584.55 292.637 583.921 297.472 583.305C299.93 582.991 302.389 582.68 304.848 582.373C305.493 582.293 306.226 582.011 306.784 582.09C307.362 582.172 307.991 582.497 308.542 582.683L312.011 583.854L322.617 587.434C331.582 590.459 340.548 593.485 349.513 596.51C354.983 598.356 360.435 600.477 365.986 602.07C366.072 602.094 366.157 602.127 366.243 602.156C368.203 602.818 369.045 599.72 367.096 599.062Z" fill="#FF008C"/>
<path d="M306.733 560.376C306.719 570.614 306.331 580.847 305.568 591.056C305.414 593.116 308.623 593.106 308.776 591.056C309.539 580.847 309.928 570.614 309.941 560.376C309.944 558.311 306.735 558.308 306.733 560.376Z" fill="#FF008C"/>
<path d="M241.23 628.512C242.909 659.114 245.106 689.72 245.263 720.381C245.305 728.619 245.189 736.859 244.837 745.091C244.748 747.155 247.957 747.151 248.045 745.091C249.335 714.937 247.65 684.723 245.928 654.622C245.43 645.919 244.916 637.217 244.438 628.512C244.325 626.459 241.116 626.446 241.23 628.512Z" fill="#FF008C"/>
<path d="M799.67 556.481C802.213 586.8 790.086 618.015 767.741 638.664C751.195 653.955 730.078 663.213 709.155 671.569C693.856 677.68 678.557 682.074 662.767 686.552C649.319 690.366 636.042 696.884 622.965 702.018C579.393 719.123 535.676 735.884 492.236 753.322C481.686 757.557 471.101 761.752 460.245 765.15C454.837 766.843 449.367 768.344 443.827 769.54C438.517 770.687 436.472 771.768 433.776 766.986C422.379 746.769 414.542 723.292 406.063 701.726C403.805 695.983 401.59 690.224 399.411 684.451C397.225 678.659 396.271 676.621 401.172 672.155C407.616 666.283 417.365 663.916 425.66 666.866C432.795 669.404 438.351 675.15 445.265 678.241C458.887 684.331 472.53 678.045 485.642 673.773C500.396 668.965 515.072 663.919 529.663 658.636C558.845 648.071 587.685 636.562 616.122 624.13" fill="white"/>
<path d="M798.068 556.482C799.874 578.911 793.796 601.607 781.308 620.303C767.845 640.458 747.332 653.239 725.586 662.965C713.756 668.255 701.661 672.983 689.332 676.975C676.76 681.046 663.794 684.016 651.411 688.635C638.823 693.331 626.56 698.902 614.047 703.801C601.117 708.863 588.178 713.9 575.24 718.939C549.24 729.066 523.243 739.201 497.335 749.562C484.58 754.663 471.857 759.905 458.714 763.947C452.662 765.808 446.514 767.438 440.304 768.684C438.554 769.036 437.227 769.064 436.044 767.561C434.278 765.318 433.083 762.42 431.782 759.891C425.851 748.363 421.019 736.313 416.381 724.22C411.749 712.141 407.067 700.08 402.464 687.991C401.458 685.349 400.269 682.693 399.529 679.958C399.01 678.04 399.308 676.557 400.603 675.015C404.139 670.804 409.654 668.143 415.044 667.406C420.917 666.604 426.244 668.353 431.204 671.413C435.974 674.356 440.332 677.949 445.558 680.097C457.879 685.161 470.745 680.534 482.608 676.481C495.584 672.047 508.626 667.832 521.55 663.245C547.504 654.033 573.193 644.076 598.576 633.39C604.713 630.806 610.832 628.181 616.934 625.515C618.821 624.691 617.19 621.926 615.315 622.745C589.271 634.122 562.894 644.728 536.222 654.541C522.789 659.483 509.282 664.224 495.707 668.763C489.195 670.941 482.684 673.122 476.17 675.292C469.789 677.418 463.167 679.36 456.374 679.147C449.634 678.935 443.989 676.132 438.514 672.43C433.82 669.256 429.086 665.794 423.442 664.568C418.124 663.412 412.531 664.075 407.546 666.212C403.412 667.984 398.096 671.278 396.457 675.736C395.817 677.475 396 679.281 396.5 681.032C397.293 683.81 398.48 686.508 399.508 689.205C401.96 695.641 404.503 702.042 406.97 708.473C411.626 720.613 416.094 732.83 421.21 744.787C423.817 750.882 426.596 756.908 429.671 762.782C431.531 766.335 433.538 772.035 438.34 772.125C440.444 772.165 442.601 771.453 444.633 771.004C448.03 770.255 451.402 769.406 454.749 768.462C461.46 766.57 468.067 764.328 474.605 761.91C487.979 756.963 501.149 751.453 514.406 746.201C527.807 740.893 541.227 735.632 554.654 730.39C581.04 720.088 607.705 710.317 633.795 699.283C640.151 696.595 646.489 693.855 652.967 691.468C659.458 689.075 666.122 687.288 672.761 685.366C685.864 681.572 698.844 677.438 711.506 672.346C734.208 663.217 757.364 652.717 774.249 634.423C789.666 617.72 799.195 595.856 801.217 573.239C801.716 567.664 801.726 562.061 801.276 556.482C801.112 554.438 797.902 554.42 798.068 556.482Z" fill="#FF008C"/>
<path d="M317.794 730.556C314.883 716.893 313.006 703.026 312.212 689.078C311.828 682.313 311.575 675.486 311.852 668.712C312.1 662.651 313.089 656.459 316.598 651.361C319.741 646.794 324.884 643.164 330.479 642.55C333.292 642.242 336.179 642.723 338.534 644.355C340.502 645.72 341.883 647.792 342.814 649.969C344.903 654.857 345.214 660.428 345.809 665.646C346.506 671.757 347.132 677.876 347.709 683.999C349.004 697.743 350.073 711.512 350.848 725.295C350.963 727.348 354.172 727.362 354.056 725.295C353.323 712.249 352.323 699.217 351.123 686.205C350.528 679.756 349.88 673.311 349.156 666.874C348.516 661.174 348.212 655.127 346.148 649.719C344.134 644.441 340.216 640.249 334.416 639.43C328.385 638.579 322.403 641.132 317.933 645.07C307.433 654.322 308.294 669.533 308.702 682.274C309.231 698.788 311.258 715.251 314.701 731.409C315.131 733.428 318.224 732.573 317.794 730.556Z" fill="#FF008C"/>
<path d="M341.613 679.59C341.42 679.031 341.106 678.598 340.608 678.271C340.228 678.021 339.784 677.921 339.337 677.888C338.877 677.855 338.419 677.987 338.011 678.19C337.578 678.405 337.267 678.755 336.986 679.135C336.549 679.728 336.384 680.506 336.342 681.227C336.299 681.973 336.485 682.68 336.776 683.357C337.341 684.67 338.674 685.519 340.09 685.55C340.749 685.564 341.498 685.379 342.043 685C342.675 684.56 343.199 683.94 343.358 683.167C343.525 682.357 343.418 681.524 343.004 680.799C342.769 680.387 342.458 680.095 342.086 679.816C341.815 679.613 341.472 679.461 341.137 679.409C340.695 679.342 340.302 679.336 339.901 679.571C339.568 679.766 339.251 680.147 339.164 680.53C339.07 680.94 339.09 681.401 339.325 681.766C339.537 682.094 339.881 682.441 340.284 682.503C340.39 682.519 340.488 682.547 340.587 682.588L340.204 682.426C340.298 682.47 340.384 682.523 340.466 682.586L340.142 682.336C340.222 682.402 340.293 682.475 340.359 682.556L340.108 682.232C340.191 682.341 340.259 682.457 340.315 682.582L340.154 682.199C340.213 682.342 340.254 682.488 340.277 682.641L340.22 682.215C340.239 682.368 340.239 682.52 340.219 682.673L340.276 682.247C340.256 682.368 340.224 682.484 340.178 682.597L340.339 682.214C340.294 682.315 340.24 682.406 340.173 682.494L340.424 682.17C340.34 682.275 340.246 682.368 340.14 682.451L340.464 682.2C340.356 682.279 340.243 682.345 340.121 682.401L340.504 682.239C340.332 682.311 340.155 682.358 339.97 682.383L340.396 682.326C340.208 682.347 340.022 682.345 339.834 682.321L340.261 682.378C340.09 682.352 339.926 682.308 339.766 682.244L340.149 682.406C339.989 682.338 339.842 682.253 339.703 682.148L340.027 682.399C339.879 682.28 339.749 682.148 339.631 681.999L339.882 682.324C339.745 682.142 339.635 681.947 339.546 681.737L339.708 682.121C339.615 681.889 339.553 681.65 339.516 681.404L339.574 681.83C339.537 681.543 339.538 681.258 339.576 680.971L339.519 681.397C339.552 681.183 339.605 680.976 339.687 680.774L339.525 681.157C339.588 681.014 339.662 680.881 339.756 680.755L339.505 681.08C339.578 680.989 339.656 680.91 339.747 680.837L339.422 681.088C339.495 681.034 339.569 680.988 339.652 680.95L339.269 681.112C339.344 681.082 339.419 681.061 339.499 681.047L339.073 681.104C339.17 681.091 339.264 681.09 339.361 681.099L338.935 681.042C339.03 681.055 339.12 681.078 339.21 681.114L338.827 680.952C338.898 680.984 338.962 681.022 339.025 681.069L338.7 680.818C338.747 680.858 338.788 680.899 338.827 680.947L338.576 680.622C338.612 680.673 338.641 680.724 338.665 680.782L338.504 680.399L338.519 680.443C338.656 680.841 338.885 681.185 339.256 681.402C339.6 681.603 340.107 681.689 340.492 681.564C340.88 681.438 341.255 681.198 341.451 680.827C341.645 680.459 341.754 679.997 341.613 679.59Z" fill="#FF008C"/>
<path d="M203.486 746.657C201.968 745.809 201.291 743.723 202.021 742.145C202.752 740.567 204.78 739.733 206.409 740.341C204.522 737.008 202.405 731.971 204.732 728.33C206.563 725.467 210.766 724.448 213.704 726.156C213.138 721.846 214.217 717.099 217.457 714.202C220.696 711.304 226.303 711.013 229.186 714.267C228.173 710.832 229.526 706.995 231.997 704.403C234.468 701.812 237.9 700.323 241.382 699.489C242.26 699.279 243.217 699.112 244.04 699.484C244.894 699.87 245.407 700.747 245.806 701.596C246.929 703.987 247.599 706.59 247.769 709.226C249.455 707.725 251.371 706.397 253.56 705.847C255.749 705.296 258.252 705.63 259.939 707.131C261.752 708.744 262.317 711.459 261.765 713.822C261.212 716.185 259.693 718.224 257.909 719.871C262.021 719.392 266.904 719.21 269.489 722.443C271.823 725.362 270.601 730.366 267.185 731.881C274.047 731.123 281.019 736.466 282.071 743.289C282.092 740.29 285.806 738.222 288.612 739.282C291.418 740.343 292.919 743.673 292.515 746.646C292.112 749.618 290.158 752.19 287.811 754.058" fill="white"/>
<path d="M204.299 745.272C202.271 743.994 203.794 741.2 205.985 741.887C207.357 742.318 208.458 740.712 207.797 739.531C206.285 736.829 204.428 733.075 205.696 729.945C206.804 727.211 210.378 726.171 212.897 727.541C213.856 728.063 215.464 727.433 215.311 726.156C214.848 722.297 215.562 717.843 218.721 715.227C221.346 713.052 225.64 712.814 228.054 715.401C229.167 716.593 231.142 715.349 230.735 713.84C229.379 708.805 233.224 704.518 237.481 702.499C238.56 701.987 239.697 701.604 240.846 701.285C241.856 701.006 243.184 700.442 243.914 701.466C245.411 703.564 245.979 706.718 246.167 709.226C246.273 710.642 247.829 711.303 248.906 710.36C251.455 708.127 256.486 705.282 259.313 708.781C261.978 712.078 259.3 716.356 256.777 718.736C255.838 719.623 256.499 721.635 257.912 721.475C261.094 721.113 265.603 720.543 268.021 723.193C270.083 725.453 269.009 729.235 266.378 730.496C264.977 731.168 265.62 733.635 267.188 733.485C273.501 732.883 279.468 737.464 280.527 743.715C280.842 745.574 283.593 745.009 283.678 743.289C283.751 741.802 285.226 740.792 286.608 740.62C288.234 740.417 289.588 741.545 290.307 742.909C292.297 746.682 289.556 750.578 286.679 752.923C285.078 754.228 287.359 756.486 288.947 755.192C293.453 751.52 296.294 744.897 292.097 739.868C290.407 737.842 287.703 736.926 285.15 737.665C282.558 738.414 280.604 740.557 280.469 743.289L283.62 742.863C282.344 735.33 274.791 729.551 267.188 730.277L267.997 733.267C272.008 731.344 273.566 725.731 271.141 722C268.31 717.645 262.471 717.749 257.911 718.267L259.046 721.005C262.909 717.36 265.595 711.111 261.582 706.512C259.845 704.523 257.048 703.768 254.49 704.067C251.448 704.423 248.891 706.117 246.637 708.092L249.375 709.226C249.13 705.956 248.399 701.831 246.23 699.232C243.896 696.436 239.758 698.074 236.964 699.242C230.91 701.772 225.774 707.762 227.641 714.693L230.322 713.132C227.003 709.575 221.138 709.53 217.301 712.293C212.986 715.4 211.493 721.077 212.102 726.156L214.516 724.771C210.697 722.694 205.526 723.879 203.253 727.683C200.709 731.94 202.836 737.236 205.026 741.15L206.838 738.794C204.414 738.033 201.609 739.175 200.558 741.527C199.49 743.916 200.521 746.682 202.679 748.043C204.43 749.147 206.043 746.372 204.299 745.272Z" fill="#FF008C"/>
<path d="M235.463 744.822C233.76 742.403 236.01 738.81 238.309 737.644C241.198 736.18 242.984 739.376 243.907 741.622C244.531 743.142 247.188 743.171 247.058 741.196C246.919 739.088 249.198 738.383 250.892 738.096C252.839 737.765 255.115 737.721 256.832 738.839C259.654 740.676 259.82 744.7 258.95 747.612C258.358 749.595 261.454 750.442 262.044 748.465C263.448 743.765 262.321 737.677 257.411 735.532C253.053 733.629 243.425 734.751 243.849 741.196L247 740.769C246.188 738.791 245.232 736.775 243.518 735.414C241.624 733.911 239.21 733.688 237.029 734.708C233.084 736.553 229.896 742.469 232.692 746.441C233.872 748.117 236.655 746.515 235.463 744.822Z" fill="#FF008C"/>
<path d="M288.713 671.874C288.831 673.446 289.846 689.077 290.733 689.035C282.477 689.426 274.218 689.718 265.959 690.01C265.782 690.016 265.595 690.02 265.439 689.936C265.129 689.769 265.083 689.352 265.074 689.001C264.865 680.409 262.692 671.893 266.483 663.645C268.403 659.469 272.182 655.666 276.778 655.605C280.495 655.556 283.91 658.033 285.84 661.209C287.771 664.385 288.435 668.168 288.713 671.874Z" fill="white"/>
<path d="M287.104 671.874C287.347 675.155 287.573 678.436 287.887 681.711C288.071 683.636 288.266 685.566 288.579 687.474C288.747 688.496 288.979 690.397 290.301 690.581L290.728 687.43C284.619 687.719 278.508 687.955 272.396 688.176C270.909 688.23 269.423 688.283 267.936 688.335C267.606 688.347 267.275 688.359 266.945 688.37C266.656 688.381 265.371 688.166 266.314 688.703L266.674 689.001C266.666 688.699 266.656 688.398 266.645 688.097C266.627 687.645 266.604 687.193 266.578 686.742C266.424 684.041 266.14 681.35 265.982 678.65C265.665 673.271 265.88 667.59 268.715 662.834C270.94 659.1 275.09 655.959 279.578 657.74C285.164 659.957 286.68 666.519 287.104 671.874C287.266 673.919 290.475 673.936 290.312 671.874C289.838 665.889 288.302 659.637 283.092 656.02C278.286 652.683 272.347 653.866 268.422 657.947C264.063 662.479 262.655 668.975 262.656 675.081C262.657 678.376 263.009 681.655 263.25 684.937C263.428 687.357 262.67 691.679 266.201 691.605C274.376 691.435 282.56 691.024 290.727 690.639C292.425 690.559 293.034 687.75 291.154 687.488C291.392 687.521 291.914 688.032 291.941 688.049C292.051 688.117 292.065 688.463 291.988 688.125C291.945 687.933 291.887 687.744 291.844 687.552C291.707 686.933 291.616 686.302 291.531 685.675C291.299 683.97 291.131 682.155 290.974 680.404C290.719 677.563 290.523 674.719 290.312 671.874C290.16 669.828 286.951 669.811 287.104 671.874Z" fill="#FF008C"/>
<path d="M274.407 656.577C274.72 667.276 275.169 677.97 275.753 688.658C275.866 690.712 279.075 690.725 278.962 688.658C278.377 677.97 277.929 667.276 277.615 656.577C277.555 654.517 274.347 654.508 274.407 656.577Z" fill="#FF008C"/>
<path d="M264.846 678.339C272.629 678.361 280.388 677.742 288.077 676.538C288.939 676.403 289.4 675.334 289.197 674.565C288.956 673.649 288.076 673.311 287.224 673.445C279.822 674.604 272.338 675.151 264.846 675.131C262.782 675.125 262.779 678.334 264.846 678.339Z" fill="#FF008C"/>
<path d="M388.045 654.857C388.3 656.412 390.677 671.894 391.556 671.775C383.367 672.886 375.164 673.898 366.962 674.911C366.786 674.932 366.601 674.953 366.438 674.883C366.115 674.743 366.033 674.332 365.993 673.983C365.034 665.443 362.126 657.149 365.182 648.602C366.729 644.273 370.162 640.155 374.735 639.693C378.433 639.319 382.051 641.488 384.252 644.483C386.452 647.479 387.444 651.189 388.045 654.857Z" fill="white"/>
<path d="M386.494 655.284C387.023 658.53 387.535 661.779 388.134 665.014C388.47 666.831 388.805 668.656 389.275 670.443C389.601 671.684 390 673.3 391.552 673.379L391.126 670.228C385.125 671.041 379.118 671.8 373.109 672.546C371.715 672.719 370.321 672.891 368.927 673.064C368.516 673.114 368.106 673.165 367.696 673.216L367.45 673.246C366.728 673.213 366.771 673.406 367.576 673.825C367.685 673.761 367.32 671.852 367.298 671.697C366.906 668.921 366.366 666.168 365.955 663.395C365.161 658.037 364.936 652.17 367.519 647.226C369.554 643.33 373.452 640.118 378.046 641.69C383.703 643.625 385.605 649.993 386.494 655.284C386.835 657.315 389.928 656.454 389.588 654.431C388.609 648.604 386.409 642.379 380.859 639.441C375.668 636.692 369.998 638.447 366.483 642.941C362.596 647.914 361.813 654.495 362.402 660.606C362.721 663.917 363.356 667.185 363.887 670.466C364.119 671.9 364.102 673.558 364.558 674.938C365.087 676.538 366.531 676.568 367.942 676.394C375.959 675.404 383.974 674.406 391.978 673.322C393.846 673.069 393.263 670.258 391.552 670.171C391.983 670.193 392.653 670.727 392.717 670.745C392.582 670.706 392.797 671.035 392.734 670.797C392.682 670.596 392.598 670.399 392.538 670.199C392.348 669.571 392.201 668.93 392.056 668.29C391.651 666.494 391.317 664.682 390.993 662.87C390.49 660.062 390.046 657.246 389.588 654.431C389.257 652.398 386.165 653.26 386.494 655.284Z" fill="#FF008C"/>
<path d="M364.695 663.388C372.446 662.73 380.135 661.472 387.686 659.601C389.689 659.105 388.84 656.01 386.833 656.508C379.558 658.31 372.163 659.545 364.695 660.18C362.653 660.353 362.634 663.563 364.695 663.388Z" fill="#FF008C"/>
<path d="M152.642 655.374C151.869 652.268 149.378 649.897 146.359 648.946C143.289 647.978 140.022 648.76 137.521 650.716C131.603 655.349 132.222 663.652 136.587 669.096L138.531 666.577C135.092 664.022 129.758 664.632 127.024 667.948C124.246 671.319 124.676 676.611 127.846 679.574L129.79 677.054C124.934 674.757 118.476 675.915 115.525 680.689C112.831 685.048 114.184 691.301 118.581 693.976C120.35 695.053 121.964 692.279 120.201 691.206C117.273 689.424 116.513 685.16 118.296 682.308C120.29 679.119 124.903 678.279 128.171 679.825C129.724 680.559 131.532 678.629 130.115 677.305C128.132 675.453 127.709 672.113 129.503 669.965C131.34 667.766 134.721 667.72 136.912 669.347C137.552 669.823 138.539 669.507 138.981 668.934C139.503 668.258 139.364 667.461 138.856 666.828C135.725 662.923 135.205 656.936 139.227 653.447C142.599 650.521 148.395 651.594 149.548 656.227C150.047 658.23 153.142 657.381 152.642 655.374Z" fill="#FF008C"/>
<path d="M147.633 677.389C145.41 677.142 143.046 678.924 142.68 681.132C142.484 682.307 142.691 683.536 143.369 684.533C144.039 685.517 145.01 686.297 146.189 686.565C147.005 686.752 147.964 686.316 148.162 685.445C148.348 684.629 147.917 683.671 147.042 683.472C146.947 683.45 146.853 683.426 146.761 683.396C146.432 683.288 146.982 683.511 146.836 683.436C146.675 683.353 146.524 683.266 146.372 683.167C146.137 683.013 146.657 683.417 146.437 683.212C146.376 683.155 146.315 683.1 146.257 683.04C146.198 682.98 146.145 682.917 146.089 682.855C145.888 682.633 146.286 683.153 146.14 682.914C146.044 682.758 145.956 682.606 145.873 682.444C145.821 682.33 145.847 682.395 145.953 682.636C145.933 682.585 145.914 682.533 145.896 682.48C145.87 682.401 145.847 682.322 145.828 682.241C145.808 682.161 145.797 682.079 145.778 681.998C145.885 682.454 145.809 682.245 145.802 682.096C145.798 682.014 145.798 681.931 145.802 681.848C145.804 681.793 145.808 681.738 145.814 681.683C145.773 681.957 145.764 682.03 145.787 681.903C145.824 681.746 145.846 681.523 145.937 681.386L145.841 681.618C145.864 681.568 145.889 681.519 145.915 681.47C145.954 681.397 145.996 681.326 146.041 681.257C146.134 681.114 146.264 681.059 145.985 681.313C146.045 681.259 146.093 681.185 146.149 681.126C146.206 681.065 146.266 681.007 146.327 680.951C146.368 680.914 146.41 680.877 146.453 680.842C146.247 680.997 146.194 681.038 146.293 680.966C146.444 680.865 146.592 680.767 146.755 680.686C146.883 680.621 147.112 680.598 146.676 680.714C146.755 680.693 146.833 680.658 146.912 680.636C146.992 680.613 147.072 680.595 147.153 680.576C147.451 680.507 146.766 680.599 147.053 680.587C147.249 680.578 147.437 680.576 147.633 680.598C148.015 680.64 148.507 680.388 148.767 680.128C149.045 679.85 149.255 679.393 149.237 678.993C149.218 678.579 149.082 678.148 148.767 677.859C148.434 677.554 148.08 677.439 147.633 677.389Z" fill="#FF008C"/>
<path d="M616.125 624.13C587.688 636.561 558.848 648.071 529.666 658.636C521.446 661.612 513.198 664.514 504.925 667.339C500.67 668.793 496.408 670.226 492.14 671.639C489.211 672.609 484.167 672.977 482.047 675.326C494.404 685.693 504.071 700.198 511.102 714.573C518.447 729.589 521.284 746.71 512.163 761.661C570.632 732.416 633.39 712.863 693.723 687.687C711.162 680.41 728.56 672.571 743.758 661.342C776.965 636.807 803.268 599.329 799.673 556.481" fill="white"/>
<path d="M615.313 622.745C579.37 638.449 542.785 652.679 505.678 665.389C500.821 667.052 495.969 668.906 491.027 670.299C487.601 671.266 483.541 671.502 480.91 674.192C480.342 674.773 480.24 675.895 480.91 676.461C490.599 684.644 498.323 694.881 504.637 705.827C510.805 716.522 516.235 728.166 516.286 740.758C516.314 747.878 514.441 754.747 510.776 760.851C509.907 762.299 511.593 763.734 512.97 763.046C536.982 751.051 561.743 740.654 586.724 730.865C611.682 721.085 636.862 711.882 661.852 702.185C674.233 697.381 686.573 692.463 698.799 687.278C710.691 682.234 722.476 676.827 733.529 670.11C752.43 658.624 769.296 643.016 781.777 624.726C793.85 607.034 801.527 586.233 801.603 564.666C801.613 561.934 801.496 559.205 801.275 556.482C801.109 554.438 797.899 554.42 798.066 556.482C799.815 578.007 793.823 599.108 782.659 617.446C771.367 635.995 755.313 651.933 737.268 663.935C726.665 670.987 715.202 676.633 703.565 681.753C691.557 687.036 679.361 691.905 667.149 696.693C642.471 706.369 617.574 715.476 592.857 725.05C568.327 734.552 543.951 744.52 520.234 755.921C517.262 757.35 514.301 758.802 511.351 760.276L513.546 762.471C520.37 751.105 520.809 737.71 517.041 725.222C515.148 718.95 512.276 713.036 509.143 707.301C505.935 701.43 502.351 695.756 498.317 690.417C493.843 684.497 488.854 678.985 483.179 674.192V676.461C485.388 674.201 489.356 674.152 492.23 673.292C496.642 671.971 500.99 670.375 505.349 668.887C514.601 665.726 523.821 662.472 533.008 659.124C551.086 652.534 569.032 645.582 586.832 638.273C596.913 634.133 606.946 629.879 616.932 625.516C618.82 624.691 617.189 621.926 615.313 622.745Z" fill="#FF008C"/>
<path d="M439.144 692.94C438.716 691.878 438.288 690.765 438.388 689.624C438.531 687.997 439.697 686.679 440.61 685.323C442.377 682.697 443.283 680.018 443.502 677.377C437.381 674.174 432.178 669.184 425.66 666.866C417.365 663.916 407.617 666.284 401.172 672.156C396.271 676.621 397.225 678.659 399.411 684.451C401.59 690.224 403.805 695.984 406.063 701.726C414.542 723.292 422.379 746.77 433.776 766.986C436.472 771.768 438.516 770.687 443.827 769.54C448.866 768.452 453.844 767.104 458.773 765.596C461.818 756.966 458.432 744.63 456.271 736.404C452.31 721.328 444.974 707.396 439.144 692.94Z" fill="white"/>
<path d="M440.693 692.514C440.18 691.225 439.689 690.008 440.321 688.673C440.887 687.48 441.819 686.47 442.501 685.343C443.98 682.9 444.836 680.213 445.108 677.377C445.159 676.847 444.771 676.235 444.313 675.992C436.899 672.058 430.628 665.625 422.029 664.306C414.153 663.099 405.926 665.669 400.039 671.021C397.72 673.129 395.706 675.705 396.085 679.006C396.263 680.547 396.788 682.002 397.327 683.448C398.157 685.675 399.006 687.895 399.854 690.115C403.283 699.092 406.813 708.029 410.219 717.015C413.554 725.81 416.9 734.603 420.563 743.267C424.13 751.705 427.888 760.235 432.58 768.12C434.099 770.672 436.207 772.388 439.297 772.074C440.912 771.91 442.491 771.475 444.072 771.127C446.493 770.595 448.905 770.026 451.302 769.396C453.717 768.761 456.118 768.077 458.508 767.354C459.732 766.984 460.167 766.573 460.546 765.343C460.834 764.41 461.046 763.454 461.2 762.49C461.85 758.408 461.584 754.292 460.994 750.22C458.386 732.221 450.629 715.708 443.488 699.181C442.532 696.968 441.596 694.748 440.693 692.514C439.928 690.624 436.824 691.45 437.599 693.367C441.596 703.247 446.258 712.848 450.1 722.792C453.507 731.612 456.306 740.906 457.778 750.264C458.55 755.171 458.856 760.401 457.228 765.17L458.349 764.049C452.456 765.845 446.492 767.393 440.461 768.652C439.058 768.944 437.661 769.21 436.555 768.137C435.819 767.422 435.332 766.481 434.838 765.596C434.078 764.235 433.336 762.865 432.61 761.486C426.829 750.496 422.098 738.993 417.615 727.425C413.073 715.702 408.593 703.953 404.081 692.219C402.938 689.246 401.806 686.27 400.682 683.29C400.035 681.574 398.975 679.467 399.258 677.573C399.537 675.708 401.264 674.206 402.59 673.037C404.561 671.299 406.882 669.89 409.324 668.923C414.792 666.758 420.935 666.566 426.395 668.858C432.284 671.331 437.08 675.783 442.694 678.762L441.9 677.377C441.61 680.402 440.292 682.997 438.57 685.45C437.849 686.477 437.141 687.576 436.894 688.827C436.58 690.414 437.016 691.902 437.599 693.367C438.354 695.262 441.458 694.435 440.693 692.514Z" fill="#FF008C"/>
<path d="M400.719 710.066C401.832 713.487 402.975 716.898 404.133 720.299C408.086 731.902 412.478 743.381 417.855 754.406C421.265 761.397 429.493 772.893 439.14 769.691C442.384 768.615 444.581 765.43 445.356 762.101C446.132 758.773 445.709 755.291 445.151 751.919C441.743 731.32 433.425 711.764 422.799 693.792C419.744 688.625 416.402 683.468 411.67 679.775C407.342 676.397 400.338 674.765 396.836 678.994C393.003 683.624 394.987 691.325 396.489 696.443C397.827 701.001 399.247 705.542 400.719 710.066Z" fill="#FF008C"/>
<path d="M399.169 710.492C401.984 719.134 404.907 727.748 408.21 736.217C409.823 740.352 411.524 744.453 413.335 748.505C414.835 751.862 416.323 755.27 418.213 758.431C421.271 763.543 425.465 768.702 431.152 770.947C433.976 772.062 437.235 772.173 440.075 771.045C443.368 769.737 445.622 766.731 446.658 763.414C447.953 759.264 447.269 754.798 446.546 750.61C445.838 746.501 444.933 742.427 443.854 738.399C441.676 730.273 438.782 722.354 435.388 714.659C431.991 706.958 428.07 699.486 423.753 692.261C420.064 686.088 415.546 679.11 408.667 676.181C405.78 674.953 402.339 674.317 399.304 675.41C396.226 676.52 394.203 679.235 393.444 682.361C392.626 685.731 393.077 689.295 393.821 692.635C394.671 696.453 395.915 700.197 397.077 703.928C397.761 706.121 398.46 708.308 399.169 710.492C399.805 712.448 402.904 711.611 402.263 709.639C400.946 705.584 399.667 701.517 398.451 697.43C397.577 694.49 396.656 691.506 396.341 688.443C396.047 685.598 396.129 682.303 398.075 680.004C399.866 677.889 402.812 677.775 405.322 678.411C411.87 680.073 416.28 686.315 419.669 691.728C423.745 698.238 427.391 705.054 430.665 711.999C433.946 718.956 436.79 726.119 439.081 733.463C440.233 737.157 441.245 740.896 442.098 744.671C442.962 748.492 443.829 752.412 444.105 756.327C444.347 759.755 443.968 763.501 441.567 766.166C439.677 768.265 436.771 769.036 434.032 768.468C428.72 767.365 424.705 762.583 421.886 758.257C420.252 755.749 418.959 753.07 417.694 750.362C415.932 746.592 414.278 742.773 412.716 738.916C409.621 731.278 406.884 723.506 404.264 715.694C403.588 713.678 402.921 711.66 402.263 709.639C401.626 707.685 398.527 708.521 399.169 710.492Z" fill="#FF008C"/>
<path d="M799.668 556.482L681.369 600.082L650.819 552.583C630.069 555.413 596.835 558.615 562.656 561.67C567.873 572.767 583.676 585.845 589.269 590.721C610.612 609.327 645.197 622.876 673.816 622.427C707.622 621.897 741.864 621.165 775.97 621.523C777.898 621.543 779.876 621.58 781.817 621.774C794.394 602.548 801.671 580.349 799.668 556.482Z" fill="#FF008C"/>
<path d="M799.242 554.935C795.309 556.384 791.377 557.834 787.444 559.283C778.004 562.762 768.565 566.241 759.125 569.72C747.789 573.898 736.454 578.076 725.119 582.254C715.251 585.891 705.382 589.528 695.514 593.165L685.76 596.76C684.273 597.308 682.541 597.713 681.14 598.463C681.08 598.495 681.007 598.512 680.942 598.535L682.754 599.273C679.325 593.94 675.895 588.608 672.465 583.276C666.971 574.733 661.476 566.19 655.982 557.647C654.723 555.689 653.463 553.731 652.204 551.773C651.773 551.104 651.136 550.935 650.392 551.036C628.609 554.001 606.684 556.009 584.799 558.048C577.419 558.736 570.038 559.406 562.656 560.066C561.396 560.178 560.722 561.329 561.271 562.48C564.087 568.383 568.623 573.468 573.151 578.113C577.33 582.401 581.802 586.385 586.331 590.295C591.253 594.546 596.329 598.528 601.816 602.032C608.121 606.057 614.77 609.541 621.632 612.515C635.457 618.508 650.233 622.655 665.296 623.772C673.611 624.388 682.014 623.9 690.341 623.762C699.752 623.607 709.163 623.452 718.575 623.325C737.374 623.073 756.176 622.931 774.977 623.117C777.26 623.139 779.542 623.166 781.817 623.379C782.384 623.432 782.912 623.029 783.202 622.584C793.073 607.44 799.766 590.225 801.276 572.132C801.711 566.923 801.697 561.69 801.272 556.482C801.106 554.438 797.896 554.42 798.064 556.482C799.513 574.249 795.741 591.952 787.894 607.911C785.681 612.413 783.171 616.762 780.432 620.965L781.817 620.17C777.246 619.743 772.608 619.881 768.021 619.854C763.382 619.828 758.742 619.819 754.103 619.826C744.825 619.839 735.548 619.913 726.271 620.02C717.014 620.128 707.757 620.27 698.501 620.42C689.548 620.565 680.575 620.908 671.622 620.83C657.007 620.703 642.463 617.235 628.862 612.028C615.346 606.854 602.268 599.705 591.224 590.294C587.159 586.831 583.126 583.319 579.26 579.635C574.485 575.085 569.765 570.25 566.183 564.68C565.392 563.45 564.671 562.18 564.041 560.86L562.656 563.274C586.974 561.1 611.299 558.896 635.554 556.089C640.79 555.484 646.022 554.84 651.245 554.129L649.434 553.392C652.863 558.725 656.293 564.057 659.722 569.389C665.217 577.932 670.711 586.475 676.206 595.018C677.465 596.976 678.725 598.934 679.984 600.892C680.343 601.449 681.118 601.879 681.796 601.629C685.728 600.18 689.66 598.73 693.593 597.281C703.033 593.802 712.473 590.323 721.912 586.843C733.248 582.666 744.583 578.488 755.918 574.31C765.787 570.673 775.655 567.036 785.524 563.399C790.313 561.634 795.132 559.932 799.897 558.101C799.963 558.076 800.029 558.053 800.095 558.029C802.016 557.321 801.185 554.219 799.242 554.935Z" fill="#FF008C"/>
<path d="M279.667 410.746C279.167 415.898 281 421.198 284.621 424.909C288.153 428.528 293.24 430.462 298.276 430.225L296.729 429.047C298.019 434.32 299.603 439.69 301.951 444.6C303.996 448.877 307.863 452.907 312.99 452.51L311.386 450.906C311.405 455.839 311.718 460.881 313.805 465.428C315.571 469.277 318.664 472.446 322.691 473.866C324.642 474.554 325.481 471.456 323.544 470.772C315.558 467.955 314.623 458.08 314.594 450.906C314.591 450.089 313.861 449.235 312.99 449.302C308.451 449.653 305.755 445.5 304.2 441.823C302.346 437.435 300.954 432.817 299.823 428.194C299.662 427.539 298.96 426.984 298.276 427.016C294.047 427.216 289.865 425.689 286.89 422.64C283.816 419.491 282.455 415.086 282.875 410.746C283.074 408.692 279.864 408.706 279.667 410.746Z" fill="#FF008C"/>
<path d="M310.608 390.273C307.787 398.412 312.663 407.449 321.053 409.478C321.998 409.707 322.978 409.845 323.95 409.888C324.375 409.907 324.822 409.84 325.243 409.892C325.864 409.97 325.74 409.925 325.768 410.592C325.859 412.75 326.067 414.875 326.622 416.97C327.7 421.04 329.86 424.91 333.016 427.729C336.526 430.865 341.044 432.738 345.772 432.718L344.225 431.54C346.047 438.798 349.008 447.774 357.46 449.375C359.478 449.757 360.343 446.665 358.313 446.281C351.048 444.905 348.865 436.844 347.319 430.687C347.149 430.008 346.464 429.506 345.772 429.509C337.788 429.544 331.558 423.362 329.662 415.917C329.179 414.017 329.074 412.163 328.97 410.218C328.865 408.251 327.785 406.892 325.77 406.708C323.902 406.538 322.238 406.607 320.435 405.937C318.769 405.319 317.257 404.292 316.038 403.005C313.043 399.844 312.299 395.175 313.702 391.126C314.379 389.171 311.281 388.331 310.608 390.273Z" fill="#FF008C"/>
<path d="M572.854 572.292C608.434 597.864 654.106 608.857 699.231 605.185C704.679 604.742 710.113 604.111 715.52 603.307C748.353 598.428 780.569 586.874 807.16 567.005C833.751 547.136 854.403 518.586 861.851 486.238C864.935 472.847 865.76 459.039 865.957 445.299C866.56 403.238 855.356 359.677 832.371 324.214C817.226 300.847 796.824 280.086 771.264 269.037C721.376 247.471 659.154 265.209 612.883 236.698C609.086 234.358 605.4 231.705 601.157 230.328C596.914 228.951 591.862 229.081 588.449 231.954C585.036 234.826 584.379 240.894 587.92 243.606C580.767 242.602 573.52 242.27 566.306 242.618C563.8 242.739 561.067 243.043 559.3 244.824C557.064 247.077 557.323 250.952 559.019 253.636C560.714 256.32 563.496 258.092 566.187 259.775C559.222 254.482 547.571 257.681 544.286 265.789C541 273.897 547.137 284.304 555.823 285.353C545.959 295.606 539.543 307.395 532.875 319.74C501.34 378.12 494.271 456.599 525.061 516.854C536.755 539.738 553.277 558.222 572.854 572.292Z" fill="white"/>
<path d="M572.047 573.678C594.048 589.426 619.735 599.628 646.329 604.33C674.05 609.232 702.465 608.108 729.968 602.349C756.936 596.703 783.194 586.266 805.626 570.11C826.256 555.253 843.579 535.476 854.426 512.397C866.51 486.683 868.784 457.697 867.245 429.634C865.741 402.198 859.392 374.984 848.135 349.898C837.375 325.921 821.878 303.31 801.695 286.29C791.938 278.063 781.073 271.242 769.225 266.459C757.406 261.689 744.875 259.021 732.277 257.331C706.585 253.885 680.45 254.583 654.893 250.027C642.595 247.835 630.44 244.357 619.343 238.529C613.494 235.457 608.185 231.02 601.887 228.884C596.729 227.134 589.9 227.413 586.222 231.968C583.281 235.612 582.983 241.575 586.788 244.741L588.349 242.059C583.193 241.352 578.012 240.925 572.807 240.884C568.685 240.851 563.199 240.319 559.528 242.623C556.228 244.695 555.402 248.853 556.66 252.381C558.119 256.474 561.862 258.954 565.38 261.16C567.164 262.278 568.632 259.582 566.999 258.39C559.286 252.758 546.879 256.007 542.993 264.768C538.965 273.849 545.617 285.521 555.399 286.899L554.691 284.218C546.965 292.312 540.974 301.744 535.555 311.484C530.504 320.564 525.777 329.775 521.782 339.373C513.762 358.639 508.392 378.971 505.665 399.654C502.912 420.523 502.949 441.761 506.163 462.576C509.323 483.042 515.685 503.101 525.605 521.313C535.661 539.774 549.486 556.097 565.989 569.111C567.975 570.677 569.996 572.198 572.047 573.678C573.724 574.887 575.327 572.106 573.666 570.908C556.958 558.853 542.676 543.589 531.982 525.965C521.363 508.464 514.343 488.932 510.492 468.862C506.641 448.793 505.976 428.165 507.936 407.849C509.907 387.428 514.605 367.244 521.793 348.031C525.321 338.599 529.486 329.415 534.262 320.55C539.444 310.93 544.695 301.222 551.547 292.663C553.26 290.525 555.068 288.469 556.959 286.487C557.704 285.707 557.511 283.983 556.251 283.806C548.41 282.701 542.521 273.459 545.951 265.97C549.202 258.873 559.226 256.667 565.38 261.16L566.999 258.39C564.256 256.669 561.014 254.754 559.779 251.583C558.403 248.052 560.103 245.143 563.75 244.473C567.364 243.809 571.319 244.032 574.973 244.131C579.162 244.243 583.345 244.583 587.496 245.153C588.871 245.342 590.451 243.632 589.057 242.472C587.12 240.861 586.754 238.319 587.585 236.002C588.562 233.281 591.056 231.739 593.821 231.249C600.414 230.082 606.272 234.466 611.534 237.747C621.853 244.181 633.333 248.501 645.138 251.287C669.359 257.005 694.454 256.847 719.117 259.08C731.463 260.198 743.806 261.906 755.76 265.272C767.726 268.641 779.001 273.831 789.276 280.838C810.254 295.143 826.655 315.8 838.674 337.977C851.493 361.63 859.474 387.901 862.713 414.581C864.359 428.144 864.672 441.787 864.072 455.428C863.449 469.599 861.609 483.701 857.098 497.195C849.247 520.676 834.426 541.51 815.93 557.826C795.95 575.451 771.569 587.607 746.088 595.023C719.962 602.626 692.278 605.821 665.134 603.56C638.847 601.371 612.856 593.988 589.775 581.126C584.215 578.028 578.841 574.612 573.666 570.908C571.984 569.704 570.381 572.485 572.047 573.678Z" fill="#FF008C"/>
<path d="M661.104 486.168C623.807 486.977 586.425 483.352 549.959 475.492C514.469 467.844 483.058 453.534 449.502 441.237C433.439 435.35 417.692 428.579 402.488 420.728C397.965 418.392 392.843 415.892 388.003 417.47C383.164 419.048 381.146 427.139 385.898 428.963C376.204 434.145 367.652 441.45 361.017 450.214C359.472 452.254 357.995 455.047 359.358 457.213C361.486 460.592 366.665 457.87 369.445 455.003C366.899 458.496 365.067 462.507 364.095 466.719C363.712 468.377 363.663 470.517 365.152 471.341C366.284 471.967 367.693 471.445 368.828 470.826C371.532 469.352 373.941 467.339 375.872 464.94C373.751 468.263 372.006 471.827 370.681 475.54C370.174 476.96 369.735 478.564 370.363 479.934C371.327 482.037 374.397 482.363 376.384 481.179C378.371 479.994 379.523 477.83 380.578 475.771C379.227 478.029 377.839 480.407 377.714 483.035C377.59 485.663 379.202 488.574 381.806 488.949C385.165 489.431 387.489 485.892 389.967 483.574C397.47 476.553 409.543 479.959 419.039 483.887C459.384 500.573 498.896 519.448 540.311 533.265C581.726 547.083 625.61 555.786 669.038 551.294" fill="white"/>
<path d="M661.106 484.564C639.849 485.012 618.571 484.046 597.443 481.664C576.502 479.302 555.515 475.773 535.171 470.22C515.772 464.925 496.965 457.757 478.237 450.492C459.061 443.053 439.567 436.315 420.822 427.822C416.076 425.671 411.371 423.427 406.716 421.085C402.398 418.912 398.028 416.191 393.156 415.525C389.391 415.01 385.647 415.937 383.38 419.135C381.716 421.483 380.952 424.869 382.213 427.564C382.802 428.822 383.811 429.805 385.09 430.349V427.579C375.824 432.573 367.547 439.412 360.99 447.655C358.527 450.753 354.689 456.635 359.551 459.639C363.242 461.919 368.003 458.717 370.581 456.137L368.062 454.193C366.141 456.876 364.617 459.805 363.527 462.921C362.687 465.325 361.525 468.606 362.796 471.069C365.971 477.222 374.582 469.021 377.008 466.074L374.488 464.13C372.608 467.113 371.021 470.251 369.729 473.532C368.688 476.176 367.493 479.593 369.832 481.933C371.502 483.605 374.231 483.823 376.344 482.969C379.11 481.85 380.667 479.102 381.965 476.581C382.907 474.753 380.259 473.177 379.195 474.962C376.966 478.699 374.733 483.286 377.244 487.47C379.564 491.337 383.983 491.217 387.187 488.582C388.783 487.27 390.03 485.593 391.606 484.261C393.155 482.952 395.014 482.088 396.974 481.605C401.168 480.571 405.64 481.264 409.749 482.356C414.311 483.569 418.646 485.438 422.992 487.254C428.152 489.41 433.298 491.599 438.437 493.803C448.701 498.205 458.937 502.669 469.198 507.078C489.645 515.862 510.201 524.441 531.199 531.833C552.039 539.17 573.34 545.311 595.091 549.276C616.746 553.223 638.863 555.043 660.855 553.591C663.587 553.411 666.315 553.177 669.039 552.899C671.073 552.692 671.095 549.481 669.039 549.691C647.693 551.869 626.118 550.929 604.928 547.689C583.584 544.424 562.62 538.951 542.133 532.182C521.546 525.38 501.407 517.299 481.449 508.846C461.577 500.429 441.857 491.653 421.931 483.362C414.167 480.132 405.522 476.659 396.956 478.327C392.857 479.126 389.812 481.368 386.986 484.326C385.809 485.557 384.293 487.389 382.424 487.385C380.365 487.38 379.294 485.034 379.317 483.244C379.349 480.816 380.763 478.597 381.965 476.581L379.195 474.962C378.303 476.695 377.342 478.784 375.576 479.794C374.431 480.449 372.249 480.588 371.74 479.043C371.415 478.058 371.911 476.885 372.229 475.967C372.675 474.68 373.197 473.415 373.762 472.176C374.778 469.954 375.956 467.816 377.259 465.75C378.211 464.24 375.913 462.38 374.739 463.806C373.299 465.555 371.666 467.12 369.777 468.38C368.906 468.961 367.843 469.743 366.802 469.942C365.605 470.171 365.444 469.319 365.478 468.334C365.552 466.188 366.507 463.844 367.346 461.895C368.274 459.741 369.468 457.717 370.832 455.813C371.91 454.307 369.571 452.609 368.312 453.869C367.04 455.142 361.689 459.389 360.523 455.948C359.898 454.102 361.743 451.871 362.781 450.531C364.095 448.835 365.492 447.2 366.95 445.625C372.647 439.466 379.327 434.328 386.71 430.349C387.682 429.825 387.832 428.056 386.71 427.579C384.126 426.48 384.544 423.355 385.78 421.314C387.946 417.738 392.567 418.329 395.987 419.516C400.616 421.122 404.93 423.807 409.326 425.95C413.834 428.147 418.385 430.254 422.973 432.277C440.968 440.207 459.585 446.683 477.913 453.791C495.93 460.779 514.023 467.662 532.654 472.855C552.073 478.269 572.074 481.752 592.065 484.235C612.366 486.757 632.828 487.982 653.285 487.877C655.892 487.864 658.499 487.827 661.106 487.772C663.168 487.729 663.175 484.52 661.106 484.564Z" fill="#FF008C"/>
<path d="M550.868 285.175C561.644 289.787 573.931 289.606 584.549 284.618C586.416 283.741 584.789 280.974 582.93 281.848C573.465 286.293 562.109 286.523 552.487 282.405C551.685 282.061 550.776 282.172 550.292 282.98C549.89 283.652 550.073 284.834 550.868 285.175Z" fill="#FF008C"/>
<path d="M522.703 375.796C518.975 375.977 513.975 377.45 514.313 382.13C514.628 386.495 519.724 389.123 523.504 389.827C525.865 390.267 528.295 390.401 530.69 390.523C532.799 390.63 535.02 390.602 537.051 389.955C539.189 389.275 541.202 387.886 542.046 385.736C542.941 383.455 541.961 381.229 540.095 379.81C537.861 378.111 534.803 377.291 532.107 376.678C529.026 375.977 525.859 375.687 522.703 375.796C520.644 375.868 520.634 379.077 522.703 379.005C526.877 378.86 530.999 379.453 534.946 380.833C536.272 381.297 538.412 381.925 539.05 383.34C539.741 384.87 537.862 386.214 536.652 386.703C533.726 387.888 530.132 387.325 527.077 387.07C523.932 386.807 520.512 386.171 518.346 383.64C517.436 382.576 517.104 381.079 518.357 380.127C519.544 379.225 521.267 379.074 522.703 379.005C524.758 378.905 524.77 375.696 522.703 375.796Z" fill="#FF008C"/>
<path d="M526.971 383.051C525.889 389.109 515.648 386.421 518.328 380.635C519.071 379.032 521.276 378.709 522.835 378.754C523.731 378.779 524.655 378.904 525.419 379.372C526.625 380.11 527.22 381.659 526.971 383.051Z" fill="#FF008C"/>
<path d="M525.425 382.624C525.391 382.808 525.35 382.99 525.297 383.169C525.269 383.261 525.236 383.35 525.207 383.442C525.09 383.8 525.329 383.217 525.216 383.422C525.136 383.566 525.066 383.713 524.978 383.852C524.933 383.921 524.866 383.989 524.833 384.063C524.823 384.084 525.078 383.77 524.973 383.881C524.932 383.924 524.896 383.973 524.857 384.016C524.755 384.13 524.647 384.236 524.532 384.336C524.48 384.381 524.272 384.55 524.505 384.363C524.749 384.169 524.478 384.375 524.414 384.416C524.288 384.497 524.156 384.564 524.025 384.635C523.74 384.789 524.177 384.585 524.125 384.599C524.038 384.624 523.953 384.665 523.866 384.694C523.724 384.741 523.579 384.781 523.433 384.814C523.353 384.832 523.273 384.845 523.194 384.862C522.879 384.926 523.547 384.831 523.308 384.849C522.978 384.872 522.654 384.889 522.322 384.865C522.24 384.859 522.157 384.845 522.075 384.841C521.91 384.833 522.361 384.884 522.326 384.875C522.281 384.864 522.23 384.861 522.185 384.853C522.023 384.821 521.861 384.789 521.7 384.747C521.552 384.707 521.405 384.662 521.261 384.612C521.184 384.585 521.108 384.545 521.03 384.525C520.995 384.516 521.397 384.69 521.252 384.619C521.199 384.593 521.145 384.571 521.092 384.546C520.808 384.41 520.561 384.229 520.291 384.07C520.249 384.045 520.61 384.341 520.375 384.133C520.324 384.088 520.272 384.045 520.222 383.999C520.098 383.886 519.989 383.761 519.873 383.639C519.664 383.418 520.061 383.92 519.939 383.729C519.903 383.673 519.862 383.621 519.826 383.565C519.738 383.43 519.68 383.259 519.585 383.132C519.534 383.062 519.728 383.531 519.644 383.269C519.62 383.195 519.592 383.122 519.57 383.047C519.525 382.897 519.519 382.725 519.467 382.581C519.469 382.586 519.503 383.032 519.5 382.799C519.5 382.764 519.495 382.728 519.493 382.693C519.488 382.609 519.487 382.525 519.488 382.441C519.489 382.367 519.495 382.294 519.498 382.22C519.5 382.173 519.517 382.116 519.513 382.07C519.515 382.103 519.435 382.48 519.488 382.268C519.531 382.099 519.559 381.927 519.61 381.758C519.638 381.663 519.67 381.569 519.704 381.475C519.719 381.434 519.737 381.394 519.751 381.352C519.808 381.184 519.561 381.722 519.714 381.445C519.766 381.351 519.822 381.255 519.87 381.159C519.987 380.928 519.825 381.273 519.806 381.226C519.802 381.216 519.901 381.118 519.911 381.109C519.943 381.078 520.145 380.844 520.179 380.858C520.205 380.868 519.898 381.032 520.066 380.951C520.127 380.922 520.186 380.873 520.245 380.837C520.268 380.824 520.546 380.641 520.577 380.662C520.586 380.668 520.269 380.773 520.444 380.717C520.514 380.694 520.581 380.665 520.651 380.641C520.896 380.558 521.147 380.493 521.402 380.443C521.456 380.432 521.512 380.424 521.566 380.412C521.866 380.349 521.32 380.431 521.524 380.414C521.651 380.404 521.777 380.387 521.905 380.378C522.182 380.358 522.46 380.351 522.738 380.356C522.92 380.359 523.103 380.367 523.285 380.38C523.36 380.386 523.435 380.397 523.51 380.4C523.77 380.412 523.156 380.324 523.604 380.415C523.775 380.45 523.944 380.486 524.111 380.536C524.206 380.564 524.299 380.597 524.393 380.629C524.599 380.7 524.241 380.516 524.415 380.648C524.472 380.691 524.549 380.72 524.61 380.757C524.655 380.785 524.912 380.994 524.743 380.841C524.589 380.702 524.741 380.846 524.764 380.87C524.82 380.927 524.879 380.98 524.934 381.039C524.988 381.098 525.039 381.159 525.09 381.22C525.011 381.125 524.961 381.028 525.05 381.188C525.068 381.221 525.309 381.586 525.283 381.61C525.275 381.617 525.182 381.322 525.238 381.506C525.268 381.603 525.306 381.697 525.333 381.794C525.349 381.85 525.408 382.257 525.437 382.269C525.414 382.259 525.419 381.959 525.413 382.144C525.411 382.224 525.422 382.307 525.423 382.387C525.424 382.496 525.356 383.054 525.425 382.624C525.292 383.449 525.638 384.391 526.545 384.598C527.316 384.774 528.376 384.364 528.519 383.478C528.796 381.756 528.399 380.009 527.161 378.727C525.918 377.44 524.05 377.106 522.33 377.149C520.997 377.183 519.518 377.431 518.403 378.211C517.285 378.994 516.59 380.187 516.377 381.531C516.033 383.691 516.933 385.608 518.7 386.861C520.241 387.954 522.246 388.282 524.081 387.95C526.341 387.542 528.099 385.719 528.519 383.478C528.673 382.656 528.291 381.708 527.398 381.504C526.61 381.325 525.59 381.742 525.425 382.624Z" fill="#FF008C"/>
<path d="M572.437 382.747C568.71 382.928 563.71 384.401 564.047 389.081C564.362 393.446 569.458 396.074 573.239 396.778C575.6 397.218 578.029 397.352 580.424 397.474C582.534 397.581 584.754 397.553 586.786 396.906C588.923 396.226 590.936 394.837 591.78 392.687C592.676 390.406 591.696 388.18 589.829 386.761C587.595 385.062 584.537 384.242 581.842 383.629C578.761 382.928 575.593 382.638 572.437 382.747C570.378 382.819 570.369 386.028 572.437 385.956C576.611 385.811 580.733 386.404 584.68 387.784C586.006 388.248 588.146 388.876 588.785 390.291C589.475 391.821 587.597 393.165 586.387 393.655C583.46 394.839 579.867 394.276 576.811 394.021C573.666 393.758 570.246 393.122 568.081 390.591C567.17 389.527 566.838 388.031 568.091 387.078C569.278 386.177 571.002 386.025 572.437 385.956C574.492 385.856 574.504 382.647 572.437 382.747Z" fill="#FF008C"/>
<path d="M576.698 390.002C575.615 396.06 565.375 393.372 568.055 387.586C568.798 385.983 571.003 385.661 572.562 385.705C573.457 385.731 574.381 385.855 575.145 386.323C576.351 387.062 576.946 388.61 576.698 390.002Z" fill="#FF008C"/>
<path d="M575.152 389.576C575.117 389.759 575.076 389.941 575.023 390.121C574.996 390.212 574.963 390.302 574.933 390.393C574.817 390.751 575.055 390.169 574.942 390.374C574.863 390.518 574.793 390.665 574.704 390.804C574.66 390.873 574.593 390.941 574.559 391.015C574.55 391.036 574.805 390.721 574.699 390.833C574.659 390.875 574.623 390.924 574.584 390.968C574.482 391.081 574.373 391.188 574.258 391.288C574.206 391.333 573.998 391.501 574.232 391.315C574.475 391.121 574.205 391.327 574.14 391.368C574.014 391.448 573.883 391.516 573.751 391.587C573.466 391.74 573.904 391.536 573.852 391.551C573.764 391.575 573.679 391.617 573.593 391.646C573.45 391.693 573.306 391.733 573.159 391.766C573.08 391.784 573 391.797 572.92 391.813C572.605 391.878 573.274 391.783 573.035 391.8C572.705 391.824 572.38 391.841 572.049 391.817C571.967 391.811 571.884 391.797 571.802 391.793C571.637 391.785 572.088 391.836 572.052 391.827C572.007 391.815 571.957 391.813 571.912 391.804C571.749 391.773 571.587 391.741 571.427 391.698C571.279 391.659 571.132 391.614 570.987 391.563C570.911 391.536 570.835 391.496 570.757 391.476C570.722 391.468 571.124 391.642 570.978 391.57C570.926 391.545 570.871 391.522 570.819 391.497C570.534 391.361 570.287 391.181 570.018 391.022C569.976 390.997 570.336 391.292 570.101 391.084C570.051 391.04 569.999 390.997 569.949 390.951C569.825 390.837 569.716 390.712 569.6 390.59C569.39 390.37 569.787 390.871 569.665 390.681C569.63 390.625 569.589 390.573 569.553 390.517C569.465 390.382 569.407 390.211 569.312 390.083C569.261 390.014 569.454 390.483 569.371 390.221C569.347 390.146 569.318 390.074 569.296 389.998C569.252 389.848 569.246 389.677 569.194 389.532C569.195 389.537 569.229 389.984 569.227 389.751C569.226 389.715 569.221 389.68 569.22 389.644C569.215 389.561 569.213 389.477 569.215 389.393C569.216 389.319 569.221 389.246 569.225 389.172C569.227 389.125 569.243 389.068 569.239 389.022C569.242 389.055 569.161 389.432 569.215 389.22C569.258 389.05 569.286 388.878 569.336 388.71C569.365 388.615 569.396 388.52 569.431 388.427C569.446 388.386 569.464 388.345 569.478 388.304C569.535 388.135 569.288 388.674 569.441 388.396C569.493 388.302 569.548 388.206 569.597 388.111C569.713 387.879 569.551 388.225 569.533 388.178C569.529 388.167 569.627 388.07 569.637 388.06C569.67 388.029 569.871 387.796 569.906 387.81C569.932 387.82 569.624 387.984 569.792 387.903C569.854 387.873 569.912 387.824 569.972 387.789C569.994 387.775 570.273 387.593 570.304 387.613C570.313 387.619 569.995 387.725 570.171 387.668C570.241 387.646 570.308 387.617 570.377 387.593C570.623 387.509 570.874 387.445 571.128 387.395C571.183 387.384 571.238 387.376 571.293 387.364C571.592 387.3 571.047 387.382 571.25 387.366C571.377 387.356 571.504 387.339 571.631 387.33C571.908 387.309 572.186 387.302 572.464 387.308C572.647 387.311 572.83 387.318 573.012 387.332C573.086 387.337 573.162 387.348 573.236 387.352C573.496 387.364 572.882 387.276 573.33 387.367C573.501 387.402 573.671 387.438 573.838 387.487C573.933 387.515 574.026 387.549 574.119 387.581C574.326 387.651 573.967 387.468 574.142 387.6C574.199 387.643 574.275 387.672 574.337 387.709C574.381 387.737 574.639 387.946 574.469 387.793C574.316 387.654 574.467 387.798 574.491 387.821C574.547 387.879 574.606 387.932 574.66 387.991C574.715 388.049 574.766 388.111 574.817 388.172C574.738 388.077 574.687 387.979 574.777 388.14C574.795 388.173 575.036 388.537 575.01 388.562C575.002 388.569 574.908 388.273 574.965 388.458C574.994 388.554 575.032 388.648 575.06 388.746C575.076 388.801 575.135 389.208 575.164 389.22C575.141 389.211 575.145 388.911 575.14 389.096C575.137 389.176 575.149 389.258 575.149 389.339C575.15 389.448 575.083 390.006 575.152 389.576C575.019 390.401 575.364 391.343 576.272 391.55C577.043 391.725 578.103 391.315 578.245 390.429C578.522 388.708 578.125 386.961 576.887 385.679C575.644 384.392 573.777 384.057 572.057 384.101C570.724 384.134 569.245 384.383 568.13 385.163C567.011 385.945 566.317 387.139 566.103 388.482C565.76 390.643 566.659 392.559 568.427 393.813C569.967 394.906 571.973 395.233 573.808 394.902C576.067 394.493 577.826 392.671 578.245 390.429C578.399 389.607 578.018 388.659 577.125 388.456C576.336 388.276 575.317 388.694 575.152 389.576Z" fill="#FF008C"/>
<path d="M369.155 506.549C370.091 515.525 368.694 524.521 367.017 533.323C366.481 536.136 366.63 536.497 363.72 536.244C361.528 536.054 359.344 535.748 357.18 535.357C353.015 534.604 348.914 533.499 344.936 532.055C341.014 530.63 337.041 528.848 332.875 529.085C336.22 519.733 337.619 510.316 343.378 501.924C345.639 498.629 348.491 495.602 352.129 493.947C355.766 492.292 360.291 492.219 363.577 494.493C367.337 497.096 368.681 502.002 369.155 506.549Z" fill="#FF008C"/>
<path d="M367.555 506.549C368.454 515.58 367.048 524.517 365.385 533.374C365.322 533.707 365.014 534.663 365.064 534.867C365.115 535.069 364.965 534.741 365.128 534.798C365.248 534.84 365.424 534.739 365.016 534.705C363.08 534.543 361.161 534.394 359.237 534.087C354.9 533.396 350.625 532.334 346.475 530.9C342.037 529.367 337.687 527.289 332.879 527.481L334.426 529.512C337.351 521.263 338.912 512.425 343.434 504.821C345.499 501.349 348.135 497.987 351.701 495.967C355.035 494.077 359.497 493.574 362.772 495.878C366.098 498.22 367.14 502.746 367.555 506.549C367.777 508.58 370.987 508.602 370.763 506.549C370.309 502.389 369.315 498.081 366.439 494.884C363.388 491.493 358.613 490.531 354.281 491.53C344.789 493.718 339.417 504.099 336.439 512.476C334.544 517.809 333.224 523.325 331.332 528.659C330.99 529.625 331.889 530.729 332.879 530.69C337.444 530.507 341.625 532.628 345.844 534.071C350.371 535.618 355.046 536.726 359.783 537.39C362.305 537.744 366.955 539.111 368.111 535.838C368.689 534.2 368.843 532.322 369.147 530.621C369.59 528.145 369.985 525.662 370.309 523.168C371.026 517.655 371.315 512.091 370.763 506.549C370.561 504.514 367.35 504.493 367.555 506.549Z" fill="#FF008C"/>
<path d="M332.424 381.704C330.01 381.186 327.668 382.918 326.189 384.895C324.889 386.632 323.935 388.913 324.688 390.947C325.424 392.933 327.624 394.068 329.738 394.189C331.852 394.311 333.919 393.618 335.923 392.934C337.675 392.335 339.428 391.737 341.18 391.139C341.611 390.992 342.064 390.843 342.513 390.918C343.014 391.001 343.424 391.347 343.826 391.659C346.358 393.628 349.591 394.674 352.797 394.561" fill="white"/>
<path d="M332.855 380.157C328.584 379.445 324.89 382.837 323.401 386.61C321.859 390.518 323.875 394.409 327.91 395.507C332.173 396.667 336.778 394.335 340.734 392.985C341.227 392.817 341.872 392.441 342.401 392.588C342.828 392.706 343.327 393.285 343.696 393.537C344.505 394.089 345.37 394.535 346.271 394.917C348.342 395.796 350.551 396.209 352.8 396.165C354.862 396.125 354.869 392.916 352.8 392.957C351.115 392.989 349.476 392.742 347.896 392.137C346.32 391.534 345.166 390.355 343.686 389.639C342.003 388.825 340.183 389.788 338.567 390.34C336.828 390.933 335.097 391.582 333.33 392.085C330.947 392.763 326.037 393.092 326.03 389.387C326.025 386.771 329.127 382.771 332.002 383.251C334.022 383.588 334.89 380.497 332.855 380.157Z" fill="#FF008C"/>
<path d="M372.45 640.728C373.714 651.501 375.115 662.258 376.652 672.996C376.775 673.86 377.864 674.317 378.625 674.116C379.549 673.872 379.867 672.996 379.745 672.143C378.25 661.689 376.889 651.216 375.659 640.728C375.421 638.702 372.21 638.678 372.45 640.728Z" fill="#FF008C"/>
<path d="M525.586 710.266C551.31 699.906 576.775 688.907 601.998 677.382C626.981 665.966 651.73 654.041 676.301 641.765C690.326 634.758 704.293 627.637 718.218 620.433C720.052 619.484 718.432 616.715 716.599 617.663C692.084 630.344 667.437 642.77 642.581 654.769C617.849 666.709 592.911 678.227 567.721 689.173C553.473 695.364 539.144 701.369 524.733 707.172C522.842 707.934 523.668 711.039 525.586 710.266Z" fill="#FF008C"/>
<path d="M427.52 618.366C450.182 616.977 472.846 615.583 495.467 613.618C518.035 611.657 540.567 609.125 562.929 605.472C575.549 603.411 588.108 600.983 600.569 598.112C602.58 597.648 601.729 594.554 599.716 595.018C577.692 600.094 555.367 603.768 532.94 606.527C510.573 609.279 488.108 611.156 465.629 612.717C452.931 613.598 440.226 614.379 427.52 615.158C425.469 615.284 425.455 618.493 427.52 618.366Z" fill="#FF008C"/>
<path d="M498.907 676.475C515.713 689.714 526.827 709.401 529.077 730.725C529.756 737.156 529.689 743.685 528.807 750.094C528.688 750.959 529.017 751.806 529.927 752.067C530.675 752.282 531.783 751.804 531.901 750.947C535.054 728.037 528.592 704.683 513.962 686.756C510.175 682.116 505.88 677.912 501.176 674.206C499.571 672.942 497.286 675.198 498.907 676.475Z" fill="#FF008C"/>
<path d="M791.434 692.784C788.241 692.661 785.165 691.679 782.477 689.951C780.874 688.92 776.431 685.842 778.215 683.565C779.815 681.523 782.912 681.676 785.197 681.78C788.258 681.918 791.297 681.837 793.727 679.738C794.413 679.145 794.265 678.082 793.727 677.469C789.494 672.645 781.973 662.587 788.796 656.759C793.577 652.676 801.44 655.571 804.867 660C805.294 660.552 806.253 660.576 806.811 660.25C807.475 659.862 807.652 659.153 807.548 658.439C806.063 648.22 804.32 634.977 813.458 627.67C816.755 625.034 821.315 623.389 825.485 624.7C829.611 625.996 831.914 629.846 832.733 633.877C833.766 638.96 832.939 644.369 831.901 649.382C831.534 651.154 833.823 652.181 834.833 650.618C837.886 645.893 844.875 644.295 849.648 647.315C854.46 650.359 855.79 657.409 852.852 662.152L855.623 663.772C856.999 661.244 860.733 662.484 862.274 664.205C865.26 667.538 863.008 673.293 861.732 676.864C861.225 678.283 862.939 679.248 864.089 678.675C868.334 676.561 873.714 676.971 877.531 679.825C881.192 682.562 883.012 687.192 882.569 691.683C882.366 693.736 885.576 693.722 885.777 691.683C886.333 686.047 883.715 680.376 879.15 677.054C874.338 673.553 867.723 673.289 862.47 675.905L864.826 677.716C866.612 672.716 868.713 665.441 863.937 661.359C860.785 658.665 855.124 657.983 852.852 662.152C851.863 663.968 854.534 665.529 855.623 663.772C858.611 658.947 858.162 652.41 854.806 647.877C851.32 643.169 845.177 641.511 839.656 643.272C836.529 644.269 833.847 646.238 832.063 648.999L834.995 650.235C836.881 641.13 838.394 627.29 828.199 622.354C823.512 620.084 818.073 620.996 813.72 623.605C808.827 626.539 805.608 631.252 804.193 636.734C802.285 644.127 803.374 651.862 804.454 659.292L807.135 657.731C803.488 653.018 796.581 650.522 790.794 652.177C787.905 653.003 785.438 654.964 784.121 657.684C782.472 661.086 782.739 664.93 784.074 668.392C785.712 672.642 788.476 676.338 791.459 679.738V677.469C788.857 679.717 784.559 678.179 781.463 678.629C778.612 679.043 775.273 680.673 774.674 683.779C773.955 687.511 777.785 690.658 780.525 692.502C783.75 694.672 787.561 695.843 791.434 695.993C793.499 696.073 793.495 692.864 791.434 692.784Z" fill="#FF008C"/>
<path d="M831.489 692.768C831.436 692.572 831.388 692.375 831.358 692.174C831.408 692.504 831.359 692.07 831.356 691.999C831.347 691.798 831.35 691.596 831.364 691.395C831.37 691.305 831.432 690.941 831.379 691.222C831.445 690.871 831.545 690.538 831.65 690.197C831.719 690.021 831.721 690.007 831.658 690.156C831.699 690.063 831.742 689.972 831.787 689.881C831.855 689.744 831.928 689.61 832.005 689.479C832.626 688.426 833.555 687.671 834.746 687.403C834.821 687.385 834.897 687.37 834.973 687.357C834.802 687.375 834.813 687.374 835.006 687.354C835.186 687.344 835.363 687.334 835.543 687.337C835.722 687.34 835.901 687.349 836.079 687.372C835.749 687.329 836.267 687.42 836.332 687.436C836.506 687.478 836.679 687.527 836.849 687.584C836.947 687.617 837.043 687.652 837.139 687.69C837.017 687.637 837.008 687.634 837.11 687.681C837.438 687.835 837.752 688.013 838.05 688.218C838.114 688.261 838.177 688.306 838.239 688.353C838.119 688.26 838.132 688.273 838.278 688.392C838.411 688.515 838.546 688.633 838.673 688.762C838.8 688.89 838.92 689.024 839.036 689.162C838.857 688.947 839.162 689.344 839.195 689.395C839.293 689.546 839.384 689.7 839.467 689.858C839.515 689.949 839.56 690.041 839.603 690.134C839.552 690.009 839.547 689.999 839.588 690.104C839.723 690.468 839.814 690.839 839.872 691.223C840.003 692.08 841.081 692.553 841.846 692.343C842.762 692.091 843.097 691.23 842.966 690.37C842.502 687.326 839.744 684.735 836.733 684.253C833.529 683.739 830.405 685.398 828.983 688.33C828.181 689.985 827.916 691.829 828.395 693.621C828.927 695.614 832.023 694.768 831.489 692.768Z" fill="#FF008C"/>
<path d="M542.633 425.195C542.709 428.551 544.662 431.398 547.471 433.138C550.372 434.935 553.832 435.27 557.105 434.439C564.455 432.573 570.313 425.857 574.097 419.631C575.172 417.862 572.398 416.248 571.326 418.012C568.194 423.166 563.574 428.675 557.769 430.869C555.259 431.818 552.472 432.062 549.999 430.869C547.758 429.788 545.9 427.784 545.842 425.195C545.795 423.134 542.587 423.126 542.633 425.195Z" fill="#FF008C"/>
<path d="M569.227 416.559C569.503 416.746 569.773 416.941 570.037 417.144L569.712 416.893C570.765 417.712 571.711 418.658 572.529 419.711L572.278 419.387C572.575 419.773 572.854 420.171 573.115 420.582C573.337 420.931 573.67 421.208 574.074 421.319C574.458 421.425 574.969 421.377 575.31 421.158C576.018 420.701 576.367 419.72 575.886 418.963C574.575 416.902 572.866 415.159 570.847 413.789C570.516 413.564 569.986 413.524 569.611 413.627C569.239 413.73 568.835 414.017 568.652 414.364C568.223 415.176 568.484 416.055 569.227 416.559Z" fill="#FF008C"/>
<path d="M545.808 395.593C542.284 394.675 538.216 394.903 535.866 398.034C534.872 399.358 534.436 401.048 534.748 402.68C535.06 404.316 536.278 405.623 537.671 406.449C538.423 406.894 539.251 407.224 540.073 407.514C541.118 407.883 542.18 408.247 543.228 407.658C543.96 407.246 544.267 406.183 543.803 405.463C543.326 404.723 542.391 404.447 541.608 404.888C541.575 404.906 542.27 404.762 542.002 404.784C541.826 404.798 542.076 404.788 542.103 404.798C541.964 404.743 541.808 404.714 541.665 404.668C541.397 404.582 541.13 404.493 540.864 404.399C540.72 404.347 540.576 404.294 540.434 404.239C540.377 404.217 540.031 404.072 540.2 404.147C540.372 404.223 539.963 404.035 539.915 404.013C539.78 403.947 539.645 403.878 539.513 403.805C539.271 403.672 539.041 403.524 538.813 403.368C538.562 403.197 538.967 403.515 538.745 403.311C538.639 403.214 538.532 403.119 538.432 403.015C538.331 402.91 538.154 402.663 538.327 402.918C538.257 402.816 538.185 402.716 538.122 402.61C538.058 402.502 538.006 402.389 537.947 402.279C538.116 402.592 537.925 402.185 537.895 402.07C537.88 402.01 537.872 401.946 537.854 401.888C537.794 401.698 537.887 402.01 537.863 402.009C537.845 402.008 537.843 401.592 537.843 401.579C537.843 401.519 537.854 401.138 537.844 401.361C537.835 401.569 537.842 401.375 537.851 401.329C537.869 401.247 537.884 401.166 537.904 401.085C537.939 400.943 537.982 400.802 538.031 400.664C538.052 400.605 538.075 400.546 538.097 400.487C538.09 400.507 537.974 400.733 538.064 400.579C538.215 400.321 538.36 400.062 538.521 399.808C538.616 399.658 538.48 399.861 538.466 399.877C538.509 399.828 538.549 399.777 538.591 399.729C538.691 399.615 538.795 399.506 538.904 399.402C538.997 399.312 539.098 399.232 539.193 399.144C538.971 399.351 539.229 399.121 539.335 399.053C539.46 398.972 539.589 398.897 539.721 398.828C539.79 398.792 540.129 398.639 539.895 398.734C540.223 398.601 540.567 398.5 540.913 398.424C540.987 398.407 541.062 398.392 541.136 398.378C541.165 398.373 541.47 398.323 541.3 398.347C541.124 398.372 541.374 398.34 541.39 398.339C541.518 398.328 541.645 398.318 541.773 398.311C542.133 398.292 542.494 398.296 542.855 398.318C543.062 398.331 543.268 398.354 543.475 398.374C543.665 398.393 543.466 398.373 543.435 398.368C543.537 398.385 543.64 398.4 543.742 398.418C544.151 398.49 544.554 398.583 544.955 398.687C545.766 398.898 546.734 398.419 546.928 397.567C547.119 396.729 546.677 395.819 545.808 395.593Z" fill="#FF008C"/>
<path d="M524.352 359.135C528.005 360.836 531.941 359.793 535.341 357.971C538.693 356.174 541.738 353.749 544.312 350.955C545.709 349.439 543.446 347.164 542.043 348.686C539.841 351.077 537.332 353.126 534.517 354.755C532.081 356.165 528.761 357.664 525.972 356.365C525.187 356 524.243 356.144 523.777 356.941C523.371 357.635 523.563 358.768 524.352 359.135Z" fill="#FF008C"/>
<path d="M606.765 367.171C606.171 361.602 603.641 356.304 599.424 352.561C595.141 348.759 589.474 346.718 583.751 346.887C581.691 346.947 581.683 350.156 583.751 350.095C593.679 349.803 602.493 357.208 603.557 367.171C603.649 368.032 604.228 368.775 605.161 368.775C605.957 368.775 606.858 368.038 606.765 367.171Z" fill="#FF008C"/>
<path d="M677.062 368.811C676.723 369.745 676.408 370.687 676.141 371.644C676.639 370.735 676.93 369.782 677.062 368.811Z" fill="#FF008C"/>
<path d="M675.515 368.384C675.177 369.318 674.861 370.26 674.593 371.217C674.486 371.6 674.536 372.114 674.755 372.453C674.947 372.751 675.194 372.971 675.522 373.11C675.841 373.244 676.228 373.3 676.567 373.19C676.958 373.064 677.324 372.824 677.525 372.453C678.068 371.454 678.452 370.364 678.609 369.237C678.676 369.024 678.685 368.81 678.638 368.597C678.628 368.384 678.565 368.185 678.447 368.001C678.253 367.668 677.871 367.351 677.489 367.263C677.078 367.17 676.617 367.19 676.252 367.425L675.928 367.676C675.729 367.876 675.592 368.112 675.515 368.384C675.414 369.113 675.224 369.825 674.939 370.504L675.101 370.12C674.997 370.364 674.881 370.601 674.755 370.834L677.687 372.07C677.955 371.113 678.27 370.171 678.609 369.237C678.744 368.864 678.642 368.333 678.447 368.001C678.253 367.668 677.871 367.351 677.489 367.263C677.078 367.17 676.617 367.19 676.252 367.425L675.928 367.676C675.729 367.876 675.592 368.112 675.515 368.384Z" fill="#FF008C"/>
<path d="M845.937 377.109C848.869 374.083 851.282 370.693 853.276 367.062C847.97 351.977 841.003 337.524 832.375 324.213C817.23 300.847 796.828 280.086 771.268 269.037C721.381 247.471 659.158 265.209 612.888 236.698C609.09 234.358 605.404 231.704 601.162 230.328C596.919 228.951 591.866 229.081 588.453 231.953C585.041 234.826 584.384 240.893 587.925 243.606C580.772 242.601 573.525 242.27 566.31 242.618C563.805 242.739 561.071 243.043 559.305 244.824C557.069 247.077 557.328 250.952 559.023 253.636C560.395 255.806 562.478 257.378 564.648 258.791C557.621 254.968 547.344 258.252 544.29 265.788C541.005 273.897 547.142 284.304 555.827 285.352C555.746 285.436 555.675 285.525 555.595 285.609C561.497 286.983 565.852 287.917 572.283 286.945C593.167 283.787 620.548 276.029 640.734 269.814C638.838 289.055 640.463 308.638 645.508 327.303C647.485 334.619 650.214 342.151 655.936 347.119C660.362 350.961 666.152 352.881 670.813 356.434C674.649 359.359 677.681 364.29 677.066 368.81C681.226 357.357 690.682 347.788 702.358 344.314C714.986 340.557 729.77 344.454 738.316 354.482C746.862 364.51 748.208 380.276 740.844 391.201C735.812 398.665 727.519 403.391 718.936 406.103C733.719 414.684 751.955 415.594 768.721 412.267C785.488 408.94 801.185 401.718 816.792 394.746C827.228 390.084 837.983 385.316 845.937 377.109Z" fill="#FF008C"/>
<path d="M847.063 378.243C849.287 375.918 851.281 373.378 853.006 370.662C853.611 369.709 854.868 368.225 854.873 367.062C854.876 366.39 854.471 365.662 854.247 365.041C853.928 364.157 853.604 363.274 853.273 362.394C850.98 356.29 848.416 350.283 845.571 344.416C840.118 333.166 833.612 322.423 826.091 312.433C812.307 294.12 794.908 278.011 773.876 268.452C752.87 258.906 729.654 256.479 706.887 254.917C684.097 253.353 660.856 252.782 638.786 246.292C633.409 244.71 628.132 242.775 623.061 240.383C617.704 237.856 612.872 234.588 607.762 231.632C602.936 228.84 597.172 226.769 591.597 228.488C586.939 229.924 583.555 234.161 583.986 239.16C584.173 241.323 585.087 243.349 586.783 244.74L588.343 242.059C583.427 241.382 578.487 240.965 573.523 240.892C571.038 240.855 568.548 240.889 566.066 241.026C564.136 241.133 562.165 241.343 560.39 242.162C556.859 243.792 555.541 247.569 556.32 251.229C557.184 255.287 560.541 258.01 563.831 260.176L565.45 257.406C559.057 254.057 550.616 255.519 545.657 260.777C540.428 266.321 540.843 274.776 545.281 280.664C547.739 283.925 551.302 286.336 555.393 286.899L554.685 284.218L554.453 284.474C553.681 285.327 553.928 286.869 555.161 287.155C561.038 288.521 566.677 289.377 572.702 288.491C578.082 287.7 583.428 286.641 588.742 285.493C600.352 282.984 611.845 279.941 623.264 276.678C629.246 274.969 635.207 273.19 641.153 271.361L639.122 269.814C637.585 285.713 638.403 301.802 641.541 317.465C642.964 324.569 644.633 331.859 647.713 338.454C649.083 341.387 650.823 344.168 653.031 346.546C655.454 349.155 658.465 351.062 661.559 352.772C667.65 356.139 676.375 360.433 675.455 368.81C675.244 370.725 678.023 370.812 678.606 369.237C681.654 360.991 687.491 353.77 695.062 349.265C702.667 344.74 711.736 343.398 720.335 345.489C728.836 347.557 736.434 352.856 740.554 360.669C744.556 368.26 745.195 377.661 741.988 385.65C738.02 395.534 728.226 401.44 718.501 404.557C717.217 404.968 716.883 406.78 718.118 407.489C733.426 416.272 751.869 417.192 768.883 413.864C787.58 410.207 805.123 401.851 822.349 393.993C831.273 389.922 840.124 385.321 847.063 378.243C848.51 376.767 846.243 374.497 844.795 375.975C838.791 382.097 831.267 386.275 823.576 389.904C815.45 393.738 807.204 397.391 798.91 400.846C782.537 407.668 765.209 413.221 747.259 412.362C737.636 411.902 728.125 409.531 719.737 404.718L719.354 407.65C728.917 404.586 738.358 399.116 743.393 390.103C748.007 381.841 748.376 371.459 744.973 362.696C737.688 343.942 714.619 336.505 696.858 344.697C686.887 349.296 679.291 358.162 675.512 368.384L678.663 368.81C679.397 362.13 674.323 356.576 669.056 353.301C665.976 351.387 662.656 349.886 659.624 347.894C656.771 346.019 654.417 343.613 652.593 340.728C648.785 334.706 647.052 327.494 645.492 320.623C643.708 312.761 642.523 304.772 641.958 296.73C641.328 287.764 641.466 278.759 642.331 269.814C642.431 268.781 641.225 267.983 640.3 268.267C618.89 274.854 597.174 281.178 575.052 284.886C571.955 285.405 568.875 285.856 565.725 285.707C562.43 285.552 559.216 284.806 556.014 284.062L556.722 286.743L556.954 286.486C557.668 285.698 557.529 283.982 556.246 283.805C548.758 282.775 543.206 274.472 545.498 267.146C547.764 259.903 557.359 256.786 563.831 260.176C565.667 261.138 567.174 258.541 565.45 257.406C562.801 255.662 559.934 253.491 559.374 250.156C558.785 246.659 561.181 244.784 564.4 244.367C567.979 243.904 571.73 244.032 575.329 244.14C579.396 244.263 583.459 244.597 587.491 245.153C588.859 245.342 590.456 243.624 589.051 242.472C585.505 239.562 587.349 234.113 590.955 232.197C595.878 229.58 601.728 231.85 606.143 234.402C610.83 237.112 615.266 240.139 620.142 242.528C624.709 244.765 629.448 246.663 634.28 248.249C654.364 254.842 675.734 256.13 696.682 257.461C717.822 258.805 739.296 260.019 759.634 266.428C780.154 272.895 797.898 285.332 812.447 301.034C827.995 317.812 840.068 337.84 848.549 359.041C849.666 361.834 850.72 364.652 851.722 367.489L851.884 366.253C849.919 369.788 847.593 373.049 844.795 375.975C843.367 377.467 845.633 379.739 847.063 378.243Z" fill="#FF008C"/>
<path d="M717.929 368.662C713.495 368.317 709.074 370.067 705.795 373.008C704.253 374.392 702.932 376.132 702.081 378.024C701.452 379.422 700.973 380.8 701.224 382.355C701.464 383.838 702.648 385.11 704.109 385.468C705.855 385.895 707.669 385.202 708.578 383.631C709.479 382.075 709.131 379.982 707.854 378.751C706.939 377.869 705.319 377.773 704.421 378.751C703.546 379.705 703.445 381.242 704.421 382.183C704.61 382.372 704.593 382.345 704.37 382.101C704.262 381.934 704.214 381.75 704.226 381.55C704.248 381.971 704.321 381.323 704.387 381.181C704.168 381.526 704.306 381.41 704.799 380.834C704.605 380.943 704.596 380.951 704.772 380.859C704.899 380.779 705.039 380.743 705.193 380.752C705.543 380.824 705.583 380.829 705.314 380.766C705.647 380.926 705.692 381 705.926 381.276C706.007 381.542 706.01 381.541 705.936 381.272C705.977 381.569 705.994 381.573 705.988 381.282L705.961 381.493C705.991 381.347 706.027 381.204 706.07 381.062C706.13 380.856 706.21 380.657 706.282 380.455C706.386 380.198 706.382 380.204 706.272 380.474C706.327 380.351 706.384 380.228 706.443 380.107C706.532 379.925 706.625 379.745 706.722 379.568C706.947 379.154 707.197 378.753 707.466 378.366C707.567 378.22 707.827 377.876 707.567 378.208C707.733 377.996 707.907 377.79 708.086 377.588C708.377 377.26 708.684 376.946 709.004 376.646C709.176 376.484 709.353 376.327 709.533 376.174C709.583 376.132 710.113 375.716 709.675 376.046C710.053 375.761 710.443 375.493 710.847 375.245C711.25 374.997 711.665 374.769 712.091 374.561C712.273 374.472 712.457 374.388 712.642 374.306C712.123 374.536 712.801 374.251 712.909 374.212C713.767 373.9 714.648 373.684 715.548 373.533C714.968 373.63 715.571 373.535 715.705 373.522C715.973 373.498 716.243 373.482 716.512 373.475C716.985 373.462 717.457 373.479 717.929 373.515C719.198 373.614 720.412 372.329 720.356 371.088C720.293 369.689 719.288 368.767 717.929 368.662Z" fill="#FF008C"/>
</svg>
