<svg width="1000" height="1000" viewBox="0 0 1000 1000" fill="none" xmlns="http://www.w3.org/2000/svg">
<path d="M508.259 527.149C490.465 568.598 476.151 611.54 465.487 655.368C460.474 675.967 456.268 696.762 452.885 717.691C451.394 726.911 451.173 736.923 447.387 745.555C443.857 753.606 437.88 760.598 430.379 765.202C425.527 768.179 420.106 770.188 415.434 773.439C409.934 777.265 404.898 784.518 406.543 791.557C407.826 797.049 413.289 800.553 418.681 802.205C428.951 805.352 439.905 803.751 449.882 800.316C452.343 799.469 454.763 798.502 457.146 797.454C458.761 796.744 461.812 794.416 463.573 794.392C465.951 794.359 465.337 794.787 465.2 797.386C465.036 800.481 464.589 803.588 464.285 806.673C473.923 808.922 483.842 809.648 493.714 810.367C501.151 810.908 508.903 811.403 515.797 808.561C532.615 726.058 547.897 641.284 589.739 566.918C590.363 565.807 590.994 564.7 591.629 563.596" fill="#FF008C"/>
<path d="M506.969 526.397C496.717 550.301 487.588 574.678 479.662 599.451C471.676 624.407 464.9 649.751 459.362 675.361C456.513 688.539 453.992 701.789 451.804 715.093C449.883 726.767 449.847 739.121 443.647 749.573C440.892 754.218 437.251 758.378 432.946 761.647C428.242 765.22 422.732 767.355 417.647 770.284C412.94 772.995 408.74 776.716 406.423 781.724C404.307 786.297 403.972 791.757 406.934 796.056C409.793 800.205 414.543 802.627 419.293 803.935C425.264 805.578 431.522 805.698 437.628 804.85C443.834 803.988 449.85 802.112 455.623 799.709C457.832 798.789 459.778 797.577 461.896 796.491C462.332 796.267 462.797 796.023 463.283 795.93C463.564 795.876 464.077 795.992 464.309 795.883L464.401 795.906C464.807 796.025 464.632 795.766 463.875 795.13C463.835 795.167 463.897 795.447 463.87 795.519C463.714 795.933 463.765 796.556 463.732 796.993C463.486 800.229 463.118 803.444 462.792 806.672C462.729 807.291 463.296 807.972 463.884 808.108C474.488 810.551 485.421 811.329 496.255 812.033C501.211 812.355 506.225 812.477 511.122 811.504C512.274 811.275 513.412 810.982 514.527 810.612C515.677 810.23 516.928 809.995 517.278 808.71C517.936 806.294 518.287 803.747 518.785 801.293C522.776 781.601 526.712 761.897 530.984 742.264C535.279 722.524 539.914 702.852 545.284 683.374C550.615 664.035 556.675 644.885 563.831 626.139C571.018 607.313 579.336 588.909 589.035 571.239C590.303 568.929 591.596 566.632 592.91 564.347C593.867 562.684 591.295 561.182 590.339 562.845C573.546 592.052 560.697 623.352 550.467 655.411C540.294 687.294 532.642 719.914 525.719 752.635C521.809 771.12 518.13 789.653 514.357 808.166L515.396 807.126C507.625 810.236 499.105 809.282 490.966 808.677C482.142 808.022 473.315 807.228 464.676 805.237L465.769 806.672C466.095 803.444 466.458 800.229 466.709 796.993C466.827 795.46 467.152 793.646 465.283 793.057C463.36 792.451 461.36 793.368 459.718 794.285C457.467 795.542 455.315 796.674 452.901 797.62C441.727 801.998 428.283 804.762 416.769 799.948C412.302 798.08 407.987 794.587 407.725 789.399C407.455 784.04 410.871 779.078 414.819 775.766C419.36 771.956 425.191 769.967 430.263 767.003C434.908 764.289 439.052 760.713 442.421 756.52C445.84 752.265 448.543 747.445 450.214 742.241C452.048 736.53 452.702 730.523 453.428 724.596C455.014 711.643 457.573 698.764 460.172 685.981C465.396 660.281 471.867 634.835 479.551 609.76C487.108 585.104 495.837 560.807 505.709 536.982C506.966 533.947 508.244 530.92 509.54 527.9C510.287 526.158 507.723 524.64 506.969 526.397Z" fill="#FF008C"/>
<path d="M508.256 527.149C490.461 568.598 476.148 611.539 465.483 655.367C459.335 680.635 455.311 706.284 449.692 731.645C449.451 732.736 449.219 733.928 449.715 734.93C450.301 736.114 451.687 736.624 452.945 737.028C468.662 742.075 484.466 747.123 500.756 749.987C508.983 751.433 517.32 752.319 525.679 752.317C530.195 752.316 531.558 752.997 533.522 749.378C535.259 746.177 535.7 741.328 536.661 737.799C544.76 708.078 553.218 678.405 563.927 649.501C576.02 616.858 608.83 550.244 629.105 521.838" fill="#84FF20"/>
<path d="M583.069 601.508C581.993 593.335 579.215 585.407 575.019 578.315C570.739 571.079 562.702 565.356 556.914 559.185C555.297 557.461 553.639 555.679 551.495 554.686C543.068 550.786 543.739 561.213 543.595 566.421C543.392 573.715 543.972 581.016 545.111 588.219C547.38 602.569 551.84 616.494 557.093 630.008C560.01 637.513 563.934 645.803 562.872 654.067C567.473 639.97 573.384 626.301 580.504 613.294C581.578 611.332 582.695 609.342 583.117 607.146C583.473 605.292 583.315 603.38 583.069 601.508Z" fill="#FF008C"/>
<path d="M576.73 553.424C573.257 589.147 573.383 630.916 601.042 666.548C614.042 683.295 630.814 711.501 645.086 727.179C651.373 734.085 659.071 740.492 663.469 748.828C667.571 756.603 669.322 765.633 668.255 774.37C667.565 780.02 665.761 785.513 665.397 791.193C664.967 797.879 667.508 806.335 674.04 809.431C679.137 811.845 685.28 809.752 689.93 806.561C698.786 800.483 704.353 790.914 707.876 780.968C708.745 778.514 709.495 776.019 710.159 773.502C710.609 771.796 710.686 767.959 711.764 766.565C713.219 764.684 713.171 765.431 715.12 767.156C717.44 769.211 719.593 771.496 721.817 773.654C729.578 767.512 736.322 760.201 743.03 752.924C748.084 747.441 753.297 741.682 755.365 734.518C701.271 669.994 644.444 605.257 612.296 526.214C611.816 525.034 611.342 523.852 610.874 522.667" fill="#FF008C"/>
<path d="M575.241 553.424C573.027 576.294 572.593 599.644 578.121 622.108C581.062 634.06 585.702 645.608 592.082 656.145C595.296 661.454 599.088 666.299 602.765 671.283C606.123 675.834 609.341 680.488 612.536 685.155C619.442 695.248 626.193 705.461 633.516 715.261C636.735 719.57 640.056 723.819 643.658 727.818C647.821 732.439 652.44 736.634 656.479 741.369C660.805 746.441 664.008 752.191 665.696 758.664C667.453 765.402 667.343 772.181 665.976 778.973C664.761 785.009 663.208 791.028 664.274 797.205C665.133 802.18 667.596 807.184 671.949 809.973C677.096 813.271 683.462 811.981 688.515 809.184C693.706 806.311 698.008 801.889 701.417 797.085C704.929 792.136 707.512 786.557 709.495 780.837C710.531 777.846 711.538 774.793 711.97 771.65C712.123 770.539 712.236 769.383 712.58 768.31C712.741 767.807 713.166 767.452 713.325 767.001L713.536 766.791L712.654 766.871C712.639 767.005 713.426 767.615 713.543 767.726C715.973 770.032 718.365 772.368 720.764 774.707C721.387 775.315 722.231 775.214 722.869 774.707C731.239 768.044 738.518 760.114 745.696 752.216C748.924 748.663 752.102 744.953 754.393 740.708C754.939 739.696 755.424 738.655 755.86 737.591C756.237 736.672 756.962 735.33 756.826 734.32C756.69 733.313 755.45 732.313 754.825 731.568C753.975 730.555 753.125 729.543 752.275 728.531C739.315 713.102 726.303 697.715 713.551 682.113C700.705 666.394 688.119 650.455 676.151 634.055C664.29 617.802 653.03 601.095 642.774 583.78C632.435 566.325 623.103 548.245 615.262 529.528C614.253 527.119 613.27 524.7 612.309 522.272C611.612 520.511 608.732 521.278 609.438 523.063C615.68 538.829 622.929 554.179 631.011 569.083C638.982 583.782 647.738 598.047 657.039 611.939C666.403 625.927 676.319 639.539 686.566 652.891C696.759 666.173 707.273 679.204 717.933 692.112C728.648 705.087 739.508 717.941 750.33 730.826C751.658 732.407 752.985 733.989 754.312 735.571L753.929 734.123C751.556 742.053 745.474 748.094 739.998 754.016C733.94 760.567 727.759 767.034 720.764 772.601H722.869C720.418 770.212 717.962 767.836 715.49 765.47C714.799 764.808 714.123 764.021 713.093 763.984C711.955 763.944 711.055 764.944 710.478 765.814C709.239 767.68 709.265 770.123 708.897 772.258C708.337 775.505 707.125 778.771 705.976 781.849C703.903 787.397 701.149 792.803 697.448 797.45C693.707 802.148 688.745 806.653 682.869 808.374C680.035 809.204 676.942 809.309 674.276 807.884C672.07 806.705 670.413 804.823 669.225 802.647C666.517 797.685 666.509 791.995 667.47 786.57C668.674 779.777 670.44 773.237 669.941 766.267C669.476 759.776 667.648 753.38 664.531 747.662C661.544 742.181 657.223 737.559 652.888 733.127C648.887 729.037 644.936 724.949 641.325 720.504C633.809 711.252 627.138 701.326 620.438 691.479C617.12 686.602 613.813 681.718 610.43 676.886C607.261 672.363 603.908 667.993 600.628 663.554C593.133 653.412 587.352 642.091 583.479 630.093C576.338 607.969 575.748 584.463 577.515 561.465C577.721 558.782 577.959 556.102 578.218 553.424C578.403 551.518 575.424 551.531 575.241 553.424Z" fill="#FF008C"/>
<path d="M545.477 551.935C548.707 586.595 571.928 622.077 588.802 652.514C606.483 684.407 631.18 710.155 654.025 738.361C654.728 739.23 655.517 740.153 656.61 740.389C657.901 740.668 659.164 739.9 660.263 739.168C673.997 730.009 687.787 720.785 700.169 709.82C706.422 704.282 712.306 698.309 717.509 691.767C720.319 688.232 721.701 687.589 720.092 683.798C718.668 680.447 715.148 677.084 712.985 674.134C693.13 647.058 672.294 619.954 661.752 587.665C651.646 556.713 651.248 522.515 661.46 491.536" fill="#84FF20"/>
<path d="M506.974 526.398C496.153 551.624 486.586 577.381 478.361 603.57C470.039 630.066 463.122 656.946 457.703 684.184C454.963 697.955 452.426 711.768 449.507 725.503C449.15 727.18 448.788 728.857 448.419 730.532C448.071 732.113 447.643 733.761 448.283 735.326C449.377 738.002 452.86 738.564 455.3 739.345C461.871 741.451 468.452 743.531 475.086 745.432C488.567 749.295 502.338 752.424 516.354 753.455C519.711 753.702 523.062 753.765 526.426 753.811C528.294 753.837 530.441 754.135 532.145 753.172C534.027 752.107 535.069 749.874 535.773 747.93C536.745 745.246 537.124 742.394 537.75 739.621C539.245 732.993 541.314 726.446 543.149 719.905C545.055 713.112 547.001 706.33 549.008 699.566C552.999 686.118 557.235 672.74 561.895 659.508C563.026 656.295 564.183 653.092 565.365 649.897C566.031 648.098 563.155 647.321 562.495 649.106C553.037 674.667 545.317 700.824 538.06 727.082C537.153 730.365 536.249 733.648 535.357 736.934C534.627 739.625 534.24 742.39 533.531 745.085C533.078 746.807 532.391 749.685 530.642 750.601C530.11 750.88 529.458 750.873 528.868 750.879C527.643 750.891 526.416 750.834 525.191 750.828C511.571 750.757 498.099 748.377 484.934 745.021C478.403 743.356 471.936 741.45 465.499 739.451C462.358 738.476 459.224 737.478 456.092 736.475C454.713 736.033 453.096 735.719 451.835 734.984C450.359 734.125 451.044 732.441 451.342 731.084C454.288 717.687 456.805 704.202 459.437 690.742C464.627 664.2 470.994 637.987 478.843 612.101C486.539 586.718 495.476 561.711 505.622 537.204C506.909 534.094 508.218 530.993 509.544 527.9C510.291 526.159 507.728 524.64 506.974 526.398Z" fill="#FF008C"/>
<path d="M543.984 551.935C545.566 568.503 551.283 584.332 558.246 599.341C565.455 614.881 574.136 629.669 582.602 644.542C586.8 651.917 590.851 659.36 595.443 666.502C600.116 673.771 605.151 680.801 610.399 687.665C620.803 701.272 632.011 714.229 643.008 727.353C645.83 730.719 648.638 734.098 651.415 737.502C652.595 738.948 653.73 740.797 655.502 741.571C657.376 742.389 659.24 741.603 660.843 740.562C668.475 735.604 676.01 730.445 683.365 725.085C690.618 719.801 697.675 714.224 704.257 708.118C707.485 705.122 710.597 701.997 713.547 698.726C715.073 697.034 716.556 695.303 717.987 693.53C719.109 692.142 720.392 690.804 721.361 689.3C723.212 686.427 721.692 683.09 719.966 680.537C717.733 677.236 714.95 674.31 712.588 671.096C707.536 664.221 702.461 657.363 697.524 650.404C687.72 636.588 678.416 622.328 671.118 607.007C663.619 591.265 658.562 574.41 656.536 557.075C654.486 539.525 655.364 521.62 659.388 504.405C660.372 500.197 661.545 496.037 662.891 491.931C663.49 490.106 660.616 489.324 660.021 491.14C654.62 507.612 652.14 525.013 652.533 542.338C652.924 559.599 656.121 576.827 662.037 593.051C667.723 608.641 675.787 623.224 684.833 637.095C689.415 644.123 694.247 650.984 699.165 657.779C701.602 661.147 704.061 664.499 706.524 667.848C708.897 671.075 711.178 674.398 713.752 677.469C715.045 679.013 716.395 680.524 717.508 682.207C718.292 683.392 719.419 685.097 719.28 686.598C719.165 687.847 717.893 688.959 717.145 689.862C715.75 691.55 714.392 693.264 712.953 694.916C707.228 701.491 700.847 707.469 694.136 713.024C687.267 718.711 680.035 723.94 672.693 728.994C668.968 731.557 665.212 734.075 661.452 736.585C660.255 737.384 657.871 739.683 656.358 738.666C655.617 738.167 655.063 737.294 654.509 736.613C653.804 735.744 653.096 734.877 652.386 734.011C641.634 720.894 630.451 708.134 619.833 694.906C609.264 681.739 599.279 668.05 590.963 653.333C582.799 638.886 574.338 624.573 566.715 609.83C559.092 595.086 552.235 579.688 548.747 563.387C547.938 559.605 547.329 555.786 546.962 551.935C546.781 550.044 543.802 550.026 543.984 551.935Z" fill="#FF008C"/>
<path d="M638.245 536.961C643.332 537.468 648.593 538.046 653.458 536.475C653.475 525.512 656.735 507.635 662.564 498.35C656.259 499.635 649.643 505.924 643.218 505.56C620.736 504.289 598.271 506.583 575.921 508.777C564.841 509.864 553.756 510.94 542.639 511.554C533.256 512.072 524.48 511.903 515.645 515.66C514.699 516.063 513.745 516.511 513.014 517.234C512.366 517.874 511.931 518.693 511.506 519.506C507.299 527.566 502.212 536.515 499.961 545.327C521.155 538.7 545.731 536.974 567.958 535.62C591.373 534.193 614.902 534.634 638.245 536.961Z" fill="#FF008C"/>
<path d="M638.251 538.449C643.46 538.969 648.771 539.483 653.859 537.91C654.489 537.716 654.949 537.144 654.952 536.475C654.979 529.994 655.877 523.5 657.273 517.179C658.647 510.956 660.47 504.559 663.855 499.101C664.575 497.941 663.391 496.649 662.174 496.914C657.22 497.993 653.135 501.226 648.471 503.04C647.353 503.475 646.175 503.858 644.981 504.015C643.583 504.199 642.144 504.009 640.744 503.946C637.524 503.801 634.3 503.726 631.076 503.711C618.096 503.65 605.135 504.557 592.215 505.726C579.445 506.881 566.698 508.294 553.915 509.301C547.739 509.788 541.56 510.091 535.375 510.415C529.616 510.716 523.799 511.258 518.295 513.079C515.451 514.021 512.426 515.035 510.794 517.721C509.109 520.495 507.707 523.502 506.217 526.386C503.147 532.328 500.224 538.435 498.531 544.931C498.253 545.997 499.256 547.106 500.362 546.762C516.85 541.637 534.126 539.584 551.281 538.237C569.609 536.798 587.969 535.96 606.355 536.444C617.007 536.725 627.647 537.398 638.251 538.449C640.156 538.638 640.143 535.66 638.251 535.472C619.261 533.591 600.156 532.935 581.082 533.528C563.373 534.078 545.522 535.251 527.975 537.752C518.377 539.119 508.836 541.011 499.571 543.891L501.402 545.722C502.895 539.991 505.371 534.598 508.047 529.335C509.393 526.685 510.797 524.064 512.18 521.433C512.732 520.384 513.214 519.129 514.072 518.286C515.042 517.334 516.537 516.865 517.784 516.405C523.147 514.427 528.806 513.762 534.48 513.44C540.553 513.095 546.625 512.839 552.691 512.373C577.904 510.439 603.024 506.827 628.35 506.689C631.821 506.67 635.292 506.716 638.761 506.842C641.777 506.952 644.729 507.321 647.67 506.457C653.037 504.879 657.476 500.981 662.966 499.785L661.285 497.598C657.771 503.263 655.829 509.926 654.402 516.387C652.951 522.958 652.003 529.737 651.975 536.475L653.068 535.04C648.243 536.53 643.189 535.965 638.251 535.472C636.346 535.282 636.359 538.26 638.251 538.449Z" fill="#FF008C"/>
<path d="M421.181 488.717C409.823 510.575 398.673 532.543 387.734 554.615C387.047 546.771 386.377 539.05 385.089 531.274C382.217 513.931 379.057 497.526 367.486 483.689C365.858 481.744 364.071 479.832 361.775 478.754C350.071 473.257 335.788 474.896 324.177 480.168C315.748 483.996 314.555 495.319 317.057 503.261C319.358 510.564 323.94 516.961 326.471 524.188C331.851 539.551 327.754 557.661 327.63 573.586C327.493 591.345 328.732 609.189 332.622 626.55C334.336 634.199 335.753 640.149 341.611 645.866C347.041 651.167 354.193 654.7 361.655 655.997C387.883 660.554 409.68 641.409 424.081 621.869C441.482 598.258 453.661 573.89 462.94 546.041C464.639 540.942 466.213 535.799 467.577 530.6" fill="white"/>
<path d="M419.891 487.965C411.049 504.983 402.332 522.066 393.743 539.213C391.3 544.091 388.867 548.975 386.445 553.863L389.218 554.614C388.4 545.28 387.423 536.005 385.826 526.768C384.467 518.904 382.886 511.034 380.208 503.498C377.516 495.921 373.703 488.817 368.534 482.637C367.248 481.1 365.877 479.641 364.235 478.479C362.577 477.304 360.576 476.558 358.662 475.907C354.769 474.583 350.634 473.947 346.528 473.864C342.371 473.779 338.191 474.276 334.142 475.212C330.257 476.111 326.231 477.363 322.697 479.24C317.019 482.257 314.596 488.737 314.416 494.859C314.192 502.516 317.702 509.246 321.095 515.884C323.07 519.748 324.925 523.643 326.029 527.857C327.111 531.989 327.573 536.242 327.704 540.503C327.973 549.207 326.923 557.875 326.4 566.549C325.847 575.732 326.09 584.999 326.668 594.176C327.265 603.656 328.393 613.116 330.233 622.437C331.7 629.873 333.14 637.8 337.896 643.933C347.764 656.661 365.666 660.456 380.75 656.792C395.364 653.242 407.72 643.346 417.539 632.312C422.834 626.361 427.506 619.873 431.952 613.273C436.675 606.261 441.058 599.02 445.069 591.578C453.154 576.576 459.699 560.773 464.983 544.581C466.448 540.09 467.804 535.564 469.008 530.996C469.497 529.142 466.626 528.351 466.138 530.205C461.807 546.633 455.832 562.749 448.556 578.099C441.541 592.9 433.111 607 423.448 620.223C414.977 631.814 404.67 642.719 391.803 649.42C378.706 656.241 362.514 657.63 349.431 649.958C346.065 647.985 342.936 645.475 340.476 642.431C338.313 639.754 336.867 636.621 335.861 633.349C333.385 625.294 332.017 616.752 330.971 608.408C329.825 599.269 329.273 590.062 329.138 580.854C329.013 572.303 329.578 563.863 330.197 555.342C330.794 547.115 331.166 538.78 329.683 530.621C328.944 526.56 327.637 522.69 325.912 518.945C324.153 515.129 322.063 511.474 320.333 507.643C317.72 501.855 316.342 495.431 318.325 489.22C319.178 486.551 320.758 484.037 323.116 482.459C326.185 480.405 330.153 479.293 333.695 478.385C341.455 476.395 349.8 476.138 357.474 478.645C359.291 479.239 361.17 479.924 362.733 481.049C364.26 482.148 365.514 483.629 366.703 485.072C369.211 488.116 371.383 491.436 373.235 494.917C376.833 501.677 379.11 509.031 380.794 516.477C382.618 524.543 383.995 532.764 384.93 540.978C385.447 545.516 385.843 550.065 386.241 554.614C386.359 555.951 388.3 556.808 389.015 555.366C397.532 538.183 406.175 521.062 414.946 504.007C417.441 499.155 419.947 494.309 422.462 489.468C423.344 487.77 420.776 486.263 419.891 487.965Z" fill="#FF008C"/>
<path d="M331.625 417.972L460.13 542.012L684.891 511.746L735.995 331.144C728.186 322.993 720.377 314.842 712.568 306.691C695.829 289.219 679.09 271.746 662.351 254.274C646.665 237.901 630.979 221.529 615.294 205.156C611.171 200.853 607.202 196.284 602.871 192.189C598.496 188.053 590.11 189.305 584.395 189.726C573.39 190.537 562.657 193.344 551.964 195.911C518.96 203.833 484.184 209.482 451.305 201.057C437.908 197.624 424.718 191.857 410.907 192.554C404.49 192.878 397.657 194.962 393.927 200.194C390.197 205.426 391.436 214.23 397.44 216.518C391.039 212.863 383.312 211.593 376.077 213.006C370.824 214.033 365.328 217.047 363.973 222.226C361.76 230.689 370.236 234.478 376.815 237.018C374.467 236.183 371.714 237.132 370.043 238.979C368.372 240.827 367.689 243.417 367.767 245.907C367.891 249.9 370.114 254.921 373.564 257.186C377.447 259.734 383.215 260.834 387.751 261.39C387.415 261.345 384.209 272.186 383.871 273.216C382.654 276.926 381.049 280.388 379.779 284.102C376.954 292.369 374.134 300.637 371.263 308.888C363.369 331.579 355.285 354.204 347.006 376.757C341.952 390.522 336.826 404.262 331.625 417.972Z" fill="white"/>
<path d="M330.579 419.025C335.996 424.253 341.413 429.482 346.83 434.711C359.308 446.755 371.786 458.799 384.263 470.843C398.098 484.197 411.933 497.551 425.769 510.906C435.411 520.214 445.054 529.521 454.697 538.829C456.095 540.178 457.485 541.948 459.085 543.064C460.437 544.008 463.432 543.057 464.935 542.854C475.831 541.387 486.728 539.92 497.624 538.453C515.159 536.091 532.694 533.73 550.23 531.369C569.684 528.749 589.138 526.13 608.592 523.51L658.058 516.849C666.737 515.68 675.417 514.511 684.096 513.343C684.495 513.289 684.894 513.235 685.294 513.181C685.79 513.115 686.206 512.59 686.333 512.142C687.813 506.913 689.293 501.683 690.772 496.454C694.397 483.646 698.021 470.838 701.645 458.03C706.192 441.961 710.739 425.892 715.286 409.824C719.533 394.813 723.781 379.803 728.028 364.793C730.748 355.181 733.468 345.57 736.187 335.959C736.583 334.56 737.28 332.995 737.437 331.542C737.568 330.328 736.73 329.752 735.939 328.927C734.452 327.374 732.965 325.822 731.477 324.269C728.502 321.164 725.527 318.059 722.553 314.954C716.695 308.839 710.837 302.725 704.979 296.611C681.527 272.132 658.075 247.652 634.623 223.173C628.81 217.105 622.997 211.038 617.184 204.97C614.403 202.068 611.7 199.093 608.935 196.176C606.724 193.843 604.443 190.923 601.528 189.443C596.32 186.798 589.982 187.793 584.402 188.237C576.462 188.869 568.662 190.415 560.917 192.231C529.33 199.635 497.005 207.102 464.401 202.187C456.538 201.001 448.926 198.943 441.328 196.638C433.998 194.414 426.63 192.179 418.987 191.336C408.174 190.144 390.943 192.568 390.347 206.567C390.14 211.425 392.474 216.048 397.052 217.953C398.622 218.606 399.646 216.037 398.199 215.232C392.323 211.967 385.528 210.424 378.817 211.113C373.502 211.658 367.787 213.503 364.455 217.949C361.559 221.811 361.319 227.196 364.318 231.053C367.274 234.855 372.072 236.763 376.426 238.453L377.218 235.582C373.469 234.479 369.547 236.362 367.693 239.74C365.706 243.362 366.012 247.776 367.508 251.509C369.004 255.242 371.513 258.08 375.184 259.755C379.15 261.565 383.461 262.335 387.758 262.878L387.007 260.104C386.267 260.491 386.026 261.546 385.768 262.261C385.263 263.66 384.827 265.085 384.384 266.504C383.582 269.068 382.87 271.668 381.97 274.2C380.038 279.642 377.91 285.001 376.04 290.47C374.07 296.231 372.095 301.991 370.096 307.742C361.949 331.19 353.59 354.564 345.026 377.863C340.151 391.126 335.207 404.363 330.197 417.576C329.517 419.369 332.394 420.144 333.068 418.367C341.722 395.546 350.174 372.648 358.426 349.678C362.532 338.247 366.588 326.799 370.596 315.333C374.539 304.055 378.044 292.553 382.357 281.413C383.813 277.652 385.216 273.93 386.395 270.077C386.918 268.368 387.443 266.659 387.996 264.96C388.204 264.322 388.41 263.683 388.638 263.052C388.961 262.163 389.201 262.314 388.509 262.675C389.961 261.917 389.078 260.068 387.758 259.901C381.905 259.161 374.527 258.018 371.273 252.482C369.776 249.935 368.879 246.771 369.393 243.81C369.977 240.454 372.775 237.378 376.426 238.453C378.301 239.005 378.966 236.261 377.218 235.582C373.736 234.231 369.949 232.735 367.311 229.988C364.254 226.803 364.569 222.039 367.546 218.881C370.813 215.414 375.945 214.174 380.539 213.965C386.195 213.707 391.755 215.057 396.696 217.803L397.843 215.082C393.434 213.248 392.517 207.449 393.946 203.38C395.837 197.999 401.879 195.403 407.076 194.469C420.554 192.046 434.253 197.799 446.974 201.421C474.062 209.131 502.418 207.355 529.805 202.224C543.676 199.625 557.256 195.741 571.104 193.064C577.458 191.836 583.909 191.076 590.375 190.764C592.968 190.639 595.645 190.624 598.166 191.325C601.193 192.166 603.154 194.475 605.275 196.658C625.61 217.593 645.578 238.909 665.769 259.985C686.227 281.339 706.684 302.692 727.141 324.045C729.744 326.762 732.347 329.479 734.95 332.196L734.567 330.748C732.875 336.73 731.182 342.711 729.49 348.693C725.424 363.059 721.359 377.426 717.293 391.793C712.374 409.179 707.454 426.565 702.535 443.95C698.28 458.988 694.024 474.026 689.769 489.063C688.365 494.025 686.961 498.986 685.557 503.947C685.119 505.495 684.681 507.043 684.244 508.591C684.029 509.35 683.617 510.243 683.552 511.033C683.544 511.136 683.491 511.249 683.463 511.35L684.502 510.31C676.999 511.321 669.495 512.331 661.992 513.342C644.119 515.748 626.246 518.155 608.373 520.562C586.773 523.47 565.174 526.379 543.574 529.288C524.845 531.81 506.117 534.331 487.388 536.853L468.838 539.351C466.028 539.73 462.856 539.766 460.116 540.526C459.999 540.558 459.864 540.56 459.742 540.576L461.19 540.959C456.926 536.843 452.662 532.727 448.397 528.611C438.158 518.727 427.919 508.844 417.68 498.96C405.343 487.053 393.007 475.145 380.67 463.237C369.958 452.897 359.247 442.558 348.535 432.219C345.014 428.82 341.492 425.42 337.97 422.021C336.294 420.403 334.679 418.646 332.906 417.132C332.828 417.066 332.758 416.99 332.685 416.919C331.306 415.588 329.198 417.691 330.579 419.025Z" fill="#FF008C"/>
<path d="M385.996 262.914C391.853 263.635 397.967 261.994 402.677 258.44C403.317 257.956 403.65 257.155 403.211 256.403C402.841 255.772 401.82 255.382 401.174 255.869C396.814 259.159 391.418 260.605 385.996 259.937C385.197 259.839 384.508 260.692 384.508 261.426C384.508 262.312 385.195 262.816 385.996 262.914Z" fill="#FF008C"/>
<path d="M415.757 357.731C418.014 352.919 423.495 350.51 428.28 348.954C433.682 347.198 439.749 346.894 444.519 350.422C446.061 351.562 447.547 348.979 446.022 347.851C440.663 343.888 433.567 344.108 427.488 346.084C422.005 347.866 415.771 350.718 413.187 356.228C412.378 357.953 414.944 359.466 415.757 357.731Z" fill="#FF008C"/>
<path d="M427.616 375.374C432.156 371.156 438.954 370.055 444.655 372.381C445.4 372.685 446.291 372.052 446.486 371.342C446.721 370.489 446.194 369.816 445.447 369.511C438.769 366.786 430.766 368.387 425.511 373.269C424.104 374.576 426.213 376.677 427.616 375.374Z" fill="#FF008C"/>
<path d="M385.747 386.729C386.471 387.665 386.061 389.306 385.702 390.291C385.253 391.523 384.524 392.468 383.384 393.107C380.123 394.933 376.267 395.656 372.558 395.636C370.896 395.627 368.743 395.569 367.778 393.969C367.039 392.743 367.112 391.055 367.697 389.781C368.823 387.33 371.689 386.183 374.125 385.529C375.914 385.049 377.746 384.764 379.602 384.82C381.532 384.877 384.35 385.244 385.747 386.729C387.063 388.127 389.166 386.019 387.853 384.624C386.155 382.821 383.249 382.195 380.886 381.934C378.568 381.677 376.217 381.961 373.957 382.501C370.515 383.323 366.673 385.003 365.073 388.389C364.173 390.293 363.995 392.579 364.774 394.554C365.757 397.043 368.018 398.209 370.568 398.505C375.239 399.047 380.451 398.058 384.591 395.839C388.323 393.84 390.679 388.282 387.853 384.624C387.357 383.983 386.27 384.113 385.748 384.624C385.113 385.245 385.259 386.096 385.747 386.729Z" fill="#FF008C"/>
<path d="M375.486 389.753C376.077 392.414 375.082 396.498 371.731 396.376C368.361 396.253 365.409 394.085 366.647 390.417C367.063 389.187 367.872 388.094 368.927 387.338C370.612 386.131 373.252 385.921 374.621 387.718C375.071 388.309 375.325 389.028 375.486 389.753Z" fill="#FF008C"/>
<path d="M374.051 390.149C374.07 390.241 374.089 390.333 374.105 390.425C374.162 390.746 374.043 390.485 374.108 390.412C374.06 390.466 374.15 390.919 374.153 391.007C374.159 391.177 374.159 391.347 374.154 391.516C374.149 391.706 374.188 392.066 374.099 392.236L374.124 392.046C374.114 392.114 374.103 392.182 374.091 392.25C374.072 392.352 374.052 392.453 374.029 392.554C373.991 392.721 373.948 392.886 373.898 393.05C373.868 393.147 373.836 393.243 373.801 393.339L373.766 393.434C373.706 393.585 373.718 393.559 373.801 393.356C373.828 393.487 373.55 393.854 373.48 393.966C373.469 393.983 373.328 394.211 373.319 394.207C373.311 394.203 373.563 393.922 373.376 394.132C373.25 394.275 373.117 394.404 372.981 394.538C372.75 394.765 373.263 394.366 372.986 394.535C372.906 394.585 372.829 394.639 372.747 394.685C372.73 394.695 372.492 394.815 372.491 394.814C372.483 394.785 372.842 394.69 372.483 394.8C372.386 394.829 372.288 394.847 372.191 394.873C371.857 394.964 372.529 394.869 372.173 394.878C371.943 394.884 371.718 394.89 371.488 394.874C371.379 394.867 370.795 394.769 371.167 394.848C370.898 394.791 370.629 394.749 370.363 394.676C370.141 394.616 369.926 394.539 369.71 394.463C369.373 394.345 369.888 394.578 369.704 394.461C369.629 394.412 369.536 394.381 369.456 394.34C369.264 394.24 369.077 394.13 368.898 394.008C368.829 393.961 368.572 393.733 368.86 393.988C368.756 393.895 368.649 393.807 368.55 393.709C368.48 393.64 368.138 393.208 368.378 393.547C368.26 393.38 368.148 393.211 368.054 393.029C368.008 392.941 367.92 392.642 368.036 393.009C368.005 392.91 367.967 392.813 367.938 392.713C367.914 392.628 367.898 392.541 367.875 392.456C367.776 392.082 367.866 392.671 367.86 392.366C367.855 392.134 367.854 391.908 367.864 391.676C367.88 391.286 367.783 391.975 367.878 391.584C367.909 391.457 367.931 391.33 367.965 391.204C368.024 390.979 368.096 390.757 368.181 390.541C368.073 390.815 368.258 390.385 368.266 390.37C368.352 390.198 368.447 390.03 368.548 389.867C368.784 389.49 368.971 389.252 369.419 388.843C369.427 388.836 369.788 388.531 369.562 388.708C369.66 388.631 369.765 388.56 369.869 388.492C370.098 388.344 370.34 388.215 370.59 388.107C370.538 388.129 370.305 388.207 370.563 388.127C370.713 388.08 370.861 388.028 371.014 387.988C371.128 387.959 371.244 387.939 371.359 387.913C371.529 387.885 371.513 387.886 371.311 387.915C371.389 387.907 371.466 387.9 371.544 387.896C371.777 387.882 372.006 387.894 372.238 387.91C371.848 387.883 372.211 387.912 372.294 387.93C372.443 387.964 372.586 388.012 372.731 388.057C373.075 388.164 372.489 387.896 372.793 388.09C372.923 388.173 373.057 388.244 373.184 388.332C372.922 388.15 373.14 388.297 373.2 388.362C373.297 388.466 373.401 388.56 373.491 388.672C373.294 388.426 373.57 388.816 373.583 388.837C373.611 388.885 373.846 389.374 373.754 389.149C373.885 389.471 373.973 389.811 374.051 390.149C374.226 390.908 375.139 391.428 375.881 391.188C376.675 390.931 377.109 390.17 376.921 389.357C376.573 387.848 375.813 386.413 374.445 385.604C373.241 384.892 371.799 384.785 370.452 385.064C367.693 385.636 365.406 388.223 364.977 390.977C364.771 392.296 364.913 393.644 365.635 394.797C366.254 395.786 367.191 396.575 368.252 397.054C370.498 398.069 373.427 398.364 375.291 396.448C377.057 394.633 377.432 391.746 376.921 389.357C376.758 388.594 375.824 388.079 375.09 388.317C374.286 388.577 373.876 389.332 374.051 390.149Z" fill="#FF008C"/>
<path d="M312.828 472.99C289.374 467.69 270.217 444.432 271.404 420.067C272.162 404.506 279.846 390.153 295.075 384.511C305.536 380.635 317.801 382.023 327.131 388.139C338.304 395.462 344.525 408.485 347.457 421.518C349.518 430.685 350.205 440.329 347.922 449.443C345.277 460.003 338.039 472.012 326.355 473.942C324.249 474.29 322.096 474.16 319.965 474.024C317.554 473.87 315.169 473.519 312.828 472.99Z" fill="#84FF20"/>
<path d="M324.516 467.345C331.954 478.372 338.401 490.067 343.754 502.244C345.313 505.79 347.956 511.592 352.973 508.983C358.142 506.296 353.233 498.571 351.721 495.052C346.404 482.675 340.718 470.455 334.493 458.506" fill="#84FF20"/>
<path d="M329.328 487.713C333.254 488.992 337.38 489.648 341.508 489.666C344.832 489.68 349.044 488.153 352.229 488.639C352.96 488.75 353.593 489.22 354.079 489.778C356.119 492.118 355.538 496.228 352.929 497.912C359.17 495.225 361.525 503.45 358.598 507.616C360.713 507.65 362.749 509.019 363.578 510.965C364.408 512.912 363.986 515.328 362.546 516.878C364.871 517.794 366.316 520.392 366.164 522.886C365.679 530.888 352.841 534.054 346.617 532.236" fill="white"/>
<path d="M328.926 489.149C331.932 490.108 335.027 490.727 338.171 491.002C341.09 491.258 343.813 491.019 346.687 490.519C348.727 490.165 352.209 489.09 353.392 491.415C354.263 493.125 353.772 495.516 352.171 496.627C350.893 497.514 351.648 500.027 353.318 499.347C355.301 498.541 357.074 498.873 357.924 500.99C358.69 502.895 358.444 505.171 357.306 506.865C356.64 507.856 357.537 509.051 358.591 509.105C361.961 509.277 363.714 513.245 361.487 515.826C360.932 516.47 360.843 517.752 361.788 518.164C364.351 519.28 365.293 522.198 364.234 524.723C363.417 526.672 361.652 528.047 359.84 529.019C356.131 531.01 351.118 531.953 347.006 530.801C345.158 530.283 344.369 533.155 346.214 533.671C351.452 535.138 358.023 533.852 362.526 530.888C364.794 529.394 366.758 527.261 367.404 524.558C368.242 521.054 366.706 517.081 363.291 515.593L363.592 517.931C365.434 515.796 366.043 512.832 364.857 510.215C363.739 507.749 361.243 506.263 358.591 506.128L359.876 508.368C361.631 505.756 361.775 502.151 360.429 499.336C358.951 496.245 355.625 495.217 352.527 496.477L353.674 499.197C358.348 495.954 357.668 487.222 351.125 487.058C347.876 486.977 344.742 488.151 341.501 488.178C337.503 488.211 333.517 487.491 329.717 486.278C327.888 485.694 327.105 488.567 328.926 489.149Z" fill="#FF008C"/>
<path d="M385.391 544.814C387.027 561.427 387.269 578.156 386.117 594.81C385.985 596.722 388.962 596.714 389.094 594.81C390.246 578.156 390.004 561.427 388.368 544.814C388.182 542.925 385.204 542.906 385.391 544.814Z" fill="#FF008C"/>
<path d="M352.634 486.43C352.252 486.204 351.985 485.935 351.738 485.528C351.657 485.397 351.584 485.262 351.515 485.123C351.486 485.065 351.373 484.804 351.446 484.983C351.33 484.698 351.241 484.399 351.166 484.1C351.005 483.453 350.956 482.949 350.993 482.245C351.007 481.978 351.03 481.795 351.106 481.48C351.149 481.304 351.202 481.133 351.258 480.96C351.412 480.482 351.151 481.117 351.346 480.735C351.472 480.49 351.605 480.254 351.761 480.027C351.821 479.944 351.818 479.945 351.752 480.029C351.799 479.971 351.847 479.914 351.897 479.859C351.98 479.766 352.065 479.676 352.154 479.59C352.26 479.488 352.37 479.384 352.488 479.296C352.289 479.444 352.671 479.191 352.672 479.19C352.798 479.114 352.93 479.043 353.064 478.982C352.825 479.091 353.282 478.916 353.294 478.913C353.861 478.748 354.385 478.747 355.042 478.827C355.566 478.891 356.37 479.097 356.986 479.258C357.764 479.46 358.602 479.001 358.817 478.218C359.029 477.449 358.559 476.59 357.778 476.387C355.977 475.919 354.001 475.484 352.19 476.146C350.661 476.705 349.394 477.888 348.713 479.368C347.281 482.48 348.003 487.152 351.131 489.001C352.784 489.977 354.284 487.405 352.634 486.43Z" fill="#FF008C"/>
<path d="M668.336 424.672C692.001 437.073 714.279 452.121 734.619 469.444C735.834 470.479 737.081 471.572 737.722 473.034C738.322 474.401 738.327 475.945 738.316 477.439C738.115 506.561 735.825 535.869 739.657 564.86C740.653 572.39 742.042 579.864 744.226 587.105C746.524 594.72 747.559 602.968 749.579 610.723C750.757 615.247 751.955 619.822 754.175 623.937C754.67 624.853 755.248 625.779 756.141 626.315C762.562 630.166 762.737 618.52 763.342 615.532C766.393 621.392 770.407 627.503 776.743 629.376C777.29 629.538 777.878 629.664 778.425 629.504C779.355 629.232 779.863 628.243 780.16 627.321C781.1 624.403 780.968 621.153 779.797 618.32C781.107 620.036 782.771 621.559 784.804 622.285C786.837 623.01 789.279 622.82 790.932 621.431C792.322 620.263 792.997 618.397 793.018 616.582C793.038 614.766 792.468 612.991 791.714 611.34C793.305 613.289 795.218 615.406 797.733 615.48C799.662 615.538 801.52 614.212 802.212 612.409C802.904 610.607 802.458 608.452 801.205 606.984C802.485 608.492 804.804 608.871 806.641 608.137C808.477 607.402 809.828 605.721 810.495 603.859C811.214 601.851 811.203 599.591 810.466 597.59C809.557 595.125 807.652 593.181 805.799 591.317C804.14 589.648 802.478 587.977 800.678 586.461C798.227 584.395 795.52 582.616 793.307 580.298C788.193 574.941 789.961 568.883 790.722 562.195C791.549 554.929 792.595 547.689 793.635 540.451C795.71 526.015 797.778 511.53 798.06 496.925C798.192 490.118 797.935 483.301 797.154 476.537C794.019 449.389 784.1 422.699 766.661 401.659C747.686 378.767 721.046 363.695 694.314 350.677" fill="white"/>
<path d="M667.582 425.957C683.455 434.289 698.708 443.786 713.172 454.378C720.329 459.618 727.387 465.076 734.061 470.924C735.875 472.514 736.77 473.969 736.823 476.438C736.874 478.771 736.793 481.114 736.757 483.447C736.682 488.279 736.566 493.109 736.445 497.939C735.962 517.248 735.405 536.617 737.167 555.881C738.014 565.143 739.308 574.424 741.649 583.436C742.801 587.871 744.116 592.226 745.051 596.718C745.982 601.19 746.784 605.692 747.888 610.126C748.948 614.383 750.082 618.661 751.892 622.67C753.166 625.491 755.116 628.727 758.667 628.569C763.396 628.359 764.03 621.565 764.474 618.079C764.577 617.275 764.632 616.664 764.774 615.927L762.054 616.283C764.847 621.618 768.415 627.31 774.083 629.943C776.86 631.233 779.916 631.746 781.326 628.408C782.71 625.133 782.507 621.189 781.229 617.924L778.741 619.372C781.512 622.908 786.23 625.635 790.675 623.373C795.562 620.885 794.848 614.77 792.996 610.588L790.659 612.392C793.141 615.41 796.837 618.479 800.858 616.131C804.63 613.929 804.771 609.123 802.254 605.931L800.149 608.036C803.474 611.571 808.851 609.845 811.102 606.047C813.888 601.345 812.161 596.097 808.784 592.287C805.179 588.22 800.989 584.963 796.83 581.516C794.954 579.961 793.097 578.235 792.144 575.94C791.303 573.916 791.204 571.71 791.337 569.55C791.662 564.287 792.561 558.983 793.255 553.758C794.055 547.733 794.951 541.72 795.804 535.701C797.473 523.925 799.014 512.105 799.453 500.208C800.259 478.342 796.696 456.307 788.529 435.974C780.858 416.877 769.117 399.896 753.737 386.199C738.282 372.434 720.224 361.987 701.809 352.728C699.568 351.601 697.317 350.491 695.062 349.392C693.347 348.556 691.836 351.122 693.56 351.962C711.383 360.649 729.066 370.104 744.662 382.454C752.412 388.591 759.621 395.434 765.905 403.075C772.194 410.721 777.482 419.185 781.807 428.084C790.717 446.42 795.683 466.91 796.48 487.266C797.388 510.449 792.894 533.317 789.958 556.206C789.609 558.93 789.321 561.662 788.953 564.384C788.666 566.497 788.344 568.618 788.313 570.755C788.246 575.337 789.918 579.24 793.278 582.359C795.16 584.106 797.275 585.574 799.253 587.205C801.312 588.903 803.197 590.802 805.071 592.699C806.778 594.429 808.582 596.282 809.25 598.689C809.908 601.056 809.437 603.861 807.681 605.656C806.2 607.17 803.8 607.575 802.254 605.931C800.909 604.5 798.995 606.572 800.149 608.036C801.664 609.957 801.199 613.12 798.658 613.867C796.174 614.596 794.132 611.951 792.764 610.287C791.603 608.876 789.8 610.677 790.426 612.091C791.662 614.882 792.51 619.621 788.789 620.955C785.592 622.102 782.676 619.602 780.846 617.267C779.943 616.114 777.83 617.365 778.358 618.715C779.374 621.31 779.668 624.255 778.721 626.925C778.598 627.274 778.412 627.91 778.026 628.068C777.545 628.267 776.61 627.784 776.165 627.613C775.097 627.202 774.086 626.622 773.153 625.962C769.289 623.224 766.777 618.892 764.624 614.78C764.054 613.691 762.146 613.88 761.904 615.136C761.554 616.951 761.451 618.806 761.102 620.623C760.824 622.072 760.444 624.62 759.057 625.436C758.485 625.773 757.648 625.496 757.021 625.105C755.369 624.076 754.512 621.404 753.841 619.681C752.291 615.7 751.236 611.493 750.281 607.335C749.277 602.962 748.501 598.541 747.546 594.157C746.605 589.841 745.256 585.649 744.195 581.366C741.971 572.391 740.746 563.179 739.977 553.974C738.41 535.245 738.96 516.429 739.429 497.666C739.547 492.927 739.66 488.187 739.733 483.447C739.768 481.196 739.826 478.94 739.802 476.689C739.78 474.644 739.464 472.67 738.226 470.991C737.051 469.397 735.43 468.181 733.926 466.917C732.243 465.502 730.548 464.103 728.839 462.72C725.521 460.032 722.155 457.404 718.746 454.833C704.84 444.346 690.173 434.868 674.897 426.501C672.969 425.445 671.031 424.409 669.084 423.387C667.389 422.497 665.883 425.066 667.582 425.957Z" fill="#FF008C"/>
<path d="M326.877 403.471C320.632 393.608 307.867 388.046 296.603 392.235C287.924 395.463 282.777 403.715 281.09 412.52C280.214 417.091 280.158 421.759 280.839 426.359C281.549 431.158 283.3 435.635 285.534 439.922C290.817 450.056 299.078 459.661 309.729 464.307C315.712 466.916 322.451 467.842 328.851 466.293C335.908 464.586 339.336 458.068 340.425 451.366C340.73 449.492 337.862 448.686 337.555 450.575C336.704 455.811 334.437 461.555 328.886 463.203C323.726 464.734 318.005 464.197 312.987 462.418C302.998 458.877 295.14 450.433 289.833 441.517C287.48 437.564 285.425 433.34 284.344 428.85C283.38 424.846 283.127 420.684 283.499 416.586C284.204 408.836 287.545 400.635 294.494 396.51C304.785 390.401 318.177 395.293 324.306 404.973C325.328 406.588 327.906 405.096 326.877 403.471Z" fill="#FF008C"/>
<path d="M330.36 415.149C333.252 420.429 335.324 426.09 336.559 431.982C336.952 433.856 339.822 433.063 339.43 431.191C338.144 425.059 335.94 419.141 332.931 413.646C332.01 411.965 329.439 413.466 330.36 415.149Z" fill="#FF008C"/>
<path d="M290.426 424.044C289.109 422.964 288.975 418.669 288.94 417.513C288.857 414.785 289.287 412.059 290.041 409.443C290.564 407.629 292.48 405.648 293.85 404.402C295.033 403.324 296.77 402.14 298.416 402.927C298.728 403.076 298.972 403.341 299.151 403.636C299.813 404.729 299.588 406.17 298.976 407.291C298.364 408.412 297.42 409.308 296.581 410.271C295.889 411.067 295.263 411.919 294.71 412.816C293.377 414.975 292.495 417.369 292.058 419.866C291.877 420.9 292.019 421.791 292.077 422.821C292.117 423.532 292.037 424.22 291.168 424.288C290.887 424.31 290.641 424.219 290.426 424.044Z" fill="white"/>
<path d="M291.476 422.991C290.936 422.494 290.775 421.32 290.655 420.538C290.515 419.623 290.464 418.69 290.434 417.765C290.379 416.108 290.479 414.455 290.773 412.823C291.061 411.227 291.364 409.618 292.302 408.267C293.081 407.143 294.102 406.12 295.143 405.238C295.855 404.635 297.876 403.293 298.056 405.021C298.207 406.475 296.87 407.726 295.991 408.698C294.83 409.983 293.78 411.366 292.944 412.885C292.033 414.54 291.335 416.333 290.891 418.17C290.669 419.089 290.48 420.035 290.478 420.984C290.477 421.471 290.529 421.956 290.561 422.441C290.57 422.583 290.541 422.82 290.59 422.953C290.591 423.014 290.593 423.074 290.596 423.135C290.594 423.416 290.787 423.291 291.175 422.758C289.564 421.711 288.071 424.287 289.673 425.329C291.519 426.53 293.542 425.14 293.571 423.085C293.586 422 293.373 420.971 293.56 419.888C293.752 418.773 294.084 417.667 294.481 416.61C295.291 414.451 296.557 412.509 298.096 410.803C299.496 409.252 300.886 407.638 301.027 405.453C301.161 403.369 299.891 401.467 297.752 401.224C295.686 400.988 293.904 402.304 292.477 403.643C291.056 404.977 289.643 406.506 288.875 408.321C287.975 410.448 287.649 412.976 287.494 415.265C287.377 416.98 287.446 418.722 287.659 420.427C287.857 422.017 288.125 423.95 289.371 425.096C290.779 426.392 292.89 424.292 291.476 422.991Z" fill="white"/>
<path d="M181.054 411.61C205.138 407.343 229.293 403.447 253.515 400.045C259.536 399.2 265.562 398.39 271.595 397.63C272.399 397.528 273.074 397.018 273.083 396.141C273.091 395.414 272.392 394.552 271.595 394.653C248.046 397.62 224.575 401.23 201.166 405.142C194.193 406.307 187.225 407.506 180.263 408.74C178.38 409.073 179.178 411.943 181.054 411.61Z" fill="#FF008C"/>
<path d="M141.894 419.026C148.181 417.741 154.48 416.511 160.785 415.318C162.665 414.962 161.869 412.092 159.994 412.447C153.688 413.641 147.39 414.871 141.102 416.156C139.227 416.539 140.021 419.409 141.894 419.026Z" fill="#FF008C"/>
<path d="M186.725 615.459C182 620.275 177.251 625.066 172.478 629.833C171.12 631.188 173.225 633.294 174.583 631.938C179.356 627.171 184.105 622.38 188.83 617.564C190.173 616.196 188.069 614.089 186.725 615.459Z" fill="#FF008C"/>
<path d="M309.935 477.398C296.619 493.814 283.041 510.018 269.203 525.997C255.365 541.976 241.268 557.73 226.921 573.253C218.877 581.956 210.754 590.584 202.555 599.14C201.229 600.523 203.331 602.631 204.66 601.245C219.285 585.983 233.666 570.488 247.792 554.763C261.918 539.038 275.789 523.084 289.399 506.91C297.029 497.843 304.575 488.706 312.04 479.503C313.237 478.028 311.143 475.909 309.935 477.398Z" fill="#FF008C"/>
<path d="M239.767 463.222C247.248 461.033 254.73 458.845 262.212 456.656C264.047 456.119 263.266 453.245 261.42 453.785C253.939 455.974 246.457 458.163 238.975 460.352C237.14 460.889 237.921 463.762 239.767 463.222Z" fill="#FF008C"/>
<path d="M259.416 370.792C262.589 372.472 265.763 374.151 268.937 375.831C269.624 376.195 270.587 376.028 270.973 375.297C271.337 374.608 271.174 373.649 270.439 373.26C267.266 371.581 264.092 369.901 260.918 368.222C260.231 367.858 259.268 368.024 258.882 368.755C258.518 369.444 258.681 370.403 259.416 370.792Z" fill="#FF008C"/>
<path d="M309.139 509.732L306.922 518.138C306.723 518.89 307.172 519.789 307.961 519.969C308.741 520.147 309.58 519.735 309.792 518.929L312.009 510.523C312.208 509.771 311.759 508.872 310.97 508.692C310.19 508.515 309.351 508.926 309.139 509.732Z" fill="#FF008C"/>
<path d="M394.597 216.438C398.183 219.257 402.768 220.679 407.326 220.089C408.123 219.985 408.814 219.479 408.814 218.6C408.814 217.876 408.129 217.008 407.326 217.112C403.595 217.595 399.702 216.692 396.702 214.332C396.071 213.836 395.213 213.716 394.597 214.332C394.081 214.849 393.961 215.938 394.597 216.438Z" fill="#FF008C"/>
<path d="M374.806 237.683C377.895 239.239 381.588 239.523 384.837 238.271C385.561 237.992 386.141 237.258 385.877 236.44C385.648 235.735 384.823 235.101 384.046 235.401C383.341 235.672 382.621 235.866 381.877 235.995C381.403 236.077 382.157 235.975 381.678 236.022C381.478 236.041 381.279 236.059 381.079 236.07C380.729 236.088 380.378 236.09 380.028 236.075C379.852 236.067 379.677 236.055 379.503 236.04C379.447 236.035 378.957 235.971 379.227 236.012C378.881 235.959 378.537 235.89 378.197 235.805C377.857 235.719 377.522 235.618 377.192 235.499C377.143 235.482 376.634 235.277 376.85 235.371C376.667 235.291 376.487 235.203 376.308 235.113C375.613 234.763 374.663 234.906 374.271 235.647C373.914 236.323 374.063 237.31 374.806 237.683Z" fill="#FF008C"/>
<path d="M582.884 543.075C592.368 551.947 605.669 556.414 618.594 555.271C622.315 554.943 625.978 554.177 629.503 552.936C631.298 552.304 630.525 549.427 628.711 550.066C613.861 555.292 596.504 551.742 584.989 540.97C583.591 539.662 581.481 541.763 582.884 543.075Z" fill="#FF008C"/>
<path d="M603.988 554.863C612.108 579.551 622.299 603.558 634.41 626.552C646.496 649.496 660.492 671.434 676.216 692.056C685.064 703.658 694.442 714.848 704.336 725.572C705.638 726.983 707.739 724.874 706.441 723.467C688.939 704.496 673.046 684.069 658.952 662.445C644.948 640.958 632.713 618.318 622.424 594.825C616.589 581.499 611.404 567.89 606.859 554.071C606.263 552.26 603.387 553.036 603.988 554.863Z" fill="#FF008C"/>
<path d="M490.101 739.52C495.51 717.843 501.633 696.344 508.47 675.073C515.306 653.803 522.851 632.76 531.088 611.992C535.714 600.328 540.562 588.753 545.623 577.271C546.389 575.534 543.825 574.017 543.053 575.769C533.989 596.33 525.596 617.187 517.917 638.306C510.282 659.303 503.346 680.554 497.125 702.012C493.596 714.187 490.299 726.43 487.23 738.729C486.766 740.588 489.637 741.381 490.101 739.52Z" fill="#FF008C"/>
<path d="M293.757 789.054C287.755 785.886 283.029 780.474 280.738 774.073C279.615 770.936 278.65 767.051 279.365 763.723C280.079 760.396 283.175 758.933 286.367 759.08C290.577 759.274 294.068 762.449 297.038 765.111C298.246 766.194 300.316 764.804 299.376 763.307C294.299 755.226 295.082 744.326 300.656 736.687C302.018 734.82 303.743 733.057 305.708 731.824C307.629 730.619 310.769 729.373 312.645 731.315C313.607 732.311 313.984 733.79 314.404 735.07C314.937 736.691 315.419 738.329 315.851 739.98C316.675 743.131 317.318 746.331 317.77 749.557C318.807 756.953 318.787 764.493 317.834 771.895C317.605 773.673 320.213 773.738 320.758 772.291C322.154 768.582 323.839 764.751 326.875 762.079C329.314 759.932 333.038 758.831 336.164 760.053C339.836 761.488 340.619 765.984 340.13 769.475C339.612 773.184 337.594 776.716 334.592 778.97L336.629 781.007C340.003 775.927 347.848 777.399 352.158 780.251C354.621 781.881 356.817 784.513 356.802 787.607C356.789 790.213 355.323 792.894 352.68 793.558L354.129 796.046C357.06 792.72 364.115 794.401 364.68 799.056C364.907 800.934 367.887 800.957 367.656 799.056C366.808 792.054 356.864 788.449 352.024 793.941C351.056 795.038 351.979 796.804 353.472 796.429C359.565 794.898 361.205 787.258 358.267 782.333C355.115 777.05 348.205 774.113 342.194 774.817C338.89 775.204 335.927 776.691 334.059 779.504C333.268 780.694 334.893 782.443 336.095 781.541C341.944 777.148 345.293 768.602 341.962 761.665C338.637 754.737 329.344 755.706 324.477 760.24C321.238 763.257 319.419 767.433 317.888 771.499L320.811 771.895C321.764 764.497 321.743 757.016 320.758 749.622C320.269 745.952 319.56 742.316 318.603 738.739C318.162 737.09 317.67 735.455 317.129 733.837C316.579 732.195 315.983 730.479 314.75 729.21C310.294 724.625 303.358 729.177 300.008 732.818C296.346 736.799 294.049 741.93 293.297 747.271C292.445 753.325 293.532 759.6 296.806 764.81L299.143 763.006C295.933 760.129 292.344 756.995 287.938 756.278C284.332 755.691 280.272 756.625 277.978 759.653C275.41 763.044 276.053 767.98 276.973 771.854C277.896 775.745 279.639 779.484 282.009 782.704C284.729 786.4 288.189 789.479 292.255 791.625C293.948 792.519 295.454 789.95 293.757 789.054Z" fill="#FF008C"/>
<path d="M810.641 788.841C808.241 785.726 806.548 782.179 805.702 778.334C804.946 774.898 804.73 771.027 805.887 767.654C806.863 764.807 809.399 762.23 812.554 763.878C816.182 765.773 816.725 770.368 817.216 773.994L820.087 773.203C818.924 766.551 822.228 759.336 827.974 755.807C829.252 755.023 831.282 753.764 832.014 755.741C832.718 757.643 832.81 759.959 832.827 761.964C832.861 766.192 831.937 770.389 830.11 774.205C829.51 775.458 830.492 776.575 831.791 776.391C834.399 776.022 836.909 774.855 839.555 774.787C841.725 774.731 843.802 775.623 845.32 777.166C848.485 780.384 847.896 785.555 844.57 788.406L846.675 790.511C848.255 788.644 850.812 787.738 853.182 788.562C855.517 789.373 857.004 791.742 857.009 794.159C857.014 796.075 859.991 796.078 859.986 794.159C859.978 790.515 857.736 787.127 854.312 785.815C850.934 784.52 846.885 785.671 844.57 788.406C843.331 789.87 845.212 791.765 846.675 790.511C851.05 786.76 851.626 779.983 847.907 775.589C846.116 773.473 843.46 772.108 840.707 771.85C837.374 771.538 834.243 773.062 831 773.521L832.681 775.707C834.458 771.996 835.517 768.026 835.755 763.913C835.872 761.9 835.766 759.892 835.483 757.897C835.238 756.163 834.97 754.104 833.667 752.801C830.944 750.078 826.798 752.797 824.446 754.681C821.821 756.784 819.797 759.596 818.496 762.687C816.985 766.28 816.546 770.157 817.216 773.994C817.55 775.906 820.337 775.055 820.087 773.203C819.59 769.534 818.927 765.595 816.167 762.882C813.804 760.559 810.267 759.572 807.247 761.222C801.378 764.427 801.612 773.376 802.789 778.922C803.666 783.061 805.49 786.994 808.07 790.343C808.565 790.985 809.345 791.311 810.107 790.877C810.738 790.518 811.13 789.476 810.641 788.841Z" fill="#FF008C"/>
<path d="M368.762 369.402C370.503 366.794 372.782 364.576 375.453 362.93C378.022 361.345 381.367 359.77 384.456 360.298C390.639 361.355 393.528 369.127 394.716 374.42C396.175 380.929 395.966 387.672 396.322 394.295C396.502 397.641 396.714 401.104 397.532 404.365C398.263 407.282 399.823 410.135 402.618 411.511C405.601 412.979 408.927 412.093 410.995 409.546C413.482 406.484 413.381 402.499 413.094 398.772C412.948 396.874 409.969 396.859 410.117 398.772C410.357 401.886 410.739 405.68 408.309 408.093C406.037 410.35 402.971 408.961 401.535 406.509C399.892 403.706 399.713 400.018 399.466 396.854C399.209 393.577 399.139 390.29 399.012 387.007C398.765 380.625 398.324 374.079 395.856 368.111C393.687 362.867 389.511 357.195 383.234 357.232C379.742 357.253 376.156 358.876 373.293 360.78C370.46 362.664 368.079 365.073 366.191 367.9C365.124 369.497 367.702 370.989 368.762 369.402Z" fill="#FF008C"/>
<path d="M409.544 426.19C410.655 429.976 414.485 432.135 418.209 432.587C421.811 433.023 425.565 431.931 428.55 429.912C435.545 425.182 437.517 416.257 437.241 408.299C437.174 406.389 434.197 406.38 434.264 408.299C434.49 414.816 433.27 422.385 427.882 426.728C425.562 428.599 422.565 429.758 419.57 429.71C416.772 429.665 413.276 428.332 412.415 425.398C411.876 423.564 409.003 424.344 409.544 426.19Z" fill="#FF008C"/>
<path d="M433.971 409.544C434.38 409.235 434.808 408.952 435.256 408.702C435.452 408.593 435.651 408.489 435.853 408.392C435.968 408.336 436.085 408.284 436.202 408.231C436.35 408.167 436.319 408.18 436.112 408.268C436.171 408.244 436.231 408.22 436.291 408.197C436.738 408.023 437.198 407.878 437.664 407.763C437.913 407.702 438.164 407.65 438.417 407.606C438.48 407.596 438.543 407.585 438.607 407.576C438.77 407.552 438.733 407.556 438.496 407.589C438.61 407.604 438.764 407.558 438.879 407.547C439.282 407.509 439.636 407.407 439.931 407.111C440.189 406.853 440.384 406.429 440.367 406.059C440.334 405.315 439.709 404.491 438.879 404.57C436.57 404.79 434.329 405.569 432.468 406.974C432.146 407.217 431.896 407.458 431.784 407.863C431.686 408.22 431.731 408.694 431.934 409.01C432.329 409.623 433.306 410.046 433.971 409.544Z" fill="#FF008C"/>
<path d="M662.354 254.274C646.668 237.901 630.982 221.529 615.296 205.156C611.174 200.853 607.205 196.284 602.874 192.189C598.499 188.053 590.113 189.305 584.398 189.726C573.393 190.536 562.66 193.344 551.967 195.911C518.962 203.833 484.187 209.482 451.307 201.057C437.911 197.624 424.721 191.857 410.909 192.554C404.493 192.878 397.66 194.962 393.93 200.194C390.502 205.002 391.283 212.814 396.09 215.826C389.967 212.729 382.817 211.69 376.08 213.006C370.826 214.033 365.33 217.046 363.976 222.226C361.763 230.688 370.238 234.478 376.817 237.018C374.47 236.183 371.717 237.132 370.046 238.979C368.375 240.827 367.692 243.417 367.77 245.907C367.894 249.9 370.116 254.921 373.567 257.185C377.202 259.571 382.477 260.68 386.858 261.269C389.081 260.95 391.285 260.512 393.445 259.964C405.283 256.962 416.139 251.038 426.85 245.172C438.719 238.672 450.587 232.172 462.456 225.672C458.645 245.12 475.647 263.761 494.782 268.916C506.947 272.193 520.743 271.824 530.651 279.606C538.734 285.955 542.309 296.319 545.485 306.094C542.847 294.109 551.354 281.076 563.171 277.764C574.987 274.451 588.47 280.511 594.713 291.076C600.957 301.641 600.076 315.704 593.424 326.017C632.931 344.658 680.4 341.654 718.831 362.423C721.156 363.679 723.58 365.022 726.054 366.286C729.171 355.271 735.998 331.144 735.998 331.144C728.189 322.993 720.38 314.842 712.571 306.691C695.832 289.219 679.093 271.746 662.354 254.274Z" fill="#FF008C"/>
<path d="M663.409 253.221C646.933 236.024 630.233 219.012 613.987 201.597C612.256 199.741 610.542 197.87 608.795 196.03C606.941 194.078 605.088 191.885 602.905 190.294C599.664 187.933 595.344 187.639 591.47 187.745C581.059 188.027 570.766 189.916 560.655 192.292C538.506 197.497 516.375 202.711 493.54 203.607C482.296 204.048 470.98 203.493 459.906 201.43C449.054 199.409 438.761 195.403 428.033 192.913C418.085 190.604 405.459 189.08 396.614 195.473C392.953 198.12 390.557 201.947 390.351 206.519C390.164 210.663 391.842 214.773 395.342 217.111L396.844 214.54C391 211.661 384.475 210.404 377.987 211.209C372.724 211.862 367.142 213.937 364.054 218.502C361.382 222.451 361.533 227.706 364.571 231.376C367.548 234.971 372.191 236.811 376.424 238.453L377.216 235.582C373.711 234.536 370.047 236.125 368.061 239.13C366.096 242.106 365.93 245.929 366.777 249.303C367.632 252.707 369.529 256.104 372.41 258.186C375.473 260.4 379.393 261.449 383.051 262.153C384.966 262.522 386.657 262.819 388.588 262.499C390.912 262.112 393.211 261.594 395.481 260.963C399.846 259.75 404.087 258.141 408.235 256.327C416.905 252.533 425.14 247.807 433.43 243.266C443.357 237.83 453.284 232.394 463.21 226.957L461.023 225.276C458.032 241.326 468.005 256.224 481.179 264.522C488.482 269.121 496.505 271.074 504.918 272.513C513.347 273.955 522.429 275.206 529.435 280.532C537.606 286.744 541.003 297.12 544.052 306.489C544.647 308.317 547.31 307.573 546.922 305.698C544.2 292.535 555.102 279.194 568.314 278.392C582.144 277.552 594.366 287.829 596.919 301.215C598.496 309.48 596.615 318.192 592.141 325.265C591.74 325.901 591.964 326.968 592.675 327.302C625.524 342.701 662.57 343.319 696.682 354.614C701.479 356.202 706.21 358.002 710.81 360.097C715.766 362.355 720.467 365.082 725.306 367.571C726.158 368.009 727.22 367.644 727.492 366.681C729.456 359.74 731.42 352.799 733.385 345.857C734.264 342.75 735.143 339.642 736.023 336.534C736.472 334.945 737.144 333.282 737.405 331.648C737.633 330.226 736.433 329.443 735.526 328.496C733.319 326.193 731.112 323.889 728.905 321.586C724.831 317.333 720.756 313.08 716.682 308.828C708.319 300.098 699.955 291.368 691.592 282.639C682.198 272.833 672.803 263.027 663.409 253.221C662.081 251.835 659.978 253.942 661.304 255.326C680.42 275.279 699.535 295.232 718.651 315.185C724.084 320.856 729.516 326.526 734.948 332.196L734.566 330.748C731.251 342.462 727.936 354.176 724.622 365.89L726.808 365C718.678 360.817 710.787 356.53 702.172 353.379C693.764 350.302 685.101 347.974 676.376 345.99C658.751 341.982 640.827 339.368 623.311 334.865C613.338 332.302 603.513 329.107 594.178 324.731L594.712 326.768C603.274 313.23 602.459 293.857 589.867 283.021C578.486 273.227 560.903 272.448 550.507 284.114C545.087 290.196 542.385 298.429 544.052 306.489L546.922 305.698C544.332 297.737 541.566 289.555 536.193 282.984C530.707 276.275 522.819 273.038 514.543 271.258C506.16 269.456 497.397 268.882 489.429 265.501C482.04 262.367 475.319 257.271 470.487 250.846C465.158 243.759 462.244 234.922 463.894 226.068C464.129 224.808 462.905 223.731 461.708 224.387C446.765 232.57 431.935 241.017 416.822 248.881C409.624 252.627 402.212 256.037 394.363 258.183C392.633 258.656 390.885 259.063 389.122 259.394C387.1 259.773 385.562 259.623 383.55 259.224C380.257 258.572 376.496 257.683 373.818 255.538C371.059 253.329 369.369 249.398 369.261 245.907C369.139 241.97 371.806 237.074 376.424 238.453C378.296 239.012 378.964 236.26 377.216 235.582C373.761 234.242 370.012 232.759 367.375 230.055C364.525 227.132 364.438 222.758 366.958 219.553C369.823 215.91 374.832 214.435 379.266 214.049C384.804 213.566 390.362 214.657 395.342 217.111C397.061 217.958 398.445 215.609 396.844 214.54C393.655 212.41 392.757 208.08 393.611 204.519C394.62 200.315 398.196 197.422 402.067 195.866C411.029 192.262 421.537 194.232 430.542 196.604C440.78 199.301 450.704 202.89 461.175 204.667C471.512 206.422 482.019 206.974 492.491 206.622C513.824 205.904 534.821 201.595 555.505 196.587C565.874 194.077 576.133 191.909 586.78 191.019C590.711 190.69 594.973 190.233 598.786 191.509C600.865 192.205 602.275 193.641 603.799 195.162C605.676 197.035 607.489 198.971 609.293 200.913C626.364 219.293 643.951 237.213 661.304 255.326C662.632 256.712 664.735 254.605 663.409 253.221Z" fill="#FF008C"/>
<path d="M575.49 298.356C571.402 300.624 568.289 304.603 567.137 309.143C566.787 310.524 566.589 312.03 567.243 313.354C567.809 314.499 569.062 315.321 570.354 315.251C573.122 315.102 573.775 311.066 571.111 310.177C569.289 309.57 568.508 312.444 570.319 313.048C569.956 312.927 570.043 312.847 569.878 312.639L569.864 312.514C569.86 312.673 569.86 312.699 569.866 312.594C569.819 312.49 569.988 312.37 569.848 312.56C569.909 312.433 569.998 312.347 570.115 312.303C570.133 312.295 570.151 312.289 570.17 312.283C570.17 312.292 569.953 312.134 569.895 312.041C569.777 311.853 569.779 311.512 569.781 311.297C569.8 309.896 570.418 308.373 571.042 307.136C572.367 304.509 574.42 302.354 576.992 300.926C578.668 299.996 577.168 297.425 575.49 298.356Z" fill="#FF008C"/>
</svg>
