<svg width="1000" height="1000" viewBox="0 0 1000 1000" fill="none" xmlns="http://www.w3.org/2000/svg">
<path d="M463.015 338.561C406.776 358.916 352.299 384.137 300.392 413.849C286.995 421.517 273.613 429.604 262.768 440.588C251.923 451.571 243.715 465.874 242.904 481.288C242.305 492.663 247.716 505.975 258.886 508.209C267.558 509.943 275.832 504.407 283.048 499.294C342.112 457.44 408.076 425.349 477.461 404.712" fill="white"/>
<path d="M462.603 337.069C444.444 343.647 426.469 350.728 408.7 358.297C390.91 365.874 373.331 373.947 355.991 382.504C338.581 391.095 321.411 400.174 304.51 409.727C288.66 418.685 272.351 427.918 259.845 441.405C254.176 447.519 249.325 454.495 246.009 462.164C242.865 469.437 240.805 477.603 241.41 485.577C241.924 492.338 244.228 499.328 248.975 504.317C254.32 509.935 262.115 511.285 269.349 508.824C273.603 507.376 277.472 505.012 281.163 502.489C284.941 499.907 288.65 497.224 292.425 494.638C299.967 489.472 307.616 484.463 315.366 479.615C330.992 469.839 347.025 460.715 363.408 452.271C379.672 443.889 396.281 436.168 413.184 429.163C430.212 422.107 447.532 415.759 465.089 410.147C469.336 408.789 473.598 407.476 477.872 406.203C479.775 405.636 478.964 402.65 477.049 403.221C459.74 408.375 442.642 414.231 425.81 420.779C409.063 427.295 392.575 434.482 376.405 442.322C360.154 450.201 344.224 458.74 328.667 467.915C313.175 477.051 298.054 486.817 283.359 497.186C276.68 501.898 268.656 508.153 259.928 506.83C253.397 505.839 248.817 500.533 246.545 494.623C240.904 479.957 247.17 463.308 255.817 451.187C266.158 436.692 281.385 426.704 296.538 417.859C312.814 408.358 329.418 399.4 346.214 390.855C363.1 382.266 380.22 374.137 397.549 366.482C414.971 358.785 432.607 351.575 450.428 344.854C454.75 343.224 459.083 341.624 463.425 340.051C465.282 339.379 464.481 336.389 462.603 337.069Z" fill="#FF008C"/>
<path d="M291.992 367.568C304.571 335.708 317.15 303.849 329.728 271.989C350.71 277.282 371.692 282.574 392.673 287.866C393.646 288.111 394.722 288.432 395.219 289.304C395.768 290.269 395.371 291.474 394.966 292.508C382.88 323.404 372.143 354.829 362.796 386.662" fill="#84FF20"/>
<path d="M442.634 647.669C444.54 651.667 444.839 656.08 442.922 660.134C441.099 663.987 438.073 667.108 434.962 669.953C431.4 673.21 427.477 676.101 424.115 679.573C420.174 683.643 417.653 688.679 417.145 694.353C416.772 698.519 417.474 702.976 420.728 705.88C422.956 707.869 425.803 708.757 428.738 708.991C435.627 709.541 442.714 706.871 448.872 704.073C455.023 701.279 461.461 697.814 466.414 693.14L463.829 692.458C464.679 694.659 465.528 696.861 466.377 699.063C466.691 699.877 467.391 700.334 468.279 700.143C474.03 698.905 479.69 697.273 485.207 695.228C487.661 694.318 490.461 693.496 492.661 692.047C495.007 690.501 495.557 688.163 495.693 685.506C496.327 673.064 496.86 660.616 497.444 648.171C497.771 641.202 498.098 634.233 498.424 627.264C498.518 625.274 495.425 625.279 495.332 627.264C494.779 639.045 494.227 650.826 493.674 662.607C493.398 668.498 493.121 674.388 492.845 680.279C492.779 681.689 492.713 683.1 492.647 684.51C492.59 685.715 492.691 687.192 492.109 688.295C491.597 689.265 490.528 689.753 489.572 690.18C488.232 690.779 486.856 691.308 485.485 691.832C479.623 694.071 473.591 695.84 467.457 697.16L469.359 698.24C468.51 696.039 467.661 693.837 466.812 691.635C466.395 690.556 465.132 690.1 464.227 690.953C460.158 694.792 454.906 697.686 449.899 700.172C444.05 703.076 437.457 705.782 430.837 705.949C428.286 706.014 425.602 705.656 423.474 704.139C420.223 701.822 419.854 697.619 420.28 693.93C420.919 688.402 423.893 683.936 427.881 680.217C431.171 677.149 434.755 674.414 438.027 671.325C441.4 668.141 444.546 664.541 446.247 660.169C448.068 655.486 447.43 650.566 445.305 646.108C444.449 644.312 441.781 645.88 442.634 647.669Z" fill="#FF008C"/>
<path d="M443.965 646.889C450.365 659.997 438.721 668.818 430.102 676.199C427.308 678.592 424.481 681.021 422.39 684.047C419.565 688.136 418.231 693.232 418.69 698.181C418.81 699.471 419.054 700.771 419.642 701.926C426.985 716.366 457.996 699.008 465.316 692.047C466.165 694.248 467.014 696.45 467.863 698.652C475.379 697.05 482.741 694.733 489.82 691.744C491.106 691.201 492.451 690.58 493.231 689.423C493.99 688.296 494.078 686.863 494.141 685.506C495.052 666.092 495.963 646.678 496.873 627.264" fill="#FF008C"/>
<path d="M522.357 481.111C514.682 532.24 506.99 583.558 506.289 635.256C506.25 638.112 506.067 641.344 503.895 643.201C502.927 644.028 501.687 644.453 500.474 644.846C481.212 651.077 460.752 653.584 440.555 652.19C439.381 652.109 438.065 651.942 437.344 651.013C436.814 650.331 436.749 649.41 436.704 648.548C433.793 592.029 430.882 535.339 434.898 478.888" fill="white"/>
<path d="M520.872 480.7C516.938 506.903 513.007 533.114 509.997 559.443C508.502 572.523 507.236 585.632 506.317 598.766C505.857 605.33 505.484 611.901 505.213 618.475C505.077 621.764 504.966 625.053 504.883 628.343C504.804 631.425 504.914 634.552 504.647 637.624C504.553 638.7 504.353 639.831 503.85 640.797C503.183 642.08 501.999 642.697 500.676 643.153C497.659 644.192 494.57 645.056 491.484 645.865C485.412 647.455 479.245 648.69 473.027 649.55C466.792 650.413 460.498 650.886 454.205 650.994C451.067 651.048 447.927 651.011 444.791 650.879C443.268 650.814 441.72 650.79 440.205 650.616C438.75 650.449 438.342 649.99 438.256 648.548C436.664 621.874 435.507 595.136 434.861 568.422C434.221 541.89 434.299 515.325 435.813 488.823C436.002 485.51 436.215 482.198 436.449 478.888C436.59 476.902 433.497 476.91 433.357 478.888C431.424 506.196 431.093 533.59 431.608 560.954C432.123 588.349 433.476 615.718 434.882 643.078C434.967 644.735 435.05 646.393 435.138 648.051C435.213 649.466 435.267 650.982 436.255 652.106C438.028 654.121 441.43 653.813 443.851 653.929C450.356 654.241 456.88 654.151 463.375 653.664C476.194 652.702 489.105 650.336 501.296 646.204C503.957 645.302 506.011 643.904 507.031 641.198C507.97 638.707 507.826 635.896 507.871 633.28C507.985 626.534 508.218 619.79 508.552 613.052C509.229 599.412 510.325 585.795 511.708 572.21C514.466 545.138 518.365 518.202 522.389 491.295C522.876 488.037 523.365 484.78 523.854 481.522C524.146 479.575 521.167 478.736 520.872 480.7Z" fill="#FF008C"/>
<path d="M286.836 379.939C291.167 368.969 295.221 357.895 300.771 347.532C303.403 347.759 305.643 350.225 305.617 352.866C309.843 348.988 315.588 347.086 321.3 346.558C327.012 346.031 332.758 346.771 338.435 347.586C344.972 348.524 351.519 349.57 357.836 351.494C360.466 352.295 363.09 353.255 365.835 353.41C368.579 353.565 371.544 352.772 373.274 350.635C372.181 351.985 371.99 355.844 371.522 357.57C370.846 360.063 370.122 362.544 369.352 365.01C367.756 370.12 366.016 375.225 363.958 380.171C362.525 383.615 360.375 385.987 358.378 389.028C355.798 392.956 354.815 398.021 353.443 402.461" fill="#FF008C"/>
<path d="M488.809 634.003C495.208 647.111 483.565 655.931 474.946 663.313C472.152 665.706 469.325 668.134 467.234 671.161C464.409 675.25 463.075 680.346 463.534 685.294C463.654 686.585 463.898 687.885 464.485 689.04C471.829 703.48 502.84 686.122 510.16 679.16C511.009 681.362 511.858 683.564 512.707 685.765C520.222 684.164 527.585 681.847 534.664 678.858C535.95 678.315 537.295 677.694 538.075 676.536C538.834 675.41 538.922 673.977 538.985 672.62C539.896 653.206 540.806 633.792 541.717 614.378" fill="white"/>
<path d="M487.478 634.783C489.384 638.781 489.683 643.193 487.765 647.248C485.943 651.101 482.917 654.222 479.806 657.067C476.244 660.324 472.32 663.215 468.959 666.687C465.018 670.757 462.497 675.793 461.989 681.467C461.616 685.633 462.318 690.09 465.571 692.994C467.8 694.983 470.647 695.87 473.582 696.105C480.471 696.655 487.558 693.985 493.716 691.187C499.866 688.392 506.304 684.928 511.258 680.254L508.673 679.571C509.522 681.773 510.372 683.975 511.221 686.177C511.535 686.991 512.235 687.448 513.123 687.256C518.874 686.019 524.534 684.387 530.05 682.342C532.505 681.432 535.305 680.61 537.505 679.161C539.851 677.615 540.401 675.277 540.536 672.62C541.171 660.178 541.704 647.73 542.287 635.285C542.614 628.316 542.941 621.347 543.268 614.378C543.361 612.388 540.269 612.393 540.175 614.378C539.623 626.159 539.07 637.94 538.518 649.721C538.241 655.612 537.965 661.502 537.689 667.393C537.623 668.803 537.556 670.214 537.49 671.624C537.434 672.829 537.534 674.306 536.952 675.409C536.441 676.378 535.372 676.866 534.416 677.294C533.076 677.893 531.7 678.422 530.329 678.945C524.467 681.185 518.435 682.954 512.301 684.274L514.203 685.354C513.354 683.152 512.505 680.951 511.655 678.749C511.239 677.67 509.976 677.213 509.071 678.067C505.002 681.906 499.75 684.799 494.743 687.286C488.893 690.19 482.301 692.895 475.681 693.063C473.13 693.128 470.445 692.77 468.317 691.253C465.066 688.936 464.698 684.733 465.124 681.043C465.762 675.516 468.736 671.05 472.725 667.331C476.015 664.263 479.599 661.528 482.871 658.438C486.243 655.255 489.389 651.655 491.09 647.282C492.912 642.6 492.274 637.68 490.149 633.222C489.292 631.426 486.625 632.994 487.478 634.783Z" fill="#FF008C"/>
<path d="M567.209 468.225C559.533 519.354 551.842 570.672 551.14 622.369C551.102 625.226 550.919 628.458 548.747 630.314C547.779 631.142 546.538 631.567 545.326 631.959C526.064 638.19 505.604 640.698 485.407 639.304C484.233 639.223 482.917 639.056 482.195 638.126C481.666 637.445 481.6 636.523 481.556 635.662C478.644 579.142 475.734 522.453 479.749 466.001" fill="white"/>
<path d="M565.715 467.814C561.782 494.017 557.85 520.228 554.841 546.556C553.346 559.637 552.08 572.745 551.16 585.88C550.701 592.444 550.328 599.014 550.056 605.589C549.92 608.877 549.81 612.167 549.726 615.457C549.648 618.539 549.758 621.665 549.491 624.738C549.397 625.814 549.197 626.944 548.694 627.911C548.026 629.194 546.843 629.811 545.519 630.267C542.502 631.305 539.413 632.17 536.328 632.979C530.256 634.569 524.088 635.804 517.871 636.664C511.636 637.527 505.342 638 499.049 638.108C495.911 638.162 492.771 638.125 489.635 637.992C488.112 637.928 486.564 637.904 485.048 637.73C483.594 637.563 483.186 637.104 483.1 635.662C481.507 608.987 480.35 582.249 479.705 555.536C479.064 529.004 479.142 502.439 480.657 475.937C480.846 472.623 481.059 469.312 481.293 466.001C481.434 464.015 478.34 464.024 478.2 466.001C476.268 493.309 475.937 520.704 476.452 548.068C476.967 575.462 478.32 602.831 479.725 630.192C479.811 631.849 479.893 633.507 479.981 635.164C480.056 636.58 480.111 638.096 481.099 639.22C482.872 641.235 486.273 640.927 488.694 641.043C495.2 641.355 501.724 641.265 508.219 640.777C521.038 639.816 533.949 637.449 546.139 633.318C548.801 632.416 550.855 631.018 551.875 628.312C552.814 625.82 552.67 623.01 552.714 620.394C552.829 613.648 553.061 606.904 553.396 600.166C554.073 586.526 555.168 572.909 556.552 559.323C559.31 532.252 563.209 505.315 567.233 478.408C567.72 475.151 568.209 471.893 568.698 468.636C568.99 466.689 566.01 465.849 565.715 467.814Z" fill="#FF008C"/>
<path d="M508.496 499.63C555.68 506.553 610.83 473.426 632.666 431.958C649.844 399.334 651.279 360.325 667.657 327.292C682.23 297.901 707.442 275.488 728.586 250.406C737.178 240.215 745.492 228.614 746.158 215.301C746.779 202.901 740.355 190.82 730.991 182.668C721.627 174.516 709.618 169.925 697.451 167.451C653.949 158.605 609.524 175.178 569.421 194.217C546.431 205.131 523.727 217.055 503.708 232.768C467.282 261.359 438.947 292.509 426.369 338.667C416.863 373.554 415.493 419.881 431.957 453.189C444.166 477.889 482.702 495.846 508.496 499.63Z" fill="white"/>
<path d="M508.092 501.121C538.495 505.497 569.661 494.322 594.223 476.792C606.736 467.862 617.958 457.029 626.822 444.441C636.604 430.546 642.552 414.498 647.178 398.258C652.189 380.67 655.785 362.671 661.817 345.38C664.803 336.819 668.442 328.523 672.972 320.662C677.466 312.864 682.688 305.501 688.295 298.467C699.438 284.487 711.98 271.715 723.796 258.319C735.006 245.611 748.253 230.773 747.739 212.687C747.252 195.505 735.013 181.233 720.321 173.619C703.987 165.154 684.561 162.787 666.385 163.595C627.814 165.309 591.268 181.525 557.187 198.436C539.834 207.046 522.826 216.532 507.264 228.123C494.215 237.842 481.747 248.576 470.431 260.273C459.56 271.511 449.794 283.873 441.923 297.402C433.818 311.333 427.798 326.422 423.894 342.053C419.876 358.141 417.834 374.798 417.82 391.379C417.806 408.275 419.892 425.435 425.426 441.458C427.825 448.401 430.735 455.328 435.117 461.271C439.221 466.838 444.229 471.653 449.675 475.895C461.494 485.1 475.236 491.907 489.437 496.58C495.521 498.582 501.753 500.176 508.092 501.121C510.039 501.411 510.879 498.432 508.914 498.139C495.265 496.105 481.929 491.291 469.708 484.957C457.273 478.513 444.886 470.029 436.818 458.353C432.711 452.409 429.981 445.525 427.755 438.688C425.196 430.828 423.446 422.699 422.365 414.506C420.182 397.957 420.507 381.043 422.738 364.516C424.875 348.686 428.825 333.046 434.974 318.287C440.89 304.088 448.885 290.762 458.396 278.684C467.915 266.596 478.862 255.7 490.483 245.641C503.947 233.987 518.221 223.514 533.614 214.542C549.876 205.062 566.901 196.785 584.104 189.163C601.546 181.434 619.54 174.672 638.2 170.539C656.485 166.488 675.542 165.1 694.067 168.375C710.808 171.335 728.228 178.225 737.993 192.923C742.592 199.845 745.232 208.053 744.546 216.406C743.84 225.011 739.706 232.911 734.846 239.88C729.778 247.147 723.769 253.768 717.854 260.347C712.059 266.793 706.149 273.135 700.36 279.587C688.749 292.527 677.503 306.021 669.064 321.295C660.437 336.908 655.453 354.087 651.036 371.273C646.607 388.507 642.661 406.041 635.532 422.416C629.441 436.406 620.782 448.835 609.946 459.566C588.712 480.595 559.808 496.043 529.76 498.636C522.825 499.234 515.809 499.131 508.914 498.139C506.967 497.859 506.126 500.838 508.092 501.121Z" fill="#FF008C"/>
<path d="M489.424 422.82L491.075 465.826C492.664 507.192 492.542 568.29 493.561 626.735L325.725 682.775L178.82 517.83L489.424 422.82Z" fill="white"/>
<path d="M487.872 422.82C489.176 456.767 490.383 490.681 490.806 524.652C491.245 559.992 491.43 595.336 492.08 630.674C492.44 650.279 492.933 669.884 493.758 689.477L494.893 687.986C489.91 689.732 484.926 691.479 479.943 693.226L444.053 705.806C429.637 710.859 415.222 715.911 400.806 720.964L363.411 734.072C357.329 736.204 351.194 738.226 345.153 740.472C345.068 740.503 344.981 740.532 344.896 740.562C343.03 741.216 343.833 744.205 345.718 743.544C350.701 741.798 355.685 740.051 360.668 738.304L396.558 725.724C410.974 720.671 425.389 715.618 439.805 710.565L477.2 697.458C483.282 695.326 489.417 693.303 495.458 691.058C495.543 691.026 495.63 690.998 495.715 690.968C496.34 690.749 496.88 690.184 496.851 689.477C495.359 654.047 494.893 618.579 494.511 583.122C494.155 550.03 494.017 516.93 493.179 483.846C492.664 463.498 491.746 443.159 490.965 422.82C490.889 420.836 487.796 420.826 487.872 422.82Z" fill="#FF008C"/>
<path d="M407.205 652.259C424.311 609.555 437.652 565.487 456.232 523.406C411.264 505.816 365.421 490.46 318.931 477.412C298.423 518.669 284.999 565.208 273.451 609.693C273.142 610.882 272.841 612.167 273.291 613.309C273.934 614.941 275.816 615.644 277.491 616.163C299.21 622.894 320.929 629.626 342.649 636.357C362.989 642.661 382.236 650.763 403.51 653.964C404.549 654.12 405.756 654.218 406.506 653.482C406.844 653.151 407.029 652.698 407.205 652.259Z" fill="#84FF20"/>
<path d="M414.728 489.288C417.324 503.116 427.767 513.618 440.813 517.807C443.1 518.542 445.452 519.108 447.846 519.301C451.277 519.577 454.74 519.079 458.055 518.152C471.067 514.512 481.915 503.747 485.359 490.682C488.803 477.616 484.564 462.748 474.544 453.684C465.454 445.461 450.958 441.944 439.286 446.327C428.087 450.533 418.568 461.954 415.486 473.363C414.088 478.537 413.739 484.02 414.728 489.288Z" fill="#84FF20"/>
<path d="M319.717 477.636C319.303 477.824 318.901 478.03 318.515 478.258C313.554 488.303 309.006 498.655 304.802 509.212C304.79 509.244 304.778 509.275 304.765 509.306C304.238 510.631 303.716 511.959 303.199 513.291C303.189 513.317 303.179 513.343 303.169 513.369C300.247 520.893 297.899 528.143 296.102 535.99C300.983 535.79 305.589 532.439 307.281 527.856C312.942 532.599 320.976 533.764 328.232 532.393C331.575 531.761 334.811 530.6 337.814 529.007C340.629 527.513 343.673 525.858 346.134 523.833C349.862 520.766 353.376 517.439 356.642 513.885C357.222 513.254 357.817 512.598 358.596 512.24C359.853 511.662 361.314 511.964 362.679 512.189C373.798 514.02 385.747 509.4 392.742 500.566C389.796 499.373 386.793 498.321 383.747 497.414C382.262 496.972 380.653 496.711 379.21 496.158C378.216 495.777 377.411 495.095 376.433 494.673C370.487 492.111 363.815 490.777 357.638 488.858C351.344 486.902 345.036 484.989 338.716 483.118C335.556 482.183 332.392 481.258 329.226 480.345C327.528 479.855 321.219 476.958 319.717 477.636Z" fill="#FF008C"/>
<path d="M312.526 523.158C309.908 522.212 307.425 520.903 305.184 519.245C302.775 530.141 286.876 536.638 276.729 536.856C266.904 537.067 256.828 531.96 252.26 523.258C240.42 528.264 225.766 525.156 216.565 516.179C207.364 507.203 203.857 493.011 207.247 480.611C207.568 479.436 207.946 478.187 207.58 477.025C207.289 476.1 206.571 475.385 205.898 474.689C196.993 465.489 191.763 452.468 193.207 439.746C194.651 427.024 203.271 415.045 215.363 410.836C208.874 401.006 208.907 387.59 214.406 377.174C222.49 361.861 241.291 350.219 258.507 356.827C263.923 348.77 274.02 344.124 283.663 345.255C293.305 346.385 302.054 353.239 305.46 362.33C314.342 354.292 326.864 350.445 338.727 352.109C350.59 353.773 361.571 360.916 367.899 371.088C368.533 372.105 369.2 373.221 370.314 373.664C371.244 374.034 372.288 373.852 373.286 373.772C382.296 373.052 389.563 380.982 394.034 388.838C397.459 394.855 400.214 401.41 400.759 408.312C401.305 415.214 399.411 422.526 394.587 427.493C400.241 434.408 404.296 443.135 403.576 452.038C402.856 460.941 396.364 469.672 387.526 470.966C389.161 477.573 388.766 484.778 385.789 490.898C382.984 496.663 377.441 502.365 371.161 503.975C369.137 504.493 351.159 504.792 351.897 500.627C350.149 510.492 343.031 519.234 333.724 522.943C327.007 525.62 319.315 525.611 312.526 523.158Z" fill="#84FF20"/>
<path d="M487.878 422.82C488.862 448.44 489.962 474.053 490.435 499.689C490.924 526.176 491.104 552.669 491.382 579.159C491.548 595.019 491.739 610.878 492.015 626.735L493.15 625.244C487.572 627.107 481.993 628.969 476.415 630.832C463.023 635.303 449.631 639.775 436.24 644.246C420.148 649.619 404.056 654.993 387.964 660.366C373.966 665.039 359.968 669.713 345.971 674.387C341.381 675.919 336.792 677.452 332.203 678.984C330.088 679.69 327.584 680.173 325.592 681.191C325.508 681.234 325.404 681.254 325.314 681.284L326.818 681.682C325.505 680.207 324.191 678.731 322.877 677.256C319.324 673.267 315.77 669.277 312.217 665.287C306.938 659.36 301.658 653.432 296.379 647.504C289.969 640.307 283.559 633.11 277.149 625.912L255.982 602.146C248.893 594.187 241.804 586.227 234.716 578.268C228.073 570.81 221.43 563.351 214.787 555.892C209.175 549.591 203.562 543.289 197.95 536.987C193.933 532.477 189.915 527.966 185.898 523.456C184.026 521.353 182.251 518.902 180.158 517.011C180.069 516.931 179.994 516.827 179.914 516.737L179.232 519.321C181.995 518.476 184.758 517.631 187.521 516.785C195.074 514.475 202.626 512.165 210.179 509.855L243.585 499.636C257.216 495.467 270.847 491.297 284.477 487.128C299.357 482.576 314.237 478.025 329.117 473.473C344.134 468.879 359.152 464.286 374.169 459.692C388.17 455.409 402.172 451.126 416.174 446.843C428.007 443.224 439.839 439.604 451.672 435.985L477.204 428.175C481.239 426.941 485.295 425.761 489.312 424.471C489.485 424.416 489.661 424.365 489.835 424.311C491.733 423.731 490.924 420.744 489.013 421.329C486.25 422.174 483.487 423.019 480.724 423.864C473.171 426.175 465.619 428.485 458.066 430.795L424.66 441.014C411.029 445.183 397.398 449.353 383.767 453.522C368.888 458.074 354.008 462.625 339.128 467.177C324.111 471.771 309.093 476.364 294.076 480.958C280.074 485.241 266.073 489.524 252.071 493.807C240.238 497.426 228.405 501.046 216.573 504.665C208.062 507.269 199.551 509.872 191.04 512.475C187.006 513.709 182.95 514.889 178.933 516.179C178.759 516.234 178.584 516.285 178.409 516.339C177.256 516.691 176.949 518.05 177.727 518.923C179.041 520.399 180.355 521.874 181.669 523.349C185.222 527.339 188.775 531.328 192.328 535.318C197.608 541.246 202.887 547.173 208.166 553.101C214.576 560.298 220.987 567.496 227.397 574.693C234.452 582.615 241.508 590.537 248.564 598.46C255.652 606.419 262.741 614.378 269.83 622.337C276.473 629.796 283.115 637.254 289.758 644.713L306.596 663.618C310.613 668.129 314.63 672.639 318.647 677.15C320.554 679.291 322.393 681.532 324.387 683.594C324.472 683.682 324.55 683.778 324.631 683.869C324.978 684.258 325.643 684.431 326.136 684.267C331.714 682.404 337.293 680.541 342.872 678.679C356.263 674.207 369.655 669.736 383.046 665.264C399.138 659.891 415.23 654.518 431.322 649.145C445.32 644.471 459.318 639.797 473.316 635.124C480.103 632.857 486.956 630.728 493.694 628.319C493.786 628.286 493.879 628.257 493.972 628.226C494.613 628.012 495.12 627.439 495.108 626.735C494.621 598.737 494.4 570.735 494.108 542.734C493.856 518.537 493.614 494.33 492.779 470.144C492.234 454.368 491.576 438.594 490.971 422.82C490.894 420.836 487.801 420.826 487.878 422.82Z" fill="#FF008C"/>
<path d="M294.246 482.853C308.512 505.46 322.816 528.043 337.221 550.562C351.96 573.605 366.8 596.584 381.836 619.434C389.939 631.746 398.1 644.021 406.347 656.237C407.454 657.878 410.135 656.332 409.017 654.676C394.061 632.521 379.382 610.18 364.839 587.753C349.956 564.801 335.221 541.754 320.561 518.661C312.66 506.216 304.783 493.758 296.917 481.292C295.857 479.613 293.18 481.163 294.246 482.853Z" fill="#FF008C"/>
<path d="M343.731 466.874C357.996 489.481 372.3 512.064 386.705 534.583C401.445 557.626 416.284 580.605 431.321 603.455C439.423 615.767 447.584 628.042 455.831 640.258C456.939 641.899 459.619 640.353 458.502 638.697C443.545 616.542 428.866 594.201 414.323 571.774C399.44 548.822 384.705 525.775 370.045 502.682C362.145 490.237 354.267 477.779 346.401 465.313C345.342 463.634 342.664 465.184 343.731 466.874Z" fill="#FF008C"/>
<path d="M391.395 450.57C404.454 471.268 417.487 491.981 430.621 512.632C443.369 532.676 456.217 552.656 469.267 572.505C476.916 584.139 484.633 595.729 492.424 607.269C493.532 608.909 496.212 607.364 495.094 605.708C481.402 585.426 467.944 564.987 454.664 544.433C441.772 524.48 429.042 504.423 416.355 484.339C408.919 472.567 401.496 460.786 394.065 449.009C393.006 447.33 390.329 448.881 391.395 450.57Z" fill="#FF008C"/>
<path d="M432.113 430.468C440.326 443.485 448.454 456.554 456.632 469.592C461.63 477.56 466.801 485.411 472.039 493.223C477.953 502.043 483.902 510.84 489.844 519.642C490.952 521.282 493.633 519.736 492.515 518.081C483.904 505.328 475.218 492.619 466.792 479.743C461.642 471.873 456.702 463.869 451.723 455.891C446.099 446.882 440.451 437.889 434.784 428.907C433.725 427.228 431.047 428.778 432.113 430.468Z" fill="#FF008C"/>
<path d="M579.813 326.573C515.625 360.084 444.814 378.514 377.457 405.088C356.831 413.226 336.232 422.301 318.963 436.209C297.644 453.377 283.537 473.577 282.978 501.731C282.92 504.686 283.079 507.858 284.845 510.228C285.431 511.013 286.204 511.694 287.138 511.99C289.195 512.642 291.447 511.204 292.456 509.296C293.464 507.388 293.534 505.141 293.583 502.984C294.119 506.01 295.158 509.059 297.276 511.286C299.394 513.514 302.775 514.732 305.649 513.643C308.523 512.555 310.256 508.764 308.645 506.147C309.153 509.774 313.159 512.561 316.687 511.58C320.215 510.599 322.174 505.896 320.221 502.799C322.584 507.574 329.94 508.82 333.745 505.091C338.88 500.058 337.606 490.543 340.596 484.261C343.807 477.514 349.997 475.177 356.836 472.298C424.582 443.786 498.15 432.68 569.048 413.292" fill="white"/>
<path d="M579.037 325.238C554.535 338.011 528.999 348.644 503.135 358.318C477.417 367.938 451.372 376.646 425.466 385.739C412.513 390.285 399.592 394.927 386.768 399.826C374.261 404.603 361.768 409.52 349.723 415.385C328.422 425.757 307.724 440.013 294.395 460.006C288.543 468.784 284.459 478.702 282.648 489.106C282.162 491.898 281.82 494.718 281.623 497.544C281.42 500.464 281.227 503.477 281.703 506.379C282.138 509.032 283.432 511.933 285.972 513.176C288.428 514.377 291.276 513.291 292.949 511.295C294.889 508.98 295.065 505.871 295.134 502.984L292.096 503.395C293.162 509.121 296.561 515.327 303.107 515.588C308.302 515.795 312.666 510.196 309.985 505.367C309.085 503.746 306.869 504.914 307.158 506.558C307.963 511.14 313.12 514.563 317.618 512.894C321.847 511.326 323.815 505.911 321.561 502.018C320.56 500.29 317.965 501.821 318.89 503.579C321.996 509.478 330.953 510.667 335.378 505.618C340.434 499.849 338.852 491.622 341.935 485.042C345.432 477.58 354.28 474.982 361.334 472.095C370.521 468.335 379.83 464.875 389.222 461.663C408.015 455.235 427.13 449.794 446.358 444.838C465.561 439.888 484.882 435.419 504.193 430.916C523.597 426.392 542.998 421.834 562.258 416.724C564.662 416.086 567.064 415.438 569.463 414.783C571.381 414.259 570.567 411.275 568.641 411.801C549.779 416.953 530.766 421.522 511.73 425.981C492.687 430.442 473.618 434.799 454.644 439.544C435.727 444.275 416.898 449.392 398.337 455.38C389.07 458.37 379.871 461.576 370.775 465.053C366.22 466.794 361.692 468.604 357.194 470.487C353.66 471.966 350.008 473.34 346.752 475.385C343.644 477.337 340.993 479.959 339.365 483.277C337.765 486.541 337.287 490.155 336.673 493.696C336.084 497.085 335.453 500.931 333.06 503.575C330.965 505.891 327.499 506.288 324.717 505.009C323.334 504.373 322.268 503.362 321.561 502.018L318.89 503.579C320.209 505.858 318.978 509.184 316.454 510.034C313.533 511.018 310.628 508.513 310.141 505.737L307.314 506.928C308.078 508.304 307.649 509.933 306.658 511.086C305.45 512.489 303.523 512.753 301.805 512.279C297.494 511.087 295.817 506.541 295.078 502.573C294.751 500.812 292.081 501.296 292.041 502.984C291.98 505.54 291.933 509.702 288.801 510.515C285.785 511.297 284.742 506.645 284.583 504.564C284.172 499.177 284.905 493.484 285.951 488.205C287.939 478.171 292.076 468.757 297.889 460.356C311.081 441.294 331.186 427.788 351.76 417.825C363.42 412.178 375.496 407.428 387.591 402.808C399.902 398.106 412.302 393.64 424.733 389.268C449.601 380.522 474.603 372.155 499.332 363.02C523.939 353.929 548.302 344.068 571.806 332.387C574.751 330.923 577.682 329.429 580.599 327.908C582.364 326.988 580.802 324.318 579.037 325.238Z" fill="#FF008C"/>
<path d="M245.793 500.893C259.859 523.175 274.605 545.02 289.55 566.719C304.832 588.905 320.343 610.932 335.713 633.057C344.032 645.033 352.31 657.039 360.471 669.123C361.579 670.764 364.259 669.218 363.141 667.562C348.391 645.72 333.269 624.132 318.181 602.522C302.761 580.437 287.355 558.339 272.357 535.963C264.241 523.853 256.246 511.661 248.464 499.333C247.404 497.654 244.727 499.204 245.793 500.893Z" fill="#FF008C"/>
<path d="M218.476 559.215C233.687 554.646 248.826 549.834 263.945 544.968C283.021 538.827 302.059 532.566 321.075 526.24C341.512 519.441 361.923 512.564 382.31 505.614C401.649 499.022 420.968 492.367 440.253 485.616C455.861 480.153 471.453 474.639 486.983 468.954C488.519 468.392 490.055 467.827 491.591 467.26C493.442 466.577 492.641 463.586 490.768 464.278C475.868 469.779 460.898 475.094 445.913 480.36C427.005 487.005 408.063 493.55 389.099 500.034C368.719 507.002 348.314 513.896 327.883 520.715C308.502 527.184 289.099 533.587 269.66 539.876C253.927 544.966 238.173 549.999 222.352 554.812C220.787 555.289 219.221 555.762 217.653 556.233C215.752 556.804 216.562 559.79 218.476 559.215Z" fill="#FF008C"/>
<path d="M254.483 603.856C268.483 599.651 282.444 595.316 296.385 590.922C312.676 585.787 328.939 580.563 345.18 575.275C362.185 569.738 379.166 564.129 396.121 558.443C412.495 552.953 428.846 547.393 445.16 541.729C459.326 536.811 473.467 531.821 487.548 526.667C489.069 526.111 490.589 525.552 492.108 524.991C493.959 524.308 493.159 521.317 491.286 522.009C477.574 527.071 463.798 531.961 449.998 536.776C433.871 542.404 417.707 547.923 401.519 553.371C384.571 559.076 367.595 564.702 350.597 570.257C334.181 575.622 317.743 580.921 301.277 586.134C286.981 590.661 272.666 595.128 258.313 599.471C256.763 599.94 255.212 600.408 253.661 600.873C251.76 601.445 252.57 604.43 254.483 603.856Z" fill="#FF008C"/>
<path d="M291.601 645.092C317.991 637.166 344.297 628.956 370.521 620.496C397.539 611.779 424.474 602.798 451.281 593.452C465.622 588.451 479.926 583.343 494.174 578.083C496.026 577.399 495.225 574.409 493.352 575.101C467.505 584.643 441.479 593.7 415.363 602.479C388.452 611.526 361.438 620.269 334.343 628.747C319.847 633.283 305.326 637.74 290.778 642.11C288.877 642.681 289.687 645.667 291.601 645.092Z" fill="#FF008C"/>
<path d="M507.165 499.789C506.992 517.418 506.91 535.047 506.767 552.676C506.614 571.606 506.415 590.537 505.989 609.463C505.776 618.954 505.505 628.445 505.103 637.931C505.019 639.921 508.112 639.917 508.196 637.931C508.942 620.32 509.271 602.692 509.516 585.068C509.78 566.138 509.907 547.206 510.036 528.275C510.101 518.779 510.165 509.284 510.258 499.789C510.277 497.798 507.185 497.797 507.165 499.789Z" fill="#FF008C"/>
<path d="M527.261 500.305C526.709 518.149 526.141 535.994 525.57 553.838C524.987 572.039 524.401 590.24 523.824 608.441C523.51 618.353 523.198 628.264 522.892 638.176C522.83 640.167 525.923 640.165 525.984 638.176C526.536 620.332 527.104 602.488 527.675 584.644C528.258 566.443 528.844 548.242 529.421 530.04C529.736 520.129 530.047 510.217 530.354 500.305C530.415 498.314 527.323 498.316 527.261 500.305Z" fill="#FF008C"/>
<path d="M543.762 497.727C543.264 515.143 542.524 532.551 541.619 549.949C540.682 567.955 539.567 585.952 538.273 603.936C537.581 613.554 536.836 623.168 536.03 632.776C535.864 634.76 538.957 634.749 539.123 632.776C540.58 615.415 541.839 598.036 542.94 580.649C544.079 562.655 545.049 544.649 545.817 526.636C546.228 517.002 546.579 507.366 546.854 497.727C546.911 495.737 543.819 495.738 543.762 497.727Z" fill="#FF008C"/>
<path d="M454.725 639.574C454.253 644.513 454.03 649.471 454.057 654.432C454.068 656.422 457.16 656.426 457.15 654.432C457.123 649.471 457.346 644.513 457.817 639.574C457.897 638.741 457.05 638.027 456.271 638.027C455.368 638.027 454.804 638.739 454.725 639.574Z" fill="#FF008C"/>
<path d="M472.802 633.256C472.236 638.716 471.919 644.198 471.852 649.687C471.827 651.677 474.92 651.679 474.944 649.687C475.012 644.198 475.329 638.716 475.895 633.256C475.981 632.424 475.123 631.71 474.349 631.71C473.441 631.71 472.889 632.422 472.802 633.256Z" fill="#FF008C"/>
<path d="M516.265 298.699C513.927 298.635 507.4 298.015 505.862 296.017C505.139 295.077 505.114 293.728 505.569 292.633C506.025 291.538 506.894 290.664 507.837 289.944C510.804 287.68 514.571 286.735 518.273 286.264C520.606 285.967 522.963 285.835 525.311 285.963C528.141 286.118 531.412 287.004 532.455 289.64C533.474 292.213 531.659 295.206 529.196 296.468C526.032 298.088 519.853 298.799 516.265 298.699Z" fill="white"/>
<path d="M516.264 297.153C513.525 297.065 510.158 296.878 507.714 295.531C505.94 294.553 507.192 292.538 508.315 291.541C509.956 290.084 512.093 289.201 514.184 288.624C516.506 287.983 518.914 287.664 521.316 287.525C523.432 287.403 525.655 287.334 527.722 287.877C529.272 288.284 531.024 289.158 531.191 290.951C531.357 292.733 529.884 294.365 528.415 295.132C526.674 296.041 524.58 296.403 522.661 296.708C520.553 297.044 518.399 297.199 516.264 297.153C514.273 297.11 514.274 300.203 516.264 300.245C518.68 300.297 521.099 300.069 523.483 299.691C525.777 299.327 528.25 298.821 530.28 297.636C532.411 296.392 534.076 294.114 534.267 291.615C534.455 289.164 533.025 286.979 530.917 285.822C528.648 284.576 525.968 284.365 523.43 284.368C520.341 284.372 517.174 284.704 514.169 285.433C511.38 286.11 508.651 287.247 506.431 289.096C504.405 290.783 502.916 293.59 504.174 296.19C505.151 298.211 507.551 298.947 509.584 299.412C511.763 299.911 514.031 300.174 516.264 300.245C518.255 300.309 518.253 297.217 516.264 297.153Z" fill="#FF008C"/>
<path d="M452.64 291.033C450.302 290.968 443.775 290.349 442.237 288.35C441.514 287.41 441.489 286.062 441.944 284.966C442.4 283.871 443.269 282.997 444.212 282.278C447.179 280.013 450.946 279.069 454.648 278.597C456.981 278.3 459.338 278.169 461.686 278.297C464.516 278.451 467.787 279.338 468.83 281.974C469.849 284.547 468.034 287.54 465.571 288.801C462.407 290.422 456.228 291.132 452.64 291.033Z" fill="white"/>
<path d="M452.639 289.486C449.9 289.398 446.533 289.211 444.089 287.864C442.315 286.887 443.567 284.872 444.69 283.874C446.331 282.417 448.468 281.534 450.559 280.957C452.881 280.316 455.289 279.998 457.691 279.859C459.807 279.737 462.03 279.668 464.097 280.211C465.647 280.618 467.399 281.492 467.566 283.285C467.732 285.067 466.259 286.698 464.79 287.466C463.049 288.375 460.955 288.737 459.036 289.042C456.928 289.377 454.774 289.532 452.639 289.486C450.648 289.444 450.649 292.536 452.639 292.579C455.055 292.631 457.474 292.402 459.858 292.024C462.152 291.661 464.625 291.155 466.655 289.97C468.786 288.725 470.451 286.447 470.642 283.948C470.83 281.497 469.4 279.312 467.292 278.155C465.023 276.91 462.343 276.698 459.805 276.702C456.716 276.706 453.549 277.037 450.544 277.767C447.755 278.443 445.026 279.58 442.806 281.43C440.78 283.117 439.291 285.923 440.549 288.523C441.526 290.544 443.926 291.281 445.959 291.746C448.138 292.244 450.406 292.507 452.639 292.579C454.63 292.643 454.628 289.55 452.639 289.486Z" fill="#FF008C"/>
<path d="M518.384 292.029C518.483 294.471 515.37 296.823 513.197 297.245C511.955 297.486 510.66 297.299 509.46 296.903C508.508 296.589 507.555 296.105 507.011 295.264C506.286 294.142 506.472 292.614 507.145 291.46C508.555 289.041 510.912 288.336 513.542 288.097C514.301 288.028 515.096 287.964 515.796 288.265C516.325 288.493 516.749 288.909 517.124 289.346C517.779 290.111 518.343 291.023 518.384 292.029Z" fill="#FF008C"/>
<path d="M516.84 292.029C516.841 292.131 516.771 292.613 516.841 292.305C516.799 292.489 516.751 292.667 516.688 292.845C516.776 292.599 516.586 293.04 516.534 293.131C516.484 293.217 516.431 293.302 516.377 293.385C516.373 293.391 516.096 293.758 516.256 293.563C515.99 293.888 515.691 294.186 515.372 294.459C515.113 294.682 514.835 294.875 514.395 295.129C514.219 295.231 514.035 295.318 513.856 295.414C513.816 295.435 513.582 295.538 513.822 295.437C513.735 295.474 513.645 295.507 513.556 295.539C513.203 295.665 512.839 295.762 512.47 295.791C511.445 295.873 510.26 295.627 509.392 295.235C509.084 295.096 508.705 294.861 508.492 294.645C508.228 294.378 508.129 294.189 508.083 293.738C508.104 293.942 508.112 293.242 508.103 293.319C508.11 293.254 508.195 292.91 508.246 292.752C508.35 292.43 508.577 292.037 508.854 291.67C508.739 291.823 508.903 291.615 508.916 291.6C508.986 291.521 509.056 291.442 509.129 291.365C509.273 291.215 509.425 291.077 509.581 290.94C509.813 290.737 509.683 290.862 509.628 290.901C509.71 290.842 509.793 290.786 509.878 290.731C510.088 290.595 510.308 290.472 510.533 290.361C510.623 290.317 510.714 290.273 510.806 290.234C510.583 290.329 510.821 290.232 510.859 290.22C511.052 290.154 511.244 290.086 511.441 290.029C511.896 289.897 512.358 289.806 512.824 289.726C512.857 289.721 513.124 289.683 512.893 289.714C513.028 289.696 513.163 289.681 513.299 289.667C513.571 289.639 513.844 289.613 514.118 289.598C514.672 289.569 515.02 289.557 515.395 289.805C515.982 290.193 516.789 291.337 516.84 292.029C516.901 292.862 517.507 293.575 518.386 293.575C519.176 293.575 519.994 292.867 519.933 292.029C519.815 290.414 519.005 289 517.867 287.87C516.721 286.731 515.308 286.403 513.735 286.534C511.266 286.738 508.719 287.322 506.942 289.178C504.94 291.27 504.072 294.859 506.496 297.011C508.604 298.885 512.196 299.429 514.778 298.363C517.305 297.319 519.98 294.993 519.933 292.029C519.919 291.194 519.232 290.483 518.386 290.483C517.558 290.483 516.826 291.19 516.84 292.029Z" fill="#FF008C"/>
<path d="M454.47 284.813C454.569 287.255 451.456 289.606 449.282 290.029C448.041 290.27 446.746 290.083 445.545 289.686C444.594 289.372 443.641 288.889 443.097 288.047C442.372 286.926 442.558 285.397 443.231 284.243C444.641 281.824 446.998 281.12 449.628 280.881C450.387 280.812 451.182 280.748 451.882 281.049C452.411 281.276 452.835 281.693 453.21 282.13C453.865 282.895 454.429 283.807 454.47 284.813Z" fill="#FF008C"/>
<path d="M452.918 284.813C452.919 284.915 452.849 285.397 452.919 285.089C452.877 285.273 452.829 285.451 452.766 285.629C452.854 285.383 452.664 285.823 452.612 285.915C452.562 286.001 452.509 286.085 452.455 286.169C452.451 286.175 452.174 286.542 452.334 286.346C452.068 286.671 451.769 286.97 451.45 287.243C451.191 287.465 450.913 287.659 450.473 287.913C450.297 288.015 450.114 288.102 449.934 288.198C449.894 288.219 449.66 288.322 449.9 288.221C449.813 288.258 449.723 288.291 449.634 288.323C449.281 288.449 448.917 288.546 448.548 288.575C447.524 288.657 446.338 288.411 445.47 288.019C445.163 287.88 444.783 287.645 444.57 287.429C444.306 287.161 444.207 286.973 444.162 286.521C444.182 286.726 444.19 286.026 444.181 286.102C444.189 286.037 444.273 285.694 444.324 285.536C444.428 285.214 444.655 284.821 444.932 284.454C444.817 284.606 444.981 284.398 444.994 284.384C445.064 284.305 445.134 284.225 445.207 284.149C445.351 283.999 445.503 283.86 445.659 283.724C445.891 283.521 445.761 283.645 445.706 283.685C445.788 283.626 445.871 283.569 445.956 283.515C446.166 283.378 446.386 283.255 446.611 283.145C446.701 283.1 446.792 283.057 446.884 283.018C446.661 283.112 446.9 283.016 446.937 283.003C447.13 282.938 447.322 282.869 447.519 282.812C447.974 282.681 448.436 282.59 448.902 282.51C448.935 282.504 449.203 282.466 448.971 282.497C449.106 282.479 449.241 282.465 449.377 282.451C449.649 282.423 449.923 282.396 450.196 282.382C450.75 282.353 451.098 282.341 451.473 282.589C452.06 282.977 452.867 284.121 452.918 284.813C452.979 285.646 453.585 286.359 454.464 286.359C455.254 286.359 456.072 285.65 456.011 284.813C455.893 283.198 455.084 281.784 453.946 280.653C452.799 279.515 451.386 279.187 449.813 279.317C447.344 279.522 444.797 280.105 443.02 281.962C441.018 284.054 440.15 287.642 442.574 289.795C444.682 291.668 448.275 292.213 450.856 291.147C453.383 290.103 456.058 287.777 456.011 284.813C455.997 283.977 455.31 283.266 454.464 283.266C453.637 283.266 452.904 283.974 452.918 284.813Z" fill="#FF008C"/>
<path d="M786.838 246.129C790.682 246.667 795.219 248.004 796.544 252.119C797.693 255.687 796.565 259.673 795.32 263.06C793.928 266.844 791.992 270.427 789.972 273.907C786.89 279.215 782.737 283.881 777.824 287.565C772.906 291.253 767.325 294.017 761.427 295.737C755.478 297.471 748.169 298.804 742.564 295.364C732.451 289.158 737.936 273.934 743.928 266.752C748.927 260.758 755.9 256.456 762.778 252.94C766.47 251.053 770.291 249.417 774.218 248.08C778.434 246.645 782.777 245.646 787.249 246.185C789.221 246.422 789.204 243.327 787.249 243.092C779.089 242.109 770.685 245.718 763.473 249.156C756.585 252.439 749.718 256.529 744.228 261.885C739.561 266.437 736.337 272.253 734.74 278.567C733.323 284.175 733.476 290.384 737.382 294.982C742.12 300.56 749.812 301.162 756.569 300.036C763.232 298.925 769.754 296.398 775.506 292.869C781.235 289.353 786.254 284.751 790.177 279.289C793.035 275.31 795.416 270.809 797.333 266.303C799.031 262.313 800.528 257.85 799.975 253.454C799.393 248.823 796.267 245.649 791.954 244.131C790.564 243.642 789.117 243.351 787.66 243.147C786.827 243.031 786.01 243.351 785.758 244.227C785.551 244.949 786.012 246.014 786.838 246.129Z" fill="#FF008C"/>
<path d="M803.714 161.939C808.027 160.774 814.026 161.017 817.576 164.062C822.114 167.954 818.299 174.097 814.688 177.05C809.928 180.945 803.529 183.36 797.508 184.391C793.765 185.031 789.114 185.06 786.295 182.097C784.262 179.959 783.989 176.804 784.876 174.095C786.07 170.449 789.307 167.983 792.544 166.207C796.052 164.283 799.873 163.014 803.714 161.939C805.627 161.403 804.814 158.418 802.891 158.957C795.637 160.987 786.336 164.04 782.709 171.298C781.066 174.584 780.765 178.469 782.386 181.823C784.253 185.69 788.385 187.495 792.483 187.779C796.503 188.057 800.648 187.068 804.439 185.793C808.101 184.561 811.711 182.942 814.895 180.734C817.838 178.694 820.539 176.114 821.864 172.718C823.002 169.799 823.135 166.366 821.337 163.678C817.609 158.104 808.821 157.356 802.891 158.957C800.972 159.475 801.787 162.459 803.714 161.939Z" fill="#FF008C"/>
<path d="M371.714 768.424C374.307 770.818 377.429 772.64 380.813 773.646C382.731 774.216 384.98 774.481 386.585 773.286C394.871 767.112 379.688 750.703 373.564 748.803C371.293 748.098 368.608 748.323 366.834 749.905C364.212 752.242 364.503 756.459 365.765 759.736C367.038 763.043 369.11 766.022 371.714 768.424Z" fill="#FF008C"/>
<path d="M370.622 769.518C373.341 771.985 376.505 773.905 380.014 775.017C383.043 775.977 386.38 776.032 388.648 773.498C391.703 770.086 390.51 765.322 388.622 761.652C386.415 757.361 383.01 753.476 379.254 750.468C377.751 749.264 376.151 748.099 374.326 747.433C371.408 746.368 367.737 746.778 365.49 749.051C362.845 751.727 362.913 755.948 363.982 759.309C365.224 763.215 367.65 766.728 370.622 769.518C372.072 770.879 374.264 768.697 372.809 767.331C370.517 765.18 368.617 762.621 367.408 759.705C366.488 757.488 365.794 754.56 366.932 752.29C368.135 749.889 371.125 749.553 373.432 750.388C374.351 750.72 375.799 751.675 376.786 752.432C379.888 754.812 382.649 757.843 384.751 761.136C386.327 763.605 388.376 767.326 387.107 770.289C386.129 772.572 383.8 772.848 381.589 772.257C378.311 771.382 375.31 769.6 372.809 767.331C371.338 765.996 369.144 768.177 370.622 769.518Z" fill="#FF008C"/>
<path d="M480.995 727.703C483.589 730.097 486.71 731.918 490.094 732.924C492.012 733.494 494.261 733.76 495.866 732.564C504.153 726.391 488.969 709.982 482.845 708.082C480.575 707.377 477.89 707.602 476.115 709.184C473.494 711.52 473.784 715.738 475.046 719.015C476.319 722.322 478.391 725.301 480.995 727.703Z" fill="#FF008C"/>
<path d="M479.903 728.797C482.622 731.263 485.787 733.184 489.296 734.296C492.324 735.256 495.661 735.31 497.93 732.776C500.984 729.365 499.792 724.601 497.904 720.931C495.696 716.64 492.291 712.755 488.536 709.747C487.032 708.542 485.433 707.377 483.607 706.711C480.689 705.646 477.018 706.057 474.771 708.33C472.126 711.005 472.194 715.227 473.263 718.588C474.506 722.494 476.931 726.007 479.903 728.797C481.354 730.158 483.545 727.975 482.09 726.61C479.798 724.458 477.898 721.9 476.689 718.984C475.77 716.767 475.076 713.839 476.213 711.569C477.416 709.168 480.406 708.832 482.714 709.667C483.633 709.999 485.081 710.954 486.067 711.711C489.169 714.091 491.931 717.122 494.033 720.415C495.608 722.884 497.657 726.604 496.388 729.568C495.411 731.851 493.081 732.126 490.87 731.536C487.593 730.661 484.591 728.879 482.09 726.61C480.619 725.275 478.425 727.456 479.903 728.797Z" fill="#FF008C"/>
<path d="M218.516 841.686C246.354 832.406 273.851 822.088 301.27 811.646C336.974 798.048 372.52 784.034 408.004 769.874C446.447 754.534 484.811 738.996 523.137 723.368C558.963 708.761 594.753 694.067 630.535 679.353C658.983 667.655 687.419 655.929 715.895 644.299C718.616 643.187 721.338 642.077 724.06 640.969C725.879 640.228 725.084 637.235 723.238 637.986C696.043 649.061 668.897 660.255 641.74 671.425C606.391 685.964 571.037 700.492 535.652 714.944C497.333 730.593 458.98 746.16 420.555 761.546C384.652 775.922 348.692 790.158 312.588 804.021C283.894 815.038 255.126 825.917 226.046 835.88C223.266 836.833 220.482 837.775 217.693 838.704C215.814 839.331 216.62 842.318 218.516 841.686Z" fill="#FF008C"/>
<path d="M495.493 731.367C508.621 723.848 521.75 716.328 534.879 708.809C538.053 706.991 541.227 705.173 544.401 703.355C545.719 702.601 547.231 701.933 547.905 700.483C548.61 698.971 548.039 697.419 547.545 695.947C545.748 690.599 547.998 684.341 551.509 680.173C555.852 675.017 562.519 672.809 568.714 670.774C569.483 670.521 570.06 669.701 569.794 668.872C566.783 659.454 569.013 648.732 575.913 641.564C582.332 634.896 592.805 631.044 601.863 634.071C606.913 635.758 611.045 640.305 610.779 645.843C610.697 647.553 613.523 647.99 613.817 646.254C614.342 643.147 616.817 641.338 619.512 640.06C622.509 638.64 626.117 637.53 629.423 637.242C632.771 636.951 635.866 638.117 636.74 641.62C637.512 644.713 636.659 648.106 635.807 651.091C635.461 652.302 636.95 653.65 638.078 652.837C641.503 650.369 647.137 649.798 650.065 653.411C652.328 656.203 651.877 661.108 648.6 662.897C646.853 663.851 648.412 666.523 650.161 665.568C654.958 662.949 655.823 656.043 652.709 651.807C648.998 646.76 641.303 646.718 636.517 650.167L638.789 651.913C640.34 646.482 641.576 638.628 635.658 635.292C632.621 633.579 628.957 634 625.706 634.771C622.684 635.487 619.618 636.436 616.884 637.933C613.956 639.537 611.411 642.023 610.834 645.431L613.872 645.842C614.133 640.409 610.842 635.349 606.227 632.667C601.273 629.787 595.19 629.46 589.675 630.575C579.066 632.721 570.128 640.667 566.831 650.973C564.896 657.019 564.879 663.647 566.812 669.694L567.892 667.792C562.226 669.653 556.416 671.644 551.783 675.538C547.36 679.257 544.41 684.917 543.883 690.669C543.761 691.993 543.816 693.317 544.028 694.63C544.146 695.36 544.327 696.067 544.562 696.769C544.756 697.346 545.304 698.348 545.155 698.988C544.984 699.719 543.863 700.099 543.273 700.437C542.552 700.85 541.831 701.263 541.109 701.676C539.378 702.668 537.647 703.659 535.915 704.651C529.351 708.411 522.786 712.171 516.222 715.93C508.792 720.186 501.362 724.441 493.932 728.697C492.205 729.686 493.761 732.359 495.493 731.367Z" fill="#FF008C"/>
<path d="M595.914 665.046C597.294 662.954 600.44 662.18 602.588 663.541C604.764 664.919 605.364 668.041 604.102 670.213L606.773 671.774C607.969 669.636 611.242 669.474 613.374 669.938C615.598 670.422 618.171 672.653 616.54 675.053C615.418 676.703 618.096 678.252 619.21 676.614C620.364 674.917 620.338 672.769 619.509 670.943C618.638 669.024 616.869 667.755 614.893 667.139C611.291 666.017 606.109 666.627 604.102 670.213C603.129 671.951 605.771 673.497 606.773 671.774C608.881 668.146 607.762 663.109 604.15 660.87C600.509 658.615 595.536 660.01 593.244 663.485C592.145 665.151 594.822 666.702 595.914 665.046Z" fill="#FF008C"/>
<path d="M387.973 772.165C393.64 768.525 399.307 764.885 404.973 761.245C407.463 759.646 410.146 758.173 412.414 756.261C414.552 754.46 415.603 752.083 415.783 749.317C415.956 746.642 415.414 743.975 415.808 741.305C416.156 738.947 416.981 736.675 418.17 734.614C420.475 730.618 424.181 727.322 428.563 725.79C431.332 724.823 434.497 724.405 437.336 725.318C440.158 726.226 442.311 728.737 441.964 731.794C441.815 733.107 443.771 733.863 444.604 732.888C447.16 729.894 451.896 729.026 455.209 731.329C458.466 733.595 459.333 738.404 457.385 741.772C456.387 743.498 459.058 745.057 460.056 743.333C462.805 738.581 461.516 732.087 457.041 728.851C452.624 725.657 445.925 726.592 442.417 730.701L445.057 731.794C445.374 729.003 444.051 726.223 441.951 724.415C439.675 722.456 436.644 721.683 433.684 721.737C428.381 721.833 423.304 724.248 419.524 727.901C415.816 731.483 413.315 736.287 412.697 741.415C412.347 744.308 413.071 747.254 412.607 750.122C412.088 753.33 409.229 754.838 406.73 756.443C399.957 760.794 393.185 765.144 386.412 769.494C384.743 770.567 386.292 773.245 387.973 772.165Z" fill="#FF008C"/>
<path d="M430.707 747.484C430.971 747.36 430.331 747.608 430.673 747.497C430.749 747.473 430.824 747.444 430.901 747.421C431.064 747.373 431.245 747.36 431.405 747.307C431.275 747.35 431.026 747.348 431.309 747.325C431.388 747.319 431.467 747.315 431.547 747.314C431.706 747.31 431.865 747.316 432.023 747.33C432.397 747.363 431.862 747.293 431.968 747.32C432.045 747.34 432.126 747.349 432.204 747.366C432.374 747.404 432.542 747.45 432.707 747.505C432.784 747.531 432.859 747.561 432.935 747.588C433.221 747.689 432.592 747.422 432.863 747.558C433.02 747.637 433.177 747.713 433.329 747.802C433.481 747.892 433.624 747.991 433.768 748.092C433.992 748.249 433.492 747.854 433.71 748.049C433.77 748.103 433.832 748.154 433.892 748.209C434.01 748.318 434.123 748.432 434.231 748.552C434.283 748.61 434.329 748.681 434.386 748.735C434.072 748.44 434.274 748.586 434.359 748.71C434.456 748.852 434.546 748.999 434.626 749.152C434.662 749.221 434.689 749.301 434.731 749.366C434.525 749.044 434.64 749.138 434.695 749.29C434.749 749.44 434.795 749.593 434.83 749.748C434.848 749.824 434.853 749.909 434.877 749.983C434.842 749.705 434.835 749.648 434.853 749.812C434.858 749.866 434.862 749.92 434.865 749.974C434.918 750.78 435.539 751.56 436.412 751.521C437.204 751.485 438.015 750.839 437.958 749.974C437.824 747.933 436.642 746.166 434.89 745.132C433.121 744.089 431.006 743.939 429.146 744.813C428.411 745.158 428.166 746.271 428.591 746.929C429.078 747.685 429.921 747.853 430.707 747.484Z" fill="#FF008C"/>
<path d="M443.23 226.101C446 229.994 448.769 233.887 451.538 237.78C452.022 238.459 452.887 238.783 453.654 238.334C454.326 237.941 454.695 236.903 454.209 236.219C451.439 232.326 448.67 228.433 445.901 224.541C445.417 223.861 444.551 223.537 443.785 223.986C443.113 224.379 442.744 225.417 443.23 226.101Z" fill="#FF008C"/>
<path d="M420.7 256.144C423.831 256.926 426.962 257.709 430.093 258.492C430.877 258.688 431.807 258.239 431.996 257.412C432.178 256.611 431.755 255.72 430.916 255.51C427.784 254.727 424.653 253.944 421.522 253.161C420.739 252.965 419.809 253.414 419.62 254.241C419.438 255.042 419.861 255.934 420.7 256.144Z" fill="#FF008C"/>
<path d="M479.445 214.731V218.254C479.445 218.65 479.618 219.067 479.898 219.347C480.166 219.615 480.606 219.817 480.992 219.8C481.829 219.762 482.538 219.12 482.538 218.253V214.731C482.538 214.334 482.366 213.918 482.085 213.638C481.817 213.369 481.377 213.167 480.992 213.185C480.154 213.222 479.445 213.864 479.445 214.731Z" fill="#FF008C"/>
<path d="M471.574 262.023C478.029 265.005 485.745 263.975 491.179 259.382C491.817 258.842 491.734 257.751 491.179 257.195C490.547 256.563 489.632 256.654 488.992 257.195C484.704 260.82 478.237 261.709 473.135 259.352C472.377 259.002 471.469 259.138 471.019 259.907C470.629 260.574 470.812 261.671 471.574 262.023Z" fill="#FF008C"/>
<path d="M539.721 265.463C535.675 265.742 531.43 264.528 527.622 263.236C524.145 262.056 521.439 259.856 519.909 256.478C519.562 255.711 518.465 255.541 517.793 255.923C517.006 256.371 516.896 257.283 517.238 258.039C518.975 261.872 522.202 264.514 526.095 265.968C528.144 266.734 530.303 267.269 532.43 267.773C534.817 268.339 537.263 268.725 539.721 268.556C541.696 268.419 541.711 265.325 539.721 265.463Z" fill="#FF008C"/>
<path d="M493.026 265.93C486.44 270.987 480.471 276.765 475.525 283.452C473.033 286.82 470.691 290.441 468.978 294.275C467.4 297.805 466.664 302.074 469.244 305.346C471.636 308.381 476.669 308.631 478.783 305.132C479.814 303.424 477.141 301.867 476.112 303.571C475.353 304.829 473.506 304.931 472.367 304.123C470.955 303.121 470.502 301.193 470.615 299.556C470.781 297.177 472.008 294.961 473.129 292.912C474.165 291.02 475.295 289.18 476.506 287.396C481.406 280.176 487.68 273.904 494.587 268.6C495.254 268.088 495.592 267.276 495.141 266.484C494.768 265.828 493.687 265.422 493.026 265.93Z" fill="#FF008C"/>
<path d="M476.259 321.486C477.876 319.076 481.32 317.241 484.195 318.476C487.918 320.076 488.088 325.019 487.927 328.426C487.733 332.506 487.317 336.632 486.075 340.541C485.393 342.689 482.249 350.46 479.218 346.459C476.507 342.881 475.83 337.645 476.32 333.319C476.544 331.344 473.449 331.36 473.228 333.319C472.66 338.327 473.681 344.213 476.771 348.322C478.217 350.244 480.47 351.143 482.796 350.279C485.248 349.368 486.687 347.014 487.735 344.751C489.966 339.931 490.645 334.625 490.966 329.373C491.259 324.589 490.869 318.645 486.143 316.008C481.697 313.527 476.229 315.99 473.589 319.925C472.477 321.582 475.154 323.132 476.259 321.486Z" fill="#FF008C"/>
<path d="M475.133 332.328C478.955 329.91 483.683 328.962 488.141 329.721C487.951 331.837 487.732 333.951 487.485 336.061C487.131 339.085 486.692 342.187 485.195 344.839C484.471 346.122 483.233 347.39 481.773 347.197C480.693 347.055 479.886 346.155 479.259 345.265C477.019 342.093 475.735 338.255 475.613 334.374" fill="#FF008C"/>
<path d="M475.914 333.663C479.418 331.487 483.64 330.551 487.731 331.213L486.596 329.721C486.334 332.607 486.095 335.518 485.627 338.379C485.266 340.589 484.75 343.658 482.967 345.223C482.208 345.889 481.625 345.671 480.986 344.974C480.187 344.102 479.59 342.976 479.064 341.924C477.891 339.584 477.262 336.985 477.16 334.375C477.083 332.391 473.989 332.381 474.067 334.375C474.168 336.956 474.686 339.506 475.677 341.894C476.578 344.064 477.796 346.604 479.763 348.002C482.055 349.63 484.636 348.332 486.102 346.29C487.56 344.259 488.212 341.631 488.609 339.201C489.121 336.067 489.402 332.883 489.688 329.722C489.744 329.112 489.173 328.331 488.553 328.231C483.632 327.435 478.604 328.353 474.353 330.993C472.666 332.041 474.217 334.717 475.914 333.663Z" fill="#FF008C"/>
<path d="M746.165 215.301C746.786 202.901 740.362 190.82 730.998 182.668C721.634 174.516 709.624 169.925 697.458 167.451C653.955 158.605 609.531 175.178 569.428 194.217C548.964 203.932 528.732 214.454 510.414 227.729C515.792 230.361 521.793 231.846 527.781 232.344C537.557 233.156 547.372 231.569 556.965 229.518C573.534 225.975 589.802 221.031 605.539 214.753C601.91 222.872 598.245 231.111 596.882 239.898C595.519 248.686 596.715 258.241 602.066 265.344C604.973 269.203 609.171 274.291 606.115 278.034C611.354 272.403 618.894 268.978 626.582 268.738C629.817 268.636 633.21 269.132 635.84 271.018C639.309 273.506 640.847 278.093 640.474 282.345C640.1 286.597 638.066 290.543 635.562 294.001C631.47 299.654 626.015 304.312 619.791 307.469C635.172 315.835 653.705 317.482 670.83 313.836C672.637 313.451 674.425 312.999 676.2 312.505C690.926 290.01 711.137 271.112 728.593 250.406C737.184 240.215 745.498 228.614 746.165 215.301Z" fill="#FF008C"/>
<path d="M747.705 215.301C748.448 198.438 737.401 183.589 723.39 175.321C708.066 166.277 689.296 163.355 671.734 163.46C653.15 163.57 634.743 167.423 617.107 173.092C599.081 178.887 581.721 186.576 564.677 194.776C547.673 202.957 530.908 211.776 515.293 222.413C513.386 223.713 511.498 225.041 509.628 226.393C508.773 227.011 508.485 228.512 509.628 229.064C521.382 234.737 534.487 234.853 547.156 232.919C560.014 230.957 572.754 227.584 585.145 223.667C592.167 221.448 599.103 218.967 605.944 216.244L604.198 213.972C600.248 222.81 596.26 231.797 595.111 241.504C594.107 249.981 595.534 259.153 600.725 266.124C602.768 268.868 607.486 273.692 604.774 277.254C603.704 278.659 606.015 280.386 607.203 279.127C610.491 275.644 614.602 273.021 619.175 271.573C623.531 270.195 629.006 269.422 633.319 271.348C637.528 273.229 639.318 277.967 638.922 282.344C638.463 287.409 635.411 292.048 632.173 295.804C628.486 300.079 624.023 303.558 619.004 306.134C617.981 306.659 618.014 308.27 619.004 308.804C629.287 314.351 640.889 317.052 652.543 317.205C658.459 317.282 664.389 316.701 670.19 315.542C671.594 315.262 672.991 314.943 674.379 314.59C675.1 314.407 675.914 314.278 676.605 313.996C677.434 313.659 677.787 312.889 678.262 312.176C679.942 309.654 681.689 307.177 683.49 304.74C698.024 285.074 715.936 268.28 731.42 249.409C739.487 239.577 746.971 228.385 747.705 215.301C747.817 213.312 744.724 213.318 744.613 215.301C743.752 230.644 732.902 243.193 723.273 254.229C712.715 266.332 701.507 277.856 691.158 290.143C685.347 297.04 679.811 304.182 674.859 311.725L675.783 311.014C661.56 314.935 646.331 315.342 632.15 310.983C628.133 309.749 624.264 308.129 620.566 306.134V308.804C625.549 306.247 630.081 302.785 633.818 298.608C637.64 294.336 641.09 289.188 641.89 283.396C642.586 278.362 640.975 272.886 636.761 269.792C632.31 266.523 625.983 266.777 620.848 267.92C614.823 269.261 609.249 272.456 605.016 276.941L607.445 278.815C609.981 275.484 608.174 271.364 606.129 268.299C604.975 266.567 603.61 264.984 602.468 263.245C601.294 261.459 600.351 259.532 599.654 257.511C596.666 248.843 597.885 239.511 600.642 230.96C602.346 225.674 604.606 220.597 606.869 215.533C607.346 214.466 606.521 212.705 605.122 213.262C593.351 217.947 581.295 221.902 569.03 225.078C556.737 228.261 543.923 231.365 531.142 230.985C524.266 230.78 517.408 229.395 511.189 226.393V229.064C526.123 218.264 542.266 209.285 558.753 201.102C575.24 192.918 592.015 185.186 609.356 178.987C626.547 172.842 644.438 168.167 662.703 166.897C680.022 165.692 698.421 167.291 714.493 174.265C729.112 180.609 742.251 192.897 744.389 209.404C744.642 211.358 744.699 213.333 744.613 215.301C744.525 217.291 747.618 217.286 747.705 215.301Z" fill="#FF008C"/>
<path d="M608.07 504.651C623.542 498.369 639.16 492.449 654.914 486.909C659.447 485.315 663.992 483.752 668.547 482.219C670.424 481.588 669.619 478.6 667.725 479.237C651.899 484.564 636.197 490.261 620.642 496.334C616.165 498.081 611.7 499.861 607.248 501.669C605.428 502.408 606.223 505.401 608.07 504.651Z" fill="#FF008C"/>
<path d="M573.861 545.426C593.457 538.339 613.108 531.402 632.811 524.618C638.441 522.679 644.074 520.754 649.712 518.84C651.587 518.203 650.782 515.215 648.89 515.857C629.157 522.556 609.476 529.404 589.848 536.405C584.241 538.406 578.637 540.419 573.038 542.443C571.181 543.115 571.982 546.105 573.861 545.426Z" fill="#FF008C"/>
<path d="M587.21 572.053C598.758 568.194 610.305 564.336 621.853 560.477L630.572 557.564C633.057 556.734 635.824 556.102 638.089 554.743C640.19 553.482 641.554 551.466 643.007 549.557C644.467 547.639 646.122 545.755 648.116 544.376C651.728 541.878 657.765 541.025 660.303 545.514C660.911 546.588 662.334 546.435 662.974 545.514C665.491 541.891 668.917 537.323 673.681 536.807C676.839 536.464 682.128 539.688 680.465 543.431C679.675 545.209 682.093 546.744 683.136 544.992C686.133 539.954 691.928 537.18 697.727 537.811C699.703 538.026 699.687 534.932 697.727 534.718C690.878 533.973 683.973 537.536 680.465 543.431L683.136 544.992C685.59 539.469 680.344 534.142 674.935 533.717C668.456 533.208 663.598 539.211 660.303 543.953H662.974C660.725 539.977 655.816 538.56 651.526 539.469C646.613 540.509 642.977 544.473 640.096 548.318C639.333 549.335 638.583 550.363 637.645 551.23C636.63 552.169 635.391 552.683 634.1 553.126C631.088 554.161 628.058 555.147 625.037 556.157C619.067 558.152 613.097 560.146 607.127 562.141C600.214 564.451 593.301 566.761 586.388 569.071C584.51 569.698 585.315 572.686 587.21 572.053Z" fill="#FF008C"/>
</svg>
