<svg width="1000" height="1000" viewBox="0 0 1000 1000" fill="none" xmlns="http://www.w3.org/2000/svg">
<path d="M507.377 438.654C504.451 440.853 501.525 443.052 498.599 445.251C493.406 438.584 488.035 432.056 482.493 425.677C475.349 417.454 467.913 409.47 459.921 402.068C452.03 394.76 443.615 388.037 434.986 381.619C425.155 374.308 414.947 367.382 403.912 362.004C394.697 357.512 380.815 350.875 370.324 353.275C368.853 353.612 367.308 354.24 366.57 355.556C365.603 357.282 366.464 359.571 367.981 360.842C369.499 362.112 371.498 362.611 373.422 363.073C370.469 363.437 367.665 364.905 365.683 367.125C364.699 368.228 363.886 369.617 363.985 371.092C364.197 374.245 368.028 375.587 371.135 376.165C369.5 376.649 367.803 377.167 366.552 378.325C365.301 379.483 364.653 381.483 365.547 382.934C367.008 385.303 371.398 384.947 373.763 385.253C371.819 386.507 369.832 387.8 368.437 389.646C367.042 391.493 366.335 394.036 367.247 396.163C368.302 398.626 371.173 399.824 373.847 399.995C376.52 400.165 379.187 399.56 381.866 399.574C388.034 407.689 397.665 413.077 407.808 414.089C408.54 414.162 409.318 414.229 409.909 414.669C411.944 416.185 413.16 419.725 414.992 421.689C417.487 424.364 419.398 427.5 421.368 430.588C431.67 446.743 441.576 463.237 453.717 478.112C458.958 484.532 464.664 490.686 471.53 495.329C478.926 500.33 487.576 503.46 496.46 504.35C504.832 505.189 513.795 503.877 520.436 498.711C526.473 494.016 529.875 486.788 533.063 479.837" fill="white"/>
<path d="M506.635 437.388C503.709 439.587 500.783 441.786 497.857 443.985L499.634 444.214C491.578 433.881 483.136 423.821 474.184 414.251C465.264 404.714 455.671 395.908 445.436 387.798C435.527 379.947 425.288 372.366 414.371 365.964C409.451 363.079 404.359 360.511 399.179 358.128C394.266 355.867 389.217 353.778 383.952 352.488C381.118 351.793 378.187 351.318 375.263 351.301C372.624 351.286 369.417 351.496 367.134 352.961C364.642 354.559 364.093 357.537 365.49 360.081C367.009 362.847 370.168 363.796 373.031 364.487V361.659C368.725 362.26 363.057 365.505 362.549 370.297C362.06 374.902 367.065 376.869 370.744 377.578V374.751C368.685 375.364 366.473 376.085 365.048 377.793C363.742 379.358 363.181 381.665 364.2 383.525C366.01 386.83 370.597 386.348 373.762 386.719L373.021 383.986C370.675 385.503 368.229 387.117 366.731 389.546C365.296 391.873 364.838 394.906 366.211 397.367C369.368 403.027 376.701 401.08 381.864 401.04L380.598 400.314C384.586 405.501 389.765 409.678 395.758 412.339C398.622 413.611 401.611 414.576 404.7 415.126C405.472 415.263 406.249 415.375 407.027 415.469C407.708 415.551 408.517 415.511 409.11 415.897C410.296 416.667 411.033 418.375 411.73 419.546C413.381 422.321 415.675 424.591 417.479 427.267C419.599 430.41 421.581 433.651 423.606 436.855C427.689 443.313 431.753 449.784 435.972 456.155C440.171 462.497 444.53 468.735 449.187 474.75C453.62 480.478 458.278 486.106 463.662 490.974C474.022 500.34 487.588 506.242 501.691 506.046C509.007 505.944 516.394 503.986 522.097 499.244C527.922 494.401 531.235 487.317 534.328 480.577C535.109 478.874 532.583 477.382 531.796 479.097C528.778 485.672 525.605 492.622 519.868 497.298C514.209 501.911 506.601 503.343 499.468 503.089C491.69 502.811 483.934 500.615 477.076 496.958C470.037 493.205 464.129 487.829 458.854 481.902C447.687 469.359 438.594 455.062 429.637 440.91C425.277 434.022 421.255 426.718 415.918 420.531C413.958 418.257 413.036 414.517 410.162 413.138C408.66 412.418 406.718 412.535 405.094 412.228C403.298 411.888 401.528 411.413 399.802 410.812C396.468 409.651 393.315 407.976 390.449 405.917C389.013 404.885 387.663 403.733 386.4 402.496C385.793 401.903 385.207 401.289 384.643 400.655C384.054 399.992 383.55 399.132 382.901 398.537C382.197 397.892 381.084 398.108 380.211 398.166C379.108 398.24 378.011 398.372 376.91 398.461C375.025 398.613 373.093 398.669 371.305 397.962C369.871 397.394 368.557 396.287 368.334 394.68C368.09 392.926 368.971 391.164 370.125 389.904C371.384 388.531 372.948 387.522 374.502 386.519C375.802 385.678 375.17 383.951 373.761 383.786C371.778 383.554 368.802 383.968 367.17 382.585C366.217 381.777 366.611 380.431 367.346 379.605C368.385 378.434 370.083 378.008 371.523 377.579C372.827 377.191 373.009 375.038 371.523 374.751C369.414 374.344 364.838 373.35 365.505 370.298C365.862 368.659 367.427 367.261 368.76 366.362C370.288 365.332 371.991 364.741 373.811 364.487C375.281 364.282 375.133 361.979 373.811 361.66C371.57 361.119 368.554 360.497 367.76 357.979C366.941 355.384 370.217 354.701 372.084 354.429C376.826 353.739 381.726 354.781 386.247 356.167C391.058 357.642 395.673 359.674 400.209 361.838C405.217 364.228 410.117 366.8 414.866 369.674C425.093 375.861 434.766 383.017 444.106 390.463C453.571 398.008 462.489 406.155 470.812 414.945C480.256 424.918 489.117 435.459 497.56 446.288C497.918 446.747 498.868 446.87 499.337 446.517C502.263 444.319 505.189 442.12 508.116 439.921C509.606 438.801 508.146 436.253 506.635 437.388Z" fill="#FF008C"/>
<path d="M393.666 365.295C391.117 366.245 388.803 367.758 387.047 369.853C385.273 371.97 383.647 374.776 384.23 377.636C384.888 380.865 387.804 381.607 390.686 381.591C393.911 381.573 397.134 381.09 400.235 380.211L398.378 378.797C398.99 383.361 401.467 387.361 405.393 389.815C406.998 390.818 408.472 388.281 406.873 387.282C403.914 385.433 401.778 382.279 401.311 378.797C401.188 377.88 400.471 377.095 399.455 377.383C397.18 378.028 394.863 378.457 392.501 378.598C390.752 378.703 387.456 379.27 387.066 376.891C386.745 374.937 388.308 372.782 389.563 371.424C390.916 369.962 392.577 368.819 394.446 368.123C396.199 367.47 395.44 364.634 393.666 365.295Z" fill="#FF008C"/>
<path d="M745.668 729.476C747.033 731.058 749.522 735.311 751.541 734.816C753.571 734.318 756.255 731.323 757.816 729.966C761.714 726.578 765.231 722.753 768.273 718.579C768.686 718.013 769.106 717.396 769.128 716.696C769.15 715.999 768.774 715.358 768.407 714.766C764.744 708.862 760.672 703.201 756.088 697.976C749.532 690.504 743.05 682.967 736.688 675.329C733.661 679.02 730.425 682.54 727.001 685.867C717.838 694.768 707.343 702.3 695.965 708.11C692.841 709.705 689.424 710.933 686.039 712.203C691.418 719.185 695.662 726.833 695.599 735.455C695.534 744.203 691.356 754.441 697.409 760.757C702.397 765.964 710.208 763.642 715.94 760.737C720.619 758.365 724.699 754.967 728.527 751.38C733.907 746.341 738.891 740.857 743.135 734.83C744.284 733.199 745.407 731.453 745.668 729.476Z" fill="white"/>
<path d="M744.628 730.513C745.987 732.13 747.053 734.022 748.748 735.332C750.657 736.807 752.536 736.315 754.369 734.973C756.33 733.537 758.042 731.75 759.844 730.122C762.143 728.045 764.301 725.812 766.301 723.445C767.238 722.335 768.139 721.194 769.01 720.031C769.924 718.811 770.864 717.511 770.508 715.895C770.188 714.444 769.097 713.097 768.308 711.872C767.346 710.379 766.357 708.904 765.338 707.449C761.556 702.049 757.259 697.12 752.94 692.153C747.808 686.25 742.729 680.301 737.722 674.292C737.248 673.723 736.119 673.719 735.648 674.292C725.397 686.743 712.855 697.204 698.724 704.986C694.504 707.31 690.151 709.102 685.646 710.789C684.867 711.081 684.141 712.123 684.77 712.943C689.677 719.346 694.052 726.728 694.129 735.032C694.194 742.098 691.324 749.421 693.315 756.415C694.254 759.716 696.518 762.725 699.679 764.176C702.798 765.608 706.281 765.525 709.563 764.735C717.247 762.887 723.736 757.854 729.401 752.567C732.973 749.232 736.37 745.704 739.499 741.948C741.022 740.119 742.485 738.237 743.875 736.305C745.287 734.342 746.68 732.3 747.079 729.866C747.382 728.019 744.557 727.225 744.251 729.086C743.927 731.061 742.872 732.667 741.735 734.274C740.505 736.014 739.209 737.706 737.856 739.352C735.277 742.491 732.509 745.472 729.606 748.314C724.209 753.6 718.289 758.781 711.02 761.255C708.069 762.26 704.783 762.885 701.75 761.867C698.689 760.839 696.681 758.035 695.974 754.979C695.242 751.817 695.653 748.439 696.058 745.26C696.499 741.797 697.118 738.323 697.058 734.821C696.908 726.067 692.495 718.238 687.302 711.463L686.426 713.617C690.459 712.106 694.452 710.58 698.266 708.564C701.836 706.677 705.316 704.621 708.692 702.405C715.545 697.906 721.987 692.759 727.877 687.057C731.36 683.684 734.64 680.109 737.722 676.365H735.648C739.612 681.122 743.621 685.842 747.666 690.531C751.643 695.14 755.802 699.621 759.519 704.446C761.262 706.709 762.919 709.039 764.505 711.415C765.32 712.635 766.119 713.866 766.893 715.112C767.173 715.564 767.698 716.15 767.653 716.716C767.603 717.351 766.704 718.252 766.345 718.728C763.137 722.977 759.32 726.483 755.482 730.132C754.548 731.021 752.216 733.842 750.808 733.215C749.932 732.825 749.178 731.665 748.611 730.933C747.97 730.105 747.376 729.241 746.702 728.439C745.487 726.992 743.421 729.076 744.628 730.513Z" fill="#FF008C"/>
<path d="M579.873 490.138C576.589 512.303 580.009 535.049 586.647 556.45C591.968 573.608 599.087 590.18 607.501 606.043C616.651 623.294 627.223 639.866 637.174 656.668C644.011 668.212 652.435 677.331 660.284 688.019C666.345 696.271 672.431 704.554 679.588 711.876C680.263 712.567 680.999 713.279 681.941 713.493C682.573 713.637 683.232 713.539 683.872 713.441C711.339 709.24 736.062 690.496 746.61 664.554C747.259 662.957 747.863 661.193 747.358 659.545C746.893 658.03 745.591 656.948 744.362 655.947C716.933 633.596 694.317 605.412 678.245 573.902C670.457 558.633 663.966 543.355 661.807 526.345C659.558 508.633 656.607 490.29 646.231 475.28" fill="#FF008C"/>
<path d="M578.457 489.749C575.578 509.468 577.784 529.523 582.885 548.699C587.973 567.828 595.623 586.318 604.711 603.879C614.099 622.018 625.125 639.237 635.54 656.789C640.435 665.039 646.368 672.526 652.308 680.035C658.37 687.698 663.932 695.742 670.086 703.332C671.648 705.258 673.248 707.154 674.901 709.003C676.385 710.664 677.873 712.515 679.626 713.9C681.4 715.302 683.255 715.032 685.348 714.681C687.277 714.358 689.194 713.964 691.093 713.499C698.612 711.661 705.882 708.731 712.605 704.898C726.044 697.236 737.426 685.838 744.678 672.141C745.598 670.404 746.45 668.631 747.231 666.828C748.076 664.876 749.115 662.771 748.999 660.588C748.884 658.417 747.613 656.78 746.014 655.419C744.309 653.967 742.556 652.572 740.853 651.116C733.999 645.253 727.461 639.02 721.273 632.458C708.977 619.421 698.078 605.091 688.775 589.774C684.033 581.968 679.723 573.903 675.802 565.654C671.745 557.12 668.197 548.322 665.798 539.169C663.45 530.208 662.751 520.984 661.17 511.88C659.635 503.047 657.457 494.307 653.864 486.07C652.105 482.035 649.987 478.17 647.496 474.54C646.434 472.994 643.892 474.459 644.963 476.02C655.05 490.72 658.067 508.597 660.286 525.927C662.648 544.377 670.012 561.502 678.633 577.831C686.786 593.276 696.523 607.87 707.607 621.364C713.153 628.116 719.044 634.586 725.252 640.735C728.406 643.859 731.642 646.9 734.957 649.853C736.536 651.26 738.132 652.646 739.746 654.012C741.426 655.434 743.28 656.741 744.832 658.303C746.608 660.09 746.048 662.045 745.195 664.164C744.461 665.985 743.628 667.768 742.739 669.518C741.023 672.897 739.052 676.145 736.858 679.235C732.49 685.387 727.18 690.872 721.267 695.551C715.368 700.219 708.75 704.09 701.788 706.939C698.288 708.371 694.69 709.562 691.025 710.494C689.189 710.961 687.337 711.362 685.473 711.696C684.592 711.854 683.604 712.137 682.708 712.099C681.654 712.054 680.987 711.215 680.299 710.506C673.572 703.575 667.808 695.798 662.1 688.029C656.572 680.505 650.508 673.393 645.015 665.844C639.287 657.971 634.558 649.41 629.52 641.091C624.326 632.513 619.132 623.933 614.197 615.203C604.6 598.223 596.243 580.579 590.007 562.079C583.773 543.584 579.637 524.217 580.112 504.616C580.226 499.902 580.604 495.194 581.285 490.528C581.555 488.682 578.729 487.885 578.457 489.749Z" fill="#FF008C"/>
<path d="M601.674 776.676C602.223 778.692 602.635 783.602 604.67 784.026C606.717 784.452 610.43 782.906 612.424 782.354C617.401 780.978 622.224 779.042 626.768 776.587C627.384 776.254 628.029 775.878 628.351 775.256C628.672 774.637 628.608 773.897 628.532 773.203C627.772 766.297 626.537 759.434 624.653 752.744C621.958 743.175 619.358 733.58 616.91 723.946C612.587 725.972 608.15 727.754 603.627 729.28C591.522 733.363 578.805 735.635 566.034 735.973C562.528 736.066 558.915 735.701 555.313 735.388C557.157 744.006 557.69 752.736 553.917 760.489C550.088 768.355 541.905 775.792 544.644 784.101C546.901 790.949 554.949 792.221 561.374 792.07C566.619 791.946 571.764 790.639 576.765 789.053C583.791 786.825 590.653 784.024 597.08 780.415C598.819 779.439 600.585 778.347 601.674 776.676Z" fill="white"/>
<path d="M600.257 777.065C600.759 779 600.937 781.01 601.733 782.863C602.622 784.932 604.154 785.761 606.383 785.499C608.748 785.22 610.974 784.296 613.25 783.645C616.296 782.774 619.271 781.697 622.178 780.439C623.572 779.836 624.946 779.185 626.296 778.491C627.508 777.867 628.923 777.25 629.614 775.996C630.363 774.639 629.976 772.964 629.8 771.518C629.58 769.703 629.33 767.892 629.044 766.086C627.974 759.335 626.175 752.81 624.355 746.233C622.268 738.694 620.25 731.137 618.321 723.556C618.07 722.57 616.998 722.293 616.167 722.68C601.496 729.522 585.508 733.525 569.341 734.376C564.628 734.624 560.005 734.332 555.311 733.921C554.303 733.833 553.717 734.924 553.897 735.777C555.652 744.085 556.251 753.021 552.133 760.758C548.817 766.987 542.914 772.815 542.634 780.243C542.511 783.491 543.714 786.802 546.05 789.087C548.215 791.205 551.15 792.385 554.082 792.966C561.905 794.516 569.905 792.778 577.371 790.397C582.101 788.888 586.749 787.115 591.256 785.029C593.544 783.97 595.798 782.828 597.992 781.582C599.913 780.492 601.665 779.251 602.937 777.416C604.015 775.861 601.474 774.394 600.405 775.936C599.353 777.453 597.714 778.38 596.136 779.261C594.327 780.272 592.482 781.218 590.61 782.106C586.768 783.928 582.808 785.488 578.781 786.85C571.541 789.299 563.827 791.422 556.12 790.353C553.469 789.985 550.63 789.203 548.563 787.418C546.297 785.462 545.302 782.503 545.614 779.553C545.966 776.215 547.822 773.156 549.578 770.38C551.455 767.413 553.537 764.553 555.097 761.398C559.184 753.127 558.579 743.777 556.725 734.998L555.311 736.854C559.602 737.229 563.849 737.551 568.159 737.365C572.231 737.189 576.289 736.807 580.326 736.254C588.532 735.128 596.628 733.217 604.466 730.54C608.954 729.007 613.35 727.216 617.647 725.212L615.493 724.336C617.02 730.337 618.603 736.324 620.232 742.298C621.854 748.248 623.689 754.159 624.979 760.193C625.604 763.117 626.119 766.064 626.54 769.024C626.755 770.534 627.045 772.097 627.104 773.624C627.127 774.216 627.116 774.579 626.638 774.966C626.071 775.424 625.255 775.734 624.613 776.062C619.821 778.508 614.8 780.044 609.7 781.678C608.524 782.055 607.303 782.473 606.069 782.602C605.248 782.688 604.956 782.743 604.563 782.028C603.622 780.316 603.568 778.149 603.085 776.286C602.612 774.461 599.782 775.234 600.257 777.065Z" fill="#FF008C"/>
<path d="M555.235 489.251C542.718 507.836 535.999 529.834 532.764 552.006C530.171 569.782 529.451 587.804 530.205 605.744C531.026 625.255 533.423 644.765 535.159 664.216C536.353 677.579 540.023 689.438 542.499 702.466C544.41 712.524 546.332 722.622 549.634 732.313C549.945 733.228 550.303 734.187 551.06 734.787C551.568 735.189 552.205 735.385 552.825 735.573C579.42 743.621 609.808 737.364 630.508 718.502C631.782 717.341 633.087 716.009 633.342 714.305C633.576 712.737 632.867 711.2 632.19 709.767C617.073 677.776 608.815 642.596 607.894 607.235C607.448 590.101 608.177 573.518 613.56 557.238C619.165 540.287 624.41 522.463 621.516 504.447" fill="#FF008C"/>
<path d="M553.968 488.511C544.01 503.359 537.657 520.354 533.857 537.757C529.735 556.642 528.279 576.161 528.469 595.463C528.668 615.652 530.968 635.732 532.907 655.806C533.38 660.7 533.736 665.611 534.43 670.48C535.091 675.124 536.02 679.725 537.031 684.304C538.025 688.803 539.096 693.285 540.058 697.792C541.086 702.608 541.935 707.459 542.921 712.284C543.882 716.985 544.939 721.669 546.236 726.29C546.887 728.612 547.548 730.962 548.402 733.219C549.172 735.254 550.356 736.345 552.434 736.987C559.864 739.283 567.721 740.397 575.49 740.47C591.167 740.618 606.935 736.371 620.261 728.073C623.606 725.99 626.794 723.649 629.788 721.089C631.308 719.789 632.995 718.446 634.006 716.688C635.086 714.812 635.003 712.748 634.225 710.775C632.526 706.464 630.355 702.322 628.583 698.034C626.8 693.717 625.137 689.35 623.596 684.941C617.426 667.29 613.181 648.943 611.01 630.369C609.919 621.034 609.367 611.65 609.266 602.254C609.163 592.745 609.513 583.187 611.05 573.789C611.817 569.094 612.87 564.444 614.255 559.891C615.631 555.365 617.195 550.899 618.526 546.357C621.219 537.174 623.339 527.738 623.738 518.148C623.934 513.429 623.66 508.722 622.929 504.057C622.638 502.198 619.812 502.988 620.101 504.837C621.566 514.184 620.798 523.715 618.9 532.94C616.998 542.183 613.808 550.989 611.156 560.018C605.942 577.766 605.712 596.703 606.749 615.038C607.777 633.208 610.715 651.282 615.516 668.836C617.92 677.624 620.792 686.285 624.125 694.765C625.767 698.945 627.518 703.083 629.377 707.172C629.852 708.218 630.336 709.259 630.824 710.299C631.286 711.282 631.853 712.346 631.914 713.453C632.029 715.515 629.982 717.026 628.598 718.247C617.083 728.413 602.404 734.771 587.22 736.819C579.656 737.839 571.889 737.813 564.341 736.668C560.584 736.098 556.846 735.281 553.214 734.159C552.189 733.842 551.635 733.457 551.23 732.44C550.81 731.383 550.493 730.272 550.153 729.188C549.437 726.9 548.79 724.59 548.194 722.268C545.841 713.102 544.385 703.748 542.342 694.514C540.362 685.561 538.07 676.646 536.972 667.527C535.801 657.794 535.053 647.983 534.111 638.224C533.164 628.405 532.3 618.574 531.808 608.721C530.84 589.353 531.479 569.84 534.438 550.658C537.094 533.441 541.85 516.371 549.991 500.905C551.966 497.154 554.139 493.512 556.5 489.991C557.554 488.42 555.015 486.95 553.968 488.511Z" fill="#FF008C"/>
<path d="M481.581 360.043C483.983 388.244 486.619 416.426 489.49 444.584C490.907 458.48 492.382 472.37 493.913 486.254C494.975 495.883 492.49 511.36 503.481 515.808C509.025 518.051 515.271 517.268 521.195 516.448C561.122 510.925 601.048 505.401 640.975 499.877C655.797 497.827 670.771 495.738 684.742 490.378C687.14 489.458 689.722 488.231 690.711 485.861C691.343 484.348 691.196 482.638 691.039 481.006C689.823 468.375 690.252 455.797 689.108 443.019C682.587 370.154 673.803 297.509 662.924 225.168C662.592 222.976 662.21 220.671 660.813 218.95C658.515 216.119 654.372 215.835 650.727 215.796C612.313 215.38 573.88 216.794 535.601 220.029C525.223 220.907 514.856 221.918 504.489 222.929C494.618 223.892 484.312 226.791 475.736 231.934C474.711 232.548 473.663 233.242 473.1 234.297C472.557 235.316 472.545 236.525 472.547 237.681C472.569 254.92 474.739 270.757 475.942 287.738C477.65 311.853 479.53 335.955 481.581 360.043Z" fill="white"/>
<path d="M480.116 360.043C482.892 392.618 485.978 425.168 489.379 457.684C490.23 465.821 491.1 473.956 491.99 482.089C492.568 487.365 492.686 492.591 492.995 497.882C493.271 502.597 493.85 507.683 496.45 511.755C499.559 516.626 505.055 518.47 510.617 518.715C514.291 518.876 517.955 518.362 521.586 517.862C525.54 517.318 529.492 516.768 533.446 516.221C541.549 515.1 549.653 513.979 557.757 512.858C573.965 510.616 590.173 508.373 606.381 506.131C622.213 503.941 638.093 501.961 653.882 499.48C661.454 498.29 669.002 496.851 676.371 494.719C679.852 493.711 683.368 492.616 686.689 491.154C689.285 490.012 691.742 488.234 692.418 485.321C692.794 483.705 692.601 482.052 692.452 480.423C692.256 478.29 692.103 476.153 691.981 474.014C691.76 470.132 691.639 466.245 691.523 462.359C691.283 454.303 690.877 446.294 690.147 438.267C688.673 422.033 687.085 405.81 685.388 389.599C682.013 357.375 678.203 325.197 673.972 293.074C671.852 276.981 669.629 260.901 667.301 244.837C666.716 240.804 666.125 236.772 665.528 232.741C664.98 229.044 664.753 225.083 663.683 221.492C661.665 214.715 654.928 214.367 648.937 214.311C616.494 214.009 584.039 215.01 551.677 217.312C535.596 218.456 519.492 219.793 503.468 221.569C496.381 222.354 489.382 224.016 482.795 226.769C479.745 228.044 476.549 229.459 473.861 231.407C470.715 233.687 471.054 237.13 471.107 240.64C471.344 256.296 473.337 271.843 474.456 287.446C475.622 303.685 476.833 319.92 478.138 336.149C478.779 344.115 479.439 352.08 480.116 360.043C480.275 361.909 483.209 361.926 483.049 360.043C480.38 328.684 478.307 297.278 475.54 265.93C474.866 258.296 474.283 250.651 474.087 242.989C474.042 241.22 474.005 239.45 474.015 237.681C474.02 236.815 473.965 235.837 474.368 235.037C474.796 234.187 475.699 233.673 476.478 233.2C479.416 231.412 482.558 229.935 485.774 228.722C492.379 226.23 499.244 224.906 506.251 224.223C514.075 223.46 521.899 222.702 529.729 222.005C561.229 219.204 592.832 217.607 624.455 217.263C632.316 217.177 640.179 217.168 648.041 217.236C651.009 217.262 654.256 217.03 657.088 218.097C660.366 219.333 661.031 222.426 661.511 225.558C663.906 241.178 666.114 256.829 668.267 272.484C672.569 303.762 676.468 335.097 679.958 366.477C681.716 382.281 683.37 398.098 684.918 413.924C686.438 429.467 688.071 444.992 688.538 460.609C688.654 464.496 688.762 468.383 688.955 472.267C689.047 474.113 689.159 475.958 689.299 477.801C689.442 479.67 689.79 481.6 689.706 483.478C689.546 487.041 686.196 488.287 683.304 489.36C679.891 490.626 676.411 491.704 672.894 492.639C658.269 496.528 643.091 498.117 628.134 500.186C596.706 504.534 565.279 508.882 533.852 513.23C529.899 513.777 525.946 514.324 521.992 514.871C518.484 515.356 514.957 515.869 511.405 515.805C505.866 515.706 500.608 513.937 498.106 508.693C496.075 504.435 495.943 499.39 495.792 494.764C495.604 489.005 495.058 483.357 494.436 477.626C491.025 446.205 487.906 414.753 485.081 383.275C484.386 375.533 483.709 367.788 483.049 360.043C482.89 358.176 479.956 358.159 480.116 360.043Z" fill="#FF008C"/>
<path d="M572.757 413.109C559.77 424.924 546.773 436.745 533.181 447.868C523.345 455.917 512.916 465.195 501.659 471.203C497.962 473.176 497.216 471.699 493.867 469.437C492.469 468.493 491.012 467.716 489.737 466.594C485.434 462.806 482.017 457.603 478.286 453.255C462.406 434.754 445.064 416.924 423.729 404.721C413.5 398.87 402.33 394.362 390.619 393.05C380.893 391.96 370.689 393.167 361.797 397.395C358.889 398.777 355.738 400.441 355.321 404.053C354.81 408.474 358.855 409.464 362.521 408.179C358.411 409.62 355.395 413.75 355.276 418.104C355.251 419.006 355.417 420.045 356.184 420.522C356.65 420.812 357.235 420.82 357.784 420.786C360.703 420.609 363.558 419.503 365.835 417.67C362.91 419.612 358.077 424.569 358.898 428.536C359.877 433.267 365.205 431.207 368.032 429.462C366.092 431.473 364.781 434.039 364.429 436.822C364.36 437.368 364.335 437.957 364.61 438.435C365.259 439.562 366.934 439.295 368.166 438.878C372.505 437.409 376.843 435.939 381.182 434.47C382.554 434.005 384.038 433.537 385.422 433.964C386.847 434.404 387.821 435.684 388.696 436.892C415 473.189 442.625 518.443 491.096 524.094C519.547 527.411 548.39 517.432 572.042 501.276C595.694 485.119 614.746 463.134 632.092 440.34" fill="white"/>
<path d="M571.715 412.072C563.895 419.186 556.074 426.301 548.12 433.265C540.422 440.004 532.535 446.513 524.647 453.028C517.235 459.151 509.646 465.292 501.125 469.824C500.398 470.21 499.508 470.724 498.646 470.655C497.924 470.598 497.284 470.081 496.713 469.679C494.761 468.303 492.585 467.101 490.769 465.557C487.204 462.525 484.45 458.59 481.558 454.949C475.804 447.706 469.433 440.849 462.968 434.238C456.418 427.541 449.52 421.169 442.129 415.406C427.196 403.763 409.737 393.723 390.614 391.583C381.161 390.526 371.388 391.645 362.621 395.42C359.242 396.875 355.35 398.699 354.151 402.488C353.113 405.77 354.519 409.295 358.066 410.009C359.681 410.334 361.356 410.105 362.906 409.593L362.126 406.765C357.422 408.521 353.736 413.139 353.806 418.301C353.903 425.527 363.779 421.11 366.866 418.707C368.173 417.69 366.462 415.471 365.09 416.404C361.249 419.014 356.021 424.286 357.613 429.439C359.232 434.684 365.33 432.811 368.767 430.728L366.99 428.425C365.013 430.541 363.563 433.118 363.074 435.994C362.859 437.255 362.789 438.554 363.655 439.597C364.506 440.622 365.854 440.8 367.102 440.628C368.493 440.436 369.83 439.859 371.154 439.41C372.976 438.793 374.798 438.176 376.621 437.559C378.269 437 379.915 436.432 381.567 435.884C383.129 435.365 384.696 434.825 386.077 436.036C387.057 436.895 387.765 438.1 388.522 439.149C389.257 440.169 389.99 441.19 390.721 442.212C392.202 444.281 393.677 446.355 395.152 448.428C398.079 452.54 401.008 456.651 403.983 460.729C415.996 477.193 428.859 493.488 445.08 506.035C453.014 512.173 461.707 517.285 471.122 520.794C481.508 524.664 492.597 526.356 503.665 526.183C528.835 525.791 553.268 516.081 573.771 501.858C594.692 487.344 612.003 468.378 627.657 448.453C629.576 446.011 631.472 443.551 633.353 441.081C634.497 439.58 631.951 438.117 630.821 439.601C615.909 459.181 599.759 478.139 580.323 493.398C561.149 508.452 538.253 519.756 513.83 522.58C502.478 523.893 490.858 523.394 479.786 520.471C470.454 518.008 461.672 513.871 453.623 508.569C437.125 497.702 423.965 482.431 412.127 466.807C406.105 458.859 400.368 450.702 394.578 442.586C393.189 440.64 391.797 438.695 390.396 436.758C388.9 434.689 387.284 432.444 384.482 432.336C383.025 432.28 381.626 432.773 380.267 433.233C378.531 433.819 376.796 434.408 375.06 434.996C373.498 435.525 371.936 436.054 370.374 436.583C369.508 436.876 368.645 437.194 367.771 437.465C367.401 437.579 366.423 438.006 366.039 437.758C365.369 437.325 366.348 434.862 366.601 434.241C367.172 432.842 368.036 431.598 369.064 430.499C370.174 429.311 368.753 427.307 367.287 428.196C365.469 429.298 360.758 431.683 360.291 428.025C360.056 426.185 361.272 424.305 362.348 422.925C363.531 421.405 364.976 420.02 366.57 418.937L364.793 416.634C363.287 417.806 361.528 418.619 359.671 419.044C359.14 419.165 357.387 419.669 356.922 419.249C356.447 418.82 356.792 417.225 356.892 416.732C357.544 413.532 359.831 410.74 362.906 409.593C364.645 408.943 363.941 406.165 362.126 406.765C360.808 407.201 359.142 407.559 357.842 406.864C356.49 406.142 356.565 404.352 357.042 403.091C357.689 401.381 359.308 400.332 360.849 399.502C362.731 398.489 364.712 397.648 366.729 396.944C375.657 393.829 385.385 393.437 394.651 395.113C412.882 398.411 429.46 408.692 443.583 420.306C450.579 426.059 457.131 432.335 463.38 438.887C469.617 445.425 475.683 452.173 481.261 459.283C484.02 462.8 486.851 466.543 490.594 469.074C492.326 470.245 494.046 471.484 495.809 472.606C497.116 473.437 498.539 473.794 500.067 473.426C502.156 472.923 504.134 471.542 505.954 470.449C507.912 469.275 509.824 468.025 511.701 466.725C515.548 464.059 519.246 461.183 522.885 458.242C538.404 445.697 553.447 432.619 568.221 419.209C570.078 417.523 571.933 415.835 573.789 414.147C575.188 412.874 573.109 410.804 571.715 412.072Z" fill="#FF008C"/>
<path d="M611.046 528.136C615.446 533.934 622.187 537.492 629.483 537.712L628.069 536.636C634.972 557.325 643.377 577.514 653.198 596.988C663.027 616.479 674.276 635.255 686.831 653.113C693.85 663.097 701.279 672.792 709.081 682.175C710.289 683.628 712.353 681.544 711.155 680.102C697.323 663.467 684.718 645.824 673.445 627.358C662.222 608.975 652.32 589.785 643.846 569.983C639.058 558.794 634.749 547.401 630.897 535.856C630.686 535.224 630.156 534.8 629.483 534.78C623.315 534.594 617.322 531.589 613.578 526.656C612.452 525.172 609.904 526.631 611.046 528.136Z" fill="white"/>
<path d="M583.752 513.787C581.756 526.804 585.443 539.835 588.749 552.328C591.979 564.532 595.689 576.631 600.418 588.345C603.112 595.02 606.125 601.563 609.538 607.901C610.433 609.563 612.966 608.084 612.07 606.421C606.182 595.487 601.519 583.959 597.639 572.173C593.743 560.339 590.3 548.201 587.786 535.993C586.34 528.97 585.485 521.705 586.579 514.567C586.862 512.72 584.037 511.925 583.752 513.787Z" fill="white"/>
<path d="M573.263 512.482C574.365 521.254 575.888 529.968 577.884 538.582C578.808 542.569 579.594 546.796 581.619 550.402C583.535 553.814 586.457 556.52 589.312 559.134C590.702 560.406 592.782 558.338 591.386 557.06C588.71 554.611 585.954 552.115 584.151 548.922C582.18 545.431 581.491 541.197 580.603 537.331C578.72 529.128 577.245 520.832 576.196 512.482C575.964 510.634 573.028 510.611 573.263 512.482Z" fill="white"/>
<path d="M569.877 566.542C570.733 586.701 572.424 606.822 574.957 626.84C577.477 646.747 580.806 666.55 584.96 686.181C587.316 697.314 589.938 708.39 592.814 719.4C593.29 721.225 596.12 720.451 595.642 718.621C590.583 699.255 586.319 679.684 582.88 659.966C579.435 640.218 576.816 620.329 575.032 600.362C574.027 589.108 573.289 577.831 572.809 566.542C572.729 564.662 569.796 564.652 569.877 566.542Z" fill="white"/>
<path d="M559.623 751.456L559.7 751.445L559.31 751.497C559.776 751.437 560.243 751.438 560.709 751.496L560.319 751.443C560.681 751.493 561.036 751.574 561.382 751.69C561.456 751.715 561.529 751.741 561.602 751.769C561.971 751.91 561.383 751.658 561.612 751.773C561.763 751.848 561.915 751.921 562.063 752.006C562.209 752.09 562.352 752.181 562.49 752.278C562.811 752.502 562.313 752.119 562.505 752.283C562.564 752.334 562.625 752.383 562.683 752.435C562.819 752.555 562.949 752.683 563.072 752.816C563.125 752.874 563.176 752.932 563.227 752.992C563.479 753.292 563.087 752.798 563.237 753.004C563.468 753.321 563.721 753.569 564.113 753.678C564.464 753.774 564.931 753.731 565.243 753.53C565.856 753.135 566.252 752.187 565.769 751.524C564.942 750.388 563.895 749.567 562.599 749.029C561.396 748.53 560.121 748.443 558.843 748.628C558.505 748.677 558.13 749.022 557.967 749.302C557.783 749.616 557.705 750.079 557.819 750.432C557.934 750.787 558.154 751.129 558.493 751.308C558.865 751.505 559.209 751.516 559.623 751.456Z" fill="#FF008C"/>
<path d="M558.845 758.734C559.101 758.807 559.35 758.894 559.595 758.997L559.245 758.849C559.733 759.059 560.191 759.327 560.614 759.648L560.317 759.419C560.672 759.693 560.996 760.001 561.286 760.342C561.518 760.615 561.978 760.772 562.323 760.772C562.683 760.772 563.112 760.612 563.36 760.342C563.617 760.063 563.807 759.696 563.79 759.305L563.737 758.916C563.667 758.667 563.542 758.452 563.36 758.269C562.397 757.135 561.052 756.311 559.625 755.906C559.261 755.803 558.821 755.864 558.495 756.054C558.191 756.232 557.901 756.581 557.821 756.931C557.736 757.306 557.754 757.727 557.969 758.06C558.177 758.383 558.469 758.628 558.845 758.734Z" fill="#FF008C"/>
<path d="M556.634 765.656C557.222 766.171 557.81 766.686 558.399 767.2C558.531 767.343 558.689 767.444 558.87 767.503C559.045 767.595 559.234 767.637 559.435 767.63C559.637 767.637 559.826 767.595 560 767.503C560.182 767.444 560.339 767.343 560.472 767.2C560.729 766.921 560.919 766.554 560.902 766.163C560.885 765.79 560.764 765.382 560.472 765.127C559.884 764.612 559.296 764.097 558.707 763.583C558.575 763.44 558.417 763.339 558.235 763.279C558.061 763.188 557.872 763.146 557.671 763.153C557.469 763.146 557.28 763.188 557.106 763.279C556.924 763.339 556.767 763.44 556.634 763.583C556.377 763.862 556.187 764.229 556.204 764.62C556.221 764.993 556.342 765.401 556.634 765.656Z" fill="#FF008C"/>
<path d="M696.289 725.04C696.335 725.02 696.381 725 696.428 724.981L696.077 725.129C696.73 724.859 697.409 724.675 698.108 724.575L697.718 724.628C698.392 724.538 699.071 724.528 699.747 724.602C700.097 724.64 700.546 724.411 700.784 724.173C701.038 723.918 701.23 723.501 701.213 723.136C701.196 722.757 701.072 722.363 700.784 722.099C700.48 721.82 700.155 721.714 699.747 721.669C698.896 721.576 698.061 721.635 697.216 721.764C696.373 721.892 695.589 722.169 694.809 722.508C694.495 722.645 694.222 723.07 694.135 723.384C694.039 723.735 694.082 724.203 694.283 724.514C694.485 724.827 694.785 725.103 695.159 725.188L695.549 725.241C695.814 725.24 696.061 725.173 696.289 725.04Z" fill="#FF008C"/>
<path d="M696.874 732.095C697.306 732.061 697.738 732.072 698.168 732.126L697.778 732.074C698.325 732.148 698.856 732.292 699.366 732.505L699.015 732.357C699.16 732.419 699.302 732.486 699.442 732.558C699.792 732.738 700.184 732.812 700.572 732.706C700.912 732.612 701.281 732.349 701.448 732.032C701.628 731.692 701.718 731.279 701.596 730.902C701.482 730.55 701.262 730.2 700.922 730.026C699.681 729.388 698.272 729.052 696.874 729.162C696.48 729.194 696.124 729.305 695.837 729.592C695.582 729.846 695.391 730.264 695.407 730.629C695.424 731.008 695.549 731.401 695.837 731.666C696.11 731.917 696.489 732.126 696.874 732.095Z" fill="#FF008C"/>
<path d="M698.343 739.175C698.637 739.322 698.932 739.469 699.226 739.616C699.394 739.723 699.576 739.781 699.771 739.79C699.966 739.834 700.161 739.825 700.356 739.764C700.546 739.719 700.713 739.631 700.854 739.501C701.014 739.398 701.14 739.261 701.232 739.09L701.38 738.74C701.449 738.48 701.449 738.22 701.38 737.96L701.232 737.61C701.101 737.39 700.926 737.214 700.706 737.084C700.412 736.937 700.118 736.79 699.824 736.643C699.655 736.535 699.474 736.477 699.278 736.469C699.083 736.425 698.889 736.434 698.694 736.495C698.503 736.54 698.337 736.628 698.195 736.757C698.035 736.861 697.91 736.998 697.817 737.169L697.67 737.519C697.6 737.779 697.6 738.039 697.67 738.299L697.817 738.649C697.948 738.869 698.123 739.045 698.343 739.175Z" fill="#FF008C"/>
<path d="M491.614 336.812C489.469 336.916 486.127 336.532 486.838 333.528C487.338 331.415 489.645 330.434 491.551 330.001C493.611 329.533 495.871 329.503 497.96 329.798C499.25 329.981 500.739 330.369 501.502 331.52C502.212 332.59 501.836 333.486 500.954 334.282C499.841 335.288 498.403 335.744 496.974 336.09C495.214 336.517 493.419 336.706 491.614 336.812C489.738 336.922 489.726 339.855 491.614 339.744C495.469 339.518 499.901 339.086 502.934 336.441C504.345 335.21 505.15 333.462 504.695 331.584C504.201 329.547 502.529 328.135 500.629 327.438C497.772 326.389 494.158 326.506 491.206 327.082C488.162 327.676 484.922 329.42 484.041 332.623C483.455 334.753 484.081 337.085 485.872 338.432C487.503 339.66 489.639 339.84 491.614 339.744C493.493 339.653 493.504 336.719 491.614 336.812Z" fill="#FF008C"/>
<path d="M488.23 329.945C490.048 328.898 492.876 329.191 493.969 331.112C494.788 332.552 494.738 334.459 493.796 335.822C492.854 337.185 491.047 337.907 489.438 337.512C485.853 336.633 484.977 331.816 488.23 329.945Z" fill="#FF008C"/>
<path d="M488.969 331.211C489.05 331.165 489.134 331.125 489.215 331.08C489.502 330.921 488.898 331.187 489.21 331.078C489.39 331.015 489.568 330.954 489.753 330.907C489.846 330.884 489.94 330.864 490.034 330.846C490.373 330.783 490.061 330.893 490.026 330.842C490.05 330.877 490.625 330.814 490.701 330.816C490.797 330.819 490.893 330.828 490.99 330.833C491.328 330.848 490.65 330.761 490.981 330.829C491.169 330.868 491.354 330.905 491.538 330.961C491.556 330.967 491.805 331.055 491.806 331.053C491.793 331.075 491.489 330.901 491.8 331.056C491.983 331.146 492.142 331.27 492.319 331.368C492.489 331.463 492.061 331.125 492.277 331.343C492.342 331.409 492.414 331.47 492.478 331.538L492.542 331.607C492.642 331.726 492.626 331.7 492.492 331.53C492.519 331.528 492.637 331.743 492.653 331.768C492.71 331.862 492.756 331.961 492.811 332.056C492.997 332.377 492.73 331.776 492.846 332.129C492.932 332.388 493 332.642 493.058 332.908C493.14 333.277 493.056 332.598 493.065 332.976C493.067 333.092 493.078 333.207 493.079 333.322C493.079 333.438 493.075 333.553 493.067 333.669L493.058 333.784C493.039 333.952 493.041 333.937 493.064 333.737C493.096 333.917 492.952 334.235 492.895 334.406C492.871 334.474 492.71 334.802 492.872 334.482C492.802 334.62 492.736 334.757 492.655 334.888C492.615 334.954 492.57 335.016 492.53 335.082C492.343 335.386 492.738 334.879 492.488 335.133C492.356 335.267 492.192 335.52 492.014 335.594C492.314 335.469 492.044 335.57 491.957 335.627C491.866 335.689 491.771 335.746 491.675 335.8C491.602 335.841 491.464 335.945 491.38 335.951C491.563 335.879 491.578 335.872 491.426 335.932C491.357 335.958 491.287 335.982 491.217 336.004C491.034 336.063 490.77 336.171 490.575 336.156C490.95 336.184 490.626 336.144 490.528 336.149C490.419 336.154 490.309 336.155 490.199 336.151C490.117 336.148 489.757 336.169 490.152 336.162C490.05 336.164 489.926 336.122 489.828 336.098C489.637 336.052 489.419 335.924 489.228 335.905C489.502 335.932 489.45 336.011 489.3 335.929C489.237 335.895 489.172 335.865 489.11 335.83C488.976 335.756 488.826 335.607 488.684 335.559C488.941 335.646 488.872 335.712 488.722 335.584C488.66 335.531 488.599 335.476 488.54 335.419C488.482 335.363 488.425 335.305 488.37 335.245C488.282 335.15 488.115 334.858 488.341 335.233C488.181 334.966 488.026 334.67 487.855 334.413C488.06 334.721 487.935 334.611 487.884 334.47C487.857 334.396 487.832 334.321 487.809 334.246C487.756 334.069 487.719 333.891 487.683 333.71C487.625 333.418 487.712 334.087 487.695 333.789C487.691 333.711 487.683 333.633 487.68 333.555C487.673 333.371 487.684 333.19 487.695 333.007C487.713 332.71 487.624 333.379 487.684 333.087C487.706 332.984 487.724 332.881 487.75 332.78C487.77 332.703 487.791 332.628 487.816 332.553C487.858 332.42 488.029 332.157 487.808 332.533C487.902 332.372 487.97 332.197 488.07 332.037C488.113 331.968 488.161 331.902 488.206 331.834C488.345 331.628 487.971 332.105 488.237 331.808C488.332 331.702 488.627 331.517 488.67 331.393L488.512 331.513C488.56 331.477 488.608 331.442 488.657 331.408C488.759 331.338 488.863 331.273 488.969 331.211C489.63 330.821 489.925 329.872 489.495 329.205C489.066 328.539 488.196 328.262 487.489 328.679C485.746 329.705 484.618 331.626 484.753 333.672C484.883 335.645 485.982 337.54 487.781 338.443C490.067 339.589 493.018 339.113 494.667 337.08C496.407 334.935 496.496 331.637 494.615 329.533C492.868 327.579 489.674 327.455 487.489 328.679C486.819 329.054 486.539 330.028 486.963 330.685C487.4 331.363 488.253 331.612 488.969 331.211Z" fill="#FF008C"/>
<path d="M530.224 332.901C528.079 333.006 524.737 332.622 525.447 329.618C525.947 327.505 528.254 326.524 530.161 326.091C532.22 325.623 534.48 325.593 536.569 325.888C537.859 326.07 539.349 326.459 540.111 327.609C540.821 328.68 540.445 329.576 539.564 330.372C538.451 331.378 537.013 331.834 535.583 332.18C533.823 332.607 532.028 332.796 530.224 332.901C528.348 333.011 528.335 335.945 530.224 335.834C534.078 335.608 538.51 335.176 541.543 332.531C542.954 331.3 543.76 329.551 543.304 327.673C542.81 325.637 541.138 324.224 539.239 323.527C536.381 322.479 532.767 322.595 529.816 323.171C526.772 323.765 523.531 325.509 522.651 328.713C522.065 330.843 522.691 333.174 524.481 334.522C526.112 335.75 528.248 335.93 530.224 335.834C532.102 335.742 532.113 332.809 530.224 332.901Z" fill="#FF008C"/>
<path d="M526.839 326.034C528.657 324.988 531.486 325.281 532.578 327.202C533.397 328.642 533.348 330.549 532.406 331.912C531.464 333.275 529.657 333.997 528.048 333.602C524.463 332.722 523.587 327.906 526.839 326.034Z" fill="#FF008C"/>
<path d="M527.579 327.301C527.66 327.255 527.744 327.215 527.825 327.17C528.111 327.011 527.508 327.277 527.819 327.168C527.999 327.105 528.177 327.043 528.363 326.997C528.456 326.974 528.549 326.954 528.644 326.936C528.982 326.873 528.671 326.983 528.635 326.932C528.659 326.967 529.234 326.904 529.31 326.906C529.407 326.909 529.503 326.918 529.599 326.923C529.937 326.938 529.259 326.851 529.59 326.919C529.778 326.958 529.964 326.995 530.147 327.051C530.165 327.056 530.414 327.144 530.415 327.143C530.402 327.165 530.099 326.991 530.41 327.145C530.593 327.236 530.752 327.36 530.928 327.458C531.098 327.553 530.67 327.215 530.886 327.433C530.952 327.499 531.023 327.559 531.087 327.628L531.151 327.697C531.252 327.816 531.235 327.79 531.101 327.619C531.129 327.617 531.247 327.833 531.262 327.858C531.319 327.951 531.365 328.051 531.42 328.145C531.607 328.467 531.339 327.866 531.456 328.219C531.541 328.477 531.609 328.732 531.668 328.997C531.749 329.367 531.666 328.688 531.674 329.066C531.676 329.182 531.688 329.296 531.688 329.412C531.688 329.528 531.685 329.643 531.676 329.758L531.667 329.873C531.648 330.042 531.65 330.026 531.673 329.827C531.706 330.007 531.561 330.325 531.504 330.496C531.481 330.564 531.32 330.892 531.481 330.572C531.412 330.709 531.345 330.847 531.265 330.978C531.224 331.044 531.179 331.106 531.139 331.172C530.952 331.476 531.347 330.969 531.097 331.223C530.965 331.357 530.802 331.61 530.624 331.683C530.924 331.559 530.654 331.659 530.567 331.717C530.475 331.778 530.381 331.836 530.284 331.89C530.212 331.931 530.073 332.034 529.99 332.041C530.172 331.968 530.187 331.962 530.035 332.022C529.966 332.048 529.897 332.072 529.827 332.094C529.643 332.153 529.379 332.261 529.185 332.246C529.559 332.274 529.235 332.234 529.137 332.238C529.028 332.244 528.918 332.244 528.808 332.24C528.726 332.237 528.366 332.259 528.761 332.252C528.66 332.254 528.535 332.212 528.437 332.188C528.246 332.142 528.028 332.014 527.837 331.995C528.112 332.022 528.06 332.101 527.909 332.019C527.847 331.985 527.782 331.955 527.719 331.92C527.585 331.846 527.435 331.697 527.294 331.649C527.551 331.736 527.481 331.802 527.331 331.674C527.269 331.621 527.208 331.566 527.15 331.509C527.091 331.452 527.034 331.394 526.979 331.335C526.892 331.24 526.725 330.948 526.951 331.323C526.79 331.056 526.635 330.76 526.465 330.502C526.669 330.811 526.545 330.701 526.493 330.56C526.466 330.486 526.441 330.411 526.418 330.336C526.365 330.159 526.329 329.981 526.293 329.8C526.234 329.507 526.322 330.177 526.304 329.879C526.3 329.801 526.292 329.723 526.289 329.645C526.282 329.461 526.293 329.28 526.304 329.097C526.323 328.8 526.233 329.468 526.294 329.176C526.315 329.074 526.333 328.971 526.359 328.87C526.379 328.793 526.401 328.718 526.425 328.643C526.468 328.51 526.639 328.247 526.417 328.623C526.512 328.462 526.579 328.286 526.679 328.127C526.723 328.058 526.77 327.992 526.816 327.924C526.954 327.718 526.58 328.194 526.846 327.898C526.941 327.792 527.236 327.606 527.279 327.483L527.121 327.603C527.169 327.567 527.218 327.531 527.267 327.497C527.368 327.427 527.473 327.363 527.579 327.301C528.239 326.911 528.534 325.962 528.104 325.295C527.675 324.629 526.805 324.352 526.098 324.769C524.356 325.795 523.227 327.716 523.362 329.762C523.493 331.735 524.591 333.63 526.39 334.532C528.676 335.679 531.627 335.202 533.277 333.17C535.017 331.025 535.106 327.727 533.225 325.623C531.477 323.669 528.283 323.545 526.098 324.769C525.428 325.144 525.148 326.118 525.572 326.775C526.009 327.452 526.862 327.702 527.579 327.301Z" fill="#FF008C"/>
<path d="M512.208 465.909C520.844 478.294 527.409 492.057 531.538 506.583C532.712 510.714 533.684 514.898 534.468 519.12C534.812 520.973 537.639 520.188 537.296 518.34C534.509 503.333 529.222 488.801 521.718 475.507C519.571 471.704 517.238 468.011 514.74 464.429C513.669 462.891 511.125 464.356 512.208 465.909Z" fill="#FF008C"/>
<path d="M420.106 638.924L426.304 685.387C426.645 687.946 428.224 690.174 430.526 691.344L472.314 712.579C478.111 715.525 478.014 723.839 472.149 726.649L429.876 746.9C427.547 748.016 425.917 750.206 425.515 752.757L418.233 799.062C417.223 805.486 409.285 807.962 404.8 803.253L372.477 769.307C370.696 767.437 368.109 766.563 365.559 766.97L319.271 774.352C312.849 775.376 308.041 768.593 311.134 762.872L333.43 721.641C334.658 719.37 334.69 716.639 333.515 714.34L312.19 672.598C309.231 666.807 314.197 660.138 320.593 661.312L366.696 669.775C369.236 670.242 371.843 669.428 373.667 667.601L406.775 634.42C411.369 629.817 419.247 632.479 420.106 638.924Z" fill="#84FF20"/>
<path d="M231.122 597.132L261.79 632.581C263.479 634.534 266.022 635.53 268.588 635.245L315.176 630.079C321.639 629.362 326.119 636.368 322.756 641.934L298.519 682.055C297.184 684.265 297.022 686.991 298.085 689.344L317.396 732.055C320.074 737.98 314.796 744.406 308.463 742.928L262.816 732.275C260.302 731.688 257.659 732.376 255.75 734.115L221.096 765.678C216.289 770.057 208.547 767.022 207.996 760.543L204.022 713.838C203.803 711.265 202.332 708.965 200.088 707.686L159.361 684.483C153.71 681.263 154.204 672.963 160.196 670.436L203.387 652.224C205.766 651.221 207.5 649.111 208.022 646.582L217.505 600.678C218.821 594.309 226.868 592.214 231.122 597.132Z" fill="#84FF20"/>
<path d="M374.653 475.863L389.778 520.23C390.611 522.674 392.593 524.552 395.079 525.251L440.202 537.943C446.461 539.704 447.985 547.879 442.78 551.776L405.258 579.871C403.191 581.419 402.018 583.884 402.121 586.465L403.994 633.301C404.253 639.798 396.95 643.773 391.634 640.027L353.32 613.024C351.21 611.536 348.502 611.183 346.08 612.078L302.115 628.332C296.015 630.587 289.978 624.869 291.898 618.656L305.74 573.873C306.502 571.406 306.002 568.721 304.402 566.694L275.358 529.904C271.328 524.8 274.901 517.291 281.403 517.197L328.272 516.523C330.854 516.485 333.252 515.18 334.685 513.032L360.7 474.04C364.309 468.631 372.555 469.708 374.653 475.863Z" fill="#84FF20"/>
<path d="M298.411 350.251L313.535 394.617C314.369 397.061 316.351 398.939 318.837 399.638L363.959 412.331C370.219 414.092 371.743 422.266 366.537 426.164L329.016 454.258C326.949 455.806 325.776 458.272 325.879 460.852L327.751 507.688C328.011 514.186 320.707 518.161 315.392 514.414L277.078 487.411C274.967 485.924 272.26 485.57 269.838 486.465L225.872 502.719C219.773 504.974 213.736 499.256 215.656 493.043L229.498 448.26C230.26 445.793 229.76 443.108 228.16 441.082L199.116 404.291C195.086 399.187 198.659 391.678 205.161 391.584L252.03 390.91C254.612 390.873 257.01 389.567 258.443 387.419L284.458 348.428C288.067 343.018 296.312 344.096 298.411 350.251Z" fill="#84FF20"/>
<path d="M343.382 202.078L343.892 248.949C343.921 251.531 345.218 253.934 347.361 255.375L386.261 281.526C391.658 285.154 390.552 293.395 384.389 295.472L339.97 310.442C337.523 311.266 335.639 313.242 334.931 315.726L322.081 360.803C320.298 367.057 312.118 368.552 308.239 363.333L280.276 325.714C278.735 323.641 276.273 322.46 273.693 322.554L226.85 324.262C220.352 324.499 216.402 317.182 220.167 311.879L247.304 273.66C248.799 271.554 249.162 268.848 248.275 266.423L232.175 222.401C229.942 216.294 235.681 210.276 241.887 212.218L286.621 226.217C289.086 226.988 291.772 226.497 293.804 224.904L330.696 195.988C335.815 191.977 343.311 195.576 343.382 202.078Z" fill="#84FF20"/>
<path d="M792.538 723.205C790.425 721.21 791.455 718.003 793.255 716.153C795.576 713.768 798.929 714.02 801.424 716.054C808.855 722.11 804.231 732.254 800.204 738.779C799.476 739.957 801.003 741.691 802.21 740.785C805.688 738.174 811.162 738.582 813.91 742.124C816.583 745.57 815.703 751.219 812.2 753.768L814.207 755.775C816.064 752.442 820.316 751.233 823.861 752.27C827.936 753.462 830.779 757.222 832.158 761.071C832.669 762.499 834.445 762.416 834.985 761.071C836.887 756.335 843.598 755.632 847.633 757.767C853.28 760.754 855.191 767.91 855.457 773.814C855.542 775.693 858.475 775.704 858.389 773.814C858.066 766.636 855.463 758 848.3 754.847C842.48 752.285 834.677 754.017 832.157 760.292H834.985C833.227 755.383 829.585 750.7 824.321 749.355C819.602 748.149 814.111 749.922 811.674 754.294C811.011 755.484 812.431 757.21 813.68 756.301C818.454 752.826 820.025 745.553 816.442 740.644C812.931 735.834 805.515 734.66 800.73 738.253L802.736 740.259C807.012 733.332 811.019 724.261 805.876 716.673C803.9 713.757 800.783 711.525 797.16 711.458C794.028 711.4 791.217 713.422 789.681 716.054C787.967 718.991 787.866 722.826 790.465 725.279C791.837 726.574 793.914 724.503 792.538 723.205Z" fill="#FF008C"/>
<path d="M788.776 772.34C788.46 769.929 789.963 767.516 792.358 766.986C794.437 766.526 796.972 767.991 797.646 770.111C798.217 771.902 801.049 771.137 800.474 769.331C799.32 765.705 795.477 763.411 791.736 764.126C788.11 764.819 785.367 768.699 785.843 772.34C785.946 773.125 786.443 773.806 787.309 773.806C788.022 773.806 788.879 773.131 788.776 772.34Z" fill="#FF008C"/>
<path d="M814.271 743.206C817.67 729.956 826.567 718.409 838.335 711.482C841.695 709.504 845.258 707.935 848.984 706.793C850.783 706.241 850.016 703.409 848.204 703.965C834.368 708.209 822.527 718.214 815.827 731.026C813.936 734.642 812.457 738.473 811.443 742.426C810.974 744.255 813.801 745.035 814.271 743.206Z" fill="#FF008C"/>
<path d="M847.958 704.542C852.594 699.997 860.744 699.931 865.44 704.425V702.351C861.545 707.061 854.449 708.6 849.021 705.68C847.359 704.786 845.876 707.317 847.541 708.213C854.048 711.713 862.771 710.159 867.514 704.425C868.01 703.825 868.13 702.941 867.514 702.351C861.664 696.752 851.671 696.795 845.884 702.469C844.534 703.792 846.608 705.865 847.958 704.542Z" fill="#FF008C"/>
<path d="M834.668 704.171C831.08 698.286 833.52 689.852 839.637 686.725L837.86 686.495C841.307 690.364 839.567 697.142 834.971 699.224C834.245 699.554 834.083 700.593 834.445 701.23C834.87 701.977 835.735 702.081 836.452 701.756C842.869 698.849 844.529 689.58 839.933 684.422C839.485 683.919 838.715 683.907 838.157 684.192C830.647 688.033 827.757 698.469 832.136 705.651C833.117 707.26 835.654 705.788 834.668 704.171Z" fill="#FF008C"/>
<path d="M836.644 714.677C837.613 715.137 838.17 715.535 838.853 716.234C839.008 716.392 839.156 716.556 839.299 716.725C839.343 716.777 839.511 716.984 839.393 716.831C839.468 716.929 839.539 717.03 839.609 717.13C839.891 717.535 840.142 717.961 840.359 718.404C840.413 718.514 840.466 718.626 840.516 718.739C840.452 718.595 840.513 718.73 840.539 718.798C840.626 719.029 840.709 719.26 840.781 719.496C840.853 719.731 840.916 719.97 840.969 720.21C840.996 720.33 841.02 720.451 841.042 720.572C841.05 720.616 841.101 720.94 841.067 720.692C841.207 721.722 841.14 722.574 840.952 723.375L843.106 722.499C840.991 721.414 839.322 720.114 837.749 718.333C837.018 717.507 836.456 716.731 835.857 715.724C835.235 714.68 834.782 713.717 834.41 712.67C834.145 711.925 833.41 711.426 832.607 711.646C831.884 711.845 831.316 712.7 831.582 713.45C833.341 718.404 836.934 722.625 841.626 725.031C842.433 725.445 843.552 725.121 843.78 724.155C844.879 719.481 842.506 714.223 838.124 712.145C837.409 711.806 836.541 711.946 836.118 712.671C835.744 713.309 835.925 714.336 836.644 714.677Z" fill="#FF008C"/>
<path d="M184.384 750.901C180.145 746.578 173.208 745.801 167.895 748.527C162.415 751.34 160.175 757.735 161.527 763.557C162.289 766.839 164.193 769.706 166.946 771.642C168.321 772.608 169.906 770.478 168.723 769.339C164.93 765.685 158.95 762.97 153.844 765.594C149.805 767.669 147.389 773.112 149.919 777.197L151.575 775.043C146.183 773.234 139.939 774.943 135.994 778.988C131.868 783.22 131.069 789.522 133.343 794.875C134.607 797.85 136.758 800.372 139.573 801.98C141.214 802.918 142.693 800.385 141.053 799.448C135.958 796.537 133.458 789.601 135.928 784.172C138.416 778.705 145.176 775.986 150.795 777.871C152.011 778.279 153.106 776.775 152.451 775.717C150.709 772.904 152.781 769.206 155.582 768.002C159.461 766.334 163.891 768.755 166.649 771.412L168.426 769.11C163.638 765.743 162.523 758.006 166.295 753.48C170.202 748.791 178.099 748.68 182.31 752.975C183.634 754.325 185.707 752.25 184.384 750.901Z" fill="#FF008C"/>
<path d="M183.532 796.984C183.239 795.858 183.411 794.629 183.987 793.577C184.573 792.504 185.469 791.663 186.53 791.322C187.263 791.085 187.527 791.097 188.337 791.125C188.633 791.136 188.24 791.089 188.556 791.15C188.707 791.179 188.858 791.209 189.008 791.247C189.207 791.297 189.404 791.356 189.598 791.424C189.638 791.439 190.02 791.599 189.82 791.508C190.446 791.791 190.915 792.11 191.303 792.479C191.433 792.603 191.554 792.734 191.675 792.866C191.726 792.923 191.776 792.981 191.824 793.041C191.752 792.945 191.768 792.968 191.871 793.111C191.959 793.236 192.041 793.366 192.118 793.499C192.146 793.548 192.38 794.013 192.308 793.84C192.614 794.569 193.278 795.093 194.111 794.864C194.799 794.675 195.444 793.795 195.136 793.06C193.944 790.222 191.273 788.344 188.184 788.183C185.172 788.026 182.379 789.938 181.18 792.661C180.467 794.279 180.255 796.04 180.704 797.764C181.179 799.589 184.008 798.815 183.532 796.984Z" fill="black"/>
<path d="M524.199 706.19C520.284 706.824 516.836 710.051 516.134 713.992C515.415 718.023 517.314 722.117 520.78 724.261L521.91 721.581C513.851 720.236 506.882 729.306 510.263 736.747L512.27 734.74C506.196 730.988 497.888 732.498 492.919 737.429C487.37 742.935 487.839 751.428 492.531 757.31C495.165 760.612 498.995 762.762 503.219 763.08C504.625 763.186 505.28 760.941 503.959 760.348C499.122 758.176 492.981 758.987 489.191 762.848C485.102 767.013 485.688 773.525 489.986 777.327C492.302 779.377 495.404 780.37 498.418 779.396C500.206 778.818 499.441 775.986 497.638 776.569C492.571 778.207 487.783 771.845 489.722 767.211C491.679 762.533 498.097 760.913 502.478 762.88L503.219 760.148C497.172 759.692 492.189 754.007 491.762 748.083C491.323 741.991 495.949 737.227 501.648 735.903C504.767 735.178 508.051 735.581 510.789 737.273C512.143 738.109 513.36 736.508 512.796 735.267C510.522 730.264 515.71 723.504 521.13 724.409C522.71 724.673 523.753 722.653 522.26 721.729C519.845 720.234 518.423 717.245 519.031 714.425C519.654 711.534 522.124 709.481 524.978 709.018C526.837 708.717 526.048 705.891 524.199 706.19Z" fill="#FF008C"/>
<path d="M529.346 747.08C527.911 748.057 526.907 749.596 526.653 751.324C526.376 753.207 526.789 754.98 527.984 756.474C528.466 757.075 529.563 757.013 530.058 756.474C530.644 755.835 530.572 755.042 530.058 754.4C530.33 754.74 530.032 754.352 529.973 754.257C529.894 754.13 529.822 753.999 529.756 753.865C529.737 753.825 529.718 753.785 529.7 753.744C529.654 753.642 529.674 753.69 529.761 753.888C529.769 753.836 529.701 753.727 529.685 753.678C529.637 753.537 529.596 753.393 529.562 753.248C529.545 753.175 529.529 753.102 529.515 753.029C529.505 752.973 529.462 752.703 529.5 752.958C529.537 753.212 529.501 752.942 529.497 752.884C529.491 752.809 529.486 752.735 529.484 752.66C529.478 752.494 529.479 752.329 529.489 752.163C529.492 752.103 529.497 752.043 529.502 751.983C529.506 751.938 529.511 751.893 529.516 751.848C529.53 751.733 529.522 751.789 529.494 752.014C529.555 751.91 529.554 751.694 529.584 751.571C529.62 751.425 529.662 751.281 529.71 751.138C529.734 751.067 529.765 750.998 529.787 750.927C529.84 750.755 529.645 751.222 529.761 750.987C529.828 750.853 529.892 750.718 529.966 750.588C530.041 750.458 530.125 750.336 530.206 750.211C530.376 749.947 529.987 750.458 530.194 750.223C530.243 750.167 530.291 750.11 530.341 750.055C530.442 749.945 530.548 749.84 530.659 749.741C530.696 749.708 530.815 749.644 530.831 749.596L530.677 749.716C530.726 749.68 530.776 749.646 530.826 749.612C531.459 749.181 531.801 748.303 531.352 747.606C530.946 746.976 530.024 746.618 529.346 747.08Z" fill="#FF008C"/>
<path d="M481.553 313.117C484.29 310.392 487.711 308.506 491.482 307.657C494.714 306.929 499.751 306.481 501.803 309.733C502.708 311.168 502.949 312.943 503.056 314.604C503.19 316.703 503.172 318.818 503.208 320.921C503.288 325.628 503.347 330.335 503.383 335.043C503.424 340.412 503.435 345.78 503.42 351.149C503.414 353.036 506.347 353.039 506.352 351.149C506.383 340.577 506.305 330.005 506.115 319.434C506.043 315.433 506.386 310.686 503.701 307.376C500.958 303.994 496.023 303.942 492.082 304.565C487.324 305.316 482.884 307.653 479.48 311.044C478.141 312.377 480.214 314.451 481.553 313.117Z" fill="#FF008C"/>
<path d="M548.478 305.058C545.013 301.113 539.627 300.149 534.672 299.535C529.25 298.862 523.412 298.706 518.609 301.714C517.014 302.714 518.484 305.252 520.09 304.247C524.325 301.593 529.493 301.851 534.268 302.418C538.584 302.932 543.387 303.696 546.404 307.131C547.652 308.552 549.72 306.471 548.478 305.058Z" fill="#FF008C"/>
<path d="M510.592 359.634C513.325 362.104 517.172 361.858 520.2 360.054C521.703 359.159 522.916 357.9 524.274 356.817C525.443 355.886 526.922 354.991 528.405 355.77C531.466 357.377 531.131 362.699 530.65 365.541C530.064 369.005 528.379 372.31 525.325 374.202C523.798 375.148 522.013 375.709 520.205 375.579C517.926 375.414 517.321 373.524 516.777 371.606C516.263 369.793 513.433 370.564 513.949 372.385C514.484 374.273 515.168 376.239 516.817 377.44C518.515 378.678 520.819 378.684 522.808 378.315C526.802 377.575 530.233 374.587 531.973 370.984C533.829 367.143 534.394 362.303 533.353 358.147C532.325 354.039 528.433 351.222 524.343 353.27C522.327 354.279 520.911 356.125 519.033 357.328C517.149 358.534 514.513 359.23 512.665 357.56C511.268 356.298 509.188 358.366 510.592 359.634Z" fill="#FF008C"/>
<path d="M514.969 371.39C521.308 371.136 527.498 368.218 531.728 363.489C531.412 366.671 529.728 369.557 527.792 372.102C526.085 374.348 523.881 376.562 521.073 376.827C520.347 376.895 519.533 376.79 519.051 376.243C518.784 375.941 518.655 375.544 518.549 375.155C518.351 374.432 518.206 373.694 518.116 372.95" fill="#FF008C"/>
<path d="M514.968 372.856C521.723 372.546 528.218 369.548 532.764 364.526L530.261 363.489C529.886 366.833 527.801 370.018 525.6 372.472C524.62 373.565 523.46 374.657 522.036 375.126C521.589 375.273 520.597 375.612 520.156 375.279C519.794 375.005 519.651 373.479 519.582 372.95C519.478 372.165 518.982 371.484 518.115 371.484C517.403 371.484 516.545 372.159 516.649 372.95C516.816 374.218 516.961 375.672 517.64 376.791C518.262 377.818 519.426 378.27 520.58 378.31C522.833 378.387 524.964 377.125 526.573 375.661C528.25 374.135 529.658 372.204 530.819 370.266C532.076 368.17 532.921 365.921 533.193 363.489C533.335 362.22 531.496 361.561 530.69 362.452C526.664 366.9 520.974 369.647 514.968 369.923C513.089 370.01 513.078 372.943 514.968 372.856Z" fill="#FF008C"/>
<path d="M577.883 303.952C577.983 302.723 577.863 301.569 577.593 300.465C577.509 301.611 577.596 302.78 577.883 303.952Z" fill="#FF008C"/>
<path d="M579.345 303.952C579.446 302.655 579.308 301.338 579.003 300.076C578.831 299.366 578.089 298.932 577.394 299.025C576.644 299.126 576.174 299.728 576.122 300.465C576.032 301.762 576.16 303.079 576.465 304.341C576.645 305.087 577.531 305.604 578.268 305.365C579.044 305.114 579.485 304.361 579.292 303.562C579.201 303.183 579.128 302.801 579.074 302.415L579.127 302.804C579.023 302.028 579 301.246 579.055 300.465L576.175 300.855C576.273 301.26 576.35 301.668 576.406 302.08L576.354 301.691C576.451 302.441 576.471 303.197 576.412 303.952C576.384 304.309 576.596 304.743 576.842 304.988C577.096 305.243 577.513 305.434 577.878 305.418C578.258 305.401 578.651 305.276 578.915 304.988C579.19 304.689 579.313 304.357 579.345 303.952Z" fill="#FF008C"/>
<path d="M662.924 225.168C662.592 222.976 662.21 220.671 660.813 218.95C658.515 216.12 654.373 215.835 650.727 215.796C612.313 215.38 573.88 216.794 535.601 220.029C525.223 220.907 514.856 221.918 504.489 222.929C494.617 223.891 484.312 226.791 475.736 231.933C474.711 232.548 473.663 233.242 473.1 234.297C472.557 235.316 472.545 236.525 472.547 237.681C472.559 246.966 473.198 255.844 473.97 264.714C475.909 264.028 477.794 263.123 479.675 262.284C503.064 251.847 529.592 251.882 555.203 252.098C555.389 262.809 555.888 274.415 562.675 282.705C567.605 288.726 575.888 293.495 577.593 300.465C578.175 292.479 587.092 285.626 595.383 286.999C604.865 288.57 611.551 298.287 611.861 307.893C612.171 317.498 607.27 326.64 600.777 333.725C605.015 334.54 609.254 335.355 613.492 336.17C623.887 338.169 634.543 340.173 644.991 338.474C654.87 336.867 663.996 331.995 671.856 325.799C673.347 324.624 674.78 323.381 676.187 322.108C672.184 289.74 667.774 257.422 662.924 225.168Z" fill="#FF008C"/>
<path d="M664.334 224.778C663.85 221.609 663.055 218.465 660.304 216.503C657.965 214.836 654.948 214.47 652.154 214.362C644.409 214.064 636.615 214.234 628.866 214.291C612.805 214.407 596.746 214.842 580.702 215.597C564.66 216.352 548.633 217.427 532.633 218.817C524.562 219.518 516.498 220.293 508.435 221.078C501.332 221.769 494.367 222.722 487.566 224.98C483.877 226.206 480.268 227.732 476.856 229.6C475.235 230.487 473.41 231.398 472.272 232.904C471.103 234.452 471.073 236.315 471.079 238.178C471.106 247.041 471.735 255.887 472.5 264.714C472.576 265.584 473.387 266.479 474.356 266.128C477.002 265.168 479.516 263.9 482.109 262.814C484.565 261.785 487.069 260.868 489.603 260.048C494.661 258.41 499.842 257.171 505.075 256.239C515.606 254.361 526.327 253.758 537.008 253.576C543.071 253.473 549.136 253.513 555.199 253.564L553.733 252.098C553.867 259.625 554.083 267.416 556.594 274.595C557.836 278.146 559.638 281.44 562.099 284.294C564.429 286.997 567.184 289.292 569.763 291.747C572.459 294.315 575.211 297.151 576.175 300.855C576.613 302.538 578.917 302.047 579.055 300.466C579.465 295.786 582.939 291.874 587.001 289.817C591.35 287.614 596.272 287.94 600.442 290.39C604.438 292.738 607.428 296.698 609.011 301.02C610.831 305.99 610.748 311.314 609.304 316.373C607.553 322.51 604.002 327.999 599.736 332.688C599.051 333.443 599.238 334.919 600.383 335.139C606.359 336.288 612.328 337.482 618.316 338.567C624.126 339.619 630.008 340.507 635.923 340.575C646.98 340.703 657.394 337.277 666.649 331.317C668.87 329.887 671.008 328.332 673.075 326.689C674.127 325.852 675.152 324.983 676.16 324.093C676.658 323.653 677.402 323.174 677.597 322.498C677.798 321.8 677.494 320.852 677.405 320.136C676.65 314.057 675.881 307.98 675.097 301.905C673.534 289.789 671.913 277.68 670.233 265.579C668.343 251.968 666.377 238.367 664.334 224.778C664.055 222.918 661.228 223.708 661.506 225.558C665.277 250.641 668.785 275.764 672.037 300.92C672.95 307.98 673.843 315.043 674.717 322.108L675.146 321.071C668.003 327.515 659.721 332.967 650.43 335.719C640.227 338.742 629.642 337.64 619.334 335.782C613.266 334.688 607.218 333.475 601.163 332.311L601.81 334.762C609.929 325.836 616.132 313.082 612.074 300.911C608.638 290.609 597.869 282.065 586.822 286.691C581.163 289.061 576.668 294.235 576.123 300.465L579.003 300.075C577.259 293.373 570.979 289.127 566.318 284.502C563.755 281.959 561.653 279.137 560.2 275.815C558.702 272.389 557.877 268.649 557.401 264.952C556.853 260.692 556.742 256.387 556.666 252.097C556.651 251.3 556.005 250.638 555.199 250.631C533.721 250.451 511.705 250.322 490.936 256.561C488.105 257.411 485.309 258.381 482.565 259.48C479.544 260.691 476.637 262.189 473.577 263.3L475.433 264.713C474.781 257.198 474.228 249.671 474.062 242.127C474.024 240.361 473.936 238.573 474.019 236.808C474.115 234.767 475.174 233.964 476.841 232.98C479.717 231.284 482.749 229.855 485.874 228.682C492.185 226.313 498.776 224.951 505.473 224.298C513.207 223.544 520.941 222.792 528.68 222.098C559.189 219.363 589.793 217.748 620.422 217.313C629.032 217.191 637.642 217.16 646.253 217.222C649.671 217.246 653.422 216.912 656.728 217.976C660.26 219.113 661.002 222.252 661.506 225.558C661.79 227.417 664.617 226.628 664.334 224.778Z" fill="#FF008C"/>
</svg>
