<svg width="1000" height="1000" viewBox="0 0 1000 1000" fill="none" xmlns="http://www.w3.org/2000/svg">
<path d="M581.555 227.362C591.865 219.543 606.191 217.352 618.366 221.733C627.813 225.131 636.606 232.272 646.576 231.098C653.256 230.312 658.835 225.894 664.698 222.598C670.561 219.302 678.141 217.133 683.781 220.797C688.135 223.625 689.98 229.468 688.814 234.527C687.649 239.587 683.871 243.789 679.33 246.304C684.89 245.947 689.711 251.697 689.137 257.24C688.563 262.783 683.466 267.241 677.938 267.94C680.699 270.03 681.647 273.947 680.854 277.318C680.06 280.69 677.791 283.55 675.156 285.797C666.291 293.356 653.126 294.587 642.144 290.698C631.162 286.809 622.223 278.429 615.627 268.826C614.901 267.77 614.189 266.674 613.849 265.438" fill="#FF008C"/>
<path d="M582.391 228.786C589.547 223.421 598.426 220.764 607.354 221.205C611.788 221.424 616.119 222.479 620.202 224.212C624.532 226.05 628.627 228.392 632.967 230.211C637.003 231.902 641.353 233.156 645.774 232.825C650.485 232.472 654.747 230.451 658.762 228.086C662.7 225.765 666.483 223.078 670.859 221.629C674.878 220.298 679.611 219.814 683.245 222.419C686.8 224.967 688.174 229.937 687.227 234.089C686.149 238.823 682.633 242.544 678.501 244.88C677.106 245.668 677.683 248.023 679.333 247.954C684.13 247.754 688.036 252.585 687.491 257.24C686.907 262.223 682.194 265.688 677.503 266.349C676.323 266.516 675.861 268.378 676.775 269.106C678.905 270.805 679.781 273.5 679.406 276.175C679.003 279.052 677.21 281.569 675.179 283.55C671.108 287.522 665.698 289.856 660.135 290.781C648.587 292.702 637.128 288.175 628.411 280.738C625.883 278.582 623.547 276.205 621.394 273.676C620.278 272.364 619.213 271.012 618.202 269.618C617.161 268.184 615.975 266.708 615.443 264.999C614.814 262.978 611.628 263.841 612.262 265.876C613.258 269.076 615.719 271.893 617.789 274.47C619.912 277.113 622.225 279.609 624.735 281.889C629.638 286.342 635.273 289.976 641.522 292.221C653.405 296.491 668.2 294.965 677.512 285.883C680.214 283.248 682.322 279.891 682.717 276.078C683.071 272.653 681.843 268.955 679.108 266.773L678.38 269.531C684.668 268.644 690.42 263.42 690.819 256.893C691.203 250.61 685.755 244.387 679.333 244.654L680.166 247.728C688.092 243.248 693.418 233.917 689.406 225.009C687.537 220.86 683.711 218.04 679.216 217.41C674.402 216.734 669.537 218.265 665.278 220.421C660.858 222.659 656.894 225.716 652.36 227.742C647.836 229.764 643.139 230.027 638.39 228.666C633.644 227.307 629.313 224.851 624.882 222.735C620.481 220.635 615.988 218.947 611.138 218.273C600.498 216.793 589.347 219.473 580.726 225.937C579.047 227.196 580.69 230.062 582.391 228.786Z" fill="#FF008C"/>
<path d="M670.361 767.217C651.679 767.131 632.997 767.068 614.316 767.007C570.37 766.864 526.425 766.745 482.48 766.611C462.714 766.55 442.949 766.487 423.183 766.412C414.952 766.381 406.023 767.278 397.929 766C388.912 764.576 379.223 761.473 371.509 756.479C365.749 752.749 357.935 749.828 353.545 744.449C347.869 737.494 348.216 726.594 353.719 719.502C359.223 712.41 369.091 709.32 377.871 711.188C392.327 714.264 403.647 726.219 418.977 726.575C461.623 727.564 504.377 726.87 547.034 727C588.143 727.125 629.252 727.237 670.361 727.425C684.328 727.49 699.42 728.958 713.221 726.754C726.094 724.699 735.922 720.75 747.161 714.017C754.937 709.36 763.684 704.725 772.97 704.577C781.107 704.448 787.954 711.934 790.445 719.308C796.884 738.362 777.52 752.093 762.311 758.544C733.889 770.599 700.523 767.356 670.361 767.217Z" fill="white"/>
<path d="M670.359 765.568C636.544 765.413 602.729 765.317 568.914 765.217C535.015 765.116 501.117 765.021 467.218 764.914C450.394 764.861 433.514 764.4 416.696 764.871C408.803 765.092 401.083 765.179 393.332 763.45C386.059 761.828 378.968 759.233 372.647 755.25C367.228 751.835 360.867 749.422 356.218 744.913C351.598 740.433 350.139 733.664 351.679 727.507C353.298 721.034 358.185 716.063 364.399 713.787C370.639 711.501 376.977 712.185 383.104 714.45C395.104 718.884 405.358 727.697 418.634 728.213C435.561 728.871 452.555 728.743 469.492 728.764C503.301 728.804 537.108 728.62 570.916 728.722C604.589 728.823 638.274 728.703 671.945 729.088C687.528 729.267 703.145 730.69 718.533 727.445C725.318 726.014 731.879 723.755 738.138 720.774C744.772 717.614 750.825 713.394 757.479 710.281C763.689 707.376 772.203 704.295 778.803 707.617C784.613 710.541 788.525 716.769 789.722 723.036C791.971 734.81 782.978 744.44 773.93 750.464C750.047 766.365 719.532 766.455 691.918 765.938C684.732 765.804 677.547 765.607 670.359 765.568C668.236 765.556 668.233 768.855 670.359 768.867C700.722 769.031 732.879 772.367 761.697 760.572C772.065 756.328 782.707 750.057 789.006 740.51C795.719 730.335 794.278 716.941 785.464 708.409C780.395 703.503 774.368 702.266 767.556 703.481C760.036 704.823 753.147 708.537 746.652 712.399C740.203 716.234 733.538 719.637 726.382 721.951C718.901 724.371 711.115 725.702 703.271 726.117C694.974 726.556 686.665 726.167 678.369 725.928C669.913 725.685 661.448 725.735 652.989 725.7C635.33 725.628 617.67 725.567 600.011 725.511C564.928 725.4 529.848 725.33 494.765 725.433C477.048 725.485 459.33 725.502 441.613 725.306C437.259 725.258 432.905 725.197 428.551 725.12C424.483 725.049 420.318 725.205 416.271 724.742C409.424 723.958 403.175 720.726 397.169 717.553C391.34 714.473 385.43 711.236 378.954 709.741C372.747 708.309 366.189 709.048 360.489 711.911C349.272 717.544 344.048 732.156 350.691 743.244C354.107 748.946 360.28 752.045 365.909 755.127C368.917 756.774 371.757 758.709 374.795 760.3C378.131 762.048 381.642 763.483 385.221 764.653C392.477 767.023 399.982 768.28 407.614 768.336C416.143 768.399 424.677 768.069 433.21 768.099C468.55 768.226 503.889 768.325 539.229 768.429C574.46 768.531 609.692 768.631 644.923 768.762C653.402 768.794 661.881 768.828 670.359 768.867C672.483 768.877 672.485 765.577 670.359 765.568Z" fill="#FF008C"/>
<path d="M530.484 466.131C561.82 532.782 578.062 677.016 583.056 733.647C584.338 748.189 591.869 751.764 605.391 753.46C625.385 755.969 645.597 755.077 665.636 753.643C672.91 753.122 680.181 752.814 684.773 746.139C689.211 739.687 685.591 730.883 680.672 725.839C675.448 720.482 668.481 717.15 662.959 712.101C644.665 695.372 644.078 668.434 642.827 645.534C640.304 599.332 632.679 552.798 623.234 507.634C617.266 479.091 610.192 450.201 595.047 425.282" fill="white"/>
<path d="M529.056 466.964C537.102 484.121 542.709 502.412 547.586 520.685C553.335 542.223 557.903 564.07 561.897 585.996C565.954 608.262 569.39 630.642 572.401 653.073C574.97 672.209 577.229 691.387 579.197 710.594C579.949 717.935 580.658 725.28 581.312 732.631C581.721 737.227 582.453 741.979 585.103 745.883C587.453 749.345 590.926 751.563 594.831 752.925C600.221 754.806 606.131 755.287 611.775 755.799C619.658 756.514 627.579 756.75 635.492 756.68C643.52 756.61 651.541 756.225 659.551 755.708C665.608 755.317 672.381 755.503 678.126 753.286C683.626 751.165 687.977 746.418 688.394 740.375C688.794 734.585 685.768 728.738 681.834 724.672C677.111 719.791 670.982 716.654 665.776 712.367C661.092 708.51 657.286 703.718 654.403 698.391C648.692 687.834 646.676 675.67 645.626 663.849C644.404 650.095 644.037 636.279 642.81 622.52C639.996 590.964 635.116 559.616 629.113 528.52C623.535 499.623 617.97 470.105 606.073 443.018C603.267 436.631 600.078 430.419 596.467 424.45C595.369 422.635 592.515 424.292 593.618 426.115C608.475 450.673 615.486 478.824 621.34 506.646C627.804 537.369 633.355 568.317 637.096 599.498C638.95 614.95 640.355 630.456 641.198 645.996C641.83 657.658 642.305 669.407 644.753 680.863C647.171 692.183 651.786 703.2 660.006 711.549C664.662 716.279 670.446 719.491 675.629 723.562C680.315 727.243 684.66 732.276 685.092 738.504C685.531 744.847 680.699 749.375 674.899 750.846C672.178 751.536 669.37 751.727 666.58 751.926C662.85 752.192 659.119 752.448 655.386 752.665C639.802 753.57 624.123 753.857 608.579 752.183C599.888 751.247 589.349 749.944 586.074 740.445C584.738 736.569 584.599 732.435 584.228 728.387C583.9 724.817 583.56 721.249 583.208 717.682C581.421 699.518 579.361 681.38 577.039 663.277C574.257 641.592 571.106 619.952 567.422 598.401C563.666 576.426 559.383 554.523 554.097 532.86C549.441 513.778 544.092 494.744 536.758 476.499C535.24 472.723 533.632 468.983 531.905 465.299C531.004 463.378 528.159 465.051 529.056 466.964Z" fill="#FF008C"/>
<path d="M583.05 733.647C584.332 748.189 591.863 751.764 605.385 753.46C625.379 755.969 645.591 755.077 665.63 753.643C672.904 753.122 680.175 752.814 684.767 746.139C689.205 739.687 685.586 730.883 680.666 725.839C675.442 720.482 668.475 717.15 662.953 712.101C659.675 709.103 656.877 705.786 655.052 701.72C653.243 697.687 652.605 692.928 649.402 689.65C644.867 685.009 636.596 685.817 631.816 690.205C628.863 692.916 627.071 696.64 626.201 700.511C625.766 702.444 625.559 704.423 625.526 706.403C625.505 707.719 625.761 710.645 624.698 711.606C624.394 711.881 623.99 712.012 623.595 712.123C620.35 713.042 616.935 713.137 613.563 713.185C604.494 713.314 595.476 713.856 586.513 714.273C580.375 714.56 582.679 729.441 583.05 733.647Z" fill="white"/>
<path d="M581.4 733.647C581.768 737.635 582.557 741.701 584.651 745.177C586.364 748.022 588.904 750.252 591.881 751.705C595.255 753.351 598.95 754.173 602.641 754.733C608.562 755.633 614.559 756.114 620.537 756.405C633.365 757.03 646.218 756.559 659.026 755.742C668.54 755.134 680.567 755.765 686.403 746.653C689.076 742.478 688.833 737.19 687.048 732.728C685.097 727.85 681.657 724.1 677.554 720.912C673.15 717.489 668.252 714.703 664.12 710.934C660.144 707.309 657.164 703.172 655.416 698.064C653.855 693.5 652.176 688.574 647.542 686.276C643.409 684.227 638.503 684.566 634.399 686.503C629.768 688.689 626.714 693.201 625.184 697.964C624.315 700.669 623.905 703.565 623.876 706.403C623.867 707.313 623.933 708.229 623.852 709.138C623.823 709.459 623.842 710.08 623.618 710.333C623.318 710.671 622.237 710.775 621.82 710.865C618.868 711.502 615.826 711.497 612.821 711.547C609.612 711.6 606.404 711.704 603.197 711.834C599.92 711.966 596.644 712.127 593.368 712.29C591.898 712.362 590.429 712.436 588.959 712.507C587.786 712.564 586.501 712.473 585.358 712.791C582.277 713.648 581.278 717.023 580.909 719.835C580.461 723.249 580.702 726.723 581.038 730.137C581.153 731.307 581.294 732.475 581.4 733.647C581.59 735.744 584.891 735.764 584.7 733.647C584.456 730.956 584.112 728.28 584.007 725.577C583.904 722.903 583.732 719.445 585.033 717.088C585.224 716.74 585.57 716.33 585.705 716.224C586.128 715.894 586.487 715.925 587.247 715.889C590.269 715.746 593.29 715.591 596.312 715.444C602.368 715.15 608.422 714.937 614.483 714.82C617.232 714.767 620.002 714.629 622.697 714.046C623.86 713.795 625.184 713.52 626.022 712.605C626.714 711.849 626.954 710.82 627.078 709.834C627.354 707.639 627.111 705.417 627.389 703.213C627.705 700.705 628.4 698.184 629.561 695.932C631.633 691.913 635.16 688.903 639.73 688.28C644.028 687.693 647.9 689.435 650.004 693.268C651.171 695.395 651.796 697.761 652.616 700.032C653.438 702.309 654.475 704.489 655.835 706.498C658.728 710.772 662.589 714.22 666.74 717.236C674.184 722.645 684.397 728.139 685.092 738.527C685.4 743.141 682.855 747.152 678.851 749.35C675.126 751.394 670.686 751.635 666.539 751.929C654.654 752.772 642.751 753.471 630.83 753.386C624.783 753.342 618.735 753.1 612.709 752.582C608.029 752.18 603.283 751.746 598.71 750.623C595.775 749.903 592.786 748.858 590.426 746.907C588.051 744.944 586.564 742.26 585.719 739.327C585.184 737.472 584.877 735.567 584.7 733.647C584.506 731.55 581.205 731.53 581.4 733.647Z" fill="#FF008C"/>
<path d="M588.101 739.322C587.049 739.256 585.523 739.009 583.883 738.824C586.418 749.091 593.641 751.986 605.387 753.46C625.381 755.969 645.593 755.077 665.632 753.643C672.906 753.122 680.177 752.814 684.769 746.139C689.207 739.687 685.587 730.883 680.668 725.839C676.92 721.996 672.276 719.192 667.911 716.051C665.932 718.2 664.58 720.988 663.579 723.772C662.631 726.41 661.913 729.131 661.437 731.893C661.068 734.03 660.827 736.242 659.826 738.166C658.258 741.18 655.027 741.914 651.904 742.114C630.856 743.463 609.105 740.635 588.101 739.322Z" fill="#FF008C"/>
<path d="M588.104 737.672C586.692 737.566 585.291 737.339 583.886 737.175C582.781 737.045 582.058 738.328 582.295 739.263C583.212 742.878 584.878 746.35 587.686 748.877C590.434 751.352 593.903 752.797 597.45 753.706C602.417 754.981 607.619 755.444 612.714 755.881C618.903 756.413 625.115 756.654 631.326 756.688C643.502 756.754 655.678 756.051 667.815 755.136C672.262 754.801 676.887 754.307 680.821 752.03C684.95 749.639 687.932 745.477 688.373 740.687C688.864 735.354 686.35 730.002 683.018 725.985C679.126 721.293 673.643 718.135 668.747 714.627C668.186 714.225 667.2 714.379 666.748 714.885C662.733 719.371 660.864 725.634 659.849 731.454C659.401 734.021 659.259 737.395 656.94 739.06C654.978 740.47 652.298 740.456 649.992 740.576C636.746 741.268 623.478 740.394 610.274 739.356C602.885 738.776 595.501 738.139 588.104 737.672C585.983 737.539 585.992 740.839 588.104 740.972C601.656 741.826 615.168 743.258 628.737 743.853C635.497 744.149 642.272 744.237 649.033 743.923C651.795 743.794 654.666 743.758 657.241 742.637C659.784 741.53 661.343 739.419 662.138 736.804C662.627 735.197 662.812 733.519 663.112 731.872C663.448 730.033 663.891 728.214 664.437 726.427C665.443 723.135 666.756 719.815 669.081 717.218L667.082 717.476C674.397 722.716 683.936 728.027 685.05 737.985C685.535 742.328 683.53 746.324 679.89 748.726C676.486 750.972 672.333 751.481 668.358 751.795C657.186 752.678 645.969 753.315 634.76 753.386C623.846 753.456 612.663 753.187 601.891 751.285C598.135 750.621 594.289 749.655 591.125 747.432C588.061 745.279 586.378 741.936 585.477 738.386L583.886 740.474C585.292 740.638 586.692 740.865 588.104 740.972C590.222 741.132 590.211 737.832 588.104 737.672Z" fill="#FF008C"/>
<path d="M484.163 567.477C482.351 589.203 480.331 611.652 469.889 630.791C460.514 647.973 445.941 663.579 434.172 679.25C424.178 692.557 414.02 705.744 403.651 718.762C394.556 730.182 397.548 737.962 406.175 748.512C418.93 764.112 434.189 777.398 449.695 790.172C455.324 794.808 460.803 799.597 468.731 797.926C476.394 796.311 479.841 787.438 479.754 780.393C479.661 772.911 476.911 765.694 476.391 758.23C474.669 733.501 492.812 713.58 507.69 696.128C523.441 677.653 543.057 658.948 550.72 635.164C554.992 621.903 555.352 607.666 554.119 593.788" fill="white"/>
<path d="M482.517 567.477C481.031 585.282 479.469 603.447 472.964 620.255C466.424 637.153 454.315 651.333 443.076 665.275C430.913 680.363 419.5 696.043 407.504 711.265C402.516 717.594 395.722 724.409 396.526 733.162C397.273 741.29 403.447 747.998 408.551 753.877C420.728 767.901 434.838 780.044 449.135 791.835C452.156 794.327 455.223 796.9 458.854 798.46C462.432 799.997 466.522 800.417 470.275 799.225C476.808 797.15 480.285 790.384 481.161 783.984C482.391 774.992 478.463 766.328 477.995 757.43C477.584 749.606 479.261 741.845 482.357 734.676C488.636 720.141 499.553 708.116 509.758 696.245C520.598 683.636 532.317 671.662 541.46 657.701C545.965 650.821 549.788 643.445 552.314 635.602C555.205 626.629 556.331 617.138 556.389 607.736C556.417 603.079 556.179 598.426 555.773 593.788C555.589 591.689 552.288 591.67 552.473 593.788C553.283 603.039 553.452 612.434 552.122 621.647C550.88 630.24 548.281 638.511 544.332 646.243C536.871 660.85 525.781 673.156 514.966 685.328C509.774 691.172 504.656 697.079 499.628 703.063C494.599 709.048 489.701 715.184 485.518 721.798C481.386 728.331 477.932 735.416 476.101 742.956C475.189 746.714 474.675 750.59 474.634 754.458C474.587 758.93 475.309 763.312 476.214 767.677C477.749 775.077 479.593 783.009 475.878 790.082C474.479 792.745 472.333 795.106 469.398 796.043C465.784 797.198 461.975 796.511 458.697 794.73C455.25 792.857 452.287 790.184 449.28 787.696C445.758 784.782 442.256 781.842 438.798 778.852C431.883 772.872 425.137 766.686 418.77 760.121C415.588 756.84 412.502 753.466 409.543 749.982C406.797 746.75 404.047 743.444 402.021 739.698C400.451 736.796 399.452 733.574 399.849 730.248C400.319 726.313 402.567 722.777 404.974 719.737C411.037 712.078 417.068 704.397 423.018 696.65C428.797 689.128 434.402 681.466 440.28 674.021C451.24 660.14 463.24 646.726 471.629 631.045C479.96 615.472 482.89 597.81 484.652 580.435C485.089 576.12 485.456 571.798 485.816 567.477C485.993 565.361 482.693 565.372 482.517 567.477Z" fill="#FF008C"/>
<path d="M403.652 718.762C394.556 730.181 397.548 737.962 406.175 748.512C418.931 764.111 434.189 777.397 449.695 790.171C455.324 794.808 460.803 799.597 468.731 797.926C476.394 796.311 479.841 787.438 479.754 780.393C479.661 772.911 476.911 765.694 476.391 758.23C476.082 753.799 476.342 749.467 477.823 745.263C479.292 741.095 482.11 737.207 482.049 732.625C481.962 726.136 475.413 721.02 468.925 720.904C464.917 720.833 461.052 722.295 457.753 724.5C456.106 725.601 454.592 726.891 453.204 728.303C452.281 729.242 450.449 731.539 449.017 731.502C448.607 731.492 448.224 731.308 447.862 731.117C444.877 729.545 442.338 727.261 439.862 724.971C433.203 718.812 426.296 712.989 419.515 707.114C414.87 703.09 406.282 715.459 403.652 718.762Z" fill="white"/>
<path d="M402.487 717.595C399.398 721.517 396.749 725.956 396.481 731.063C396.254 735.399 397.965 739.55 400.221 743.163C403.172 747.889 406.957 752.14 410.667 756.276C414.481 760.528 418.474 764.617 422.588 768.579C430.823 776.509 439.536 783.922 448.354 791.192C452.019 794.214 455.713 797.438 460.271 799.02C464.566 800.51 469.793 800.23 473.612 797.618C476.95 795.335 479.104 791.752 480.295 787.944C481.731 783.35 481.53 778.625 480.783 773.923C479.866 768.145 478.172 762.507 477.957 756.63C477.855 753.844 478.005 751.047 478.647 748.327C479.268 745.693 480.42 743.32 481.524 740.867C483.539 736.392 484.684 731.645 482.22 727.091C480.133 723.234 476.05 720.455 471.789 719.584C466.614 718.527 461.234 720.195 456.922 723.075C454.898 724.428 453.065 726.036 451.406 727.813C450.871 728.385 450.099 729.486 449.315 729.722C448.472 729.975 447.152 728.811 446.444 728.329C444.094 726.728 442.048 724.732 439.957 722.817C437.693 720.743 435.399 718.701 433.09 716.678C430.848 714.714 428.592 712.767 426.335 710.822C425.239 709.878 424.144 708.935 423.049 707.991C422.07 707.147 421.121 706.158 420.037 705.447C417.275 703.636 414.073 705.351 411.804 707.131C409.092 709.259 406.861 711.968 404.747 714.67C403.984 715.645 403.098 716.824 402.487 717.595C401.181 719.242 403.501 721.592 404.82 719.928C406.545 717.751 408.184 715.514 410.031 713.435C411.805 711.438 414.032 708.806 416.716 708.07C417.15 707.951 417.477 707.933 417.768 708.006C418.357 708.154 418.831 708.697 419.441 709.224C421.629 711.115 423.823 712.998 426.012 714.888C430.29 718.582 434.541 722.305 438.697 726.137C440.633 727.922 442.598 729.692 444.779 731.178C446.597 732.417 448.666 733.819 450.851 732.646C452.618 731.697 453.846 729.932 455.282 728.58C457.092 726.876 459.118 725.424 461.353 724.329C465.47 722.312 470.329 721.819 474.465 724.032C477.963 725.903 480.635 729.339 480.381 733.45C480.236 735.8 479.223 738.028 478.248 740.134C477.212 742.373 476.182 744.609 475.573 747.01C474.242 752.261 474.467 757.771 475.335 763.075C476.793 771.977 480.411 781.638 475.802 790.223C474.035 793.514 471.231 795.95 467.454 796.49C462.945 797.134 458.934 795.187 455.378 792.604C451.308 789.648 447.507 786.252 443.665 783.01C439.529 779.519 435.439 775.973 431.434 772.333C423.544 765.162 415.974 757.615 409.098 749.458C406.028 745.816 402.783 741.975 400.966 737.515C399.471 733.847 399.401 730.031 400.899 726.349C401.843 724.029 403.277 721.888 404.82 719.928C406.119 718.278 403.8 715.927 402.487 717.595Z" fill="#FF008C"/>
<path d="M403.401 726.353C402.684 725.58 401.749 724.35 400.688 723.085C395.448 732.271 398.685 739.347 406.179 748.511C418.934 764.111 434.192 777.397 449.699 790.171C455.328 794.808 460.807 799.596 468.735 797.926C476.398 796.311 479.844 787.437 479.758 780.392C479.691 775.024 478.259 769.792 477.262 764.508C474.347 764.7 471.446 765.788 468.802 767.116C466.297 768.373 463.901 769.849 461.652 771.522C459.912 772.816 458.213 774.252 456.161 774.956C452.947 776.059 450.101 774.364 447.7 772.357C431.521 758.825 417.713 741.783 403.401 726.353Z" fill="#FF008C"/>
<path d="M404.563 725.186C403.614 724.136 402.755 723.006 401.85 721.919C401.169 721.1 399.742 721.39 399.259 722.252C396.958 726.366 395.85 730.9 396.896 735.568C397.99 740.449 401.043 744.693 404.093 748.543C411.154 757.456 419.222 765.587 427.58 773.277C431.731 777.097 435.98 780.808 440.282 784.456C444.349 787.904 448.405 791.406 452.638 794.649C456.334 797.482 460.509 799.821 465.281 799.912C469.626 799.994 473.744 798.314 476.553 794.964C479.47 791.485 480.947 787.002 481.325 782.521C481.847 776.316 480.001 770.105 478.848 764.069C478.722 763.411 477.931 762.803 477.257 762.858C471.102 763.358 465.338 766.705 460.489 770.342C458.35 771.945 455.882 774.182 452.996 773.524C450.184 772.883 447.881 770.392 445.792 768.557C436.174 760.107 427.506 750.651 418.965 741.134C414.182 735.803 409.431 730.441 404.563 725.186C403.117 723.626 400.788 725.963 402.23 727.52C411.178 737.176 419.724 747.201 428.822 756.719C433.308 761.412 437.928 765.984 442.785 770.294C445.027 772.285 447.328 774.621 450.061 775.932C452.873 777.28 455.718 777.191 458.468 775.729C461.455 774.141 463.977 771.732 466.907 770.018C470.076 768.164 473.546 766.459 477.257 766.157L475.666 764.946C477.298 773.483 480.216 782.846 475.408 790.914C473.521 794.08 470.587 796.212 466.866 796.556C462.483 796.961 458.662 795.013 455.222 792.491C451.275 789.598 447.577 786.31 443.838 783.157C439.875 779.815 435.954 776.423 432.109 772.947C424.426 766.002 417.037 758.709 410.282 750.852C406.777 746.774 402.935 742.463 400.92 737.402C399.071 732.755 399.696 728.23 402.108 723.918L399.517 724.252C400.422 725.34 401.281 726.469 402.23 727.52C403.656 729.098 405.984 726.759 404.563 725.186Z" fill="#FF008C"/>
<path d="M593.672 417.874C603.505 440.797 616.036 462.56 630.924 482.571C644.2 500.414 660.608 517.658 682.117 523.313C702.201 528.593 724.374 522.524 740.579 509.539C757.296 496.143 766.89 477.091 771.64 456.658C777.119 433.087 782.834 409.833 787.378 385.981C788.009 382.669 788.678 379.261 790.534 376.446C792.11 374.056 794.426 372.273 796.469 370.268C804.698 362.192 811.428 346.065 803.637 335.665C799.524 330.175 792.615 327.621 785.964 325.945C780.912 324.672 775.728 323.737 770.521 323.899C767.803 323.983 765.053 324.379 762.578 325.507C759.359 326.973 758.457 329.429 756.312 331.788C754.192 329.996 751.318 329.153 748.566 329.561C745.808 329.97 743.26 331.63 741.771 333.987C740.578 335.876 740.072 338.113 739.74 340.322C738.908 345.875 739.06 351.505 739.033 357.102C739.01 361.969 739.479 367.908 737.06 372.249C734.894 376.135 733.473 380.591 731.83 384.72C728.39 393.362 725.103 402.063 721.819 410.764C718.533 419.468 715.251 428.174 711.821 436.822C710.104 441.151 708.351 445.466 706.542 449.758C705.6 451.993 704.644 454.221 703.67 456.442C703.319 457.243 700.836 461.406 701.156 462.069C696.5 452.417 691.834 442.748 686.258 433.596C676.26 417.187 663.117 401.918 659.164 383.114" fill="white"/>
<path d="M592.252 418.707C598.679 433.66 606.23 448.122 614.849 461.929C622.95 474.903 631.84 487.662 642.227 498.925C651.727 509.226 662.947 518.316 676.227 523.188C689.731 528.142 704.668 527.873 718.272 523.428C731.937 518.963 744.027 510.498 753.175 499.439C762.119 488.628 768.185 475.742 771.919 462.269C774.134 454.276 775.808 446.11 777.702 438.037C779.672 429.637 781.626 421.234 783.495 412.811C785.387 404.279 787.191 395.728 788.835 387.145C789.547 383.43 790.158 379.448 792.596 376.411C794.761 373.713 797.642 371.685 799.857 369.019C807.608 359.696 812.932 344.374 804.33 333.89C799.865 328.447 792.79 325.949 786.177 324.297C782.134 323.287 778.004 322.503 773.835 322.287C769.778 322.077 765.481 322.335 761.75 324.083C758.733 325.496 757.269 328.236 755.151 330.622H757.484C753.736 327.586 748.617 326.88 744.352 329.323C739.852 331.902 738.537 336.694 737.932 341.514C737.238 347.046 737.358 352.678 737.39 358.244C737.417 362.863 737.67 367.615 735.426 371.807C732.92 376.489 731.287 381.629 729.342 386.558C727.245 391.87 725.202 397.203 723.176 402.542C719.066 413.376 715.029 424.239 710.775 435.018C708.464 440.876 706.091 446.711 703.602 452.496C702.794 454.376 701.941 456.178 700.994 457.987C700.347 459.225 699.138 461.036 699.57 462.508L702.585 461.237C697.136 449.941 691.6 438.705 684.788 428.153C678.798 418.872 672.21 409.93 667.153 400.081C664.315 394.555 662.061 388.759 660.759 382.676C660.315 380.601 657.134 381.479 657.578 383.553C659.926 394.523 665.361 404.458 671.368 413.82C677.709 423.703 684.495 433.233 690.069 443.593C693.48 449.933 696.609 456.419 699.736 462.903C700.555 464.599 703.272 463.404 702.752 461.631C702.867 462.024 702.678 462.163 702.856 461.745C702.948 461.531 703.024 461.313 703.12 461.1C703.453 460.365 703.839 459.653 704.22 458.943C705.017 457.455 705.687 455.936 706.355 454.384C708.448 449.525 710.468 444.634 712.435 439.723C716.465 429.66 720.276 419.512 724.106 409.371C727.878 399.381 731.746 389.428 735.597 379.468C736.493 377.15 737.547 374.958 738.669 372.745C739.699 370.713 740.2 368.534 740.466 366.284C741.011 361.678 740.676 356.929 740.694 352.3C740.705 349.339 740.757 346.374 741.025 343.424C741.264 340.805 741.544 337.91 742.784 335.544C745.159 331.011 751.146 329.712 755.15 332.955C755.81 333.489 756.843 333.677 757.483 332.955C759.652 330.511 761.018 327.745 764.28 326.593C767.98 325.287 772.101 325.368 775.956 325.747C779.893 326.135 783.802 327.017 787.605 328.089C790.795 328.988 793.936 330.116 796.793 331.819C802.336 335.125 805.537 340.517 805.436 346.999C805.341 353.118 802.843 359.109 799.446 364.116C797.728 366.648 795.665 368.8 793.422 370.869C790.622 373.45 788.39 376.124 787.163 379.785C785.943 383.426 785.458 387.335 784.712 391.092C783.885 395.259 783.023 399.419 782.135 403.573C778.627 419.982 774.705 436.299 770.888 452.638C769.275 459.543 767.488 466.351 764.877 472.957C762.419 479.173 759.325 485.156 755.6 490.709C747.974 502.079 737.497 511.433 725.058 517.23C712.664 523.006 698.342 525.209 684.902 522.284C671.487 519.366 659.812 511.587 650.03 502.187C639.64 492.201 631 480.453 623.02 468.503C614.32 455.476 606.579 441.809 599.882 427.648C598.224 424.142 596.632 420.605 595.101 417.042C594.265 415.097 591.422 416.776 592.252 418.707Z" fill="#FF008C"/>
<path d="M662.151 428.98C665.629 424.055 670.254 419.332 673.527 414.132C667.209 404.392 661.534 394.389 659.164 383.114L593.672 417.875C603.505 440.797 616.036 462.56 630.924 482.571C634.503 487.381 638.312 492.144 642.384 496.652C642.515 496.485 642.633 496.307 642.732 496.113C643.661 494.285 642.647 492.131 641.912 490.217C638.832 482.19 640.873 473.154 643.673 465.025C648.086 452.217 654.335 440.045 662.151 428.98Z" fill="#FF008C"/>
<path d="M543.146 473.063C574.865 467.316 612.427 456.956 637.917 436.592C662.002 417.351 679.623 389.652 685.076 359.161C686.439 351.541 687.005 343.783 686.809 336.045C684.313 237.472 572.869 202.187 490.09 211.188C455.583 214.94 421.211 225.335 386.77 221.014C365.639 218.362 345.625 210.272 324.999 204.969C304.372 199.666 281.821 197.307 262.307 205.836C247.041 212.508 229.115 232.671 243.957 248.627C236.707 246.837 229.327 245.194 221.862 245.377C214.397 245.561 206.742 247.743 201.219 252.767C193.535 259.757 191.208 271.499 194.135 281.465C197.062 291.43 204.605 299.607 213.532 304.918C207.302 302.34 199.785 306.033 196.278 311.792C192.771 317.55 192.517 324.734 193.421 331.415C194.9 342.349 199.505 352.732 206.212 361.455C211.26 368.02 220.329 381.78 228.518 383.921C219.436 382.982 212.037 392.805 212.468 401.926C212.9 411.046 218.848 418.96 225.382 425.337C242.393 441.94 264.616 452.193 287.195 459.622C327.973 473.038 371.697 476.749 414.399 477.106C457.743 477.467 499.772 480.921 543.146 473.063Z" fill="white"/>
<path d="M543.585 474.653C570.743 469.709 598.287 462.528 622.493 448.885C646.025 435.622 665.245 414.703 676.766 390.283C688.236 365.97 691.459 338.384 685.554 312.124C681.194 292.731 671.525 274.93 657.942 260.453C644.351 245.969 627.328 234.973 609.229 226.979C590.269 218.605 570.044 213.298 549.53 210.509C529.06 207.727 508.263 207.4 487.739 209.804C454.845 213.657 422.019 223.262 388.65 219.585C356.794 216.075 327.667 199.882 295.399 198.627C281.659 198.093 266.772 200.226 255.071 207.916C246.111 213.805 237.16 223.463 236.765 234.77C236.565 240.488 239.023 245.619 242.792 249.794L244.397 247.036C229.727 243.431 211.579 240.417 199.526 252.096C189.472 261.839 189.214 277.909 195.817 289.583C199.783 296.596 205.852 302.198 212.701 306.342L213.972 303.327C207.491 300.885 200.247 303.936 196.11 309.186C191.213 315.4 190.786 323.878 191.773 331.415C192.838 339.546 195.591 347.412 199.639 354.535C203.089 360.606 207.581 366.224 211.895 371.708C216.114 377.071 221.233 383.536 228.082 385.511L228.52 382.271C218.755 381.538 211.534 390.879 210.849 399.917C209.996 411.175 218.326 421.06 226.017 428.218C243.775 444.746 266.513 454.79 289.384 462.061C314.855 470.16 341.386 474.53 367.978 476.762C395.179 479.045 422.527 478.832 449.798 479.453C481.152 480.166 512.61 480.207 543.585 474.653C545.672 474.279 544.788 471.099 542.709 471.472C516.437 476.182 489.729 476.813 463.105 476.413C450.072 476.217 437.044 475.805 424.013 475.581C411.003 475.358 398.004 475.282 385.007 474.61C359.692 473.301 334.397 470.329 309.74 464.326C286.748 458.728 263.541 450.824 243.63 437.781C233.445 431.11 222.32 422.556 216.745 411.437C214.054 406.071 213.093 399.833 215.65 394.236C217.982 389.131 222.686 385.132 228.52 385.57C230.415 385.712 230.702 382.833 228.959 382.33C223.791 380.839 219.772 376.077 216.441 372.106C212.727 367.677 209.205 362.967 205.886 358.234C201.67 352.224 198.439 345.538 196.525 338.445C194.678 331.603 193.638 323.88 195.762 316.978C197.971 309.801 205.332 303.584 213.095 306.508C214.887 307.183 215.919 304.432 214.367 303.493C200.656 295.198 190.245 279.279 196.329 262.983C199.366 254.848 206.414 249.74 214.73 247.88C224.323 245.735 234.171 247.92 243.52 250.218C245.157 250.62 246.224 248.678 245.125 247.461C241.049 242.946 239.127 237.267 240.554 231.253C241.887 225.635 245.397 220.719 249.435 216.7C258.92 207.261 271.935 203.037 285.068 202.081C316.305 199.807 345.047 214.417 374.949 220.676C406.44 227.269 437.707 220.872 468.901 215.808C491.177 212.191 513.341 210.478 535.872 212.317C555.869 213.95 575.747 217.967 594.66 224.706C613.03 231.252 630.689 240.525 645.571 253.226C660.01 265.551 671.608 281.113 678.227 298.978C686.737 321.944 687.438 347.773 680.532 371.23C672.987 396.854 656.796 419.876 635.732 436.228C614.38 452.803 587.547 461.575 561.529 467.606C555.289 469.053 549.01 470.325 542.709 471.472C540.623 471.852 541.506 475.032 543.585 474.653Z" fill="#FF008C"/>
<path d="M647.011 255.548C647.734 255.12 648.416 254.634 649.078 254.124C608.759 218.003 543.469 205.384 490.089 211.188C455.582 214.939 421.21 225.335 386.77 221.014C365.638 218.362 345.625 210.272 324.998 204.969C304.372 199.666 281.821 197.307 262.306 205.836C247.04 212.508 229.114 232.671 243.956 248.627C236.707 246.837 229.327 245.194 221.862 245.377C214.397 245.561 206.742 247.743 201.218 252.767C200.293 253.609 199.449 254.523 198.679 255.491C197.796 258.78 197.003 262.087 196.31 265.391C195.301 270.198 194.455 275.031 193.726 279.882C193.851 280.413 193.981 280.942 194.135 281.465C197.062 291.43 204.605 299.607 213.532 304.918C207.301 302.34 199.785 306.033 196.278 311.792C192.771 317.55 192.517 324.734 193.421 331.415C194.9 342.349 199.505 352.732 206.212 361.455C211.26 368.02 220.329 381.78 228.518 383.921C219.436 382.982 212.037 392.805 212.468 401.926C212.899 411.046 218.848 418.959 225.382 425.337C242.393 441.94 264.616 452.192 287.195 459.622C298.536 463.353 310.111 466.311 321.822 468.677C333.031 459.767 343.917 450.468 353.543 439.894C371.883 419.746 385.193 395.53 402.688 374.644C427.195 345.387 459.911 323.082 496.098 310.957L492.669 313.12C507.204 306.321 528.668 299.813 544.602 297.913C538.668 294.518 537.854 285.318 542.238 280.072C546.623 274.826 554.615 273.575 561.033 275.931C567.452 278.287 572.393 283.643 575.75 289.599C586.429 284.964 593.339 272.871 591.91 261.317C597.68 266.716 605.333 271.433 613.056 269.76C620.779 268.088 625.65 256.775 619.4 251.94C626.41 259.072 638.403 260.639 647.011 255.548Z" fill="#FF008C"/>
<path d="M647.839 256.972C648.555 256.523 649.23 256.054 649.906 255.548C650.699 254.955 651.111 253.733 650.24 252.957C629.719 234.667 604.077 222.934 577.645 216.037C550.62 208.985 522.159 206.629 494.341 209.117C459.768 212.208 425.655 223.082 390.672 219.791C356.831 216.608 325.987 198.584 291.634 198.55C277.314 198.536 262.482 201.738 251.091 210.812C242.196 217.898 233.584 229.965 237.844 241.859C238.916 244.85 240.664 247.448 242.785 249.793L244.391 247.036C230.47 243.614 214.009 240.711 201.709 250.221C200.348 251.273 199.091 252.434 197.979 253.75C196.78 255.169 196.568 256.983 196.13 258.759C195.138 262.778 194.293 266.831 193.548 270.903C192.879 274.56 191.543 278.605 192.64 282.234C193.577 285.328 194.967 288.308 196.681 291.046C200.651 297.388 206.322 302.492 212.695 306.342L213.966 303.326C207.542 300.885 200.346 303.903 196.195 309.063C191.205 315.266 190.774 323.844 191.767 331.415C192.838 339.58 195.609 347.472 199.681 354.621C203.126 360.668 207.608 366.269 211.908 371.733C216.114 377.078 221.239 383.553 228.075 385.511L228.514 382.271C217.794 381.439 210.076 392.787 210.861 402.662C211.889 415.583 222.423 425.683 231.934 433.342C253.182 450.452 279.861 460.189 306.042 466.794C309.713 467.72 313.4 468.579 317.101 469.375C318.476 469.672 320.417 470.47 321.818 470.327C323.253 470.181 324.534 468.61 325.615 467.74C331.293 463.169 336.876 458.475 342.239 453.536C352.658 443.939 361.813 433.277 370.216 421.89C378.633 410.485 386.396 398.613 394.86 387.243C402.873 376.481 411.671 366.372 421.504 357.231C440.612 339.468 463.122 325.285 487.446 315.834C490.449 314.667 493.48 313.576 496.533 312.547L495.262 309.532L491.832 311.695C490.009 312.845 491.594 315.429 493.498 314.544C509.437 307.14 527.13 301.703 544.598 299.562C546.145 299.373 546.94 297.412 545.431 296.488C541.888 294.319 540.559 289.949 541.291 285.981C542.131 281.425 545.714 278.26 550.065 277.039C560.531 274.101 569.454 281.965 574.322 290.431C574.8 291.263 575.769 291.387 576.579 291.023C587.798 285.976 594.904 273.546 593.556 261.317L590.74 262.484C597.383 268.611 608.758 275.665 617.612 269.522C623.37 265.527 626.792 255.929 620.562 250.773C618.955 249.443 616.688 251.588 618.229 253.106C625.988 260.748 638.379 262.364 647.839 256.972C649.684 255.921 648.023 253.069 646.174 254.123C637.997 258.783 627.266 257.377 620.562 250.773L618.229 253.106C623.051 257.096 619.704 264.591 615.078 267.225C607.615 271.475 598.392 265.056 593.073 260.151C592.127 259.278 590.089 259.8 590.257 261.317C591.492 272.524 585.197 283.548 574.914 288.174L577.171 288.766C571.197 278.376 559.398 269.379 546.992 274.638C541.953 276.774 538.44 281.153 537.885 286.642C537.381 291.63 539.422 296.677 543.766 299.337L544.598 296.263C526.505 298.48 508.348 304.023 491.832 311.695L493.498 314.544L496.927 312.381C498.447 311.423 497.498 308.745 495.656 309.366C467.647 318.807 441.748 334.13 419.99 354.14C408.717 364.508 398.868 376.153 389.85 388.511C380.232 401.691 371.4 415.453 361.25 428.243C349.446 443.117 335.469 455.714 320.652 467.511L322.257 467.086C300.727 462.708 279.244 456.48 259.474 446.763C250.235 442.222 241.341 436.837 233.379 430.287C225.778 424.034 217.502 416.366 214.859 406.531C213.531 401.591 214.033 396.598 216.736 392.21C219.292 388.059 223.528 385.183 228.514 385.57C230.408 385.717 230.697 382.829 228.953 382.33C223.718 380.83 219.646 375.954 216.29 371.933C212.533 367.432 208.931 362.655 205.598 357.83C201.457 351.833 198.299 345.182 196.436 338.13C194.598 331.173 193.555 323.205 195.986 316.259C198.387 309.399 205.653 303.681 213.089 306.508C214.879 307.188 215.913 304.431 214.36 303.493C209.258 300.41 204.613 296.491 201.076 291.663C199.336 289.287 197.836 286.696 196.736 283.96C196.228 282.696 195.565 281.219 195.474 279.851C195.357 278.092 195.976 276.076 196.276 274.337C196.886 270.798 197.564 267.27 198.343 263.764C198.742 261.97 199.168 260.181 199.621 258.399C200.096 256.529 200.701 255.516 202.108 254.19C206.721 249.845 213.101 247.706 219.325 247.168C227.513 246.46 235.614 248.275 243.514 250.218C245.15 250.62 246.219 248.677 245.119 247.46C240.819 242.706 239.022 236.739 240.743 230.484C242.393 224.484 246.458 219.334 250.997 215.211C261.68 205.506 276.311 202.022 290.438 201.857C323.421 201.471 353.252 218.16 385.483 222.495C419.364 227.052 452.774 217.378 486.171 213.29C513.112 209.993 540.636 211.212 567.171 216.934C593.329 222.575 619.091 232.661 640.428 249.074C642.999 251.051 645.487 253.132 647.908 255.29L648.242 252.699C647.565 253.206 646.89 253.674 646.174 254.123C644.38 255.249 646.034 258.105 647.839 256.972Z" fill="#FF008C"/>
<path d="M555.056 398.076C573.531 399.624 593.92 402.335 611.408 408.628C616.279 410.381 621.628 412.554 623.809 417.249C625.527 420.945 624.801 425.263 623.992 429.258C618.092 458.401 611.338 486.974 605.338 516.096C599.121 546.267 591.561 575.901 580.508 604.689C579.185 608.134 577.733 611.679 575.037 614.198C572.069 616.972 567.978 618.145 564.017 619.051C539.141 624.744 513.256 623.44 487.792 621.753C449.176 619.196 410.585 615.825 372.259 610.376C352.817 607.612 333.393 604.414 314.184 600.318C303.614 598.065 282.199 595.067 277.656 583.932C275.259 578.055 277.188 571.406 279.074 565.345C294.836 514.676 306.49 462.73 313.883 410.184C314.783 403.788 315.648 397.282 318.265 391.377C326.58 372.616 346.211 378.098 362.903 379.1C384.554 380.4 406.179 382.128 427.762 384.284C459.112 387.416 490.713 394.211 522.047 396.035C533.075 396.677 544.105 397.158 555.056 398.076Z" fill="#84FF20"/>
<path d="M327.773 401.557C333.871 407.749 336.909 413.587 341.435 420.66C347.332 429.876 355.87 438.062 362.998 446.351C377.951 463.74 393.128 480.944 408.897 497.599C416.148 505.257 423.956 513.073 434.014 516.245C447.757 520.578 462.538 515.355 475.771 509.653C524.426 488.687 572.494 460.275 612.555 425.735" fill="#84FF20"/>
<path d="M492.665 313.12C445.562 331.915 403.699 365.289 378.393 409.238C353.087 453.188 345.384 507.804 361.394 555.924C363.376 561.884 365.718 567.792 366.504 574.024C367.29 580.255 366.321 587.019 362.312 591.855C360.087 594.54 356.975 595.379 354.957 598.058C353.651 599.791 352.304 601.619 351.968 603.763C351.632 605.907 352.689 608.437 354.788 608.985C357.488 609.69 360.047 606.93 362.825 607.198C361.686 609.46 360.75 611.954 361.035 614.47C361.32 616.987 363.162 619.477 365.68 619.749C368.57 620.062 370.918 617.579 372.751 615.323C371.395 618.109 370.16 621.796 372.344 623.995C373.753 625.415 376.126 625.477 377.937 624.628C379.749 623.778 381.103 622.2 382.294 620.594C382.237 623.154 381.065 626.249 384.042 627.836C386.098 628.931 388.738 628.33 390.595 626.922C392.451 625.514 393.67 623.439 394.734 621.366C396.086 618.734 397.266 616.013 398.266 613.228C398.677 615.923 400.334 618.401 402.667 619.81C404.305 620.8 406.466 621.238 408.11 620.26C410.215 619.007 410.555 616.153 410.664 613.706C411.057 604.918 410.538 595.647 411.647 587.012C412.907 577.208 413.915 567.379 414.565 557.514C415.694 540.376 415.901 523.14 415.015 505.984C414.456 495.153 413.302 477.754 419.501 468.498C421.14 466.052 423.346 464.048 425.552 462.098C460.405 431.279 490.418 413.689 530.478 390.03" fill="white"/>
<path d="M492.231 311.529C469.972 320.436 449.02 332.417 430.223 347.313C411.573 362.092 395.163 379.764 382.243 399.772C368.428 421.166 358.851 445.28 354.357 470.355C349.859 495.45 350.375 521.494 356.804 546.214C358.488 552.691 360.833 558.927 362.811 565.311C364.75 571.564 366.072 578.264 364.2 584.703C363.338 587.669 361.782 590.544 359.295 592.448C356.946 594.247 354.71 595.59 352.935 598.033C351.281 600.31 349.882 602.945 350.385 605.845C350.814 608.312 352.637 610.474 355.218 610.718C357.983 610.98 360.143 608.737 362.829 608.847L361.405 606.365C359.27 610.7 357.922 616.527 362.31 620.024C366.594 623.439 371.116 619.907 373.922 616.489L371.331 614.49C369.614 618.092 367.996 623.565 372.357 626.048C376.859 628.612 381.162 624.829 383.723 621.427L380.649 620.594C380.551 622.972 379.865 625.49 381.336 627.612C383.001 630.012 386.353 630.509 388.971 629.619C391.845 628.642 393.849 626.299 395.328 623.743C397.167 620.562 398.607 617.114 399.861 613.667H396.68C397.447 617.918 400.905 622.002 405.391 622.423C410.348 622.887 412.053 618.22 412.297 614.142C412.625 608.641 412.458 603.115 412.59 597.608C412.724 591.982 413.401 586.463 414.055 580.881C416.761 557.79 417.806 534.494 416.907 511.257C416.573 502.601 415.795 493.927 416.475 485.266C416.793 481.206 417.434 477.098 418.899 473.279C420.595 468.856 423.889 465.76 427.373 462.691C442.299 449.541 458.083 437.435 474.594 426.344C490.814 415.448 507.617 405.459 524.433 395.52C526.726 394.164 529.021 392.809 531.315 391.454C533.142 390.375 531.484 387.522 529.65 388.605C512.925 398.483 496.155 408.309 479.871 418.906C464.036 429.211 448.75 440.334 434.249 452.453C430.292 455.76 426.315 459.082 422.542 462.599C419.417 465.512 417.042 468.763 415.575 472.783C412.77 480.467 412.738 489.119 412.973 497.192C413.257 506.959 413.894 516.696 413.919 526.474C413.949 537.857 413.539 549.244 412.706 560.596C412.299 566.139 411.782 571.674 411.174 577.199C410.568 582.709 409.706 588.199 409.429 593.739C409.156 599.211 409.254 604.692 409.134 610.168C409.085 612.39 409.231 614.847 408.547 616.991C407.742 619.514 405.293 619.545 403.302 618.256C401.379 617.011 400.261 615.005 399.861 612.79C399.546 611.044 397.181 611.413 396.68 612.79C395.716 615.439 394.607 618.027 393.315 620.534C392.33 622.443 391.214 624.534 389.385 625.769C387.965 626.727 385.102 627.483 383.979 625.641C383.162 624.299 383.888 622.06 383.948 620.594C384.022 618.797 381.771 618.571 380.874 619.762C379.442 621.665 376.718 624.689 374.022 623.199C371.566 621.842 373.315 617.971 374.18 616.156C374.925 614.593 372.863 612.605 371.589 614.157C369.988 616.107 367.052 619.649 364.32 617.419C361.406 615.041 362.885 610.81 364.254 608.031C364.813 606.895 364.132 605.602 362.829 605.548C361.459 605.492 360.223 605.876 358.972 606.395C357.892 606.843 356.443 607.729 355.231 607.395C352.207 606.561 354.013 602.323 355.06 600.735C355.846 599.542 356.7 598.407 357.816 597.503C358.935 596.596 360.202 595.882 361.345 595.005C363.616 593.261 365.26 590.904 366.394 588.289C371.709 576.025 365.267 563.202 361.705 551.447C354.479 527.598 352.964 502.145 356.522 477.515C360.086 452.84 368.56 428.931 381.32 407.515C393.202 387.573 408.598 369.851 426.258 354.819C443.917 339.787 463.872 327.464 485.074 318.089C487.731 316.913 490.41 315.79 493.108 314.711C495.055 313.932 494.205 310.739 492.231 311.529Z" fill="#FF008C"/>
<path d="M501.388 500.457C518.783 524.358 534.652 549.363 548.851 575.291C552.811 582.523 556.639 589.826 560.34 597.195C561.294 599.092 564.141 597.424 563.189 595.529C549.921 569.114 534.972 543.548 518.437 519.044C513.825 512.209 509.089 505.459 504.237 498.792C503 497.092 500.136 498.737 501.388 500.457Z" fill="#FF008C"/>
<path d="M296.578 573.276C310.916 558.71 326.271 545.064 342.12 532.167C346.267 528.793 350.464 525.479 354.74 522.269C356.418 521.01 354.775 518.144 353.075 519.42C336.616 531.777 320.988 545.325 306.022 559.443C302.03 563.208 298.094 567.033 294.245 570.943C292.754 572.458 295.085 574.793 296.578 573.276Z" fill="#FF008C"/>
<path d="M437.672 470.633C445.354 467.421 455.334 472.174 458.51 479.621C460.399 484.049 460.682 489.526 457.823 493.399C456.945 494.589 455.811 495.575 454.576 496.389C450.771 498.895 445.917 499.747 441.487 498.686C428.885 495.67 424.291 476.229 437.672 470.633Z" fill="#FF008C"/>
<path d="M438.112 472.224C443.688 469.978 450.147 471.989 454.243 476.2C458.51 480.588 460.254 488.942 455.461 493.591C450.824 498.089 442.934 498.794 437.609 495.168C434.031 492.732 431.646 488.412 431.291 484.117C430.845 478.719 433.523 474.198 438.506 472.058C439.331 471.703 439.5 470.506 439.098 469.8C438.613 468.949 437.655 468.859 436.841 469.209C431.398 471.546 428.022 476.698 427.939 482.607C427.862 488.107 430.461 493.712 434.769 497.142C440.768 501.92 449.693 501.917 455.908 497.469C459.39 494.977 461.376 491.382 461.585 487.097C461.767 483.357 460.656 479.313 458.515 476.233C453.985 469.719 444.84 465.979 437.235 469.042C436.403 469.378 435.837 470.139 436.083 471.072C436.29 471.858 437.287 472.556 438.112 472.224Z" fill="#FF008C"/>
<path d="M703.384 788.783C705.859 783.469 704.91 777.784 701.263 776.085C697.616 774.387 692.652 777.318 690.177 782.632C687.702 787.946 688.652 793.631 692.299 795.33C695.946 797.028 700.909 794.098 703.384 788.783Z" fill="#FF008C"/>
<path d="M701.959 787.952C700.665 790.659 698.335 793.668 695.162 794.127C692.418 794.524 690.74 792.121 690.491 789.54C690.14 785.912 691.728 782.073 694.312 779.549C696.069 777.832 699.012 776.292 701.208 777.962C704.12 780.176 703.237 785.131 701.959 787.952C701.591 788.763 701.726 789.727 702.55 790.209C703.258 790.623 704.438 790.433 704.807 789.617C706.676 785.493 707.405 779.977 704.199 776.278C701.461 773.119 696.878 773.535 693.715 775.781C689.765 778.588 687.258 783.454 687.151 788.291C687.059 792.435 689.201 796.849 693.694 797.401C698.638 798.009 702.854 793.707 704.807 789.617C705.191 788.814 705.029 787.836 704.216 787.36C703.496 786.939 702.344 787.144 701.959 787.952Z" fill="#FF008C"/>
<path d="M661.759 788.784C664.234 783.47 663.285 777.785 659.638 776.086C655.991 774.387 651.027 777.318 648.552 782.632C646.077 787.946 647.027 793.632 650.674 795.33C654.321 797.029 659.284 794.098 661.759 788.784Z" fill="#FF008C"/>
<path d="M660.334 787.952C659.04 790.659 656.711 793.668 653.537 794.127C650.793 794.524 649.115 792.121 648.866 789.54C648.515 785.912 650.103 782.073 652.687 779.549C654.444 777.832 657.387 776.292 659.583 777.962C662.495 780.176 661.612 785.131 660.334 787.952C659.966 788.763 660.101 789.727 660.925 790.209C661.633 790.623 662.813 790.433 663.182 789.617C665.051 785.493 665.78 779.977 662.574 776.278C659.836 773.119 655.253 773.535 652.09 775.781C648.14 778.588 645.633 783.454 645.526 788.291C645.434 792.435 647.576 796.849 652.069 797.401C657.013 798.009 661.229 793.707 663.182 789.617C663.566 788.814 663.404 787.836 662.591 787.36C661.871 786.939 660.719 787.144 660.334 787.952Z" fill="#FF008C"/>
<path d="M423.353 788.784C425.828 783.47 424.878 777.785 421.231 776.086C417.584 774.387 412.621 777.318 410.146 782.632C407.671 787.946 408.621 793.632 412.268 795.33C415.915 797.029 420.878 794.098 423.353 788.784Z" fill="#FF008C"/>
<path d="M421.927 787.952C420.634 790.659 418.304 793.668 415.131 794.127C412.387 794.524 410.709 792.121 410.459 789.54C410.108 785.912 411.697 782.073 414.281 779.549C416.038 777.832 418.98 776.292 421.177 777.962C424.089 780.176 423.206 785.131 421.927 787.952C421.56 788.763 421.695 789.727 422.519 790.209C423.227 790.623 424.407 790.433 424.776 789.617C426.645 785.493 427.374 779.977 424.168 776.278C421.43 773.119 416.846 773.535 413.684 775.781C409.734 778.588 407.227 783.454 407.12 788.291C407.028 792.435 409.17 796.849 413.663 797.401C418.607 798.009 422.822 793.707 424.776 789.617C425.16 788.814 424.998 787.836 424.184 787.36C423.464 786.939 422.313 787.144 421.927 787.952Z" fill="#FF008C"/>
<path d="M634.86 717.853C644.093 726.043 655.29 731.847 667.331 734.584C669.399 735.054 670.281 731.874 668.208 731.402C656.724 728.792 646.008 723.339 637.193 715.52C635.609 714.116 633.267 716.441 634.86 717.853Z" fill="#FF008C"/>
<path d="M649.446 705.177C649.848 704.933 650.264 704.72 650.697 704.536L650.303 704.702C651.057 704.39 651.842 704.176 652.649 704.061L652.211 704.12C652.801 704.041 653.394 704.017 653.989 704.048C654.852 704.093 655.677 703.257 655.638 702.398C655.597 701.466 654.913 700.797 653.989 700.748C651.831 700.636 649.625 701.208 647.781 702.328C647.043 702.776 646.7 703.828 647.189 704.585C647.666 705.326 648.657 705.657 649.446 705.177Z" fill="#FF008C"/>
<path d="M654.391 712.304C654.465 712.197 654.541 712.093 654.619 711.99L654.361 712.324C654.713 711.876 655.116 711.476 655.564 711.124L655.23 711.382C655.704 711.02 656.216 710.719 656.763 710.482L656.369 710.649C656.919 710.418 657.49 710.257 658.08 710.171L657.641 710.23C657.769 710.213 657.897 710.199 658.026 710.188C658.471 710.15 658.868 710.029 659.193 709.705C659.479 709.419 659.694 708.949 659.676 708.538C659.639 707.707 658.947 706.811 658.026 706.889C656.72 706.999 655.475 707.355 654.336 708.015C653.209 708.667 652.279 709.572 651.542 710.639C651.309 710.975 651.27 711.528 651.376 711.91C651.481 712.292 651.777 712.707 652.134 712.896C652.974 713.34 653.866 713.064 654.391 712.304Z" fill="#FF008C"/>
<path d="M436.501 677.154C439.025 680.353 442.291 682.915 445.379 685.543C448.621 688.301 451.897 691.02 455.208 693.696C461.815 699.039 468.554 704.219 475.416 709.23C479.363 712.112 483.354 714.935 487.381 717.704C489.135 718.91 490.787 716.052 489.047 714.855C475.194 705.332 461.813 695.133 448.974 684.28C445.472 681.32 441.689 678.44 438.834 674.82C437.52 673.154 435.199 675.504 436.501 677.154Z" fill="#FF008C"/>
<path d="M578.233 684.148C595.777 683.703 613.36 682.676 630.515 678.742C635.511 677.596 640.448 676.218 645.323 674.639C647.334 673.987 646.474 670.8 644.446 671.457C627.879 676.823 610.772 679.344 593.421 680.28C588.362 680.553 583.298 680.72 578.233 680.849C576.114 680.903 576.106 684.202 578.233 684.148Z" fill="#FF008C"/>
<path d="M469.292 693.288C482.042 679.447 492.885 663.854 501.349 647.044C503.758 642.26 505.963 637.379 507.995 632.424C508.336 631.594 507.625 630.62 506.843 630.395C505.901 630.125 505.15 630.727 504.814 631.547C497.84 648.547 488.475 664.626 477.104 679.062C473.879 683.157 470.491 687.121 466.959 690.955C465.522 692.514 467.85 694.854 469.292 693.288Z" fill="#FF008C"/>
<path d="M594.084 552.23C603.155 582.759 609.208 614.174 612.052 645.896C612.852 654.818 613.398 663.761 613.7 672.714C613.772 674.832 617.072 674.841 617 672.714C616.459 656.726 615.128 640.77 613.005 624.914C610.872 608.991 607.964 593.176 604.26 577.544C602.176 568.75 599.84 560.017 597.266 551.353C596.663 549.323 593.477 550.187 594.084 552.23Z" fill="#FF008C"/>
<path d="M453.687 736.423C454.942 750.803 459.87 764.73 468.059 776.629C469.256 778.367 472.116 776.719 470.908 774.964C463.058 763.558 458.191 750.227 456.987 736.423C456.803 734.324 453.502 734.305 453.687 736.423Z" fill="#FF008C"/>
<path d="M468.595 743.828C468.765 743.789 468.966 743.78 469.13 743.723C469.054 743.749 468.786 743.758 469.015 743.74C469.105 743.733 469.196 743.723 469.286 743.717C469.612 743.697 469.939 743.699 470.264 743.724C470.29 743.726 470.522 743.769 470.535 743.75C470.512 743.783 470.118 743.685 470.474 743.745C470.635 743.772 470.795 743.804 470.955 743.842C471.293 743.922 471.614 744.041 471.943 744.15C472.152 744.219 471.653 744.016 471.852 744.109C471.934 744.147 472.018 744.183 472.099 744.223C472.247 744.294 472.392 744.37 472.534 744.451C472.676 744.532 472.816 744.617 472.953 744.707C473.028 744.757 473.103 744.808 473.177 744.861C473.376 745.002 473.252 744.952 473.148 744.832C473.356 745.072 473.648 745.258 473.869 745.492C473.983 745.612 474.097 745.805 474.228 745.901C474.162 745.853 474.042 745.647 474.168 745.827C474.231 745.917 474.293 746.006 474.354 746.097C474.831 746.814 475.832 747.19 476.611 746.688C477.327 746.227 477.714 745.2 477.203 744.431C475.155 741.349 471.33 739.807 467.718 740.647C466.877 740.843 466.299 741.852 466.566 742.676C466.85 743.555 467.694 744.038 468.595 743.828Z" fill="#FF008C"/>
<path d="M470.98 755.717C471.192 755.66 471.407 755.617 471.625 755.587L471.187 755.645C471.649 755.587 472.112 755.59 472.574 755.651L472.135 755.592C472.597 755.659 473.043 755.781 473.474 755.96L473.08 755.793C473.486 755.968 473.864 756.187 474.215 756.455L473.881 756.197C473.958 756.258 474.033 756.32 474.107 756.384C474.442 756.674 474.819 756.867 475.274 756.867C475.679 756.867 476.162 756.688 476.44 756.384C477.009 755.765 477.138 754.654 476.44 754.051C474.701 752.547 472.342 751.94 470.102 752.535C469.268 752.757 468.677 753.722 468.95 754.565C469.227 755.422 470.086 755.954 470.98 755.717Z" fill="#FF008C"/>
<path d="M653.786 506.793C655.807 498.821 661.735 492.741 667.145 486.866C672.779 480.748 678.515 474.66 685.046 469.481C688.696 466.586 692.629 464.046 696.807 461.983C698.711 461.043 697.041 458.196 695.142 459.134C687.38 462.967 680.609 468.481 674.438 474.496C671.373 477.485 668.439 480.604 665.536 483.748C662.641 486.883 659.712 489.998 657.105 493.38C654.203 497.144 651.781 501.276 650.605 505.916C650.082 507.975 653.264 508.853 653.786 506.793Z" fill="#FF008C"/>
<path d="M394.108 394.179C411.505 401.282 426.76 413.622 437.489 429.034C440.566 433.455 443.27 438.123 445.586 442.985C446.498 444.901 449.344 443.229 448.435 441.32C440.039 423.692 426.39 408.676 409.767 398.456C405.055 395.558 400.106 393.089 394.985 390.998C394.154 390.658 393.181 391.367 392.956 392.15C392.686 393.091 393.288 393.844 394.108 394.179Z" fill="#FF008C"/>
<path d="M761.418 334.916C760.063 338.199 758.708 341.482 757.353 344.765C756.217 347.517 754.38 350.706 755.63 353.721C758.494 360.626 767.098 353.159 769.864 349.958L767.106 348.353C766.576 351.568 765.953 358.193 770.16 359.344C774.173 360.443 777.522 355.736 779.005 352.702L775.989 351.431C774.796 354.417 774.186 358.748 777.854 360.273C781.679 361.864 784.756 358.623 786.613 355.701L783.539 354.869C783.212 357.456 785.256 359.854 787.693 360.48C790.483 361.198 793.26 359.888 795.379 358.15C799.452 354.811 801.253 349.535 802.834 344.698C803.495 342.675 800.31 341.808 799.653 343.821C798.501 347.345 797.302 351.093 794.89 353.989C793.699 355.42 792.114 356.84 790.252 357.264C788.586 357.643 786.589 356.846 786.839 354.869C787.058 353.132 784.558 352.787 783.764 354.036C782.897 355.401 781.158 358.128 779.132 357.242C777.393 356.481 778.699 353.489 779.171 352.308C779.861 350.581 776.973 349.364 776.156 351.037C775.578 352.22 774.898 353.343 774.025 354.334C773.403 355.04 772.318 356.274 771.255 356.184C770.294 356.104 770.242 354.456 770.164 353.736C770.001 352.24 770.043 350.713 770.288 349.23C770.528 347.774 768.722 346.246 767.531 347.625C766.039 349.351 764.344 350.855 762.395 352.048C761.65 352.503 760.131 353.661 759.215 353.174C758.373 352.727 758.449 351.408 758.612 350.66C759.15 348.182 760.494 345.738 761.458 343.404C762.505 340.867 763.552 338.33 764.599 335.793C764.942 334.963 764.228 333.988 763.447 333.764C762.503 333.493 761.756 334.097 761.418 334.916Z" fill="#FF008C"/>
<path d="M754.475 332.945C754.655 333.061 754.826 333.19 755.005 333.308C755.162 333.411 754.831 333.158 755.066 333.354C755.139 333.415 755.213 333.475 755.285 333.537C755.627 333.831 755.949 334.148 756.25 334.484C756.393 334.643 756.53 334.807 756.664 334.974C756.518 334.792 756.629 334.93 756.706 335.038C756.762 335.115 756.817 335.193 756.87 335.271C757.125 335.645 757.356 336.034 757.563 336.436C757.661 336.626 757.748 336.821 757.84 337.015C757.757 336.78 757.947 337.24 757.84 337.015C757.879 337.127 757.925 337.237 757.966 337.349C758.11 337.752 758.232 338.163 758.327 338.579C758.381 338.811 758.424 339.044 758.464 339.278C758.493 339.452 758.478 339.415 758.464 339.263C758.474 339.381 758.489 339.499 758.499 339.617C758.536 340.068 758.54 340.519 758.519 340.97C758.479 341.834 759.307 342.659 760.169 342.62C761.097 342.579 761.776 341.895 761.819 340.97C762.019 336.646 759.755 332.434 756.14 330.096C755.414 329.626 754.287 329.925 753.883 330.688C753.45 331.509 753.7 332.444 754.475 332.945Z" fill="#FF008C"/>
<path d="M747.618 345.282C750.659 347.42 754.596 349.384 758.34 347.835C759.134 347.506 759.79 346.726 759.492 345.805C759.245 345.041 758.316 344.3 757.463 344.653C756.578 345.019 756.145 345.084 755.344 345.07C755.124 345.066 754.904 345.051 754.685 345.029C754.972 345.058 754.524 345.003 754.469 344.992C754.062 344.916 753.663 344.81 753.271 344.679C753.089 344.618 752.909 344.551 752.731 344.481C752.987 344.582 752.426 344.343 752.374 344.318C752.028 344.153 751.689 343.972 751.356 343.781C750.641 343.369 749.957 342.907 749.283 342.433C748.575 341.936 747.418 342.282 747.026 343.025C746.579 343.871 746.862 344.751 747.618 345.282Z" fill="#FF008C"/>
<path d="M777.561 359.859C777.654 359.92 777.746 359.98 777.836 360.044C777.866 360.064 778.103 360.229 777.936 360.11C777.751 359.978 778.045 360.199 778.08 360.228C778.147 360.284 778.214 360.342 778.279 360.401C778.591 360.679 778.882 360.982 779.15 361.303C779.199 361.362 779.385 361.618 779.179 361.332C779.23 361.403 779.284 361.473 779.334 361.545C779.449 361.708 779.558 361.874 779.661 362.043C779.881 362.402 780.066 362.776 780.243 363.158C780.185 363.033 780.165 362.96 780.228 363.131C780.266 363.234 780.306 363.337 780.342 363.442C780.407 363.629 780.467 363.819 780.519 364.01C780.572 364.202 780.619 364.395 780.659 364.589C780.688 364.728 780.762 365.254 780.719 364.868C780.765 365.284 780.793 365.7 780.784 366.119C780.779 366.318 780.762 366.515 780.75 366.713C780.737 366.909 780.743 366.8 780.762 366.668C780.743 366.799 780.721 366.93 780.696 367.06C780.54 367.906 780.929 368.88 781.849 369.089C782.658 369.274 783.71 368.845 783.878 367.937C784.659 363.717 782.839 359.358 779.226 357.011C778.501 356.539 777.372 356.84 776.969 357.602C776.535 358.424 776.787 359.357 777.561 359.859Z" fill="#FF008C"/>
<path d="M239.064 551.015C244.65 551.995 250.237 552.974 255.824 553.954C256.701 554.107 257.602 553.718 257.853 552.802C258.072 552.006 257.584 550.927 256.701 550.772C251.114 549.793 245.528 548.813 239.941 547.834C239.064 547.68 238.163 548.07 237.911 548.986C237.693 549.782 238.181 550.861 239.064 551.015Z" fill="#FF008C"/>
<path d="M242.871 603.007C246.273 599.606 249.674 596.204 253.076 592.803C253.687 592.192 253.732 591.073 253.076 590.47C252.417 589.865 251.395 589.818 250.743 590.47C247.341 593.871 243.94 597.273 240.538 600.674C239.927 601.285 239.881 602.405 240.538 603.007C241.197 603.612 242.219 603.66 242.871 603.007Z" fill="#FF008C"/>
<path d="M278.363 622.248C278.304 621.503 278.282 620.756 278.309 620.009C278.322 619.636 278.347 619.263 278.382 618.891C278.397 618.732 278.416 618.573 278.434 618.414C278.459 618.215 278.46 618.202 278.438 618.376C278.45 618.297 278.462 618.218 278.475 618.139C278.707 616.688 279.111 615.272 279.667 613.913C279.995 613.112 279.312 612.065 278.515 611.883C277.556 611.665 276.837 612.178 276.486 613.036C275.301 615.93 274.813 619.131 275.064 622.248C275.133 623.106 275.773 623.939 276.714 623.897C277.548 623.86 278.438 623.169 278.363 622.248Z" fill="#FF008C"/>
<path d="M262.219 523.901C263.647 526.028 265.363 527.956 267.357 529.569C267.708 529.853 268.053 530.052 268.523 530.052C268.928 530.052 269.411 529.872 269.69 529.569C270.242 528.967 270.406 527.815 269.69 527.236C268.241 526.064 266.933 524.73 265.789 523.26L266.047 523.594C265.705 523.152 265.379 522.699 265.068 522.236C264.587 521.521 263.592 521.14 262.811 521.644C262.098 522.104 261.704 523.135 262.219 523.901Z" fill="#FF008C"/>
<path d="M234.359 801.124C304.372 801.124 374.384 801.124 444.396 801.124C514.052 801.124 583.707 801.124 653.362 801.124C692.655 801.124 731.947 801.124 771.24 801.124C773.363 801.124 773.366 797.824 771.24 797.824C701.228 797.824 631.215 797.824 561.203 797.824C491.548 797.824 421.892 797.824 352.237 797.824H234.359C232.236 797.824 232.233 801.124 234.359 801.124Z" fill="#FF008C"/>
<path d="M282.555 798.15C280.081 798.06 277.87 795.465 278.519 792.986C279.123 790.68 281.806 789.391 284.009 790.065C285.545 790.536 286.855 788.409 285.614 787.308C281.074 783.284 283.052 776.323 287.943 773.5C293.135 770.503 300.171 771.572 305.109 774.533C308.106 776.331 310.482 778.908 311.971 782.07L314.82 780.405C311.897 774.695 314.687 767.595 319.477 763.831C325.114 759.402 332.901 760.674 338.135 765.121C341.287 767.8 343.517 771.36 344.397 775.41L347.154 773.805C345.731 772.172 346.18 769.7 347.309 768.036C348.73 765.942 351.226 765.346 353.597 765.99C360.291 767.807 361.372 775.624 360.265 781.44C359.867 783.528 362.729 784.325 363.446 782.317C364.384 779.693 367.532 778.931 370.03 779.141C373.352 779.42 375.996 781.695 378.232 783.98C380.865 786.672 383.179 789.639 386.266 791.85C389.461 794.138 393.406 795.472 397.3 794.396C399.344 793.832 398.476 790.648 396.423 791.215C392.265 792.363 388.265 789.65 385.437 786.852C382.624 784.071 380.237 780.887 377.02 778.531C374.216 776.478 370.908 775.456 367.436 775.95C364.176 776.414 361.395 778.277 360.265 781.44L363.446 782.317C364.287 777.9 364.264 773.219 362.174 769.133C360.397 765.658 356.913 763.042 353.021 762.533C349.412 762.06 345.939 763.667 344.152 766.877C342.493 769.856 342.534 773.514 344.821 776.138C345.974 777.461 347.903 776.028 347.578 774.533C345.767 766.197 338.536 759.103 330.014 757.916C321.768 756.766 314.351 761.881 311.428 769.498C309.858 773.589 309.967 778.156 311.971 782.07C312.947 783.977 315.714 782.304 314.82 780.405C311.621 773.611 304.58 769.293 297.225 768.563C289.963 767.843 282.212 771.144 280.126 778.637C279.006 782.66 280.141 786.858 283.28 789.641L284.886 786.884C280.894 785.662 276.13 788.255 275.263 792.424C274.324 796.942 278.047 801.286 282.555 801.449C284.679 801.526 284.675 798.227 282.555 798.15Z" fill="#FF008C"/>
<path d="M637.588 787.688C631.835 783.148 624.921 779.757 617.634 778.615C614.397 778.107 610.532 778.217 608.361 781.063C606.684 783.262 606.379 786.818 608.727 788.685L610.726 786.094C607.722 784.135 604.312 782.973 600.746 782.636C597.731 782.352 594.301 782.681 591.741 784.445C589.336 786.103 587.963 788.883 588.979 791.756C589.879 794.301 592.356 796.271 595.129 795.441C597.158 794.833 596.293 791.648 594.252 792.259C592.852 792.678 591.91 790.901 591.923 789.704C591.943 787.87 593.973 786.758 595.508 786.304C600.035 784.962 605.221 786.439 609.06 788.943C610.602 789.949 612.54 787.529 611.06 786.352C609.624 785.21 610.497 783.036 611.913 782.267C614.318 780.961 617.555 781.857 620.027 782.494C625.55 783.918 630.776 786.486 635.255 790.021C636.904 791.322 639.255 789.003 637.588 787.688Z" fill="#FF008C"/>
<path d="M612.608 302.765C617.212 313.261 629.598 318.395 640.299 314.299C642.262 313.547 641.41 310.356 639.422 311.117C634.647 312.945 629.199 312.941 624.558 310.677C620.449 308.673 617.288 305.273 615.457 301.1C614.606 299.16 611.763 300.837 612.608 302.765Z" fill="#FF008C"/>
<path d="M664.461 314.87C666.79 318.804 671.547 320.891 676.002 319.715C678.183 319.139 680.171 317.839 681.558 316.063C683.131 314.049 683.784 311.579 684.241 309.109C684.402 308.233 684 307.33 683.089 307.079C682.286 306.859 681.222 307.351 681.059 308.231C680.702 310.167 680.296 312.184 679.14 313.823C678.243 315.094 676.851 316.027 675.369 316.465C672.266 317.38 668.944 315.966 667.31 313.205C666.229 311.379 663.376 313.036 664.461 314.87Z" fill="#FF008C"/>
<path d="M659.384 291.938C660.26 306.432 659.95 320.976 658.456 335.419C658.237 337.529 661.538 337.514 661.755 335.419C663.249 320.976 663.56 306.432 662.684 291.938C662.556 289.829 659.256 289.814 659.384 291.938Z" fill="#FF008C"/>
<path d="M643.54 342.617C640.8 338.799 637.966 334.582 634.024 331.895C632.268 330.698 630.031 330.04 627.955 330.761C625.986 331.444 624.549 333.072 623.563 334.854C621.284 338.974 620.337 344.081 620.039 348.73C619.742 353.359 619.988 358.674 623.233 362.313C626.396 365.859 632.391 366.356 635.111 362.005C636.239 360.199 633.386 358.541 632.262 360.339C630.521 363.126 626.8 361.695 625.225 359.556C623.02 356.562 623.113 352.269 623.338 348.73C623.577 344.98 624.37 341.091 625.866 337.63C626.409 336.372 627.152 334.99 628.328 334.219C629.743 333.291 631.282 333.963 632.523 334.857C635.866 337.266 638.321 340.98 640.691 344.282C641.918 345.992 644.781 344.347 643.54 342.617Z" fill="#FF008C"/>
<path d="M623.146 339.473C625.959 345.332 630.313 350.444 635.65 354.155C636.056 354.437 636.505 354.767 636.583 355.256C636.62 355.49 636.564 355.729 636.5 355.957C636.018 357.701 635.07 359.355 633.626 360.446C632.183 361.537 630.214 361.995 628.504 361.406C625.89 360.507 624.593 357.607 623.869 354.94C622.941 351.524 622.464 347.986 622.453 344.446C622.451 343.869 622.861 343.051 623.345 343.365" fill="#FF008C"/>
<path d="M621.719 340.305C624.462 345.949 628.532 350.849 633.525 354.64C633.807 354.855 634.092 355.066 634.38 355.272C634.645 355.462 634.928 355.844 634.907 355.519C634.944 356.094 634.367 356.993 634.084 357.468C633.346 358.707 632.184 359.723 630.724 359.965C627.919 360.431 626.443 357.649 625.721 355.396C625.13 353.553 624.732 351.621 624.462 349.705C624.331 348.773 624.242 347.834 624.182 346.895C624.147 346.352 624.124 345.807 624.111 345.263C624.108 345.115 624.162 344.783 624.102 344.65C623.919 344.244 624.538 344.653 623.579 344.886H622.702L622.904 344.956C624.917 345.645 625.781 342.459 623.781 341.774C622.814 341.443 621.818 341.891 621.294 342.746C620.742 343.644 620.789 344.656 620.823 345.671C620.902 347.993 621.175 350.316 621.625 352.595C622.323 356.136 623.434 360.548 626.845 362.46C630.591 364.561 635.026 362.484 637.019 358.988C638.022 357.228 638.966 354.834 637.177 353.261C635.688 351.951 634.005 350.899 632.549 349.532C629.23 346.416 626.556 342.732 624.568 338.64C623.64 336.731 620.794 338.402 621.719 340.305Z" fill="#FF008C"/>
<path d="M618.217 286.06C627.42 281.699 637.657 279.891 647.8 280.691C649.917 280.858 649.906 277.558 647.8 277.392C637.063 276.545 626.275 278.603 616.551 283.211C614.634 284.119 616.306 286.965 618.217 286.06Z" fill="#FF008C"/>
<path d="M661.3 292.705C664.118 292.563 666.936 292.421 669.755 292.279C670.615 292.236 671.446 291.551 671.405 290.63C671.366 289.773 670.678 288.933 669.755 288.98C666.936 289.122 664.118 289.263 661.3 289.405C660.439 289.448 659.609 290.133 659.65 291.055C659.688 291.912 660.377 292.751 661.3 292.705Z" fill="#FF008C"/>
</svg>
