<svg width="1000" height="1000" viewBox="0 0 1000 1000" fill="none" xmlns="http://www.w3.org/2000/svg">
<path d="M315.57 518.565C319.466 525.166 318.334 535.001 314.662 541.812C310.99 548.623 305.321 553.105 299.819 557.39C294.451 561.569 289.084 565.749 283.717 569.928C277.843 574.502 276.801 578.126 274.87 585.885C280.319 588.295 287.462 583.249 292.787 581.548C299.194 579.5 305.576 577.328 311.942 575.078C324.674 570.577 337.336 565.748 349.995 560.917C352.265 568.377 354.536 575.838 356.807 583.298C351.798 586.808 345.654 596.651 352.977 602.465C354.431 603.62 356.16 604.066 357.664 605.109C361.786 607.967 363.334 614.463 364.506 620.314C365.514 625.342 366.521 630.37 367.528 635.399C368.997 642.73 368.055 657.783 361.506 661.049C358.238 662.679 354.467 661.695 351.404 659.501C348.341 657.307 345.848 654.021 343.403 650.782C339.771 645.974 336.056 638.931 331.715 635.312C325.999 630.548 317.655 634.355 311.55 635.815C298.686 638.893 285.812 643.225 272.728 643.195C260.502 643.166 249.41 646.361 238.763 635.995C217.916 615.7 223.29 577.378 233.875 551.506C240.306 535.785 249.04 521.869 257.716 508.066" fill="white"/>
<path d="M314.457 519.216C317.135 523.882 317.185 529.65 315.953 534.767C314.622 540.297 311.552 545.059 307.581 549.074C303.396 553.306 298.486 556.806 293.802 560.453C291.053 562.594 288.304 564.734 285.555 566.875C283.413 568.542 281.171 570.136 279.364 572.179C276.024 575.955 274.818 580.766 273.627 585.542C273.442 586.282 273.869 586.856 274.528 587.129C278.467 588.761 282.791 587.162 286.472 585.588C288.386 584.769 290.256 583.833 292.21 583.111C294.743 582.176 297.357 581.429 299.92 580.575C310.783 576.955 321.546 573.039 332.267 569.018C338.3 566.755 344.32 564.458 350.339 562.161L348.752 561.26C351.022 568.721 353.293 576.181 355.563 583.642L356.156 582.185C352.336 584.919 349.136 589.336 348.45 594.055C348.11 596.397 348.471 598.82 349.763 600.835C350.445 601.898 351.322 602.819 352.327 603.58C353.773 604.674 355.544 605.177 357.014 606.224C359.183 607.769 360.415 610.365 361.271 612.81C362.328 615.831 362.928 618.987 363.556 622.117C364.303 625.847 365.05 629.578 365.798 633.309C366.288 635.755 366.713 638.13 366.808 640.627C367.084 647.937 365.11 665.745 353.46 659.278C350.403 657.58 348.073 654.745 345.959 652.024C344.03 649.541 342.273 646.954 340.538 644.334C337.485 639.724 333.969 633.589 328.217 632.115C322.498 630.65 316.682 633.227 311.208 634.571C303.907 636.364 296.671 638.452 289.309 639.986C285.702 640.738 282.064 641.348 278.391 641.661C275.013 641.95 271.627 641.866 268.242 642.01C262.695 642.247 257 642.843 251.523 641.625C240.563 639.189 233.084 628.99 229.446 618.93C225.769 608.76 225.26 597.687 226.269 587.003C227.306 576.024 230.025 565.166 233.932 554.864C238.911 541.736 245.95 529.486 253.303 517.568C255.13 514.608 256.98 511.663 258.831 508.718C259.718 507.307 257.486 506.011 256.603 507.415C248.722 519.953 240.855 532.56 234.796 546.106C230.112 556.575 226.624 567.556 224.75 578.882C222.929 589.887 222.498 601.304 224.862 612.263C227.119 622.728 232.337 633.155 241.088 639.658C245.866 643.208 251.546 644.699 257.43 644.899C260.299 644.996 263.17 644.838 266.035 644.695C269.211 644.538 272.388 644.563 275.563 644.426C283.303 644.091 290.913 642.402 298.398 640.506C305.095 638.809 311.757 636.981 318.443 635.253C321.249 634.527 324.303 633.882 327.188 634.522C330.162 635.182 332.222 637.352 334.072 639.642C338.194 644.744 341.327 650.547 345.539 655.6C349.436 660.276 355.781 665.404 362.158 662.164C366.012 660.205 367.668 655.411 368.506 651.465C369.502 646.775 369.712 641.818 369.094 637.063C368.666 633.775 367.865 630.519 367.214 627.27C366.499 623.702 365.855 620.111 365.021 616.569C364.342 613.684 363.489 610.757 362.011 608.167C360.501 605.522 358.454 603.952 355.769 602.626C353.267 601.389 351.2 599.389 350.924 596.484C350.692 594.038 351.618 591.611 352.855 589.546C354.032 587.581 355.589 585.751 357.459 584.413C357.919 584.084 358.228 583.536 358.052 582.956C355.781 575.495 353.511 568.035 351.24 560.574C351.052 559.955 350.32 559.418 349.653 559.673C339.163 563.676 328.672 567.678 318.115 571.501C312.852 573.408 307.573 575.269 302.271 577.066C297.654 578.63 292.91 579.923 288.449 581.904C284.498 583.658 279.596 586.456 275.214 584.641L276.115 586.228C277.185 581.935 278.176 577.41 281.188 574.004C283.104 571.839 285.503 570.161 287.772 568.394C290.521 566.253 293.27 564.113 296.019 561.972C305.185 554.835 315.31 547.73 318.347 535.83C319.851 529.941 319.774 523.295 316.686 517.914C315.859 516.473 313.629 517.772 314.457 519.216Z" fill="#FF008C"/>
<path d="M314.831 574.049C315.236 576.057 315.88 578.242 316.577 580.869C319.081 590.302 320.763 600.103 321.586 610.019C316.946 613.186 311.738 617.382 311.176 624.123C310.91 627.314 311.569 631.369 312.69 635.524C318.661 633.922 326.345 630.839 331.712 635.312C336.053 638.931 339.769 645.974 343.4 650.783C345.846 654.021 348.338 657.307 351.401 659.501C354.464 661.695 358.236 662.679 361.503 661.05C368.052 657.784 368.994 642.73 367.526 635.399C366.518 630.37 365.511 625.342 364.504 620.314C363.332 614.463 361.783 607.967 357.662 605.109C356.157 604.066 354.429 603.62 352.974 602.465C345.652 596.651 351.795 586.809 356.804 583.299C354.533 575.838 352.263 568.377 349.992 560.917C338.309 565.375 326.595 569.841 314.831 574.049Z" fill="white"/>
<path d="M313.584 574.392C314.768 580.096 316.549 585.657 317.684 591.381C318.905 597.541 319.765 603.762 320.293 610.018L320.932 608.904C317.068 611.553 313.159 614.645 311.199 619.031C308.811 624.374 309.998 630.427 311.443 635.867C311.623 636.542 312.361 636.949 313.031 636.768C317.737 635.491 323.098 633.232 328.002 634.739C330.451 635.491 332.236 637.424 333.822 639.343C335.636 641.538 337.185 643.945 338.754 646.317C341.845 650.992 345.118 656.054 349.486 659.643C353.281 662.761 358.937 664.717 363.281 661.444C366.308 659.164 367.692 655.18 368.467 651.615C369.368 647.475 369.618 643.138 369.283 638.917C369.114 636.786 368.699 634.716 368.28 632.623C367.598 629.216 366.915 625.81 366.233 622.404C365.213 617.312 364.398 611.704 361.463 607.287C360.734 606.19 359.873 605.194 358.831 604.384C357.662 603.475 356.319 602.953 355.029 602.254C352.746 601.016 351.03 598.845 350.898 596.188C350.675 591.663 353.892 586.961 357.452 584.413C357.913 584.083 358.222 583.536 358.045 582.955C355.775 575.495 353.505 568.034 351.234 560.574C351.046 559.955 350.314 559.418 349.647 559.673C337.958 564.134 326.265 568.587 314.485 572.804C312.933 573.36 313.602 575.855 315.171 575.293C326.951 571.076 338.644 566.622 350.333 562.161L348.745 561.26C351.016 568.72 353.286 576.181 355.557 583.641L356.15 582.184C349.664 586.827 344.48 597.649 352.32 603.579C354.49 605.221 357.133 605.78 358.847 608.038C360.353 610.022 361.218 612.441 361.895 614.812C363.598 620.77 364.527 626.994 365.743 633.065C366.589 637.288 367.023 641.365 366.714 645.679C366.433 649.592 365.742 653.863 363.627 657.245C362.69 658.744 361.419 659.908 359.676 660.362C356.924 661.079 354.073 659.885 351.881 658.263C349.422 656.443 347.452 653.981 345.603 651.57C343.931 649.39 342.385 647.136 340.87 644.844C337.858 640.29 334.492 634.253 329.026 632.361C323.569 630.472 317.614 632.85 312.344 634.279L313.932 635.181C312.659 630.388 311.347 624.728 313.575 620.012C315.386 616.177 318.815 613.476 322.234 611.133C322.592 610.888 322.913 610.484 322.874 610.018C322.34 603.693 321.481 597.394 320.264 591.163C319.115 585.278 317.288 579.566 316.073 573.706C315.735 572.081 313.247 572.768 313.584 574.392Z" fill="#FF008C"/>
<path d="M333 567.366C338.537 586.886 344.074 606.406 349.611 625.926C350.983 630.761 352.267 636.561 349.914 640.718C348.033 644.043 345.417 647.503 343.678 651.15C346.035 654.268 348.454 657.39 351.401 659.501C354.464 661.695 358.235 662.679 361.502 661.05C368.051 657.784 368.994 642.73 367.525 635.399C366.518 630.37 365.511 625.342 364.503 620.314C363.331 614.463 361.782 607.967 357.661 605.109C356.157 604.066 354.428 603.62 352.974 602.465C345.651 596.651 351.795 586.808 356.803 583.298C354.533 575.838 352.262 568.377 349.992 560.917C344.336 563.075 338.673 565.235 333 567.366Z" fill="#FF008C"/>
<path d="M331.758 567.709C335.026 579.229 338.294 590.749 341.561 602.269C343.173 607.949 344.784 613.629 346.395 619.309C347.828 624.36 349.907 629.674 349.93 634.988C349.942 637.917 348.868 640.067 347.339 642.492C345.679 645.122 343.929 647.696 342.566 650.499C342.379 650.883 342.282 651.426 342.566 651.801C345.249 655.346 348.05 659.144 351.977 661.403C355.273 663.299 359.612 663.962 362.923 661.712C367.845 658.365 368.938 650.979 369.31 645.522C369.847 637.652 367.771 630.061 366.237 622.404C365.414 618.294 364.68 614.114 363.022 610.24C362.321 608.6 361.441 607.042 360.253 605.702C358.898 604.172 357.185 603.358 355.399 602.443C351.675 600.536 350.152 596.941 351.323 592.951C352.301 589.619 354.636 586.432 357.457 584.413C357.917 584.083 358.227 583.536 358.05 582.955C355.78 575.495 353.509 568.034 351.238 560.574C351.05 559.955 350.319 559.418 349.651 559.673C343.991 561.833 338.33 563.99 332.659 566.122C331.119 566.701 331.786 569.196 333.346 568.61C339.016 566.479 344.677 564.321 350.337 562.161L348.75 561.26C351.021 568.72 353.291 576.181 355.562 583.642L356.155 582.184C351.441 585.558 347.19 591.973 348.569 598C348.923 599.549 349.716 600.959 350.759 602.147C352.097 603.67 353.804 604.491 355.575 605.392C359.008 607.139 360.597 610.536 361.682 614.075C362.947 618.203 363.633 622.513 364.48 626.74C365.268 630.671 366.337 634.64 366.684 638.642C367.182 644.386 366.884 651.135 364.149 656.34C362.484 659.51 359.621 661.257 355.952 660.291C351.044 659 347.698 654.335 344.795 650.499V651.801C346.059 649.201 347.656 646.796 349.207 644.361C350.511 642.316 351.841 640.295 352.268 637.866C353.167 632.749 351.421 627.568 350.041 622.703C346.682 610.863 343.324 599.023 339.965 587.183C338.059 580.463 336.153 573.743 334.247 567.023C333.794 565.428 331.303 566.106 331.758 567.709Z" fill="#FF008C"/>
<path d="M275.951 495.889C285.39 497.443 294.83 498.996 304.269 500.55C310.257 501.536 316.386 502.577 321.747 506.161C345.069 521.754 322.019 563.777 315.051 584.554C297.723 636.219 289.265 691.989 280.925 747.255C274.754 746.415 268.584 745.574 262.414 744.733C262.316 737.372 258.394 725.787 251.023 731.496C249.558 732.631 248.454 734.406 247.044 735.649C243.179 739.054 238.005 737.831 233.447 736.474C229.53 735.307 225.612 734.141 221.695 732.975C215.984 731.275 206.084 723.246 206.864 714.232C207.253 709.735 209.67 705.867 212.59 703.368C215.51 700.87 218.916 699.529 222.269 698.221C227.246 696.278 233.796 695.27 238.285 691.964C244.194 687.612 245.432 676.29 247.246 668.619C249.72 658.166 252.193 647.713 254.666 637.259C261.398 608.802 265.84 577.852 276.561 551.377" fill="white"/>
<path d="M275.603 497.133C281.462 498.097 287.321 499.062 293.18 500.026C298.642 500.926 304.158 501.671 309.575 502.817C317.503 504.494 324.949 508.233 328.419 515.913C331.148 521.95 331.006 529.028 330.043 535.448C328.893 543.119 326.541 550.582 323.911 557.86C321.422 564.747 318.581 571.497 315.948 578.329C312.61 586.99 309.955 595.929 307.392 604.843C301.133 626.619 296.246 648.767 292.064 671.028C287.849 693.464 284.35 716.026 280.932 738.596C280.513 741.368 280.094 744.14 279.676 746.912L281.263 746.011C275.093 745.17 268.923 744.329 262.753 743.488L263.7 744.733C263.636 741.475 263.042 738.145 261.814 735.121C260.78 732.576 259.139 729.764 256.339 728.907C252.863 727.842 249.906 730.524 247.824 732.937C246.275 734.733 244.645 736.124 242.221 736.474C240.162 736.772 238.035 736.365 236.043 735.86C233.545 735.226 231.084 734.425 228.614 733.69C226.279 732.995 223.903 732.377 221.597 731.591C218.529 730.546 215.729 728.443 213.461 726.171C210.843 723.547 208.565 720.18 208.164 716.406C207.709 712.127 209.777 707.804 212.823 704.892C219.467 698.539 229.451 698.553 237.158 694.216C243.884 690.43 245.66 682.317 247.133 675.32C251.269 655.666 256.401 636.235 260.518 616.573C264.608 597.04 268.482 577.331 275.221 558.498C276.036 556.221 276.896 553.962 277.801 551.72C278.422 550.18 275.926 549.511 275.312 551.034C267.836 569.567 263.616 589.211 259.53 608.709C257.455 618.612 255.404 628.517 253.074 638.363C250.62 648.738 248.017 659.09 245.718 669.5C244.894 673.231 244.243 677.004 243.198 680.685C242.238 684.071 240.969 687.731 238.356 690.219C235.318 693.112 230.742 694.192 226.841 695.359C222.644 696.614 218.328 698.061 214.569 700.355C207.293 704.795 203.319 713.643 207.069 721.681C208.637 725.041 211.243 727.929 214.135 730.208C216.925 732.407 219.844 733.771 223.227 734.779C225.891 735.572 228.555 736.365 231.219 737.158C233.344 737.791 235.47 738.478 237.662 738.842C242.136 739.586 246.162 738.73 249.238 735.236C250.996 733.24 253.852 729.735 256.744 731.993C259.056 733.799 260.011 737.263 260.583 739.995C260.91 741.557 261.088 743.137 261.119 744.732C261.129 745.236 261.509 745.901 262.066 745.977C268.236 746.818 274.407 747.659 280.577 748.5C281.201 748.585 282.05 748.357 282.164 747.598C285.631 724.624 289.104 701.646 293.248 678.783C297.351 656.149 302.108 633.613 308.22 611.429C310.969 601.452 313.834 591.424 317.417 581.71C319.886 575.018 322.694 568.455 325.206 561.779C328.007 554.335 330.578 546.739 332.06 538.909C333.346 532.112 333.933 524.846 331.96 518.117C329.877 511.011 324.772 505.588 317.99 502.689C313.112 500.604 307.852 499.84 302.654 498.984C296.795 498.02 290.936 497.055 285.078 496.091C282.148 495.609 279.219 495.126 276.289 494.644C274.664 494.377 273.966 496.863 275.603 497.133Z" fill="#FF008C"/>
<path d="M288.138 700.891C286.572 700.429 284.775 700.159 282.649 699.745C275.017 698.261 267.512 695.666 260.324 692.032C260.291 685.252 259.814 677.346 255.446 673.59C253.378 671.812 250.289 670.697 246.919 670.063C245.263 677.647 243.833 687.878 238.285 691.964C233.796 695.27 227.246 696.278 222.269 698.221C218.916 699.529 215.51 700.87 212.59 703.368C209.67 705.866 207.253 709.735 206.864 714.232C206.084 723.246 215.984 731.275 221.695 732.975C225.612 734.141 229.53 735.307 233.447 736.474C238.005 737.83 243.179 739.054 247.044 735.649C248.454 734.406 249.558 732.631 251.023 731.497C258.394 725.787 262.316 737.372 262.414 744.733C268.585 745.574 274.755 746.415 280.925 747.255C283.256 731.807 285.597 716.318 288.138 700.891Z" fill="white"/>
<path d="M288.48 699.647C286.388 699.053 284.223 698.76 282.095 698.321C279.693 697.826 277.315 697.223 274.967 696.517C270.143 695.068 265.475 693.178 260.975 690.918L261.614 692.032C261.584 687.005 261.447 681.664 259.402 676.986C257.204 671.959 252.393 669.819 247.262 668.819C246.607 668.691 245.831 668.997 245.675 669.72C244.636 674.506 243.857 679.402 242.124 684.004C241.366 686.016 240.379 688.05 238.917 689.65C237.311 691.409 235.089 692.521 232.9 693.38C227.902 695.34 222.667 696.466 217.755 698.695C212.856 700.918 208.749 704.372 206.701 709.448C202.972 718.693 209.373 727.666 217.157 732.307C218.934 733.366 220.787 734.051 222.762 734.639C225.896 735.572 229.029 736.505 232.163 737.438C236.948 738.862 242.62 740.462 247.074 737.263C249.874 735.252 253.519 728.422 257.406 732.619C260.216 735.653 261.046 740.758 261.123 744.733C261.133 745.237 261.513 745.901 262.071 745.977C268.241 746.818 274.411 747.659 280.581 748.5C281.205 748.585 282.054 748.357 282.169 747.599C284.502 732.133 286.842 716.668 289.382 701.235C289.649 699.61 287.163 698.911 286.893 700.549C284.353 715.982 282.014 731.447 279.68 746.912L281.267 746.011C275.097 745.17 268.927 744.329 262.757 743.488L263.704 744.733C263.627 740.792 262.807 736.619 260.896 733.14C259.308 730.25 256.427 727.83 252.955 728.977C250.657 729.737 249.098 731.486 247.555 733.255C245.741 735.335 243.685 736.539 240.875 736.559C238.208 736.579 235.615 735.773 233.084 735.019C229.872 734.063 226.66 733.107 223.448 732.151C219.43 730.954 216.022 728.836 213.104 725.802C209.985 722.559 207.559 718.23 208.229 713.595C209.966 701.566 223.508 699.579 232.854 696.146C235.437 695.197 238.074 694.017 240.108 692.118C241.825 690.515 243.038 688.423 243.965 686.287C246.155 681.238 247.004 675.75 248.163 670.406L246.576 671.307C249.03 671.786 251.508 672.463 253.626 673.836C255.373 674.968 256.557 676.686 257.299 678.61C258.931 682.839 259.006 687.558 259.034 692.032C259.036 692.465 259.272 692.945 259.673 693.146C264.229 695.435 268.962 697.377 273.839 698.872C276.184 699.591 278.561 700.208 280.961 700.717C283.235 701.199 285.556 701.5 287.795 702.136C289.395 702.591 290.078 700.101 288.48 699.647Z" fill="#FF008C"/>
<path d="M284.34 724.802C268.382 722.139 252.425 719.476 236.468 716.813C232.514 716.154 227.94 714.949 226.171 710.334C224.757 706.643 223.59 702.047 221.888 698.37C218.659 699.633 215.399 700.964 212.59 703.368C209.67 705.866 207.253 709.735 206.864 714.232C206.084 723.246 215.984 731.274 221.695 732.975C225.612 734.141 229.53 735.307 233.447 736.473C238.005 737.83 243.179 739.053 247.044 735.649C248.454 734.406 249.558 732.631 251.023 731.496C258.394 725.787 262.316 737.372 262.414 744.733C268.585 745.574 274.755 746.414 280.925 747.255C282.053 739.777 283.185 732.288 284.34 724.802Z" fill="#FF008C"/>
<path d="M284.682 723.558C274.261 721.819 263.84 720.08 253.419 718.341C248.208 717.471 242.998 716.602 237.787 715.732C234.423 715.171 230.433 714.561 228.288 711.581C226.95 709.721 226.42 707.188 225.72 705.038C224.912 702.561 224.081 700.094 223.002 697.719C222.788 697.249 222.031 696.935 221.545 697.126C217.721 698.625 213.882 700.262 210.894 703.171C208.243 705.752 206.322 709.209 205.743 712.878C204.67 719.683 208.734 725.856 213.846 729.975C216.031 731.735 218.455 733.279 221.138 734.153C225.562 735.594 230.074 736.909 234.561 738.137C238.031 739.086 241.862 739.736 245.284 738.267C247.14 737.469 248.492 736.112 249.789 734.603C250.868 733.348 252.026 732.022 253.641 731.466C256.337 730.538 258.114 733.192 259.104 735.305C260.462 738.204 261.062 741.548 261.124 744.733C261.134 745.237 261.514 745.901 262.071 745.977C268.241 746.818 274.411 747.659 280.582 748.5C281.205 748.585 282.054 748.357 282.169 747.598C283.298 740.113 284.43 732.627 285.584 725.145C285.834 723.521 283.348 722.82 283.095 724.459C281.942 731.941 280.81 739.427 279.68 746.912L281.268 746.011C275.097 745.17 268.927 744.329 262.757 743.488L263.704 744.733C263.649 741.895 263.182 739.014 262.268 736.324C261.462 733.952 260.289 731.471 258.252 729.914C256.269 728.399 253.834 728.384 251.666 729.534C248.385 731.273 246.972 735.257 243.237 736.26C239.572 737.244 235.633 735.778 232.144 734.74C229.951 734.087 227.757 733.433 225.563 732.78C223.891 732.283 222.143 731.89 220.545 731.177C215.193 728.789 209.917 723.781 208.456 717.972C207.475 714.072 208.753 709.932 211.132 706.781C213.89 703.128 218.083 701.24 222.23 699.615L220.773 699.022C221.788 701.256 222.538 703.6 223.298 705.93C223.955 707.948 224.51 710.111 225.513 711.991C227.277 715.298 230.756 716.928 234.268 717.704C239.299 718.816 244.475 719.451 249.557 720.3C254.931 721.196 260.304 722.093 265.678 722.99C271.784 724.009 277.89 725.028 283.996 726.047C285.621 726.318 286.319 723.831 284.682 723.558Z" fill="#FF008C"/>
<path d="M647.543 518.565C643.648 525.166 644.779 535.001 648.451 541.812C652.124 548.623 657.792 553.105 663.295 557.39C668.662 561.569 674.029 565.749 679.397 569.928C685.271 574.502 686.312 578.126 688.243 585.885C682.794 588.295 675.651 583.249 670.326 581.548C663.92 579.5 657.537 577.328 651.172 575.078C644.388 572.68 637.635 570.147 630.872 567.654C625.299 565.599 619.114 563.845 614.766 570.332C612.002 574.455 611.185 580.407 612.11 585.729C612.524 588.11 613.257 590.402 613.468 592.827C614.152 600.66 609.756 602.123 605.449 605.109C601.328 607.967 599.779 614.463 598.607 620.314C597.599 625.342 596.592 630.37 595.585 635.399C594.116 642.729 595.059 657.783 601.608 661.05C604.875 662.679 608.646 661.695 611.709 659.501C614.772 657.307 617.265 654.021 619.711 650.782C623.342 645.974 627.057 638.931 631.399 635.312C637.114 630.548 645.459 634.355 651.563 635.815C664.427 638.893 677.302 643.225 690.385 643.195C702.612 643.166 713.703 646.361 724.351 635.995C745.198 615.7 739.823 577.378 729.239 551.506C722.808 535.785 714.073 521.869 705.397 508.066" fill="white"/>
<path d="M646.422 517.913C640.796 527.716 644.673 540.453 651.527 548.531C655.335 553.021 660.113 556.54 664.732 560.137C667.612 562.38 670.492 564.622 673.372 566.865C675.8 568.755 678.376 570.545 680.615 572.661C684.504 576.339 685.738 581.196 686.993 586.228L687.894 584.641C684.542 586.029 680.901 584.628 677.763 583.284C676.068 582.557 674.403 581.764 672.698 581.061C670.814 580.285 668.849 579.724 666.915 579.091C657.712 576.079 648.59 572.831 639.506 569.477C635.518 568.005 631.542 566.267 627.429 565.172C624.456 564.38 621.263 564.114 618.393 565.416C611.233 568.662 609.738 578.58 610.763 585.471C611.346 589.389 613.074 593.464 611.815 597.43C611.001 599.992 608.72 601.44 606.577 602.818C605.345 603.61 604.085 604.387 603.073 605.46C601.897 606.706 600.996 608.197 600.295 609.753C598.728 613.231 597.955 616.979 597.21 620.701C596.251 625.485 595.254 630.264 594.334 635.056C593.82 637.731 593.647 640.464 593.695 643.185C593.795 648.736 594.554 655.35 598.162 659.829C600.103 662.238 603.066 663.42 606.15 663.087C610.215 662.648 613.579 660.026 616.258 657.103C619.016 654.094 621.421 650.724 623.677 647.329C625.848 644.062 627.929 640.655 630.642 637.798C631.906 636.467 633.289 635.301 635.069 634.748C636.739 634.23 638.496 634.2 640.225 634.379C643.822 634.751 647.249 636.059 650.735 636.941C659.857 639.249 668.963 641.936 678.264 643.433C682.671 644.141 687.052 644.435 691.51 644.491C695.173 644.537 698.827 644.844 702.49 644.914C709.764 645.053 716.746 643.76 722.613 639.205C733.3 630.907 738.207 617.242 739.487 604.185C740.837 590.416 738.636 576.304 734.689 563.113C729.948 547.271 722.04 532.647 713.461 518.591C711.175 514.846 708.84 511.13 706.505 507.415C705.623 506.012 703.389 507.306 704.276 508.717C713.429 523.279 722.657 537.995 728.883 554.101C733.671 566.483 736.774 579.728 737.23 593.022C737.664 605.701 735.592 619.036 728.128 629.603C724.039 635.392 718.47 640.141 711.413 641.662C704.703 643.108 697.729 641.942 690.945 641.906C681.749 641.856 672.867 639.939 663.998 637.66C659.7 636.556 655.391 635.487 651.097 634.369C647.726 633.491 644.43 632.338 640.96 631.886C637.583 631.447 634.014 631.78 631.19 633.847C628.308 635.956 626.162 639.037 624.168 641.95C621.96 645.175 619.878 648.466 617.498 651.57C615.029 654.791 612.194 658.401 608.293 659.923C605.348 661.073 602.076 660.661 600.062 658.1C598.459 656.06 597.665 653.425 597.123 650.929C595.846 645.058 596.139 639.154 597.31 633.309C598.218 628.779 599.101 624.243 600.035 619.718C600.755 616.23 601.546 612.593 603.325 609.469C604.12 608.074 605.121 606.883 606.453 605.978C607.525 605.25 608.642 604.588 609.702 603.842C611.867 602.317 613.656 600.44 614.389 597.83C615.473 593.969 614.281 590.066 613.516 586.275C612.739 582.429 612.849 578.363 614.098 574.627C615.18 571.391 617.359 568.111 620.864 567.28C623.825 566.579 626.975 567.628 629.744 568.616C638.496 571.737 647.166 575.078 655.949 578.116C660.375 579.646 664.815 581.135 669.273 582.567C672.642 583.648 675.75 585.349 679.066 586.568C682.079 587.677 685.501 588.405 688.58 587.129C689.237 586.857 689.667 586.29 689.481 585.542C688.423 581.299 687.395 576.885 684.693 573.342C683.225 571.417 681.418 569.884 679.517 568.404C676.768 566.263 674.019 564.123 671.269 561.982C662.301 554.998 651.241 548.087 647.67 536.631C645.924 531.031 645.65 524.445 648.65 519.216C649.478 517.773 647.249 516.472 646.422 517.913Z" fill="#FF008C"/>
<path d="M653.272 577.442C652.771 579.414 652.023 581.543 651.201 584.108C648.248 593.322 646.096 602.968 644.797 612.798C649.275 616.333 654.271 620.94 654.507 627.713C654.619 630.919 653.765 634.913 652.447 638.97C646.564 636.891 639.044 633.195 633.472 637.228C628.965 640.491 624.917 647.221 621.061 651.728C618.464 654.764 615.818 657.843 612.655 659.786C608.458 662.365 602.468 662.942 598.615 659.089C596.813 657.287 595.516 654.601 594.956 651.759C594.721 650.565 595.438 644.339 595.293 644.109C593.019 640.497 592.053 635.564 592.725 630.989C593.397 626.413 595.695 622.28 598.835 619.996C597.066 615.955 596.731 610.913 597.941 606.543C599.151 602.172 601.885 598.549 605.236 596.875C602.699 590.17 605.515 581.017 610.923 578.395C611.365 578.18 611.842 577.985 612.15 577.522C612.708 576.681 612.462 575.414 612.291 574.328C611.767 571.02 612.32 567.35 614.061 564.832C617.341 560.087 621.282 562.67 625.053 564.443C628.242 565.943 631.433 567.438 634.626 568.923C640.828 571.81 647.041 574.662 653.272 577.442Z" fill="#FF008C"/>
<path d="M652.029 577.099C650.912 581.394 649.329 585.563 648.143 589.843C646.855 594.493 645.775 599.201 644.9 603.946C644.466 606.299 644.082 608.661 643.749 611.03C643.63 611.875 643.241 613.001 643.886 613.711C644.481 614.365 645.339 614.876 646.011 615.457C648.756 617.83 651.39 620.627 652.558 624.139C654.128 628.859 652.667 634.066 651.204 638.627L652.791 637.725C646.51 635.485 638.695 631.715 632.546 636.318C629.675 638.468 627.441 641.346 625.282 644.177C622.907 647.292 620.583 650.41 617.964 653.33C615.462 656.12 612.655 658.929 608.975 660.036C605.792 660.994 602.154 660.697 599.664 658.307C598.328 657.024 597.388 655.345 596.79 653.603C596.295 652.159 596.164 651.497 596.222 650.091C596.272 648.852 596.379 647.615 596.474 646.379C596.534 645.612 596.711 644.736 596.571 643.968C596.418 643.129 595.734 642.326 595.383 641.549C594.925 640.534 594.585 639.463 594.327 638.381C593.817 636.242 593.681 634.012 593.913 631.824C594.338 627.811 596.196 623.581 599.488 621.11C600.102 620.649 600.251 620.053 599.95 619.344C596.937 612.237 598.507 601.822 605.888 597.989C606.358 597.745 606.668 597.043 606.481 596.531C605.014 592.501 605.366 587.796 607.34 583.987C608.211 582.307 609.413 580.731 611.076 579.773C612.001 579.241 612.913 578.891 613.422 577.877C613.975 576.778 613.764 575.516 613.595 574.353C613.224 571.819 613.326 569.13 614.431 566.774C615.361 564.789 616.987 563.091 619.326 563.487C621.419 563.842 623.375 565.075 625.272 565.966C628.026 567.261 630.782 568.551 633.54 569.835C639.88 572.787 646.236 575.706 652.622 578.556C654.126 579.227 655.44 577.004 653.925 576.327C647.684 573.542 641.474 570.692 635.278 567.809C632.302 566.424 629.328 565.032 626.358 563.636C624.317 562.677 622.25 561.427 620.012 560.999C614.44 559.931 611.391 565.504 610.897 570.281C610.759 571.616 610.806 572.945 610.99 574.273C611.07 574.851 611.2 575.429 611.201 576.015C611.202 576.906 610.711 577.038 610.021 577.408C608.154 578.41 606.67 580.043 605.583 581.841C602.871 586.329 602.195 592.279 603.993 597.217L604.586 595.76C595.856 600.294 594.186 612.307 597.722 620.647L598.185 618.881C591.807 623.668 589.923 632.652 592.104 640.068C592.365 640.956 592.693 641.824 593.071 642.669C593.261 643.093 593.464 643.509 593.687 643.916C593.781 644.089 593.882 644.256 593.977 644.428C593.975 644.425 593.966 644.058 594.023 644.319C594.222 645.23 593.882 646.516 593.812 647.436C593.718 648.662 593.587 649.907 593.621 651.139C593.664 652.72 594.244 654.301 594.871 655.735C596.334 659.08 598.963 661.851 602.58 662.771C605.979 663.635 609.67 662.914 612.71 661.247C616.426 659.209 619.272 655.823 621.975 652.641C624.521 649.642 626.718 646.369 629.206 643.325C631.893 640.037 634.876 636.708 639.437 636.714C643.837 636.721 648.041 638.764 652.105 640.214C652.781 640.455 653.492 639.937 653.692 639.312C655.367 634.091 656.873 628.091 654.798 622.764C653.029 618.225 649.452 614.85 645.711 611.886L646.089 612.798C646.915 606.61 648.09 600.467 649.607 594.411C651.015 588.796 653.063 583.378 654.518 577.785C654.936 576.176 652.448 575.49 652.029 577.099Z" fill="#FF008C"/>
<path d="M629.664 523.253C633.159 544.745 641.298 564.404 648.056 584.554C660.102 620.472 667.876 658.471 674.264 696.647C675.739 705.461 677.142 714.294 678.51 723.136C679.541 729.796 680.699 737.753 685.528 741.646C688.77 744.26 692.868 744.179 696.666 743.632C697.447 743.52 698.262 743.374 698.906 742.792C699.407 742.338 699.756 741.663 700.092 741.003C702.993 735.326 705.534 726.423 712.084 731.496C713.548 732.631 714.652 734.406 716.063 735.649C719.927 739.054 725.102 737.83 729.659 736.474C733.577 735.307 737.494 734.141 741.411 732.975C747.122 731.275 757.023 723.246 756.242 714.232C755.853 709.735 753.437 705.867 750.517 703.368C747.597 700.87 744.19 699.529 740.838 698.221C735.86 696.278 729.31 695.27 724.822 691.964C718.913 687.612 717.675 676.29 715.86 668.619C713.387 658.166 710.914 647.713 708.441 637.259C701.708 608.802 697.992 565.405 687.271 538.93" fill="white"/>
<path d="M628.426 523.596C631.589 542.846 638.593 561.08 644.952 579.432C651.446 598.171 656.768 617.279 661.243 636.597C665.763 656.114 669.464 675.812 672.788 695.565C674.474 705.584 676.008 715.626 677.613 725.658C678.734 732.665 680.479 741.844 688.128 744.512C689.988 745.161 692.025 745.306 693.98 745.201C695.773 745.105 698.061 745.072 699.539 743.928C700.857 742.908 701.495 741.121 702.18 739.651C702.85 738.212 703.494 736.759 704.25 735.363C705.318 733.39 707.006 730.481 709.669 731.532C711.531 732.266 712.72 733.958 714.008 735.393C715.381 736.925 717.02 738.122 719.014 738.701C722.803 739.801 726.829 738.663 730.479 737.578C732.987 736.832 735.493 736.085 738 735.339C739.848 734.789 741.745 734.328 743.518 733.56C749.408 731.009 754.973 725.648 756.923 719.448C759.41 711.539 754.451 703.596 747.62 699.821C744.042 697.844 740.099 696.505 736.195 695.337C732.45 694.217 728.242 693.174 725.18 690.605C722.626 688.462 721.287 685.13 720.311 682.032C719.22 678.563 718.54 674.982 717.8 671.426C715.8 661.806 713.323 652.267 711.061 642.706C707.366 627.089 704.728 611.325 702.061 595.507C699.383 579.628 696.686 563.61 691.913 548.199C690.907 544.952 689.792 541.74 688.522 538.587C687.909 537.066 685.412 537.731 686.033 539.273C691.681 553.285 694.615 568.35 697.304 583.158C700.137 598.753 702.361 614.463 705.536 629.995C707.33 638.77 709.536 647.463 711.597 656.177C712.714 660.897 713.896 665.606 714.936 670.343C715.693 673.793 716.31 677.276 717.232 680.688C718.117 683.962 719.255 687.347 721.272 690.113C723.382 693.006 726.42 694.673 729.709 695.939C737.105 698.785 746.282 699.832 751.624 706.329C754.046 709.275 755.537 713.348 754.833 717.173C754.214 720.537 752.243 723.506 749.891 725.922C747.75 728.124 745.175 730.079 742.331 731.282C740.503 732.055 738.508 732.495 736.609 733.06C734.18 733.783 731.753 734.512 729.323 735.229C725.755 736.283 721.428 737.536 717.982 735.461C716.187 734.38 715.115 732.51 713.61 731.106C712.445 730.019 710.987 729.063 709.393 728.79C703.272 727.742 700.964 736.671 698.815 740.682C698.318 741.61 697.888 742.102 696.834 742.306C695.835 742.498 694.801 742.584 693.786 742.629C691.777 742.719 689.696 742.543 687.873 741.625C684.532 739.942 682.826 736.322 681.792 732.908C680.649 729.136 680.136 725.203 679.533 721.319C678.745 716.245 677.945 711.174 677.126 706.105C673.962 686.528 670.508 666.992 666.34 647.602C662.235 628.51 657.437 609.552 651.507 590.941C645.732 572.819 638.433 555.163 633.791 536.69C632.646 532.137 631.676 527.543 630.915 522.91C630.646 521.275 628.159 521.969 628.426 523.596Z" fill="#FF008C"/>
<path d="M674.969 700.891C676.535 700.429 678.332 700.159 680.458 699.745C688.09 698.261 695.595 695.666 702.782 692.032C702.815 685.252 703.293 677.346 707.661 673.59C709.729 671.812 712.818 670.697 716.188 670.063C717.844 677.647 719.274 687.878 724.822 691.964C729.311 695.27 735.861 696.278 740.838 698.221C744.191 699.529 747.597 700.87 750.517 703.368C754.392 706.683 757.865 713.016 757.298 719.269C757.033 722.193 755.921 725.014 754.326 727.1C753.656 727.976 749.158 730.395 749.081 730.673C747.859 735.054 745.086 738.668 741.706 740.284C738.326 741.901 734.401 741.49 731.266 739.193C729.5 743.235 726.33 746.207 722.808 747.123C719.286 748.038 715.473 746.882 712.635 744.036C709.499 750.304 701.977 751.908 697.449 747.275C697.078 746.897 696.703 746.469 696.237 746.368C695.391 746.184 694.678 747.109 694.047 747.859C692.124 750.145 689.406 751.427 686.838 750.799C681.999 749.616 681.679 743.921 680.909 738.833C680.259 734.529 679.603 730.226 678.941 725.925C677.655 717.571 676.341 709.223 674.969 700.891Z" fill="#FF008C"/>
<path d="M675.318 702.136C677.484 701.52 679.727 701.223 681.928 700.763C684.404 700.245 686.856 699.613 689.274 698.871C694.151 697.377 698.884 695.434 703.44 693.146C703.84 692.945 704.076 692.464 704.079 692.032C704.106 687.558 704.182 682.839 705.813 678.609C706.529 676.753 707.663 675.058 709.333 673.939C711.483 672.497 714.023 671.797 716.537 671.307L714.95 670.406C716.326 676.752 717.165 683.791 720.758 689.362C724.647 695.391 732.093 696.645 738.435 698.73C742.113 699.938 745.981 701.43 749.058 703.829C751.956 706.09 754.107 709.371 755.233 712.854C756.506 716.794 756.348 721.087 754.318 724.756C753.644 725.974 753.031 726.602 751.89 727.336C750.91 727.967 749.884 728.531 748.917 729.183C747.595 730.076 747.527 731.588 746.865 732.97C746.009 734.757 744.846 736.395 743.339 737.691C739.988 740.573 735.479 740.585 731.924 738.078C731.395 737.705 730.428 737.943 730.158 738.541C728.787 741.582 726.511 744.484 723.265 745.634C719.759 746.876 716.146 745.64 713.553 743.123C712.983 742.57 711.917 742.632 711.527 743.384C709.607 747.085 705.498 749.703 701.289 748.249C700.391 747.938 699.55 747.441 698.838 746.812C697.872 745.959 697.042 744.838 695.589 745.104C694.512 745.301 693.822 746.172 693.141 746.946C692.187 748.033 691.069 748.993 689.663 749.429C684.441 751.048 683.116 744.968 682.556 741.232C681.651 735.195 680.746 729.158 679.812 723.125C678.648 715.594 677.457 708.067 676.22 700.548C675.951 698.913 673.463 699.607 673.731 701.234C675.997 715.005 677.962 728.823 680.173 742.601C680.889 747.066 682.825 752.337 688.254 752.248C691.102 752.202 693.4 750.541 695.207 748.484C695.352 748.319 695.536 748.033 695.713 747.921C696.204 747.612 696.119 747.785 696.543 748.188C696.938 748.562 697.328 748.918 697.764 749.246C698.703 749.953 699.757 750.49 700.884 750.827C706.1 752.388 711.359 749.307 713.755 744.687L711.729 744.948C714.867 747.994 719.345 749.574 723.635 748.228C727.661 746.965 730.69 743.606 732.387 739.844L730.621 740.307C733.851 742.584 738.003 743.222 741.692 741.694C745.005 740.321 747.559 737.464 749.094 734.273C749.31 733.822 749.509 733.36 749.695 732.895C749.821 732.577 750.207 731.908 750.16 731.591C750.113 731.276 749.966 731.606 750.086 731.501C750.27 731.34 750.515 731.223 750.722 731.094C751.829 730.401 752.972 729.757 754.039 729.001C756.882 726.987 758.165 723.031 758.549 719.706C759.476 711.678 754.518 703.632 747.621 699.821C744.16 697.908 740.344 696.581 736.568 695.448C732.871 694.34 728.978 693.324 725.782 691.067C722.726 688.907 721.24 685.083 720.19 681.636C719 677.732 718.302 673.702 717.438 669.72C717.283 669.002 716.504 668.691 715.851 668.818C710.72 669.819 705.909 671.958 703.711 676.986C701.666 681.663 701.529 687.005 701.499 692.032L702.138 690.917C697.638 693.177 692.97 695.067 688.146 696.517C685.798 697.223 683.42 697.826 681.018 698.321C678.89 698.76 676.725 699.052 674.632 699.647C673.037 700.1 673.715 702.591 675.318 702.136Z" fill="#FF008C"/>
<path d="M240.593 475.234C237.226 480.655 232.917 484.993 228.361 488.688C217.233 497.713 204.195 503.171 191.061 502.733C177.927 502.294 164.764 495.668 155.665 483.422C151.658 478.03 148.488 471.677 145.854 465.022C138.738 447.047 136.789 428.063 135.57 408.253C135.176 401.851 135.483 394.883 133.668 388.787C131.633 381.955 125.29 380.161 123.722 371.918C123.198 369.164 123.175 366.094 124.305 363.663C125.528 361.032 127.842 359.633 130.063 358.543C137.181 355.052 144.774 353.187 152.386 353.062C154.368 353.029 156.402 353.127 158.233 354.107C161.091 355.637 163.051 359.1 164.454 362.663C166.552 367.991 167.728 373.828 168.961 379.589C173.84 402.371 179.852 424.748 186.948 446.536C194.406 443.805 201.452 439.206 207.579 433.069" fill="#84FF20"/>
<path d="M731.141 488.15C733.889 494.126 737.686 499.199 741.798 503.681C751.84 514.627 764.16 522.386 777.212 524.323C790.264 526.261 804.016 522.077 814.35 511.595C818.9 506.979 822.726 501.261 826.055 495.147C835.045 478.634 839.029 460.188 842.379 440.793C843.461 434.525 843.911 427.57 846.368 421.862C849.122 415.465 855.597 414.833 858.041 406.954C858.858 404.322 859.212 401.286 858.356 398.675C857.43 395.849 855.29 394.046 853.208 392.566C846.539 387.823 839.222 384.606 831.698 383.106C829.739 382.716 827.714 382.446 825.796 383.085C822.8 384.084 820.485 387.159 818.71 390.434C816.056 395.331 814.261 400.899 812.416 406.38C805.12 428.058 796.747 449.129 787.364 469.422C780.274 465.37 773.795 459.544 768.392 452.36" fill="#84FF20"/>
<path d="M847.605 411.98C845.189 413.646 843.192 411.005 842.971 408.711C842.835 407.309 840.882 406.905 840.436 408.368C840.201 409.14 839.729 409.835 838.987 410.195C838.427 410.466 837.865 410.491 837.31 410.172C835.764 409.281 835.323 406.866 835.59 405.255C835.704 404.569 835.41 403.866 834.689 403.668C834.071 403.498 833.216 403.878 833.102 404.569C832.63 407.414 833.447 411.188 836.301 412.552C839.141 413.91 842.086 411.808 842.925 409.054L840.39 408.711C840.584 410.721 841.36 412.724 842.985 414.005C844.71 415.366 847.093 415.46 848.908 414.208C849.481 413.813 849.741 413.076 849.371 412.443C849.039 411.875 848.182 411.582 847.605 411.98Z" fill="#FF008C"/>
<path d="M828.846 392.847C829.996 392.81 831.513 392.775 832.153 393.931C832.909 395.295 832.211 397.325 831.499 398.561C830.129 400.94 827.61 402.294 825.21 403.431C824.356 403.836 824.379 405.248 825.21 405.66C829.56 407.815 828.905 414.672 828.705 418.641C828.622 420.301 831.202 420.296 831.286 418.641C831.535 413.687 831.836 406.069 826.513 403.431V405.66C829.982 404.015 833.328 401.772 834.573 397.945C835.205 396.005 835.3 393.588 833.899 391.949C832.639 390.475 830.681 390.208 828.846 390.266C827.19 390.319 827.182 392.9 828.846 392.847Z" fill="#FF008C"/>
<path d="M782.08 423.029C793.568 372.859 785.106 316.54 747.925 284.227C716.16 256.62 673.362 259.73 637.563 277.257C601.764 294.785 570.642 324.849 537.714 350.08C527.12 358.197 516.085 365.942 504.004 369.045C476.211 376.185 452.406 363.889 429.38 344.193C402.308 321.038 378.771 291.064 350.243 271.039C320.901 250.442 285 241.404 253.786 256.731C231.813 267.52 213.669 289.881 202.958 316.917C170.538 398.746 203.427 495.168 271.106 520.766C304.13 533.257 343.065 529.029 377.169 529.113C393.672 529.154 410.175 529.195 426.677 529.236C483.584 529.377 540.491 529.518 597.397 529.66C646.904 529.782 700.095 541.687 742.032 499.896C761.25 480.746 775.221 452.984 782.08 423.029Z" fill="#84FF20"/>
<path d="M314.655 407.249C333.853 403.441 354.113 409.448 370.105 423.69C386.097 437.932 397.652 460.258 401.73 484.795C403.605 496.082 403.94 507.647 404.716 519.113C405.164 525.732 404.936 543.77 411.763 545.896C412.655 546.174 413.595 546.063 414.496 546.291C416.372 546.766 417.941 548.843 418.263 551.279C418.585 553.714 417.639 556.347 415.991 557.6C418.128 558.819 419.326 562.268 418.61 565.142C417.894 568.015 415.364 569.914 413.077 569.293C414.39 571.039 413.388 574.235 411.683 575.272C409.979 576.308 407.981 575.859 406.133 575.39C406.302 577.674 404.002 578.79 402.226 578.785C397.764 578.771 392.724 576.499 389.836 571.953C386.915 567.357 383.607 563.024 380.838 558.206C370.802 540.744 364.881 520.19 358.054 500.501C356.32 495.502 354.528 490.535 352.586 485.664C351.334 482.523 349.396 475.121 346.947 473.451C345.484 472.454 341.865 473.229 340.182 473.139C337.657 473.003 335.133 472.832 332.612 472.626C327.762 472.229 322.918 471.7 318.086 471.041C310.16 469.959 302.263 468.526 294.414 466.743" fill="#84FF20"/>
<path d="M131.835 380.678C133.417 382.169 135.642 382.688 137.637 381.704C139.441 380.814 140.576 378.867 140.978 376.957H138.489C138.995 379.66 141.62 382.204 144.527 381.395C147.496 380.57 148.847 376.976 148.698 374.177C148.609 372.524 146.028 372.514 146.117 374.177C146.202 375.773 145.704 378.179 144.007 378.855C142.422 379.486 141.225 377.593 140.978 376.271C140.745 375.024 138.745 375.055 138.489 376.271C138.245 377.434 137.716 378.637 136.67 379.291C135.657 379.925 134.495 379.64 133.66 378.853C132.453 377.714 130.624 379.535 131.835 380.678Z" fill="#FF008C"/>
<path d="M154.636 360.699C152.875 360.321 150.868 360.133 149.384 361.366C147.662 362.796 147.54 365.232 147.919 367.281C148.678 371.383 151.932 374.202 155.192 376.458L155.5 374.1C149.685 375.828 149.223 383.606 148.935 388.554C148.838 390.213 151.419 390.208 151.516 388.554C151.661 386.064 151.796 383.543 152.546 381.146C153.116 379.323 154.219 377.173 156.186 376.588C157.304 376.256 157.393 374.852 156.495 374.23C154.28 372.697 152.005 370.902 150.918 368.355C150.376 367.087 149.897 365.07 150.654 363.796C151.334 362.653 152.863 362.954 153.95 363.188C155.57 363.536 156.262 361.048 154.636 360.699Z" fill="#FF008C"/>
<path d="M678.003 404.844C662.826 389.183 631.327 368.463 611.97 370.515C592.612 372.568 573.984 384.486 560.987 403.135C555.008 411.713 550.258 421.526 545.164 430.967C542.222 436.418 535.465 452.203 528.725 449.652C527.844 449.318 527.072 448.616 526.204 448.235C524.393 447.439 522.232 448.23 521.014 450.134C519.796 452.038 519.601 454.93 520.546 457.077C518.223 456.759 515.855 458.978 515.367 461.93C514.88 464.883 516.342 468.157 518.563 469.091C516.752 469.76 516.388 473.176 517.467 475.172C518.545 477.168 520.45 478.065 522.233 478.848C521.206 480.72 522.77 483.168 524.312 484.307C528.186 487.168 533.431 488.442 537.689 486.36C541.993 484.256 546.532 482.629 550.791 480.234C566.227 471.555 579.287 457.547 592.798 444.871C596.229 441.652 599.699 438.5 603.26 435.527C605.557 433.609 610.092 428.439 612.86 428.568C614.512 428.646 617.351 431.647 618.845 432.653C621.087 434.161 623.341 435.637 625.607 437.082C629.965 439.86 634.368 442.52 638.812 445.06C646.101 449.224 653.501 453.065 660.994 456.573" fill="#84FF20"/>
<path d="M226.864 490.059C226.308 491.095 225.466 491.806 224.646 492.49C223.317 493.598 221.976 494.714 220.5 495.45C219.41 495.993 218.264 496.319 217.123 496.643C214.251 497.459 211.823 498.778 209.021 499.856C210.584 496.194 210.258 491.617 209.123 487.7C207.988 483.784 206.126 480.301 204.614 476.604C202.15 470.582 200.617 463.993 199.477 457.342C198.878 453.85 198.379 450.311 197.419 446.957C197.051 445.673 196.609 444.324 196.821 442.983C197.249 440.28 199.284 440.757 199.982 442.665C200.875 445.106 201.418 447.857 202.263 450.351C204.002 455.485 206.062 460.437 208.41 465.149C213.158 474.676 219.091 483.224 225.946 490.297" fill="#FF008C"/>
<path d="M771.583 457.589C766.323 469.052 759.878 479.602 752.487 488.897C750.64 491.22 748.733 493.465 746.771 495.627C745.369 497.171 743.398 498.232 742.413 500.283C741.062 503.093 743.612 504.698 745.164 506.436C748.764 510.471 752.608 514.283 757.043 516.655C761.554 519.068 766.102 519.739 770.779 521.354C767.383 502.402 770.177 482.533 774.153 463.77C774.532 461.979 774.683 459.505 773.348 458.815C772.767 458.515 771.985 458.638 771.642 457.962" fill="#FF008C"/>
<path d="M252.524 360.872C255.94 360.492 267.943 359.473 266.407 367.983C265.126 375.079 253.051 372.714 249.807 370.883C248.362 370.067 246.908 368.65 246.716 366.627C246.549 364.872 247.432 363.163 248.597 362.236C249.762 361.308 251.161 361.023 252.524 360.872Z" fill="white"/>
<path d="M252.519 362.162C254.875 361.902 257.303 361.766 259.659 362.091C262.013 362.416 264.853 363.305 265.215 365.925C266.189 372.974 256.191 371.784 252.127 370.463C250.669 369.989 248.93 369.158 248.232 367.481C247.736 366.291 248.008 364.904 248.771 363.889C249.657 362.71 251.122 362.329 252.519 362.162C253.216 362.079 253.801 361.629 253.809 360.872C253.816 360.238 253.211 359.499 252.519 359.581C249.456 359.946 246.71 361.201 245.694 364.333C244.745 367.259 246.245 370.106 248.695 371.719C251.5 373.566 255.559 374.133 258.838 374.071C262.516 374.002 266.655 372.63 267.585 368.619C268.01 366.784 267.921 364.721 266.874 363.102C265.934 361.648 264.434 360.746 262.829 360.187C259.58 359.055 255.891 359.21 252.519 359.581C250.886 359.761 250.868 362.344 252.519 362.162Z" fill="#FF008C"/>
<path d="M258.027 364.33C258.102 364.133 258.185 363.942 258.277 363.758C258.985 362.341 260.184 361.3 261.486 361.193C264.305 360.963 267.063 364.332 266.404 367.983C265.652 372.151 260.476 373.814 258.402 370.385C257.383 368.701 257.297 366.249 258.027 364.33Z" fill="#FF008C"/>
<path d="M259.275 364.673C259.637 363.755 260.251 363.013 261.076 362.607C260.854 362.716 261.211 362.56 261.232 362.554C261.33 362.524 261.429 362.501 261.53 362.48C261.738 362.438 261.265 362.468 261.601 362.476C261.712 362.479 261.823 362.471 261.934 362.477C261.992 362.48 262.333 362.544 262.031 362.481C262.14 362.503 262.249 362.524 262.357 362.554C262.466 362.583 262.57 362.621 262.677 362.656C262.931 362.739 262.531 362.561 262.787 362.705C262.99 362.821 263.189 362.934 263.385 363.062C263.692 363.261 263.227 362.901 263.5 363.151C263.59 363.233 263.682 363.311 263.769 363.395C263.916 363.539 264.054 363.691 264.185 363.849C264.027 363.659 264.28 363.979 264.287 363.988C264.383 364.128 264.474 364.272 264.559 364.42C264.839 364.906 264.886 365.023 265.035 365.563C265.194 366.138 265.226 366.342 265.215 366.984C265.207 367.479 265.18 367.693 265.033 368.198C265.002 368.305 264.967 368.411 264.929 368.517C264.914 368.56 264.764 368.885 264.894 368.614C264.786 368.839 264.672 369.059 264.537 369.27C264.49 369.343 264.439 369.414 264.39 369.486C264.274 369.656 264.589 369.263 264.371 369.512C264.236 369.666 264.102 369.818 263.953 369.96C263.88 370.029 263.803 370.093 263.729 370.162C263.487 370.386 263.948 370.022 263.676 370.205C263.513 370.316 263.351 370.426 263.178 370.522C263.093 370.569 263.007 370.614 262.92 370.656C262.858 370.686 262.562 370.787 262.875 370.679C262.724 370.731 262.577 370.786 262.423 370.829C262.321 370.857 261.744 370.95 262.124 370.91C261.909 370.933 261.695 370.946 261.479 370.938C261.419 370.936 261.356 370.927 261.296 370.928C260.996 370.933 261.566 371.004 261.277 370.927C261.1 370.88 260.923 370.842 260.747 370.791C260.671 370.769 260.416 370.634 260.714 370.786C260.659 370.758 260.602 370.733 260.548 370.704C260.465 370.661 260.384 370.614 260.305 370.565C260.239 370.524 259.935 370.265 260.18 370.487C260.006 370.329 259.844 370.169 259.688 369.993C259.72 370.029 259.831 370.205 259.698 370.005C259.613 369.877 259.528 369.751 259.452 369.617C259.267 369.293 259.23 369.193 259.141 368.923C259.052 368.655 258.982 368.381 258.929 368.103C258.873 367.815 258.86 367.684 258.846 367.3C258.836 367.009 258.842 366.717 258.864 366.427C258.899 365.951 259.056 365.268 259.275 364.673C259.516 364.019 259.006 363.259 258.374 363.086C257.654 362.888 257.029 363.331 256.787 363.987C255.84 366.555 256.08 369.949 258.032 372.007C259.611 373.673 262.028 373.858 264.047 372.965C266.21 372.008 267.518 369.848 267.761 367.552C268.043 364.88 266.695 361.972 264.343 360.613C263.101 359.896 261.549 359.646 260.196 360.195C258.516 360.877 257.435 362.344 256.787 363.987C256.531 364.636 257.067 365.404 257.688 365.574C258.421 365.776 259.019 365.324 259.275 364.673Z" fill="#FF008C"/>
<path d="M204.392 356.878C207.807 356.498 219.81 355.479 218.274 363.989C216.994 371.085 204.918 368.72 201.675 366.889C200.229 366.073 198.775 364.656 198.583 362.633C198.416 360.878 199.3 359.169 200.464 358.241C201.629 357.314 203.028 357.029 204.392 356.878Z" fill="white"/>
<path d="M204.386 358.168C206.742 357.908 209.17 357.772 211.526 358.097C213.88 358.421 216.72 359.311 217.082 361.931C218.056 368.98 208.058 367.79 203.994 366.469C202.537 365.995 200.797 365.164 200.099 363.487C199.603 362.297 199.876 360.909 200.638 359.895C201.524 358.716 202.989 358.335 204.386 358.168C205.084 358.085 205.669 357.634 205.677 356.878C205.683 356.244 205.078 355.505 204.386 355.587C201.323 355.952 198.578 357.207 197.561 360.339C196.612 363.264 198.113 366.112 200.563 367.725C203.368 369.572 207.426 370.139 210.705 370.077C214.383 370.007 218.522 368.636 219.452 364.624C219.878 362.789 219.788 360.727 218.741 359.108C217.802 357.653 216.301 356.752 214.696 356.192C211.447 355.061 207.758 355.215 204.386 355.587C202.753 355.767 202.735 358.35 204.386 358.168Z" fill="#FF008C"/>
<path d="M209.894 360.337C209.969 360.14 210.053 359.948 210.145 359.764C210.852 358.348 212.051 357.306 213.353 357.2C216.172 356.969 218.93 360.338 218.271 363.99C217.519 368.158 212.343 369.821 210.269 366.391C209.25 364.707 209.164 362.256 209.894 360.337Z" fill="#FF008C"/>
<path d="M211.135 360.679C211.497 359.761 212.11 359.019 212.935 358.613C212.714 358.722 213.07 358.566 213.091 358.56C213.189 358.53 213.289 358.506 213.389 358.486C213.597 358.444 213.125 358.474 213.461 358.482C213.572 358.485 213.682 358.477 213.793 358.483C213.851 358.486 214.192 358.55 213.89 358.487C214 358.509 214.108 358.53 214.216 358.56C214.325 358.589 214.43 358.627 214.537 358.662C214.791 358.744 214.39 358.567 214.646 358.711C214.849 358.827 215.048 358.94 215.245 359.067C215.552 359.267 215.086 358.907 215.36 359.157C215.449 359.238 215.541 359.316 215.628 359.401C215.775 359.545 215.913 359.697 216.045 359.855C215.887 359.665 216.14 359.985 216.146 359.994C216.243 360.134 216.334 360.278 216.418 360.426C216.698 360.912 216.745 361.029 216.894 361.569C217.054 362.144 217.085 362.348 217.075 362.99C217.067 363.485 217.039 363.699 216.892 364.204C216.861 364.311 216.827 364.417 216.789 364.522C216.773 364.566 216.624 364.891 216.754 364.62C216.646 364.845 216.531 365.065 216.396 365.276C216.349 365.349 216.298 365.42 216.249 365.492C216.133 365.661 216.448 365.269 216.23 365.518C216.095 365.672 215.961 365.824 215.813 365.966C215.74 366.035 215.662 366.099 215.588 366.167C215.346 366.392 215.807 366.028 215.535 366.211C215.372 366.322 215.21 366.432 215.038 366.528C214.953 366.575 214.866 366.62 214.779 366.662C214.717 366.692 214.422 366.793 214.734 366.685C214.584 366.737 214.436 366.792 214.283 366.834C214.18 366.863 213.603 366.956 213.983 366.916C213.768 366.938 213.554 366.952 213.338 366.944C213.278 366.942 213.215 366.932 213.155 366.934C212.855 366.939 213.426 367.01 213.136 366.933C212.96 366.886 212.782 366.848 212.606 366.797C212.531 366.775 212.275 366.64 212.573 366.792C212.518 366.764 212.462 366.739 212.407 366.71C212.324 366.667 212.243 366.62 212.164 366.571C212.098 366.529 211.794 366.271 212.039 366.492C211.865 366.335 211.703 366.175 211.547 365.999C211.579 366.035 211.69 366.211 211.557 366.011C211.472 365.883 211.387 365.757 211.311 365.623C211.127 365.299 211.089 365.199 211 364.929C210.911 364.661 210.841 364.386 210.788 364.109C210.732 363.821 210.719 363.69 210.706 363.306C210.695 363.015 210.701 362.723 210.723 362.433C210.758 361.957 210.915 361.274 211.135 360.679C211.376 360.025 210.865 359.265 210.234 359.092C209.513 358.894 208.888 359.337 208.646 359.993C207.7 362.561 207.939 365.955 209.891 368.013C211.47 369.679 213.887 369.863 215.906 368.971C218.07 368.014 219.377 365.854 219.62 363.558C219.903 360.885 218.554 357.978 216.202 356.619C214.96 355.901 213.408 355.652 212.055 356.201C210.375 356.883 209.294 358.35 208.646 359.993C208.39 360.641 208.927 361.41 209.548 361.58C210.28 361.782 210.878 361.33 211.135 360.679Z" fill="#FF008C"/>
<path d="M708.416 360.872C705.001 360.492 692.998 359.473 694.533 367.983C695.814 375.079 707.89 372.714 711.133 370.883C712.579 370.067 714.033 368.65 714.225 366.627C714.392 364.872 713.508 363.163 712.343 362.236C711.178 361.308 709.779 361.023 708.416 360.872Z" fill="white"/>
<path d="M708.412 359.582C702.93 358.977 692.622 359.061 693.119 367.012C693.667 375.783 705.42 374.939 711.212 372.283C713.812 371.09 715.824 368.496 715.482 365.535C715.302 363.975 714.553 362.44 713.352 361.409C711.941 360.197 710.213 359.796 708.412 359.582C707.714 359.498 707.128 360.234 707.121 360.872C707.113 361.638 707.722 362.08 708.412 362.162C710.768 362.443 713.295 363.868 712.93 366.627C712.699 368.373 710.964 369.646 709.661 370.158C706.962 371.22 703.886 371.688 700.998 371.434C698.266 371.193 695.839 369.905 695.693 366.909C695.556 364.086 697.687 362.827 700.216 362.28C702.885 361.704 705.715 361.865 708.412 362.162C710.06 362.344 710.047 359.762 708.412 359.582Z" fill="#FF008C"/>
<path d="M702.905 364.33C702.83 364.133 702.747 363.942 702.655 363.758C701.948 362.341 700.748 361.3 699.446 361.193C696.628 360.963 693.869 364.332 694.528 367.983C695.281 372.151 700.456 373.814 702.531 370.385C703.549 368.701 703.636 366.249 702.905 364.33Z" fill="#FF008C"/>
<path d="M704.152 363.987C703.597 362.582 702.729 361.268 701.39 360.498C700.22 359.824 698.786 359.713 697.522 360.188C694.905 361.171 693.291 363.834 693.15 366.564C693.024 368.993 694.199 371.38 696.288 372.652C698.062 373.731 700.492 373.885 702.209 372.603C704.778 370.685 705.204 366.842 704.152 363.987C703.911 363.334 703.277 362.89 702.564 363.086C701.935 363.259 701.421 364.016 701.663 364.673C702.07 365.777 702.196 366.689 702.05 367.879C702.076 367.662 702.006 368.122 702.01 368.103C701.987 368.22 701.962 368.335 701.933 368.45C701.872 368.699 701.797 368.946 701.704 369.185C701.782 368.986 701.609 369.39 701.614 369.379C701.554 369.5 701.489 369.618 701.419 369.734C701.362 369.827 701.3 369.915 701.24 370.005C701.093 370.227 701.383 369.87 701.184 370.071C701.044 370.213 700.907 370.352 700.759 370.487C700.993 370.274 700.771 370.475 700.713 370.513C700.635 370.565 700.555 370.614 700.473 370.66C700.419 370.69 700.362 370.716 700.308 370.746C700.044 370.895 700.569 370.682 700.278 370.761C700.073 370.816 699.867 370.872 699.662 370.927C699.372 371.004 699.943 370.933 699.643 370.928C699.583 370.927 699.519 370.936 699.46 370.938C699.274 370.945 699.092 370.932 698.907 370.92C698.592 370.899 699.19 370.988 698.882 370.913C698.79 370.891 698.698 370.876 698.606 370.853C698.421 370.806 698.244 370.741 698.064 370.679C698.376 370.787 698.081 370.686 698.019 370.656C697.931 370.614 697.845 370.569 697.76 370.522C697.617 370.442 697.478 370.356 697.343 370.262C697.296 370.229 697.047 370.02 697.287 370.225C697.21 370.16 697.133 370.097 697.059 370.029C696.883 369.867 696.725 369.692 696.568 369.512C696.35 369.263 696.665 369.656 696.549 369.486C696.499 369.414 696.449 369.343 696.402 369.27C696.286 369.089 696.192 368.9 696.09 368.712C695.924 368.405 696.165 368.953 696.047 368.62C696.01 368.515 695.971 368.412 695.938 368.305C695.87 368.087 695.819 367.865 695.775 367.64C695.72 367.361 695.712 366.745 695.751 366.288C695.787 365.872 695.691 366.493 695.782 366.089C695.811 365.957 695.835 365.824 695.869 365.693C695.902 365.563 695.939 365.434 695.98 365.307C695.995 365.263 696.163 364.819 696.086 364.999C696.269 364.572 696.511 364.149 696.8 363.784C696.646 363.978 696.909 363.668 696.915 363.661C696.97 363.6 697.026 363.54 697.083 363.482C697.168 363.395 697.256 363.311 697.347 363.23C697.407 363.177 697.468 363.125 697.53 363.075C697.425 363.154 697.433 363.15 697.553 363.062C697.782 362.914 698.008 362.774 698.255 362.656C698.206 362.68 698.029 362.732 698.261 362.656C698.403 362.61 698.543 362.561 698.69 362.526C698.737 362.515 699.099 362.459 698.784 362.495C698.93 362.478 699.078 362.471 699.226 362.473C699.217 362.473 699.577 362.498 699.398 362.476C699.276 362.461 699.657 362.539 699.707 362.554C700.073 362.666 700.398 362.89 700.762 363.265C701.11 363.624 701.465 364.171 701.663 364.673C701.919 365.321 702.527 365.774 703.25 365.575C703.867 365.405 704.409 364.639 704.152 363.987Z" fill="#FF008C"/>
<path d="M756.549 356.878C753.134 356.498 741.13 355.479 742.666 363.989C743.947 371.085 756.022 368.72 759.266 366.889C760.711 366.073 762.166 364.656 762.358 362.633C762.525 360.878 761.641 359.169 760.476 358.241C759.311 357.314 757.912 357.029 756.549 356.878Z" fill="white"/>
<path d="M756.545 355.587C751.063 354.983 740.755 355.067 741.252 363.018C741.8 371.789 753.553 370.945 759.345 368.288C761.944 367.096 763.957 364.502 763.615 361.541C763.435 359.981 762.686 358.446 761.485 357.415C760.074 356.203 758.346 355.802 756.545 355.587C755.847 355.504 755.261 356.24 755.254 356.878C755.246 357.644 755.855 358.086 756.544 358.168C758.901 358.449 761.428 359.874 761.063 362.633C760.832 364.378 759.096 365.651 757.794 366.164C755.095 367.226 752.019 367.694 749.131 367.439C746.399 367.199 743.971 365.911 743.826 362.915C743.688 360.092 745.82 358.832 748.348 358.286C751.018 357.709 753.848 357.871 756.544 358.168C758.193 358.35 758.18 355.768 756.545 355.587Z" fill="#FF008C"/>
<path d="M751.038 360.337C750.963 360.14 750.88 359.948 750.788 359.764C750.08 358.348 748.881 357.306 747.579 357.2C744.76 356.969 742.002 360.338 742.661 363.99C743.413 368.158 748.589 369.821 750.663 366.391C751.682 364.707 751.769 362.256 751.038 360.337Z" fill="#FF008C"/>
<path d="M752.284 359.993C751.73 358.588 750.862 357.274 749.523 356.503C748.353 355.83 746.919 355.719 745.655 356.193C743.038 357.177 741.424 359.84 741.283 362.57C741.157 364.999 742.332 367.386 744.421 368.658C746.195 369.737 748.625 369.891 750.342 368.609C752.911 366.691 753.337 362.848 752.284 359.993C752.044 359.34 751.41 358.896 750.697 359.092C750.068 359.265 749.554 360.022 749.796 360.679C750.203 361.783 750.328 362.695 750.183 363.885C750.209 363.668 750.139 364.128 750.143 364.109C750.12 364.226 750.095 364.341 750.066 364.456C750.005 364.705 749.93 364.952 749.837 365.191C749.915 364.992 749.741 365.396 749.747 365.385C749.686 365.505 749.621 365.624 749.551 365.74C749.495 365.832 749.433 365.921 749.373 366.011C749.226 366.233 749.516 365.876 749.317 366.077C749.176 366.219 749.04 366.358 748.891 366.492C749.126 366.28 748.904 366.481 748.846 366.519C748.768 366.571 748.688 366.62 748.606 366.666C748.552 366.696 748.495 366.722 748.441 366.752C748.177 366.901 748.701 366.688 748.411 366.766C748.206 366.822 748 366.878 747.794 366.933C747.505 367.01 748.075 366.939 747.775 366.934C747.716 366.932 747.652 366.942 747.592 366.944C747.407 366.951 747.225 366.938 747.04 366.926C746.725 366.905 747.323 366.994 747.014 366.919C746.923 366.897 746.83 366.882 746.739 366.859C746.554 366.812 746.377 366.747 746.197 366.685C746.509 366.793 746.213 366.692 746.152 366.662C746.064 366.62 745.978 366.575 745.893 366.528C745.75 366.448 745.611 366.361 745.476 366.268C745.428 366.235 745.18 366.026 745.42 366.231C745.343 366.166 745.266 366.102 745.192 366.035C745.015 365.873 744.858 365.698 744.701 365.518C744.483 365.269 744.797 365.661 744.682 365.492C744.632 365.42 744.582 365.349 744.534 365.276C744.419 365.095 744.325 364.906 744.223 364.718C744.056 364.411 744.298 364.959 744.18 364.626C744.143 364.521 744.104 364.418 744.071 364.311C744.003 364.093 743.952 363.871 743.908 363.646C743.853 363.367 743.845 362.751 743.884 362.294C743.919 361.877 743.824 362.499 743.914 362.095C743.944 361.963 743.968 361.83 744.002 361.699C744.035 361.569 744.072 361.44 744.113 361.313C744.127 361.269 744.296 360.825 744.219 361.005C744.402 360.577 744.644 360.155 744.932 359.79C744.779 359.984 745.041 359.674 745.048 359.667C745.102 359.606 745.159 359.546 745.216 359.488C745.301 359.401 745.389 359.317 745.48 359.236C745.54 359.183 745.601 359.131 745.663 359.08C745.558 359.16 745.566 359.156 745.686 359.068C745.915 358.919 746.141 358.78 746.388 358.662C746.339 358.686 746.162 358.737 746.394 358.662C746.536 358.616 746.676 358.567 746.822 358.532C746.87 358.521 747.231 358.465 746.916 358.501C747.063 358.484 747.211 358.477 747.359 358.479C747.35 358.479 747.71 358.504 747.531 358.482C747.409 358.467 747.79 358.545 747.839 358.56C748.206 358.672 748.531 358.895 748.895 359.271C749.243 359.63 749.598 360.176 749.796 360.679C750.052 361.327 750.66 361.779 751.383 361.581C752 361.411 752.542 360.645 752.284 359.993Z" fill="#FF008C"/>
<path d="M637.775 376.695C629.944 389.073 624.6 402.988 621.595 417.303C620.712 421.511 620.043 425.759 619.549 430.03C619.359 431.677 621.941 431.663 622.13 430.03C624.249 411.692 630.111 393.635 640.004 377.997C640.894 376.589 638.662 375.293 637.775 376.695Z" fill="#FF008C"/>
<path d="M357.625 416.906C347.955 429.677 341.382 444.709 337.659 460.248C336.541 464.913 335.701 469.634 335.083 474.39C334.869 476.032 337.452 476.016 337.664 474.39C339.728 458.505 344.7 442.875 352.714 428.979C354.868 425.244 357.251 421.646 359.854 418.208C360.856 416.884 358.616 415.597 357.625 416.906Z" fill="#FF008C"/>
<path d="M186.128 451.081C184.21 467.965 186.899 485.569 194.424 500.853C195.158 502.343 197.384 501.037 196.653 499.551C189.324 484.666 186.843 467.505 188.709 451.081C188.896 449.433 186.313 449.446 186.128 451.081Z" fill="#FF008C"/>
<path d="M787.009 477.974C786.252 491.425 783.563 504.739 778.868 517.373C778.289 518.932 780.782 519.605 781.356 518.059C786.131 505.212 788.82 491.65 789.59 477.974C789.683 476.315 787.102 476.32 787.009 477.974Z" fill="#FF008C"/>
<path d="M663.373 537.796C668.671 557.064 673.419 576.481 677.612 596.019C681.853 615.784 685.531 635.67 688.65 655.643C690.417 666.961 692.002 678.307 693.409 689.675C693.61 691.302 696.194 691.322 695.99 689.675C693.494 669.509 690.452 649.412 686.836 629.416C683.235 609.505 679.073 589.695 674.343 570.021C671.694 559.006 668.865 548.034 665.861 537.11C665.421 535.511 662.931 536.19 663.373 537.796Z" fill="#FF008C"/>
<path d="M702.93 541.427C706.769 550.966 709.967 560.757 712.515 570.719C714.868 579.921 717.476 590.828 713.153 599.864C711.447 603.429 708.403 607.347 704.059 607.268C702.397 607.237 702.397 609.818 704.059 609.848C708.079 609.922 711.341 607.346 713.588 604.219C716.334 600.397 717.567 595.726 717.881 591.083C718.256 585.555 717.344 580.002 716.122 574.627C714.891 569.208 713.399 563.84 711.752 558.534C709.884 552.519 707.77 546.584 705.419 540.741C704.806 539.22 702.309 539.884 702.93 541.427Z" fill="#FF008C"/>
<path d="M273.61 528.021C266.598 541.635 265.74 557.489 264.308 572.452C263.848 577.256 263.389 582.06 262.929 586.864C262.771 588.516 265.352 588.505 265.51 586.864C266.279 578.824 267.006 570.78 267.831 562.746C268.59 555.362 269.534 547.956 271.487 540.779C272.564 536.825 273.96 532.97 275.838 529.323C276.597 527.849 274.371 526.542 273.61 528.021Z" fill="#FF008C"/>
<path d="M291.994 538.606C289.737 541.787 288.543 545.612 288.184 549.471C288.119 550.166 288.823 550.761 289.474 550.761C290.226 550.761 290.7 550.168 290.765 549.471C291.083 546.057 292.234 542.711 294.223 539.908C294.626 539.34 294.324 538.473 293.76 538.143C293.113 537.765 292.399 538.036 291.994 538.606Z" fill="#FF008C"/>
<path d="M280.351 576.57C279.542 579.705 278.733 582.841 277.924 585.977C277.75 586.652 278.146 587.378 278.825 587.565C279.491 587.748 280.237 587.341 280.412 586.663C281.221 583.527 282.03 580.392 282.839 577.256C283.013 576.581 282.617 575.855 281.938 575.668C281.272 575.485 280.526 575.892 280.351 576.57Z" fill="#FF008C"/>
<path d="M267.752 623.307C266.294 626.495 265.439 629.868 265.121 633.356C265.058 634.051 265.76 634.647 266.412 634.647C267.162 634.647 267.638 634.053 267.702 633.356C267.975 630.355 268.726 627.352 269.98 624.609C270.27 623.976 270.161 623.22 269.518 622.844C268.962 622.519 268.043 622.67 267.752 623.307Z" fill="#FF008C"/>
<path d="M297.735 571.713C295.789 576.356 294.72 581.316 294.402 586.334C294.296 587.993 296.877 587.986 296.982 586.334C297.286 581.545 298.367 576.827 300.224 572.399C300.494 571.756 299.933 570.98 299.323 570.812C298.578 570.607 298.006 571.068 297.735 571.713Z" fill="#FF008C"/>
<path d="M286.987 618.106C285.973 623.07 284.959 628.034 283.944 632.999C283.613 634.62 286.1 635.313 286.433 633.685C287.447 628.721 288.461 623.757 289.476 618.792C289.807 617.171 287.32 616.478 286.987 618.106Z" fill="#FF008C"/>
<path d="M274.289 667.514C273.177 670.376 272.578 673.415 272.408 676.477C272.37 677.152 273.028 677.798 273.698 677.768C274.429 677.735 274.948 677.2 274.989 676.477C275.145 673.67 275.737 670.88 276.777 668.2C277.022 667.57 276.508 666.757 275.876 666.613C275.136 666.445 274.551 666.839 274.289 667.514Z" fill="#FF008C"/>
<path d="M310.146 544.446C309.943 545.491 309.74 546.536 309.537 547.581C309.47 547.926 309.485 548.264 309.667 548.576C309.823 548.843 310.13 549.098 310.438 549.169C310.768 549.244 311.139 549.227 311.432 549.038C311.702 548.864 311.962 548.594 312.025 548.267C312.228 547.222 312.431 546.177 312.634 545.132C312.701 544.788 312.686 544.449 312.504 544.138C312.348 543.87 312.041 543.615 311.733 543.545C311.403 543.47 311.032 543.486 310.739 543.675C310.469 543.849 310.209 544.119 310.146 544.446Z" fill="#FF008C"/>
<path d="M257.221 527.148C256.191 531.584 255.162 536.019 254.132 540.455C253.757 542.071 256.245 542.76 256.621 541.141C257.65 536.705 258.68 532.27 259.709 527.834C260.085 526.218 257.597 525.529 257.221 527.148Z" fill="#FF008C"/>
<path d="M257.177 561.225C256.965 564.621 256.753 568.017 256.541 571.414C256.498 572.11 257.165 572.704 257.831 572.704C258.566 572.704 259.078 572.112 259.122 571.414C259.334 568.017 259.546 564.621 259.758 561.225C259.801 560.529 259.134 559.935 258.468 559.935C257.733 559.935 257.221 560.527 257.177 561.225Z" fill="#FF008C"/>
<path d="M243.86 558.505C242.667 563.769 242.086 569.163 242.118 574.56C242.128 576.22 244.709 576.224 244.699 574.56C244.668 569.386 245.205 564.239 246.349 559.191C246.715 557.574 244.228 556.884 243.86 558.505Z" fill="#FF008C"/>
<path d="M248.106 594.167C248.479 598.285 249.287 602.351 250.609 606.272C250.831 606.932 251.497 607.365 252.196 607.173C252.84 606.996 253.321 606.249 253.097 605.585C251.851 601.887 251.039 598.054 250.686 594.167C250.623 593.473 250.138 592.876 249.396 592.876C248.747 592.876 248.042 593.469 248.106 594.167Z" fill="#FF008C"/>
<path d="M235.346 612.589C236.458 616.293 238.411 619.82 241.28 622.452C241.793 622.923 242.597 622.96 243.104 622.452C243.582 621.975 243.62 621.101 243.104 620.628C240.554 618.288 238.831 615.221 237.834 611.903C237.634 611.235 236.93 610.814 236.247 611.001C235.585 611.183 235.145 611.919 235.346 612.589Z" fill="#FF008C"/>
<path d="M406.182 729.816C404.14 729.649 402.704 727.848 401.828 726.16C400.711 724.006 400.259 721.477 400.44 719.066C400.606 716.864 401.495 714.397 403.488 713.217C405.407 712.082 407.729 712.649 409.463 713.863C411.862 715.543 413.12 718.382 413.099 721.264L415.634 720.921C414.045 712.762 414.648 704.174 417.25 696.285C418.482 692.547 420.202 688.965 422.458 685.734C423.246 684.606 425.15 681.4 426.811 682.469C428.398 683.49 428.987 686.4 429.47 688.069C430.966 693.238 431.398 698.645 430.915 703.998C430.803 705.229 432.824 705.821 433.319 704.649C435.52 699.447 439.441 694.679 445.011 692.996L443.424 692.095C445.904 700.562 445.516 710.072 441.996 718.201C441.457 719.446 442.928 720.917 444.023 719.764C447.7 715.892 454.609 712.464 458.837 717.566C461.584 720.881 462.742 727.159 459.778 730.693L461.805 732.256C463.241 729.096 466.28 727.434 469.701 728.376C473.232 729.349 475.572 732.568 475.879 736.149C476.019 737.792 478.601 737.807 478.459 736.149C478.054 731.421 475.083 727.182 470.387 725.888C465.936 724.661 461.482 726.759 459.576 730.954C459.022 732.174 460.583 733.734 461.603 732.518C465.521 727.846 464.414 720.187 460.662 715.741C458.516 713.198 455.148 712.082 451.886 712.501C448.103 712.987 444.776 715.224 442.198 717.939L444.224 719.503C448.027 710.72 448.602 700.591 445.913 691.408C445.72 690.752 445.003 690.302 444.325 690.507C438.139 692.376 433.554 697.523 431.091 703.346L433.495 703.998C433.985 698.581 433.535 693.061 432.08 687.814C431.123 684.359 428.649 677.109 423.757 680.446C421.932 681.691 420.586 683.821 419.412 685.654C418.191 687.561 417.149 689.578 416.259 691.659C414.404 695.996 413.212 700.559 412.615 705.236C411.918 710.688 412.094 716.212 413.145 721.607C413.429 723.062 415.67 722.688 415.68 721.264C415.723 715.305 410.223 708.247 403.638 710.342C397.071 712.431 396.905 721.361 399.189 726.591C400.475 729.536 402.822 732.122 406.182 732.397C407.837 732.532 407.828 729.951 406.182 729.816Z" fill="#FF008C"/>
<path d="M540.494 735.778C539.992 733.743 540.246 731.562 541.157 729.674C541.905 728.123 543.244 726.404 545.088 726.213C546.887 726.026 548.398 727.491 549.271 728.902C550.422 730.761 550.898 733.038 550.498 735.195C550.195 736.829 552.419 737.45 552.986 735.881C554.088 732.834 556.68 730.396 559.981 730.041C563.268 729.688 566.088 731.497 567.61 734.34C568.394 735.805 570.623 734.503 569.838 733.037C567.856 729.334 563.965 727.006 559.722 727.489C555.314 727.99 551.974 731.111 550.498 735.195L552.986 735.881C553.89 731.014 551.102 723.266 545.053 723.635C539.206 723.992 536.824 731.667 538.005 736.464C538.402 738.076 540.892 737.393 540.494 735.778Z" fill="#FF008C"/>
<path d="M831.734 721.235C827.873 715.019 825.531 707.896 824.65 700.642C824.427 698.813 824.298 696.972 824.256 695.13C824.219 693.439 824.157 691.692 824.558 690.037C824.741 689.276 825.234 687.175 826.321 688.02C826.99 688.54 827.415 689.506 827.831 690.229C828.288 691.024 828.72 691.832 829.129 692.653C831.032 696.481 832.354 700.566 833.225 704.746C833.517 706.148 835.908 705.862 835.759 704.403C835.122 698.165 837.473 690.421 843.542 687.559L841.647 686.788C844.293 696.523 845.171 706.647 844.375 716.699C844.283 717.857 845.825 718.343 846.578 717.611C849.064 715.197 852.565 715.036 855.527 716.694C858.883 718.573 860.992 722.165 861.371 725.95C861.487 727.106 862.678 727.597 863.574 726.863C868.088 723.166 873.823 727.192 875.381 731.866C875.903 733.434 878.396 732.762 877.869 731.18C876.729 727.759 874.348 724.843 870.937 723.514C867.757 722.276 864.367 722.894 861.749 725.038L863.952 725.95C863.473 721.178 860.921 716.623 856.589 714.335C852.64 712.248 848.007 712.627 844.753 715.786L846.956 716.699C847.768 706.433 846.838 696.043 844.135 686.102C843.902 685.242 842.981 684.981 842.24 685.331C835.416 688.548 832.457 697.338 833.179 704.403L835.713 704.06C834.811 699.729 833.404 695.515 831.451 691.542C830.261 689.121 827.638 683.173 824.063 685.781C821.144 687.91 821.58 693.124 821.711 696.236C821.894 700.588 822.559 704.938 823.713 709.138C825.007 713.843 826.929 718.39 829.506 722.538C830.38 723.946 832.613 722.652 831.734 721.235Z" fill="#FF008C"/>
<path d="M148.26 741.113C144.955 740.575 145.738 734.858 146.63 732.744C148.997 727.138 155.939 730.006 159.879 731.959C160.965 732.498 161.929 731.616 161.774 730.502C161.166 726.132 162.088 719.641 166.332 717.226C168.066 716.239 170.108 716.792 171.578 718.008C173.457 719.562 174.287 721.897 174.09 724.29C173.954 725.945 176.535 725.936 176.671 724.29C177.124 718.79 171.806 712.148 165.855 714.602C159.801 717.099 158.495 725.508 159.286 731.188L161.181 729.731C157.919 728.113 154.284 726.411 150.545 726.936C147.639 727.344 145.398 729.067 144.269 731.748C142.791 735.257 142.503 742.776 147.574 743.602C149.199 743.866 149.898 741.38 148.26 741.113Z" fill="#FF008C"/>
<path d="M204.449 337.96C208.398 332.662 214.69 329.16 221.401 330.048C222.098 330.14 222.685 329.388 222.692 328.757C222.7 327.985 222.09 327.558 221.401 327.467C213.757 326.456 206.67 330.688 202.221 336.658C201.801 337.221 202.133 338.094 202.684 338.423C203.337 338.815 204.035 338.516 204.449 337.96Z" fill="#FF008C"/>
<path d="M267.798 331.307C264.955 327.685 261.164 324.893 256.796 323.399C251.75 321.674 246.273 321.952 241.211 323.441C239.621 323.909 240.297 326.4 241.897 325.93C246.553 324.56 251.471 324.301 256.11 325.888C260.067 327.241 263.408 329.864 265.974 333.132C266.998 334.438 268.813 332.6 267.798 331.307Z" fill="#FF008C"/>
<path d="M225.272 327.403C222.856 347.715 222.837 368.286 225.212 388.603C225.403 390.233 227.986 390.252 227.793 388.603C225.417 368.286 225.437 347.715 227.853 327.403C228.048 325.757 225.466 325.771 225.272 327.403Z" fill="#FF008C"/>
<path d="M232.498 406.147C232.865 404.169 234.438 402.685 236.508 403.486C238.423 404.228 239.858 406.139 240.856 407.856C242.899 411.37 243.748 415.545 244.156 419.547C244.386 421.8 244.565 424.119 244.388 426.381C244.248 428.176 243.77 430.659 242.103 431.701C240.904 432.45 240.176 431.125 239.568 430.249C238.942 429.346 238.382 428.398 237.886 427.417C236.83 425.33 236.121 423.102 235.64 420.817C235.299 419.193 232.81 419.88 233.152 421.503C233.65 423.871 234.416 426.165 235.471 428.344C236.364 430.185 237.519 432.356 239.098 433.703C240.775 435.133 242.976 434.57 244.427 433.109C245.872 431.653 246.556 429.599 246.834 427.612C247.457 423.146 246.83 418.185 245.822 413.812C244.921 409.907 243.332 405.867 240.374 403.05C238.706 401.462 236.358 400.181 233.996 400.837C231.877 401.425 230.4 403.357 230.01 405.461C229.709 407.085 232.195 407.78 232.498 406.147Z" fill="#FF008C"/>
<path d="M234.188 420.707C237.641 419.151 241.095 417.594 244.549 416.038C244.519 418.849 244.489 421.66 244.458 424.471C244.44 426.145 244.413 427.874 243.876 429.397C243.339 430.92 242.148 432.19 240.859 432.027C239.623 431.871 238.698 430.513 238.034 429.157C237.07 427.188 236.364 425.008 235.957 422.738C235.897 422.406 235.862 421.999 236.064 421.781" fill="#FF008C"/>
<path d="M234.845 421.821C238.299 420.265 241.753 418.709 245.207 417.152L243.265 416.038C243.239 418.537 243.212 421.035 243.185 423.534C243.162 425.602 243.439 428.332 242.082 430.076C241.676 430.597 241.152 430.965 240.558 430.531C239.838 430.004 239.407 429.038 239.036 428.259C238.583 427.308 238.217 426.319 237.911 425.312C237.744 424.767 237.597 424.217 237.468 423.661C237.404 423.382 237.343 423.101 237.288 422.819C237.26 422.678 237.233 422.537 237.208 422.395C237.213 422.283 237.205 422.296 237.185 422.432C238.066 421.018 235.835 419.721 234.957 421.129C234.219 422.313 234.888 424.087 235.224 425.317C235.6 426.687 236.097 428.021 236.691 429.312C237.709 431.526 239.71 434.303 242.504 432.994C245.186 431.737 245.653 428.263 245.734 425.658C245.834 422.455 245.812 419.243 245.846 416.038C245.857 414.979 244.761 414.538 243.904 414.924C240.451 416.48 236.997 418.036 233.543 419.593C232.907 419.879 232.755 420.802 233.08 421.358C233.462 422.012 234.207 422.109 234.845 421.821Z" fill="#FF008C"/>
<path d="M728.75 383.041C729.758 381.075 731.344 379.742 733.324 378.808C734.235 378.377 735.199 378.06 736.162 377.77C737.428 377.389 738.797 376.901 740.135 376.995C742.348 377.151 743.743 379.363 744.189 381.335C744.675 383.482 744.197 386.077 742.714 387.749C741.615 388.987 743.433 390.819 744.538 389.574C747.677 386.037 747.764 380.194 744.62 376.632C742.936 374.724 740.615 374.143 738.16 374.586C736.001 374.975 733.772 375.717 731.803 376.684C729.555 377.788 727.67 379.498 726.522 381.739C725.765 383.214 727.991 384.521 728.75 383.041Z" fill="#FF008C"/>
<path d="M728.898 406.614C727.618 410.525 723.514 414.182 719.379 411.689C714.55 408.778 714.758 402.524 715.038 397.625C715.133 395.966 712.552 395.971 712.458 397.625C712.167 402.712 712.165 408.123 715.848 412.097C718.787 415.267 723.366 416.112 726.976 413.527C729.116 411.995 730.574 409.784 731.387 407.3C731.905 405.718 729.414 405.04 728.898 406.614Z" fill="#FF008C"/>
<path d="M712.757 398.999C714.036 397.989 715.314 396.978 716.593 395.968C716.835 395.777 716.971 395.348 716.971 395.055C716.971 394.739 716.83 394.361 716.593 394.143C716.347 393.917 716.024 393.75 715.681 393.765C715.317 393.781 715.052 393.919 714.768 394.143C713.49 395.154 712.211 396.164 710.933 397.175C710.691 397.366 710.555 397.795 710.555 398.087C710.555 398.404 710.695 398.782 710.933 398.999C711.179 399.225 711.501 399.393 711.845 399.377C712.209 399.361 712.474 399.223 712.757 398.999Z" fill="#FF008C"/>
<path d="M695.587 349.039C697.432 345.579 700.777 343.795 704.389 342.637C708.359 341.364 712.368 340.287 715.426 337.275C716.612 336.108 714.787 334.283 713.602 335.45C710.522 338.483 706.303 339.167 702.395 340.594C698.647 341.962 695.28 344.133 693.359 347.736C692.578 349.201 694.805 350.506 695.587 349.039Z" fill="#FF008C"/>
<path d="M755.068 330.327C750.025 325.419 742.943 319.684 735.601 323.505C734.127 324.273 735.43 326.5 736.903 325.734C743.012 322.554 749.17 328.188 753.243 332.151C754.434 333.31 756.261 331.487 755.068 330.327Z" fill="#FF008C"/>
<path d="M333.085 362.181C357.623 357.361 379.434 334.049 387.736 303.832C375.744 291.874 363.534 280.372 350.238 271.039C320.896 250.442 284.995 241.404 253.781 256.731C234.413 266.24 218.028 284.746 207.078 307.513C227.763 302.74 247.235 289.335 261.711 269.639C264.979 297.038 281.33 321.102 301.934 328.834C302.835 329.172 303.803 329.531 304.393 330.473C304.855 331.209 305.005 332.182 305.141 333.113C305.873 338.123 306.604 343.134 307.336 348.144C308.501 338.628 311.946 329.16 318.099 323.72C324.252 318.279 333.368 317.97 338.763 324.622C342.838 329.647 344.132 337.749 342.757 344.808C341.382 351.867 337.634 357.886 333.085 362.181Z" fill="#FF008C"/>
<path d="M333.43 363.424C354.928 359.131 371.894 342.081 381.611 323.136C384.712 317.09 387.169 310.722 388.982 304.175C389.105 303.732 388.976 303.244 388.65 302.919C377.128 291.435 365.262 280.181 351.997 270.707C339.829 262.016 326.265 255.053 311.798 251.128C298.132 247.419 283.641 246.553 269.777 249.704C256.444 252.733 244.352 259.496 234.161 268.527C223.576 277.908 215.028 289.53 208.423 301.997C207.572 303.602 206.756 305.225 205.966 306.861C205.477 307.874 206.281 309.023 207.423 308.757C224.653 304.738 240.177 295.093 252.484 282.512C256.222 278.691 259.655 274.589 262.828 270.29L260.423 269.638C261.962 282.29 266.128 294.649 272.996 305.419C279.086 314.969 287.415 323.506 297.729 328.432C299.094 329.084 300.5 329.612 301.895 330.192C302.76 330.551 303.302 330.948 303.597 331.87C303.905 332.836 303.966 333.912 304.111 334.91C304.772 339.435 305.433 343.961 306.094 348.487C306.323 350.058 308.465 349.44 308.628 348.144C309.395 342.066 311.044 335.918 314.178 330.613C316.894 326.016 320.961 321.956 326.428 321.075C331.642 320.236 336.443 322.855 339.072 327.332C341.958 332.248 342.585 338.536 341.587 344.078C340.401 350.669 337 356.66 332.175 361.268C330.971 362.417 332.798 364.24 334 363.092C343.335 354.178 347.87 339.383 341.991 327.321C339.393 321.99 334.277 318.25 328.225 318.345C322.168 318.439 317.133 322.035 313.64 326.754C309.084 332.907 306.992 340.652 306.048 348.143L308.582 347.8C307.992 343.76 307.402 339.719 306.812 335.678C306.563 333.97 306.505 332.061 305.82 330.458C305.22 329.058 304.103 328.314 302.733 327.763C297.649 325.719 292.96 323.093 288.724 319.59C279.534 311.99 272.707 301.679 268.346 290.64C265.686 283.906 263.878 276.826 263.004 269.638C262.846 268.342 261.391 267.914 260.6 268.987C250.127 283.181 236.222 295.129 219.881 302.013C215.631 303.803 211.228 305.22 206.737 306.268L208.195 308.163C214.26 295.601 222.129 283.831 232.08 274.008C241.515 264.694 252.833 257.296 265.593 253.473C278.956 249.469 293.193 249.494 306.749 252.535C320.86 255.7 334.166 261.898 346.202 269.846C359.431 278.582 371.194 289.377 382.484 300.448C383.938 301.874 385.384 303.307 386.826 304.744L386.494 303.488C380.692 324.439 367.697 344.616 348.272 355.24C343.405 357.902 338.188 359.848 332.744 360.936C331.117 361.261 331.806 363.749 333.43 363.424Z" fill="#FF008C"/>
<path d="M619.006 432.472C627.748 444.572 636.49 456.673 645.231 468.773C649.267 474.36 653.208 480.113 658.043 485.054C662.521 489.632 667.84 493.269 673.404 496.396C679.024 499.554 685.008 502.282 691.508 502.818C696.766 503.252 702.082 502.227 706.942 500.228C717.683 495.812 726.338 487.257 732.865 477.831C740.689 466.531 745.272 452.799 755.177 442.998C756.36 441.828 754.535 440.003 753.352 441.173C744.89 449.547 740.183 460.815 734.207 470.915C728.313 480.876 720.481 490.155 710.222 495.81C705.757 498.273 700.801 499.976 695.686 500.283C689.585 500.65 683.824 498.853 678.413 496.146C672.746 493.31 667.205 489.926 662.46 485.703C657.527 481.314 653.603 475.968 649.752 470.644C640.239 457.491 630.74 444.327 621.235 431.169C620.271 429.836 618.031 431.122 619.006 432.472Z" fill="#FF008C"/>
<path d="M661.556 415.414C664.687 422.38 668.758 429.05 674.075 434.572C678.668 439.341 684.49 443.432 691.136 444.564C707.394 447.331 719.934 432.567 730.054 422.193C736.198 415.895 742.843 409.255 751.327 406.283C752.885 405.738 752.214 403.244 750.641 403.795C735.719 409.021 726.66 423.491 715.013 433.291C709.379 438.031 702.535 442.371 694.917 442.33C688.444 442.296 682.557 438.974 677.894 434.695C671.718 429.028 667.199 421.708 663.784 414.111C663.105 412.599 660.88 413.91 661.556 415.414Z" fill="#FF008C"/>
<path d="M749.579 415.069C755.518 412.862 760.866 409.414 765.496 405.104C766.714 403.97 764.886 402.148 763.671 403.279C759.383 407.271 754.399 410.535 748.893 412.581C748.24 412.823 747.796 413.454 747.992 414.168C748.165 414.796 748.923 415.313 749.579 415.069Z" fill="#FF008C"/>
<path d="M758.791 421.857C762.444 420.145 765.64 417.519 768.219 414.433C768.666 413.899 768.743 413.132 768.219 412.608C767.76 412.149 766.843 412.071 766.394 412.608C763.912 415.579 760.996 417.984 757.489 419.629C756.858 419.925 756.697 420.832 757.026 421.394C757.404 422.041 758.158 422.154 758.791 421.857Z" fill="#FF008C"/>
<path d="M760.084 430.309C761.709 429.341 763.334 428.374 764.96 427.407C765.54 427.062 765.802 426.23 765.422 425.641C765.046 425.058 764.278 424.809 763.657 425.178C762.032 426.146 760.407 427.113 758.781 428.08C758.201 428.425 757.939 429.257 758.318 429.846C758.695 430.429 759.463 430.678 760.084 430.309Z" fill="#FF008C"/>
<path d="M759.426 437.356C761.087 437.356 761.089 434.775 759.426 434.775C757.766 434.775 757.763 437.356 759.426 437.356Z" fill="#FF008C"/>
<path d="M341.167 480.285C350.153 490.943 357.458 502.97 363.173 515.672C366.224 522.451 368.701 529.434 370.97 536.508C373.24 543.59 375.445 550.749 378.736 557.439C381.866 563.801 386.113 570.022 392.28 573.764C393.704 574.627 395.003 572.396 393.583 571.535C388.032 568.168 384.228 562.573 381.34 556.887C378.008 550.329 375.839 543.253 373.601 536.269C369.223 522.601 363.796 509.398 356.347 497.094C352.384 490.548 347.924 484.31 342.992 478.46C341.92 477.189 340.102 479.023 341.167 480.285Z" fill="#FF008C"/>
<path d="M386.083 456.536C392.083 465.385 395.504 475.676 397.894 486.02C400.514 497.361 401.844 508.94 403.54 520.441C404.521 527.094 405.63 533.731 407.158 540.283C407.535 541.9 410.023 541.216 409.646 539.597C404.352 516.892 404.292 492.985 396.173 470.944C394.143 465.434 391.612 460.1 388.312 455.233C387.385 453.866 385.148 455.156 386.083 456.536Z" fill="#FF008C"/>
<path d="M408.099 558.465C409.729 559.145 411.504 559.281 413.234 558.979C413.535 558.927 413.857 558.64 414.006 558.386C414.167 558.11 414.236 557.702 414.136 557.392C413.903 556.674 413.263 556.366 412.548 556.491C412.442 556.509 412.336 556.526 412.229 556.541L412.572 556.495C411.877 556.586 411.179 556.586 410.484 556.494L410.827 556.54C410.123 556.441 409.441 556.25 408.785 555.977C408.499 555.857 408.045 555.958 407.791 556.107C407.523 556.263 407.268 556.57 407.198 556.878C407.123 557.208 407.139 557.579 407.328 557.872C407.523 558.174 407.771 558.328 408.099 558.465Z" fill="#FF008C"/>
<path d="M761.937 299.255C757.812 293.83 753.161 288.783 747.919 284.227C716.154 256.62 673.356 259.73 637.557 277.257C631.635 280.157 625.851 283.425 620.156 286.932C621.126 313.902 630.67 340.26 646.212 358.341C642.717 349.61 647.667 337.308 655.207 335.989C662.746 334.67 670.05 344.828 668.478 354.446C672.437 342.426 671.2 328.744 669.893 315.79C678.744 314.598 687.595 313.406 696.446 312.214C696.826 306.346 697.206 300.479 697.585 294.611C699.743 299.781 701.899 304.951 704.057 310.122C712.629 308.732 721.201 307.342 729.773 305.953C728.796 301.78 728.526 297.333 728.987 293.015C734.233 292.163 734.96 304.865 740.176 305.984C741.285 306.222 742.412 305.852 743.5 305.484C749.646 303.408 755.791 301.332 761.937 299.255Z" fill="#FF008C"/>
<path d="M763.053 298.604C756.311 289.774 748.292 281.894 738.929 275.863C730.615 270.509 721.325 266.696 711.666 264.593C692.308 260.377 671.995 262.85 653.406 269.268C641.468 273.389 630.248 279.217 619.507 285.818C619.129 286.05 618.851 286.475 618.868 286.932C619.644 307.527 625.14 328.248 635.77 345.987C638.572 350.665 641.756 355.11 645.302 359.254C646.117 360.206 647.921 359.193 647.458 357.998C645.265 352.335 646.389 345.044 650.402 340.414C652.136 338.413 654.535 336.899 657.279 337.197C660.348 337.531 662.91 339.869 664.543 342.343C666.803 345.765 667.852 350.03 667.236 354.102C666.993 355.712 669.2 356.407 669.724 354.789C673.796 342.215 672.486 328.704 671.186 315.79L670.238 317.035C679.089 315.842 687.94 314.65 696.791 313.458C697.369 313.38 697.705 312.726 697.738 312.214C698.118 306.346 698.498 300.478 698.878 294.61L696.343 294.953C698.5 300.124 700.657 305.294 702.814 310.464C703.106 311.164 703.635 311.49 704.402 311.365C712.974 309.976 721.546 308.586 730.118 307.197C730.828 307.082 731.16 306.229 731.019 305.61C730.076 301.468 729.854 297.238 730.279 293.014L728.989 294.305C730.585 294.093 731.458 295.53 732.16 296.766C733.213 298.622 733.972 300.629 734.971 302.513C735.854 304.177 736.982 305.943 738.716 306.817C739.944 307.436 741.291 307.436 742.607 307.111C744.625 306.613 746.604 305.796 748.572 305.131L762.282 300.5C763.847 299.971 763.175 297.477 761.596 298.011C757.656 299.342 753.717 300.673 749.777 302.004L743.868 304C742.593 304.431 741.057 305.173 739.764 304.455C738.187 303.579 737.32 301.513 736.578 299.969C735.696 298.136 734.949 296.195 733.799 294.506C732.697 292.888 731.089 291.445 728.989 291.724C728.24 291.824 727.777 292.239 727.698 293.014C727.25 297.464 727.538 301.936 728.53 306.296L729.432 304.709C720.86 306.098 712.287 307.488 703.715 308.877L705.303 309.778C703.145 304.608 700.988 299.438 698.831 294.267C698.285 292.958 696.396 293.076 696.297 294.611C695.917 300.478 695.537 306.346 695.157 312.214L696.105 310.97C687.254 312.162 678.403 313.354 669.552 314.546C669.044 314.615 668.554 315.286 668.605 315.79C669.882 328.473 671.235 341.752 667.236 354.102L669.724 354.789C670.865 347.242 667.252 337.482 659.356 335.015C652.003 332.718 646.448 339.767 644.643 346.04C643.463 350.139 643.418 354.679 644.97 358.684L647.126 357.429C634.364 342.515 626.679 323.574 623.287 304.371C622.269 298.607 621.669 292.78 621.448 286.932L620.809 288.046C638.542 277.149 657.793 268.545 678.607 265.919C697.604 263.524 717.192 266.278 733.95 275.859C744.473 281.876 753.487 290.298 760.824 299.907C761.819 301.209 764.062 299.925 763.053 298.604Z" fill="#FF008C"/>
</svg>
