<svg width="1000" height="1000" viewBox="0 0 1000 1000" fill="none" xmlns="http://www.w3.org/2000/svg">
<path d="M365.153 410.75C372.772 399.356 380.186 387.475 390.799 378.59C394.152 375.784 400.331 370.828 403.931 374.971C407.185 378.717 405.593 385.989 404.39 390.176C398.682 410.031 386.516 427.297 374.558 444.143C370.265 450.189 365.933 456.282 360.504 461.332C358.871 462.851 357.088 464.302 354.967 464.992C352.846 465.682 350.311 465.475 348.669 463.965C342.544 458.33 348.196 443.04 350.643 436.885C354.333 427.603 359.618 419.027 365.153 410.75Z" fill="#FF008C"/>
<path d="M366.453 411.51C370.762 405.062 374.952 398.508 379.751 392.408C384.191 386.763 389.227 381.109 395.223 377.07C397.135 375.782 400.39 373.734 402.52 375.677C404.681 377.649 404.509 381.355 404.191 383.989C403.805 387.185 402.834 390.319 401.827 393.364C400.577 397.143 399.096 400.842 397.426 404.456C390.682 419.046 381.241 432.199 371.941 445.234C369.553 448.581 367.125 451.905 364.443 455.025C361.965 457.907 359.165 461.268 355.737 463.042C352.921 464.5 349.764 463.965 348.343 460.995C347.272 458.755 347.31 456.061 347.53 453.646C348.02 448.261 349.863 442.979 351.824 437.972C354.754 430.489 358.733 423.473 363.049 416.71C364.164 414.964 365.303 413.233 366.453 411.51C367.533 409.894 364.925 408.384 363.853 409.99C358.825 417.518 354.014 425.248 350.403 433.572C347.986 439.146 345.809 445 344.853 451.022C344.021 456.257 343.874 464.254 349.987 466.446C353.881 467.841 357.745 465.735 360.633 463.24C363.976 460.353 366.877 456.94 369.582 453.461C374.925 446.589 379.881 439.362 384.762 432.156C389.649 424.942 394.295 417.54 398.209 409.746C401.811 402.572 405.148 394.867 406.735 386.961C407.389 383.708 407.817 380.057 406.684 376.857C405.601 373.798 403.054 371.534 399.671 371.938C396.424 372.326 393.599 374.415 391.113 376.395C388.011 378.865 385.136 381.61 382.465 384.538C376.769 390.784 371.979 397.785 367.303 404.806C366.152 406.533 365.006 408.264 363.853 409.99C362.772 411.606 365.38 413.116 366.453 411.51Z" fill="#FF008C"/>
<path d="M416.052 476.827C389.612 467.532 366.041 450.242 349.235 427.813C348.001 426.167 346.773 424.426 346.366 422.409C345.929 420.238 346.493 418.003 347.088 415.87C351.035 401.701 354.539 388.895 364.715 377.838C365.281 377.223 365.878 376.587 366.663 376.301C368.42 375.661 370.231 376.981 371.65 378.199C401.246 403.599 436.454 421.452 473.724 432.471" fill="white"/>
<path d="M416.452 475.374C401.088 469.948 386.666 461.817 374.055 451.498C367.725 446.319 361.835 440.603 356.482 434.419C353.829 431.353 350.96 428.17 348.894 424.667C346.505 420.618 348.601 415.999 349.773 411.862C351.98 404.076 354.395 396.277 358.368 389.183C360.406 385.547 362.822 382.139 365.635 379.061C366.162 378.484 366.766 377.663 367.617 377.645C368.65 377.624 369.684 378.511 370.429 379.133C372.137 380.559 373.823 382.008 375.549 383.412C389.041 394.385 403.656 403.941 419.048 412.028C434.44 420.114 450.589 426.761 467.154 432.03C469.204 432.682 471.261 433.311 473.323 433.922C475.186 434.474 475.981 431.568 474.124 431.018C456.734 425.864 439.783 419.244 423.618 411.005C407.536 402.808 392.22 393.046 378.182 381.689C376.393 380.242 374.629 378.766 372.878 377.274C371.349 375.972 369.551 374.529 367.417 374.634C365.241 374.742 363.83 376.523 362.515 378.044C361.082 379.7 359.74 381.442 358.503 383.249C353.78 390.147 350.778 398.018 348.356 405.971C347.741 407.992 347.16 410.022 346.588 412.055C345.951 414.318 345.192 416.593 344.86 418.925C344.532 421.225 344.835 423.393 345.895 425.468C346.878 427.393 348.312 429.098 349.633 430.797C354.818 437.465 360.601 443.665 366.886 449.309C379.512 460.646 394.075 469.742 409.817 476.08C411.745 476.856 413.691 477.586 415.651 478.279C417.482 478.925 418.27 476.016 416.452 475.374Z" fill="#FF008C"/>
<path d="M365.287 292.222C370.715 288.806 378.608 286.916 382.975 291.613C385.15 293.952 385.78 297.34 385.815 300.534C386.001 317.417 374.528 331.912 378.35 349.334C378.79 351.342 379.416 353.425 378.887 355.411C378.582 356.557 377.914 357.568 377.257 358.555C363.556 379.13 349.854 399.706 336.153 420.281C331.859 426.729 328.255 437.598 319.174 434.925C310.733 432.441 301.159 428.165 293.476 423.93C280.308 416.672 268.201 405.121 261.409 391.612C254.377 377.626 249.496 363.136 260.791 349.84C261.288 349.255 261.831 348.635 261.918 347.871C261.992 347.219 261.717 346.583 261.447 345.984C258.705 339.888 256.306 331.956 258.233 325.312C259.982 319.28 265.681 314.25 271.957 314.463C270.628 309.292 269.682 303.587 272.027 298.79C274.371 293.994 281.327 291.255 285.252 294.875C284.835 288.578 285.336 281.546 288.538 276.001C290.104 273.289 292.227 270.804 295.012 269.372C300.472 266.563 307.369 268.421 312.229 272.173C317.089 275.926 320.413 281.264 323.899 286.318C330.296 295.593 337.778 305.758 346.375 312.982C352.581 305.085 356.589 297.697 365.287 292.222Z" fill="#84FF20"/>
<path d="M311.279 436.686C311.64 437.053 312.124 437.5 312.774 438.209C317.298 443.143 322.511 447.475 328.195 451.012C333.931 454.582 339.656 458.195 346.378 459.583C345.161 442.592 356.063 424.339 365.15 410.75C372.769 399.356 380.183 387.475 390.797 378.59C394.096 375.828 397.694 373.286 401.803 372.009C397.668 367.087 392.015 363.222 387.312 358.847C382.829 354.676 377.77 351.736 371.528 353.521C366.777 354.88 362.761 358.026 359.027 361.263C342.771 375.358 329.305 392.637 319.505 411.787C317.055 416.574 314.834 421.479 312.856 426.48C312.124 428.329 310.161 431.579 310.228 433.555C310.294 435.465 310.5 435.892 311.279 436.686Z" fill="#84FF20"/>
<path d="M347.887 459.583C346.985 445.939 353.346 432.807 360.159 421.396C363.63 415.583 367.447 409.977 371.219 404.357C375.062 398.631 379.024 392.963 383.592 387.786C386.153 384.884 388.896 382.141 391.864 379.656C394.958 377.064 398.333 374.71 402.206 373.462C404.044 372.869 403.258 369.96 401.406 370.557C394.557 372.764 388.828 377.865 383.93 382.971C378.928 388.185 374.625 394.029 370.551 399.982C362.577 411.633 354.35 423.459 349.123 436.654C346.247 443.912 344.356 451.732 344.875 459.583C345.002 461.507 348.015 461.521 347.887 459.583Z" fill="#FF008C"/>
<path d="M379.486 352.143C371.335 349.708 363.99 354.996 358.129 360.059C352.039 365.321 346.341 371.038 341.078 377.127C330.384 389.498 321.453 403.394 314.71 418.293C313.678 420.573 312.696 422.876 311.762 425.198C311.051 426.965 310.141 428.64 309.441 430.41C308.79 432.054 308.542 433.731 308.92 435.479C309.273 437.112 310.63 438.112 311.716 439.274C313.042 440.694 315.168 438.56 313.846 437.144C313.126 436.374 311.968 435.655 311.8 434.551C311.573 433.06 312.092 431.73 312.702 430.395C314.202 427.109 315.543 423.761 317.019 420.463C320.222 413.306 323.927 406.373 328.093 399.73C336.05 387.04 345.702 375.432 356.748 365.314C362.479 360.065 370.165 352.503 378.685 355.047C380.546 355.603 381.341 352.697 379.486 352.143Z" fill="#FF008C"/>
<path d="M499.229 569.105C469.049 613.771 445.326 662.793 429.025 714.176C424.462 728.56 415.642 742.121 399.546 744.758C394.329 745.612 388.987 745.202 383.725 745.718C379.407 746.142 374.983 747.277 371.681 750.093C366.383 754.612 366.967 761.384 370.432 766.814C372.128 769.471 374.673 771.46 377.247 773.279C385.716 779.263 395.063 784.002 404.896 787.296C406.53 787.844 408.201 788.356 409.922 788.419C412.2 788.503 414.424 787.8 416.595 787.104C419.043 786.32 428.372 781.693 430.561 782.629C434.044 784.119 428.059 796.392 427.308 798.509C438.416 803.861 449.669 808.912 461.051 813.653C461.787 813.959 462.66 814.257 463.341 813.843C463.78 813.576 464.013 813.078 464.22 812.608C468.871 802.071 471.476 790.923 476.029 780.375C487.25 754.379 499.138 728.671 511.676 703.284C536.752 652.509 564.429 603.019 594.57 555.077" fill="#FF008C"/>
<path d="M497.929 568.345C483.589 589.588 470.693 611.799 459.366 634.792C448.087 657.687 438.344 681.348 430.252 705.555C426.949 715.434 424.146 725.553 416.969 733.457C413.78 736.969 409.884 739.879 405.44 741.601C399.549 743.884 393.397 743.727 387.188 743.983C381.364 744.224 375.201 745.106 370.617 749.028C366.608 752.459 365.429 757.807 366.915 762.77C368.622 768.473 372.893 772.12 377.631 775.376C382.861 778.97 388.413 782.094 394.198 784.702C396.997 785.964 399.847 787.117 402.741 788.144C405.85 789.247 408.926 790.252 412.263 789.769C416.488 789.158 420.286 787.145 424.219 785.618C425.842 784.989 427.623 784.211 429.372 784.029C429.565 784.009 429.824 784.036 430.043 784.021C429.975 784.026 429.951 784.053 429.95 783.996C429.953 784.145 429.995 783.993 430.048 784.202C430.129 784.523 430.137 784.63 430.136 785.034C430.132 788.383 428.432 791.911 427.172 794.944C426.734 795.998 426.247 797.036 425.857 798.109C425.647 798.688 425.988 799.54 426.549 799.81C436.518 804.609 446.599 809.172 456.788 813.483C457.997 813.994 459.204 814.51 460.418 815.008C461.497 815.45 462.623 815.77 463.747 815.295C464.798 814.851 465.281 813.918 465.717 812.923C466.257 811.693 466.769 810.449 467.263 809.2C469.189 804.33 470.794 799.342 472.453 794.377C475.902 784.054 480.318 774.168 484.738 764.233C489.226 754.147 493.814 744.106 498.502 734.111C507.784 714.325 517.457 694.722 527.513 675.318C537.464 656.115 547.792 637.108 558.487 618.309C569.182 599.511 580.246 580.922 591.669 562.557C593.065 560.313 594.466 558.074 595.871 555.837C596.906 554.191 594.301 552.678 593.27 554.317C581.937 572.349 570.947 590.597 560.316 609.052C549.767 627.363 539.568 645.876 529.727 664.578C519.74 683.556 510.121 702.728 500.877 722.08C491.574 741.554 482.418 761.171 474.104 781.092C470.098 790.691 467.562 800.83 463.536 810.421C463.311 810.958 463.094 811.502 462.839 812.025C462.508 812.704 462.318 812.53 461.641 812.275C460.281 811.762 458.947 811.153 457.608 810.585C455.121 809.529 452.639 808.458 450.165 807.373C445.215 805.202 440.291 802.973 435.394 800.684C432.946 799.54 430.505 798.381 428.07 797.209L428.762 798.91C429.759 796.166 431.133 793.366 432.061 790.471C432.842 788.035 434.384 783.373 431.675 781.541C430.428 780.698 428.826 781.013 427.46 781.356C425.587 781.825 423.774 782.556 421.99 783.283C417.962 784.924 413.399 787.483 408.926 786.823C405.832 786.366 402.738 784.998 399.847 783.851C396.875 782.671 393.962 781.343 391.114 779.891C385.608 777.082 379.955 773.875 375.225 769.862C371.384 766.603 368.215 761.298 369.559 756.082C371.021 750.414 377.23 748.102 382.452 747.372C388.889 746.473 395.445 747.279 401.829 745.845C406.581 744.777 410.986 742.606 414.805 739.601C422.46 733.577 427.2 724.529 430.202 715.432C434.155 703.449 438.195 691.528 442.793 679.774C447.457 667.852 452.534 656.093 458.005 644.52C468.925 621.42 481.412 599.06 495.362 577.654C497.063 575.043 498.787 572.447 500.531 569.865C501.618 568.254 499.009 566.745 497.929 568.345Z" fill="#FF008C"/>
<path d="M533.246 531.664C478.477 582.704 444.887 657.846 421.391 727.791C442.2 742.294 464.42 757.309 489.734 758.895C520.105 694.692 557.053 633.603 599.811 576.892" fill="white"/>
<path d="M532.183 530.598C521.391 540.671 511.449 551.627 502.303 563.209C493.087 574.88 484.651 587.15 476.9 599.838C469.033 612.714 461.861 626.009 455.249 639.57C448.68 653.045 442.663 666.786 437.068 680.693C431.547 694.417 426.448 708.308 421.663 722.305C421.084 723.999 420.51 725.694 419.94 727.39C419.716 728.058 420.102 728.722 420.632 729.091C436.955 740.465 453.864 752.097 473.239 757.55C478.624 759.065 484.153 760.034 489.736 760.401C490.221 760.433 490.826 760.1 491.037 759.655C502.915 734.559 515.787 709.934 529.625 685.862C543.386 661.923 558.095 638.53 573.708 615.756C582.556 602.851 591.696 590.148 601.113 577.652C602.28 576.103 599.666 574.601 598.512 576.131C581.801 598.305 565.97 621.14 551.076 644.573C536.264 667.876 522.377 691.767 509.457 716.17C502.136 729.998 495.129 743.992 488.435 758.135L489.736 757.389C470.011 756.093 452.177 746.499 435.949 735.883C431.293 732.837 426.717 729.671 422.153 726.49L422.845 728.191C427.497 714.351 432.438 700.606 437.778 687.016C443.233 673.132 449.107 659.411 455.515 645.94C461.94 632.432 468.9 619.173 476.526 606.303C484.085 593.545 492.301 581.166 501.299 569.375C510.183 557.733 519.866 546.679 530.375 536.475C531.675 535.213 532.988 533.965 534.313 532.728C535.733 531.403 533.6 529.276 532.183 530.598Z" fill="#FF008C"/>
<path d="M569.137 588.583C561.786 641.986 562.152 696.446 570.219 749.746C572.477 764.665 570.554 780.728 557.276 790.202C552.973 793.273 547.999 795.264 543.506 798.051C539.819 800.338 536.351 803.31 534.633 807.294C531.875 813.689 535.389 819.507 540.897 822.848C543.591 824.483 546.754 825.144 549.866 825.639C560.107 827.268 570.586 827.392 580.863 826.005C582.571 825.774 584.296 825.496 585.869 824.792C587.949 823.861 589.634 822.248 591.274 820.665C593.124 818.881 599.451 810.61 601.829 810.483C605.612 810.281 605.662 823.936 605.923 826.167C618.253 826.063 630.58 825.625 642.885 824.852C643.681 824.802 644.596 824.683 645.024 824.011C645.3 823.577 645.289 823.028 645.267 822.515C644.786 811.007 642.2 799.854 641.627 788.38C640.213 760.101 639.525 731.786 639.563 703.471C639.637 646.842 642.612 590.216 648.481 533.892" fill="#FF008C"/>
<path d="M567.688 588.183C564.071 614.553 562.273 641.156 562.385 667.775C562.497 694.484 564.515 721.176 568.391 747.603C569.829 757.406 570.466 767.752 566.234 777.016C564.17 781.536 561.054 785.512 557.07 788.499C552.203 792.147 546.389 794.22 541.38 797.641C537.085 800.575 533.045 804.726 532.299 810.095C531.619 814.987 534.12 819.545 537.872 822.547C542.515 826.263 548.336 827.049 554.07 827.727C560.624 828.503 567.249 828.668 573.833 828.222C576.988 828.009 580.206 827.748 583.313 827.133C586.202 826.561 588.556 825.189 590.734 823.242C593.489 820.778 595.703 817.809 598.243 815.136C599.372 813.946 600.551 812.999 601.836 812.017C601.919 811.954 601.863 811.925 601.942 812.003C602.27 812.328 602.532 812.817 602.729 813.318C603.915 816.342 604.025 819.865 604.222 823.069C604.285 824.1 604.308 825.139 604.42 826.167C604.507 826.971 605.039 827.681 605.926 827.673C616.811 827.577 627.693 827.229 638.561 826.616C639.907 826.54 641.254 826.468 642.599 826.376C643.62 826.306 644.68 826.223 645.535 825.604C647.347 824.29 646.751 821.598 646.618 819.692C646.255 814.503 645.529 809.35 644.822 804.2C643.329 793.333 642.815 782.477 642.379 771.525C641.943 760.573 641.617 749.624 641.398 738.668C640.963 716.793 640.96 694.908 641.39 673.033C641.822 651.1 642.688 629.177 643.99 607.279C645.285 585.477 647.011 563.701 649.169 541.968C649.436 539.276 649.71 536.584 649.99 533.892C650.19 531.966 647.177 531.98 646.978 533.892C644.758 555.231 642.946 576.611 641.553 598.02C640.168 619.331 639.193 640.67 638.631 662.019C638.066 683.491 637.918 704.974 638.188 726.452C638.323 737.215 638.563 747.976 638.907 758.734C639.251 769.452 639.489 780.219 640.282 790.915C641.051 801.301 643.262 811.537 643.738 821.949C643.751 822.227 643.908 822.967 643.694 823.212C643.453 823.49 642.376 823.378 642.023 823.399C640.677 823.482 639.33 823.561 637.984 823.636C635.291 823.786 632.597 823.919 629.902 824.037C624.609 824.268 619.314 824.437 614.017 824.545C611.32 824.599 608.623 824.637 605.926 824.661L607.432 826.167C607.133 823.406 607.123 820.626 606.767 817.866C606.429 815.253 606.074 811.069 603.58 809.484C600.832 807.738 597.938 811.096 596.23 812.882C593.699 815.529 591.503 818.483 588.787 820.948C586.369 823.143 583.848 824.088 580.641 824.527C577.355 824.978 574.04 825.247 570.726 825.375C564.084 825.633 557.4 825.283 550.828 824.274C545.386 823.439 539.832 821.83 536.734 816.874C533.798 812.177 535.569 806.977 539.235 803.267C543.43 799.021 549.141 796.799 554.246 793.895C558.875 791.261 562.934 787.893 566 783.511C571.544 775.585 573.004 765.534 572.411 756.067C572.042 750.156 570.899 744.296 570.133 738.429C569.27 731.818 568.524 725.192 567.897 718.555C566.643 705.28 565.859 691.961 565.547 678.631C564.923 651.971 566.186 625.267 569.337 598.786C569.726 595.515 570.145 592.247 570.592 588.984C570.852 587.088 567.95 586.268 567.688 588.183Z" fill="#FF008C"/>
<path d="M583.123 539.968C556.525 609.949 559.575 692.201 569.384 765.332C594.458 769.154 621.025 772.813 644.438 763.056C643.332 692.04 649.502 620.914 662.819 551.149" fill="white"/>
<path d="M581.669 539.568C576.454 553.324 572.382 567.493 569.295 581.874C566.172 596.423 564.04 611.18 562.683 625.995C561.311 640.97 560.743 656.014 560.792 671.049C560.841 686.065 561.505 701.076 562.633 716.048C563.741 730.748 565.297 745.412 567.179 760.032C567.407 761.799 567.639 763.566 567.876 765.332C567.956 765.931 568.282 766.678 568.981 766.784C588.658 769.782 608.904 772.755 628.715 769.188C634.239 768.194 639.647 766.651 644.836 764.508C645.453 764.254 645.953 763.775 645.942 763.056C645.518 735.383 646.185 707.697 647.956 680.078C649.729 652.432 652.594 624.853 656.569 597.437C658.795 582.086 661.365 566.787 664.27 551.55C664.631 549.655 661.728 548.844 661.365 550.749C656.173 577.987 652.058 605.428 649.034 632.991C646.008 660.582 644.08 688.294 643.26 716.038C642.797 731.706 642.69 747.383 642.93 763.056L644.036 761.603C625.762 769.152 605.641 768.547 586.369 766.216C580.825 765.546 575.302 764.72 569.783 763.88L570.888 765.332C568.949 750.848 567.31 736.322 566.098 721.758C564.862 706.889 564.066 691.979 563.857 677.058C563.647 662.089 564.026 647.106 565.175 632.178C566.32 617.293 568.237 602.465 571.138 587.818C573.986 573.445 577.777 559.249 582.704 545.446C583.31 543.747 583.935 542.055 584.574 540.369C585.262 538.554 582.351 537.77 581.669 539.568Z" fill="#FF008C"/>
<path d="M581.474 198.738C583.792 195.921 586.283 193.252 589.007 190.803C599.815 181.088 616.382 173.89 630.002 182.531C638.61 187.992 641.94 198.695 643.701 208.64C650.511 247.099 643.365 286.623 633.36 324.397C634.837 318.823 643.208 313.34 647.291 309.587C652.908 304.423 658.241 299.492 664.784 295.418C677.738 287.352 692.419 282.236 707.268 278.781C724.858 274.689 744.646 273.071 759.843 282.719C772.01 290.444 779.158 304.591 780.122 318.832C781.085 333.073 776.379 347.297 768.853 359.488C761.327 371.678 751.095 382.025 740.301 391.53C721.518 408.071 700.747 422.414 678.563 434.162C709.038 442.934 740.502 460.261 753.354 490.534C762.859 512.923 761.511 539.51 749.86 560.891C746.065 567.856 741.112 574.401 734.433 578.773C727.34 583.416 718.735 585.327 710.246 585.933C691.722 587.256 673.151 582.757 656.054 575.599C638.957 568.442 623.132 558.68 607.389 548.96C605.974 559.805 603.78 570.537 600.129 580.88C595.388 594.311 588.317 607.07 578.445 617.434C568.013 628.386 554.266 636.576 539.224 638.957C524.183 641.339 507.911 637.497 496.604 627.426C482.875 615.196 478.043 595.865 477.528 577.624C477.275 568.636 477.9 559.602 479.634 550.769C481.185 542.855 483.278 536.248 485.635 528.651C479.912 531.656 474.167 534.62 468.4 537.544C451.025 546.352 436.221 554.372 415.618 550.043C400.668 546.901 386.971 537.459 379.786 524.152C369.071 504.308 371.472 480.313 383.885 461.824C393.45 447.578 407.795 436.959 423.259 429.259C438.722 421.558 455.393 416.557 471.969 411.593C451.304 400.997 432.567 382.004 418.023 364.039C402.756 345.281 391.342 322.993 388.143 299.146C387.105 291.409 386.968 283.337 389.716 276.017C392.561 268.437 398.319 262.207 404.853 257.329C423.196 243.633 448.737 239.924 470.303 247.823C482.338 252.231 492.871 259.862 502.709 267.997C510.236 274.221 518.15 281.038 524.139 288.768C529.268 295.386 535.552 302.281 539.577 309.599C538.75 276.604 552.426 244.856 569.426 216.428C573.083 210.311 576.949 204.241 581.474 198.738Z" fill="white"/>
<path d="M582.539 199.803C590.21 190.569 600.453 182.15 612.728 180.435C618.689 179.603 624.79 180.776 629.796 184.195C634.374 187.321 637.35 192.262 639.239 197.377C641.238 202.792 642.258 208.519 643.081 214.213C644.098 221.252 644.645 228.36 644.818 235.468C645.163 249.583 644.009 263.713 641.885 277.661C639.504 293.293 635.945 308.717 631.908 323.996C631.412 325.875 634.255 326.652 634.813 324.797C636.137 320.396 640.528 317.165 643.925 314.371C647.702 311.264 651.242 307.915 654.935 304.712C663.811 297.012 674.016 291.351 684.951 287.116C695.556 283.009 706.741 279.953 717.983 278.214C728.408 276.601 739.404 276.316 749.552 279.574C770.52 286.306 780.804 308.338 778.343 329.278C775.581 352.786 759.68 371.879 742.81 387.264C723.201 405.148 701.231 420.416 677.803 432.861C676.631 433.484 676.96 435.266 678.163 435.614C696.167 440.831 713.898 448.619 728.467 460.606C743.554 473.02 753.975 489.703 757.129 509.114C760.479 529.724 755.755 553.458 742.163 569.739C727.21 587.652 700.472 586.594 679.716 581.773C653.667 575.723 630.648 561.549 608.149 547.659C607.073 546.995 606.024 547.896 605.883 548.96C603.426 567.514 598.435 585.857 588.508 601.882C579.59 616.275 566.565 628.489 550.52 634.426C535.091 640.134 517.184 639.421 503.1 630.45C489.166 621.576 482.458 605.719 480.084 589.925C478.614 580.148 478.629 570.051 479.704 560.237C480.875 549.538 483.909 539.291 487.088 529.051C487.496 527.738 485.99 526.765 484.876 527.35C475.971 532.022 467.049 536.695 457.998 541.079C449.993 544.957 441.591 548.431 432.676 549.427C415.223 551.376 396.928 544.15 385.815 530.482C374.393 516.433 371.962 496.631 377.1 479.597C382.394 462.046 395.455 448.197 410.503 438.297C429.282 425.941 451.031 419.436 472.37 413.046C473.552 412.691 473.92 410.909 472.729 410.293C452.292 399.713 435.511 382.879 420.988 365.297C406.621 347.903 395.221 327.849 390.737 305.551C388.414 294.001 387.435 281.291 393.951 270.877C399.584 261.874 408.976 255.312 418.567 251.092C439.086 242.066 462.482 243.812 481.801 254.899C493.215 261.449 503.693 270.138 513.233 279.162C517.956 283.63 521.983 288.543 526.059 293.586C530.412 298.972 534.879 304.296 538.277 310.359C539.003 311.653 541.116 311.09 541.084 309.599C540.413 278.396 552.51 248.729 567.835 222.113C572.277 214.399 576.906 206.718 582.539 199.803C583.754 198.313 581.635 196.169 580.41 197.673C570.384 209.978 562.514 224.43 555.636 238.685C548.817 252.82 543.273 267.682 540.341 283.134C538.686 291.857 537.881 300.72 538.072 309.599L540.878 308.839C537.758 303.271 533.739 298.297 529.73 293.356C525.832 288.551 522.096 283.678 517.704 279.303C509.134 270.766 499.493 262.804 489.427 256.09C479.539 249.495 468.644 244.587 456.809 242.931C446.114 241.434 435.089 242.342 424.781 245.57C414.485 248.794 404.617 254.34 397.071 262.121C393.114 266.202 389.859 270.983 387.99 276.377C386.006 282.103 385.684 288.309 386.126 294.31C387.868 317.939 398.426 340.525 412.447 359.316C420.405 369.98 429.373 380.043 439.02 389.204C448.695 398.392 459.328 406.744 471.209 412.894L471.569 410.141C435.222 421.026 391.11 435.078 375.883 473.924C369.144 491.114 370.029 511.426 379.863 527.288C389.297 542.505 406.726 551.851 424.449 552.699C434.81 553.194 444.731 550.33 454.126 546.187C465.123 541.338 475.759 535.532 486.396 529.951L484.184 528.25C481.223 537.787 478.389 547.318 477.058 557.243C475.78 566.774 475.568 576.523 476.584 586.09C478.314 602.377 484.035 619.286 497.188 629.887C510.45 640.575 528.722 643.444 545.023 639.294C561.988 634.976 576.459 623.776 586.748 609.843C599.862 592.084 606.032 570.586 608.896 548.96L606.629 550.26C627.696 563.266 649.152 576.452 673.186 583.206C684.921 586.503 697.207 588.252 709.404 587.495C720.06 586.834 730.77 584.192 739.077 577.161C747.261 570.234 752.702 560.175 756.277 550.211C759.99 539.866 761.599 528.727 761.046 517.754C760.005 497.088 751.188 477.93 736.329 463.58C720.518 448.31 699.871 438.767 678.964 432.71L679.324 435.463C701.337 423.769 721.995 409.568 740.746 393.14C758.638 377.466 775.839 358.552 780.556 334.449C784.639 313.585 777.225 289.81 757.419 279.592C747.73 274.593 736.579 273.498 725.841 274.294C714.047 275.169 702.298 278.019 691.094 281.725C678.227 285.981 665.746 291.86 655.239 300.519C650.648 304.303 646.391 308.461 641.795 312.24C637.923 315.425 633.411 319 631.908 323.996L634.813 324.797C642.503 295.692 648.57 265.715 647.831 235.468C647.651 228.087 647.044 220.72 645.986 213.412C645.098 207.283 643.986 201.102 641.663 195.331C639.65 190.331 636.723 185.657 632.381 182.364C627.691 178.807 621.816 177.043 615.951 177.164C601.641 177.459 589.164 187.135 580.41 197.673C579.179 199.154 581.299 201.297 582.539 199.803Z" fill="#FF008C"/>
<path d="M367.61 536.081C366.743 540.765 365.744 545.422 364.552 550.037C363.338 554.739 361.703 559.721 357.809 562.625C355.109 564.639 351.494 565.373 348.222 564.572C341.769 562.992 337.256 555.91 335.372 550.038C331.156 536.897 330.772 522.596 334.02 509.199C336.795 497.754 341.774 482.705 350.318 474.255C354.15 470.465 358.898 467.76 363.586 465.101C364.709 464.463 365.864 463.815 367.14 463.615C379.234 461.724 372.643 500.142 372.003 505.378C370.749 515.639 369.49 525.923 367.61 536.081Z" fill="#FF008C"/>
<path d="M366.154 535.681C365.189 540.863 364.116 546.049 362.696 551.128C361.612 555.006 360.065 559.34 356.549 561.672C352.884 564.102 348.352 563.793 344.797 561.358C341.656 559.207 339.427 555.804 337.874 552.389C335.968 548.196 334.99 543.441 334.262 538.917C333.468 533.985 333.218 528.958 333.435 523.969C333.827 514.946 336.022 506.093 338.945 497.575C341.589 489.869 345.069 481.905 350.769 475.941C354.017 472.543 358.016 470.038 362.061 467.703C363.068 467.122 364.072 466.529 365.097 465.98C365.615 465.702 366.138 465.435 366.703 465.262C367.131 465.131 367.426 465.078 367.649 465.065C367.836 465.054 368.02 465.055 368.207 465.06C368.576 465.071 368.113 465.012 368.463 465.088C368.631 465.124 368.793 465.168 368.956 465.22C369.274 465.323 368.874 465.138 369.229 465.344C369.634 465.579 370.178 466.074 370.412 466.41C370.908 467.12 371.23 467.828 371.47 468.509C372.18 470.523 372.492 472.666 372.666 474.786C373.104 480.096 372.787 485.469 372.303 490.765C371.918 494.977 371.381 499.05 370.796 503.167C369.624 511.41 368.769 519.691 367.476 527.919C367.069 530.512 366.629 533.1 366.154 535.681C365.805 537.576 368.707 538.388 369.059 536.482C370.099 530.832 370.955 525.153 371.723 519.46C372.114 516.56 372.484 513.658 372.845 510.754C373.007 509.451 373.167 508.148 373.326 506.844C373.39 506.322 373.455 505.799 373.518 505.277C373.543 505.069 373.565 504.924 373.522 505.243C374.085 501.094 374.69 496.953 375.118 492.787C375.7 487.124 376.11 481.383 375.745 475.692C375.488 471.687 375.038 466.177 371.687 463.399C369.923 461.937 367.622 461.734 365.496 462.495C363.157 463.334 360.964 464.831 358.838 466.099C356.662 467.397 354.54 468.779 352.537 470.334C345.35 475.914 340.944 484.054 337.657 492.379C330.339 510.916 327.389 532.031 334.175 551.204C336.816 558.668 343.121 567.213 352.028 566.339C362.925 565.27 365.41 553.49 367.385 544.688C367.996 541.963 368.548 539.226 369.059 536.482C369.411 534.587 366.508 533.774 366.154 535.681Z" fill="#FF008C"/>
<path d="M617.11 472.467C574.129 492.837 526.301 502.097 478.738 502.279C431.176 502.462 383.834 493.74 338.442 479.534C333.648 495.931 328.853 512.328 324.058 528.725C323.749 529.782 323.451 530.968 323.969 531.939C324.447 532.836 325.474 533.266 326.424 533.627C360.174 546.484 394.682 557.623 430.408 563.004C479.117 570.342 527.928 571.664 576.67 564.555C598.669 561.347 620.17 554.753 640.185 545.075" fill="white"/>
<path d="M616.347 471.166C583.493 486.696 547.77 495.758 511.644 499.172C474.54 502.678 437.036 500.252 400.433 493.485C379.606 489.635 359.053 484.396 338.84 478.081C338.055 477.836 337.21 478.373 336.988 479.133C333.362 491.531 329.737 503.929 326.112 516.327C325.205 519.426 324.299 522.526 323.393 525.625C322.721 527.92 321.361 530.829 322.903 533.056C324.319 535.102 327.758 535.743 329.94 536.564C332.742 537.618 335.55 538.659 338.362 539.685C361.671 548.186 385.408 555.663 409.706 560.78C434.581 566.019 460.098 568.83 485.471 570.112C511.208 571.412 537.053 570.772 562.666 567.874C574.88 566.492 587.029 564.67 598.958 561.658C610.522 558.739 621.829 554.863 632.771 550.12C635.521 548.929 638.243 547.677 640.943 546.376C642.688 545.535 641.162 542.937 639.422 543.775C618.198 554.002 595.542 560.5 572.223 563.674C547.312 567.064 522.112 568.252 496.987 567.552C471.89 566.852 446.677 564.489 421.949 560.098C398.292 555.898 375.129 549.282 352.425 541.481C346.763 539.536 341.125 537.515 335.51 535.438C332.702 534.4 329.893 533.363 327.102 532.282C326.639 532.103 325.927 531.913 325.561 531.538C325.011 530.973 325.215 530.273 325.379 529.585C325.751 528.018 326.284 526.473 326.736 524.926C330.244 512.928 333.753 500.931 337.261 488.933L339.892 479.934L338.04 480.986C374.516 492.382 412.191 500.263 450.359 502.862C487.034 505.36 524.133 502.841 559.898 494.167C579.846 489.33 599.307 482.541 617.867 473.768C619.619 472.94 618.092 470.341 616.347 471.166Z" fill="#FF008C"/>
<path d="M306.819 403.182C310.58 397.988 317.2 393.291 323.003 396.02C325.894 397.379 327.742 400.287 328.966 403.237C335.435 418.833 330.197 436.561 340.24 451.3C341.397 452.999 342.755 454.699 343.005 456.739C343.15 457.916 342.907 459.102 342.665 460.263C337.627 484.464 332.589 508.665 327.55 532.867C325.971 540.45 326.681 551.88 317.258 552.787C308.5 553.63 298.022 553.234 289.314 552.17C274.389 550.347 258.847 544.145 247.507 534.144C235.765 523.79 225.833 512.166 231.353 495.617C231.597 494.888 231.869 494.111 231.665 493.37C231.49 492.737 230.997 492.249 230.524 491.794C225.706 487.162 220.522 480.696 219.832 473.813C219.205 467.564 222.616 460.772 228.519 458.628C225.357 454.326 222.352 449.386 222.738 444.06C223.124 438.735 228.557 433.6 233.548 435.494C230.813 429.807 228.655 423.096 229.558 416.757C229.999 413.657 231.042 410.559 233.092 408.191C237.11 403.549 244.202 402.7 250.111 404.369C256.02 406.038 261.096 409.751 266.215 413.141C275.61 419.36 286.343 426.001 297.015 429.497C299.828 419.856 300.791 411.506 306.819 403.182Z" fill="#84FF20"/>
<path d="M310.595 557.363C311.067 557.569 311.682 557.803 312.55 558.218C318.588 561.109 325.04 563.184 331.633 564.346C338.287 565.519 344.946 566.736 351.701 565.516C344.234 550.206 347.542 529.203 350.905 513.205C353.725 499.792 356.172 486.003 362.706 473.801C364.737 470.007 367.127 466.307 370.464 463.59C364.791 460.565 358.104 459.088 352.109 456.782C346.394 454.585 340.603 453.743 335.477 457.728C331.576 460.761 329.023 465.177 326.766 469.573C316.94 488.714 310.89 509.77 308.94 531.192C308.453 536.548 308.221 541.927 308.251 547.305C308.262 549.294 307.652 553.041 308.452 554.85C309.225 556.598 309.575 556.917 310.595 557.363Z" fill="#84FF20"/>
<path d="M353 564.756C347.254 552.815 348.148 538.514 350.101 525.778C351.112 519.187 352.537 512.667 353.908 506.144C355.416 498.973 357.046 491.801 359.495 484.883C362.054 477.653 365.495 469.669 371.527 464.654C373.019 463.414 370.878 461.293 369.397 462.524C363.843 467.142 360.486 474.154 357.852 480.73C355.013 487.819 353.175 495.256 351.565 502.705C348.615 516.357 345.404 530.27 345.699 544.323C345.857 551.867 347.106 559.434 350.398 566.276C351.239 568.023 353.837 566.497 353 564.756Z" fill="#FF008C"/>
<path d="M342.69 453.255C339.523 452.798 336.29 455.284 333.985 457.225C331.693 459.155 329.798 461.53 328.18 464.041C324.354 469.975 321.523 476.694 318.905 483.23C313.388 497.009 309.739 511.49 307.957 526.221C307.44 530.498 307.086 534.794 306.898 539.098C306.701 543.596 306.171 548.193 306.459 552.69C306.582 554.615 309.596 554.629 309.471 552.69C309.223 548.823 309.712 544.942 309.835 541.078C309.955 537.324 310.201 533.573 310.572 529.835C311.261 522.883 312.401 515.978 313.959 509.168C317.089 495.483 321.876 482.081 328.418 469.649C329.914 466.807 331.587 464.02 333.756 461.634C334.776 460.512 335.891 459.459 337.121 458.567C337.784 458.086 338.474 457.642 339.186 457.237C339.912 456.824 341.014 456.034 341.889 456.16C342.701 456.277 343.498 455.96 343.742 455.108C343.945 454.402 343.494 453.371 342.69 453.255Z" fill="#FF008C"/>
<path d="M233.273 437.291C236.476 441.692 240.922 444.987 246.088 446.72C246.859 446.979 247.733 446.422 247.94 445.668C248.166 444.846 247.662 444.075 246.888 443.816C242.536 442.355 238.587 439.498 235.874 435.771C235.396 435.114 234.566 434.79 233.814 435.23C233.165 435.609 232.792 436.63 233.273 437.291Z" fill="#FF008C"/>
<path d="M227.253 460.099C232.301 466.07 238.664 470.901 245.774 474.154C246.513 474.492 247.395 474.364 247.834 473.613C248.213 472.965 248.037 471.893 247.294 471.553C240.386 468.392 234.288 463.771 229.383 457.969C228.13 456.487 226.008 458.627 227.253 460.099Z" fill="#FF008C"/>
<path d="M231.292 495.933C235.533 500.294 240.539 503.902 246.031 506.519C246.765 506.869 247.657 506.722 248.091 505.979C248.476 505.322 248.288 504.27 247.551 503.918C242.272 501.402 237.499 497.996 233.422 493.803C232.068 492.411 229.939 494.542 231.292 495.933Z" fill="#FF008C"/>
<path d="M297.786 439.054C297.352 430.903 298.233 422.638 300.687 414.84C301.883 411.039 303.48 407.369 305.606 403.994C307.776 400.55 310.633 397.131 314.55 395.655C318.164 394.293 322.154 394.745 324.901 397.592C327.271 400.047 328.369 403.502 329.088 406.761C329.987 410.833 330.354 415.028 330.867 419.161C331.428 423.676 332.009 428.195 332.882 432.662C333.856 437.641 335.196 442.594 337.281 447.232C338.866 450.761 341.692 454.431 345.927 454.392C347.864 454.374 347.869 451.361 345.927 451.379C341.999 451.416 340.1 446.463 338.963 443.432C337.288 438.969 336.193 434.312 335.374 429.623C334.557 424.948 334.018 420.233 333.43 415.526C332.93 411.532 332.531 407.464 331.387 403.59C330.402 400.258 328.827 396.848 326.092 394.594C322.89 391.954 318.694 391.29 314.734 392.424C306.51 394.78 301.676 403.519 298.844 410.975C295.476 419.84 294.27 429.611 294.774 439.054C294.877 440.982 297.89 440.994 297.786 439.054Z" fill="#FF008C"/>
<path d="M313.658 276.199C319.38 282.938 325.111 289.819 328.52 298.071C331.135 304.4 333.644 313.958 327.882 319.38C325.168 321.933 320.902 323.12 317.473 321.332C316.168 320.652 314.626 322.046 315.412 323.393C318.062 327.932 319.857 333.616 317.999 338.785C316.531 342.868 312.169 346.446 307.655 345.652C306.383 345.428 305.287 346.645 305.955 347.865C308.384 352.306 309.629 357.747 307.798 362.636C306.317 366.59 302.585 369.873 298.269 370.06C297.271 370.103 296.583 370.986 296.817 371.967C297.888 376.457 299.257 381.74 297.1 386.13C295.408 389.573 291.864 391.922 288.055 390.28C284.936 388.935 282.799 386.08 280.364 383.826C278.011 381.647 275.577 379.557 273.164 377.445C270.811 375.385 268.374 373.367 266.2 371.112C264.852 369.714 262.724 371.846 264.07 373.242C268.654 377.996 274.027 381.967 278.821 386.504C281.722 389.25 284.427 392.618 288.504 393.597C292.922 394.658 297.036 392.195 299.268 388.443C302.416 383.152 301.064 376.79 299.721 371.166L298.269 373.072C303.725 372.836 308.359 369.064 310.432 364.116C312.862 358.315 311.479 351.687 308.556 346.344L306.855 348.557C312.653 349.577 318.185 345.874 320.488 340.62C323.184 334.47 321.246 327.41 318.013 321.872L315.953 323.933C319.562 325.814 323.789 325.465 327.298 323.508C330.944 321.475 333.296 317.865 334.01 313.786C335.538 305.07 331.495 295.787 326.95 288.555C323.702 283.385 319.732 278.713 315.788 274.069C314.532 272.589 312.41 274.729 313.658 276.199Z" fill="#FF008C"/>
<path d="M345.194 311.844C341.113 317.911 338.694 324.898 338.025 332.17L339.531 330.664C334.71 330.391 330.2 332.631 327.286 336.426C326.787 337.076 327.191 338.106 327.827 338.487C328.598 338.949 329.395 338.588 329.887 337.946C332.157 334.99 335.855 333.468 339.531 333.676C340.397 333.725 340.966 332.943 341.038 332.17C341.658 325.427 344.021 318.975 347.795 313.364C348.88 311.751 346.271 310.242 345.194 311.844Z" fill="#FF008C"/>
<path d="M292.497 330.097C296.879 334.59 300.998 339.342 304.789 344.344C305.28 344.992 306.088 345.33 306.85 344.885C307.487 344.512 307.885 343.476 307.39 342.824C303.442 337.614 299.192 332.647 294.627 327.967C293.271 326.577 291.141 328.708 292.497 330.097Z" fill="#FF008C"/>
<path d="M304.004 305.895C307.109 308.82 309.919 312.035 312.338 315.467C312.806 316.131 313.654 316.443 314.398 316.007C315.055 315.623 315.41 314.615 314.939 313.947C312.347 310.27 309.409 306.85 306.134 303.765C305.543 303.207 304.592 303.178 304.004 303.765C303.441 304.328 303.41 305.335 304.004 305.895Z" fill="#FF008C"/>
<path d="M281.353 356.221C283.882 359.002 285.973 362.11 287.654 365.575C288.009 366.307 289.052 366.504 289.715 366.116C290.462 365.679 290.612 364.789 290.255 364.055C288.494 360.426 286.196 357.074 283.483 354.091C282.935 353.489 281.909 353.535 281.353 354.091C280.754 354.69 280.804 355.618 281.353 356.221Z" fill="#FF008C"/>
<path d="M523.922 404.749C531.934 400.019 537.111 390.313 538.206 381.378C538.261 380.924 538.298 380.424 538.039 380.048C537.745 379.622 537.179 379.502 536.668 379.419C521.223 376.905 505.341 377.096 489.961 379.982C490.341 388.647 490.57 397.781 497.985 403.676C505.187 409.401 515.999 409.425 523.922 404.749Z" fill="#FF008C"/>
<path d="M524.682 406.049C532.678 401.242 537.916 392.277 539.451 383.195C539.623 382.175 539.934 380.97 539.634 379.95C539.279 378.746 538.218 378.19 537.068 377.967C534.099 377.39 531.039 377.084 528.03 376.793C522.009 376.209 515.948 376.029 509.903 376.253C503.077 376.505 496.275 377.282 489.56 378.53C488.94 378.645 488.427 379.366 488.454 379.982C488.762 387.028 488.947 394.761 493.184 400.747C497.557 406.927 505.105 409.946 512.548 409.604C516.815 409.407 520.986 408.191 524.682 406.049C526.358 405.078 524.844 402.473 523.161 403.448C517.418 406.776 510.294 407.608 504.014 405.341C497.596 403.024 493.79 397.584 492.47 391.068C491.732 387.424 491.628 383.685 491.466 379.982L490.361 381.434C501.02 379.454 511.899 378.775 522.723 379.395C525.38 379.548 528.033 379.779 530.677 380.088C531.905 380.232 533.131 380.393 534.354 380.574C534.991 380.669 535.635 380.749 536.267 380.871C537.012 381.015 536.756 380.961 536.658 381.684C536.113 385.716 534.716 389.68 532.734 393.223C530.421 397.355 527.241 400.995 523.161 403.448C521.502 404.446 523.014 407.052 524.682 406.049Z" fill="#FF008C"/>
<path d="M509.55 380.333C505.23 386.6 501.219 393.073 497.53 399.73C496.589 401.428 499.19 402.949 500.131 401.251C503.82 394.593 507.831 388.12 512.151 381.853C513.254 380.253 510.644 378.745 509.55 380.333Z" fill="white"/>
<path d="M520.989 381.052C518.069 385.286 515.149 389.521 512.229 393.755C511.767 394.425 512.104 395.427 512.769 395.816C513.517 396.253 514.367 395.947 514.83 395.276C517.75 391.041 520.67 386.807 523.59 382.573C524.052 381.903 523.715 380.901 523.05 380.512C522.303 380.075 521.452 380.381 520.989 381.052Z" fill="white"/>
<path d="M582.156 404.749C590.168 400.019 595.345 390.313 596.44 381.378C596.496 380.924 596.533 380.424 596.273 380.048C595.979 379.622 595.413 379.502 594.903 379.419C579.458 376.905 563.576 377.096 548.195 379.982C548.575 388.647 548.804 397.781 556.219 403.676C563.421 409.401 574.234 409.425 582.156 404.749Z" fill="#FF008C"/>
<path d="M582.916 406.049C590.912 401.242 596.151 392.277 597.685 383.195C597.857 382.175 598.169 380.97 597.868 379.95C597.513 378.746 596.453 378.19 595.303 377.967C592.333 377.39 589.273 377.084 586.265 376.793C580.243 376.209 574.183 376.029 568.137 376.253C561.311 376.505 554.509 377.282 547.794 378.53C547.174 378.645 546.662 379.366 546.689 379.982C546.996 387.028 547.182 394.761 551.418 400.747C555.791 406.927 563.339 409.946 570.782 409.604C575.05 409.407 579.22 408.191 582.916 406.049C584.593 405.078 583.078 402.473 581.396 403.448C575.652 406.776 568.529 407.608 562.249 405.341C555.83 403.024 552.024 397.584 550.705 391.068C549.967 387.424 549.862 383.685 549.701 379.982L548.595 381.434C559.254 379.454 570.133 378.775 580.957 379.395C583.615 379.548 586.268 379.779 588.911 380.088C590.14 380.232 591.365 380.393 592.589 380.574C593.226 380.669 593.869 380.749 594.502 380.871C595.246 381.015 594.99 380.961 594.892 381.684C594.347 385.716 592.951 389.68 590.968 393.223C588.656 397.355 585.476 400.995 581.396 403.448C579.736 404.446 581.249 407.052 582.916 406.049Z" fill="#FF008C"/>
<path d="M567.784 380.333C563.464 386.6 559.453 393.073 555.764 399.73C554.824 401.428 557.424 402.949 558.365 401.251C562.054 394.593 566.065 388.12 570.385 381.853C571.488 380.253 568.878 378.745 567.784 380.333Z" fill="white"/>
<path d="M579.232 381.052C576.311 385.286 573.391 389.521 570.471 393.755C570.009 394.425 570.347 395.427 571.012 395.816C571.759 396.253 572.609 395.947 573.072 395.276C575.992 391.041 578.912 386.807 581.832 382.573C582.294 381.903 581.957 380.901 581.292 380.512C580.545 380.075 579.695 380.381 579.232 381.052Z" fill="white"/>
<path d="M541.352 379.198C546.136 379.175 551.752 378.81 556.442 379.585C562.333 380.559 560.806 381.978 560.258 386.386C560.213 386.75 560.124 387.168 559.702 387.357C559.418 387.484 559.061 387.468 558.73 387.447C550.207 386.925 541.64 386.789 533.095 387.042C533.333 385.631 532.481 380.709 533.568 379.746C534.756 378.693 539.595 379.21 541.352 379.198Z" fill="#FF008C"/>
<path d="M541.352 380.704C545.961 380.673 550.63 380.328 555.217 380.916C556.417 381.07 558.409 381.295 559.225 381.972C559.363 382.086 559.338 382.127 559.342 382.368C559.352 382.839 559.266 383.221 559.185 383.679C559.066 384.351 558.944 385.021 558.844 385.696C558.825 385.887 558.796 386.076 558.759 386.264C559.188 385.984 559.179 385.876 558.73 385.941C558.34 385.711 557.224 385.852 556.763 385.827C554.137 385.685 551.509 385.579 548.88 385.51C543.619 385.371 538.356 385.385 533.095 385.535L534.602 387.042C534.75 385.936 534.582 384.778 534.536 383.67C534.509 383.002 534.487 382.33 534.526 381.663C534.538 381.474 534.574 381.281 534.586 381.096C534.596 380.92 534.845 380.551 534.571 380.843C534.354 381.073 534.693 380.82 534.836 380.793C535.039 380.753 535.236 380.7 535.442 380.671C536.138 380.574 536.862 380.584 537.564 380.588C538.827 380.597 540.089 380.701 541.352 380.704C543.291 380.708 543.294 377.696 541.352 377.691C539.826 377.688 538.304 377.547 536.777 377.581C535.373 377.613 533.515 377.654 532.454 378.733C531.459 379.745 531.479 381.471 531.497 382.785C531.516 384.186 531.776 385.648 531.589 387.042C531.483 387.835 532.365 388.569 533.095 388.548C537.945 388.409 542.797 388.386 547.648 388.493C550.031 388.545 552.413 388.627 554.794 388.74C555.943 388.794 557.091 388.859 558.239 388.924C559.23 388.98 560.27 389.003 561.026 388.241C561.929 387.332 561.897 385.575 562.11 384.371C562.282 383.395 562.493 382.349 562.236 381.366C561.536 378.701 558.095 378.291 555.83 377.984C551.032 377.335 546.176 377.659 541.352 377.691C539.415 377.704 539.41 380.717 541.352 380.704Z" fill="#FF008C"/>
<path d="M581.785 610.683C580.128 631.251 579.539 651.902 580.04 672.532C580.543 693.241 582.134 713.924 584.808 734.466C586.305 745.959 588.13 757.406 590.29 768.793C590.651 770.695 593.555 769.89 593.195 767.992C589.358 747.77 586.578 727.355 584.884 706.841C583.193 686.358 582.57 665.787 583.021 645.239C583.274 633.706 583.871 622.181 584.797 610.683C584.953 608.75 581.94 608.76 581.785 610.683Z" fill="#FF008C"/>
<path d="M613.948 768.444C612.791 740.347 611.636 712.247 611.072 684.131C610.509 656.125 610.532 628.098 611.729 600.108C612.403 584.346 613.454 568.6 614.97 552.897C615.156 550.968 612.143 550.981 611.958 552.897C609.259 580.853 608.049 608.934 607.769 637.015C607.49 665.046 608.127 693.078 609.092 721.092C609.637 736.879 610.285 752.662 610.935 768.445C611.015 770.376 614.028 770.386 613.948 768.444Z" fill="#FF008C"/>
<path d="M630.84 768.408C629.639 742.496 629.392 716.541 630.112 690.61C630.833 664.68 632.515 638.777 635.156 612.972C636.646 598.407 638.444 583.874 640.547 569.384C640.822 567.488 637.92 566.669 637.642 568.583C633.897 594.388 631.091 620.327 629.267 646.339C627.441 672.379 626.585 698.487 626.707 724.591C626.774 739.202 627.151 753.812 627.828 768.408C627.917 770.338 630.93 770.349 630.84 768.408Z" fill="#FF008C"/>
<path d="M472.83 752.661C480.575 737.668 488.321 722.676 496.066 707.683C503.773 692.764 511.48 677.845 519.187 662.927C523.575 654.433 527.962 645.94 532.35 637.446C533.238 635.727 530.64 634.201 529.749 635.926C522.004 650.919 514.259 665.911 506.513 680.904C498.806 695.823 491.099 710.742 483.392 725.661C479.005 734.154 474.617 742.647 470.229 751.141C469.341 752.861 471.939 754.386 472.83 752.661Z" fill="#FF008C"/>
<path d="M451.879 749.217C458.399 734.053 465.121 718.975 472 703.97C479.075 688.539 486.317 673.183 493.76 657.926C497.747 649.753 501.794 641.609 505.918 633.504C506.795 631.78 504.197 630.253 503.317 631.983C495.831 646.695 488.594 661.532 481.523 676.446C474.249 691.786 467.152 707.209 460.232 722.71C456.525 731.015 452.87 739.342 449.278 747.697C448.52 749.459 451.114 750.995 451.879 749.217Z" fill="#FF008C"/>
<path d="M434.819 732.151C446.754 702.957 460.141 674.357 474.906 646.486C479.057 638.65 483.319 630.873 487.685 623.155C488.641 621.465 486.04 619.945 485.084 621.634C477.288 635.417 469.828 649.39 462.723 663.541C455.582 677.763 448.795 692.164 442.373 706.724C438.773 714.884 435.289 723.095 431.914 731.35C431.181 733.143 434.094 733.924 434.819 732.151Z" fill="#FF008C"/>
<path d="M360.231 195.683C358.401 199.019 371.166 218.87 374.103 221.399C372.587 224.183 369.436 225.554 366.864 227.406C361.916 230.969 358.785 236.932 358.661 243.027C357.203 233.514 351.644 224.7 343.688 219.285C351.107 214.687 356.14 203.142 360.231 195.683Z" fill="#84FF20"/>
<path d="M295.365 175.355C295.999 178.473 297.485 181.419 298.946 184.277C301.701 189.668 304.456 195.058 307.211 200.448C307.367 200.753 307.526 201.069 307.547 201.411C307.591 202.113 307.061 202.703 306.576 203.212C300.273 209.823 295.054 217.744 294.864 227.085C293.262 216.638 287.159 206.961 278.422 201.015C280.623 202.513 286.453 191.845 287.208 190.278C289.976 184.534 292.977 179.109 295.065 173.04C295.106 173.822 295.21 174.594 295.365 175.355Z" fill="#84FF20"/>
<path d="M659.021 738.818C658.649 728.78 662.901 718.904 670.204 712.047C672.046 710.317 674.071 708.807 676.258 707.542C677.963 706.555 680.965 704.604 682.461 706.836C683.533 708.434 683.425 710.804 683.198 712.624C682.823 715.624 682.213 718.614 681.537 721.558C679.953 728.449 677.692 735.183 674.782 741.628C674.111 743.112 675.851 744.732 677.147 743.453C680.061 740.578 683.139 737.864 686.399 735.384C687.954 734.201 689.534 733.015 691.196 731.985C692.632 731.095 694.668 729.98 696.346 730.892C697.776 731.67 698.442 733.532 698.817 735.016C699.253 736.741 699.274 738.589 698.973 740.339C698.351 743.963 696.563 747.238 694.177 750.002C691.391 753.228 687.99 755.837 684.608 758.4L686.433 760.766C691.016 756.956 697.789 751.655 703.97 755.376C706.866 757.12 707.588 760.761 707.531 763.906C707.476 766.938 706.578 769.924 705.055 772.538C703.297 775.555 700.744 777.971 697.623 779.534C696.122 780.286 697.185 782.925 698.784 782.287C702.762 780.699 706.8 784.081 707.892 787.831C709.386 792.965 706.327 798.372 703.634 802.529L706.235 804.05C709.891 797.681 718.344 796.195 724.268 800.235C729.838 804.034 733.022 813.221 727.428 818.407C726.004 819.728 728.138 821.854 729.558 820.537C734.758 815.716 734.143 807.322 730.213 801.932C726.15 796.361 719.064 793.488 712.358 795.615C708.71 796.772 705.545 799.2 703.634 802.529C702.663 804.221 705.185 805.67 706.235 804.05C709.535 798.956 712.915 792.185 710.452 786.051C708.556 781.329 703.172 777.311 697.983 779.382L699.143 782.135C705.761 778.82 710.173 771.811 710.527 764.444C710.713 760.568 709.793 756.139 706.634 753.588C703.826 751.322 700.041 750.806 696.57 751.463C691.821 752.363 687.913 755.635 684.303 758.636C683.004 759.716 684.762 762.037 686.129 761.001C692.945 755.835 700.446 749.936 701.912 740.941C702.544 737.07 702.097 732.247 699.184 729.314C695.667 725.774 690.986 728.4 687.666 730.742C683.166 733.915 678.936 737.456 675.017 741.323L677.382 743.149C680.276 736.741 682.596 730.093 684.231 723.253C685.046 719.849 685.722 716.395 686.17 712.923C686.475 710.561 686.414 707.977 685.332 705.804C682.291 699.7 674.881 704.512 671.2 707.295C666.661 710.727 662.912 715.171 660.29 720.224C657.32 725.945 655.769 732.365 656.008 738.817C656.08 740.75 659.093 740.759 659.021 738.818Z" fill="#FF008C"/>
<path d="M667.227 803.272C667.252 803.233 667.28 803.194 667.305 803.154C667.427 802.955 667.192 803.297 667.195 803.29C667.219 803.219 667.327 803.133 667.378 803.08C667.441 803.013 667.508 802.948 667.577 802.887C667.611 802.857 667.652 802.829 667.683 802.797C667.4 803.084 667.48 802.948 667.6 802.866C667.753 802.76 667.914 802.667 668.081 802.586C668.111 802.572 668.181 802.528 668.208 802.528C668.217 802.528 667.82 802.674 668.043 802.6C668.143 802.567 668.241 802.53 668.342 802.501C668.432 802.475 668.523 802.452 668.615 802.432C668.677 802.419 669.038 802.363 668.727 802.404C668.416 802.446 668.802 802.402 668.877 802.398C668.983 802.392 669.088 802.391 669.194 802.394C669.288 802.396 669.381 802.404 669.474 802.411C669.807 802.435 669.095 802.335 669.421 802.406C669.614 802.447 669.805 802.492 669.992 802.559C670.333 802.681 669.741 802.431 669.953 802.54C670.035 802.583 670.119 802.623 670.199 802.669C670.279 802.716 670.355 802.769 670.433 802.819C670.631 802.944 670.287 802.707 670.296 802.709C670.335 802.719 670.426 802.819 670.455 802.846C670.524 802.91 670.591 802.977 670.654 803.047C670.672 803.068 670.743 803.135 670.745 803.154C670.746 803.163 670.509 802.82 670.637 803.015C670.747 803.181 670.846 803.346 670.935 803.524C671.081 803.814 670.816 803.176 670.915 803.485C670.944 803.574 670.974 803.661 670.998 803.751C671.023 803.841 671.043 803.932 671.061 804.023C671.07 804.069 671.076 804.115 671.085 804.161C671.12 804.341 671.046 803.758 671.061 804.004C671.073 804.191 671.083 804.377 671.074 804.565C671.07 804.641 671.027 805.026 671.069 804.716C671.11 804.412 671.051 804.79 671.036 804.863C671.01 804.977 670.98 805.091 670.945 805.202C670.924 805.271 670.787 805.621 670.902 805.352C671.017 805.082 670.864 805.426 670.831 805.489C670.777 805.592 670.719 805.692 670.655 805.789C670.63 805.828 670.603 805.866 670.577 805.904C670.446 806.103 670.783 805.663 670.665 805.793C670.595 805.87 670.53 805.951 670.457 806.025C670.403 806.08 670.275 806.245 670.199 806.259C670.189 806.26 670.534 806.023 670.336 806.15C670.277 806.188 670.219 806.228 670.159 806.266C669.491 806.682 669.17 807.63 669.619 808.327C670.051 808.996 670.965 809.313 671.68 808.867C673.692 807.613 674.627 804.89 673.809 802.652C673.388 801.501 672.602 800.474 671.474 799.939C670.325 799.395 669.093 799.262 667.849 799.52C666.525 799.794 665.352 800.618 664.626 801.752C664.201 802.417 664.467 803.443 665.167 803.813C665.913 804.207 666.773 803.982 667.227 803.272Z" fill="#FF008C"/>
<path d="M289.64 807.035C285.59 801.136 283.287 794.151 283.203 786.982C283.187 785.658 282.809 783.202 284.708 783.311C285.982 783.384 287.231 783.897 288.29 784.588C290.408 785.97 291.798 788.271 292.813 790.53C294.097 793.388 294.82 796.5 295.384 799.57L298.289 798.769C296.818 791.978 298.255 784.217 302.614 778.7C303.51 777.565 304.764 776.285 306.281 776.115C307.79 775.945 308.961 777.079 309.707 778.256C311.571 781.199 312.254 785.142 312.532 788.56C312.895 793.024 312.359 797.463 310.977 801.721C310.509 803.16 312.474 804.25 313.494 803.186C316.689 799.856 322.08 798.773 326.219 800.98C330.335 803.175 332.599 808.181 331.606 812.722C331.193 814.612 334.097 815.419 334.511 813.523C335.782 807.709 333.079 801.216 327.74 798.379C322.421 795.554 315.518 796.726 311.364 801.056L313.882 802.521C315.314 798.109 315.909 793.414 315.563 788.785C315.254 784.651 314.473 779.752 312.009 776.294C309.638 772.965 305.706 772.114 302.389 774.689C299.19 777.174 297.182 781.377 295.995 785.159C294.532 789.821 294.352 794.802 295.384 799.57C295.797 801.479 298.635 800.656 298.289 798.769C297.174 792.694 295.202 785.276 289.562 781.83C286.869 780.184 282.007 779.085 280.605 782.885C279.929 784.718 280.141 786.986 280.264 788.899C280.404 791.086 280.724 793.273 281.223 795.407C282.32 800.101 284.313 804.584 287.039 808.555C288.129 810.144 290.741 808.639 289.64 807.035Z" fill="#FF008C"/>
<path d="M490.668 364.232C498.207 357.351 508.223 353.536 518.423 353.598C520.362 353.61 520.364 350.597 518.423 350.586C507.418 350.519 496.661 354.688 488.538 362.102C487.103 363.412 489.238 365.537 490.668 364.232Z" fill="#FF008C"/>
<path d="M600.836 358.706C590.318 348.84 574.682 345.133 560.866 349.32C559.016 349.881 559.805 352.789 561.667 352.225C574.451 348.351 588.953 351.687 598.706 360.836C600.119 362.162 602.254 360.036 600.836 358.706Z" fill="#FF008C"/>
<path d="M536.75 367.309C536.171 383.93 536.039 400.564 536.353 417.192C536.39 419.128 539.402 419.134 539.366 417.192C539.051 400.564 539.184 383.93 539.762 367.309C539.83 365.37 536.817 365.373 536.75 367.309Z" fill="#FF008C"/>
<path d="M538.539 425.756C534.441 425.449 530.321 423.513 526.193 423.944C521.67 424.415 518.336 427.376 517.887 431.986C517.033 440.756 523.635 448.802 531.379 451.993C539.919 455.513 551.167 454.404 558.592 448.782C562.043 446.17 564.657 442.66 566.262 438.647C567.806 434.786 568.65 429.772 566.967 425.825C564.999 421.214 559.64 420.063 555.152 421.142C549.813 422.425 544.695 427.097 538.939 425.809C537.051 425.387 536.244 428.29 538.138 428.714C542.544 429.7 546.62 427.96 550.544 426.128C553.913 424.557 558.096 422.64 561.767 424.451C565.329 426.208 565.143 430.904 564.45 434.237C563.695 437.872 561.948 441.287 559.418 444.007C548.817 455.403 524.425 452.81 521.096 435.866C520.699 433.842 520.574 431.367 521.683 429.54C522.656 427.937 524.567 427.129 526.368 426.94C528.18 426.75 529.948 427.214 531.696 427.624C533.957 428.155 536.219 428.594 538.539 428.768C540.472 428.913 540.463 425.9 538.539 425.756Z" fill="#FF008C"/>
<path d="M520.213 440.754C527.544 443.2 535.987 443.929 543.652 443.037C545.564 442.814 547.485 442.486 549.203 441.568C549.96 441.163 550.622 440.626 551.221 440.017C551.369 439.844 551.525 439.68 551.689 439.522C550.981 439.295 550.787 439.369 551.105 439.743C551.203 440.076 551.594 440.493 551.838 440.723C553.473 442.26 556.045 440.796 557.788 440.199C560.307 439.335 562.825 438.471 565.344 437.607C567.167 436.982 566.384 434.071 564.543 434.702C562.182 435.512 559.821 436.322 557.459 437.132C556.399 437.496 555.259 438.065 554.154 438.266C553.589 438.369 553.942 438.555 553.559 437.979C553.313 437.609 553.058 437.275 552.689 437.021C550.968 435.835 549.789 437.386 548.57 438.396C547.194 439.536 545.204 439.849 543.483 440.044C536.103 440.882 528.07 440.204 521.013 437.85C519.17 437.235 518.38 440.143 520.213 440.754Z" fill="#FF008C"/>
</svg>
