<svg width="1000" height="1000" viewBox="0 0 1000 1000" fill="none" xmlns="http://www.w3.org/2000/svg">
<path d="M429.453 559.374C416.638 615.19 410.215 672.471 410.352 729.739C410.373 738.735 410.177 747.992 407.639 756.691C406.453 760.758 404.581 764.221 402.534 767.887C400.196 772.075 397.12 773.267 392.621 774.958C384.299 778.086 375.772 783.015 372.596 791.318C370.248 797.453 371.44 804.807 375.604 809.888C385.83 822.362 407.329 821.984 421.636 820.241C420.575 815.368 425 810.109 429.982 810.32C434.965 810.532 438.927 816.148 437.457 820.913C447.524 820.551 482.911 825.778 481.911 811.238C476.857 737.773 486.596 663.32 510.378 593.626" fill="white"/>
<path d="M428.037 558.985C422.673 582.387 418.428 606.037 415.302 629.842C412.172 653.683 410.18 677.674 409.341 701.705C409.133 707.649 408.995 713.596 408.929 719.543C408.863 725.445 408.977 731.352 408.806 737.251C408.64 743.026 408.15 748.814 406.733 754.429C406.08 757.014 405.199 759.501 404.044 761.904C402.942 764.196 401.803 766.704 400.248 768.729C397.705 772.04 393.359 773.018 389.695 774.556C385.437 776.343 381.339 778.566 377.84 781.611C374.437 784.572 371.705 788.434 370.572 792.841C369.403 797.389 369.899 802.267 371.82 806.536C375.299 814.265 383.433 818.705 391.303 820.731C399.348 822.802 407.852 822.906 416.09 822.262C417.941 822.117 419.789 821.927 421.632 821.704C422.623 821.585 423.238 820.869 423.044 819.851C422.268 815.785 426.113 811.316 430.317 811.807C434.291 812.271 437.105 816.751 436.042 820.524C435.79 821.416 436.502 822.408 437.453 822.377C442.187 822.22 446.955 822.705 451.684 822.875C457.654 823.09 463.678 823.146 469.605 822.287C474.033 821.646 479.398 820.385 482.056 816.415C483.531 814.211 483.405 811.807 483.24 809.274C482.887 803.874 482.615 798.468 482.423 793.059C481.653 771.425 482.155 749.746 483.912 728.169C485.658 706.721 488.652 685.379 492.873 664.278C497.12 643.05 502.601 622.07 509.297 601.483C510.109 598.988 510.94 596.499 511.786 594.015C512.395 592.228 509.568 591.46 508.963 593.237C502.086 613.419 496.369 633.991 491.856 654.83C487.385 675.474 484.088 696.374 481.967 717.39C479.825 738.602 478.898 759.937 479.201 781.255C479.275 786.503 479.425 791.749 479.649 796.992C479.765 799.696 479.9 802.398 480.056 805.1C480.186 807.358 480.488 809.655 480.463 811.917C480.444 813.66 479.701 815.078 478.317 816.213C476.751 817.498 474.62 818.223 472.637 818.726C467.179 820.11 461.387 820.143 455.79 820.056C450.531 819.975 445.285 819.572 440.028 819.449C439.17 819.429 438.311 819.421 437.453 819.449L438.865 821.302C440.448 815.682 436.18 809.364 430.317 808.879C424.093 808.365 419.096 814.732 420.221 820.629L421.632 818.776C413.768 819.726 405.701 820.134 397.83 819.035C390.083 817.953 382.037 815.281 376.852 809.112C373.861 805.554 372.534 800.793 372.942 796.193C373.341 791.687 375.705 787.668 378.923 784.582C382.166 781.471 386.182 779.238 390.282 777.463C394 775.854 398.167 774.871 401.196 772.021C402.873 770.444 403.938 768.405 405.019 766.403C406.263 764.1 407.416 761.742 408.321 759.282C410.218 754.125 411.009 748.538 411.434 743.083C411.872 737.455 411.798 731.811 411.812 726.17C411.826 720.223 411.911 714.275 412.066 708.329C412.678 684.886 414.388 661.472 417.181 638.188C420 614.697 423.943 591.34 428.97 568.221C429.584 565.398 430.215 562.579 430.86 559.763C431.281 557.929 428.459 557.146 428.037 558.985Z" fill="#FF008C"/>
<path d="M429.454 559.374C429.446 559.405 429.44 559.436 429.433 559.468C426.835 575.208 423.767 590.871 420.239 606.429C416.339 630.303 413.582 654.362 411.992 678.5C437.382 676.072 463.107 677.189 488.192 681.808C493.17 651.874 507.905 601.823 517.705 573.103L429.454 559.374Z" fill="#84FF20"/>
<path d="M440.292 769.44C439.938 769.47 439.661 769.496 439.47 769.519C438.806 769.599 437.98 769.602 437.653 769.019C437.418 768.6 437.572 768.08 437.718 767.623C439.866 760.897 439.119 753.121 435.018 747.373C429.533 739.683 414.815 736.004 407.773 743.923C404.895 747.16 405.048 751.989 405.216 756.317C405.581 765.749 401.295 771.697 392.619 774.959C384.298 778.087 375.772 783.015 372.596 791.317C370.248 797.453 371.44 804.807 375.604 809.887C385.83 822.362 407.329 821.984 421.636 820.24C420.575 815.367 425 810.108 429.982 810.32C434.965 810.532 438.927 816.148 437.457 820.913C447.524 820.55 482.911 825.778 481.911 811.238C480.904 796.605 480.495 781.934 480.656 767.268C480.657 767.188 446.931 768.881 440.292 769.44Z" fill="white"/>
<path d="M440.29 767.976C439.967 768.004 439.644 768.048 439.321 768.07C439.228 768.076 438.951 768.049 438.874 768.093L438.779 768.084C438.617 768.049 438.641 768.095 438.853 768.219L439.022 768.364C439.075 768.183 439.13 768.002 439.186 767.821C439.244 767.63 439.303 767.439 439.358 767.246C439.504 766.733 439.633 766.214 439.745 765.692C440.121 763.933 440.333 762.126 440.351 760.327C440.387 756.674 439.633 753.032 438.082 749.723C435.482 744.177 430.364 740.465 424.531 738.864C419.019 737.352 412.746 737.786 408.187 741.502C405.504 743.689 404.231 746.712 403.837 750.092C403.442 753.483 404.036 756.896 403.607 760.28C402.866 766.118 399.212 770.357 393.98 772.811C390.902 774.255 387.686 775.305 384.683 776.931C381.645 778.575 378.74 780.577 376.312 783.047C371.355 788.088 368.992 794.956 370.345 801.958C371.599 808.444 376.055 813.592 381.648 816.869C392.202 823.05 405.619 823.208 417.455 822.148C418.85 822.022 420.243 821.872 421.634 821.704C422.624 821.585 423.241 820.869 423.045 819.851C422.265 815.789 426.108 811.328 430.304 811.806C434.283 812.259 437.112 816.747 436.043 820.524C435.791 821.416 436.504 822.409 437.455 822.377C441.723 822.235 446.021 822.647 450.284 822.821C455.815 823.047 461.387 823.172 466.902 822.621C471.399 822.171 476.44 821.41 480.093 818.521C481.57 817.353 482.715 815.76 483.152 813.908C483.441 812.685 483.389 811.494 483.306 810.252C483.135 807.703 482.982 805.153 482.848 802.603C482.227 790.836 481.993 779.051 482.117 767.268C482.122 766.803 481.846 766.199 481.392 766.004C480.274 765.523 478.68 765.873 477.508 765.927C474.727 766.055 471.947 766.193 469.167 766.333C462.122 766.688 455.077 767.056 448.036 767.469C445.453 767.621 442.868 767.761 440.29 767.976C438.426 768.132 438.409 771.061 440.29 770.904C452.246 769.907 464.273 769.478 476.256 768.913C477.301 768.864 478.346 768.815 479.392 768.771C479.687 768.759 479.99 768.767 480.284 768.737C480.777 768.687 480.859 768.939 479.915 768.532L479.19 767.268C479.084 777.32 479.237 787.374 479.671 797.418C479.877 802.17 480.408 806.953 480.464 811.705C480.483 813.269 479.977 814.589 478.906 815.675C476.186 818.432 471.409 819.188 467.65 819.613C462.358 820.212 456.999 820.139 451.686 819.948C446.956 819.778 442.189 819.292 437.455 819.449L438.866 821.302C440.458 815.676 436.168 809.357 430.304 808.878C424.09 808.371 419.092 814.741 420.222 820.63L421.634 818.777C410.345 820.141 398.049 820.608 387.282 816.366C381.945 814.263 376.857 810.569 374.428 805.231C371.586 798.987 372.761 791.653 377.159 786.456C381.435 781.402 387.478 778.564 393.507 776.177C398.705 774.119 403.183 770.685 405.305 765.378C406.379 762.693 406.75 759.743 406.693 756.865C406.628 753.565 406.22 749.951 407.617 746.846C409.937 741.685 416.53 740.355 421.588 741.207C426.95 742.111 432.084 744.984 434.824 749.791C436.575 752.863 437.402 756.403 437.424 759.926C437.435 761.672 437.258 763.406 436.878 765.11C436.532 766.662 435.455 768.617 436.616 770.054C437.54 771.199 438.982 771.019 440.29 770.904C442.152 770.741 442.17 767.812 440.29 767.976Z" fill="#FF008C"/>
<path d="M397.79 799.236C397.289 798.801 397.167 798.083 397.082 797.425C396.581 793.558 396.234 789.642 395.091 785.914C393.965 782.239 391.835 778.874 389.029 776.428C381.954 779.578 375.315 784.211 372.596 791.318C370.248 797.453 371.44 804.807 375.604 809.888C385.83 822.362 407.329 821.984 421.636 820.241C420.575 815.368 425 810.109 429.982 810.32C434.965 810.532 438.927 816.148 437.457 820.913C447.524 820.551 482.911 825.778 481.911 811.238C481.604 806.777 481.359 802.311 481.163 797.844C454.018 798.453 426.873 799.064 399.728 799.673C399.05 799.689 398.303 799.681 397.79 799.236Z" fill="#FF008C"/>
<path d="M398.825 798.201C398.243 797.569 398.356 795.909 398.256 795.101C398.125 794.041 397.992 792.981 397.841 791.923C397.523 789.698 397.123 787.473 396.441 785.328C395.23 781.523 393.049 778.052 390.064 775.393C389.53 774.917 388.92 774.881 388.29 775.164C382.321 777.845 376.48 781.603 372.97 787.279C369.346 793.139 369.041 800.475 371.902 806.708C377.073 817.972 390.925 821.623 402.198 822.406C408.678 822.856 415.196 822.482 421.636 821.704C422.626 821.585 423.243 820.869 423.047 819.851C422.268 815.789 426.111 811.328 430.306 811.805C434.285 812.259 437.114 816.747 436.045 820.524C435.793 821.416 436.506 822.408 437.457 822.377C440.745 822.267 444.052 822.534 447.335 822.689C451.733 822.898 456.137 823.068 460.541 822.978C464.831 822.89 469.21 822.612 473.385 821.558C476.594 820.747 479.96 819.37 481.942 816.585C482.965 815.146 483.433 813.368 483.393 811.613C483.289 807.027 482.83 802.429 482.627 797.843C482.592 797.066 481.984 796.361 481.163 796.38C459.514 796.866 437.864 797.353 416.215 797.839C413.218 797.906 410.22 797.974 407.223 798.041C405.64 798.077 404.058 798.112 402.476 798.148C401.391 798.172 399.451 798.603 398.529 797.972C396.97 796.905 395.504 799.44 397.051 800.499C397.857 801.051 398.774 801.141 399.729 801.137C401.227 801.13 402.727 801.069 404.225 801.036C406.973 800.974 409.721 800.912 412.468 800.851C418.047 800.725 423.626 800.6 429.205 800.475C440.196 800.228 451.187 799.981 462.178 799.734C468.506 799.591 474.835 799.449 481.163 799.307L479.699 797.843C479.883 801.98 480.104 806.115 480.38 810.246C480.485 811.812 480.544 813.21 479.842 814.434C478.486 816.796 475.541 817.971 472.821 818.68C464.897 820.745 456.275 820.174 448.179 819.801C444.616 819.637 441.026 819.33 437.457 819.449L438.868 821.302C440.46 815.675 436.171 809.356 430.306 808.878C424.092 808.371 419.094 814.741 420.224 820.629L421.636 818.776C410.988 820.063 399.608 820.499 389.293 817.091C384.366 815.463 379.584 812.725 376.392 808.541C372.577 803.539 371.75 796.389 374.444 790.69C377.428 784.378 383.607 780.459 389.768 777.692L387.994 777.463C391.12 780.247 393.109 783.836 394.115 787.879C394.667 790.099 394.988 792.367 395.271 794.635C395.505 796.508 395.404 798.805 396.755 800.27C398.034 801.659 400.1 799.585 398.825 798.201Z" fill="#FF008C"/>
<path d="M412.228 678.52C422.056 676.9 432.084 676.462 442.032 676.532C452.195 676.604 462.393 677.233 472.46 678.652C477.252 679.327 482.027 680.179 486.718 681.374C488.545 681.839 489.324 679.016 487.496 678.551C478.436 676.244 469.066 675.091 459.759 674.36C449.137 673.526 438.439 673.335 427.799 673.946C422.325 674.261 416.861 674.805 411.449 675.697C409.595 676.003 410.382 678.824 412.228 678.52Z" fill="#FF008C"/>
<path d="M472.594 676.446C474.091 662.747 476.711 649.169 479.74 635.734C482.93 621.581 486.65 607.537 490.945 593.679C493.048 586.892 495.295 580.147 497.786 573.493C498.447 571.726 495.618 570.963 494.963 572.714C490.265 585.265 486.367 598.121 482.858 611.05C479.004 625.25 475.643 639.6 472.999 654.076C471.644 661.493 470.486 668.95 469.666 676.446C469.462 678.316 472.391 678.302 472.594 676.446Z" fill="#FF008C"/>
<path d="M450.954 675.158C454.047 647.229 459.786 619.536 467.513 592.529C469.623 585.155 471.9 577.829 474.363 570.565C474.969 568.776 472.142 568.009 471.54 569.786C462.476 596.525 455.734 624.114 451.204 651.977C449.952 659.676 448.885 667.405 448.026 675.158C447.819 677.028 450.748 677.013 450.954 675.158Z" fill="#FF008C"/>
<path d="M429.968 674.066C431.431 659.438 433.625 644.886 436.419 630.454C439.299 615.577 442.813 600.811 447.134 586.284C449.443 578.52 451.991 570.826 454.848 563.246C455.513 561.481 452.684 560.718 452.024 562.467C446.826 576.263 442.63 590.428 439.086 604.733C435.404 619.592 432.427 634.629 430.121 649.762C428.891 657.836 427.853 665.94 427.04 674.066C426.852 675.939 429.781 675.926 429.968 674.066Z" fill="#FF008C"/>
<path d="M501.797 552.26C522.827 550.63 544.011 550.997 564.972 553.353C581.243 555.183 582.862 568.158 586.945 581.624C591.714 597.353 595.967 613.239 599.698 629.246C607.159 661.261 612.529 693.763 615.749 726.478C616.63 735.43 617.753 744.62 621.151 753.021C622.739 756.949 624.949 760.206 627.353 763.649C630.1 767.581 633.28 768.459 637.926 769.69C646.519 771.968 655.498 776.016 659.491 783.958C662.442 789.828 661.995 797.264 658.36 802.736C649.437 816.174 628.009 817.954 613.6 817.654C614.166 812.7 609.236 807.911 604.3 808.622C599.364 809.332 595.985 815.317 597.926 819.911C587.873 820.56 553.189 829.311 552.725 814.744C550.385 741.142 533.226 668.041 502.573 601.085" fill="white"/>
<path d="M501.797 553.724C516.959 552.561 532.192 552.411 547.373 553.309C551.146 553.532 554.914 553.819 558.677 554.17C562.026 554.482 565.478 554.647 568.733 555.55C573.057 556.749 576.544 559.401 578.885 563.222C581.276 567.125 582.544 571.605 583.79 575.973C585.565 582.192 587.46 588.375 589.229 594.596C593.336 609.045 597.011 623.617 600.249 638.286C606.706 667.541 611.365 697.156 614.333 726.966C615.7 740.689 617.951 754.669 627.034 765.63C630.59 769.92 636.16 770.533 641.146 772.166C646.46 773.906 651.759 776.465 655.53 780.707C659.575 785.258 660.951 791.593 659.228 797.43C657.756 802.419 653.951 806.369 649.619 809.072C641.029 814.433 630.32 815.831 620.39 816.156C618.127 816.23 615.863 816.235 613.6 816.19L615.063 817.654C615.595 811.543 609.463 805.949 603.412 807.303C597.942 808.527 594.466 815.098 596.514 820.3L597.926 818.447C593.097 818.773 588.3 819.752 583.511 820.411C577.594 821.225 571.555 821.914 565.575 821.558C561.867 821.337 556.266 820.691 554.622 816.849C554.198 815.857 554.187 814.64 554.148 813.509C554.059 810.874 553.95 808.241 553.822 805.608C553.567 800.343 553.236 795.081 552.83 789.825C551.215 768.919 548.417 748.1 544.468 727.507C540.513 706.879 535.394 686.473 529.143 666.421C522.904 646.405 515.529 626.745 507.077 607.559C506.014 605.147 504.933 602.743 503.837 600.345C503.055 598.634 500.53 600.12 501.309 601.823C510.163 621.186 517.888 641.057 524.449 661.312C531.023 681.607 536.432 702.28 540.644 723.194C544.847 744.061 547.853 765.164 549.625 786.377C550.071 791.712 550.439 797.054 550.73 802.4C550.873 805.032 550.997 807.665 551.102 810.298C551.181 812.287 551.077 814.354 551.435 816.319C552.297 821.046 556.963 823.213 561.245 823.984C567.059 825.031 573.101 824.559 578.932 823.91C584.39 823.303 589.794 822.334 595.24 821.648C596.133 821.535 597.027 821.435 597.926 821.374C598.777 821.317 599.711 820.47 599.337 819.521C597.908 815.892 599.991 811.246 603.864 810.206C608.277 809.021 612.509 813.362 612.135 817.654C612.066 818.454 612.863 819.103 613.599 819.118C623.843 819.32 634.561 818.632 644.218 814.947C654.311 811.095 663.54 802.907 662.862 791.193C662.117 778.318 650.218 771.569 639.074 768.484C636.556 767.787 633.906 767.258 631.662 765.855C629.115 764.264 627.531 761.44 625.953 758.971C622.04 752.847 620.031 745.947 618.787 738.835C617.472 731.32 616.97 723.675 616.118 716.099C615.268 708.537 614.302 700.988 613.226 693.454C611.062 678.302 608.436 663.216 605.355 648.224C602.23 633.015 598.634 617.903 594.576 602.915C592.58 595.543 590.448 588.211 588.254 580.895C586.836 576.17 585.706 571.329 583.856 566.745C582.156 562.532 579.818 558.606 576.111 555.866C571.323 552.325 565.456 551.894 559.727 551.342C544.329 549.858 528.831 549.443 513.376 550.101C509.512 550.265 505.652 550.5 501.796 550.796C499.93 550.939 499.915 553.868 501.797 553.724Z" fill="#FF008C"/>
<path d="M501.797 552.26C522.827 550.63 544.011 550.997 564.972 553.353C581.243 555.183 582.862 568.158 586.945 581.624C591.714 597.353 595.967 613.239 599.698 629.246C607.159 661.261 612.529 693.763 615.749 726.478C616.63 735.43 617.753 744.62 621.151 753.021C622.739 756.949 624.949 760.206 627.353 763.649C630.1 767.581 633.28 768.459 637.926 769.69C646.519 771.968 655.498 776.016 659.491 783.958C662.442 789.828 661.995 797.264 658.36 802.736C649.437 816.174 628.009 817.954 613.6 817.654C614.166 812.7 609.236 807.911 604.3 808.622C599.364 809.332 595.985 815.317 597.926 819.911C587.873 820.56 553.189 829.311 552.725 814.744C550.385 741.142 533.226 668.041 502.573 601.085" fill="white"/>
<path d="M501.797 553.724C516.959 552.561 532.192 552.411 547.373 553.309C551.146 553.532 554.914 553.819 558.677 554.17C562.026 554.482 565.478 554.647 568.733 555.55C573.057 556.749 576.544 559.401 578.885 563.222C581.276 567.125 582.544 571.605 583.79 575.973C585.565 582.192 587.46 588.375 589.229 594.596C593.336 609.045 597.011 623.617 600.249 638.286C606.706 667.541 611.365 697.156 614.333 726.966C615.7 740.689 617.951 754.669 627.034 765.63C630.59 769.92 636.16 770.533 641.146 772.166C646.46 773.906 651.759 776.465 655.53 780.707C659.575 785.258 660.951 791.593 659.228 797.43C657.756 802.419 653.951 806.369 649.619 809.072C641.029 814.433 630.32 815.831 620.39 816.156C618.127 816.23 615.863 816.235 613.6 816.19L615.063 817.654C615.595 811.543 609.463 805.949 603.412 807.303C597.942 808.527 594.466 815.098 596.514 820.3L597.926 818.447C593.097 818.773 588.3 819.752 583.511 820.411C577.594 821.225 571.555 821.914 565.575 821.558C561.867 821.337 556.266 820.691 554.622 816.849C554.198 815.857 554.187 814.64 554.148 813.509C554.059 810.874 553.95 808.241 553.822 805.608C553.567 800.343 553.236 795.081 552.83 789.825C551.215 768.919 548.417 748.1 544.468 727.507C540.513 706.879 535.394 686.473 529.143 666.421C522.904 646.405 515.529 626.745 507.077 607.559C506.014 605.147 504.933 602.743 503.837 600.345C503.055 598.634 500.53 600.12 501.309 601.823C510.163 621.186 517.888 641.057 524.449 661.312C531.023 681.607 536.432 702.28 540.644 723.194C544.847 744.061 547.853 765.164 549.625 786.377C550.071 791.712 550.439 797.054 550.73 802.4C550.873 805.032 550.997 807.665 551.102 810.298C551.181 812.287 551.077 814.354 551.435 816.319C552.297 821.046 556.963 823.213 561.245 823.984C567.059 825.031 573.101 824.559 578.932 823.91C584.39 823.303 589.794 822.334 595.24 821.648C596.133 821.535 597.027 821.435 597.926 821.374C598.777 821.317 599.711 820.47 599.337 819.521C597.908 815.892 599.991 811.246 603.864 810.206C608.277 809.021 612.509 813.362 612.135 817.654C612.066 818.454 612.863 819.103 613.599 819.118C623.843 819.32 634.561 818.632 644.218 814.947C654.311 811.095 663.54 802.907 662.862 791.193C662.117 778.318 650.218 771.569 639.074 768.484C636.556 767.787 633.906 767.258 631.662 765.855C629.115 764.264 627.531 761.44 625.953 758.971C622.04 752.847 620.031 745.947 618.787 738.835C617.472 731.32 616.97 723.675 616.118 716.099C615.268 708.537 614.302 700.988 613.226 693.454C611.062 678.302 608.436 663.216 605.355 648.224C602.23 633.015 598.634 617.903 594.576 602.915C592.58 595.543 590.448 588.211 588.254 580.895C586.836 576.17 585.706 571.329 583.856 566.745C582.156 562.532 579.818 558.606 576.111 555.866C571.323 552.325 565.456 551.894 559.727 551.342C544.329 549.858 528.831 549.443 513.376 550.101C509.512 550.265 505.652 550.5 501.796 550.796C499.93 550.939 499.915 553.868 501.797 553.724Z" fill="#FF008C"/>
<path d="M599.698 629.246C595.967 613.239 591.714 597.354 586.945 581.624C582.862 568.158 581.243 555.183 564.972 553.354C544.011 550.997 522.827 550.63 501.797 552.26L502.573 601.085C515.009 628.249 525.224 656.426 533.129 685.237C542.845 681.681 552.962 679.218 563.227 677.926C572.886 676.71 582.64 676.524 592.373 676.339C597.929 676.234 603.485 676.129 609.041 676.023C606.417 660.338 603.308 644.734 599.698 629.246Z" fill="#84FF20"/>
<path d="M428.037 558.985C422.673 582.387 418.428 606.037 415.302 629.842C412.172 653.683 410.18 677.674 409.341 701.705C409.133 707.649 408.995 713.596 408.929 719.543C408.863 725.445 408.977 731.352 408.806 737.251C408.64 743.026 408.15 748.814 406.733 754.429C406.08 757.014 405.199 759.501 404.044 761.904C402.942 764.196 401.803 766.704 400.248 768.729C397.705 772.04 393.359 773.018 389.695 774.556C385.437 776.343 381.339 778.566 377.84 781.611C374.437 784.572 371.705 788.434 370.572 792.841C369.403 797.389 369.899 802.267 371.82 806.536C375.299 814.265 383.433 818.705 391.303 820.731C399.348 822.802 407.852 822.906 416.09 822.262C417.941 822.117 419.789 821.927 421.632 821.704C422.623 821.585 423.238 820.869 423.044 819.851C422.268 815.785 426.113 811.316 430.317 811.807C434.291 812.271 437.105 816.751 436.042 820.524C435.79 821.416 436.502 822.408 437.453 822.377C442.187 822.22 446.955 822.705 451.684 822.875C457.654 823.09 463.678 823.146 469.605 822.287C474.033 821.646 479.398 820.385 482.056 816.415C483.531 814.211 483.405 811.807 483.24 809.274C482.887 803.874 482.615 798.468 482.423 793.059C481.653 771.425 482.155 749.746 483.912 728.169C485.658 706.721 488.652 685.379 492.873 664.278C497.12 643.05 502.601 622.07 509.297 601.483C510.109 598.988 510.94 596.499 511.786 594.015C512.395 592.228 509.568 591.46 508.963 593.237C502.086 613.419 496.369 633.991 491.856 654.83C487.385 675.474 484.088 696.374 481.967 717.39C479.825 738.602 478.898 759.937 479.201 781.255C479.275 786.503 479.425 791.749 479.649 796.992C479.765 799.696 479.9 802.398 480.056 805.1C480.186 807.358 480.488 809.655 480.463 811.917C480.444 813.66 479.701 815.078 478.317 816.213C476.751 817.498 474.62 818.223 472.637 818.726C467.179 820.11 461.387 820.143 455.79 820.056C450.531 819.975 445.285 819.572 440.028 819.449C439.17 819.429 438.311 819.421 437.453 819.449L438.865 821.302C440.448 815.682 436.18 809.364 430.317 808.879C424.093 808.365 419.096 814.732 420.221 820.629L421.632 818.776C413.768 819.726 405.701 820.134 397.83 819.035C390.083 817.953 382.037 815.281 376.852 809.112C373.861 805.554 372.534 800.793 372.942 796.193C373.341 791.687 375.705 787.668 378.923 784.582C382.166 781.471 386.182 779.238 390.282 777.463C394 775.854 398.167 774.871 401.196 772.021C402.873 770.444 403.938 768.405 405.019 766.403C406.263 764.1 407.416 761.742 408.321 759.282C410.218 754.125 411.009 748.538 411.434 743.083C411.872 737.455 411.798 731.811 411.812 726.17C411.826 720.223 411.911 714.275 412.066 708.329C412.678 684.886 414.388 661.472 417.181 638.188C420 614.697 423.943 591.34 428.97 568.221C429.584 565.398 430.215 562.579 430.86 559.763C431.281 557.929 428.459 557.146 428.037 558.985Z" fill="#FF008C"/>
<path d="M501.797 553.724C516.959 552.561 532.192 552.411 547.373 553.309C551.146 553.532 554.914 553.819 558.677 554.17C562.026 554.482 565.478 554.647 568.733 555.55C573.057 556.749 576.544 559.401 578.885 563.222C581.276 567.125 582.544 571.605 583.79 575.973C585.565 582.192 587.46 588.375 589.229 594.596C593.336 609.045 597.011 623.617 600.249 638.286C606.706 667.541 611.365 697.156 614.333 726.966C615.7 740.689 617.951 754.669 627.034 765.63C630.59 769.92 636.16 770.533 641.146 772.166C646.46 773.906 651.759 776.465 655.53 780.707C659.575 785.258 660.951 791.593 659.228 797.43C657.756 802.419 653.951 806.369 649.619 809.072C641.029 814.433 630.32 815.831 620.39 816.156C618.127 816.23 615.863 816.235 613.6 816.19L615.063 817.654C615.595 811.543 609.463 805.949 603.412 807.303C597.942 808.527 594.466 815.098 596.514 820.3L597.926 818.447C593.097 818.773 588.3 819.752 583.511 820.411C577.594 821.225 571.555 821.914 565.575 821.558C561.867 821.337 556.266 820.691 554.622 816.849C554.198 815.857 554.187 814.64 554.148 813.509C554.059 810.874 553.95 808.241 553.822 805.608C553.567 800.343 553.236 795.081 552.83 789.825C551.215 768.919 548.417 748.1 544.468 727.507C540.513 706.879 535.394 686.473 529.143 666.421C522.904 646.405 515.529 626.745 507.077 607.559C506.014 605.147 504.933 602.743 503.837 600.345C503.055 598.634 500.53 600.12 501.309 601.823C510.163 621.186 517.888 641.057 524.449 661.312C531.023 681.607 536.432 702.28 540.644 723.194C544.847 744.061 547.853 765.164 549.625 786.377C550.071 791.712 550.439 797.054 550.73 802.4C550.873 805.032 550.997 807.665 551.102 810.298C551.181 812.287 551.077 814.354 551.435 816.319C552.297 821.046 556.963 823.213 561.245 823.984C567.059 825.031 573.101 824.559 578.932 823.91C584.39 823.303 589.794 822.334 595.24 821.648C596.133 821.535 597.027 821.435 597.926 821.374C598.777 821.317 599.711 820.47 599.337 819.521C597.908 815.892 599.991 811.246 603.864 810.206C608.277 809.021 612.509 813.362 612.135 817.654C612.066 818.454 612.863 819.103 613.599 819.118C623.843 819.32 634.561 818.632 644.218 814.947C654.311 811.095 663.54 802.907 662.862 791.193C662.117 778.318 650.218 771.569 639.074 768.484C636.556 767.787 633.906 767.258 631.662 765.855C629.115 764.264 627.531 761.44 625.953 758.971C622.04 752.847 620.031 745.947 618.787 738.835C617.472 731.32 616.97 723.675 616.118 716.099C615.268 708.537 614.302 700.988 613.226 693.454C611.062 678.302 608.436 663.216 605.355 648.224C602.23 633.015 598.634 617.903 594.576 602.915C592.58 595.543 590.448 588.211 588.254 580.895C586.836 576.17 585.706 571.329 583.856 566.745C582.156 562.532 579.818 558.606 576.111 555.866C571.323 552.325 565.456 551.894 559.727 551.342C544.329 549.858 528.831 549.443 513.376 550.101C509.512 550.265 505.652 550.5 501.796 550.796C499.93 550.939 499.915 553.868 501.797 553.724Z" fill="#FF008C"/>
<path d="M589.94 768.981C590.296 768.975 590.575 768.974 590.767 768.978C591.435 768.991 592.258 768.911 592.524 768.298C592.716 767.857 592.511 767.356 592.32 766.916C589.507 760.438 589.471 752.627 592.974 746.497C597.661 738.295 611.935 733.159 619.736 740.331C622.924 743.263 623.256 748.083 623.524 752.407C624.106 761.828 628.967 767.316 637.927 769.691C646.52 771.968 655.497 776.016 659.49 783.958C662.441 789.827 661.993 797.263 658.359 802.736C649.436 816.174 628.008 817.954 613.598 817.654C614.165 812.7 609.235 807.911 604.299 808.622C599.363 809.332 595.984 815.317 597.925 819.911C587.872 820.56 553.187 829.31 552.724 814.744C552.258 800.084 551.194 785.445 549.563 770.869C549.554 770.79 583.279 769.091 589.94 768.981Z" fill="white"/>
<path d="M589.941 770.445C591.273 770.428 592.791 770.499 593.643 769.268C594.689 767.754 593.422 765.909 592.934 764.43C591.808 761.011 591.408 757.297 591.989 753.731C592.491 750.65 593.648 747.538 595.707 745.15C597.514 743.054 599.798 741.442 602.293 740.263C607.095 737.995 613.415 737.35 617.895 740.694C623.203 744.656 621.34 752.422 622.992 758.043C624.52 763.244 628.169 767.306 633.1 769.526C635.97 770.818 639.055 771.436 642.02 772.46C645.091 773.52 648.071 774.866 650.791 776.653C656.5 780.403 660.291 786.313 659.941 793.299C659.623 799.642 655.757 804.928 650.636 808.409C641.118 814.879 628.647 816.124 617.438 816.216C616.158 816.226 614.879 816.216 613.599 816.191L615.063 817.654C615.606 811.496 609.367 805.877 603.289 807.329C597.891 808.618 594.475 815.146 596.514 820.3L597.925 818.447C593.779 818.726 589.657 819.529 585.548 820.123C580.318 820.879 575.048 821.537 569.759 821.632C565.614 821.707 560.704 821.687 557.039 819.478C555.735 818.692 554.782 817.596 554.393 816.154C554.032 814.814 554.14 813.238 554.086 811.779C553.994 809.309 553.885 806.839 553.759 804.37C553.189 793.179 552.268 782.006 551.027 770.869L550.302 772.133C550.005 772.298 549.29 772.327 549.903 772.303C550.159 772.293 550.415 772.27 550.671 772.254C551.509 772.204 552.347 772.159 553.185 772.113C556.015 771.96 558.845 771.816 561.676 771.675C568.587 771.329 575.5 770.996 582.414 770.708C584.922 770.603 587.431 770.489 589.941 770.445C591.823 770.413 591.829 767.485 589.941 767.517C577.8 767.727 565.644 768.515 553.52 769.168C552.539 769.22 551.557 769.273 550.576 769.332C550.018 769.366 549.322 769.329 548.824 769.605C548.414 769.833 548.045 770.381 548.099 770.869C549.249 781.188 550.124 791.536 550.7 801.902C550.841 804.452 550.965 807.004 551.071 809.556C551.155 811.584 551.09 813.662 551.341 815.676C551.584 817.624 552.442 819.429 553.898 820.766C557.221 823.816 562.275 824.373 566.58 824.534C572.126 824.742 577.689 824.12 583.177 823.385C588.091 822.726 592.997 821.706 597.925 821.374C598.775 821.317 599.712 820.469 599.337 819.521C597.916 815.93 599.952 811.325 603.763 810.232C608.197 808.96 612.517 813.321 612.135 817.654C612.064 818.454 612.863 819.103 613.599 819.118C625.411 819.351 638.164 818.454 648.822 812.897C654.156 810.115 659.01 805.831 661.346 800.181C664.103 793.513 663.09 785.702 658.702 779.982C654.524 774.535 648.128 771.349 641.726 769.278C638.744 768.313 635.674 767.712 632.915 766.161C630.599 764.859 628.633 763.051 627.293 760.744C624.013 755.1 625.835 748.305 623.099 742.512C620.431 736.864 613.645 734.878 607.854 735.633C602.079 736.386 596.393 739.4 592.843 744.067C588.491 749.789 587.893 757.906 589.925 764.624C590.177 765.456 590.424 766.546 590.897 767.279C590.884 767.259 591.148 767.888 591.157 767.571C591.16 767.455 591.334 767.503 591.061 767.512C590.689 767.525 590.313 767.512 589.941 767.517C588.058 767.542 588.053 770.47 589.941 770.445Z" fill="#FF008C"/>
<path d="M635.217 794.363C635.672 793.88 635.721 793.154 635.74 792.491C635.85 788.593 635.803 784.662 636.566 780.838C637.318 777.069 639.099 773.507 641.646 770.792C649.001 773.216 656.072 777.16 659.49 783.958C662.441 789.827 661.993 797.263 658.359 802.736C649.436 816.173 628.008 817.954 613.598 817.654C614.165 812.699 609.235 807.911 604.299 808.621C599.363 809.332 595.983 815.317 597.924 819.91C587.872 820.56 553.187 829.31 552.724 814.744C552.582 810.274 552.377 805.806 552.125 801.341C579.194 799.225 606.263 797.109 633.332 794.993C634.009 794.94 634.752 794.857 635.217 794.363Z" fill="#FF008C"/>
<path d="M636.478 795.102C637.628 793.571 637.232 791 637.278 789.212C637.334 787.009 637.407 784.791 637.733 782.608C638.333 778.594 639.918 774.835 642.678 771.827L641.254 772.204C646.994 774.116 652.938 777 656.59 782.018C660.415 787.274 661.083 794.483 658.087 800.3C653.063 810.053 641.092 813.74 631.015 815.248C625.26 816.109 619.407 816.305 613.596 816.191L615.06 817.654C615.603 811.496 609.363 805.877 603.286 807.329C597.887 808.618 594.472 815.146 596.51 820.3L597.922 818.447C594.758 818.66 591.609 819.221 588.476 819.69C584.336 820.31 580.19 820.904 576.018 821.276C571.935 821.64 567.783 821.847 563.698 821.403C560.856 821.094 557.603 820.388 555.612 818.35C554.698 817.414 554.255 816.114 554.185 814.744C553.959 810.277 553.837 805.807 553.586 801.341L552.122 802.805C574.375 801.066 596.628 799.326 618.881 797.587C622.037 797.34 625.192 797.093 628.347 796.847C629.842 796.73 631.336 796.616 632.831 796.496C634.132 796.392 635.222 796.266 636.249 795.399C637.691 794.182 635.611 792.12 634.179 793.328C633.86 793.598 633.214 793.538 632.831 793.568C632.167 793.621 631.502 793.672 630.838 793.724C629.51 793.828 628.181 793.932 626.853 794.036C624.112 794.25 621.372 794.464 618.632 794.678C613.235 795.1 607.838 795.522 602.441 795.944C591.729 796.781 581.018 797.619 570.307 798.456C564.245 798.93 558.184 799.404 552.122 799.878C551.368 799.937 550.611 800.501 550.658 801.341C550.89 805.476 551.085 809.612 551.225 813.75C551.288 815.617 551.463 817.408 552.468 819.033C554.222 821.869 557.514 823.226 560.651 823.871C569.133 825.614 578.249 824.121 586.699 822.892C590.443 822.347 594.16 821.628 597.922 821.374C598.772 821.317 599.708 820.47 599.333 819.521C597.913 815.93 599.949 811.325 603.76 810.232C608.194 808.96 612.514 813.322 612.132 817.654C612.061 818.454 612.86 819.104 613.595 819.118C625.08 819.345 637.315 818.474 647.808 813.405C652.956 810.917 657.814 807.084 660.523 801.952C663.77 795.799 663.675 788.083 660.126 782.078C656.221 775.468 649.088 771.731 642.032 769.381C641.56 769.223 640.943 769.392 640.608 769.757C637.858 772.753 635.959 776.459 635.151 780.449C634.693 782.714 634.505 785.033 634.41 787.339C634.365 788.431 634.342 789.525 634.318 790.618C634.297 791.537 634.53 792.852 633.95 793.625C632.819 795.132 635.36 796.593 636.478 795.102Z" fill="#FF008C"/>
<path d="M608.988 672.798C598.913 672.164 588.767 672.716 578.742 673.797C568.433 674.908 558.158 676.597 548.083 679.058C543.324 680.221 538.6 681.56 533.996 683.24C532.24 683.88 532.999 686.711 534.774 686.063C543.377 682.924 552.381 680.87 561.378 679.236C571.671 677.367 582.098 676.125 592.551 675.653C598.026 675.406 603.516 675.381 608.988 675.725C610.869 675.844 610.862 672.916 608.988 672.798Z" fill="#FF008C"/>
<path d="M551.335 679.161C548.335 665.05 543.879 651.244 539.084 637.654C533.923 623.028 528.21 608.59 522.018 594.37C519.079 587.62 516.025 580.917 512.764 574.316C511.93 572.627 509.404 574.108 510.236 575.794C516.382 588.235 521.865 601.009 527.014 613.891C532.769 628.292 538.104 642.885 542.636 657.721C544.874 665.047 546.919 672.443 548.512 679.939C548.904 681.781 551.726 681.001 551.335 679.161Z" fill="#FF008C"/>
<path d="M572.735 675.709C566.828 648.101 558.325 620.997 547.88 594.776C544.994 587.533 541.945 580.355 538.713 573.26C537.934 571.547 535.41 573.034 536.185 574.737C547.833 600.315 557.248 626.98 564.516 654.124C566.499 661.532 568.307 668.988 569.911 676.487C570.305 678.329 573.128 677.55 572.735 675.709Z" fill="#FF008C"/>
<path d="M593.508 672.517C590.57 658.039 586.916 643.706 582.673 629.557C578.295 614.956 573.288 600.532 567.496 586.431C564.382 578.85 561.043 571.361 557.398 564.02C556.56 562.332 554.034 563.813 554.87 565.497C561.411 578.67 566.985 592.308 571.926 606.155C577.004 620.383 581.416 634.851 585.188 649.479C587.223 657.369 589.064 665.309 590.685 673.295C591.059 675.141 593.882 674.36 593.508 672.517Z" fill="#FF008C"/>
<path d="M590.512 767.076C599.054 778.71 613.582 785.427 628.001 784.096C629.861 783.925 629.879 780.995 628.001 781.169C614.668 782.4 600.992 776.429 593.04 765.598C591.937 764.095 589.395 765.554 590.512 767.076Z" fill="#FF008C"/>
<path d="M622.034 756.229C620.501 756.738 619.093 757.662 618.075 758.926C617.568 759.556 617.127 760.213 616.804 760.957C616.428 761.824 616.209 762.668 616.098 763.608C616.058 763.955 616.291 764.407 616.527 764.643C616.781 764.897 617.198 765.088 617.562 765.071C617.941 765.054 618.333 764.93 618.597 764.643C618.877 764.338 618.978 764.015 619.026 763.608C619.063 763.292 618.96 763.966 619.021 763.654C619.037 763.57 619.051 763.484 619.068 763.4C619.097 763.259 619.13 763.119 619.168 762.98C619.214 762.814 619.265 762.649 619.323 762.486C619.347 762.419 619.372 762.351 619.398 762.284C619.483 762.068 619.423 762.255 619.366 762.355C619.522 762.08 619.64 761.785 619.804 761.513C619.894 761.365 619.989 761.221 620.088 761.079C620.13 761.02 620.173 760.963 620.215 760.905C620.299 760.789 619.992 761.182 620.2 760.929C620.402 760.684 620.619 760.453 620.85 760.236C620.966 760.127 621.084 760.023 621.207 759.922L621.274 759.867C621.394 759.772 621.364 759.795 621.182 759.937C621.243 759.913 621.303 759.849 621.357 759.811C621.616 759.629 621.887 759.465 622.168 759.32C622.309 759.247 622.454 759.185 622.597 759.117C622.165 759.322 622.699 759.09 622.813 759.052C623.538 758.811 624.087 758.031 623.835 757.251C623.601 756.528 622.813 755.97 622.034 756.229Z" fill="#FF008C"/>
<path d="M624.304 763.082C623.817 763.451 623.377 763.83 623 764.313C622.545 764.895 622.212 765.476 621.93 766.159C621.453 767.314 621.382 768.544 621.554 769.768C621.601 770.105 621.948 770.48 622.226 770.643C622.54 770.827 623.003 770.905 623.354 770.791C623.709 770.676 624.05 770.457 624.229 770.118C624.426 769.745 624.435 769.403 624.377 768.99L624.366 768.915L624.419 769.305C624.363 768.855 624.365 768.407 624.421 767.958L624.369 768.347C624.417 767.999 624.495 767.657 624.607 767.324C624.63 767.253 624.656 767.182 624.683 767.112C624.701 767.065 624.719 767.018 624.738 766.972L624.65 767.183C624.685 767.028 624.807 766.853 624.886 766.714C624.966 766.572 625.052 766.434 625.145 766.3C625.208 766.208 625.412 765.97 625.116 766.324C625.164 766.266 625.21 766.207 625.259 766.15C625.372 766.017 625.493 765.889 625.62 765.769C625.674 765.717 625.73 765.666 625.786 765.617C625.867 765.546 626.167 765.318 625.782 765.61C626.099 765.37 626.345 765.134 626.455 764.735C626.551 764.385 626.508 763.918 626.307 763.607C626.106 763.295 625.806 763.02 625.432 762.935C625.075 762.853 624.611 762.85 624.304 763.082Z" fill="#FF008C"/>
<path d="M429.583 550.779C430.065 555.266 428.774 559.725 427.864 564.146C426.829 569.174 426.277 574.288 425.727 579.392C430.246 579.358 434.804 579.573 439.326 579.702C461.125 580.324 482.911 581.803 504.595 584.112C519 585.646 533.367 587.566 547.65 589.992C555.233 591.28 562.636 593.433 570.15 595.049C571.707 595.384 590.337 598.047 590.036 596.824C586.77 583.56 582.383 570.761 578.332 557.774C574.458 545.355 572.472 532.027 565.334 520.89" fill="#FF008C"/>
<path d="M428.12 550.778C428.575 555.61 427.117 560.243 426.22 564.937C425.307 569.715 424.785 574.558 424.264 579.391C424.179 580.177 425.003 580.859 425.728 580.855C435.205 580.803 444.721 581.283 454.187 581.722C463.679 582.162 473.163 582.763 482.634 583.524C501.646 585.051 520.619 587.172 539.463 590.129C544.122 590.86 548.782 591.597 553.39 592.612C557.927 593.611 562.422 594.787 566.949 595.832C571.008 596.768 575.122 597.297 579.255 597.802C581.581 598.085 583.913 598.352 586.251 598.512C587.535 598.6 589.456 598.934 590.646 598.261C591.922 597.539 591.382 596.152 591.095 595.015C590.538 592.814 589.951 590.62 589.34 588.433C588.079 583.916 586.715 579.429 585.314 574.954C582.619 566.351 579.717 557.81 577.389 549.097C575.262 541.135 573.246 533.084 569.647 525.629C568.737 523.744 567.72 521.917 566.599 520.15C565.592 518.564 563.058 520.031 564.071 521.628C568.426 528.492 570.883 536.233 573.003 544.023C575.247 552.269 577.623 560.428 580.221 568.57C582.974 577.199 585.707 585.84 587.97 594.613C588.1 595.116 588.163 595.792 588.39 596.266C588.631 596.767 588.224 596.848 588.736 596.322C589.004 596.047 589.021 595.895 589.316 595.669C589.606 595.447 589.285 595.751 589.231 595.664C589.251 595.697 589.571 595.643 589.184 595.66C588.438 595.691 587.694 595.67 586.948 595.628C584.762 595.508 582.581 595.266 580.407 595.012C576.806 594.59 573.147 594.215 569.602 593.432C565.222 592.465 560.88 591.335 556.511 590.32C552.093 589.293 547.644 588.496 543.168 587.772C524.899 584.818 506.504 582.651 488.069 581.051C469.585 579.446 451.069 578.555 432.526 578.022C430.261 577.956 427.995 577.915 425.728 577.928L427.191 579.391C427.719 574.498 428.25 569.599 429.229 564.771C430.165 560.154 431.495 555.536 431.048 550.778C430.873 548.918 427.944 548.9 428.12 550.778Z" fill="#FF008C"/>
<path d="M628.15 767.984C627.314 769.307 626.896 770.957 627.045 772.518C627.083 772.915 627.183 773.262 627.474 773.553C627.728 773.807 628.144 773.998 628.509 773.982C628.888 773.965 629.28 773.841 629.544 773.553C629.792 773.283 630.009 772.899 629.973 772.518C629.929 772.063 629.938 771.607 629.995 771.153L629.943 771.542C630.017 771.002 630.16 770.478 630.371 769.975L630.223 770.325C630.352 770.025 630.504 769.738 630.678 769.461C631.088 768.813 630.835 767.819 630.153 767.459C629.431 767.077 628.587 767.292 628.15 767.984Z" fill="#FF008C"/>
<path d="M448.577 572.838C494.673 575.416 541.07 576.816 587.077 572.046C609.814 569.688 632.424 565.809 654.482 559.761C669.304 555.697 684.224 554.538 685.18 535.548C686.219 514.935 671.624 490.802 662.51 473.014C638.89 426.917 615.023 380.785 586.529 337.459C572.396 315.97 557.239 294.841 540.192 275.547C528.404 262.206 505.182 245.529 487.151 254.837C468.867 264.277 458.327 285.861 448.855 303.108C436.822 325.018 425.129 347.119 414.072 369.54C392.283 413.724 372.919 459.22 358.519 506.378C354.687 518.928 348.776 537.909 355.666 550.491C361.5 561.145 377.056 564.761 387.981 566.74C407.97 570.359 428.294 571.703 448.577 572.838Z" fill="white"/>
<path d="M448.571 574.301C487.549 576.477 526.666 577.82 565.662 575.301C584.767 574.067 603.83 571.914 622.668 568.472C632.038 566.76 641.351 564.725 650.57 562.321C656.926 560.664 663.465 559.28 669.682 557.146C674.793 555.391 679.67 552.796 682.826 548.266C686.627 542.808 687.071 535.639 686.498 529.219C685.091 513.46 677.598 498.697 670.384 484.887C653.516 452.596 637.146 420.043 619.172 388.343C600.746 355.847 580.788 324.012 557.798 294.525C547.997 281.956 537.976 268.95 524.59 259.989C513.248 252.396 498.472 247.002 485.562 254.021C472.82 260.948 464.085 273.337 456.903 285.565C453.115 292.016 449.623 298.641 446.031 305.203C441.375 313.709 436.772 322.245 432.239 330.817C414.548 364.273 397.935 398.322 383.418 433.283C376.242 450.565 369.588 468.066 363.599 485.795C360.806 494.062 358.14 502.376 355.664 510.744C353.514 518.012 351.608 525.448 351.127 533.04C350.688 539.982 351.532 547.587 355.755 553.358C359.588 558.597 365.443 561.806 371.418 564.024C377.859 566.416 384.66 567.691 391.417 568.817C400.923 570.401 410.503 571.513 420.1 572.359C429.577 573.194 439.074 573.769 448.571 574.301C450.454 574.407 450.448 571.479 448.571 571.374C429.508 570.305 410.404 569.071 391.557 565.886C384.939 564.768 378.284 563.491 371.983 561.122C366.205 558.95 360.31 555.621 357.132 550.12C353.462 543.77 353.517 535.867 354.478 528.811C355.463 521.583 357.548 514.554 359.673 507.595C364.917 490.412 370.788 473.428 377.217 456.653C390.337 422.422 405.695 389.086 422.272 356.402C430.851 339.489 439.759 322.745 448.87 306.113C455.747 293.558 462.189 280.403 471.59 269.485C476.195 264.136 481.564 259.329 487.885 256.101C493.975 252.991 500.94 253.079 507.401 254.91C520.909 258.739 532.16 268.52 541.188 278.905C565.11 306.424 585.443 337.095 604.139 368.336C622.998 399.85 640.019 432.415 656.79 465.074C664.044 479.202 672.197 493.1 678.005 507.909C680.798 515.031 683.118 522.532 683.649 530.204C684.071 536.319 683.566 543.211 679.323 548.023C675.783 552.037 670.583 553.927 665.573 555.361C658.73 557.319 651.776 559.047 644.866 560.745C626.796 565.187 608.405 568.256 589.913 570.279C552.163 574.408 514.093 574.303 476.195 572.736C466.983 572.356 457.776 571.887 448.571 571.374C446.689 571.269 446.695 574.197 448.571 574.301Z" fill="#FF008C"/>
<path d="M614.141 412.547C648.084 419.733 682.767 426.72 721.315 440.383C719.154 439.617 716.206 432.457 715.173 430.664C709.978 421.643 705.557 412.17 701.76 402.481C688.69 369.135 684.557 334.597 684.997 298.994C685.041 295.356 685.181 289.184 690.106 288.673C692.109 288.465 694.037 289.722 695.196 291.368C696.356 293.014 696.894 295.006 697.412 296.951C701.773 294.261 704.59 289.588 706.199 284.724C707.808 279.86 708.36 274.722 709.198 269.668C709.516 267.753 709.893 265.799 710.894 264.136C711.895 262.474 713.654 261.138 715.595 261.168C717.535 261.199 719.427 262.981 719.125 264.898C718.679 261.936 720.944 258.832 723.901 258.354C726.857 257.876 729.985 260.108 730.494 263.06C730.74 260.878 732.901 259.134 735.094 259.235C737.287 259.336 739.237 261.169 739.598 263.334C739.73 260.889 742.996 259.636 745.23 260.64C747.463 261.644 748.73 264.02 749.556 266.325C753.804 278.182 750.487 291.441 745.322 302.928C740.807 312.97 737.139 320.486 741.164 331.363C756.444 372.648 780.888 410.577 784.542 455.387C785.222 463.719 784.685 471.731 781.696 479.625C780.297 483.321 778.404 486.925 775.506 489.612C771.923 492.934 767.121 494.581 762.392 495.814C753.167 498.219 743.639 499.385 734.108 499.596C724.801 499.802 715.498 499.102 706.224 498.281C683.967 496.31 639.959 490.115 617.871 486.737" fill="white"/>
<path d="M613.755 413.958C641.369 419.804 669.005 425.597 696.07 433.689C704.422 436.186 712.712 438.886 720.93 441.794C722.739 442.435 723.403 439.672 721.708 438.971C721.537 438.901 720.917 438.14 720.666 437.79C720.104 437.003 719.623 436.153 719.162 435.304C718.319 433.755 717.59 432.149 716.788 430.579C715.602 428.255 714.234 426.018 713.017 423.707C711.547 420.915 710.144 418.086 708.807 415.228C703.591 404.084 699.319 392.5 696.006 380.651C689.49 357.352 686.78 333.186 686.465 309.037C686.421 305.651 686.419 302.264 686.466 298.879C686.492 296.967 686.534 295.023 687.097 293.18C687.645 291.391 688.967 289.826 691.027 290.156C694.293 290.678 695.292 294.674 696.004 297.34C696.241 298.228 697.356 298.721 698.155 298.215C704.717 294.057 707.669 286.58 709.106 279.259C709.911 275.159 710.077 270.793 711.322 266.798C711.84 265.135 712.829 263.396 714.575 262.797C716.064 262.286 717.821 263.199 717.665 264.898H720.593C720.331 262.633 721.73 260.216 724.101 259.803C726.452 259.394 728.624 261.226 729.087 263.449C729.37 264.811 731.681 264.881 731.91 263.449C732.157 261.901 733.438 260.583 735.098 260.699C736.736 260.813 737.878 262.21 738.191 263.723C738.55 265.461 740.904 264.857 741.066 263.334C741.17 262.351 742.355 261.858 743.206 261.768C744.664 261.614 745.857 262.616 746.661 263.733C748.526 266.329 749.273 269.928 749.711 273.029C750.7 280.031 749.434 287.183 747.284 293.853C745.103 300.619 741.491 306.818 739.388 313.602C738.463 316.583 737.903 319.711 737.981 322.84C738.068 326.36 738.978 329.684 740.207 332.962C749.97 359 763.223 383.588 772.577 409.788C777.194 422.721 780.854 436.074 782.509 449.731C783.393 457.032 783.847 464.474 782.421 471.739C781.154 478.194 778.677 485.53 773.211 489.638C770.59 491.608 767.489 492.815 764.371 493.746C760.65 494.856 756.834 495.683 753.01 496.35C745.32 497.69 737.505 498.215 729.704 498.165C717.121 498.083 704.539 496.775 692.046 495.349C669.551 492.781 647.113 489.638 624.72 486.299C622.567 485.979 620.415 485.654 618.264 485.325C616.421 485.044 615.626 487.864 617.486 488.148C628.117 489.773 638.763 491.305 649.416 492.785C661.615 494.479 673.825 496.108 686.054 497.574C698.195 499.03 710.383 500.372 722.604 500.907C730.8 501.266 739.016 501.128 747.166 500.143C754.618 499.242 762.432 497.978 769.397 495.069C772.566 493.745 775.535 491.929 777.822 489.332C780.077 486.771 781.645 483.743 782.89 480.587C785.667 473.541 786.536 465.911 786.2 458.382C785.556 443.949 782.194 429.583 777.746 415.885C773.293 402.171 767.586 388.906 761.711 375.752C755.823 362.567 749.731 349.462 744.49 336.001C743.161 332.589 741.68 329.153 741.133 325.51C740.639 322.224 740.966 318.899 741.827 315.705C743.717 308.691 747.519 302.354 749.828 295.478C752.138 288.601 753.536 281.191 752.749 273.925C752.195 268.811 750.303 258.603 743.355 258.834C740.701 258.923 738.425 260.633 738.138 263.334L741.014 262.945C740.438 260.158 737.987 257.887 735.098 257.771C732.252 257.656 729.535 259.865 729.087 262.671H731.91C731.148 259.008 727.427 256.352 723.71 256.916C720.017 257.476 717.238 261.206 717.665 264.898C717.881 266.758 720.418 266.799 720.593 264.898C720.768 262.998 719.623 261.242 717.983 260.344C716.239 259.39 714.156 259.59 712.466 260.562C708.45 262.87 707.986 267.933 707.354 272.041C706.049 280.523 704.589 290.674 696.677 295.687L698.828 296.562C698.071 293.728 697.168 290.734 694.794 288.819C692.78 287.193 690.111 286.683 687.74 287.85C684.074 289.654 683.639 294.445 683.553 298.036C683.244 310.86 683.764 323.764 684.995 336.53C687.511 362.605 693.648 388.173 704.224 412.179C707.169 418.864 710.593 425.238 714.055 431.66C715.059 433.522 715.889 435.47 716.928 437.314C717.9 439.039 719.022 441.006 720.93 441.794L721.708 438.971C694.071 429.191 665.657 422.092 637.027 415.911C629.535 414.294 622.033 412.722 614.534 411.135C612.696 410.746 611.91 413.568 613.755 413.958Z" fill="#FF008C"/>
<path d="M697.377 298.843C705.056 298.084 711.781 302.254 717.934 306.297C719.514 307.334 720.982 304.8 719.412 303.769C712.851 299.459 705.553 295.107 697.377 295.915C695.519 296.099 695.5 299.028 697.377 298.843Z" fill="#FF008C"/>
<path d="M717.498 264.875C717.708 270.567 716.494 276.226 713.901 281.303C713.046 282.978 715.571 284.461 716.429 282.781C719.253 277.251 720.654 271.085 720.426 264.875C720.356 262.997 717.428 262.988 717.498 264.875Z" fill="#FF008C"/>
<path d="M728.591 262.108C728.958 268.469 727.867 274.869 725.287 280.706C724.965 281.434 725.08 282.27 725.812 282.709C726.431 283.08 727.496 282.905 727.815 282.183C730.606 275.868 731.917 269.011 731.519 262.108C731.411 260.235 728.482 260.222 728.591 262.108Z" fill="#FF008C"/>
<path d="M737.739 262.201C738.699 267.304 738.137 272.566 736.26 277.397C735.974 278.134 736.576 279.003 737.283 279.197C738.111 279.425 738.796 278.915 739.084 278.175C741.154 272.846 741.618 267.031 740.562 261.423C740.416 260.645 739.479 260.203 738.762 260.4C737.947 260.624 737.593 261.421 737.739 262.201Z" fill="#FF008C"/>
<path d="M399.278 422.817C381.061 428.434 363 434.575 345.071 441.051C335.041 444.674 325.053 448.415 315.125 452.309C310.102 454.279 305.075 456.254 300.101 458.347C298.981 458.819 288.42 463.133 288.424 463.112C298.485 417.064 305.081 371.515 300.217 324.362C299.844 320.743 299.148 314.61 294.196 314.545C292.183 314.519 290.377 315.945 289.371 317.689C288.365 319.433 288.008 321.465 287.668 323.449C283.082 321.164 279.855 316.765 277.813 312.066C275.771 307.367 274.757 302.3 273.466 297.342C272.977 295.464 272.424 293.551 271.277 291.986C270.13 290.421 268.258 289.249 266.328 289.455C264.398 289.66 262.675 291.606 263.149 293.488C263.326 290.498 260.79 287.611 257.802 287.402C254.814 287.193 251.901 289.699 251.66 292.684C251.219 290.534 248.909 288.991 246.734 289.29C244.559 289.589 242.782 291.59 242.618 293.78C242.267 291.356 238.9 290.403 236.766 291.605C234.633 292.807 233.586 295.287 232.971 297.657C229.812 309.85 234.312 322.754 240.493 333.728C245.897 343.321 250.229 350.476 247.202 361.672C235.713 404.168 214.794 444.15 215.201 489.106C215.277 497.465 216.535 505.396 220.225 512.988C221.952 516.543 224.163 519.961 227.291 522.375C231.16 525.36 236.091 526.567 240.912 527.368C250.316 528.93 259.91 529.231 269.422 528.58C278.71 527.944 287.911 526.408 297.073 524.752C319.062 520.779 362.33 510.636 384.023 505.277" fill="white"/>
<path d="M398.886 421.405C381.602 426.739 364.463 432.535 347.439 438.646C331.214 444.471 315.09 450.583 299.157 457.165C297.017 458.049 294.873 458.922 292.729 459.797C291.2 460.421 289.627 461.26 288.033 461.7L289.833 463.501C294.916 440.208 299.193 416.704 301.496 392.96C302.637 381.187 303.286 369.364 303.312 357.535C303.338 346.046 302.928 334.444 301.531 323.032C301.087 319.407 300.164 314.803 296.248 313.426C293.842 312.58 291.266 313.394 289.492 315.147C287.369 317.244 286.741 320.231 286.254 323.06L288.404 322.186C280.029 317.885 277.641 308.059 275.56 299.665C274.543 295.564 273.614 290.467 269.31 288.542C265.586 286.877 260.936 289.538 261.735 293.877C262.042 295.546 264.57 295.085 264.61 293.488C264.705 289.687 261.646 286.165 257.8 285.938C253.869 285.707 250.627 288.927 250.194 292.684L253.069 292.295C252.344 289.44 249.475 287.454 246.537 287.853C243.514 288.262 241.483 290.871 241.152 293.78L244.027 293.391C243.499 290.733 240.682 289.38 238.158 289.673C235.039 290.036 233.132 292.759 232.11 295.491C229.639 302.09 230.168 309.823 231.816 316.539C233.581 323.734 236.895 330.304 240.5 336.726C243.614 342.274 246.742 348.073 246.733 354.606C246.728 358.235 245.705 361.667 244.722 365.127C243.713 368.681 242.644 372.218 241.533 375.742C239.311 382.795 236.923 389.796 234.514 396.788C229.711 410.725 224.807 424.647 220.961 438.888C217.128 453.083 214.382 467.635 213.832 482.355C213.555 489.78 213.724 497.293 215.579 504.528C217.27 511.126 220.304 518.389 225.62 522.897C231.16 527.594 238.737 528.677 245.707 529.519C253.732 530.489 261.85 530.588 269.908 530.01C283.248 529.052 296.473 526.489 309.561 523.81C332.5 519.115 355.317 513.771 378.068 508.242C380.183 507.728 382.297 507.21 384.41 506.689C386.238 506.237 385.464 503.413 383.632 503.865C362.149 509.17 340.589 514.201 318.956 518.849C307.878 521.229 296.767 523.493 285.569 525.235C270.289 527.613 254.503 528.579 239.229 525.584C235.937 524.939 232.64 524.034 229.748 522.286C226.885 520.555 224.73 517.992 223.036 515.142C219.408 509.038 217.541 502 216.931 494.963C216.301 487.691 216.684 480.27 217.395 473.018C218.085 465.973 219.255 458.983 220.754 452.066C226.792 424.193 238.031 397.844 246.18 370.586C248.108 364.138 250.373 357.641 249.368 350.826C248.456 344.64 245.209 339.114 242.185 333.752C238.691 327.557 235.706 321.047 234.25 314.049C233.541 310.635 233.241 307.139 233.473 303.657C233.677 300.61 234.122 296.873 235.947 294.311C236.683 293.277 237.731 292.467 239.052 292.555C240.092 292.624 240.993 293.104 241.204 294.169C241.552 295.919 243.908 295.289 244.08 293.78C244.464 290.402 249.351 289.548 250.246 293.073C250.682 294.788 252.944 294.227 253.122 292.684C253.374 290.5 255.604 288.656 257.8 288.866C260.082 289.084 261.737 291.288 261.683 293.488L264.558 293.099C264.232 291.327 266.513 290.624 267.823 291.084C269.675 291.734 270.729 293.579 271.347 295.327C272.708 299.181 273.344 303.29 274.517 307.206C276.604 314.175 280.184 321.251 286.927 324.714C287.689 325.105 288.908 324.825 289.077 323.839C289.481 321.494 289.859 318.783 291.702 317.086C292.994 315.898 294.945 315.579 296.324 316.798C298.568 318.783 298.603 322.836 298.874 325.582C299.981 336.757 300.457 347.99 300.377 359.219C300.217 381.486 297.861 403.682 294.221 425.634C292.16 438.061 289.696 450.417 287.011 462.723C286.777 463.794 287.691 464.833 288.811 464.523C290.128 464.16 291.426 463.469 292.688 462.954C294.758 462.111 296.828 461.265 298.895 460.416C305.787 457.587 312.692 454.803 319.639 452.112C336.487 445.586 353.491 439.452 370.601 433.65C380.246 430.379 389.933 427.232 399.665 424.229C401.46 423.675 400.694 420.848 398.886 421.405Z" fill="#FF008C"/>
<path d="M287.744 322.408C279.364 322.335 272.456 327.403 266.191 332.383C265.567 332.879 265.683 333.933 266.191 334.453C266.796 335.071 267.646 334.942 268.261 334.453C273.899 329.971 280.199 325.27 287.744 325.336C289.629 325.352 289.63 322.425 287.744 322.408Z" fill="#FF008C"/>
<path d="M261.846 293.449C262.178 299.65 264.062 305.687 267.378 310.942C268.381 312.532 270.915 311.064 269.906 309.465C266.867 304.648 265.078 299.141 264.774 293.45C264.674 291.575 261.746 291.564 261.846 293.449Z" fill="#FF008C"/>
<path d="M250.548 291.696C250.773 298.594 252.634 305.341 255.984 311.376C256.898 313.024 259.428 311.549 258.512 309.898C255.414 304.318 253.684 298.076 253.476 291.696C253.414 289.817 250.486 289.808 250.548 291.696Z" fill="#FF008C"/>
<path d="M241.463 292.222C240.917 297.904 242.042 303.632 244.578 308.736C245.417 310.423 247.943 308.942 247.106 307.258C244.793 302.603 243.895 297.387 244.391 292.222C244.466 291.434 243.664 290.758 242.927 290.758C242.072 290.758 241.539 291.431 241.463 292.222Z" fill="#FF008C"/>
<path d="M436.94 766.254C430.123 777.816 417.22 785.263 403.797 785.376C401.914 785.392 401.909 788.319 403.797 788.304C418.242 788.183 432.131 780.176 439.468 767.732C440.427 766.105 437.898 764.63 436.94 766.254Z" fill="#FF008C"/>
<path d="M406.444 762.826C406.774 762.9 407.099 762.995 407.415 763.116C407.524 763.158 407.732 763.293 407.354 763.087C407.422 763.124 407.497 763.151 407.566 763.184C407.707 763.251 407.846 763.323 407.982 763.4C408.266 763.559 408.535 763.741 408.798 763.933C408.919 764.021 408.501 763.695 408.747 763.897C408.818 763.955 408.887 764.014 408.955 764.074C409.072 764.178 409.186 764.285 409.297 764.396C409.407 764.506 409.514 764.62 409.617 764.738C409.669 764.796 409.719 764.856 409.769 764.916C409.802 764.956 409.835 764.997 409.867 765.038L409.734 764.865C409.954 765.11 410.129 765.427 410.288 765.714C410.364 765.85 410.436 765.988 410.503 766.129C410.536 766.2 410.566 766.272 410.599 766.342C410.405 765.933 410.532 766.185 410.569 766.281C410.69 766.598 410.784 766.923 410.857 767.253C411.022 768.002 411.932 768.51 412.658 768.276C413.444 768.021 413.857 767.277 413.68 766.475C412.99 763.343 410.351 760.701 407.222 760.003C406.477 759.837 405.603 760.229 405.422 761.025C405.253 761.767 405.644 762.648 406.444 762.826Z" fill="#FF008C"/>
<path d="M404.157 769.613C404.281 769.689 404.4 769.769 404.519 769.852C404.714 769.99 404.289 769.665 404.423 769.777C404.469 769.815 404.516 769.853 404.562 769.892C404.771 770.073 404.966 770.271 405.145 770.482C405.183 770.528 405.219 770.578 405.259 770.622C404.967 770.299 405.137 770.463 405.203 770.557C405.28 770.665 405.352 770.776 405.421 770.89C405.565 771.127 405.688 771.375 405.797 771.631L405.649 771.281C405.823 771.706 405.945 772.146 406.012 772.601L405.96 772.212C406.001 772.523 406.016 772.834 406.004 773.148C405.974 773.914 406.699 774.646 407.468 774.612C408.287 774.575 408.9 773.969 408.932 773.148C409.027 770.718 407.699 768.344 405.635 767.085C404.98 766.686 403.996 766.92 403.632 767.61C403.255 768.323 403.458 769.187 404.157 769.613Z" fill="#FF008C"/>
<path d="M399.953 774.178L399.992 774.227L399.763 773.931C400.079 774.343 400.338 774.791 400.541 775.269L400.393 774.919C400.591 775.399 400.728 775.899 400.802 776.413L400.75 776.024C400.786 776.291 400.804 776.559 400.806 776.828C400.81 777.594 401.476 778.328 402.27 778.292C403.059 778.257 403.738 777.649 403.733 776.828C403.729 776.032 403.605 775.212 403.339 774.46C403.19 774.04 403.013 773.623 402.8 773.232C402.58 772.829 402.306 772.469 402.023 772.108C401.809 771.834 401.318 771.679 400.988 771.679C400.629 771.679 400.2 771.839 399.953 772.108C399.697 772.387 399.507 772.753 399.525 773.143L399.577 773.532C399.646 773.78 399.772 773.995 399.953 774.178Z" fill="#FF008C"/>
<path d="M657.641 281.801C686.611 281.801 710.095 258.317 710.095 229.347C710.095 200.378 686.611 176.894 657.641 176.894C628.672 176.894 605.188 200.378 605.188 229.347C605.188 258.317 628.672 281.801 657.641 281.801Z" fill="#84FF20"/>
<path d="M323.446 293.664C352.416 293.664 375.9 270.18 375.9 241.21C375.9 212.241 352.416 188.756 323.446 188.756C294.477 188.756 270.992 212.241 270.992 241.21C270.992 270.18 294.477 293.664 323.446 293.664Z" fill="#84FF20"/>
<path d="M354.184 242.183V240.238C354.184 238.238 352.715 236.541 350.735 236.254L348.1 235.872C346.622 235.658 345.407 234.634 344.885 233.235C344.691 232.716 344.479 232.205 344.249 231.704C343.624 230.342 343.755 228.753 344.652 227.552L346.247 225.417C347.444 223.814 347.282 221.576 345.868 220.161L344.493 218.787C343.078 217.372 340.84 217.211 339.237 218.408L337.102 220.002C335.901 220.899 334.312 221.03 332.95 220.405C332.449 220.175 331.938 219.963 331.419 219.769C330.019 219.247 328.996 218.032 328.782 216.554L328.4 213.919C328.113 211.939 326.416 210.47 324.415 210.47H322.471C320.471 210.47 318.774 211.939 318.487 213.919L318.105 216.554C317.891 218.032 316.867 219.247 315.468 219.769C314.949 219.963 314.438 220.175 313.937 220.405C312.575 221.03 310.986 220.899 309.785 220.002L307.65 218.408C306.047 217.211 303.809 217.372 302.394 218.787L301.019 220.161C299.605 221.576 299.443 223.814 300.64 225.417L302.235 227.552C303.132 228.753 303.263 230.342 302.638 231.704C302.408 232.205 302.196 232.716 302.002 233.235C301.48 234.634 300.264 235.658 298.786 235.872L296.152 236.254C294.172 236.541 292.703 238.238 292.703 240.238V242.183C292.703 244.183 294.172 245.88 296.152 246.167L298.786 246.549C300.264 246.763 301.48 247.787 302.002 249.186C302.196 249.705 302.408 250.216 302.638 250.717C303.263 252.079 303.132 253.668 302.235 254.869L300.64 257.004C299.443 258.607 299.605 260.845 301.019 262.26L302.394 263.634C303.809 265.049 306.047 265.21 307.65 264.013L309.785 262.419C310.986 261.522 312.575 261.391 313.937 262.016C314.438 262.246 314.949 262.458 315.468 262.652C316.867 263.174 317.891 264.389 318.105 265.867L318.487 268.502C318.774 270.482 320.471 271.951 322.471 271.951H324.415C326.416 271.951 328.113 270.482 328.4 268.502L328.782 265.867C328.996 264.389 330.019 263.174 331.419 262.652C331.938 262.458 332.449 262.246 332.95 262.016C334.312 261.391 335.901 261.522 337.102 262.419L339.237 264.013C340.84 265.21 343.078 265.049 344.493 263.634L345.868 262.26C347.282 260.845 347.444 258.607 346.247 257.004L344.652 254.869C343.755 253.668 343.624 252.079 344.249 250.717C344.479 250.216 344.691 249.705 344.885 249.186C345.407 247.787 346.622 246.763 348.1 246.549L350.735 246.167C352.715 245.88 354.184 244.183 354.184 242.183Z" fill="#FF008C"/>
<path d="M323.449 256.003C331.619 256.003 338.241 249.38 338.241 241.211C338.241 233.041 331.619 226.418 323.449 226.418C315.279 226.418 308.656 233.041 308.656 241.211C308.656 249.38 315.279 256.003 323.449 256.003Z" fill="#84FF20"/>
<path d="M661.878 224.455C664.631 220.293 665.426 214.892 663.989 210.113C663.272 207.73 661.976 205.45 659.976 203.969C657.23 201.937 653.603 201.668 650.193 201.474C651.793 204.908 653.392 208.342 654.992 211.776C655.572 213.021 656.163 214.43 655.701 215.723C655.479 216.343 655.036 216.857 654.572 217.324C652.459 219.451 649.177 220.955 646.479 219.647C644.695 218.783 643.647 216.937 642.616 215.245C641.182 212.889 639.581 210.635 637.829 208.505C635.346 212.086 634.19 216.812 635.333 221.03C636.263 224.458 638.618 227.608 641.92 228.919C645.071 230.17 648.604 229.652 651.979 229.334C652.243 229.309 652.521 229.288 652.761 229.398C653.122 229.564 653.295 229.971 653.435 230.343C654.224 232.431 655.013 234.519 655.802 236.608C657.501 241.103 659.2 245.605 661.23 249.963C661.892 251.385 662.275 253.424 663.249 254.632C664.529 256.217 666.944 256.783 668.879 256.8C670.682 256.816 672.59 256.4 673.882 255.142C675.172 253.886 675.641 251.963 675.493 250.168C675.026 244.515 671.16 239.553 668.316 234.85C666.302 231.521 664.487 227.37 661.878 224.455Z" fill="#FF008C"/>
<path d="M663.137 225.193C666.371 220.17 667.118 213.608 664.791 208.064C663.671 205.394 661.796 203.044 659.147 201.771C656.352 200.428 653.24 200.187 650.188 200.01C648.986 199.941 648.491 201.282 648.924 202.213C650.385 205.349 651.846 208.484 653.307 211.619C653.961 213.025 654.982 214.622 653.807 216.003C652.956 217.002 651.754 217.837 650.528 218.298C647.619 219.392 645.815 217.656 644.363 215.306C642.678 212.578 640.89 209.958 638.86 207.471C638.224 206.691 637.038 207.061 636.561 207.767C632.508 213.764 632.126 222.218 637.43 227.623C640.131 230.376 643.761 231.289 647.527 231.165C648.57 231.13 649.609 231.03 650.647 230.929C650.933 230.901 651.726 230.675 651.975 230.798C652.172 230.896 652.386 231.702 652.527 232.075C653.316 234.165 654.105 236.256 654.896 238.346C656.447 242.44 658.08 246.485 659.86 250.484C660.557 252.049 660.876 253.819 661.881 255.235C662.815 256.552 664.234 257.37 665.763 257.822C668.969 258.771 673.216 258.374 675.416 255.601C677.748 252.66 677.066 248.54 675.842 245.282C674.35 241.311 671.866 237.878 669.678 234.28C667.457 230.626 665.746 226.667 662.908 223.42C661.666 221.998 659.603 224.076 660.838 225.49C663.101 228.079 664.572 231.245 666.25 234.219C667.847 237.048 669.748 239.692 671.329 242.53C672.799 245.171 674.48 248.591 673.99 251.715C673.433 255.267 669.475 255.863 666.541 254.999C665.252 254.619 664.347 253.915 663.798 252.688C663.1 251.126 662.593 249.481 661.89 247.913C660.302 244.373 658.922 240.745 657.549 237.118C656.872 235.327 656.196 233.535 655.519 231.744C654.965 230.279 654.576 228.226 652.764 227.904C651.269 227.639 649.494 228.143 647.972 228.218C646.071 228.311 644.086 228.261 642.304 227.507C639.222 226.202 637.2 223.066 636.558 219.868C635.813 216.157 637.013 212.317 639.089 209.244L636.79 209.541C638.165 211.226 639.442 212.984 640.617 214.814C641.538 216.251 642.342 217.78 643.46 219.08C645.789 221.788 649.217 222.154 652.355 220.684C653.879 219.97 655.36 218.832 656.365 217.476C657.469 215.988 657.509 214.248 656.895 212.544C656.212 210.647 655.224 208.833 654.373 207.006C653.4 204.916 652.426 202.826 651.452 200.736L650.188 202.938C652.633 203.08 655.214 203.206 657.488 204.212C659.795 205.233 661.382 207.241 662.258 209.569C664.021 214.255 663.298 219.539 660.609 223.716C659.586 225.305 662.12 226.774 663.137 225.193Z" fill="#FF008C"/>
<path d="M716.143 435.488C718.747 440.156 721.545 444.711 724.53 449.144C724.971 449.799 725.82 450.087 726.533 449.67C727.183 449.289 727.502 448.325 727.058 447.667C724.073 443.234 721.275 438.678 718.671 434.01C717.753 432.365 715.224 433.839 716.143 435.488Z" fill="#FF008C"/>
<path d="M288.189 457.092C287.033 462.145 285.726 467.161 284.269 472.136C283.739 473.948 286.563 474.722 287.092 472.914C288.549 467.94 289.856 462.923 291.012 457.87C291.431 456.036 288.609 455.253 288.189 457.092Z" fill="#FF008C"/>
<path d="M666.137 760.425C663.902 754.853 666.636 747.769 672.26 745.404C673.737 744.782 675.823 744.27 676.91 745.808C677.949 747.279 678.291 749.53 678.519 751.269C679.064 755.429 678.437 759.736 676.713 763.56C675.927 765.302 678.097 766.527 679.241 765.037C681.366 762.27 684.168 760.052 687.316 758.559C688.576 757.962 690.609 756.862 691.91 757.851C692.842 758.559 693.155 760.009 693.265 761.101C693.576 764.185 692.64 767.607 691.351 770.384C689.918 773.468 687.843 776.138 685.227 778.307C684.071 779.265 685.317 781.139 686.651 780.753C689.355 779.972 692.691 778.937 695.35 780.394C697.528 781.587 698.548 784.247 698.718 786.609C699.086 791.723 696.328 796.707 691.884 799.216L693.658 801.515C695.603 798.999 699.262 799.76 701.684 801.147C704.937 803.012 707.535 805.756 711.19 806.907C712.154 807.21 712.979 806.403 713.043 805.495C713.342 801.234 718.271 798.273 722.252 799.342C726.644 800.521 729.125 805.637 728.3 809.919C727.945 811.76 730.766 812.549 731.123 810.698C732.26 804.795 728.917 797.844 722.717 796.441C716.868 795.117 710.541 799.437 710.115 805.495L711.968 804.084C707.954 802.82 705.212 799.259 701.312 797.746C698.111 796.504 693.87 796.494 691.588 799.445C690.63 800.684 691.801 802.625 693.362 801.744C698.999 798.562 702.439 791.961 701.523 785.508C701.085 782.422 699.515 779.25 696.642 777.77C693.239 776.018 689.354 776.924 685.873 777.93L687.297 780.377C692.307 776.224 695.485 770.142 696.136 763.678C696.403 761.024 696.124 757.834 694.083 755.878C691.543 753.444 687.988 754.933 685.301 756.297C681.899 758.024 679.028 760.546 676.713 763.56L679.241 765.037C680.91 761.334 681.778 757.323 681.611 753.251C681.477 749.992 680.992 745.187 678.24 742.987C675.502 740.798 671.429 742.175 668.85 743.962C666.303 745.726 664.432 748.259 663.339 751.145C662.125 754.347 662.033 758.01 663.315 761.203C664.007 762.93 666.84 762.176 666.137 760.425Z" fill="#FF008C"/>
<path d="M677.1 817.083C677.221 816.932 677.354 816.801 677.494 816.668C677.672 816.499 677.168 816.892 677.473 816.685C677.548 816.633 677.627 816.585 677.707 816.541C677.767 816.508 677.908 816.47 677.952 816.42C677.891 816.49 677.591 816.554 677.857 816.467C678.032 816.41 678.208 816.368 678.388 816.331C678.637 816.279 677.964 816.37 678.343 816.339C678.436 816.331 678.53 816.327 678.623 816.326C678.788 816.323 678.952 816.335 679.117 816.348C679.373 816.367 678.701 816.277 679.081 816.345C679.175 816.363 679.268 816.382 679.361 816.405C679.536 816.448 679.708 816.501 679.877 816.563C679.999 816.607 680.224 816.754 679.828 816.536C679.912 816.582 680.003 816.617 680.087 816.661C680.257 816.748 680.421 816.846 680.578 816.954C680.693 817.032 680.885 817.255 680.567 816.937C680.616 816.986 680.676 817.027 680.727 817.073C680.867 817.198 680.991 817.334 681.116 817.473C681.28 817.656 680.887 817.147 681.096 817.451C681.148 817.526 681.197 817.604 681.242 817.683C681.276 817.742 681.306 817.804 681.339 817.864C681.515 818.185 681.252 817.598 681.325 817.828C681.381 818.005 681.415 818.184 681.465 818.362C681.341 817.915 681.441 818.166 681.448 818.324C681.452 818.421 681.45 818.517 681.446 818.614C681.414 819.38 682.143 820.112 682.91 820.078C683.731 820.041 684.339 819.434 684.374 818.614C684.524 815.087 680.507 812.753 677.341 813.565C676.461 813.791 675.6 814.301 675.03 815.013C674.779 815.328 674.602 815.629 674.602 816.048C674.602 816.407 674.761 816.836 675.03 817.083C675.561 817.571 676.59 817.722 677.1 817.083Z" fill="#FF008C"/>
<path d="M297.37 812.394C293.116 807.43 290.802 799.111 294.144 793.061C295.604 790.417 298.726 788.279 301.848 789.271C304.121 789.993 305.819 793.238 304.118 795.306L306.565 795.952C306.079 792.598 307.072 789.163 308.962 786.391C309.936 784.962 311.21 783.694 312.662 782.752C314.036 781.861 316.142 780.672 317.804 781.324C319.395 781.949 319.886 784.065 320.226 785.551C320.698 787.609 320.925 789.709 320.938 791.82C320.964 796.119 320.072 800.405 318.298 804.322C317.667 805.715 319.414 807.451 320.597 806.096C323.711 802.53 329.21 801.189 333.511 803.388C337.78 805.57 340.097 810.745 339.004 815.386C338.572 817.218 341.394 818 341.827 816.164C343.208 810.302 340.437 803.648 334.989 800.86C329.571 798.087 322.53 799.442 318.527 804.026L320.826 805.8C322.522 802.055 323.547 798.094 323.804 793.986C324.043 790.183 323.769 785.875 322.288 782.32C321.631 780.743 320.589 779.311 318.965 778.641C317.124 777.882 315.121 778.321 313.357 779.077C310.265 780.403 307.691 782.784 305.959 785.655C303.94 789.001 303.183 792.875 303.742 796.73C303.895 797.786 305.531 798.175 306.188 797.376C308.073 795.085 308.134 791.875 306.521 789.391C304.722 786.621 301.405 785.65 298.265 786.368C290.756 788.085 288.967 796.951 290.059 803.476C290.742 807.557 292.617 811.334 295.3 814.464C296.528 815.897 298.591 813.818 297.37 812.394Z" fill="#FF008C"/>
<path d="M449.836 392.133C451.999 397.586 457.497 400.76 463.234 401.016C469.939 401.316 476.092 397.562 480.878 393.212C482.275 391.942 480.2 389.876 478.808 391.142C474.744 394.835 469.604 398.093 463.929 398.104C459.395 398.113 454.407 395.763 452.659 391.355C451.972 389.624 449.14 390.378 449.836 392.133Z" fill="#FF008C"/>
<path d="M505.756 392.509C510.946 397.522 517.778 401.978 525.288 401.675C531.65 401.419 537.98 397.734 540.006 391.477C540.588 389.68 537.762 388.911 537.183 390.699C535.495 395.913 529.831 398.777 524.601 398.76C518.112 398.739 512.319 394.778 507.826 390.438C506.47 389.129 504.398 391.197 505.756 392.509Z" fill="#FF008C"/>
<path d="M449.042 368.239C456.536 360.945 467.573 357.703 477.818 359.859C479.656 360.246 480.442 357.424 478.596 357.036C467.314 354.662 455.241 358.12 446.972 366.169C445.619 367.486 447.69 369.555 449.042 368.239Z" fill="#FF008C"/>
<path d="M545.474 366.683C537.357 356.746 523.947 351.932 511.355 354.129C509.502 354.452 510.287 357.274 512.133 356.952C523.741 354.926 535.98 359.665 543.404 368.753C544.596 370.213 546.657 368.131 545.474 366.683Z" fill="#FF008C"/>
<path d="M483.326 360.333C480.983 372.553 479.764 384.956 479.118 397.374C478.789 403.689 478.604 410.012 478.48 416.334C478.382 421.335 477.496 427.592 480.747 431.854C483.326 435.235 489.744 436.197 491.914 431.838C492.751 430.157 490.227 428.672 489.386 430.361C488.709 431.72 487.257 432.031 485.846 431.751C483.915 431.368 482.677 429.968 482.039 428.154C481.279 425.992 481.291 423.658 481.32 421.395C481.357 418.574 481.415 415.752 481.481 412.931C481.74 401.915 482.228 390.894 483.385 379.933C484.051 373.623 484.955 367.343 486.15 361.111C486.503 359.27 483.681 358.481 483.326 360.333Z" fill="#FF008C"/>
<path d="M463.093 430.919C465.738 441.06 473.82 449.043 483.861 451.913C493.438 454.65 505.005 452.563 511.632 444.709C515.2 440.48 517.134 435.205 518.14 429.821C518.485 427.979 515.664 427.19 515.317 429.043C514.51 433.362 513.147 437.606 510.624 441.246C508.163 444.798 504.571 447.399 500.484 448.77C491.53 451.773 481.325 449.654 474.206 443.469C470.15 439.945 467.272 435.34 465.916 430.14C465.441 428.319 462.617 429.091 463.093 430.919Z" fill="#FF008C"/>
<path d="M460.54 430.286C461.538 431.143 462.716 431.613 464.027 431.707C465.185 431.79 466.427 431.476 467.397 430.837C468.035 430.416 468.367 429.523 467.922 428.834C467.512 428.197 466.603 427.858 465.919 428.309C465.796 428.39 465.67 428.466 465.538 428.534C465.473 428.568 465.405 428.596 465.339 428.63C465.728 428.429 465.527 428.552 465.416 428.592C465.138 428.692 464.851 428.759 464.559 428.802L464.948 428.749C464.555 428.8 464.163 428.801 463.769 428.753L464.159 428.805C463.963 428.778 463.77 428.742 463.579 428.69C463.485 428.665 463.39 428.636 463.297 428.604C463.245 428.586 462.935 428.461 463.197 428.572C463.46 428.682 463.155 428.547 463.105 428.522C463.018 428.477 462.932 428.429 462.848 428.378C462.764 428.327 462.684 428.27 462.603 428.216C462.396 428.077 462.899 428.464 462.61 428.215C462.311 427.959 461.98 427.787 461.575 427.787C461.216 427.787 460.787 427.946 460.54 428.215C460.037 428.763 459.919 429.753 460.54 430.286Z" fill="#FF008C"/>
<path d="M512.385 430.298C513.827 430.962 515.371 431.13 516.924 430.782C518.311 430.472 519.669 429.684 520.568 428.577C520.82 428.265 520.996 427.958 520.996 427.541C520.996 427.182 520.837 426.754 520.568 426.506C520.033 426.016 519.013 425.871 518.498 426.506C518.328 426.715 518.146 426.912 517.945 427.092C517.89 427.141 517.831 427.187 517.776 427.237C517.644 427.357 518.076 427.025 517.825 427.199C517.715 427.276 517.605 427.352 517.491 427.422C517.377 427.492 517.26 427.558 517.141 427.62C517.074 427.654 517.007 427.686 516.94 427.718C516.896 427.738 516.699 427.826 516.909 427.734C517.133 427.636 516.885 427.74 516.834 427.758C516.778 427.779 516.721 427.798 516.664 427.817C516.522 427.863 516.378 427.904 516.233 427.939C516.102 427.97 515.97 427.997 515.837 428.019C515.788 428.028 515.572 428.063 515.81 428.025C516.063 427.986 515.795 428.023 515.737 428.027C515.47 428.048 515.2 428.05 514.933 428.032C514.858 428.027 514.784 428.017 514.71 428.012C514.528 428 515.095 428.081 514.79 428.021C514.658 427.996 514.527 427.971 514.397 427.938C514.267 427.905 514.138 427.868 514.011 427.824C513.955 427.805 513.899 427.784 513.843 427.763C513.541 427.655 514.155 427.905 513.863 427.77C513.169 427.451 512.254 427.55 511.86 428.295C511.52 428.94 511.643 429.957 512.385 430.298Z" fill="#FF008C"/>
<path d="M578.625 336.711C580.431 335.662 582.07 334.413 583.576 333.028C570.282 313.072 556.061 293.511 540.187 275.546C528.4 262.206 505.178 245.528 487.147 254.837C468.863 264.277 458.323 285.86 448.851 303.107C440.604 318.124 432.536 333.24 424.703 348.477C438.447 344.505 451.803 338.964 463.631 330.939C476.393 322.281 487.346 310.634 493.856 296.653C500.796 314.88 517.92 327.431 535.877 335.04C549.503 340.814 565.83 344.146 578.625 336.711Z" fill="#FF008C"/>
<path d="M579.366 337.975C581.252 336.857 582.991 335.535 584.613 334.063C585.068 333.651 585.187 332.806 584.842 332.289C574.537 316.829 563.736 301.684 552.016 287.259C546.853 280.904 541.66 274.414 535.668 268.811C530.385 263.873 524.497 259.452 518.074 256.104C511.909 252.891 505.013 250.526 497.983 250.678C490.796 250.833 484.552 254.047 478.963 258.365C467.288 267.385 459.561 280.515 452.563 293.245C443.831 309.128 435.202 325.069 426.845 341.153C425.706 343.346 424.571 345.541 423.441 347.739C422.877 348.836 423.814 350.261 425.094 349.889C447.812 343.293 469.921 332.144 485.016 313.429C488.999 308.491 492.426 303.139 495.122 297.392L492.447 297.043C497.261 309.542 506.614 319.46 517.595 326.877C523.159 330.637 529.134 333.763 535.315 336.378C542.033 339.22 549.061 341.382 556.333 342.174C564.255 343.036 572.379 341.97 579.366 337.975C581.001 337.04 579.528 334.509 577.888 335.447C565.631 342.457 550.586 339.364 538.177 334.414C526.496 329.755 515.25 323.022 506.568 313.836C501.753 308.741 497.795 302.821 495.27 296.264C494.867 295.219 493.182 294.66 492.594 295.915C482.908 316.563 464.276 331.157 443.74 340.143C437.438 342.901 430.919 345.149 424.316 347.066L425.969 349.216C434.423 332.776 443.232 316.534 452.056 300.291C458.808 287.862 465.593 274.957 475.819 264.971C480.618 260.285 486.525 255.707 493.186 254.184C499.704 252.693 506.55 254.189 512.605 256.74C519.144 259.494 525.157 263.563 530.541 268.152C536.307 273.068 541.202 278.809 546.052 284.606C557.669 298.49 568.351 313.128 578.509 328.105C579.785 329.987 581.053 331.875 582.314 333.767L582.543 331.993C581.1 333.302 579.565 334.453 577.888 335.447C576.269 336.407 577.74 338.939 579.366 337.975Z" fill="#FF008C"/>
</svg>
