<svg width="1000" height="1000" viewBox="0 0 1000 1000" fill="none" xmlns="http://www.w3.org/2000/svg">
<path d="M554.805 611.415C595.19 630.499 637.886 647.873 683.296 650.628C689.697 651.016 696.163 651.107 702.493 650.152C717.009 647.959 730.042 640.303 740.13 630.56C750.218 620.817 757.627 609.05 764.158 597.058C776.059 575.208 785.818 551.751 793.569 528.501C794.12 526.848 794.678 525.146 795.854 523.789C797.306 522.113 799.52 521.167 801.627 520.228C810.206 516.406 842.096 503.112 831.652 490.873C830.734 489.797 829.386 488.919 827.889 488.903C826.391 488.888 824.854 489.995 824.913 491.356C827.407 488.792 829.023 485.531 829.486 482.134C829.61 481.218 829.64 480.238 829.151 479.43C828.453 478.276 826.842 477.787 825.4 477.92C823.959 478.053 822.639 478.686 821.361 479.307C823.067 477.271 824.821 475.144 825.395 472.638C825.97 470.132 824.994 467.134 822.447 466.045C819.801 464.914 816.727 466.177 814.142 467.42C814.739 464.994 816.308 462.846 816.999 460.441C817.69 458.036 817.133 454.972 814.66 453.914C813.762 453.53 812.738 453.47 811.748 453.51C807.68 453.677 803.867 455.417 800.594 457.62C797.321 459.822 794.472 462.497 791.37 464.895C783.579 470.917 774.146 475.169 764.158 477.158C762.722 472.691 761.885 462.092 753.739 464.022C749.753 464.966 748.383 469.368 747.539 473.035C742.182 496.303 730.643 517.952 719.208 539.329C710.287 556.007 701.366 572.685 692.445 589.362C660.576 579.355 598.089 553.576 566.22 543.568" fill="white"/>
<path d="M553.957 612.862C580.277 625.293 607.19 636.868 635.39 644.333C649.417 648.046 663.739 650.708 678.204 651.934C685.737 652.572 693.38 652.972 700.906 652.046C707.522 651.231 713.9 649.345 719.952 646.562C745.788 634.68 760.547 608.885 772.582 584.428C779.197 570.984 785.04 557.16 790.22 543.102C791.534 539.538 792.804 535.957 794.032 532.362C795.021 529.467 795.637 525.769 798.257 523.857C800.034 522.56 802.2 521.795 804.204 520.91C805.659 520.267 807.111 519.619 808.555 518.953C816.14 515.453 824.094 511.549 830.187 505.717C832.689 503.323 835.003 500.324 835.36 496.77C835.745 492.934 833.093 488.321 829.211 487.394C826.455 486.736 823.393 488.355 823.236 491.356C823.16 492.806 825.124 493.57 826.098 492.542C828.96 489.517 831.811 484.652 831.164 480.296C830.841 478.118 829.162 476.708 827.04 476.334C824.72 475.926 822.558 476.871 820.514 477.86L822.545 480.493C825.556 476.893 828.857 472.273 826.313 467.485C823.575 462.332 817.521 463.961 813.295 465.972L815.758 467.865C816.912 463.615 820.429 459.774 818.225 455.191C815.969 450.499 809.605 451.603 805.642 453.103C800.732 454.961 796.763 458.321 792.767 461.627C788.84 464.876 784.644 467.704 780.077 469.982C774.898 472.566 769.379 474.391 763.711 475.542L765.773 476.713C764.092 471.355 763.35 462.716 756.163 462.138C751.643 461.774 748.541 464.891 747.018 468.833C746.121 471.154 745.697 473.641 745.078 476.043C744.36 478.831 743.556 481.596 742.679 484.337C735.266 507.502 722.943 528.792 711.523 550.142C704.681 562.933 697.838 575.725 690.996 588.516L692.89 587.746C676.827 582.693 661.063 576.669 645.314 570.73C627.354 563.958 609.447 557.043 591.409 550.481C583.211 547.499 574.987 544.57 566.664 541.952C564.601 541.303 563.718 544.539 565.773 545.185C581.836 550.238 597.599 556.262 613.349 562.201C631.308 568.973 649.216 575.888 667.254 582.45C675.452 585.432 683.676 588.361 691.998 590.979C692.68 591.193 693.552 590.842 693.891 590.208C705.247 568.979 716.811 547.847 727.907 526.481C733.146 516.392 738.127 506.149 742.248 495.546C744.306 490.25 746.14 484.864 747.656 479.388C748.338 476.922 748.864 474.418 749.535 471.95C750.018 470.171 750.641 468.25 751.962 466.902C753.173 465.665 755.202 465.1 756.873 465.657C758.21 466.102 759.069 467.242 759.715 468.44C761.245 471.277 761.586 474.565 762.54 477.604C762.825 478.512 763.686 478.961 764.603 478.775C773.513 476.967 782.113 473.432 789.601 468.255C793.576 465.506 797.044 462.106 801.014 459.357C802.863 458.077 804.843 456.929 806.969 456.177C808.932 455.482 811.692 454.673 813.754 455.365C815.505 455.952 815.831 458.072 815.467 459.664C814.88 462.229 813.216 464.427 812.525 466.974C812.117 468.475 813.709 469.476 814.987 468.868C817.537 467.655 822.073 465.805 823.549 469.461C824.849 472.684 822.094 475.827 820.175 478.122C818.949 479.588 820.451 481.604 822.206 480.755C823.473 480.143 824.915 479.394 826.369 479.613C828.042 479.866 827.991 481.172 827.721 482.571C827.166 485.459 825.739 488.045 823.727 490.171L826.589 491.356C826.659 490.02 828.945 490.778 829.515 491.167C830.333 491.727 830.963 492.613 831.419 493.483C831.986 494.564 832.166 495.766 831.994 496.815C831.491 499.877 828.971 502.385 826.713 504.353C820.754 509.547 813.311 513.112 806.173 516.375C802.896 517.872 799.121 519.061 796.225 521.211C793.588 523.167 792.63 526.036 791.625 529.031C790.528 532.298 789.397 535.553 788.231 538.795C783.32 552.446 777.785 565.874 771.519 578.96C760.272 602.452 746.986 627.672 723.515 640.972C718.008 644.093 712.092 646.452 705.905 647.818C698.835 649.378 691.56 649.409 684.362 649.013C670.466 648.25 656.68 646.052 643.15 642.828C616.017 636.363 590.043 625.862 564.764 614.222C561.718 612.82 558.681 611.399 555.649 609.968C553.709 609.051 552.005 611.94 553.957 612.862Z" fill="#FF008C"/>
<path d="M794.991 499.413C789.705 493.673 782.523 490.249 775.306 487.598C773.51 486.938 771.698 486.325 769.879 485.733C769.133 485.49 768.022 485.341 767.449 484.768C766.996 484.314 766.833 483.492 766.688 482.885C765.995 480.006 766.065 476.923 765.105 474.111C764.412 472.08 761.172 472.952 761.872 475.002C762.861 477.901 762.731 481.076 763.516 484.027C763.97 485.73 764.759 487.263 766.403 488.055C768.182 488.911 770.23 489.362 772.094 490.006C779.576 492.59 787.16 495.855 792.62 501.784C794.085 503.374 796.452 500.998 794.991 499.413Z" fill="#FF008C"/>
<path d="M813.583 465.586C813.052 466.437 812.052 467.147 811.219 467.817C810.211 468.629 809.192 469.427 808.161 470.209C806.021 471.83 803.837 473.392 801.614 474.897C800.865 475.405 800.534 476.373 801.013 477.191C801.447 477.934 802.553 478.303 803.306 477.793C805.662 476.197 807.974 474.539 810.235 472.814C811.396 471.928 812.547 471.03 813.683 470.113C814.732 469.268 815.756 468.437 816.478 467.279C816.957 466.51 816.642 465.433 815.877 464.985C815.074 464.515 814.063 464.816 813.583 465.586Z" fill="#FF008C"/>
<path d="M820.052 478.072C818.639 479.121 817.145 480.055 815.58 480.861C813.938 481.707 812.701 482.215 810.89 482.8C810.057 483.069 809.432 483.974 809.719 484.862C809.989 485.696 810.888 486.322 811.782 486.033C815.344 484.883 818.735 483.2 821.744 480.968C822.446 480.447 822.873 479.492 822.345 478.674C821.897 477.979 820.805 477.513 820.052 478.072Z" fill="#FF008C"/>
<path d="M824.794 488.224C824.468 488.522 824.136 488.815 823.798 489.1C823.639 489.235 823.478 489.368 823.316 489.499C823.214 489.582 823.112 489.663 823.01 489.744C822.921 489.815 822.84 489.879 822.978 489.772C822.271 490.319 821.537 490.831 820.787 491.316C819.269 492.297 817.673 493.15 816.021 493.881C815.216 494.237 814.967 495.473 815.419 496.175C815.957 497.008 816.852 497.157 817.713 496.776C821.175 495.244 824.369 493.148 827.165 490.595C827.814 490.002 827.812 488.817 827.165 488.224C826.471 487.586 825.487 487.591 824.794 488.224Z" fill="#FF008C"/>
<path d="M331.377 539.923C330.5 501.277 339.514 459.935 374.787 434.847C390.92 423.372 410.189 416.002 429.922 411.016C444.576 407.313 459.715 404.847 474.922 405.104C508.579 405.673 541.639 420.326 562.87 444.084C582.552 466.109 588.461 496.798 592.376 524.235C599.311 572.848 607.992 621.254 613.651 670.015C615.938 689.73 623.934 713.618 608.52 729.79C592.127 746.99 567.776 756.451 544.017 761.99C493.11 773.859 438.697 771.143 388.378 757.357C379.795 755.005 371.004 752.168 364.612 746.452C355.47 738.277 357.234 725.366 355.684 714.631C353.66 700.608 351.908 686.55 349.945 672.519C347.044 651.785 344.019 631.065 340.87 610.36C337.704 589.542 333.578 568.647 331.831 547.673C331.617 545.093 331.436 542.511 331.377 539.923Z" fill="white"/>
<path d="M333.048 539.923C332.423 510.96 337.318 480.594 354.823 456.737C364.492 443.56 377.636 433.712 392.148 426.404C408.717 418.06 426.948 412.706 445.162 409.396C463.05 406.147 481.333 405.709 499.144 409.647C514.966 413.146 530.103 419.683 543.366 429.011C556.617 438.33 567.539 450.379 574.812 464.894C582.053 479.344 585.9 495.266 588.639 511.112C591.818 529.508 594.178 548.062 597.045 566.51C600.131 586.365 603.28 606.212 606.167 626.098C607.614 636.062 608.995 646.037 610.265 656.025C611.353 664.58 612.294 673.138 613.683 681.651C615.979 695.729 618.984 712.088 610.449 724.747C605.993 731.357 598.944 736.65 592.348 740.966C585.495 745.451 578.115 749.115 570.504 752.124C553.954 758.668 536.321 762.524 518.734 764.987C481.156 770.249 442.586 768.069 405.588 759.888C396.712 757.926 387.691 755.866 379.142 752.737C371.672 750.004 363.895 745.807 360.752 738.066C358.062 731.438 358.373 724.061 357.652 717.067C356.651 707.345 355.006 697.649 353.714 687.96C351.078 668.205 348.238 648.476 345.312 628.762C342.364 608.891 338.861 589.103 336.007 569.221C334.616 559.53 333.312 549.72 333.048 539.923C332.99 537.769 329.637 537.761 329.695 539.923C329.969 550.137 331.368 560.359 332.824 570.461C334.298 580.693 336.056 590.881 337.713 601.084C341.028 621.506 343.937 641.999 346.845 662.482C348.299 672.724 349.695 682.973 351.062 693.226C352.296 702.482 353.972 711.758 354.633 721.074C355.149 728.33 355.415 736.052 359.214 742.489C363.392 749.569 371.339 753.504 378.809 756.173C387.613 759.318 396.873 761.426 405.997 763.406C415.487 765.467 425.062 767.116 434.692 768.374C453.893 770.883 473.318 771.744 492.661 770.782C511.815 769.829 530.971 767.136 549.554 762.358C566.011 758.127 582.394 752.032 596.413 742.259C602.777 737.822 609.362 732.573 613.633 726.003C617.71 719.731 619.271 712.265 619.423 704.87C619.583 697.128 618.326 689.42 617.086 681.803C615.653 673.005 614.657 664.167 613.529 655.326C608.33 614.613 601.375 574.156 595.402 533.556C590.58 500.782 585.799 465.782 562.001 440.673C539.064 416.473 505.295 403.264 472.152 403.41C452.62 403.496 433.007 407.661 414.497 413.711C397.627 419.225 381.082 426.953 367.417 438.44C343.82 458.277 332.984 487.977 330.355 517.993C329.716 525.284 329.537 532.607 329.695 539.923C329.741 542.077 333.095 542.085 333.048 539.923Z" fill="#FF008C"/>
<path d="M331.377 539.923C330.5 501.277 339.514 459.935 374.787 434.847C390.92 423.372 410.189 416.002 429.922 411.016C444.576 407.313 459.715 404.847 474.922 405.104C508.579 405.673 541.639 420.326 562.87 444.084C582.552 466.109 588.461 496.798 592.376 524.235C599.311 572.848 607.992 621.254 613.651 670.015C615.938 689.73 623.934 713.618 608.52 729.79C592.127 746.99 567.776 756.451 544.017 761.99C493.11 773.859 438.697 771.143 388.378 757.357C379.795 755.005 371.004 752.168 364.612 746.452C355.47 738.277 357.234 725.366 355.684 714.631C353.66 700.608 351.908 686.55 349.945 672.519C347.044 651.785 344.019 631.065 340.87 610.36C337.704 589.542 333.578 568.647 331.831 547.673C331.617 545.093 331.436 542.511 331.377 539.923Z" fill="white"/>
<path d="M333.048 539.923C332.423 510.96 337.318 480.594 354.823 456.737C364.492 443.56 377.636 433.712 392.148 426.404C408.717 418.06 426.948 412.706 445.162 409.396C463.05 406.147 481.333 405.709 499.144 409.647C514.966 413.146 530.103 419.683 543.366 429.011C556.617 438.33 567.539 450.379 574.812 464.894C582.053 479.344 585.9 495.266 588.639 511.112C591.818 529.508 594.178 548.062 597.045 566.51C600.131 586.365 603.28 606.212 606.167 626.098C607.614 636.062 608.995 646.037 610.265 656.025C611.353 664.58 612.294 673.138 613.683 681.651C615.979 695.729 618.984 712.088 610.449 724.747C605.993 731.357 598.944 736.65 592.348 740.966C585.495 745.451 578.115 749.115 570.504 752.124C553.954 758.668 536.321 762.524 518.734 764.987C481.156 770.249 442.586 768.069 405.588 759.888C396.712 757.926 387.691 755.866 379.142 752.737C371.672 750.004 363.895 745.807 360.752 738.066C358.062 731.438 358.373 724.061 357.652 717.067C356.651 707.345 355.006 697.649 353.714 687.96C351.078 668.205 348.238 648.476 345.312 628.762C342.364 608.891 338.861 589.103 336.007 569.221C334.616 559.53 333.312 549.72 333.048 539.923C332.99 537.769 329.637 537.761 329.695 539.923C329.969 550.137 331.368 560.359 332.824 570.461C334.298 580.693 336.056 590.881 337.713 601.084C341.028 621.506 343.937 641.999 346.845 662.482C348.299 672.724 349.695 682.973 351.062 693.226C352.296 702.482 353.972 711.758 354.633 721.074C355.149 728.33 355.415 736.052 359.214 742.489C363.392 749.569 371.339 753.504 378.809 756.173C387.613 759.318 396.873 761.426 405.997 763.406C415.487 765.467 425.062 767.116 434.692 768.374C453.893 770.883 473.318 771.744 492.661 770.782C511.815 769.829 530.971 767.136 549.554 762.358C566.011 758.127 582.394 752.032 596.413 742.259C602.777 737.822 609.362 732.573 613.633 726.003C617.71 719.731 619.271 712.265 619.423 704.87C619.583 697.128 618.326 689.42 617.086 681.803C615.653 673.005 614.657 664.167 613.529 655.326C608.33 614.613 601.375 574.156 595.402 533.556C590.58 500.782 585.799 465.782 562.001 440.673C539.064 416.473 505.295 403.264 472.152 403.41C452.62 403.496 433.007 407.661 414.497 413.711C397.627 419.225 381.082 426.953 367.417 438.44C343.82 458.277 332.984 487.977 330.355 517.993C329.716 525.284 329.537 532.607 329.695 539.923C329.741 542.077 333.095 542.085 333.048 539.923Z" fill="#FF008C"/>
<path d="M609.015 326.716C621.147 329.648 633.279 332.58 645.411 335.513C645.938 335.64 646.49 335.78 646.878 336.129C647.562 336.744 647.487 337.748 647.397 338.619C647.031 342.158 646.959 345.941 648.151 349.361C649.028 351.877 650.829 354.249 653.478 355.326C657.478 356.953 662.355 355.17 665.26 352.187C668.164 349.204 669.545 345.276 670.851 341.472C671.235 340.353 692.292 345.438 694.294 345.972C697.779 346.901 701.177 348.135 704.733 348.81C706.822 349.207 710.095 349.041 711.692 350.575C715.25 353.99 711.234 365.766 710.446 369.949C708.989 377.676 707.037 385.326 704.599 392.846C701.268 403.12 696.171 414.06 685.636 418.846C682.583 420.233 679.239 421.008 675.888 421.597C651.29 425.915 626.021 420.602 601.652 415.315C596.214 414.135 590.704 412.931 585.793 410.502C585.338 410.277 584.853 410.004 584.689 409.557C584.559 409.202 584.662 408.816 584.766 408.453C587.304 399.583 589.843 390.713 592.382 381.842C586.59 382.49 581.614 377.63 579.987 372.533C578.188 366.902 579.447 360.259 584.163 356.261C588.879 352.263 597.174 351.881 601.577 356.164C602.991 353.623 608.145 326.505 609.015 326.716Z" fill="#84FF20"/>
<path d="M497.854 386.024C491.263 383.892 484.669 381.743 478.266 379.173C472.583 376.891 468.182 373.985 463.123 370.949C453.483 365.162 446.929 356.088 442.911 346.374C441.155 342.13 439.817 337.712 439.415 333.192C438.632 324.393 441.406 315.677 444.439 307.291C447.834 297.907 453.242 289.804 459.126 281.547C459.305 281.296 459.501 281.031 459.802 280.91C460.181 280.758 460.618 280.871 461.012 280.985C467.957 283.002 473.973 286.849 480.902 289.222C482.754 289.856 503.822 295.595 503.919 294.963C504.839 288.991 510.289 283.826 516.812 282.745C523.336 281.663 530.439 284.747 533.616 290.041C536.794 295.334 535.805 302.436 531.277 306.842C541.576 310.881 551.821 315.032 562.011 319.293C563.175 319.779 564.462 320.394 564.814 321.513C565.065 322.308 564.767 323.151 564.471 323.933C562.569 328.965 560.667 333.996 558.765 339.028C557.477 342.434 556.972 347.475 554.653 350.379C552.979 347.991 550.632 346.258 547.584 345.495C544.623 344.755 541.449 344.954 538.479 345.667C536.511 346.139 534.586 346.843 532.946 347.94C526.435 352.294 526.445 361.218 533.758 364.76C536.051 365.87 538.597 366.478 540.947 367.486C541.91 367.9 542.913 368.458 543.257 369.374C543.514 370.061 543.346 370.813 543.173 371.521C541.285 379.234 539.037 386.874 536.439 394.414C536.179 395.168 535.828 396.012 535.022 396.308C534.453 396.518 533.809 396.39 533.213 396.256C521.196 393.573 509.513 389.795 497.854 386.024Z" fill="#84FF20"/>
<path d="M591.085 218.252C593.729 213.383 594.711 207.263 596.214 202.049C597.276 198.366 598.588 194.64 599.339 190.893C599.827 188.497 600.057 186.122 600.692 183.762C600.105 183.387 599.501 183.034 598.884 182.701C591.94 178.947 583.772 177.908 576.267 175.441C572.661 174.255 568.794 174.082 565.015 173.303C560.52 172.376 556.026 171.381 551.435 170.929C545.335 170.328 539.167 170.694 533.071 171.327C528.059 171.847 523.026 172.558 518.31 174.186C505.711 178.534 496.817 188.877 490.21 199.559C480.716 214.908 474.561 231.958 472.203 249.438C475.625 250.402 479.049 251.253 482.504 252.108C494.275 255.018 506.063 257.931 518.06 259.94C518.025 255.526 521.154 251.226 525.635 249.529C530.116 247.833 535.676 248.843 539.096 251.976C543.377 255.897 543.878 262.229 542.117 267.518C542.279 267.032 561.744 272.268 563.52 272.775C569.084 274.36 575.794 277.693 576.896 269.925C577.996 262.163 580.043 254.512 582.986 247.158C589.611 246.382 596.38 244.217 600.714 239.595C605.048 234.973 606.09 227.478 601.699 222.901C599.065 220.156 595.032 218.873 591.085 218.252Z" fill="#84FF20"/>
<path d="M675.416 312.597C678.049 310.231 680.679 307.435 679.455 306.999C692.185 311.527 705.146 315.516 718.284 318.948C718.744 319.068 726.742 304.637 727.504 303.255C729.756 299.169 731.028 294.565 732.998 290.298C737.765 279.979 740.689 268.758 739.736 257.513C739.023 249.102 735.931 240.758 730.575 233.844C726.334 228.371 719.628 222.336 713.483 218.602C704.8 213.325 694.726 209.306 685.091 205.72C682.685 204.825 655.959 195.972 655.615 196.958C652.527 205.791 648.921 214.559 645.203 223.168C652.766 226.824 656.754 235.668 654.191 243.102C651.628 250.535 642.802 255.724 634.297 254.798C632.969 260.327 630.794 265.695 628.65 270.996C627.574 273.656 626.53 276.336 625.481 278.996C624.529 281.41 623.405 283.656 625.311 286.034C626.374 287.359 628.023 288.174 629.633 288.913C636.605 292.11 643.898 294.683 651.178 297.251C650.663 299.535 650.346 301.857 650.233 304.187C650.168 305.538 650.174 306.912 650.575 308.214C651.138 310.037 652.442 311.599 653.898 312.953C655.076 314.047 656.379 315.042 657.843 315.799C661.873 317.883 667.013 317.816 671.145 316.004C671.584 315.811 673.501 314.318 675.416 312.597Z" fill="#84FF20"/>
<path d="M391.249 627.009C346.303 633.508 299.758 637.72 255.718 627.283C249.509 625.811 243.343 624.039 237.67 621.313C224.66 615.061 214.954 604.052 208.768 591.909C202.583 579.766 199.642 566.472 197.612 553.217C193.914 529.067 192.804 504.007 193.53 479.721C193.581 477.994 193.643 476.219 192.999 474.594C192.204 472.586 190.433 471.052 188.76 469.556C181.948 463.464 156.311 441.685 170.473 433.076C171.718 432.318 173.301 431.873 174.728 432.288C176.154 432.704 177.227 434.196 176.698 435.471C175.224 432.321 174.823 428.763 175.564 425.407C175.764 424.502 176.076 423.564 176.821 422.938C177.885 422.043 179.583 422.042 180.905 422.583C182.226 423.124 183.258 424.104 184.255 425.06C183.344 422.638 182.42 420.115 182.745 417.573C183.071 415.03 185.038 412.467 187.833 412.166C190.736 411.853 193.214 413.935 195.234 415.856C195.512 413.383 194.769 410.895 194.949 408.414C195.129 405.934 196.722 403.187 199.437 402.894C200.421 402.788 201.414 403.025 202.34 403.348C206.141 404.675 209.154 407.423 211.494 410.453C213.834 413.483 215.608 416.839 217.717 420.006C223.016 427.959 230.489 434.704 239.273 439.462C242.188 435.636 246.665 425.821 253.723 429.993C257.177 432.035 256.947 436.605 256.474 440.327C253.471 463.942 256.897 487.798 260.318 511.366C262.987 529.753 265.656 548.14 268.325 566.527C302.038 566.192 335.751 565.856 369.464 565.521" fill="white"/>
<path d="M390.8 625.392C362.829 629.431 334.581 632.55 306.277 631.824C292.257 631.465 278.247 630.148 264.474 627.46C251.658 624.958 238.664 621.709 228.226 613.462C218.907 606.098 212.001 596.085 207.489 585.159C202.233 572.432 199.887 558.671 198.14 545.082C196.3 530.774 195.335 516.357 195.069 501.936C194.938 494.851 194.978 487.763 195.175 480.68C195.264 477.483 195.297 474.449 193.283 471.78C191.98 470.051 190.282 468.671 188.671 467.24C183.234 462.412 177.791 457.423 173.359 451.63C171.212 448.824 169.093 445.686 168.235 442.212C167.589 439.599 168 437.187 170.156 435.344C170.9 434.707 171.814 434.118 172.776 433.905C173.52 433.74 175.458 433.825 175.078 435.025L178.142 434.624C176.895 431.862 176.5 428.641 177.218 425.682C178.069 422.174 181.489 424.737 183.066 426.246C184.193 427.324 186.486 426.263 185.868 424.614C184.742 421.611 183.097 417.448 185.905 414.839C188.642 412.297 191.96 415.074 194.045 417.042C195.161 418.096 196.782 417.283 196.907 415.856C197.125 413.366 196.367 410.892 196.622 408.414C196.775 406.932 197.561 405.198 199.069 404.682C200.932 404.044 203.345 405.479 204.867 406.448C206.668 407.597 208.216 409.104 209.582 410.739C212.605 414.354 214.655 418.676 217.401 422.491C219.96 426.048 222.888 429.329 226.15 432.253C229.888 435.604 234.019 438.505 238.423 440.909C239.288 441.381 240.158 441.051 240.717 440.308C243.282 436.895 247.959 427.122 253.461 431.865C254.814 433.032 255.049 434.991 255.061 436.671C255.075 438.877 254.683 441.071 254.453 443.26C253.855 448.953 253.614 454.681 253.643 460.405C253.757 483.271 257.852 505.991 261.128 528.557C262.987 541.362 264.845 554.167 266.704 566.973C266.807 567.682 267.653 568.21 268.321 568.203C294.561 567.942 320.8 567.681 347.04 567.42C354.514 567.346 361.987 567.271 369.46 567.197C371.617 567.175 371.622 563.822 369.46 563.844C343.22 564.105 316.981 564.366 290.741 564.627C283.267 564.702 275.794 564.776 268.321 564.85L269.937 566.081C266.464 542.15 262.69 518.24 259.603 494.257C258.074 482.382 256.925 470.427 256.997 458.443C257.032 452.469 257.381 446.5 258.116 440.571C258.597 436.683 258.846 431.913 255.461 429.182C251.972 426.366 247.64 427.044 244.45 429.879C241.683 432.338 240.016 435.696 237.822 438.616L240.116 438.014C231.647 433.391 224.215 426.87 218.909 418.779C216.094 414.486 213.725 409.821 209.966 406.239C206.935 403.352 201.645 399.744 197.324 401.785C195.293 402.744 193.916 404.875 193.462 407.031C192.844 409.962 193.812 412.908 193.554 415.856L196.416 414.671C193.077 411.518 188.324 408.624 184.062 412.019C179.734 415.467 180.952 421.019 182.634 425.506L185.437 423.874C183.839 422.347 182.12 420.902 179.855 420.608C177.763 420.337 175.635 421.132 174.617 423.066C173.631 424.937 173.445 427.372 173.538 429.449C173.645 431.856 174.259 434.129 175.247 436.317C175.878 437.715 177.914 437.171 178.311 435.916C179.333 432.691 176.067 430.27 173.129 430.474C170.823 430.633 168.568 432.016 167.028 433.708C164.706 436.261 164.192 439.608 164.953 442.9C165.799 446.561 167.918 449.914 170.138 452.889C172.748 456.389 175.708 459.609 178.814 462.673C181.277 465.103 183.84 467.427 186.427 469.725C188.044 471.16 189.927 472.54 191.041 474.419C191.85 475.782 191.898 477.31 191.873 478.854C191.84 480.824 191.763 482.794 191.726 484.764C191.438 499.731 191.857 514.718 193.137 529.634C194.383 544.151 196.122 558.879 199.892 572.982C203.272 585.625 208.729 597.75 217.363 607.691C221.372 612.307 226.034 616.381 231.206 619.649C236.946 623.276 243.317 625.705 249.839 627.514C263.893 631.41 278.509 633.5 293.037 634.54C322.367 636.641 351.813 634.038 380.883 630.134C384.488 629.649 388.091 629.145 391.691 628.625C392.594 628.495 393.072 627.359 392.862 626.563C392.608 625.598 391.691 625.263 390.8 625.392Z" fill="#FF008C"/>
<path d="M525.258 789.714C541.26 791.926 556.842 795.902 571.443 801.5C581.034 805.177 591.563 809.668 601.829 807.028C605.557 806.07 609.063 804.047 610.635 801.142C612.665 797.394 611.144 793.105 609.233 789.387C604.847 780.85 598.468 773.017 590.526 766.413" fill="#FF008C"/>
<path d="M524.81 791.331C534.229 792.643 543.561 794.552 552.725 797.099C557.202 798.344 561.638 799.739 566.021 801.286C570.34 802.811 574.572 804.569 578.889 806.097C587.242 809.052 596.801 811.229 605.31 807.599C608.796 806.112 612.107 803.467 613 799.607C613.984 795.347 612.079 791.121 610.104 787.447C605.52 778.92 599.122 771.425 591.71 765.228C590.065 763.853 587.681 766.213 589.339 767.599C595.541 772.785 601.004 778.834 605.245 785.731C607.214 788.933 609.6 792.657 609.891 796.498C610.192 800.458 607.38 803.092 603.98 804.549C596.15 807.904 587.186 805.499 579.563 802.786C571.365 799.87 563.347 796.637 554.965 794.246C545.369 791.509 535.583 789.475 525.702 788.098C524.798 787.972 523.912 788.318 523.639 789.268C523.415 790.051 523.915 791.206 524.81 791.331Z" fill="#FF008C"/>
<path d="M203.843 454.627C211.011 450.614 219.36 449.687 227.435 449.384C229.467 449.307 231.718 449.533 233.714 449.124C235.435 448.772 236.605 447.518 237.56 446.121C239.232 443.678 240.158 440.697 241.994 438.371C243.317 436.695 240.96 434.306 239.623 436C237.768 438.351 236.662 441.185 235.111 443.73C234.794 444.25 234.466 444.762 234.042 445.203C233.318 445.957 232.52 445.904 231.53 445.923C229.443 445.963 227.357 446.016 225.273 446.129C217.303 446.557 209.205 447.783 202.15 451.732C200.267 452.786 201.956 455.683 203.843 454.627Z" fill="#FF008C"/>
<path d="M193.115 415.111C193.402 416.409 194.139 417.534 194.842 418.641C195.567 419.781 196.31 420.911 197.069 422.03C198.571 424.242 200.139 426.407 201.766 428.528C202.316 429.246 203.209 429.628 204.06 429.13C204.766 428.717 205.216 427.559 204.661 426.836C203.084 424.78 201.562 422.682 200.103 420.541C199.387 419.491 198.687 418.432 198.001 417.362C197.368 416.374 196.605 415.382 196.348 414.219C196.153 413.335 195.127 412.817 194.286 413.048C193.374 413.299 192.919 414.223 193.115 415.111Z" fill="#FF008C"/>
<path d="M183.171 426.242C185.348 429.369 188.037 432.035 191.143 434.237C191.861 434.746 193.04 434.388 193.437 433.635C193.893 432.773 193.602 431.885 192.836 431.342C192.661 431.218 192.487 431.093 192.315 430.966C192.229 430.903 192.144 430.839 192.058 430.775C191.909 430.662 191.865 430.639 192.042 430.765C191.697 430.519 191.373 430.234 191.049 429.961C190.387 429.401 189.748 428.813 189.136 428.199C188.543 427.604 187.975 426.985 187.435 426.343C187.3 426.183 187.168 426.021 187.037 425.859C186.971 425.778 186.907 425.695 186.842 425.614C186.644 425.367 186.96 425.772 186.836 425.608C186.575 425.258 186.316 424.908 186.067 424.549C185.567 423.831 184.575 423.43 183.773 423.948C183.059 424.408 182.636 425.472 183.171 426.242Z" fill="#FF008C"/>
<path d="M174.913 434.162C176.675 437.384 179.022 440.298 181.764 442.737C182.419 443.319 183.498 443.43 184.135 442.737C184.72 442.1 184.835 440.988 184.135 440.366C182.822 439.198 181.602 437.928 180.501 436.558C180.442 436.484 180.383 436.41 180.325 436.337C180.127 436.09 180.402 436.443 180.284 436.286C180.158 436.116 180.03 435.948 179.905 435.778C179.656 435.437 179.415 435.092 179.181 434.741C178.69 434.005 178.233 433.246 177.809 432.47C177.387 431.699 176.261 431.387 175.515 431.868C174.734 432.372 174.463 433.338 174.913 434.162Z" fill="#FF008C"/>
<path d="M390.393 797.072C354.194 808.682 295.13 814.86 275.48 775.88C267.104 759.265 271.995 738.708 284.625 724.491C297.255 710.273 316.483 701.862 336.178 698.223C355.497 694.654 377.309 693.988 396.552 697.577C416.878 701.368 439.696 701.416 460.498 702.204C500.045 703.702 534.849 695.094 572.18 684.141C592.981 678.038 613.76 671.417 635.402 668.637C657.044 665.857 679.958 667.177 699.371 676.31C705.419 679.155 711.103 682.765 715.598 687.415C731.285 703.643 728.853 729.889 715.02 747.455C701.186 765.022 678.581 775.195 655.805 781.341C611.333 793.342 563.934 792.434 517.722 788.759C499.482 787.309 480.351 785.562 463.51 792.097C446.098 798.854 433.207 813.777 415.004 818.507C396.808 823.235 389.692 811.79 390.376 797.116C390.694 790.297 392.456 783.521 395.518 777.29C396.226 775.848 406.723 760.791 407.426 761.589C405.108 758.957 399.579 759.821 397.981 756.779C397.333 755.546 397.628 754.094 397.935 752.757C399.404 746.226 399.073 739.2 402.52 733.172C402.833 732.624 403.182 732.071 403.72 731.695C404.441 731.19 405.391 731.072 406.294 730.971C492.132 721.417 565.647 718.827 673.225 704.452" fill="white"/>
<path d="M389.952 795.456C377.281 799.501 364.156 802.317 350.906 803.549C337.461 804.798 323.589 804.547 310.505 800.923C298.187 797.511 286.805 790.718 279.708 779.855C270.262 765.397 271.504 747.471 280.374 733.023C289.769 717.719 306.48 708.247 323.25 703.101C342.149 697.303 362.874 695.795 382.519 697.401C392.282 698.2 401.853 700.37 411.592 701.401C421.944 702.497 432.353 702.948 442.752 703.297C453.12 703.646 463.512 704.201 473.887 704.01C483.903 703.825 493.895 702.995 503.821 701.651C523.906 698.933 543.608 694.048 563.082 688.517C583.122 682.825 602.963 676.184 623.456 672.252C643.091 668.485 663.703 667.353 683.235 672.341C700.142 676.658 717.985 685.85 723.151 703.788C727.649 719.406 722.314 736.572 711.898 748.619C700.22 762.127 683.708 770.524 667.038 776.185C627.866 789.488 585.346 790.792 544.394 788.819C534.032 788.32 523.691 787.547 513.35 786.734C503.384 785.952 493.344 785.267 483.358 786.102C473.94 786.889 464.829 789.144 456.408 793.491C448.781 797.428 441.906 802.61 434.717 807.259C427.568 811.882 419.801 816.234 411.28 817.591C405.017 818.588 398.448 817.236 394.961 811.5C391.313 805.5 391.537 797.556 392.768 790.905C393.583 786.5 394.894 781.827 397.101 777.9C398.01 776.282 399.155 774.766 400.216 773.247C401.775 771.013 403.363 768.796 405.019 766.632C405.661 765.792 406.313 764.956 407.006 764.157C407.231 763.898 407.599 763.615 407.772 763.317C407.78 763.303 408.04 763.1 408.045 763.055C408.034 763.146 407.153 763.401 406.584 763.036C408.206 764.076 409.942 761.74 408.616 760.403C407.443 759.221 405.993 758.598 404.417 758.132C402.901 757.684 399.935 757.489 399.352 755.7C398.981 754.56 399.642 752.88 399.855 751.744C400.085 750.518 400.263 749.284 400.433 748.049C400.789 745.453 401.084 742.845 401.665 740.286C402.158 738.113 402.898 734.431 404.846 733.137C405.841 732.475 407.214 732.546 408.384 732.417C409.769 732.264 411.155 732.113 412.541 731.963C417.345 731.443 422.151 730.94 426.959 730.452C445.339 728.585 463.74 726.938 482.148 725.366C520.722 722.072 559.316 719.005 597.829 715.032C623.005 712.435 648.142 709.476 673.229 706.128C675.336 705.847 675.364 702.49 673.229 702.775C629.151 708.657 584.923 713.215 540.625 717.066C501.82 720.439 462.977 723.395 424.227 727.378C418.712 727.944 413.199 728.531 407.689 729.141C405.21 729.415 402.925 729.545 401.407 731.783C399.83 734.109 398.938 737.044 398.349 739.759C397.713 742.689 397.435 745.68 396.989 748.641C396.6 751.222 395.347 754.334 396.244 756.908C397.827 761.453 403.414 759.922 406.245 762.774L408.276 760.141C406.703 759.133 405.213 761.098 404.341 762.132C402.577 764.224 400.964 766.453 399.365 768.672C397.846 770.78 396.342 772.904 394.92 775.078C393.176 777.745 392.042 780.848 391.078 783.868C387.274 795.798 386.302 816.08 401.538 820.499C409.065 822.682 417.375 820.054 424.249 816.966C432.579 813.224 439.933 807.727 447.518 802.721C455.43 797.499 463.613 793.092 472.938 791.01C483.412 788.671 494.281 788.836 504.934 789.486C526.744 790.816 548.437 792.799 570.312 792.869C592.06 792.937 613.868 791.554 635.287 787.662C654.645 784.145 674.219 778.824 691.463 769.111C706.511 760.635 719.936 748.22 725.45 731.454C730.522 716.035 728.356 698.207 716.788 686.23C710.253 679.463 701.586 674.977 692.832 671.788C683.344 668.332 673.288 666.539 663.226 665.916C642.029 664.604 620.989 668.681 600.613 674.171C579.629 679.825 558.985 686.638 537.845 691.728C517.134 696.715 496.044 700.174 474.712 700.64C463.791 700.879 452.846 700.29 441.933 699.917C431.132 699.547 420.32 699.056 409.578 697.826C399.179 696.636 388.997 694.362 378.52 693.773C367.775 693.169 356.964 693.624 346.29 694.976C327.555 697.35 308.683 702.621 293.421 714.18C279.464 724.749 269.341 740.822 269.656 758.768C269.917 773.676 278.403 787.167 290.497 795.503C301.708 803.23 315.489 806.392 328.899 807.289C343.342 808.257 357.951 806.651 372.081 803.657C378.414 802.316 384.677 800.658 390.843 798.689C392.891 798.035 392.016 794.797 389.952 795.456Z" fill="#FF008C"/>
<path d="M474.297 789.016C470.623 789.736 467.019 790.737 463.514 792.097C446.48 798.708 434.397 810.951 420.861 821.936C417.285 824.838 413.324 827.513 408.725 828.736C404.126 829.959 398.767 829.512 395.117 826.688C390.118 822.82 389.72 816.04 389.826 810.071C390.028 798.723 390.742 786.417 396.286 776.046C397.069 774.581 407.188 761.337 407.429 761.589C405.112 758.958 399.583 759.821 397.984 756.779C397.336 755.546 397.631 754.095 397.939 752.757C399.408 746.226 399.077 739.2 402.523 733.172C402.837 732.624 403.186 732.072 403.724 731.695C404.444 731.19 405.394 731.072 406.297 730.972C425.489 728.836 444.712 726.93 463.96 725.256C463.96 725.256 462.451 755.5 466.329 767.922C470.207 780.344 474.297 789.016 474.297 789.016Z" fill="#FF008C"/>
<path d="M473.847 787.399C461.541 789.852 450.588 795.894 440.678 803.429C435.977 807.004 431.479 810.832 426.977 814.651C422.455 818.487 417.977 822.734 412.65 825.437C407.795 827.9 401.337 828.915 396.565 825.678C392.22 822.73 391.544 817.029 391.488 812.206C391.42 806.293 391.684 800.28 392.478 794.419C393.283 788.488 394.679 782.086 397.742 776.868C399.283 774.244 401.343 771.842 403.188 769.432C404.312 767.963 405.446 766.502 406.604 765.06C407.02 764.543 407.437 764.025 407.871 763.521C408.009 763.361 408.166 763.209 408.296 763.041C408.332 762.994 408.394 762.959 408.424 762.908C408.45 762.882 408.477 762.857 408.504 762.833C408.103 763.218 407.595 763.342 406.979 763.206C408.634 763.791 409.691 761.547 408.611 760.404C407.095 758.799 404.937 758.269 402.879 757.721C402.009 757.49 401.065 757.282 400.292 756.803C399.244 756.154 399.175 755.172 399.375 754.016C399.889 751.055 400.405 748.119 400.819 745.138C401.229 742.173 401.723 739.17 402.829 736.373C403.249 735.309 403.817 733.511 404.888 732.949C405.421 732.669 406.203 732.659 406.785 732.594C407.769 732.483 408.754 732.376 409.738 732.267C413.183 731.889 416.63 731.518 420.077 731.155C426.972 730.427 433.871 729.73 440.772 729.062C448.496 728.315 456.224 727.606 463.955 726.933L462.279 725.257C461.946 731.969 461.901 738.712 462.074 745.429C462.21 750.69 462.503 755.956 463.223 761.172C464.017 766.922 465.905 772.334 467.904 777.767C469.406 781.847 470.992 785.926 472.845 789.862C473.764 791.813 476.655 790.113 475.741 788.17C474.313 785.138 473.077 782.008 471.886 778.877C469.791 773.367 467.64 767.754 466.699 761.911C465.155 752.325 465.217 742.407 465.399 732.723C465.445 730.234 465.508 727.743 465.632 725.257C465.674 724.407 464.828 723.504 463.955 723.58C448.988 724.883 434.033 726.324 419.092 727.906C415.317 728.305 411.543 728.714 407.769 729.132C406.262 729.298 404.554 729.302 403.195 730.054C401.861 730.793 401.102 732.165 400.456 733.492C397.548 739.475 397.558 746.31 396.227 752.716C395.576 755.848 396.246 758.681 399.337 760.067C401.489 761.031 404.556 760.993 406.239 762.775L407.871 759.973C406.686 759.554 405.826 760.757 405.183 761.526C404.159 762.751 403.176 764.012 402.196 765.273C400 768.097 397.809 770.933 395.738 773.85C392.881 777.875 391.342 783.01 390.274 787.773C388.836 794.181 388.384 800.773 388.206 807.322C388.057 812.814 387.822 818.774 390.503 823.768C393.345 829.059 399.271 831.394 405.069 831.011C411.557 830.583 417.111 827.107 422.042 823.122C426.912 819.186 431.609 815.04 436.439 811.054C447.791 801.685 460.084 793.553 474.739 790.632C476.853 790.211 475.958 786.978 473.847 787.399Z" fill="#FF008C"/>
<path d="M316.942 741.545C339.93 738.785 362.925 735.925 386.025 734.269C392.322 733.817 398.627 733.463 404.938 733.272C407.091 733.207 407.1 729.854 404.938 729.919C381.795 730.619 358.722 733.238 335.742 735.943C329.474 736.681 323.209 737.44 316.942 738.192C316.036 738.301 315.276 738.885 315.266 739.869C315.257 740.692 316.044 741.653 316.942 741.545Z" fill="#FF008C"/>
<path d="M503.126 703.134C503.007 706.702 503.519 710.3 504.62 713.695C504.89 714.528 505.793 715.154 506.682 714.866C507.515 714.597 508.142 713.697 507.853 712.804C507.333 711.202 506.941 709.561 506.701 707.893C506.684 707.776 506.682 707.768 506.696 707.868C506.68 707.743 506.665 707.617 506.65 707.491C506.628 707.303 506.608 707.114 506.59 706.925C506.552 706.515 506.521 706.105 506.5 705.694C506.455 704.842 506.451 703.988 506.479 703.134C506.509 702.257 505.687 701.418 504.803 701.458C503.87 701.5 503.158 702.194 503.126 703.134Z" fill="#FF008C"/>
<path d="M266.877 565.301C267.501 570.02 267.973 574.758 268.291 579.508C268.352 580.411 269.018 581.184 269.967 581.184C270.828 581.184 271.705 580.416 271.644 579.508C271.326 574.758 270.854 570.02 270.23 565.301C270.112 564.403 269.545 563.624 268.554 563.624C267.74 563.624 266.758 564.397 266.877 565.301Z" fill="#FF008C"/>
<path d="M692.016 587.179C689.769 591.131 687.932 595.317 686.552 599.649C686.277 600.512 686.875 601.478 687.723 601.711C688.627 601.96 689.509 601.406 689.785 600.54C691.08 596.475 692.802 592.58 694.911 588.872C695.359 588.085 695.098 587.039 694.31 586.578C693.533 586.123 692.465 586.39 692.016 587.179Z" fill="#FF008C"/>
<path d="M365.096 339.303H381.002C383.159 339.303 383.163 335.95 381.002 335.95H365.096C362.939 335.95 362.935 339.303 365.096 339.303Z" fill="#FF008C"/>
<path d="M379.538 381.005C383.072 377.388 386.607 373.772 390.142 370.155C390.774 369.508 390.787 368.43 390.142 367.784C389.505 367.148 388.406 367.134 387.771 367.784C384.236 371.401 380.701 375.017 377.167 378.634C376.534 379.281 376.521 380.359 377.167 381.005C377.803 381.641 378.903 381.654 379.538 381.005Z" fill="#FF008C"/>
<path d="M741.89 208.534C740.717 211.817 739.544 215.1 738.371 218.383C738.075 219.21 738.704 220.254 739.542 220.445C740.483 220.659 741.288 220.16 741.604 219.274C742.777 215.991 743.95 212.708 745.123 209.425C745.419 208.598 744.79 207.554 743.952 207.363C743.011 207.149 742.206 207.648 741.89 208.534Z" fill="#FF008C"/>
<path d="M757.545 249.786C760.351 249.52 763.157 249.254 765.962 248.987C766.833 248.905 767.682 248.275 767.639 247.311C767.601 246.473 766.897 245.546 765.962 245.634C763.157 245.901 760.351 246.167 757.545 246.433C756.675 246.515 755.826 247.145 755.869 248.109C755.906 248.947 756.61 249.875 757.545 249.786Z" fill="#FF008C"/>
<path d="M753.025 278.193C753.536 279.122 754.046 280.051 754.557 280.981C754.757 281.344 755.164 281.642 755.559 281.751C755.96 281.862 756.495 281.812 756.851 281.582C757.209 281.351 757.524 281.008 757.622 280.58C757.723 280.133 757.676 279.695 757.453 279.288C756.942 278.359 756.431 277.43 755.92 276.501C755.72 276.137 755.314 275.839 754.918 275.73C754.517 275.62 753.983 275.67 753.626 275.899C753.268 276.13 752.953 276.474 752.856 276.901C752.754 277.348 752.801 277.786 753.025 278.193Z" fill="#FF008C"/>
<path d="M445.778 787.713C446.026 787.943 446.267 788.18 446.497 788.428C446.618 788.558 446.737 788.691 446.852 788.826C446.904 788.886 446.954 788.947 447.004 789.008C447.016 789.022 447.252 789.324 447.094 789.115C446.952 788.927 447.114 789.143 447.141 789.179C447.199 789.258 447.257 789.338 447.313 789.418C447.403 789.545 447.491 789.675 447.576 789.806C447.767 790.099 447.945 790.401 448.111 790.709C448.266 790.999 448.404 791.297 448.541 791.595C448.637 791.804 448.426 791.3 448.506 791.514C448.539 791.604 448.577 791.693 448.611 791.783C448.665 791.927 448.716 792.072 448.764 792.217C448.98 792.87 449.135 793.541 449.235 794.222C449.291 794.608 449.685 795.036 450.005 795.223C450.364 795.434 450.894 795.523 451.297 795.392C451.703 795.261 452.094 795.01 452.299 794.622C452.524 794.196 452.537 793.802 452.468 793.33C452.024 790.283 450.396 787.425 448.149 785.342C447.506 784.745 446.407 784.657 445.778 785.342C445.183 785.99 445.092 787.076 445.778 787.713Z" fill="white"/>
<path d="M431.162 795.34C431.772 795.887 432.352 796.465 432.894 797.08C433.162 797.385 433.421 797.697 433.671 798.017C433.583 797.905 433.549 797.856 433.654 798C433.72 798.09 433.788 798.18 433.853 798.271C433.971 798.434 434.087 798.599 434.2 798.766C434.636 799.411 435.034 800.083 435.389 800.776C435.571 801.13 435.734 801.492 435.9 801.854C436.004 802.08 435.752 801.481 435.91 801.88C435.943 801.961 435.976 802.043 436.008 802.125C436.088 802.33 436.163 802.536 436.236 802.743C436.527 803.568 437.395 804.207 438.298 803.914C439.113 803.651 439.781 802.738 439.469 801.852C438.268 798.444 436.225 795.383 433.533 792.969C432.88 792.384 431.797 792.277 431.162 792.969C430.575 793.608 430.465 794.715 431.162 795.34Z" fill="white"/>
<path d="M424.436 803.838C424.557 803.973 424.675 804.11 424.79 804.25C424.847 804.319 424.903 804.39 424.959 804.461C424.834 804.299 424.828 804.294 424.941 804.444C425.144 804.739 425.349 805.03 425.534 805.337C425.717 805.642 425.887 805.954 426.042 806.274C426.118 806.432 426.199 806.592 426.262 806.756C426.106 806.349 426.311 806.896 426.338 806.969C426.578 807.627 426.76 808.306 426.876 808.997C426.891 809.083 426.904 809.169 426.917 809.256C426.887 809.026 426.883 809.007 426.906 809.199C426.921 809.372 426.94 809.545 426.951 809.719C426.972 810.067 426.974 810.415 426.964 810.763C426.938 811.641 427.754 812.479 428.641 812.44C429.571 812.398 430.289 811.703 430.317 810.763C430.419 807.325 429.076 804.019 426.807 801.467C426.223 800.81 425.024 800.827 424.436 801.467C423.792 802.169 423.813 803.137 424.436 803.838Z" fill="white"/>
<path d="M384.079 304.632C386.949 306.995 389.82 309.357 392.691 311.719C393.367 312.275 394.409 312.43 395.062 311.719C395.627 311.103 395.785 309.943 395.062 309.348C392.191 306.986 389.32 304.624 386.45 302.261C385.774 301.705 384.732 301.55 384.079 302.261C383.513 302.877 383.356 304.037 384.079 304.632Z" fill="#FF008C"/>
<path d="M556.557 437.611C535.398 417.688 505.405 405.619 474.922 405.103C459.715 404.846 444.576 407.312 429.922 411.015C410.189 416.002 390.92 423.371 374.787 434.846C339.514 459.935 330.5 501.276 331.377 539.923C331.436 542.511 331.616 545.092 331.831 547.673C332.26 552.819 332.834 557.96 333.5 563.097L370.211 565.378C387.189 550.995 397.889 531.337 404.144 511.017C410.4 490.696 412.521 469.542 414.616 448.527C421.338 454.515 430.339 457.824 439.155 460.816C460.737 468.139 483.599 474.525 506.463 471.986C528.461 469.543 550.415 456.774 556.557 437.611Z" fill="#FF008C"/>
<path d="M557.74 436.425C541.549 421.237 520.985 410.922 499.326 406.259C487.731 403.763 475.849 402.939 464.016 403.69C451.016 404.515 438.151 407.022 425.591 410.413C403.34 416.419 380.917 425.708 363.844 441.605C349.357 455.092 339.825 472.895 334.788 491.913C329.502 511.87 328.581 532.99 330.692 553.46C331.024 556.677 331.407 559.889 331.82 563.097C331.942 564.042 332.492 564.711 333.497 564.773C338.869 565.107 344.242 565.441 349.615 565.775C356.236 566.186 362.858 566.598 369.479 567.009C369.693 567.022 369.914 567.053 370.128 567.049C371.171 567.029 371.927 566.115 372.663 565.468C375.263 563.183 377.734 560.751 380.068 558.195C384.766 553.048 388.929 547.404 392.537 541.444C399.87 529.334 404.907 515.95 408.313 502.242C412.206 486.573 414.066 470.49 415.694 454.455C415.895 452.479 416.092 450.503 416.289 448.527L413.427 449.712C421.802 457.084 432.784 460.509 443.19 463.932C454.776 467.743 466.571 471.106 478.66 472.877C499.616 475.946 521.841 473.964 539.664 461.596C548.036 455.786 554.979 447.853 558.171 438.056C558.841 436 555.604 435.119 554.938 437.165C549.356 454.296 531.807 464.734 515.156 468.759C493.064 474.1 469.787 468.84 448.598 462.155C442.715 460.299 436.814 458.397 431.078 456.121C425.611 453.951 420.239 451.251 415.798 447.341C414.649 446.33 413.081 447.07 412.936 448.527C411.154 466.401 409.35 484.352 404.964 501.814C401.148 517.009 395.29 531.736 386.445 544.731C381.525 551.959 375.682 558.524 369.022 564.192L370.208 563.701C359.509 563.036 348.81 562.372 338.111 561.707C336.573 561.611 335.035 561.516 333.497 561.42L335.173 563.097C333.689 551.593 332.73 540.121 333.093 528.517C333.389 519.044 334.354 509.585 336.264 500.296C340.105 481.613 347.88 463.638 360.818 449.431C375.919 432.848 396.796 422.74 417.921 416.135C441.114 408.884 465.99 404.454 490.253 408.013C511.68 411.155 532.514 419.843 549.357 433.537C551.424 435.217 553.426 436.974 555.369 438.796C556.942 440.272 559.317 437.905 557.74 436.425Z" fill="#FF008C"/>
<path d="M455.593 554.04C464.749 563.766 479.507 569.244 492.785 566.872C496.498 566.209 500.049 564.707 502.83 562.12C504.414 560.647 502.039 558.28 500.459 559.748C494.76 565.049 485.379 564.643 478.308 563.052C470.589 561.315 463.403 557.446 457.964 551.669C456.482 550.095 454.114 552.469 455.593 554.04Z" fill="#FF008C"/>
<path d="M545.975 556.501C551.429 560.849 558.71 561.686 565.141 559.067C571.391 556.522 575.802 551.359 578.316 545.202C578.661 544.357 577.942 543.368 577.145 543.139C576.189 542.865 575.424 543.476 575.083 544.31C573.035 549.326 569.275 553.695 564.231 555.841C559.062 558.04 552.829 557.704 548.346 554.13C546.676 552.798 544.288 555.156 545.975 556.501Z" fill="#FF008C"/>
<path d="M572.016 505.844C565.683 500.538 556.336 499.53 548.776 502.665C544.795 504.317 541.526 507.132 539.315 510.843C536.95 514.813 535.945 519.425 535.607 523.99C534.807 534.812 537.272 545.726 539.679 556.203C540.911 561.567 542.192 566.924 543.175 572.341C544.146 577.7 545.022 583.289 544.66 588.75C544.319 593.912 542.054 599.147 537.158 601.473C533.651 603.139 527.64 602.623 525.939 598.511C525.59 597.668 524.83 597.088 523.877 597.34C523.083 597.549 522.36 598.566 522.706 599.402C524.352 603.382 528.342 605.505 532.529 605.73C536.99 605.97 541.248 603.62 543.975 600.183C547.218 596.096 548.172 590.936 548.074 585.821C547.969 580.314 547.072 574.793 546.022 569.398C543.894 558.47 540.658 547.728 539.383 536.643C538.331 527.498 537.817 515.877 545.061 508.937C551.381 502.882 562.964 502.617 569.645 508.215C571.289 509.592 573.673 507.232 572.016 505.844Z" fill="#FF008C"/>
<path d="M453.418 527.48C459.621 524.266 465.879 521.043 472.677 519.278C479.592 517.483 486.897 517.251 493.919 518.544C496.029 518.933 496.933 515.702 494.811 515.311C487.334 513.933 479.622 514.086 472.235 515.931C464.998 517.738 458.311 521.173 451.725 524.585C449.809 525.578 451.502 528.472 453.418 527.48Z" fill="#FF008C"/>
<path d="M523.83 616.93C522.486 623.535 515.311 627.648 508.857 626.724C500.697 625.557 495.536 618.623 491.977 611.816C490.977 609.903 488.082 611.597 489.082 613.509C492.366 619.79 496.723 625.75 503.435 628.614C509.598 631.242 516.487 630.462 521.742 626.252C524.385 624.134 526.384 621.16 527.063 617.821C527.492 615.715 524.261 614.814 523.83 616.93Z" fill="#FF008C"/>
<path d="M487.962 615.036C489.15 613.803 490.386 612.618 491.671 611.486C492.307 610.925 492.955 610.376 493.614 609.841C493.934 609.581 494.258 609.323 494.584 609.069C494.687 608.988 494.837 608.873 494.648 609.018C494.726 608.959 494.803 608.899 494.881 608.84C495.075 608.693 495.27 608.546 495.465 608.401C495.828 608.13 496.111 607.852 496.236 607.399C496.346 606.997 496.296 606.463 496.067 606.107C495.619 605.413 494.525 604.945 493.773 605.505C490.86 607.675 488.113 610.049 485.591 612.665C484.982 613.297 484.916 614.416 485.591 615.036C486.251 615.641 487.312 615.71 487.962 615.036Z" fill="#FF008C"/>
<path d="M389.867 627.273C384.499 631.402 379.807 636.198 375.135 640.976C366.559 649.748 357.982 658.519 349.406 667.291C349.565 656.296 348.506 645.286 346.25 634.483C351.646 633.416 357.043 632.349 362.439 631.281C365.605 630.655 368.772 630.029 371.965 629.528C377.067 628.727 382.23 628.247 387.405 628.094" fill="#FF008C"/>
<path d="M388.68 626.087C381.404 631.72 375.149 638.563 368.733 645.124C361.895 652.118 355.057 659.111 348.219 666.105L351.081 667.29C351.224 656.125 350.13 644.971 347.865 634.037L346.694 636.099C360.172 633.434 373.619 630.206 387.403 629.77C389.556 629.702 389.565 626.348 387.403 626.417C373.319 626.863 359.573 630.143 345.803 632.866C344.875 633.05 344.459 634.095 344.632 634.928C346.837 645.576 347.867 656.418 347.728 667.29C347.709 668.737 349.579 669.51 350.59 668.476C357.428 661.482 364.266 654.489 371.104 647.495C377.519 640.934 383.775 634.091 391.051 628.458C391.772 627.899 391.627 626.676 391.051 626.087C390.352 625.372 389.392 625.536 388.68 626.087Z" fill="#FF008C"/>
</svg>
