<svg width="1000" height="1000" viewBox="0 0 1000 1000" fill="none" xmlns="http://www.w3.org/2000/svg">
<path d="M786.156 510.978C792.053 502.66 797.294 496.284 797.294 485.533C798.029 468.609 791.981 451.485 780.781 438.776C777.158 434.665 772.369 430.761 766.9 431.114C774.625 406.409 774.072 376.368 755.688 356.316C745.627 345.342 731.172 338.515 716.305 337.715C718.193 321.004 714.058 303.677 704.826 289.621C695.594 275.565 681.336 264.885 665.251 259.979C665.389 260.022 662.516 242.002 661.918 240.228C659.566 233.259 656.042 226.687 651.587 220.838C641.746 207.916 630.067 202.693 615.349 197.412C615.349 197.412 598.096 247.925 667.906 377.573C730.236 486.277 786.156 510.978 786.156 510.978Z" fill="white"/>
<path d="M787.452 511.732C790.999 506.74 794.796 501.824 796.957 496.032C799.166 490.111 799.15 483.469 798.62 477.247C797.5 464.096 792.58 451.347 784.483 440.916C780.214 435.418 774.468 429.305 766.905 429.617L768.348 431.511C773.102 416.189 774.729 399.512 771.239 383.749C767.66 367.587 758.117 353.363 743.862 344.753C735.527 339.718 726.028 336.786 716.311 336.218L717.806 337.714C719.332 323.734 716.785 309.427 710.626 296.79C704.913 285.067 695.995 275.059 685.172 267.812C679.161 263.788 672.564 260.671 665.654 258.537L666.548 260.734C667.117 259.85 666.527 258.145 666.388 257.214C666.079 255.15 665.749 253.089 665.413 251.029C664.816 247.37 664.44 243.504 663.398 239.937C661.234 232.532 657.043 225.421 652.335 219.37C648.024 213.83 642.793 209.118 636.818 205.43C630.247 201.375 622.992 198.573 615.752 195.969C614.959 195.684 614.156 196.297 613.911 197.014C613.348 198.669 613.082 200.46 612.829 202.181C612.033 207.609 611.864 213.113 612.023 218.592C612.297 228.079 613.55 237.536 615.31 246.854C617.932 260.734 621.757 274.377 626.253 287.76C632.558 306.531 640.215 324.84 648.64 342.752C653.898 353.93 659.474 364.959 665.293 375.855C671.23 386.971 678.031 397.704 684.925 408.247C696.088 425.316 708.194 441.805 721.497 457.274C731.084 468.421 741.307 479.057 752.348 488.776C759.371 494.957 766.732 500.808 774.546 505.962C777.892 508.169 781.335 510.345 784.965 512.063C785.111 512.132 785.257 512.203 785.406 512.269C787.151 513.041 788.675 510.464 786.916 509.686C784.472 508.604 782.144 507.194 779.869 505.803C773.148 501.696 766.8 496.98 760.718 491.983C750.486 483.575 740.966 474.313 731.995 464.579C719.18 450.672 707.481 435.759 696.652 420.264C689.978 410.715 683.632 400.938 677.574 390.988C670.897 380.021 664.81 368.784 659.046 357.313C649.505 338.328 640.753 318.919 633.382 298.984C628.058 284.586 623.43 269.899 620.039 254.921C617.754 244.831 616.012 234.59 615.296 224.262C614.863 218.008 614.776 211.692 615.414 205.448C615.467 204.927 615.527 204.406 615.591 203.886C615.623 203.63 615.684 203.19 615.637 203.524C615.67 203.287 615.703 203.05 615.739 202.814C615.85 202.074 615.974 201.336 616.118 200.602C616.28 199.774 616.588 198.936 616.705 198.105C616.719 198.008 616.765 197.904 616.797 197.81L614.956 198.855C627.315 203.298 639.185 208.661 647.981 218.759C653.026 224.55 657.043 231.359 659.74 238.548C661.049 242.038 661.516 245.746 662.129 249.41C662.528 251.794 662.915 254.18 663.284 256.569C663.417 257.434 663.55 258.298 663.672 259.164C663.72 259.501 663.572 259.356 663.739 259.664C663.944 260.043 663.208 260.401 663.965 259.225C663.425 260.063 663.973 261.149 664.859 261.422C689.57 269.054 708.493 289.848 713.767 315.165C715.31 322.576 715.636 330.192 714.815 337.715C714.723 338.551 715.576 339.168 716.311 339.211C732.731 340.169 748.601 348.542 758.332 361.869C767.473 374.387 770.699 390.076 770.014 405.355C769.629 413.969 768.016 422.487 765.463 430.716C765.183 431.619 765.952 432.649 766.906 432.609C773.179 432.35 777.945 437.518 781.565 442.015C785.454 446.847 788.638 452.318 790.973 458.063C793.293 463.771 794.861 469.827 795.505 475.958C796.123 481.84 796.339 488.24 794.524 493.933C792.591 499.995 788.504 505.105 784.869 510.223C783.752 511.795 786.345 513.291 787.452 511.732Z" fill="#FF008C"/>
<path d="M786.156 510.978C792.053 502.66 797.294 496.284 797.294 485.533C798.029 468.609 791.981 451.485 780.781 438.776C777.158 434.665 772.369 430.761 766.9 431.114C774.625 406.409 774.072 376.368 755.688 356.316C745.627 345.342 731.172 338.515 716.305 337.715C718.193 321.004 714.058 303.677 704.826 289.621C695.594 275.565 681.336 264.885 665.251 259.979C665.389 260.022 662.516 242.002 661.918 240.228C659.566 233.259 656.042 226.687 651.587 220.838C641.746 207.916 630.067 202.693 615.349 197.412C615.349 197.412 598.096 247.925 667.906 377.573C730.236 486.277 786.156 510.978 786.156 510.978Z" fill="#FF008C"/>
<path d="M440.678 560.47C455.854 592.972 472.058 624.981 488.259 656.985C500.224 680.623 512.32 704.463 529.011 725.039C534.659 732.002 541.359 738.889 550.094 740.914C558.635 742.895 568.819 740.218 575.453 745.951C581.22 750.936 581.143 760.193 577.901 767.092C573.652 776.131 565.149 782.209 555.862 785.328C551.117 786.921 546.134 787.798 541.137 788.019C539.855 788.075 535.435 787.242 534.56 787.898C532.82 789.201 535.285 795.198 536.002 796.617C533.743 798.978 530.811 800.563 527.918 802.081C521.533 805.431 515.079 808.652 508.563 811.739C508.277 811.875 507.965 812.013 507.656 811.949C507.278 811.871 507.029 811.521 506.818 811.198C500.708 801.85 494.786 792.503 488.996 782.92C481.003 769.69 472.994 756.47 464.984 743.251C455.366 727.379 445.744 711.51 436.123 695.64C426.743 680.168 417.363 664.695 407.989 649.219C400.704 637.191 393.419 625.163 386.157 613.121C382.823 607.593 379.345 602.119 376.203 596.477" fill="white"/>
<path d="M439.389 561.225C449.918 583.765 460.935 606.073 472.104 628.302C477.621 639.281 483.168 650.245 488.725 661.205C493.93 671.474 499.188 681.723 504.892 691.725C510.541 701.629 516.634 711.296 523.505 720.402C529.58 728.453 536.306 737.196 545.921 741.141C550.48 743.012 555.363 743.189 560.222 743.366C564.746 743.531 569.665 743.677 573.529 746.34C581.333 751.717 578.979 763.259 574.57 769.984C569.17 778.221 559.903 783.142 550.498 785.277C547.577 785.94 544.6 786.354 541.608 786.5C539.856 786.585 538.121 786.199 536.372 786.154C534.735 786.112 533.184 786.467 532.645 788.213C532.158 789.793 532.626 791.646 533.079 793.177C533.503 794.61 534.049 796.033 534.713 797.372L534.947 795.56C532.046 798.511 528.178 800.274 524.549 802.153C520.474 804.262 516.372 806.319 512.244 808.322C511.285 808.787 510.325 809.249 509.364 809.708C509.117 809.826 507.835 810.262 507.81 810.448C507.812 810.434 508.139 810.691 508.173 810.525C508.193 810.43 507.592 809.647 507.573 809.618C506.32 807.697 505.071 805.771 503.83 803.842C501.395 800.058 498.984 796.26 496.603 792.442C486.822 776.766 477.404 760.857 467.829 745.054C458.128 729.044 448.422 713.037 438.717 697.029C429.034 681.057 419.35 665.085 409.674 649.109C400.081 633.272 390.399 617.486 380.899 601.594C379.738 599.652 378.601 597.697 377.497 595.722C376.558 594.041 373.973 595.548 374.914 597.232C379.453 605.355 384.469 613.221 389.279 621.185C394.213 629.353 399.155 637.516 404.098 645.678C414.034 662.085 423.978 678.488 433.922 694.891C443.804 711.19 453.687 727.489 463.565 743.791C473.361 759.958 483.01 776.224 492.981 792.284C495.44 796.246 497.932 800.188 500.45 804.113C501.732 806.112 503.022 808.107 504.318 810.097C505.25 811.529 506.261 813.848 508.365 813.396C509.238 813.208 510.075 812.674 510.874 812.292C511.983 811.762 513.09 811.228 514.196 810.691C516.259 809.687 518.316 808.67 520.366 807.64C524.405 805.611 528.556 803.661 532.413 801.297C534.093 800.267 535.679 799.083 537.062 797.675C537.554 797.174 537.596 796.467 537.296 795.862C536.639 794.535 536.134 793.108 535.768 791.675C535.58 790.941 535.422 790.198 535.452 789.436C535.454 789.385 535.474 788.966 535.509 789.049C535.741 789.593 534.844 788.987 535.374 789.174C535.318 789.154 535.892 789.14 535.841 789.143C537.532 789.064 539.209 789.487 540.895 789.516C543.574 789.56 546.364 789.107 548.994 788.631C558.706 786.872 568.376 782.351 574.792 774.663C580.432 767.906 583.837 758.102 580.017 749.633C578.157 745.509 574.414 742.737 570.12 741.532C565.466 740.227 560.539 740.491 555.763 740.179C550.828 739.857 546.35 738.536 542.203 735.795C537.922 732.966 534.36 729.147 531.094 725.227C523.83 716.507 517.476 707.025 511.629 697.31C499.527 677.202 489.372 655.926 478.813 634.987C467.612 612.774 456.518 590.505 445.876 568.018C444.567 565.254 443.267 562.486 441.972 559.716C441.158 557.973 438.578 559.49 439.389 561.225Z" fill="#FF008C"/>
<path d="M404.845 604.681C415.165 618.841 421.557 635.832 423.131 653.283C425.801 682.907 414.692 715.352 388.98 732.061C371.783 743.236 351.374 748.32 334.695 760.558C327.466 765.862 320.262 772.22 317.816 780.846C315.424 789.281 317.603 799.583 311.554 805.93C306.296 811.449 297.054 810.923 290.32 807.35C281.497 802.668 275.839 793.88 273.175 784.452C271.814 779.636 271.179 774.616 271.202 769.614C271.208 768.332 272.254 763.957 271.642 763.051C270.424 761.25 264.315 763.421 262.862 764.068C260.613 761.697 259.173 758.692 257.797 755.728C254.76 749.188 251.857 742.586 249.089 735.928C248.968 735.636 248.844 735.318 248.923 735.011C249.02 734.638 249.382 734.406 249.714 734.211C259.348 728.562 268.971 723.1 278.824 717.782C292.426 710.44 306.019 703.082 319.611 695.723C325.997 692.53 332.203 688.904 338.481 685.503C343.814 682.615 349.757 679.705 353.453 674.713C346.781 659.283 338.23 644.791 330.546 629.865C324.752 618.61 316.547 603.506 320.173 590.591C322.998 580.533 331.471 572.789 341.022 568.556C350.574 564.324 361.175 563.148 371.604 562.533C375.758 562.288 381.01 562.809 382.415 566.726" fill="white"/>
<path d="M403.552 605.436C417.596 624.798 424.076 648.983 421.418 672.765C419.113 693.384 409.883 713.692 393.551 726.911C384.178 734.498 372.778 739.283 361.866 744.179C350.583 749.242 339.509 754.594 329.837 762.413C325.454 765.956 321.309 770.045 318.597 775.041C315.889 780.03 315.339 785.447 314.865 791.004C314.435 796.042 313.912 801.699 309.999 805.365C306.31 808.819 300.726 809.112 296.048 807.948C285.317 805.278 278.053 795.23 274.937 785.139C273.248 779.672 272.078 773.36 272.94 767.647C273.194 765.968 273.957 763.265 272.594 761.862C271.212 760.439 268.818 760.814 267.084 761.169C265.376 761.518 263.702 762.08 262.105 762.776L263.918 763.01C260.701 759.526 258.967 754.764 257.037 750.505C254.926 745.846 252.88 741.157 250.908 736.437C250.832 736.256 250.681 735.708 250.53 735.53C250.043 734.957 250.648 735.475 250.217 735.657C250.731 735.44 251.242 735.048 251.724 734.767C252.84 734.114 253.957 733.463 255.075 732.815C257.307 731.52 259.544 730.233 261.786 728.954C266.201 726.437 270.636 723.954 275.094 721.512C284.238 716.502 293.435 711.588 302.605 706.627C311.74 701.685 320.96 696.889 330.049 691.867C334.605 689.35 339.201 686.898 343.739 684.35C347.905 682.011 351.834 679.313 354.743 675.467C355.083 675.019 354.942 674.417 354.743 673.957C349.949 662.906 344.207 652.31 338.506 641.71C335.782 636.644 333.095 631.561 330.463 626.447C328.103 621.863 325.781 617.24 323.969 612.407C322.179 607.633 320.789 602.594 320.774 597.462C320.76 592.628 322.211 588.03 324.763 583.941C330.078 575.423 339.197 570.112 348.651 567.389C354.941 565.578 361.457 564.755 367.969 564.269C370.561 564.076 373.238 563.77 375.831 564.123C377.795 564.39 380.176 565.093 380.97 567.124C381.664 568.897 384.558 568.125 383.855 566.328C382.113 561.875 377.182 560.925 372.876 560.989C367.048 561.076 361.095 561.767 355.361 562.785C344.484 564.716 333.718 568.982 326.118 577.277C322.737 580.966 320.085 585.357 318.729 590.193C317.289 595.33 317.65 600.78 318.844 605.925C321.392 616.907 327.317 627.06 332.559 636.934C339.317 649.663 346.418 662.232 352.16 675.467V673.957C349.543 677.416 345.788 679.778 342.055 681.863C337.846 684.214 333.591 686.484 329.374 688.821C320.085 693.967 310.655 698.87 301.315 703.924C291.858 709.041 282.371 714.104 272.946 719.278C268.35 721.801 263.777 724.368 259.226 726.97C256.985 728.251 254.749 729.542 252.517 730.84C251.4 731.49 250.277 732.134 249.167 732.796C248.296 733.315 247.532 733.936 247.426 735.011C247.307 736.21 248.144 737.526 248.593 738.593C249.152 739.92 249.715 741.246 250.284 742.569C251.449 745.279 252.637 747.98 253.847 750.67C256.074 755.622 258.065 761.078 261.802 765.126C262.292 765.656 263.015 765.621 263.615 765.359C263.863 765.251 265.055 764.823 265.643 764.64C266.646 764.327 267.684 764.032 268.728 763.902C269.269 763.835 270.186 764.006 270.479 763.977C269.572 764.066 270.673 763.383 270.337 763.869C270.338 763.868 270.333 764.339 270.333 764.34C270.324 764.876 270.258 765.414 270.188 765.945C270.05 766.991 269.838 768.03 269.741 769.08C269.61 770.495 269.724 771.95 269.811 773.365C270.022 776.774 270.532 780.178 271.367 783.49C274.04 794.093 280.575 804.607 290.834 809.266C295.548 811.407 301.107 812.32 306.154 810.837C311.304 809.324 314.861 805.308 316.405 800.247C318 795.021 317.675 789.458 318.611 784.116C319.619 778.36 322.568 773.511 326.604 769.355C344.277 751.158 370.507 746.487 390.961 732.535C408.725 720.417 419.637 700.528 423.412 679.637C427.602 656.447 423.272 632.174 411.33 611.848C409.729 609.123 407.991 606.483 406.135 603.925C405.016 602.381 402.419 603.873 403.552 605.436Z" fill="#FF008C"/>
<path d="M336.194 749.702C333.391 747.293 329.93 745.116 326.261 745.562C323.278 745.924 320.606 747.992 317.603 747.875C313.725 747.725 310.997 744.097 309.096 740.713C304.595 732.699 301.363 723.979 299.517 714.977C298.967 712.293 298.805 709.616 298.49 707.146C291.935 710.692 285.382 714.242 278.824 717.782C268.971 723.1 259.348 728.562 249.715 734.211C249.382 734.406 249.02 734.638 248.923 735.012C248.844 735.318 248.968 735.636 249.089 735.928C251.857 742.586 254.76 749.189 257.797 755.729C259.173 758.692 260.614 761.698 262.862 764.068C264.315 763.421 270.424 761.25 271.642 763.051C272.254 763.957 271.208 768.332 271.202 769.614C271.179 774.616 271.814 779.636 273.175 784.452C275.839 793.88 281.498 802.668 290.321 807.35C297.054 810.923 306.296 811.449 311.555 805.93C317.603 799.583 315.424 789.281 317.816 780.846C320.262 772.22 327.466 765.862 334.695 760.558C336.776 759.031 338.916 757.615 341.099 756.285C340.32 753.651 338.299 751.51 336.194 749.702Z" fill="#FF008C"/>
<path d="M337.251 748.644C334.14 746.004 330.329 743.557 326.062 744.093C322.211 744.576 318.512 747.893 314.753 745.347C311.538 743.169 309.722 738.918 308.077 735.556C306.047 731.408 304.363 727.098 303.018 722.68C302.272 720.23 301.632 717.747 301.098 715.242C300.528 712.567 300.32 709.855 299.985 707.146C299.847 706.032 298.819 705.267 297.734 705.854C286.773 711.784 275.767 717.637 264.906 723.749C259.583 726.744 254.098 729.617 248.959 732.919C248.087 733.48 247.369 734.203 247.408 735.32C247.455 736.68 248.416 738.172 248.937 739.403C250.148 742.272 251.384 745.13 252.646 747.977C254.022 751.083 255.419 754.182 256.866 757.257C258.196 760.083 259.671 762.816 261.804 765.126C262.294 765.657 263.017 765.622 263.617 765.36C263.433 765.44 264.107 765.168 264.226 765.124C264.568 764.996 264.913 764.877 265.26 764.764C266.212 764.452 267.181 764.181 268.166 763.997C268.843 763.871 269.487 763.86 270.17 763.875C270.396 763.88 270.58 764.141 270.394 763.841C270.246 763.602 270.336 764.354 270.323 764.599C270.236 766.283 269.776 767.93 269.705 769.614C269.577 772.69 269.948 775.861 270.428 778.894C271.985 788.731 276.428 798.594 284.231 805.038C291.079 810.694 301.912 814.332 310.056 809.082C318.791 803.451 317.003 792.203 318.748 783.388C319.854 777.796 322.921 773.083 326.884 769.071C331.303 764.597 336.506 760.851 341.854 757.577C342.4 757.243 342.745 756.523 342.541 755.888C341.594 752.933 339.556 750.646 337.251 748.644C335.804 747.387 333.679 749.494 335.136 750.76C337.029 752.405 338.872 754.239 339.656 756.683L340.344 754.994C335.56 757.922 330.941 761.24 326.789 765.02C323.027 768.444 319.625 772.441 317.577 777.139C315.629 781.606 315.263 786.394 314.85 791.192C314.463 795.684 314.026 800.744 310.981 804.334C304.567 811.898 292.681 808.219 286.202 802.802C278.233 796.139 274.066 785.852 273 775.704C272.724 773.079 272.524 770.412 272.919 767.794C273.172 766.118 273.943 763.448 272.699 761.993C271.416 760.493 269.095 760.791 267.37 761.112C265.563 761.45 263.79 762.042 262.107 762.776L263.92 763.01C260.344 759.138 258.459 753.673 256.331 748.936C255.156 746.32 254.002 743.694 252.869 741.059C252.273 739.673 251.682 738.283 251.099 736.891C250.949 736.532 250.719 735.397 250.417 735.231C251.115 735.615 249.684 735.65 250.469 735.502C250.798 735.441 251.435 734.937 251.725 734.767C261.641 728.968 271.658 723.352 281.764 717.893C287.593 714.745 293.417 711.589 299.244 708.438L296.993 707.146C297.588 711.957 298.204 716.618 299.502 721.305C300.764 725.859 302.392 730.307 304.339 734.612C306.102 738.512 308.004 742.705 310.91 745.903C313.788 749.071 317.521 750.071 321.563 748.63C323.891 747.801 326.124 746.626 328.667 747.145C331.119 747.645 333.262 749.17 335.136 750.76C336.596 751.999 338.722 749.892 337.251 748.644Z" fill="#FF008C"/>
<path d="M575.449 745.951C568.815 740.218 558.632 742.894 550.09 740.914C541.356 738.889 534.655 732.002 529.007 725.039C527.298 722.933 525.649 720.785 524.033 718.614C522.074 718.939 520.134 719.65 518.162 721.144C512.771 725.227 510.685 733.441 514.181 739.23C515.368 741.196 517.182 743.184 516.71 745.432C516.456 746.645 515.564 747.61 514.694 748.495C510.855 752.398 507.385 754.836 502.665 757.326C497.004 760.312 492.202 764.73 486.441 767.678C484.753 768.541 483.013 769.364 481.336 770.272C483.887 774.488 486.443 778.702 488.992 782.92C494.782 792.504 500.704 801.85 506.813 811.198C507.025 811.521 507.274 811.871 507.652 811.949C507.961 812.013 508.273 811.875 508.559 811.739C515.075 808.652 521.529 805.431 527.914 802.081C530.807 800.563 533.739 798.978 535.998 796.617C535.281 795.198 532.816 789.201 534.556 787.898C535.431 787.242 539.852 788.075 541.133 788.018C546.129 787.798 551.113 786.921 555.858 785.328C565.145 782.209 573.648 776.131 577.897 767.092C581.139 760.192 581.216 750.936 575.449 745.951Z" fill="#FF008C"/>
<path d="M576.512 744.894C570.489 739.832 562.446 740.691 555.111 740.132C551.233 739.837 547.561 738.895 544.154 736.986C540.626 735.009 537.574 732.323 534.795 729.406C531.361 725.801 528.304 721.845 525.33 717.859C524.894 717.275 524.361 717.043 523.641 717.172C514.189 718.865 508.288 729.795 512.193 738.621C512.669 739.698 513.328 740.65 513.967 741.634C514.574 742.566 515.388 743.689 515.285 744.863C515.181 746.049 514.121 746.959 513.332 747.75C512.352 748.732 511.335 749.677 510.274 750.57C506.239 753.964 501.422 756.056 497.076 758.981C494.533 760.693 492.076 762.531 489.492 764.182C486.639 766.006 483.565 767.384 480.587 768.98C479.882 769.357 479.643 770.354 480.05 771.027C485.946 780.772 491.813 790.534 497.919 800.15C499.476 802.6 501.043 805.044 502.619 807.481C503.322 808.567 504.026 809.651 504.731 810.734C505.342 811.67 505.897 812.858 506.999 813.287C508.147 813.733 509.188 813.095 510.208 812.609C511.539 811.975 512.868 811.336 514.195 810.69C516.7 809.472 519.196 808.234 521.682 806.976C524.529 805.535 527.379 804.092 530.184 802.571C532.67 801.223 535.069 799.702 537.061 797.675C537.553 797.174 537.595 796.467 537.295 795.862C536.469 794.194 535.744 792.274 535.498 790.422C535.464 790.164 535.588 789.383 535.478 789.196C535.623 789.442 535.521 788.832 535.493 789.065C535.408 789.781 535.048 788.999 535.373 789.173C535.581 789.285 536.379 789.145 536.653 789.157C537.358 789.188 538.061 789.26 538.762 789.332C541.579 789.618 544.34 789.341 547.14 788.933C550.731 788.409 554.279 787.533 557.683 786.267C568.498 782.243 578.955 773.685 581.174 761.802C582.295 755.803 581.264 749.119 576.512 744.894C575.077 743.618 572.954 745.727 574.396 747.009C578.525 750.68 579.278 756.526 578.148 761.703C576.909 767.382 573.459 772.354 569.151 776.167C564.611 780.184 559.028 782.927 553.225 784.58C549.588 785.615 545.848 786.245 542.075 786.473C539.902 786.605 537.765 786.037 535.596 786.159C530.007 786.473 533.293 794.51 534.711 797.372L534.945 795.559C531.559 799.005 526.821 800.993 522.581 803.166C520.175 804.399 517.759 805.613 515.334 806.809C514.158 807.389 512.98 807.965 511.8 808.536C510.68 809.078 509.253 809.507 508.253 810.237C507.486 810.796 507.904 810.249 508.233 810.607C508.08 810.441 507.97 810.224 507.845 810.036C507.486 809.498 507.138 808.953 506.785 808.411C506.036 807.26 505.29 806.108 504.545 804.954C503.146 802.787 501.755 800.614 500.373 798.435C497.562 794.006 494.787 789.553 492.055 785.074C488.898 779.898 485.771 774.704 482.633 769.516L482.096 771.563C484.684 770.177 487.372 768.986 489.885 767.462C492.26 766.022 494.508 764.39 496.784 762.802C499.056 761.218 501.365 759.727 503.805 758.416C506.038 757.216 508.209 755.907 510.239 754.386C512.25 752.88 514.14 751.223 515.888 749.418C517.6 747.651 518.798 745.556 518.03 743.04C517.348 740.805 515.587 739.146 514.733 736.998C513.956 735.045 513.778 732.852 514.118 730.785C515.006 725.369 518.991 721.032 524.436 720.057L522.746 719.369C527.807 726.151 533.113 733.167 540.159 738.018C543.459 740.291 547.194 741.967 551.156 742.649C554.922 743.298 558.745 743.263 562.548 743.465C566.698 743.686 571.099 744.239 574.396 747.009C575.861 748.24 577.988 746.134 576.512 744.894Z" fill="#FF008C"/>
<path d="M446.056 448.607C478.333 432.198 510.702 415.748 544.692 403.269C574.335 392.386 603.444 384.424 635.217 382.964C640.65 382.715 646.307 382.665 651.253 384.926C660.678 389.236 664.369 403.369 657.185 410.839C654.293 413.846 650.291 415.471 646.427 417.043C608.626 432.423 572.028 450.58 535.471 468.719C496.826 487.893 457.962 507.2 423.18 532.721" fill="white"/>
<path d="M446.814 449.899C462.319 442.016 477.827 434.134 493.542 426.677C509.342 419.181 525.356 412.116 541.729 405.962C557.436 400.057 573.435 394.821 589.778 390.973C597.872 389.067 606.049 387.507 614.288 386.373C622.585 385.231 631.05 384.354 639.433 384.344C643.352 384.339 647.499 384.674 651.048 386.483C653.438 387.701 655.408 389.601 656.824 391.87C659.579 396.284 660.525 402.312 658.056 407.067C656.515 410.036 653.805 411.983 650.879 413.467C647.291 415.286 643.453 416.645 639.743 418.189C631.552 421.599 623.411 425.128 615.314 428.754C599.203 435.969 583.264 443.56 567.401 451.301C551.756 458.935 536.162 466.676 520.589 474.454C505.496 481.992 490.462 489.658 475.703 497.834C460.91 506.029 446.39 514.743 432.445 524.32C429.07 526.638 425.73 529.009 422.427 531.429C420.89 532.555 422.381 535.153 423.937 534.012C437.832 523.831 452.399 514.602 467.32 506.004C482.27 497.39 497.568 489.398 512.967 481.622C528.726 473.663 544.558 465.843 560.401 458.053C576.606 450.086 592.87 442.234 609.3 434.739C617.475 431.009 625.69 427.368 633.957 423.846C638.158 422.056 642.373 420.3 646.602 418.577C650.097 417.154 653.627 415.743 656.607 413.373C666.202 405.743 663.144 389.575 652.827 384.04C645.665 380.198 636.667 381.275 628.884 381.847C620.305 382.479 611.759 383.587 603.293 385.11C586.51 388.13 570.075 392.82 553.967 398.379C537.343 404.118 521.064 410.783 505.051 418.047C488.776 425.431 472.771 433.394 456.827 441.465C452.984 443.411 449.144 445.363 445.304 447.315C443.587 448.188 445.099 450.77 446.814 449.899Z" fill="#FF008C"/>
<path d="M416.368 583.161C386.696 608.718 348.561 619.025 310.556 611.626C296.658 608.92 282.833 605.161 270.276 598.62C217.32 571.04 198.945 508.168 186.481 454.456C181.956 434.953 177.43 415.45 172.904 395.946C172.309 393.382 171.787 390.431 173.369 388.327C174.306 387.082 175.8 386.411 177.229 385.79C194.87 378.129 214.158 372.458 232.513 366.17C258.071 357.414 283.829 349.242 309.76 341.664C330.588 335.576 351.528 329.871 372.565 324.552C390.158 320.103 407.047 314.72 424.913 311.087C430.039 310.045 450.791 374.333 452.81 380.946C460.343 405.631 465.91 430.834 466.609 456.722C467.875 503.584 451.887 552.567 416.368 583.161Z" fill="white"/>
<path d="M415.312 582.103C390.069 603.762 357.155 614.878 323.933 612.008C315.179 611.251 306.518 609.479 298.017 607.294C289.25 605.04 280.615 602.135 272.506 598.081C259.808 591.732 248.504 582.905 238.964 572.417C220.136 551.716 208.493 525.487 200.012 499.11C195.746 485.843 192.243 472.343 189.033 458.786C184.648 440.261 180.417 421.699 176.114 403.155C175.571 400.815 175.025 398.475 174.485 396.134C174.038 394.2 173.305 391.775 174.189 389.858C175.02 388.055 177.319 387.364 179.006 386.642C181.281 385.667 183.575 384.734 185.878 383.829C194.656 380.377 203.593 377.348 212.545 374.385C230.945 368.296 249.271 361.986 267.732 356.085C286.329 350.14 305.025 344.504 323.808 339.176C342.728 333.811 361.792 329.041 380.785 323.954C390.014 321.481 399.197 318.835 408.451 316.456C413.103 315.26 417.774 314.132 422.47 313.124C422.753 313.064 425.268 312.729 425.313 312.53C425.329 312.459 424.676 312.756 424.908 312.564C424.727 312.714 424.608 312.296 424.932 312.616C424.786 312.471 424.894 312.551 425.11 312.801C425.555 313.318 425.437 313.126 425.752 313.584C426.098 314.089 426.425 314.605 426.733 315.134C427.516 316.472 428.21 317.863 428.877 319.262C430.692 323.072 432.288 326.986 433.833 330.913C440.203 347.1 445.815 363.638 451.024 380.234C461.161 412.532 467.61 446.622 464.27 480.547C461.239 511.328 450.497 542.084 430.777 566.204C426.089 571.939 420.915 577.259 415.312 582.103C413.853 583.365 415.977 585.473 417.428 584.219C429.301 573.954 439.175 561.504 446.83 547.818C454.545 534.026 460.069 519.026 463.553 503.625C467.069 488.083 468.566 472.072 468.091 456.148C467.513 436.75 464.198 417.517 459.384 398.747C456.927 389.168 454.057 379.724 450.968 370.335C447.864 360.897 444.651 351.492 441.255 342.154C438.084 333.434 434.908 324.585 430.741 316.279C429.713 314.23 428.526 311.462 426.558 310.119C424.989 309.048 423.084 309.936 421.392 310.3C416.603 311.333 411.843 312.489 407.1 313.714C397.662 316.152 388.296 318.858 378.877 321.366C369.21 323.939 359.497 326.335 349.831 328.913C330.391 334.098 311.04 339.613 291.788 345.457C272.536 351.301 253.394 357.469 234.356 363.962C216.251 370.138 197.837 375.578 180.16 382.934C176.612 384.411 171.971 385.695 171.027 389.975C170.596 391.928 170.938 393.965 171.36 395.888C171.887 398.289 172.469 400.679 173.025 403.073C175.333 413.02 177.641 422.966 179.949 432.913C183.649 448.854 187.178 464.848 191.456 480.647C195.222 494.556 199.56 508.336 205.005 521.686C210.391 534.892 216.832 547.717 224.944 559.472C232.952 571.075 242.551 581.537 253.837 590.022C267.467 600.27 283.127 606.77 299.635 610.782C316.4 614.857 333.444 616.673 350.625 614.427C367.059 612.279 382.959 606.866 397.306 598.563C404.449 594.429 411.166 589.592 417.428 584.219C418.891 582.963 416.767 580.855 415.312 582.103Z" fill="#FF008C"/>
<path d="M743.701 311.253C710.574 331.985 652.56 369.804 619.685 390.933C599.917 403.637 580.251 416.566 561.677 430.983C545.05 443.889 527.183 455.398 515.51 473.416C508.974 483.506 504.816 495.587 506.253 507.522C507.669 519.294 514.171 525.204 525.691 527.08C534.054 528.442 541.002 526.156 546.864 519.932C549.242 517.407 551.093 514.441 552.928 511.497C553.769 510.148 554.618 508.779 555.089 507.261C555.596 505.626 555.643 503.887 555.64 502.175C555.637 500.697 555.561 499.104 554.649 497.941C553.388 496.334 550.887 496.171 549.052 497.069C547.217 497.967 545.921 499.671 544.808 501.385C540.623 507.832 526.958 522.559 519.965 510.532C518.522 508.051 518.191 505.079 518.221 502.21C518.403 484.42 530.943 470.38 544.138 460.144C588.487 425.739 700.584 351.147 748.688 322.223" fill="white"/>
<path d="M742.952 309.961C733.236 316.043 723.569 322.203 713.916 328.382C702.713 335.553 691.532 342.756 680.357 349.97C669.154 357.202 657.959 364.445 646.762 371.685C637.089 377.939 627.412 384.187 617.725 390.419C603.606 399.502 589.557 408.707 575.923 418.507C569.403 423.194 563.063 428.105 556.666 432.956C550.923 437.311 545.113 441.581 539.492 446.095C528.224 455.146 517.517 465.516 510.832 478.508C507.399 485.18 505.062 492.46 504.57 499.973C504.169 506.089 504.883 512.799 508.075 518.163C510.744 522.646 515.066 525.613 519.958 527.239C525.838 529.194 532.576 529.748 538.449 527.494C545.236 524.89 549.74 519.394 553.505 513.404C554.545 511.749 555.624 510.107 556.322 508.271C557.029 506.411 557.138 504.378 557.14 502.408C557.145 499.205 556.264 495.805 552.636 495.15C546.508 494.044 543.755 500.843 540.453 504.66C537.416 508.171 533.56 512.042 528.951 513.314C523.091 514.933 520.01 508.975 519.754 503.939C519.411 497.2 521.235 490.438 524.341 484.494C530.029 473.61 539.41 465.583 549.027 458.266C556.158 452.839 563.395 447.551 570.669 442.317C579.439 436.006 588.273 429.784 597.142 423.612C606.881 416.833 616.663 410.117 626.477 403.447C636.694 396.501 646.946 389.606 657.227 382.755C667.249 376.077 677.3 369.441 687.382 362.853C696.726 356.748 706.097 350.682 715.504 344.676C723.505 339.568 731.531 334.5 739.608 329.516C742.878 327.498 746.156 325.495 749.449 323.515C751.097 322.523 749.594 319.935 747.938 320.931C740.769 325.243 733.661 329.659 726.58 334.114C717.878 339.588 709.217 345.129 700.583 350.709C690.845 357.002 681.141 363.346 671.464 369.731C661.336 376.412 651.239 383.138 641.171 389.909C631.159 396.641 621.177 403.417 611.231 410.246C601.885 416.664 592.571 423.127 583.306 429.661C575.175 435.396 567.079 441.182 559.057 447.071C551.717 452.459 544.168 457.774 537.361 463.834C527.503 472.609 518.911 483.87 517.1 497.287C516.264 503.474 516.434 511.168 522.093 515.129C526.087 517.926 531.098 516.244 534.795 513.796C538.826 511.127 542.247 507.497 545.088 503.609C546.611 501.525 548.046 498.44 550.9 498.054C554.982 497.503 554.407 503.181 553.929 505.733C553.568 507.664 552.546 509.291 551.522 510.934C550.484 512.599 549.44 514.264 548.29 515.855C546.226 518.711 543.691 521.284 540.661 523.111C535.193 526.408 528.806 526.505 522.757 524.943C517.941 523.701 513.471 521.222 510.806 516.896C507.6 511.691 507.119 505.062 507.627 499.113C508.892 484.281 517.588 471.07 527.718 460.649C537.691 450.39 549.498 442.217 560.803 433.536C573.852 423.516 587.235 414.009 600.948 404.918C612.119 397.511 623.428 390.316 634.687 383.047C645.197 376.262 655.699 369.465 666.204 362.673C677.456 355.399 688.71 348.129 699.978 340.88C710.476 334.127 720.985 327.389 731.525 320.702C735.83 317.971 740.141 315.249 744.462 312.544C746.09 311.525 744.59 308.936 742.952 309.961Z" fill="#FF008C"/>
<path d="M623.231 403.072C624.951 402.61 625.514 400.284 624.839 398.636C624.164 396.989 622.693 395.833 621.407 394.602C619.717 392.982 618.265 391.115 617.112 389.079C616.594 388.165 616.124 387.111 616.393 386.096C616.587 385.364 617.146 384.775 617.782 384.364C619.855 383.021 622.622 383.379 624.893 384.349C627.164 385.319 629.174 386.829 631.452 387.784C629.597 385.16 627.7 381.655 629.454 378.962C630.802 376.893 633.74 376.496 636.137 377.094C638.422 377.664 640.521 378.955 642.062 380.736C641.519 379.07 641.159 377.299 641.426 375.568C641.693 373.836 642.673 372.145 644.245 371.371C649.73 368.669 652.209 375.793 656.423 376.783C656.009 375.28 654.997 373.992 654.883 372.359C654.786 370.975 655.409 369.44 656.69 368.906C657.638 368.512 658.729 368.733 659.69 369.096C663.558 370.556 666.293 374.082 668.093 377.803C669.262 380.22 670.129 382.799 670.461 385.463C671.656 395.059 665.694 404.343 658 410.2C650.306 416.058 640.996 419.283 632.142 423.172C621.323 427.924 610.763 433.851 599.078 435.613" fill="white"/>
<path d="M623.633 404.515C626.203 403.641 627.189 400.696 626.285 398.239C625.202 395.292 622.115 393.493 620.24 391.088C619.74 390.446 619.281 389.772 618.854 389.08C618.48 388.472 617.833 387.606 617.819 386.862C617.787 385.234 620.277 384.919 621.463 384.994C624.869 385.211 627.677 387.757 630.701 389.076C631.911 389.604 633.704 388.402 632.747 387.029C631.213 384.827 628.291 379.998 632.321 378.607C635.463 377.523 638.965 379.514 641.009 381.794C642.005 382.905 643.95 381.738 643.509 380.338C642.82 378.151 642.268 375.386 643.937 373.476C645.03 372.224 646.824 371.949 648.263 372.705C651.122 374.208 652.757 377.364 656.029 378.226C657.101 378.508 658.213 377.495 657.87 376.386C657.389 374.833 655.985 373.052 656.47 371.365C657.066 369.292 659.533 370.535 660.779 371.282C663.794 373.09 665.778 376.231 667.184 379.37C670.41 386.573 669.215 394.187 664.963 400.674C660.706 407.169 654.187 411.52 647.334 414.904C640.051 418.501 632.409 421.348 625.042 424.773C616.564 428.714 608.004 432.721 598.684 434.17C596.788 434.465 597.593 437.349 599.48 437.055C608.667 435.627 617.167 431.72 625.53 427.832C629.796 425.848 634.084 423.933 638.423 422.112C642.6 420.36 646.786 418.605 650.797 416.492C658.282 412.548 665.19 407.12 669.134 399.469C670.991 395.866 672.144 391.864 672.113 387.79C672.081 383.438 670.667 379.127 668.505 375.377C666.428 371.774 662.958 367.9 658.607 367.276C656.263 366.939 654.212 368.277 653.585 370.569C652.911 373.04 654.288 374.93 654.985 377.181L656.825 375.341C655.061 374.876 653.78 373.355 652.478 372.172C650.954 370.786 649.261 369.494 647.142 369.298C644.731 369.076 642.358 370.35 641.061 372.357C639.353 374.998 639.726 378.282 640.624 381.134L643.124 379.678C640.15 376.359 634.868 374.033 630.553 376.113C628.503 377.101 627.223 379.205 627.268 381.484C627.319 384.078 628.723 386.473 630.164 388.539L632.211 386.493C628.997 385.091 626.183 382.711 622.642 382.139C619.67 381.658 615.255 382.662 614.86 386.279C614.674 387.987 615.615 389.577 616.504 390.961C617.48 392.48 618.617 393.913 619.885 395.197C621 396.325 622.421 397.315 623.216 398.714C623.658 399.491 623.989 401.239 622.838 401.63C621.025 402.247 621.803 405.137 623.633 404.515Z" fill="#FF008C"/>
<path d="M288.883 534.327C379.724 512.717 467.306 477.459 547.781 430.101C568.297 418.028 589.926 404.729 613.719 405.445C618.689 405.595 624.35 406.838 626.726 411.205C629.101 415.573 624.177 422.469 619.958 419.838C623.223 421.771 624.647 426.299 623.076 429.753C621.504 433.206 617.155 435.108 613.553 433.917C616.567 435.625 617.981 439.699 616.671 442.907C615.362 446.114 611.502 448.036 608.154 447.147C610.751 447.836 609.388 453.383 608.364 454.717C606.006 457.787 598.424 458.208 594.782 459.654C588.062 462.322 581.568 465.463 575.255 468.987C563 475.828 551.523 483.957 540.123 492.114C507.756 515.273 475.469 538.979 439.965 557.2C411.05 572.039 380.01 583.222 347.776 587.926" fill="white"/>
<path d="M289.279 535.77C313.934 529.896 338.351 523.033 362.452 515.187C386.552 507.342 410.334 498.522 433.723 488.758C456.947 479.063 479.789 468.456 502.167 456.939C513.48 451.117 524.675 445.064 535.741 438.786C546.459 432.705 556.929 426.166 567.799 420.355C578.379 414.7 589.54 409.763 601.448 407.778C606.922 406.866 613.061 406.259 618.528 407.512C622.745 408.478 627.906 411.919 624.954 416.751C624.053 418.226 622.423 419.51 620.711 418.546C619.025 417.598 617.581 420.097 619.201 421.13C621.785 422.778 623.01 426.331 621.693 429.17C620.362 432.038 616.894 433.341 613.948 432.474C612.298 431.989 611.366 434.33 612.796 435.209C615.13 436.643 616.34 439.722 615.288 442.325C614.24 444.915 611.218 446.313 608.55 445.705C606.659 445.275 605.943 447.957 607.754 448.59C608.554 448.87 608.078 451.123 607.95 451.691C607.652 453.017 607.266 453.985 606.086 454.726C603.22 456.524 599.446 456.763 596.239 457.623C591.862 458.797 587.6 461.017 583.535 462.984C578.754 465.299 574.091 467.848 569.526 470.563C551.738 481.144 535.237 493.845 518.391 505.831C485.014 529.579 450.712 552.575 412.65 568.19C391.691 576.789 369.808 583.181 347.376 586.484C345.478 586.764 346.285 589.647 348.172 589.369C368.969 586.307 389.301 580.592 408.856 572.917C428.516 565.202 447.344 555.555 465.447 544.703C483.805 533.698 501.436 521.538 518.875 509.144C536.41 496.682 553.557 483.4 572.134 472.498C576.806 469.756 581.582 467.194 586.481 464.881C590.614 462.93 594.758 460.991 599.23 459.982C602.45 459.256 606.346 458.691 608.87 456.361C610.773 454.604 611.523 451.091 611.014 448.619C610.724 447.21 609.914 446.182 608.55 445.705L607.754 448.59C611.874 449.529 616.396 447.479 618.036 443.484C619.672 439.5 617.905 434.836 614.305 432.625L613.153 435.359C617.519 436.644 622.548 434.542 624.44 430.329C626.346 426.087 624.552 420.996 620.711 418.546L619.201 421.13C623.176 423.367 627.176 420.127 628.423 416.304C629.986 411.514 626.629 407.436 622.382 405.622C617.386 403.489 611.483 403.704 606.183 404.18C600.116 404.725 594.148 406.069 588.371 407.982C576.284 411.986 565.083 418.226 554.132 424.628C542.809 431.248 531.492 437.856 519.971 444.129C496.721 456.789 472.934 468.462 448.698 479.114C424.299 489.837 399.437 499.51 374.213 508.117C349.159 516.666 323.742 524.156 298.054 530.555C294.868 531.348 291.677 532.124 288.483 532.885C286.611 533.331 287.404 536.217 289.279 535.77Z" fill="#FF008C"/>
<path d="M797.297 485.532C797.297 496.284 792.056 502.66 786.158 510.977C803.235 507.741 815.483 492.809 824.279 477.819C848.155 437.132 857.807 388.279 851.197 341.57C845.996 304.815 828.212 274.048 804.334 246.149C778.486 215.948 736.359 198.079 697.793 191.049C670.3 186.037 641.165 186.705 615.352 197.412C630.07 202.692 641.749 207.916 651.589 220.837C656.044 226.687 659.569 233.259 661.92 240.228C662.519 242.002 665.392 260.021 665.254 259.979C681.339 264.885 695.597 275.564 704.829 289.621C714.061 303.677 718.196 321.004 716.308 337.714C731.175 338.515 745.63 345.342 755.691 356.316C774.075 376.368 774.628 406.409 766.903 431.114C772.371 430.76 777.161 434.665 780.784 438.776C791.984 451.485 798.031 468.608 797.297 485.532Z" fill="#84FF20"/>
<path d="M614.959 198.854C627.318 203.298 639.187 208.66 647.983 218.758C653.028 224.55 657.045 231.359 659.742 238.547C661.051 242.038 661.518 245.746 662.131 249.41C662.531 251.794 662.917 254.18 663.286 256.569C663.42 257.433 663.552 258.298 663.674 259.164C663.722 259.501 663.574 259.356 663.741 259.664C663.946 260.043 663.21 260.4 663.967 259.224C663.427 260.063 663.975 261.148 664.861 261.422C689.572 269.053 708.495 289.848 713.769 315.165C715.312 322.576 715.638 330.192 714.817 337.714C714.726 338.551 715.578 339.167 716.313 339.21C732.733 340.169 748.603 348.541 758.334 361.868C767.475 374.387 770.701 390.076 770.017 405.354C769.631 413.968 768.019 422.487 765.465 430.716C765.185 431.619 765.954 432.649 766.908 432.609C773.181 432.35 777.947 437.517 781.567 442.015C785.456 446.847 788.64 452.318 790.975 458.063C793.295 463.771 794.863 469.827 795.507 475.957C796.125 481.839 796.341 488.24 794.526 493.932C792.593 499.995 788.506 505.105 784.871 510.222C783.754 511.795 786.348 513.291 787.455 511.732C791.001 506.74 794.798 501.823 796.959 496.032C799.168 490.111 799.152 483.469 798.622 477.247C797.502 464.096 792.583 451.347 784.485 440.916C780.217 435.418 774.47 429.305 766.908 429.617L768.35 431.511C773.105 416.189 774.731 399.512 771.241 383.749C767.663 367.587 758.119 353.363 743.864 344.753C735.529 339.718 726.03 336.786 716.313 336.218L717.809 337.714C719.334 323.734 716.788 309.427 710.628 296.79C704.915 285.067 695.997 275.059 685.174 267.812C679.164 263.788 672.566 260.671 665.656 258.537L666.55 260.734C667.119 259.85 666.529 258.145 666.39 257.214C666.082 255.15 665.752 253.089 665.415 251.029C664.818 247.37 664.443 243.504 663.4 239.937C661.237 232.532 657.045 225.42 652.337 219.37C648.027 213.83 642.796 209.117 636.821 205.43C630.25 201.375 622.995 198.573 615.754 195.969C613.939 195.317 613.157 198.207 614.959 198.854Z" fill="#FF008C"/>
<path d="M665.314 257.346C687.657 249.938 711.295 247.938 734.669 250.164C757.184 252.307 779.292 257.924 799.904 267.271C805.271 269.706 810.528 272.37 815.708 275.179C820.354 277.699 824.889 280.448 828.551 284.314C830.541 286.415 832.416 288.58 833.308 291.383C834.177 294.113 834.519 297.025 834.626 299.877C834.85 305.809 833.916 311.711 832.558 317.468C830.153 327.666 826.826 337.734 823.215 347.564C819.771 356.942 815.828 366.137 811.248 375.018C802.083 392.794 790.311 409.165 775.752 422.922C773.871 424.7 771.946 426.431 769.985 428.122C768.524 429.381 770.648 431.489 772.1 430.237C787.792 416.71 800.736 400.301 810.789 382.213C820.856 364.097 828.137 344.513 833.782 324.609C835.4 318.901 836.763 313.102 837.358 307.189C837.93 301.509 837.94 295.157 835.9 289.74C833.974 284.622 829.346 280.444 824.998 277.324C820.457 274.066 815.364 271.529 810.393 269.004C799.474 263.459 788.107 258.765 776.384 255.209C765.553 251.924 754.415 249.671 743.202 248.159C719.97 245.027 696.207 245.699 673.488 251.77C670.471 252.577 667.482 253.478 664.519 254.461C662.7 255.064 663.479 257.954 665.314 257.346Z" fill="#FF008C"/>
<path d="M717.03 338.973C730.696 329.53 745.41 321.624 760.492 314.699C776.126 307.521 792.276 301.398 808.778 296.528C817.199 294.043 825.725 291.896 834.352 290.257C836.242 289.897 835.442 287.013 833.557 287.372C817.592 290.406 801.947 295.106 786.7 300.694C770.326 306.696 754.307 313.782 738.972 322.096C730.921 326.461 723.056 331.182 715.52 336.39C713.946 337.477 715.44 340.071 717.03 338.973Z" fill="#FF008C"/>
<path d="M830.81 286.119C832.576 287.205 834.594 286.84 836.409 286.094C837.934 285.467 839.758 284.322 841.315 284.405C841.452 284.412 841.813 284.488 842.032 284.628C842.313 284.809 842.509 285.032 842.637 285.346C842.965 286.147 842.793 287.157 842.462 287.927C841.509 290.149 838.998 291.432 837.471 293.218C835.649 295.349 834.464 298.733 836.306 301.229C836.785 301.878 837.602 302.204 838.352 301.765C838.993 301.391 839.371 300.372 838.889 299.719C837.421 297.729 839.38 295.409 840.831 294.073C842.724 292.33 844.883 290.687 845.559 288.071C846.145 285.799 845.578 283.034 843.305 281.917C841.324 280.944 839.261 281.609 837.361 282.429C836.423 282.834 835.509 283.306 834.53 283.608C833.631 283.885 833.02 283.967 832.32 283.536C830.675 282.525 829.17 285.112 830.81 286.119Z" fill="#FF008C"/>
<path d="M701.149 339.529C702.484 343.94 701.233 348.795 698.922 352.782C706.005 348.159 713.056 343.487 720.075 338.768C718.833 339.053 717.376 338.913 716.519 337.971C715.542 336.897 715.687 335.237 716.001 333.819C716.315 332.402 716.727 330.867 716.117 329.55C711.64 332.378 707.163 335.205 702.685 338.032" fill="#FF008C"/>
<path d="M699.7 339.926C700.886 344.086 699.709 348.36 697.624 352.027C696.912 353.278 698.379 354.916 699.67 354.073C706.753 349.449 713.804 344.777 720.823 340.059C722.248 339.101 721.351 336.991 719.671 337.325C719 337.458 718.052 337.507 717.57 336.912C717.137 336.379 717.224 335.511 717.308 334.885C717.571 332.929 718.315 331.11 717.553 329.152C717.219 328.294 716.244 327.697 715.355 328.258C710.878 331.086 706.401 333.913 701.924 336.741C700.3 337.766 701.799 340.356 703.434 339.324C707.911 336.497 712.388 333.669 716.866 330.842L714.668 329.948C715.191 331.292 714.693 332.567 714.453 333.921C714.241 335.119 714.146 336.374 714.561 337.541C715.453 340.047 718.095 340.68 720.466 340.21L719.313 337.476C712.294 342.194 705.242 346.866 698.16 351.49L700.207 353.537C702.682 349.184 703.989 344.056 702.585 339.131C702.058 337.282 699.17 338.068 699.7 339.926Z" fill="#FF008C"/>
<path d="M213.23 376.678C205.689 393.741 193.287 407.377 176.392 415.768C173.517 417.196 170.481 418.471 167.276 418.661C164.071 418.851 160.642 417.788 158.665 415.259C156.044 411.906 156.609 407.158 157.199 402.944C157.764 398.916 158.106 394.357 155.337 391.029C153.016 388.24 150.551 386.342 148.976 382.886C145.955 376.256 145.966 368.163 149.409 361.691C150.498 359.644 151.897 357.733 153.697 356.271C155.627 354.704 157.963 353.697 160.361 353.04C168.799 350.729 178.319 352.838 184.992 358.496C186.405 359.694 187.777 361.084 189.568 361.559C192.012 362.208 194.553 360.976 196.612 359.507C198.67 358.038 200.608 356.254 203.042 355.567C207.764 354.233 212.868 357.778 214.561 362.384C216.255 366.989 215.213 372.19 213.23 376.678Z" fill="white"/>
<path d="M211.942 375.923C206.531 388.096 198.384 399.027 187.691 407.059C185 409.08 182.174 410.921 179.241 412.572C176.043 414.372 172.669 416.2 169.042 416.932C165.856 417.575 161.977 417.051 159.847 414.341C157.705 411.616 158.092 407.712 158.492 404.497C158.906 401.162 159.465 397.814 158.666 394.485C157.826 390.984 155.219 388.749 152.939 386.15C148.128 380.666 147.152 372.308 149.397 365.511C150.521 362.106 152.578 358.708 155.627 356.712C158.591 354.771 162.251 353.861 165.761 353.659C172.851 353.25 179.507 355.739 184.846 360.339C186.132 361.447 187.5 362.559 189.174 363.002C191.009 363.487 192.898 363.127 194.606 362.384C197.853 360.972 200.269 357.72 203.782 356.922C206.777 356.242 209.82 357.967 211.656 360.247C213.939 363.081 214.281 366.995 213.637 370.465C213.29 372.34 212.7 374.175 211.942 375.923C211.184 377.671 213.761 379.197 214.526 377.433C217.592 370.363 218.443 361.213 211.563 356.056C208.887 354.05 205.3 353.152 202.082 354.309C198.371 355.644 195.765 359.443 191.833 360.159C189.705 360.546 188.165 359.266 186.659 357.96C185.275 356.761 183.827 355.647 182.252 354.709C179.006 352.775 175.358 351.496 171.622 350.953C164.291 349.886 155.41 351.346 150.489 357.385C145.408 363.62 144.103 372.355 146.321 379.994C147.432 383.82 149.438 386.809 152.13 389.695C153.411 391.067 154.817 392.41 155.467 394.214C156.086 395.93 156.158 397.761 156.061 399.566C155.861 403.318 154.869 406.99 155.366 410.765C155.845 414.402 157.833 417.543 161.246 419.063C168.642 422.357 176.832 417.598 183.071 413.796C195.446 406.255 205.441 395.284 212.118 382.447C212.974 380.802 213.772 379.128 214.526 377.433C215.301 375.689 212.724 374.165 211.942 375.923Z" fill="#FF008C"/>
<path d="M189.034 363.01C191.712 367.46 190.551 373.482 188.312 377.858C185.94 382.495 182.154 386.168 178.171 389.435C176.681 390.656 178.808 392.762 180.286 391.55C184.772 387.871 189.049 383.587 191.447 378.217C193.734 373.095 194.648 366.535 191.617 361.5C190.625 359.852 188.037 361.354 189.034 363.01Z" fill="#FF008C"/>
<path d="M413.041 497.587C413.83 515.756 418.741 533.662 427.321 549.697C429.754 554.244 432.487 558.622 435.487 562.816C436.598 564.369 439.194 562.876 438.071 561.306C427.71 546.823 420.708 530.094 417.639 512.553C416.773 507.605 416.251 502.606 416.033 497.587C415.949 495.669 412.957 495.659 413.041 497.587Z" fill="#FF008C"/>
<path d="M489.254 428.841C490.748 438.683 493.293 448.332 496.847 457.631C497.528 459.411 500.421 458.638 499.732 456.835C496.178 447.536 493.633 437.888 492.139 428.045C491.851 426.148 488.968 426.954 489.254 428.841Z" fill="#FF008C"/>
<path d="M156.791 393.008C167.888 388.978 177.283 380.901 182.816 370.454C183.716 368.754 181.135 367.24 180.232 368.944C175.074 378.684 166.369 386.356 155.995 390.123C154.2 390.775 154.975 393.667 156.791 393.008Z" fill="#FF008C"/>
<path d="M182.58 360.518C182.633 361.278 182.609 362.04 182.509 362.795L182.563 362.398C182.517 362.733 182.456 363.065 182.382 363.395C182.293 363.785 182.327 364.198 182.532 364.548C182.714 364.858 183.07 365.154 183.426 365.236C183.809 365.323 184.239 365.304 184.579 365.085C184.898 364.879 185.18 364.572 185.267 364.191C185.538 362.991 185.657 361.746 185.572 360.518C185.544 360.119 185.424 359.751 185.134 359.461C184.874 359.201 184.449 359.006 184.076 359.022C183.689 359.04 183.288 359.167 183.018 359.461C182.76 359.741 182.553 360.124 182.58 360.518Z" fill="#FF008C"/>
<path d="M405.097 592.71C408.53 598.776 411.76 604.956 414.767 611.244C416.203 614.246 417.785 617.296 417.951 620.684C418.12 624.139 417.365 627.564 417.555 631.022C417.66 632.937 420.653 632.949 420.547 631.022C420.349 627.411 421.185 623.825 420.914 620.218C420.654 616.762 419.224 613.68 417.759 610.592C414.637 604.008 411.27 597.542 407.681 591.199C406.732 589.524 404.147 591.03 405.097 592.71Z" fill="#FF008C"/>
<path d="M351.364 673.798C354.003 679.011 356.255 684.399 358.113 689.938C358.722 691.754 361.613 690.975 360.998 689.143C359.06 683.363 356.701 677.727 353.947 672.288C353.077 670.57 350.495 672.083 351.364 673.798Z" fill="#FF008C"/>
<path d="M349.149 634.757C349.724 636.768 350.299 638.779 350.873 640.79C351.088 641.542 351.939 642.086 352.713 641.835C353.479 641.587 353.989 640.801 353.758 639.995C353.184 637.984 352.609 635.973 352.034 633.962C351.82 633.21 350.968 632.666 350.194 632.917C349.429 633.164 348.919 633.951 349.149 634.757Z" fill="#FF008C"/>
<path d="M373.277 623.986C374.39 627.209 375.117 630.551 375.39 633.928C375.455 634.734 376.031 635.424 376.886 635.424C377.645 635.424 378.447 634.738 378.381 633.928C378.086 630.27 377.36 626.661 376.162 623.19C375.899 622.427 375.136 621.922 374.322 622.146C373.58 622.35 373.012 623.219 373.277 623.986Z" fill="#FF008C"/>
<path d="M396.553 623.553L397.846 628.293C398.051 629.048 398.918 629.586 399.686 629.338C400.459 629.088 400.951 628.307 400.731 627.498L399.438 622.757C399.232 622.003 398.365 621.464 397.598 621.713C396.825 621.963 396.332 622.744 396.553 623.553Z" fill="#FF008C"/>
<path d="M378.825 656.769C379.271 661.365 379.716 665.96 380.162 670.555C380.24 671.359 380.794 672.051 381.658 672.051C382.406 672.051 383.232 671.364 383.154 670.555C382.708 665.96 382.263 661.365 381.817 656.769C381.739 655.965 381.186 655.273 380.321 655.273C379.573 655.273 378.747 655.96 378.825 656.769Z" fill="#FF008C"/>
<path d="M402.18 656.3C402.863 659.463 403.255 662.578 403.384 665.819C403.415 666.6 404.05 667.352 404.88 667.315C405.664 667.28 406.409 666.656 406.376 665.819C406.238 662.352 405.797 658.896 405.065 655.504C404.894 654.714 403.972 654.254 403.224 654.46C402.408 654.684 402.009 655.507 402.18 656.3Z" fill="#FF008C"/>
<path d="M362 669.697V666.68C362 666.296 361.833 665.894 361.562 665.622C361.302 665.363 360.876 665.167 360.504 665.184C359.693 665.22 359.008 665.841 359.008 666.68V669.697C359.008 670.08 359.175 670.483 359.446 670.754C359.705 671.014 360.131 671.209 360.504 671.193C361.314 671.156 362 670.535 362 669.697Z" fill="#FF008C"/>
<path d="M338.815 705.401C340.81 704.224 342.804 703.047 344.799 701.869C345.473 701.472 345.774 700.504 345.335 699.823C344.898 699.144 344.01 698.86 343.289 699.286C341.294 700.463 339.3 701.641 337.305 702.818C336.631 703.216 336.329 704.183 336.769 704.865C337.206 705.543 338.094 705.827 338.815 705.401Z" fill="#FF008C"/>
<path d="M373.389 702.101C376.389 700.019 378.981 697.488 381.151 694.554C381.618 693.922 381.276 692.857 380.614 692.507C379.833 692.094 379.066 692.369 378.568 693.044C378.444 693.211 378.319 693.378 378.192 693.543C378.32 693.377 378.24 693.48 378.158 693.584C378.093 693.666 378.028 693.747 377.963 693.828C377.701 694.152 377.433 694.47 377.158 694.783C376.622 695.392 376.062 695.981 375.48 696.546C374.897 697.111 374.292 697.653 373.666 698.17C373.506 698.303 373.344 698.434 373.181 698.563C373.116 698.615 373.05 698.666 372.985 698.717C373.252 698.507 372.922 698.764 372.891 698.787C372.559 699.037 372.221 699.28 371.879 699.517C371.237 699.962 370.881 700.849 371.342 701.564C371.753 702.202 372.701 702.578 373.389 702.101Z" fill="#FF008C"/>
<path d="M398.859 701.911C399.29 701.336 399.721 700.761 400.152 700.187C400.261 700.015 400.32 699.83 400.329 699.631C400.374 699.432 400.365 699.233 400.303 699.034C400.256 698.839 400.167 698.67 400.035 698.525C399.929 698.363 399.789 698.234 399.615 698.14C399.268 697.957 398.847 697.865 398.462 697.989L398.105 698.14C397.88 698.273 397.701 698.452 397.568 698.677C397.138 699.251 396.707 699.826 396.276 700.401C396.166 700.572 396.107 700.758 396.098 700.957C396.054 701.156 396.063 701.355 396.125 701.553C396.171 701.748 396.26 701.918 396.393 702.062C396.498 702.225 396.638 702.353 396.812 702.447C397.16 702.631 397.58 702.723 397.965 702.598L398.322 702.447C398.547 702.314 398.726 702.135 398.859 701.911Z" fill="#FF008C"/>
<path d="M368.107 721.309C371.418 719.743 374.729 718.177 378.039 716.612C378.77 716.266 378.958 715.219 378.576 714.565C378.139 713.817 377.262 713.682 376.529 714.028C373.219 715.594 369.908 717.16 366.597 718.725C365.867 719.071 365.678 720.118 366.06 720.772C366.498 721.52 367.374 721.655 368.107 721.309Z" fill="#FF008C"/>
<path d="M347.113 717.25C348.693 716.676 350.274 716.101 351.854 715.526C352.226 715.391 352.542 715.19 352.748 714.839C352.935 714.518 353.015 714.046 352.899 713.686C352.665 712.966 351.846 712.355 351.058 712.641C349.478 713.216 347.898 713.791 346.318 714.365C345.946 714.501 345.629 714.702 345.424 715.053C345.236 715.373 345.157 715.846 345.273 716.206C345.506 716.926 346.326 717.537 347.113 717.25Z" fill="#FF008C"/>
<path d="M313.858 721.834C314.16 721.688 314.464 721.545 314.771 721.408C314.817 721.387 315.33 721.164 315.073 721.273C315.206 721.217 315.339 721.162 315.472 721.109C316.095 720.858 316.726 720.628 317.364 720.418C318.641 719.999 319.943 719.668 321.263 719.416C322.033 719.27 322.542 718.302 322.308 717.576C322.041 716.754 321.293 716.374 320.467 716.531C317.649 717.068 314.929 718 312.348 719.25C311.642 719.592 311.397 720.655 311.811 721.297C312.278 722.021 313.103 722.2 313.858 721.834Z" fill="#FF008C"/>
<path d="M343.083 737.595C344.385 736.167 345.687 734.739 346.989 733.311C347.516 732.732 347.603 731.759 346.989 731.195C346.414 730.668 345.436 730.577 344.873 731.195C343.571 732.623 342.27 734.052 340.968 735.48C340.441 736.058 340.353 737.032 340.968 737.595C341.542 738.123 342.52 738.213 343.083 737.595Z" fill="#FF008C"/>
<path d="M431.216 669.572C432.924 673.027 434.633 676.483 436.341 679.938C436.699 680.662 437.725 680.862 438.388 680.474C439.126 680.043 439.284 679.155 438.924 678.428C437.216 674.973 435.508 671.517 433.799 668.062C433.441 667.338 432.415 667.138 431.753 667.526C431.015 667.957 430.857 668.845 431.216 669.572Z" fill="#FF008C"/>
<path d="M427.835 632.023C428.74 633.29 429.576 634.605 430.333 635.965C430.699 636.623 431.047 637.292 431.376 637.969C431.552 638.33 431.722 638.694 431.887 639.06C431.969 639.244 432.049 639.428 432.13 639.612C432.2 639.777 432.209 639.796 432.156 639.67C432.195 639.763 432.233 639.855 432.272 639.948C432.569 640.669 433.278 641.263 434.112 640.993C434.806 640.769 435.476 639.928 435.157 639.153C433.897 636.1 432.339 633.202 430.419 630.513C429.965 629.878 429.094 629.511 428.372 629.976C427.742 630.383 427.349 631.342 427.835 632.023Z" fill="#FF008C"/>
<path d="M424.568 591.663C425.143 593.53 425.717 595.397 426.292 597.265C426.522 598.012 427.347 598.564 428.132 598.31C428.885 598.066 429.424 597.271 429.177 596.47C428.602 594.602 428.028 592.735 427.453 590.867C427.223 590.12 426.398 589.568 425.613 589.822C424.861 590.066 424.322 590.862 424.568 591.663Z" fill="#FF008C"/>
<path d="M444.122 606.234C444.557 606.856 444.96 607.498 445.325 608.163C445.485 608.453 445.638 608.748 445.783 609.046C445.866 609.216 445.947 609.387 446.026 609.56C446.047 609.607 446.269 610.12 446.158 609.854C446.723 611.211 447.133 612.629 447.4 614.073C447.542 614.845 448.517 615.352 449.24 615.118C450.066 614.851 450.437 614.104 450.285 613.278C449.721 610.222 448.486 607.271 446.706 604.724C446.258 604.084 445.376 603.725 444.659 604.187C444.023 604.597 443.643 605.548 444.122 606.234Z" fill="#FF008C"/>
<path d="M445.686 636.05C446.117 637.63 446.548 639.21 446.979 640.79C447.184 641.545 448.051 642.083 448.819 641.835C449.592 641.585 450.084 640.804 449.864 639.995C449.433 638.415 449.002 636.835 448.571 635.255C448.365 634.5 447.498 633.961 446.731 634.21C445.958 634.46 445.465 635.241 445.686 636.05Z" fill="#FF008C"/>
<path d="M462.622 646.332C464.189 648.783 465.755 651.234 467.322 653.684C467.743 654.343 468.671 654.671 469.369 654.221C470.027 653.796 470.356 652.88 469.905 652.174C468.339 649.724 466.772 647.273 465.206 644.822C464.784 644.164 463.856 643.836 463.159 644.286C462.5 644.71 462.171 645.627 462.622 646.332Z" fill="#FF008C"/>
<path d="M453.139 667.875C454.29 670.46 455.441 673.045 456.592 675.63C456.911 676.347 458.011 676.571 458.639 676.166C459.381 675.688 459.517 674.887 459.175 674.12C458.024 671.535 456.873 668.95 455.722 666.365C455.403 665.648 454.303 665.424 453.675 665.828C452.933 666.307 452.797 667.108 453.139 667.875Z" fill="#FF008C"/>
<path d="M449.992 692.934C450.63 696.481 451.714 699.905 453.16 703.203C453.484 703.944 454.567 704.114 455.206 703.74C455.97 703.294 456.069 702.436 455.743 701.693C454.431 698.7 453.465 695.409 452.877 692.139C452.734 691.343 451.765 690.894 451.037 691.094C450.199 691.325 449.849 692.136 449.992 692.934Z" fill="#FF008C"/>
<path d="M477.727 679.071C478.445 680.364 479.164 681.656 479.882 682.949C480.262 683.634 481.26 683.917 481.928 683.486C482.622 683.039 482.872 682.172 482.465 681.439C481.747 680.146 481.029 678.854 480.31 677.561C479.93 676.876 478.933 676.593 478.264 677.024C477.571 677.471 477.32 678.338 477.727 679.071Z" fill="#FF008C"/>
<path d="M469.106 699.325C470.112 701.623 471.117 703.922 472.123 706.22C472.438 706.94 473.545 707.159 474.169 706.757C474.915 706.276 475.043 705.48 474.706 704.71C473.701 702.412 472.695 700.113 471.69 697.815C471.375 697.095 470.267 696.876 469.643 697.278C468.897 697.759 468.769 698.555 469.106 699.325Z" fill="#FF008C"/>
<path d="M474.704 738.11C475.135 739.115 475.566 740.121 475.997 741.126C476.134 741.446 476.573 741.726 476.891 741.814C477.249 741.912 477.726 741.868 478.044 741.663C478.363 741.457 478.644 741.15 478.731 740.769L478.785 740.371C478.784 740.101 478.716 739.849 478.58 739.616C478.15 738.611 477.719 737.605 477.288 736.6C477.151 736.28 476.712 736 476.394 735.912C476.036 735.813 475.559 735.858 475.241 736.063C474.922 736.269 474.64 736.575 474.553 736.957L474.5 737.355C474.501 737.625 474.569 737.876 474.704 738.11Z" fill="#FF008C"/>
<path d="M493.668 710.529C494.961 712.971 496.254 715.413 497.547 717.855C497.913 718.548 498.934 718.817 499.593 718.392C500.298 717.938 500.522 717.086 500.13 716.345C498.837 713.903 497.544 711.461 496.252 709.019C495.885 708.327 494.864 708.057 494.205 708.483C493.501 708.937 493.276 709.788 493.668 710.529Z" fill="#FF008C"/>
<path d="M494.103 739.402C494.39 739.977 494.677 740.552 494.965 741.126C495.059 741.301 495.187 741.44 495.35 741.546C495.494 741.678 495.664 741.767 495.859 741.814C496.057 741.876 496.256 741.885 496.455 741.84C496.654 741.831 496.84 741.772 497.011 741.663C497.331 741.457 497.612 741.15 497.699 740.769L497.752 740.371C497.751 740.101 497.683 739.85 497.548 739.616C497.261 739.042 496.973 738.467 496.686 737.892C496.592 737.718 496.464 737.578 496.301 737.473C496.156 737.341 495.987 737.251 495.792 737.205C495.593 737.143 495.394 737.134 495.196 737.178C494.996 737.187 494.811 737.246 494.639 737.356C494.32 737.562 494.039 737.868 493.952 738.25L493.898 738.647C493.899 738.917 493.967 739.169 494.103 739.402Z" fill="#FF008C"/>
<path d="M223.759 292.305C239.659 278.081 258.363 267.416 277.754 258.712C297.566 249.818 318.301 242.878 339.566 238.424C360.709 233.996 382.427 232.098 404.005 233.493C414.688 234.184 425.311 235.698 435.746 238.098C446.794 240.639 457.53 244.479 468.705 246.477C479.079 248.332 490.2 248.588 500.126 244.571C504.315 242.876 508.512 240.432 510.861 236.423C512.86 233.011 512.996 228.543 510.807 225.171C509.772 223.577 508.325 222.466 506.54 221.834C504.722 221.191 503.939 224.081 505.745 224.719C509.419 226.019 510.197 230.993 508.683 234.157C506.676 238.349 502.09 240.725 497.912 242.228C487.86 245.842 476.859 245.161 466.566 243.024C455.846 240.799 445.479 237.172 434.788 234.818C424.578 232.57 414.182 231.147 403.75 230.485C382.767 229.153 361.642 230.944 341.047 235.073C320.387 239.215 300.25 245.748 280.908 254.077C261.907 262.259 243.505 272.178 227.406 285.268C225.446 286.862 223.526 288.505 221.643 290.19C220.205 291.476 222.327 293.586 223.759 292.305Z" fill="#FF008C"/>
<path d="M350.894 271.643C377.882 267.626 405.314 266.606 432.529 268.537C446.153 269.504 459.719 271.215 473.153 273.675C486.462 276.113 499.544 279.545 512.765 282.39C525.713 285.175 538.966 287.396 552.257 286.876C564.036 286.416 576.322 283.922 586.35 277.44C590.784 274.573 594.726 270.912 597.576 266.442C600.529 261.811 602.088 256.417 602.323 250.944C602.781 240.24 598.194 228.752 589.643 222.089C585.546 218.897 580.537 216.944 575.308 216.956C569.937 216.968 564.675 218.916 560.54 222.322C556.311 225.805 552.839 231.348 552.807 236.957C552.775 242.631 557.146 246.982 562.457 248.266C565.485 248.998 568.608 248.804 571.644 248.24C573.534 247.888 572.733 245.004 570.848 245.355C565.764 246.3 559.229 245.697 556.589 240.518C554.075 235.587 557.635 229.32 561.123 225.831C564.717 222.236 569.674 220.099 574.759 219.956C579.625 219.82 584.34 221.605 588.102 224.659C596.097 231.152 600.11 242.161 599.245 252.296C598.345 262.85 591.538 271.153 582.552 276.24C572.596 281.876 560.795 283.833 549.482 283.953C536.81 284.087 524.263 281.856 511.929 279.15C499.42 276.406 487.021 273.202 474.421 270.877C461.834 268.555 449.124 266.873 436.367 265.837C410.795 263.761 385.012 264.296 359.552 267.465C356.396 267.857 353.245 268.29 350.099 268.758C348.201 269.041 349.008 271.924 350.894 271.643Z" fill="#FF008C"/>
<path d="M470.549 334.467C482.236 328.574 495.741 328.313 508.525 329.271C522.622 330.328 536.505 333.084 550.007 337.245C561.893 340.908 574.388 345.241 586.917 342.25C597.227 339.788 608.278 331.128 606.696 319.309C605.841 312.923 601.016 307.552 595.334 304.837C589.613 302.104 582.879 301.641 576.907 303.854C575.118 304.517 575.892 307.41 577.703 306.739C587.513 303.103 601.294 307.747 603.617 318.927C604.765 324.452 601.751 330.039 597.719 333.632C594.05 336.903 589.312 338.795 584.528 339.707C572.299 342.038 560.098 337.135 548.578 333.683C535.853 329.87 522.727 327.416 509.485 326.354C495.832 325.259 481.518 325.592 469.039 331.884C467.319 332.751 468.832 335.333 470.549 334.467Z" fill="#FF008C"/>
<path d="M287.33 295.731C293.321 290.641 300.424 286.99 308.026 285.008C309.887 284.523 309.098 281.636 307.23 282.123C299.115 284.238 291.602 288.189 285.215 293.615C283.745 294.864 285.87 296.971 287.33 295.731Z" fill="#FF008C"/>
<path d="M322.98 213.259C332.179 211.01 341.651 210.263 351.092 211.002C353.012 211.152 353.002 208.159 351.092 208.01C341.397 207.252 331.63 208.065 322.184 210.374C320.315 210.831 321.107 213.717 322.98 213.259Z" fill="#FF008C"/>
<path d="M437.267 335.68C432.086 321.983 427.092 310.645 424.916 311.087C407.05 314.72 390.161 320.104 372.568 324.552C351.53 329.871 330.59 335.576 309.762 341.664C283.831 349.242 258.073 357.414 232.516 366.17C226.719 368.156 220.828 370.082 214.926 372.027C213.393 374.672 212.115 377.508 210.737 380.24C203.296 394.993 191.689 407.607 177.625 416.279C180.578 429.005 183.531 441.731 186.484 454.456C190.206 470.496 194.466 487.35 200.005 503.84C236.067 490.139 264.23 456.762 270.994 418.692C263.106 417.321 256.674 409.99 256.34 401.99C256.006 393.99 261.805 386.149 269.552 384.126C277.299 382.103 286.192 386.106 289.812 393.247C290.589 394.778 291.265 396.556 292.805 397.314C294.68 398.235 296.893 397.205 298.684 396.129C320.568 382.981 336.038 359.655 339.637 334.381C358.062 341.232 377.549 345.22 397.185 346.158C408.874 346.717 421.149 346.054 431.292 340.216C433.445 338.977 435.452 337.432 437.267 335.68Z" fill="#FF008C"/>
<path d="M438.711 335.282C436.936 330.596 435.104 325.928 433.094 321.337C431.722 318.202 430.335 314.92 428.359 312.106C427.803 311.313 427.173 310.44 426.313 309.948C424.939 309.162 423.215 309.909 421.798 310.213C416.486 311.35 411.208 312.642 405.951 314.012C395.641 316.7 385.411 319.685 375.098 322.359C364.53 325.1 353.95 327.785 343.411 330.638C322.191 336.383 301.078 342.523 280.086 349.053C259.188 355.554 238.511 362.689 217.726 369.532C216.655 369.885 215.12 370.114 214.173 370.735C213.201 371.372 212.655 373.031 212.138 374.041C210.994 376.28 209.944 378.565 208.774 380.791C206.657 384.819 204.227 388.68 201.522 392.338C196.193 399.546 189.707 405.98 182.453 411.246C180.64 412.563 178.776 413.806 176.872 414.987C176.288 415.349 176.031 416.014 176.184 416.676C181.49 439.542 186.357 462.568 192.714 485.172C194.514 491.572 196.452 497.933 198.565 504.237C198.803 504.947 199.615 505.583 200.405 505.282C214.706 499.819 227.767 491.422 238.805 480.823C249.775 470.289 258.763 457.607 264.884 443.676C268.346 435.797 270.917 427.562 272.439 419.089C272.572 418.347 272.245 417.407 271.394 417.249C261.276 415.368 254.789 404.041 259.397 394.563C261.543 390.15 265.479 386.629 270.304 385.48C274.989 384.365 280.1 385.697 283.919 388.55C285.904 390.034 287.494 391.957 288.605 394.168C289.743 396.43 290.971 398.784 293.768 399.116C296.589 399.452 299.197 397.617 301.453 396.171C303.664 394.754 305.8 393.226 307.873 391.614C316.173 385.155 323.266 377.169 328.802 368.231C335.101 358.062 339.365 346.622 341.081 334.778L339.241 335.823C352.347 340.677 365.963 344.114 379.809 346.025C386.602 346.962 393.449 347.59 400.306 347.771C406.679 347.939 413.118 347.648 419.363 346.286C426.404 344.751 433.073 341.742 438.327 336.738C439.724 335.407 437.606 333.294 436.211 334.622C427.051 343.348 413.767 344.995 401.649 344.807C388.292 344.6 374.913 342.736 361.934 339.614C354.508 337.829 347.198 335.59 340.036 332.938C339.343 332.681 338.305 333.229 338.196 333.983C335.056 355.659 323.319 375.766 306.068 389.255C303.891 390.958 301.617 392.541 299.276 394.01C297.143 395.349 293.999 397.6 292.22 394.656C290.894 392.46 289.957 390.263 288.168 388.357C286.436 386.511 284.292 384.996 281.986 383.958C277.43 381.906 272.123 381.425 267.405 383.251C262.566 385.123 258.602 388.981 256.506 393.722C254.154 399.04 254.364 404.984 257.127 410.11C259.868 415.198 264.892 419.073 270.598 420.134L269.553 418.294C266.925 432.928 261.177 446.852 252.968 459.235C244.772 471.598 234.143 482.399 221.87 490.734C214.924 495.452 207.455 499.4 199.609 502.397L201.45 503.441C194.022 481.279 188.951 458.465 183.674 435.723C182.139 429.109 180.604 422.495 179.069 415.881L178.382 417.57C191.222 409.61 202.065 398.511 209.633 385.427C212.016 381.307 213.856 376.909 216.22 372.782L215.326 373.469C231.524 368.132 247.64 362.553 263.873 357.323C279.887 352.164 295.975 347.233 312.13 342.532C328.372 337.805 344.681 333.311 361.051 329.051C369.228 326.923 377.425 324.884 385.575 322.656C393.432 320.508 401.271 318.289 409.164 316.273C413.703 315.114 418.259 314.021 422.841 313.045C423.335 312.939 423.829 312.835 424.324 312.733C424.655 312.664 424.985 312.596 425.316 312.529C425.161 312.58 425.004 312.585 424.846 312.544C424.999 312.614 424.807 312.375 424.85 312.559C424.872 312.65 424.829 312.512 425.047 312.735C425.673 313.373 426.144 314.137 426.6 314.903C430.519 321.477 433.127 328.951 435.826 336.078C436.502 337.861 439.395 337.088 438.711 335.282Z" fill="#FF008C"/>
<path d="M340.497 333.62C362.503 321.542 380.695 302.627 391.905 280.166C392.435 279.105 393.023 277.96 394.093 277.448C394.873 277.076 395.778 277.109 396.641 277.169C403.113 277.626 409.501 279.236 415.417 281.901C416.595 282.432 417.825 283.069 418.454 284.198C419.29 285.697 418.811 287.564 418.236 289.182C416.591 293.81 414.31 298.211 411.478 302.224C418.697 297.372 425.141 291.371 430.495 284.517C435.893 288.217 441.29 291.917 446.687 295.617C443.761 300.464 440.339 305.011 436.492 309.165C441.595 306.053 446.698 302.94 451.801 299.827C452.431 299.443 453.125 299.043 453.858 299.132C454.52 299.212 455.063 299.674 455.562 300.115C458.684 302.874 461.807 305.633 464.929 308.392C464.445 322.717 453.474 335.067 440.475 341.104C427.476 347.14 412.72 347.973 398.388 348.012C377.232 348.07 355.154 346.342 336.969 335.532" fill="#FF008C"/>
<path d="M341.25 334.912C354.563 327.576 366.526 317.802 376.386 306.234C381.335 300.428 385.781 294.185 389.606 287.584C390.571 285.918 391.497 284.229 392.382 282.519C393.098 281.136 393.737 278.765 395.551 278.635C397.714 278.48 400.096 278.978 402.215 279.365C404.419 279.766 406.598 280.301 408.737 280.965C411.018 281.674 413.337 282.479 415.463 283.577C416.294 284.006 417.131 284.513 417.349 285.49C417.577 286.513 417.185 287.635 416.857 288.595C415.288 293.18 412.957 297.505 410.185 301.469C409.332 302.688 411.017 304.337 412.231 303.516C419.558 298.563 426.088 292.532 431.551 285.575L429.738 285.809C435.136 289.509 440.533 293.209 445.93 296.909L445.394 294.862C442.514 299.602 439.19 304.028 435.433 308.108C434.314 309.322 435.745 311.372 437.246 310.457C442.065 307.517 446.884 304.578 451.703 301.638C452.175 301.35 452.681 300.937 453.204 300.748C453.784 300.539 454.055 300.804 454.502 301.173C455.551 302.037 456.546 302.979 457.565 303.879C459.666 305.736 461.768 307.593 463.869 309.45L463.431 308.392C463.092 316.857 458.926 324.596 453.033 330.526C446.484 337.116 438.103 341.212 429.17 343.508C419.208 346.07 408.848 346.482 398.61 346.516C388.681 346.549 378.696 346.228 368.868 344.714C357.964 343.034 347.265 339.873 337.722 334.24C336.06 333.259 334.553 335.844 336.212 336.823C347.043 343.216 359.269 346.505 371.667 348.104C384.328 349.737 397.343 349.916 410.081 349.214C422.548 348.528 435.492 346.354 446.268 339.674C455.289 334.081 462.943 325.371 465.52 314.896C465.884 313.418 466.13 311.912 466.286 310.399C466.36 309.677 466.579 308.702 466.37 307.995C466.126 307.172 465.156 306.602 464.544 306.061C461.722 303.568 458.992 300.821 455.993 298.544C454.483 297.397 452.984 297.459 451.364 298.344C449.659 299.277 448.025 300.377 446.366 301.389C442.823 303.551 439.279 305.712 435.736 307.874L437.548 310.223C441.473 305.962 444.969 301.324 447.977 296.373C448.419 295.646 448.098 294.777 447.44 294.326C442.043 290.626 436.646 286.926 431.248 283.226C430.759 282.89 429.819 282.971 429.436 283.459C424.132 290.212 417.836 296.123 410.721 300.933L412.768 302.979C415.407 299.207 417.562 295.135 419.212 290.836C419.927 288.974 420.705 286.914 420.278 284.889C419.868 282.939 418.375 281.668 416.653 280.835C412.501 278.826 407.991 277.427 403.466 276.565C401.216 276.136 398.926 275.817 396.639 275.674C394.429 275.535 392.675 276.128 391.403 277.995C390.289 279.629 389.53 281.559 388.584 283.296C387.63 285.045 386.634 286.771 385.597 288.471C383.452 291.984 381.133 295.391 378.651 298.675C373.766 305.139 368.208 311.11 362.158 316.496C355.305 322.598 347.776 327.901 339.74 332.328C338.053 333.258 339.561 335.842 341.25 334.912Z" fill="#FF008C"/>
<path d="M363.208 410.746C370.368 411.561 377.52 412.455 384.659 413.442C388.172 413.927 391.682 414.433 395.189 414.96C398.265 415.422 401.768 415.567 404.371 417.448L404.728 414.714C401.482 415.327 398.387 416.755 395.311 417.918C391.999 419.17 388.687 420.423 385.376 421.675C383.592 422.349 384.365 425.242 386.171 424.56C389.483 423.308 392.794 422.055 396.106 420.803C399.182 419.64 402.278 418.212 405.523 417.599C406.914 417.337 406.819 415.544 405.881 414.865C403.165 412.901 399.686 412.633 396.474 412.149C392.804 411.595 389.13 411.065 385.454 410.557C378.05 409.533 370.634 408.599 363.208 407.754C361.298 407.537 361.314 410.531 363.208 410.746Z" fill="#FF008C"/>
<path d="M452.834 394.226C445.91 399.664 438.986 405.102 432.063 410.54C431.042 411.342 431.897 413.165 433.121 413.094C437.749 412.824 442.369 413.137 446.91 414.075C448.789 414.463 449.592 411.58 447.705 411.19C442.907 410.198 438.013 409.817 433.121 410.102L434.178 412.655C441.102 407.217 448.026 401.779 454.949 396.341C455.59 395.838 455.466 394.754 454.949 394.226C454.329 393.592 453.466 393.73 452.834 394.226Z" fill="#FF008C"/>
<path d="M367.197 383.187C376.456 375.326 389.059 373.294 400.801 372.544C402.713 372.422 402.726 369.43 400.801 369.553C388.19 370.358 375.003 372.648 365.082 381.071C363.612 382.319 365.737 384.426 367.197 383.187Z" fill="#FF008C"/>
<path d="M425.56 367.94C431.894 365.782 439.371 363.226 445.919 366.014C446.668 366.333 447.514 366.232 447.966 365.477C448.341 364.852 448.172 363.747 447.429 363.431C439.984 360.261 432.05 362.573 424.764 365.055C422.952 365.672 423.73 368.563 425.56 367.94Z" fill="#FF008C"/>
<path d="M419.692 372.953C426.301 394.207 431.128 416.026 433.996 438.101C434.343 440.773 434.975 443.752 434.208 446.402C433.661 448.291 431.513 450.649 429.336 449.58C427.614 448.734 426.096 451.313 427.826 452.163C429.865 453.165 432.13 452.899 433.992 451.613C436.114 450.148 437.143 447.864 437.431 445.355C437.753 442.554 437.2 439.683 436.831 436.912C436.434 433.925 436.007 430.942 435.543 427.965C433.659 415.874 431.204 403.872 428.19 392.012C426.495 385.345 424.62 378.726 422.577 372.157C422.007 370.325 419.118 371.107 419.692 372.953Z" fill="#FF008C"/>
<path d="M416.547 461.227C413.848 457.45 408.725 455.582 404.287 457.282C399.337 459.177 396.781 464.243 395.038 468.921C393.002 474.386 391.964 480.369 392.196 486.206C392.299 488.795 392.966 491.307 395.224 492.828C397.136 494.118 399.695 494.395 401.874 493.691C407.981 491.715 410.155 484.88 411.731 479.343C412.259 477.488 409.373 476.696 408.846 478.548C407.71 482.54 406.482 487.307 402.904 489.856C401.358 490.957 399.396 491.472 397.582 490.723C395.607 489.907 395.24 487.932 395.182 486.005C395.041 481.294 395.721 476.58 397.116 472.082C398.3 468.267 399.943 463.849 403.191 461.291C406.465 458.713 411.502 459.292 413.963 462.737C415.073 464.29 417.669 462.798 416.547 461.227Z" fill="#FF008C"/>
<path d="M395.967 472.896C400.471 475.523 405.406 477.411 410.514 478.46C408.847 481.668 407.105 484.836 405.29 487.962C404.38 489.528 403.246 491.235 401.466 491.573C399.855 491.879 398.211 490.877 397.318 489.502C396.424 488.127 396.144 486.448 395.996 484.815C395.686 481.383 395.876 477.906 396.559 474.528" fill="#FF008C"/>
<path d="M395.209 474.187C399.839 476.866 404.876 478.808 410.113 479.902L409.219 477.705C407.8 480.43 406.331 483.129 404.807 485.797C403.957 487.285 402.537 490.743 400.268 490.035C397.889 489.292 397.578 486.184 397.432 484.104C397.216 481.031 397.403 477.948 397.998 474.925C398.369 473.045 395.486 472.24 395.113 474.13C394.402 477.742 394.148 481.454 394.526 485.122C394.851 488.273 395.928 491.676 399.217 492.834C402.468 493.979 404.911 491.52 406.44 488.953C408.336 485.771 410.093 482.499 411.802 479.215C412.221 478.411 411.899 477.225 410.908 477.017C405.908 475.972 401.141 474.163 396.719 471.604C395.05 470.637 393.542 473.222 395.209 474.187Z" fill="#FF008C"/>
</svg>
