<svg width="1000" height="1000" viewBox="0 0 1000 1000" fill="none" xmlns="http://www.w3.org/2000/svg">
<path d="M277.768 765.914C282.355 763.32 286.657 760.077 290.712 757.125C295.917 753.336 301.471 751.003 305.968 746.172C306.951 745.116 316.349 731.567 314.856 731.018C308.978 728.857 302.503 729.328 296.26 729.828C281.994 730.97 266.464 731.25 252.579 734.757C238.811 738.234 223.516 730.072 209.964 728.059C205.195 727.35 200.626 726.023 196.286 728.747C190.789 732.197 186.558 739.906 182.861 745.086C179.749 749.446 182.848 749.925 183.331 753.758C183.862 757.965 180.554 761.247 177.562 763.708C163.898 774.952 150.631 787.086 141.158 802.032C139.968 803.909 138.798 806.028 139.126 808.226C141.54 824.366 186.18 801.308 192.103 797.475C205.006 789.123 217.909 780.772 230.811 772.421C234.497 770.035 238.404 767.574 242.788 767.33C247.841 767.049 252.554 769.759 257.551 770.561C264.867 771.736 271.576 769.416 277.768 765.914Z" fill="#FF008C"/>
<path d="M278.548 767.255C282.634 764.923 286.438 762.159 290.232 759.386C293.687 756.86 297.396 754.763 300.934 752.364C303.481 750.638 306.023 748.709 307.879 746.228C309.142 744.539 310.323 742.786 311.485 741.026C312.821 739.003 314.144 736.953 315.283 734.811C315.961 733.536 317.32 731.313 316.042 729.987C315.533 729.458 314.636 729.289 313.965 729.087C312.805 728.739 311.618 728.484 310.421 728.299C308.17 727.952 305.898 727.828 303.622 727.857C298.981 727.917 294.344 728.438 289.715 728.747C280.359 729.373 270.98 729.891 261.706 731.343C259.461 731.694 257.224 732.104 255.004 732.59C252.874 733.057 250.779 733.674 248.602 733.896C244.505 734.312 240.378 733.873 236.356 733.067C227.978 731.388 219.966 728.195 211.538 726.748C207.446 726.045 202.985 724.923 198.864 725.967C195.043 726.935 192.02 729.902 189.587 732.857C187.094 735.884 184.995 739.197 182.803 742.441C181.807 743.914 180.537 745.365 180.099 747.128C179.742 748.566 180.099 749.839 180.737 751.131C181.395 752.465 181.973 753.706 181.805 755.247C181.613 757.014 180.569 758.585 179.403 759.871C176.578 762.989 172.968 765.478 169.787 768.22C163.135 773.954 156.712 779.983 150.907 786.582C148.003 789.883 145.253 793.327 142.715 796.917C140.351 800.262 136.912 804.341 137.638 808.718C139.066 817.338 150.372 815.696 156.419 814.283C166.169 812.005 175.556 807.836 184.485 803.38C187.238 802.006 190.017 800.612 192.628 798.978C200.625 793.973 208.479 788.721 216.399 783.595C220.631 780.856 224.863 778.117 229.094 775.378C232.784 772.99 236.544 770.144 240.908 769.156C245.323 768.155 249.577 770.065 253.745 771.268C257.97 772.488 262.295 772.726 266.621 771.908C270.838 771.111 274.822 769.344 278.548 767.255C280.292 766.278 278.727 763.593 276.98 764.573C273.284 766.645 269.37 768.333 265.166 769.023C260.864 769.73 256.791 768.991 252.686 767.697C248.626 766.416 244.566 765.207 240.286 766.114C236.204 766.978 232.637 769.387 229.191 771.618C221.075 776.871 212.959 782.125 204.842 787.378C199.588 790.778 194.44 794.454 188.976 797.513C181.505 801.697 173.626 805.315 165.581 808.239C161.158 809.846 156.611 811.279 151.951 812.005C150.132 812.289 148.264 812.429 146.424 812.293C145.16 812.2 143.716 811.879 142.662 811.232C141.719 810.653 141.105 809.817 140.794 808.656C140.346 806.983 140.972 805.425 141.795 803.97C142.87 802.072 144.14 800.265 145.397 798.485C150.254 791.615 155.936 785.358 161.977 779.514C165.06 776.531 168.244 773.653 171.488 770.844C174.568 768.178 177.932 765.735 180.829 762.87C183.388 760.339 185.376 757.071 184.825 753.345C184.614 751.92 183.969 750.742 183.367 749.459C182.8 748.249 183.216 747.347 183.932 746.256C185.967 743.157 188.041 740.04 190.236 737.052C192.344 734.181 194.912 730.926 198.255 729.442C201.995 727.782 206.484 729.048 210.323 729.678C214.322 730.334 218.235 731.433 222.126 732.548C229.938 734.788 237.964 737.352 246.186 737.151C250.326 737.051 254.23 735.866 258.266 735.083C262.718 734.218 267.218 733.639 271.73 733.195C280.648 732.319 289.612 731.848 298.549 731.204C302.96 730.887 307.487 730.691 311.823 731.728C312.339 731.852 312.85 731.993 313.357 732.151C314.414 732.479 313.71 732.274 313.5 731.61C313.445 731.438 313.452 731.232 313.484 731.189C313.419 731.276 313.384 731.552 313.35 731.661C313.182 732.194 312.751 732.975 312.353 733.698C310.245 737.526 307.757 741.201 305.158 744.712C304.987 744.942 305.055 744.845 305.104 744.785C305.047 744.854 304.995 744.929 304.935 744.995C304.375 745.604 303.785 746.184 303.171 746.74C301.672 748.095 300.029 749.264 298.336 750.364C294.84 752.635 291.307 754.773 287.936 757.235C284.384 759.83 280.804 762.39 276.98 764.573C275.244 765.564 276.807 768.249 278.548 767.255Z" fill="#FF008C"/>
<path d="M248.742 739.222C238.391 739.709 228.019 739.971 217.683 739.06C207.866 738.195 198.068 739.333 188.161 737.577C187.437 737.448 186.677 737.295 186.119 736.815C185.377 736.177 185.172 735.13 185.011 734.165C184.508 731.148 184.005 728.072 184.438 725.044C184.871 722.016 186.399 718.986 189.073 717.501C191.78 715.997 195.09 716.309 198.167 716.665C196.016 712.266 198.399 707.022 201.264 703.052C204.228 698.943 208.278 694.985 213.335 694.675C218.813 694.339 223.496 698.326 227.517 702.062C230.345 697.878 233.551 693.813 237.795 691.075C242.038 688.336 247.499 687.089 252.232 688.85C256.965 690.611 260.464 695.875 259.26 700.779C262.897 697.595 267.343 695.176 272.144 694.618C276.945 694.059 282.102 695.55 285.367 699.114C288.632 702.679 289.592 708.392 287.083 712.525C290.964 711.594 295.287 711.618 298.682 713.715C302.077 715.812 304.091 720.4 302.375 724.002C307.245 722.161 313.366 725.347 314.651 730.393C314.814 731.031 314.905 731.723 314.663 732.336C314.35 733.131 313.555 733.618 312.78 733.975C308.574 735.912 304.064 734.744 299.65 735.329C293.86 736.095 287.993 736.505 282.175 737.004C271.046 737.958 259.899 738.698 248.742 739.222Z" fill="white"/>
<path d="M248.748 737.669C242.587 737.956 236.421 738.169 230.253 738.099C224.115 738.03 218.024 737.359 211.896 737.192C205.931 737.029 199.954 737.249 194.001 736.761C192.513 736.639 191.028 736.477 189.553 736.243C188.937 736.145 188.073 736.106 187.496 735.83C186.918 735.554 186.786 735.074 186.651 734.484C186 731.64 185.568 728.432 185.936 725.523C186.24 723.112 187.303 720.518 189.395 719.128C191.948 717.429 195.297 717.89 198.172 718.218C199.464 718.365 199.944 716.82 199.514 715.881C197.938 712.444 199.617 708.529 201.455 705.558C203.194 702.748 205.448 699.959 208.229 698.12C211.085 696.231 214.284 695.707 217.537 696.874C220.968 698.107 223.797 700.726 226.424 703.16C227.194 703.874 228.29 703.691 228.864 702.846C232.889 696.917 238.105 690.747 245.648 689.711C248.931 689.26 252.398 689.975 254.868 692.278C257.068 694.329 258.441 697.345 257.768 700.366C257.42 701.924 259.189 702.892 260.364 701.877C265.524 697.421 272.542 694.553 279.285 696.94C285.142 699.013 289.116 705.939 285.748 711.741C285.046 712.949 286.201 714.322 287.502 714.022C291.061 713.203 295.234 713.101 298.332 715.341C300.654 717.021 302.277 720.429 301.039 723.218C300.547 724.327 301.381 726.001 302.793 725.5C306.3 724.256 310.454 725.755 312.381 728.961C312.782 729.627 313.423 730.767 313.262 731.572C313.058 732.593 311.087 733.006 310.246 733.21C307.731 733.819 305.095 733.561 302.534 733.594C299.788 733.629 297.058 734.115 294.329 734.391C291.416 734.687 288.497 734.926 285.579 735.167C279.862 735.639 274.147 736.121 268.424 736.52C261.87 736.977 255.311 737.359 248.748 737.669C246.757 737.763 246.746 740.87 248.748 740.775C262.019 740.148 275.259 739.15 288.496 738.031C291.737 737.757 294.977 737.462 298.206 737.067C301.216 736.698 304.159 736.803 307.179 736.693C309.795 736.597 313.143 736.196 315.138 734.301C317.086 732.451 316.338 729.593 315.146 727.53C312.593 723.114 306.815 720.784 301.967 722.504L303.721 724.786C305.5 720.778 304.096 716.091 300.76 713.318C296.84 710.061 291.429 709.932 286.676 711.027L288.43 713.309C292.574 706.172 288.377 697.414 281.194 694.372C273.12 690.953 264.457 694.249 258.167 699.681L260.763 701.192C261.614 697.376 260.313 693.548 257.691 690.709C254.925 687.715 250.891 686.312 246.86 686.498C237.562 686.928 231.059 694.093 226.181 701.278L228.621 700.964C225.489 698.062 222.126 695.1 217.994 693.753C213.99 692.447 209.77 693.266 206.349 695.65C202.948 698.02 200.13 701.467 198.134 705.081C196.013 708.921 194.933 713.308 196.831 717.449L198.173 715.111C195.26 714.779 192.204 714.518 189.418 715.637C186.934 716.634 185.079 718.64 183.998 721.061C182.763 723.827 182.564 726.864 182.848 729.85C183.004 731.493 183.257 733.137 183.551 734.761C183.787 736.067 184.234 737.339 185.341 738.157C186.511 739.021 188.064 739.146 189.458 739.349C191.127 739.592 192.804 739.779 194.487 739.906C197.869 740.162 201.262 740.199 204.652 740.217C208.113 740.236 211.576 740.233 215.033 740.425C218.466 740.616 221.885 740.957 225.323 741.087C233.131 741.382 240.946 741.139 248.748 740.775C250.738 740.683 250.749 737.576 248.748 737.669Z" fill="#FF008C"/>
<path d="M565.731 765.201C572.689 761.783 620.261 735.828 613.377 726.952C611.981 725.152 609.653 724.395 607.456 723.789C582.585 716.926 556.399 717.019 530.599 717.16C519.448 717.221 508.297 717.282 497.147 717.343C492.669 717.368 488.126 717.401 483.82 718.63C480.706 719.52 477.801 721.012 474.955 722.559C451.683 735.213 430.701 750.386 409.886 766.731C387.313 784.455 362.059 800.659 346.194 825.309C344.831 827.427 343.514 829.722 343.433 832.239C343.288 836.827 347.459 840.641 351.927 841.692C356.395 842.744 361.059 841.705 365.525 840.644C390.043 834.816 412.534 827.503 433.796 813.742C453.663 800.883 473.53 788.023 493.397 775.164C499.072 771.491 505.089 767.702 511.838 767.326C519.619 766.892 526.877 771.066 534.571 772.301C545.263 774.019 556.011 769.977 565.731 765.201Z" fill="#FF008C"/>
<path d="M566.515 766.543C576.082 761.831 585.344 756.229 594.221 750.339C599.528 746.818 604.828 743.106 609.466 738.721C612.135 736.196 616.095 732.377 615.552 728.294C615.089 724.813 611.215 723.248 608.258 722.4C602.402 720.721 596.398 719.504 590.384 718.554C578.089 716.613 565.643 715.895 553.209 715.667C540.639 715.437 528.062 715.621 515.491 715.69C508.961 715.726 502.431 715.744 495.901 715.798C489.824 715.849 484.08 716.442 478.503 719.007C473.133 721.476 468.002 724.602 462.929 727.622C457.762 730.698 452.675 733.907 447.66 737.226C437.704 743.815 428.036 750.831 418.546 758.073C409.719 764.809 400.967 771.639 392.122 778.353C383.616 784.809 375.16 791.362 367.281 798.582C359.38 805.822 352.079 813.764 346.079 822.664C343.188 826.953 340.305 831.848 343.053 836.955C345.465 841.438 350.553 843.559 355.434 843.678C361.378 843.823 367.435 841.826 373.141 840.367C378.687 838.949 384.203 837.408 389.661 835.682C400.347 832.303 410.823 828.193 420.793 823.059C431.731 817.428 441.876 810.36 452.189 803.685C463.101 796.622 474.013 789.56 484.925 782.497C490.077 779.162 495.146 775.583 500.526 772.622C505.49 769.891 510.792 768.217 516.495 769.126C522.146 770.027 527.402 772.488 533.007 773.592C538.811 774.736 544.747 774.268 550.452 772.809C556.032 771.381 561.353 769.068 566.515 766.543C568.31 765.664 566.738 762.984 564.947 763.861C554.573 768.937 543.153 773.05 531.547 770.075C526.268 768.721 521.212 766.563 515.765 765.915C510.275 765.262 505.038 766.786 500.187 769.284C495.033 771.939 490.248 775.354 485.389 778.499C480.121 781.909 474.853 785.319 469.585 788.728C459.049 795.548 448.514 802.367 437.978 809.186C428.491 815.327 418.874 820.964 408.478 825.447C398.406 829.79 387.936 833.175 377.357 836.044C371.83 837.544 366.236 839.117 360.594 840.124C355.602 841.015 349.603 840.844 346.326 836.34C342.95 831.699 347.075 826.621 349.767 822.767C352.725 818.531 356.001 814.527 359.49 810.718C373.518 795.406 390.673 783.508 407.039 770.895C425.255 756.855 443.477 742.934 463.221 731.067C468.167 728.095 473.167 725.14 478.32 722.538C480.9 721.234 483.56 720.171 486.404 719.609C489.281 719.041 492.229 718.948 495.153 718.912C507.735 718.76 520.322 718.766 532.906 718.701C556.873 718.579 581.199 718.629 604.568 724.628C606.879 725.222 609.767 725.67 611.603 727.324C611.956 727.642 612.228 727.954 612.428 728.381C612.284 728.073 612.405 728.339 612.448 728.502C612.548 728.884 612.49 728.622 612.494 728.713C612.5 728.859 612.499 729.003 612.498 729.149C612.494 729.593 612.553 728.991 612.476 729.359C612.399 729.728 612.293 730.085 612.156 730.436C612.192 730.345 612.111 730.549 612.004 730.756C611.913 730.93 611.823 731.103 611.727 731.273C611.491 731.689 611.227 732.087 610.952 732.478C608.114 736.516 603.511 739.946 599.457 742.924C589.76 750.046 579.301 756.223 568.705 761.906C567.461 762.573 566.214 763.237 564.947 763.861C563.154 764.744 564.726 767.424 566.515 766.543Z" fill="#FF008C"/>
<path d="M276.828 540.191C273.522 549.79 269.115 558.587 264.684 567.58C262.272 572.474 260.507 577.839 258.589 582.943C257.166 586.728 253.228 593.383 253.434 597.396C252.752 584.097 252.07 570.798 251.387 557.499C240.605 557.902 229.855 559.174 219.276 561.298C218.697 572.147 218.188 583 217.736 593.855C211.259 583.615 204.828 573.346 198.451 563.044C196.398 563.915 194.232 564.875 192.972 566.715C190.755 569.954 192.232 574.332 193.766 577.944C197.928 587.744 202.098 597.553 206.916 607.053C210.708 614.531 217.212 622.753 218.551 631.067C219.314 635.806 218.921 640.645 218.568 645.433C216.333 675.793 215.796 706.25 215.26 736.687C220.847 738.6 226.914 739.064 232.818 739.31C235.047 739.45 258.623 739.756 258.623 738.118C258.014 702.251 257.405 666.383 256.796 630.516C256.765 628.67 256.735 626.808 257.085 624.996C257.428 623.227 258.124 621.549 258.817 619.886C261.738 612.867 287.008 543.713 288.973 544.393C284.925 542.992 280.876 541.592 276.828 540.191Z" fill="white"/>
<path d="M275.331 539.779C272.378 548.295 268.463 556.408 264.484 564.481C262.513 568.481 260.77 572.532 259.227 576.716C257.966 580.135 256.714 583.498 255.183 586.805C253.678 590.056 251.774 593.714 251.881 597.396H254.988C254.306 584.097 253.623 570.798 252.941 557.499C252.899 556.685 252.263 555.912 251.388 555.946C240.463 556.368 229.584 557.661 218.863 559.801C218.173 559.938 217.758 560.649 217.723 561.298C217.145 572.147 216.636 583 216.183 593.855L219.078 593.071C212.601 582.831 206.17 572.562 199.792 562.26C199.31 561.48 198.458 561.366 197.667 561.703C195.425 562.658 193.193 563.743 191.74 565.782C190.24 567.889 190.089 570.521 190.528 572.993C190.994 575.622 192.145 578.071 193.182 580.51C194.413 583.406 195.648 586.3 196.903 589.185C199.381 594.881 201.94 600.544 204.706 606.106C207.194 611.111 210.276 615.761 212.941 620.667C214.217 623.015 215.392 625.428 216.204 627.98C217.066 630.689 217.384 633.478 217.43 636.313C217.533 642.646 216.736 649.02 216.344 655.336C215.555 668.05 215.031 680.779 214.647 693.512C214.214 707.901 213.96 722.294 213.706 736.688C213.694 737.399 214.203 737.969 214.847 738.185C222.832 740.861 231.47 740.952 239.821 740.979C243.422 740.991 247.025 740.963 250.623 740.822C253.13 740.724 255.97 740.795 258.392 740.046C259.916 739.574 260.186 738.644 260.16 737.122C260.1 733.635 260.041 730.148 259.982 726.661C259.863 719.686 259.745 712.712 259.627 705.738C259.39 691.79 259.153 677.841 258.916 663.893C258.798 656.918 258.679 649.944 258.561 642.97C258.502 639.483 258.442 635.996 258.383 632.509C258.327 629.187 258.187 625.993 259.318 622.814C260.679 618.985 262.293 615.222 263.73 611.419C268.528 598.722 273.284 586.009 278.182 573.351C280.503 567.352 282.844 561.359 285.304 555.416C286.616 552.245 287.962 548.854 289.735 545.755C289.998 545.295 289.652 545.777 289.792 545.658C290.022 545.464 289.677 545.749 289.618 545.772C289.356 545.872 288.987 546.001 288.56 545.891C290.513 546.396 291.261 543.544 289.386 542.895C285.338 541.495 281.289 540.094 277.241 538.694C275.348 538.039 274.534 541.039 276.415 541.69C280.464 543.09 284.512 544.49 288.56 545.891L289.386 542.895C288.005 542.538 287.216 543.847 286.656 544.864C285.876 546.28 285.226 547.773 284.575 549.252C282.277 554.477 280.174 559.79 278.083 565.101C272.93 578.189 267.984 591.358 263.025 604.52C261.391 608.857 259.772 613.201 258.094 617.522C257.027 620.271 255.743 622.944 255.387 625.906C254.977 629.305 255.282 632.83 255.34 636.245C255.399 639.732 255.458 643.219 255.518 646.706C255.993 674.686 256.468 702.666 256.943 730.646C256.971 732.306 256.999 733.967 257.028 735.628C257.031 735.851 257.215 738.028 257.07 738.118L257.251 737.436C257.353 737.254 257.494 737.111 257.673 737.005C257.552 737.129 257.408 736.972 257.807 736.967C257.506 736.971 257.115 737.168 256.809 737.226C256.146 737.352 256.075 737.348 255.367 737.418C252.098 737.745 248.795 737.798 245.512 737.844C238.707 737.94 231.828 737.977 225.057 737.209C221.869 736.848 218.717 736.21 215.672 735.19L216.813 736.688C217.254 711.627 217.696 686.558 219.087 661.529C219.429 655.36 219.871 649.199 220.296 643.036C220.691 637.299 220.791 631.472 218.803 625.992C216.952 620.891 214.027 616.284 211.269 611.642C208.321 606.68 205.836 601.479 203.429 596.238C200.601 590.08 197.928 583.85 195.296 577.606C194.263 575.156 193.013 572.28 193.475 569.557C193.973 566.625 196.788 565.427 199.235 564.385L197.11 563.828C203.488 574.13 209.918 584.399 216.395 594.639C217.229 595.957 219.225 595.404 219.289 593.855C219.742 583 220.251 572.148 220.829 561.299L219.689 562.796C230.142 560.71 240.736 559.464 251.387 559.052L249.834 557.499C250.516 570.798 251.199 584.097 251.881 597.396C251.983 599.38 255.047 599.405 254.988 597.396C254.899 594.341 256.542 591.236 257.79 588.536C259.296 585.278 260.591 581.997 261.825 578.625C263.316 574.549 264.936 570.574 266.856 566.68C268.817 562.702 270.775 558.721 272.616 554.685C274.719 550.075 276.666 545.393 278.326 540.604C278.982 538.712 275.983 537.898 275.331 539.779Z" fill="#FF008C"/>
<path d="M210.514 582.379C206.475 575.945 202.449 569.503 198.451 563.044C196.398 563.915 194.232 564.875 192.972 566.716C190.755 569.954 192.232 574.332 193.766 577.944C194.643 580.01 195.522 582.075 196.406 584.139C198.515 584.397 200.635 584.449 202.755 584.17C204.853 583.895 206.894 583.305 208.942 582.772C209.46 582.638 209.985 582.505 210.514 582.379Z" fill="#FF008C"/>
<path d="M211.861 581.595C207.823 575.161 203.797 568.719 199.798 562.26C199.315 561.481 198.464 561.366 197.673 561.703C195.762 562.516 193.775 563.414 192.368 564.998C190.888 566.664 190.217 568.814 190.304 571.027C190.392 573.237 191.066 575.376 191.883 577.413C192.895 579.936 194.001 582.425 195.071 584.923C195.296 585.449 195.907 585.634 196.412 585.692C198.873 585.979 201.313 585.969 203.762 585.582C206.191 585.198 208.547 584.455 210.933 583.877C212.875 583.406 212.052 580.409 210.107 580.881C207.849 581.429 205.619 582.121 203.327 582.521C201.043 582.92 198.707 582.853 196.412 582.586L197.753 583.355C196.856 581.26 195.947 579.168 195.073 577.063C194.364 575.353 193.669 573.542 193.459 571.69C193.273 570.048 193.511 568.333 194.669 567.077C195.876 565.767 197.635 565.069 199.241 564.386L197.116 563.828C201.114 570.287 205.14 576.729 209.179 583.163C210.239 584.852 212.928 583.295 211.861 581.595Z" fill="#FF008C"/>
<path d="M264.684 567.58C264.138 568.687 263.629 569.821 263.141 570.968C265.673 570.087 268.297 569.384 270.664 568.133C274.218 566.254 277.184 563.447 280.643 561.445C280.89 561.302 281.131 561.148 281.373 560.995C285.302 551.171 288.341 544.175 288.973 544.393C284.924 542.993 280.876 541.592 276.828 540.192C273.522 549.791 269.115 558.588 264.684 567.58Z" fill="#FF008C"/>
<path d="M263.346 566.796C262.802 567.912 262.292 569.043 261.802 570.184C261.323 571.301 262.133 572.955 263.557 572.465C267.517 571.105 271.263 569.85 274.731 567.432C276.376 566.285 277.953 565.044 279.618 563.926C280.389 563.408 281.207 562.965 281.978 562.451C282.896 561.839 283.113 560.807 283.51 559.823C284.875 556.433 286.251 553.044 287.753 549.712C288.225 548.666 288.703 547.619 289.246 546.607C289.416 546.292 289.595 545.984 289.785 545.681C289.973 545.383 289.837 545.696 289.782 545.673C289.813 545.637 289.847 545.602 289.883 545.57C289.505 545.91 289.065 546.017 288.563 545.891C290.513 546.2 291.312 543.561 289.389 542.895C285.34 541.495 281.292 540.095 277.244 538.694C276.414 538.407 275.594 539.027 275.333 539.779C272.098 549.111 267.705 557.953 263.346 566.796C262.465 568.583 265.143 570.159 266.028 568.364C270.505 559.281 275.006 550.189 278.329 540.605L276.418 541.69C280.466 543.09 284.514 544.491 288.563 545.891L289.389 542.895C287.103 542.533 286.045 546.013 285.315 547.606C283.363 551.869 281.62 556.231 279.878 560.582L280.592 559.654C277.74 561.452 275.083 563.493 272.276 565.354C269.305 567.324 266.07 568.323 262.731 569.47L264.485 571.752C264.974 570.611 265.484 569.48 266.028 568.364C266.9 566.574 264.222 564.997 263.346 566.796Z" fill="#FF008C"/>
<path d="M252.436 577.97C252.086 571.146 251.735 564.323 251.385 557.499C240.603 557.902 229.853 559.174 219.274 561.299C218.917 567.981 218.595 574.666 218.289 581.351C219.551 581.373 220.804 581.513 222.035 581.822C225.406 582.67 228.236 583.726 231.9 583.841C239.132 584.068 246.625 582.462 252.436 577.97Z" fill="#FF008C"/>
<path d="M253.989 577.969C253.639 571.146 253.289 564.322 252.938 557.499C252.897 556.685 252.26 555.912 251.385 555.945C240.461 556.367 229.582 557.661 218.861 559.801C218.171 559.938 217.755 560.649 217.721 561.298C217.365 567.981 217.043 574.665 216.736 581.35C216.696 582.207 217.48 582.879 218.289 582.903C221.536 583 224.541 584.246 227.697 584.882C230.704 585.488 233.782 585.529 236.83 585.254C242.707 584.724 248.483 582.908 253.22 579.31C254.791 578.117 253.245 575.418 251.652 576.628C247.125 580.067 241.648 581.82 236.008 582.213C233.134 582.413 230.289 582.321 227.477 581.658C224.403 580.932 221.478 579.892 218.289 579.797L219.842 581.35C220.149 574.665 220.471 567.981 220.827 561.298L219.687 562.796C230.14 560.71 240.734 559.463 251.385 559.052L249.832 557.498C250.182 564.322 250.532 571.146 250.882 577.969C250.984 579.958 254.091 579.971 253.989 577.969Z" fill="#FF008C"/>
<path d="M341.911 448.784C345.008 440.135 345.47 430.527 343.063 421.652C339.831 409.738 331.469 399.31 320.542 393.567C322.325 387.62 325.172 381.188 325.31 375.038C325.448 368.873 324.614 362.333 323.148 356.345C320.501 345.532 315.639 334.928 307.362 327.484C299.086 320.039 286.981 316.276 276.438 319.852C275.514 312.58 276.247 306.878 272.256 300.2C268.84 294.482 263.72 289.769 257.727 286.859C247.906 282.09 236.056 282.078 225.924 286.145C215.052 290.508 208.785 298.498 202.064 307.499C196.988 301.657 182.247 304.051 175.852 305.918C166.569 308.629 158.087 314.258 152.005 321.779C140.837 335.588 137.547 353.832 138.871 371.16C139.568 380.287 135.623 379.79 129.09 384.462C122.31 389.312 117.185 396.959 114.732 404.866C110.35 418.988 113.64 434.916 121.994 447.116C125.122 451.684 129.054 455.89 134.08 458.212C129.736 458.607 126.245 464.63 123.9 467.898C120.882 472.102 118.662 476.868 117.29 481.854C114.607 491.603 115.164 502.33 119.504 511.524C127.407 528.263 147.132 538.522 165.375 535.38C166.253 547.494 173.467 558.632 183.241 565.843C193.014 573.054 205.116 576.622 217.214 577.7C230.897 578.919 245.089 577.002 257.223 570.562C262.667 567.673 267.625 563.841 271.753 559.262C275.856 554.711 277.507 549.878 280.682 544.915C289.046 548.846 298.94 547.865 307.768 545.129C311.799 543.88 315.743 542.276 319.323 540.04C330.151 533.275 336.892 520.85 337.881 508.121C338.869 495.392 334.44 482.545 326.806 472.311C333.762 465.29 337.75 459.309 341.353 450.261C341.548 449.772 341.734 449.28 341.911 448.784Z" fill="#84FF20"/>
<path d="M810.76 700.743C797.878 700.743 784.309 697.027 771.327 696.228C758.445 695.435 746.325 696.027 733.361 697.035C731.915 697.147 730.451 697.264 729.081 697.738C727.125 698.416 725.492 699.775 723.923 701.125C692.913 727.788 665.656 758.727 637.687 788.616C630.524 796.27 623.342 803.948 617.148 812.407C612.947 818.143 609.176 824.308 607.117 831.113C606.389 833.52 605.906 836.228 607.051 838.468C609.326 842.921 615.859 842.364 620.532 840.586C627.962 837.757 634.778 833.548 641.473 829.261C671.641 809.942 700.44 788.488 727.586 765.113C735.767 758.067 744.098 750.671 754.333 747.234C755.317 746.904 756.417 746.617 757.365 747.038C758.812 747.679 759.134 749.534 759.872 750.933C761.323 753.681 764.801 754.863 767.884 754.48C770.968 754.097 773.739 752.458 776.333 750.748C791.156 740.974 803.446 727.709 813.637 713.17C815.953 709.866 818.007 704.895 814.946 702.266C813.805 701.286 812.244 700.992 810.76 700.743Z" fill="#FF008C"/>
<path d="M810.757 699.19C801.12 699.158 791.65 697.207 782.145 695.855C772.505 694.484 762.813 694.14 753.085 694.384C748.213 694.506 743.347 694.769 738.486 695.104C734.002 695.413 729.211 695.235 725.401 697.958C721.623 700.657 718.214 704.013 714.769 707.116C711.186 710.343 707.651 713.622 704.156 716.945C690.319 730.1 677.129 743.916 664.11 757.875C657.569 764.888 651.069 771.94 644.546 778.97C638.067 785.953 631.443 792.816 625.179 799.994C619.073 806.99 613.033 814.398 608.843 822.734C606.927 826.546 604.757 831.12 604.814 835.48C604.861 839.143 607.132 842.115 610.668 843.062C613.91 843.93 617.545 843.319 620.647 842.193C624.957 840.628 629.083 838.52 633.057 836.246C641.327 831.515 649.26 826.132 657.157 820.809C673.029 810.113 688.491 798.812 703.516 786.957C711.069 780.998 718.509 774.895 725.83 768.654C732.567 762.91 739.123 756.773 746.845 752.345C748.744 751.256 750.709 750.264 752.747 749.46C753.642 749.107 754.56 748.728 755.498 748.502C756.482 748.266 756.997 748.456 757.468 749.342C758.307 750.921 758.735 752.517 760.139 753.742C761.518 754.946 763.227 755.688 765.033 755.96C769.237 756.592 773.144 754.658 776.581 752.437C780.204 750.094 783.676 747.51 787.013 744.777C793.772 739.242 799.926 732.99 805.531 726.296C808.356 722.923 811.048 719.436 813.618 715.865C815.728 712.932 818.049 709.622 818.04 705.841C818.035 704.198 817.469 702.56 816.285 701.392C814.901 700.028 813.024 699.562 811.17 699.245C809.215 698.912 808.374 701.905 810.344 702.241C811.918 702.509 813.969 702.784 814.686 704.448C815.284 705.836 814.777 707.555 814.25 708.88C812.836 712.43 810.058 715.576 807.759 718.581C802.616 725.301 796.95 731.647 790.745 737.406C787.673 740.257 784.469 742.972 781.115 745.486C777.851 747.932 774.353 750.717 770.518 752.197C767.444 753.384 763.012 753.488 761.21 750.149C760.425 748.694 760.105 747.023 758.668 746.013C757.018 744.853 755.072 745.323 753.313 745.944C745.313 748.772 738.459 753.882 732.016 759.281C725.12 765.061 718.353 770.986 711.383 776.68C697.008 788.423 682.199 799.632 666.998 810.285C659.44 815.582 651.785 820.741 644.039 825.759C636.466 830.665 628.799 835.761 620.33 839.005C617.518 840.082 614.176 840.893 611.208 839.984C607.157 838.743 607.724 834.347 608.743 831.101C611.402 822.622 616.735 815.153 622.246 808.297C628.03 801.102 634.4 794.411 640.695 787.666C646.97 780.944 653.204 774.184 659.456 767.441C672.016 753.893 684.65 740.404 697.802 727.427C704.336 720.98 710.998 714.66 717.833 708.533C719.57 706.976 721.318 705.431 723.077 703.901C724.653 702.53 726.2 701.03 728.004 699.958C729.959 698.796 732.126 698.681 734.34 698.512C736.768 698.327 739.196 698.155 741.626 698.004C751.025 697.423 760.451 697.191 769.859 697.696C779.119 698.194 788.207 700.041 797.382 701.262C801.819 701.852 806.278 702.281 810.757 702.296C812.756 702.303 812.759 699.197 810.757 699.19Z" fill="#FF008C"/>
<path d="M504.589 729.548C497.895 721.011 499.44 706.67 506.957 699.016C514.473 691.362 526.441 690.389 535.604 695.386C535.496 687.274 536.609 678.816 540.755 672.124C544.901 665.432 552.665 661.02 559.722 663.228C569.737 666.361 573.399 680.194 572.694 691.681C575.862 686.663 582.788 685.168 587.429 688.501C592.07 691.833 593.655 699.44 590.802 704.684C596.627 701.111 604.517 702.286 609.279 707.437C614.042 712.588 615.283 721.287 612.186 727.81L504.589 729.548Z" fill="white"/>
<path d="M505.929 728.764C501.198 722.611 500.886 714.078 503.648 707.017C506.569 699.552 513.581 694.539 521.549 693.927C526.152 693.573 530.751 694.548 534.819 696.728C535.837 697.273 537.169 696.6 537.156 695.386C537.043 684.772 539.016 671.644 549.288 666.015C553.369 663.779 558.185 663.536 562.182 666.079C565.724 668.333 567.928 672.258 569.244 676.143C570.931 681.126 571.441 686.446 571.139 691.681C571.045 693.308 573.243 693.672 574.034 692.465C576.739 688.332 582.807 686.787 586.832 689.987C590.797 693.138 591.755 699.52 589.46 703.9C588.759 705.237 590.2 706.85 591.585 706.025C597.131 702.722 604.343 704.07 608.53 708.929C612.663 713.726 613.467 721.338 610.844 727.026L612.185 726.256C608.624 726.314 605.063 726.372 601.502 726.429C592.948 726.567 584.394 726.705 575.839 726.844C565.486 727.011 555.132 727.178 544.778 727.345C535.79 727.491 526.802 727.636 517.814 727.781C513.478 727.851 509.102 727.757 504.771 727.992C504.71 727.995 504.649 727.994 504.588 727.995C502.591 728.027 502.585 731.134 504.588 731.101C508.149 731.044 511.71 730.986 515.271 730.929C523.825 730.791 532.38 730.652 540.934 730.514C551.288 730.347 561.641 730.18 571.995 730.012L598.96 729.577C603.296 729.507 607.671 729.601 612.002 729.366C612.063 729.363 612.124 729.364 612.185 729.363C612.693 729.355 613.301 729.082 613.526 728.594C616.773 721.555 615.842 712.67 610.727 706.732C605.651 700.841 596.687 699.371 590.017 703.343L592.142 705.468C595.212 699.612 593.889 691.405 588.466 687.349C582.932 683.209 574.994 685.332 571.351 690.897L574.246 691.681C574.797 682.114 572.828 670.07 564.601 663.984C560.389 660.868 554.878 660.343 550.043 662.253C544.602 664.403 540.413 668.838 537.93 674.069C534.787 680.69 533.972 688.134 534.049 695.386L536.387 694.045C528.291 689.707 518.057 689.519 510.165 694.465C502.638 699.182 498.639 707.947 498.793 716.7C498.879 721.552 500.265 726.454 503.247 730.332C503.762 731.002 504.577 731.341 505.372 730.889C506.031 730.514 506.44 729.428 505.929 728.764Z" fill="#FF008C"/>
<path d="M816.388 703.891C818.128 701.089 816.225 697.153 813.282 695.663C810.339 694.173 806.826 694.498 803.584 695.104C804.732 690.667 804.921 685.682 802.544 681.763C800.167 677.844 794.583 675.695 790.755 678.215C794.642 674.751 795.91 668.38 792.956 664.092C790.002 659.803 782.823 659.011 779.509 663.027C780.282 659.394 780.026 655.549 778.78 652.05C778.175 650.353 777.268 648.655 775.733 647.712C774.029 646.665 771.867 646.736 769.902 647.111C766.334 647.792 762.96 649.401 760.141 651.686C757.703 653.663 754.523 656.615 752.941 659.303C748.995 666.006 747.125 673.767 746.462 681.517C745.798 689.267 746.292 697.064 746.785 704.827L816.388 703.891Z" fill="white"/>
<path d="M817.728 704.675C819.556 701.474 818.223 697.519 815.495 695.283C812.049 692.458 807.268 692.86 803.17 693.607L805.081 695.518C806.412 690.226 806.557 683.99 802.859 679.571C799.812 675.929 794.173 674.262 789.97 676.875L791.853 679.314C796.458 675.071 797.841 667.199 793.491 662.274C789.757 658.046 782.205 657.537 778.41 661.929L781.006 663.44C781.65 660.237 781.658 656.962 780.906 653.774C780.275 651.101 779.167 648.222 776.836 646.585C774.404 644.877 771.199 645.173 768.466 645.837C765.567 646.541 762.771 647.835 760.354 649.582C758.107 651.206 755.993 653.113 754.139 655.173C752.099 657.44 750.626 660.037 749.403 662.82C746.889 668.542 745.554 674.653 744.968 680.86C744.214 688.834 744.725 696.855 745.232 704.827C745.284 705.657 745.9 706.392 746.785 706.381C754.617 706.275 762.45 706.17 770.282 706.065C782.773 705.897 795.265 705.729 807.756 705.561C810.633 705.522 813.51 705.483 816.387 705.445C818.384 705.418 818.39 702.311 816.387 702.338C808.555 702.443 800.722 702.549 792.89 702.654C780.398 702.822 767.907 702.99 755.416 703.158C752.539 703.197 749.662 703.235 746.785 703.274L748.338 704.827C747.578 692.869 746.792 680.561 750.403 668.953C751.212 666.352 752.237 663.829 753.528 661.429C754.755 659.145 756.327 657.252 758.196 655.461C761.847 651.964 766.3 648.856 771.503 648.445C772.95 648.33 774.431 648.492 775.538 649.514C776.489 650.391 777.027 651.682 777.426 652.885C778.468 656.025 778.662 659.373 778.011 662.614C777.731 664.008 779.512 665.393 780.607 664.126C783.325 660.979 788.65 661.405 791.294 664.47C794.498 668.184 792.974 674.06 789.656 677.118C788.362 678.31 790.039 680.489 791.538 679.557C794.642 677.627 798.783 679.204 800.832 681.987C803.492 685.597 803.118 690.586 802.085 694.692C801.779 695.911 802.842 696.813 803.996 696.603C806.9 696.073 810.456 695.61 813.071 697.334C814.875 698.522 816.212 701.064 815.046 703.107C814.053 704.846 816.736 706.413 817.728 704.675Z" fill="#FF008C"/>
<path d="M472.969 528.01C474.297 561.599 475.188 595.205 475.641 628.817C476.07 660.666 474.69 692.23 475.033 724.213C491.953 729.793 510.242 731.17 527.807 728.187C527.217 689.092 518.687 544.461 518.098 505.366" fill="white"/>
<path d="M471.416 528.01C472.427 553.617 473.187 579.235 473.69 604.857C473.941 617.622 474.184 630.389 474.17 643.157C474.156 655.823 473.939 668.488 473.743 681.152C473.52 695.504 473.33 709.859 473.48 724.213C473.487 724.924 473.962 725.495 474.62 725.71C491.866 731.357 510.332 732.683 528.22 729.685C528.874 729.575 529.37 728.816 529.36 728.187C529.19 717.039 528.699 705.894 528.224 694.755C527.538 678.699 526.764 662.647 525.979 646.595C525.107 628.781 524.213 610.968 523.337 593.154C522.533 576.818 521.738 560.481 521.02 544.141C520.495 532.225 519.968 520.304 519.708 508.378C519.686 507.374 519.667 506.37 519.651 505.366C519.621 503.369 516.514 503.363 516.545 505.366C516.715 516.514 517.206 527.659 517.681 538.797C518.367 554.854 519.141 570.906 519.926 586.958C520.798 604.772 521.692 622.585 522.568 640.399C523.372 656.735 524.167 673.072 524.885 689.412C525.41 701.328 525.937 713.249 526.197 725.175C526.219 726.179 526.238 727.183 526.254 728.187L527.394 726.689C510.06 729.595 492.141 728.181 475.446 722.715L476.586 724.213C476.321 698.837 477.136 673.469 477.262 648.095C477.388 622.537 476.718 596.964 475.995 571.418C475.585 556.946 475.093 542.476 474.522 528.01C474.443 526.017 471.337 526.007 471.416 528.01Z" fill="#FF008C"/>
<path d="M474.062 560.147C477.816 554.658 483.84 551.044 490.163 548.985C496.486 546.926 503.168 546.276 509.787 545.638C512.871 545.341 515.955 545.044 519.038 544.747C519.453 539.717 519.44 534.652 519 529.625C502.852 531.654 489.093 532.626 473.055 535.395C474.822 541.309 476.215 553.135 475.126 559.211" fill="#FF008C"/>
<path d="M475.407 560.931C479.58 554.939 486.404 551.497 493.31 549.682C501.664 547.487 510.476 547.125 519.042 546.3C519.931 546.214 520.522 545.654 520.595 544.747C520.996 539.709 520.983 534.66 520.557 529.625C520.493 528.87 519.893 527.961 519.004 528.072C503.547 530.006 488.008 531.258 472.645 533.897C471.826 534.038 471.342 535.065 471.56 535.808C472.651 539.52 473.238 543.398 473.611 547.242C473.979 551.027 474.278 555.027 473.631 558.798C473.296 560.753 476.289 561.593 476.627 559.624C477.325 555.549 477.116 551.338 476.718 547.242C476.318 543.126 475.724 538.958 474.556 534.982L473.471 536.893C488.56 534.301 503.823 533.078 519.004 531.178L517.45 529.625C517.877 534.661 517.89 539.709 517.488 544.747L519.042 543.194C503.084 544.731 482.93 544.71 472.724 559.363C471.579 561.008 474.271 562.562 475.407 560.931Z" fill="#FF008C"/>
<path d="M422.228 442.992C411.999 443.194 391.316 443.44 391.541 443.597C391.765 443.754 407.573 392.291 409.228 386.995C415.068 368.305 418.925 349.264 424.627 330.505C415.492 329.862 406.357 329.219 397.222 328.576C391.765 322.603 460.107 186.436 478.746 158.996C478.746 158.996 568.833 311.73 570.387 318.461C571.94 325.191 541.393 329.333 541.393 329.333C541.393 329.333 587.472 424.598 586.437 430.293C585.401 435.988 556.925 434.953 556.925 434.953L597.309 538.501L394.354 542.643L422.228 442.992Z" fill="#84FF20"/>
<path d="M749.29 579.853C748.939 577.265 748.591 574.596 749.255 572.07C749.819 569.926 751.074 568.039 752.308 566.198C759.609 555.301 764.662 545.82 768.405 533.235C772.247 520.319 773.636 506.799 774.607 493.408C769.869 493.066 765.18 492.051 760.725 490.403C761.499 499.927 761.79 509.681 759.156 518.866C756.522 528.052 750.54 536.698 741.756 540.459C741.407 525 741.059 509.541 740.71 494.082C740.67 492.296 740.514 490.264 739.11 489.159C738.09 488.355 736.691 488.286 735.392 488.252C728.244 488.063 721.096 487.874 713.948 487.686C713.499 493.058 713.635 498.46 713.771 503.85C714.134 518.221 714.497 532.593 714.86 546.964C706.839 540.313 701.567 530.703 699.135 520.571C697.297 512.915 697.062 505.032 697.731 497.214C698.005 494.006 699.035 492.189 696.639 490.11C694.267 488.053 687.844 488.357 684.957 488.614C683.854 516.657 682.179 552.426 708.802 570.073C710.062 570.908 711.423 571.73 712.161 573.049C712.785 574.167 712.876 575.495 712.951 576.773C715.517 620.079 717.286 663.432 718.257 706.804C725.386 706.2 732.516 705.596 739.646 704.992C741.869 704.804 765.589 704.916 765.501 704.153C760.664 662.5 754.914 621.356 749.29 579.853Z" fill="white"/>
<path d="M750.789 579.441C750.371 576.342 750.112 573.272 751.56 570.391C752.874 567.78 754.718 565.416 756.285 562.953C759.228 558.327 761.949 553.557 764.262 548.583C769.266 537.822 772.264 526.336 773.979 514.618C775.009 507.582 775.644 500.498 776.161 493.408C776.226 492.525 775.395 491.915 774.608 491.855C769.995 491.501 765.484 490.491 761.139 488.905C760.235 488.575 759.096 489.444 759.173 490.403C760.342 504.946 760.348 521.488 749.744 532.862C747.255 535.531 744.319 537.655 740.973 539.118L743.31 540.459C743.066 529.654 742.823 518.85 742.579 508.045C742.518 505.302 742.456 502.559 742.394 499.817C742.339 497.372 742.436 494.872 742.165 492.44C741.937 490.391 741.184 488.402 739.241 487.418C737.223 486.395 734.588 486.677 732.401 486.62C726.25 486.457 720.099 486.295 713.949 486.132C713.061 486.109 712.461 486.866 712.396 487.686C711.61 497.483 712.309 507.419 712.557 517.23C712.807 527.141 713.057 537.053 713.308 546.964L715.959 545.866C708.044 539.236 702.93 529.904 700.578 519.923C699.159 513.903 698.766 507.696 699.012 501.526C699.115 498.967 699.497 496.469 699.709 493.926C699.876 491.922 699.125 490.137 697.557 488.866C695.877 487.503 693.578 487.16 691.487 486.979C689.317 486.791 687.125 486.873 684.958 487.061C684.095 487.136 683.44 487.713 683.405 488.614C682.935 500.539 682.445 512.523 683.665 524.421C684.861 536.089 687.689 547.934 694.306 557.792C697.705 562.854 701.996 567.218 706.991 570.714C708.278 571.614 710.04 572.402 710.821 573.833C711.729 575.498 711.468 577.925 711.575 579.759C711.836 584.239 712.089 588.72 712.334 593.201C713.308 611.043 714.146 628.892 714.85 646.746C715.55 664.517 716.116 682.294 716.548 700.074C716.602 702.317 716.654 704.56 716.705 706.804C716.722 707.59 717.404 708.429 718.258 708.357C727.665 707.56 737.042 706.52 746.485 706.423C750.195 706.384 753.906 706.35 757.616 706.265C760.146 706.207 762.887 706.352 765.383 705.838C765.696 705.773 765.977 705.718 766.26 705.541C767.444 704.802 766.957 703.309 766.825 702.178C766.402 698.56 765.972 694.943 765.536 691.327C764.685 684.271 763.81 677.219 762.915 670.169C761.112 655.957 759.232 641.756 757.321 627.558C755.162 611.516 752.963 595.48 750.789 579.441C750.676 578.603 749.611 578.163 748.878 578.356C747.979 578.593 747.681 579.439 747.794 580.267C751.544 607.937 755.37 635.597 758.93 663.292C759.815 670.172 760.683 677.054 761.53 683.939C761.964 687.469 762.392 690.999 762.814 694.531C763.021 696.257 763.226 697.983 763.429 699.71C763.526 700.532 763.622 701.355 763.718 702.178C763.757 702.507 763.795 702.836 763.834 703.165C763.872 703.495 763.91 703.824 763.949 704.153C764.005 703.439 764.296 702.992 764.824 702.81C765.204 703.092 764.907 702.582 764.888 702.775C764.887 702.783 764.716 702.819 764.707 702.816C764.684 702.809 764.569 702.841 764.557 702.843C764.235 702.883 764.96 702.797 764.6 702.837C764.12 702.89 763.638 702.926 763.156 702.956C761.782 703.042 760.405 703.085 759.029 703.123C755.494 703.221 751.958 703.259 748.421 703.296C745.604 703.326 742.771 703.275 739.957 703.42C732.721 703.795 725.478 704.639 718.258 705.251L719.811 706.804C719.41 688.94 718.876 671.079 718.205 653.224C717.538 635.451 716.736 617.684 715.801 599.923C715.565 595.442 715.32 590.961 715.067 586.48C714.941 584.24 714.812 581.999 714.681 579.759C714.564 577.755 714.66 575.55 714.064 573.612C713.044 570.298 709.56 568.852 707 566.894C704.605 565.062 702.4 562.967 700.417 560.698C692.641 551.799 688.963 540.21 687.293 528.697C685.577 516.866 685.894 504.817 686.344 492.908C686.398 491.476 686.455 490.045 686.511 488.614L684.958 490.167C686.797 490.008 688.649 489.93 690.495 490.02C692.077 490.096 694.149 490.187 695.481 491.167C697.065 492.335 696.593 494.015 696.358 495.703C695.981 498.417 695.876 501.187 695.843 503.924C695.712 514.755 697.822 525.655 703.163 535.161C705.904 540.039 709.469 544.466 713.763 548.062C714.736 548.878 716.45 548.406 716.414 546.964C716.164 537.053 715.913 527.142 715.663 517.23C715.415 507.419 714.716 497.483 715.502 487.686L713.949 489.239C718.936 489.371 723.923 489.502 728.91 489.634C731.389 489.7 733.908 489.639 736.378 489.85C738.601 490.04 739.055 491.541 739.141 493.54C739.57 503.514 739.596 513.523 739.821 523.504C739.949 529.156 740.076 534.807 740.204 540.459C740.232 541.734 741.479 542.265 742.541 541.8C748.888 539.026 753.871 533.806 757.166 527.786C760.948 520.878 762.447 513.039 762.755 505.232C762.95 500.284 762.676 495.334 762.279 490.403L760.313 491.901C764.923 493.582 769.718 494.586 774.608 494.961L773.055 493.408C772.128 506.131 770.833 518.904 767.371 531.224C764.307 542.126 759.463 552.224 753.372 561.747C751.649 564.44 749.585 567.031 748.344 569.993C746.95 573.321 747.325 576.787 747.794 580.267C747.907 581.104 748.972 581.544 749.704 581.351C750.605 581.114 750.901 580.268 750.789 579.441Z" fill="#FF008C"/>
<path d="M740.781 497.283C731.68 496.036 722.637 494.368 713.695 492.263C713.578 496.122 713.672 499.989 713.769 503.85C713.957 511.28 714.144 518.71 714.332 526.14C718.926 526.578 723.541 526.835 728.141 527.037C732.577 527.231 737.023 527.373 741.453 527.104C741.229 517.164 741.005 507.223 740.781 497.283Z" fill="#FF008C"/>
<path d="M741.192 495.785C732.09 494.531 723.052 492.863 714.106 490.765C713.107 490.531 712.17 491.228 712.14 492.263C711.983 497.858 712.204 503.458 712.345 509.051C712.489 514.747 712.633 520.443 712.777 526.14C712.8 527.038 713.474 527.613 714.33 527.693C723.285 528.533 732.461 529.172 741.451 528.657C742.275 528.61 743.024 527.984 743.004 527.104C742.78 517.164 742.556 507.223 742.332 497.282C742.287 495.286 739.18 495.279 739.225 497.282C739.449 507.223 739.674 517.164 739.898 527.104L741.451 525.551C732.46 526.065 723.284 525.427 714.33 524.587L715.883 526.14C715.739 520.443 715.596 514.747 715.452 509.051C715.31 503.458 715.089 497.858 715.247 492.263L713.281 493.761C722.226 495.858 731.264 497.526 740.366 498.78C741.203 498.895 742.023 498.577 742.276 497.695C742.484 496.971 742.022 495.899 741.192 495.785Z" fill="#FF008C"/>
<path d="M699.134 520.571C697.296 512.915 697.062 505.032 697.73 497.214C698.004 494.006 699.034 492.189 696.638 490.11C694.267 488.054 687.843 488.357 684.956 488.614C684.573 498.348 684.123 509.014 684.81 519.529C689.203 520.757 693.452 522.503 697.927 523.557C698.646 523.726 699.367 523.885 700.089 524.037C699.735 522.891 699.413 521.735 699.134 520.571Z" fill="#FF008C"/>
<path d="M700.63 520.158C699.523 515.457 699.001 510.668 698.946 505.841C698.918 503.443 699 501.043 699.17 498.65C699.294 496.9 699.719 495.124 699.737 493.373C699.81 486.181 689.808 486.64 684.955 487.061C684.092 487.136 683.437 487.713 683.402 488.614C682.996 498.914 682.599 509.23 683.255 519.528C683.299 520.221 683.708 520.831 684.395 521.026C689.517 522.48 694.455 524.422 699.675 525.535C700.787 525.772 701.949 524.817 701.586 523.624C701.236 522.477 700.915 521.323 700.63 520.158C700.155 518.217 697.159 519.039 697.635 520.984C697.92 522.149 698.24 523.303 698.59 524.45L700.501 522.539C695.281 521.426 690.343 519.484 685.221 518.031L686.362 519.528C685.706 509.23 686.103 498.914 686.508 488.614L684.955 490.167C687.689 489.93 690.591 489.762 693.291 490.348C694.393 490.587 695.497 490.93 696.2 491.878C696.942 492.881 696.566 494.23 696.404 495.361C695.192 503.774 695.688 512.723 697.635 520.984C698.093 522.929 701.089 522.105 700.63 520.158Z" fill="#FF008C"/>
<path d="M759.157 518.866C758.635 520.687 757.976 522.484 757.195 524.228C762.356 522.626 767.32 520.397 771.946 517.606C773.056 510.951 773.755 504.218 774.295 497.498C770.066 498.628 765.666 499.046 761.225 499.055C761.408 505.754 760.997 512.449 759.157 518.866Z" fill="#FF008C"/>
<path d="M757.655 518.454C757.156 520.155 756.565 521.821 755.85 523.444C755.346 524.588 756.189 526.17 757.604 525.726C760.526 524.808 763.385 523.706 766.166 522.424C767.529 521.796 768.87 521.122 770.188 520.403C771.511 519.682 773.195 519.125 773.52 517.532C774.856 510.985 775.306 504.147 775.845 497.498C775.928 496.466 774.787 495.763 773.878 496C769.732 497.082 765.499 497.479 761.222 497.501C760.398 497.506 759.647 498.21 759.668 499.055C759.832 505.596 759.434 512.129 757.655 518.454C757.113 520.381 760.11 521.204 760.651 519.279C762.5 512.702 762.945 505.858 762.775 499.055L761.222 500.608C765.764 500.584 770.301 500.144 774.704 498.995L772.738 497.498C772.205 504.088 771.523 510.667 770.445 517.193L771.158 516.265C766.624 518.98 761.821 521.146 756.779 522.73L758.533 525.012C759.357 523.142 760.076 521.241 760.651 519.279C761.215 517.357 758.218 516.536 757.655 518.454Z" fill="#FF008C"/>
<path d="M789.734 395.117C787.086 391.327 783.163 388.454 780.059 384.961C781.358 386.423 794.57 362.618 795.388 360.392C798.852 350.962 800.425 340.85 800.142 330.815C799.87 321.161 799.988 312.634 796.577 303.461C792.974 293.769 787.813 284.589 780.81 276.937C766.521 261.323 747.042 255.754 726.399 257.947C719.388 258.692 712.371 259.746 705.665 261.922C689.972 267.014 676.429 278.419 668.741 293.016C662.84 304.219 660.44 317.201 661.759 329.783C663.029 341.897 664.944 354.72 670.306 365.818C673.776 373 678.964 379.536 685.879 383.51C674.607 389.158 666.636 403.181 662.245 414.471C656.664 428.822 655.277 444.623 657.097 459.912C657.95 467.075 659.506 474.198 662.338 480.832C669.873 498.481 686.284 511.518 704.587 517.282C722.891 523.045 742.865 522.035 761.365 516.937C765.791 515.717 770.186 514.255 774.18 511.991C779.049 509.231 783.198 505.343 786.848 501.1C800.506 484.028 806.45 463.493 804.771 441.689C803.938 430.879 801.353 420.206 797.287 410.161C795.287 405.222 793.017 400.154 790.108 395.673C789.987 395.486 789.862 395.3 789.734 395.117Z" fill="#84FF20"/>
<path d="M267.427 720.192C267.441 720.099 267.554 719.704 267.522 719.772C267.491 719.866 267.513 719.84 267.589 719.693C267.502 719.812 267.52 719.804 267.643 719.669C267.444 719.826 267.811 719.574 267.833 719.565C267.603 719.666 268.008 719.507 268.06 719.493C268.515 719.372 269.111 719.398 269.55 719.705C270.007 720.024 270.457 720.838 270.659 721.559C270.927 722.518 270.989 723.5 271.037 724.489C271.108 725.925 272.645 726.419 273.689 725.588C275.036 724.515 277.185 724.512 278.557 725.523C279.921 726.528 280.469 728.378 280.025 729.98C279.49 731.909 282.487 732.732 283.021 730.806C283.846 727.83 282.659 724.594 280.125 722.84C277.486 721.015 273.913 721.463 271.492 723.391L274.144 724.489C274.005 721.656 273.531 718.023 270.56 716.749C268.319 715.788 264.843 716.578 264.431 719.366C264.308 720.195 264.638 721.036 265.516 721.277C266.248 721.478 267.303 721.027 267.427 720.192Z" fill="#FF008C"/>
<path d="M549.678 707.567C549.769 704.712 552.755 702.172 555.613 702.91C558.291 703.601 559.783 706.73 558.967 709.276C558.579 710.483 560.147 711.854 561.248 711.03C563.523 709.329 566.527 709.45 568.904 710.911C571.378 712.433 572.885 715.138 573.775 717.823C574.401 719.712 577.402 718.903 576.771 716.998C575.588 713.431 573.522 709.939 570.158 708.043C566.959 706.241 562.698 706.092 559.681 708.348L561.962 710.102C563.316 705.881 560.554 700.749 556.125 699.841C551.357 698.864 546.724 702.788 546.571 707.567C546.507 709.567 549.614 709.565 549.678 707.567Z" fill="#FF008C"/>
<path d="M771.045 685.435C771.399 685.375 770.939 685.427 771.266 685.405C771.425 685.394 771.584 685.382 771.744 685.378C772.063 685.371 772.381 685.386 772.699 685.416C773.022 685.447 772.574 685.373 772.918 685.452C773.074 685.488 773.231 685.516 773.386 685.554C773.671 685.626 773.951 685.713 774.226 685.814C774.301 685.842 774.375 685.87 774.449 685.901C774.348 685.859 774.347 685.86 774.445 685.904C774.589 685.971 774.732 686.042 774.873 686.118C775.131 686.257 775.381 686.41 775.622 686.577C775.891 686.763 775.886 686.763 776.176 687.035C776.408 687.253 776.629 687.486 776.83 687.733C776.68 687.549 776.97 687.933 776.974 687.939C777.065 688.074 777.152 688.212 777.234 688.352C777.351 688.553 777.548 688.943 777.589 689.04C777.757 689.442 777.961 690.175 778.038 690.731C778.001 690.466 778.051 690.915 778.054 690.966C778.065 691.129 778.072 691.292 778.073 691.455C778.076 691.78 778.062 692.107 778.021 692.43C778.054 692.17 777.98 692.631 777.974 692.659C777.942 692.819 777.904 692.977 777.862 693.134C777.826 693.265 777.787 693.394 777.744 693.523C777.726 693.576 777.55 694.03 777.635 693.835C777.3 694.603 777.409 695.502 778.192 695.96C778.85 696.345 779.98 696.176 780.317 695.403C781.728 692.169 781.347 688.444 779.126 685.662C777.014 683.014 773.503 681.885 770.22 682.439C769.392 682.579 768.929 683.6 769.135 684.35C769.376 685.227 770.215 685.575 771.045 685.435Z" fill="#FF008C"/>
<path d="M228.102 584.16C227.966 590.159 227.831 596.158 227.696 602.158C227.651 604.157 230.757 604.157 230.802 602.158C230.938 596.158 231.073 590.159 231.208 584.16C231.254 582.16 228.147 582.161 228.102 584.16Z" fill="#FF008C"/>
<path d="M228.403 621.776C226.75 644.853 225.83 667.981 225.661 691.117C225.613 697.727 225.627 704.337 225.699 710.947C225.72 712.945 228.827 712.95 228.805 710.947C228.554 687.812 229.037 664.671 230.27 641.567C230.623 634.966 231.037 628.369 231.509 621.775C231.652 619.781 228.545 619.79 228.403 621.776Z" fill="#FF008C"/>
<path d="M244.883 653.752C244.469 669.213 244.365 684.682 244.572 700.147C244.599 702.145 247.706 702.15 247.679 700.147C247.472 684.682 247.575 669.213 247.989 653.752C248.043 651.752 244.936 651.753 244.883 653.752Z" fill="#FF008C"/>
<path d="M244.539 614.557V617.357C244.539 617.755 244.712 618.174 244.994 618.455C245.263 618.725 245.705 618.927 246.092 618.91C246.494 618.892 246.911 618.76 247.191 618.455C247.47 618.151 247.645 617.778 247.645 617.357V614.557C247.645 614.159 247.472 613.741 247.191 613.459C246.921 613.189 246.479 612.987 246.092 613.004C245.691 613.022 245.274 613.154 244.994 613.459C244.715 613.763 244.539 614.136 244.539 614.557Z" fill="#FF008C"/>
<path d="M246.044 727.345V722.945C246.044 722.133 245.329 721.354 244.491 721.392C243.649 721.43 242.938 722.074 242.938 722.945V727.345C242.938 728.157 243.652 728.935 244.491 728.898C245.332 728.86 246.044 728.215 246.044 727.345Z" fill="#FF008C"/>
<path d="M215.804 593.769C215.984 594.36 216.14 594.957 216.265 595.562C216.332 595.887 216.392 596.214 216.442 596.543C216.447 596.575 216.505 597.04 216.466 596.694C216.484 596.859 216.505 597.024 216.521 597.189C216.646 598.443 216.646 599.704 216.532 600.958C216.459 601.77 217.299 602.547 218.085 602.511C218.99 602.471 219.56 601.828 219.639 600.958C219.882 598.271 219.585 595.523 218.8 592.943C218.563 592.167 217.702 591.595 216.889 591.858C216.106 592.112 215.551 592.936 215.804 593.769Z" fill="#FF008C"/>
<path d="M254.747 596.697C254.708 596.656 254.672 596.613 254.637 596.568L254.88 596.883C254.802 596.779 254.739 596.667 254.688 596.548L254.845 596.919C254.793 596.791 254.757 596.659 254.737 596.523L254.793 596.936C254.775 596.799 254.774 596.663 254.791 596.526L254.735 596.939C254.751 596.818 254.781 596.702 254.825 596.588C254.89 596.382 254.899 596.175 254.853 595.969C254.843 595.762 254.782 595.57 254.668 595.391C254.571 595.21 254.437 595.065 254.268 594.956C254.118 594.818 253.942 594.726 253.74 594.678L253.327 594.622C253.047 594.623 252.785 594.694 252.543 594.834L252.229 595.077C252.036 595.271 251.903 595.499 251.829 595.762C251.802 595.834 251.779 595.907 251.762 595.982C251.718 596.184 251.693 596.393 251.677 596.598C251.671 596.674 251.67 596.751 251.675 596.827C251.689 597.034 251.718 597.242 251.758 597.444C251.772 597.515 251.791 597.586 251.815 597.654C251.881 597.845 251.961 598.034 252.051 598.215C252.085 598.283 252.125 598.349 252.169 598.412C252.286 598.577 252.41 598.746 252.551 598.893C252.692 599.045 252.858 599.152 253.051 599.214C253.236 599.312 253.435 599.356 253.649 599.348C253.863 599.356 254.063 599.312 254.248 599.214C254.44 599.152 254.607 599.045 254.748 598.893C255.019 598.597 255.221 598.209 255.202 597.795L255.147 597.382C255.073 597.119 254.94 596.89 254.747 596.697Z" fill="#FF008C"/>
<path d="M251.832 596.554C251.73 597.114 251.673 597.673 251.74 598.24C251.826 598.956 251.992 599.565 252.281 600.224C252.735 601.258 253.538 602.13 254.488 602.73C255.176 603.164 256.23 602.897 256.613 602.173C257.018 601.407 256.79 600.511 256.056 600.047C255.947 599.979 255.842 599.906 255.74 599.829L256.054 600.072C255.767 599.849 255.512 599.592 255.287 599.306L255.53 599.621C255.297 599.313 255.104 598.982 254.951 598.627L255.108 598.998C254.96 598.641 254.857 598.272 254.8 597.89L254.855 598.303C254.804 597.921 254.801 597.539 254.852 597.156L254.796 597.569C254.805 597.506 254.816 597.443 254.827 597.38C254.903 596.961 254.892 596.562 254.671 596.183C254.482 595.861 254.113 595.553 253.742 595.469C253.345 595.378 252.899 595.398 252.546 595.625C252.223 595.834 251.903 596.161 251.832 596.554Z" fill="#FF008C"/>
<path d="M487.463 550.58C487.058 558.037 487.302 565.508 488.191 572.923C488.292 573.762 488.833 574.467 489.744 574.476C490.507 574.484 491.397 573.755 491.297 572.923C490.408 565.508 490.165 558.037 490.569 550.58C490.678 548.583 487.571 548.589 487.463 550.58Z" fill="#FF008C"/>
<path d="M503.146 572.087C504.31 588.052 504.877 604.056 504.845 620.064C504.84 622.063 507.947 622.066 507.951 620.064C507.984 604.056 507.417 588.052 506.252 572.087C506.107 570.105 503 570.089 503.146 572.087Z" fill="#FF008C"/>
<path d="M493.57 602.683C494.279 627.129 494.435 651.591 494.027 676.045C493.91 683.032 493.747 690.017 493.54 697.002C493.481 699.002 496.587 699 496.646 697.002C497.371 672.556 497.542 648.094 497.15 623.64C497.038 616.653 496.879 609.667 496.677 602.683C496.619 600.688 493.512 600.68 493.57 602.683Z" fill="#FF008C"/>
<path d="M508.125 683.758V697.821C508.125 699.819 511.232 699.823 511.232 697.821V683.758C511.232 681.759 508.125 681.756 508.125 683.758Z" fill="#FF008C"/>
<path d="M506.924 555.271C506.648 555.547 506.372 555.823 506.097 556.098C505.945 556.239 505.838 556.406 505.775 556.598C505.678 556.783 505.634 556.983 505.642 557.197C505.633 557.411 505.678 557.61 505.775 557.795C505.838 557.988 505.945 558.154 506.097 558.295L506.411 558.538C506.653 558.678 506.915 558.749 507.195 558.75L507.608 558.695C507.871 558.621 508.099 558.488 508.293 558.295C508.569 558.019 508.845 557.744 509.12 557.468C509.272 557.327 509.379 557.161 509.442 556.968C509.539 556.783 509.583 556.583 509.575 556.37C509.583 556.156 509.539 555.956 509.442 555.771C509.379 555.579 509.272 555.412 509.12 555.271L508.806 555.029C508.564 554.888 508.302 554.817 508.022 554.816L507.609 554.872C507.346 554.946 507.118 555.079 506.924 555.271Z" fill="#FF008C"/>
<path d="M720.078 535.583V539.343C720.078 539.741 720.251 540.16 720.533 540.441C720.802 540.711 721.244 540.914 721.631 540.896C722.473 540.858 723.185 540.214 723.185 539.343V535.583C723.185 535.185 723.011 534.766 722.73 534.485C722.46 534.215 722.018 534.012 721.631 534.03C720.79 534.068 720.078 534.712 720.078 535.583Z" fill="#FF008C"/>
<path d="M722.309 580.703C723.461 597.612 724.186 614.548 724.471 631.493C724.553 636.37 724.597 641.247 724.608 646.125C724.612 648.123 727.719 648.127 727.714 646.125C727.677 629.177 727.212 612.232 726.306 595.309C726.045 590.438 725.747 585.57 725.416 580.703C725.28 578.72 722.173 578.705 722.309 580.703Z" fill="#FF008C"/>
<path d="M726.04 677.715C726.54 681.726 727.041 685.737 727.541 689.747C727.645 690.58 728.18 691.301 729.094 691.301C729.853 691.301 730.752 690.586 730.647 689.747C730.147 685.737 729.646 681.726 729.146 677.715C729.042 676.883 728.507 676.162 727.593 676.162C726.834 676.162 725.935 676.877 726.04 677.715Z" fill="#FF008C"/>
<path d="M731.345 552.88C732.096 560.4 732.846 567.92 733.597 575.44C733.793 577.41 736.902 577.431 736.703 575.44C735.953 567.92 735.202 560.4 734.452 552.88C734.255 550.909 731.146 550.889 731.345 552.88Z" fill="#FF008C"/>
<path d="M738.212 608.934C740.629 625.743 742.068 642.688 742.561 659.663C742.619 661.657 745.726 661.666 745.668 659.663C745.167 642.406 743.664 625.195 741.207 608.108C741.087 607.271 740.034 606.829 739.297 607.023C738.402 607.259 738.093 608.107 738.212 608.934Z" fill="#FF008C"/>
<path d="M745.698 684.889C745.949 685.892 746.2 686.894 746.45 687.897C746.544 688.27 746.835 688.633 747.164 688.825C747.497 689.02 747.988 689.103 748.361 688.982C748.737 688.86 749.099 688.627 749.289 688.268C749.487 687.893 749.55 687.488 749.446 687.071C749.195 686.069 748.945 685.066 748.694 684.063C748.601 683.69 748.309 683.328 747.98 683.135C747.647 682.94 747.156 682.858 746.783 682.978C746.407 683.1 746.045 683.333 745.855 683.692C745.657 684.067 745.594 684.472 745.698 684.889Z" fill="#FF008C"/>
<path d="M713.006 547.654C715.04 550.731 715.91 554.507 715.318 558.062C715.18 558.889 715.535 559.735 716.403 559.973C717.146 560.177 718.175 559.72 718.313 558.888C719.051 554.454 718.18 549.855 715.688 546.086C715.226 545.387 714.315 545.089 713.563 545.529C712.869 545.935 712.541 546.951 713.006 547.654Z" fill="#FF008C"/>
<path d="M512.503 409.06C508.893 414.842 502.429 416.901 495.886 416.222C492.008 415.819 487.976 414.816 485.168 412.11C483.535 410.536 482.431 408.489 481.594 406.38C480.639 403.969 480 401.433 479.699 398.857C479.668 398.588 479.651 398.283 479.832 398.083C479.986 397.913 480.234 397.873 480.461 397.844C491.131 396.48 502.026 395.856 512.775 394.812C513.634 394.729 514.661 394.716 515.167 395.415C515.445 395.798 515.481 396.3 515.496 396.773C515.633 401.048 514.768 405.431 512.503 409.06Z" fill="#FF008C"/>
<path d="M511.155 408.276C508.433 412.52 503.786 414.654 498.828 414.786C493.918 414.916 487.968 413.755 484.96 409.501C483.274 407.116 482.304 404.205 481.684 401.376C481.537 400.707 481.402 400.031 481.311 399.351L481.247 398.857C481.247 398.319 481.145 398.478 480.94 399.336C480.959 399.365 481.973 399.208 481.911 399.216C483.696 398.998 485.483 398.801 487.272 398.618C493.804 397.948 500.353 397.464 506.894 396.9C508.772 396.738 510.648 396.56 512.525 396.389C512.929 396.352 513.799 396.268 513.918 396.415C514.193 396.754 513.942 398.461 513.92 398.915C513.756 402.223 512.879 405.438 511.155 408.276C510.115 409.989 512.8 411.552 513.838 409.844C515.698 406.781 516.677 403.33 516.97 399.772C517.092 398.295 517.355 396.313 516.669 394.938C515.918 393.435 514.298 393.145 512.769 393.259C504.758 393.854 496.734 394.576 488.738 395.364C486.785 395.556 484.833 395.763 482.884 395.993C481.316 396.177 478.76 395.99 478.207 397.9C477.788 399.346 478.498 401.459 478.842 402.871C479.294 404.725 479.928 406.534 480.716 408.272C482.035 411.179 484.047 413.701 486.859 415.273C489.717 416.87 493.019 417.529 496.25 417.811C503.174 418.414 510.008 415.815 513.838 409.844C514.92 408.156 512.233 406.597 511.155 408.276Z" fill="#FF008C"/>
<path d="M533.758 338.722C531.337 342.989 523.913 343.112 519.684 343.411C518.608 343.487 517.51 343.549 516.464 343.287C515.417 343.025 514.411 342.386 513.967 341.402C513.556 340.492 513.685 339.401 514.135 338.509C514.584 337.617 515.323 336.901 516.122 336.302C518.157 334.777 520.77 334.048 523.112 333.182C525.617 332.255 528.581 332.037 531.141 332.847C531.89 333.084 532.625 333.419 533.192 333.962C534.436 335.151 534.608 337.225 533.758 338.722Z" fill="white"/>
<path d="M532.418 337.937C531.266 339.877 528.949 340.629 526.863 341.084C524.568 341.585 522.219 341.687 519.883 341.844C518.572 341.932 516.48 342.253 515.544 341.031C514.632 339.839 516.012 338.346 516.907 337.643C518.206 336.621 519.798 336.011 521.336 335.458C522.907 334.894 524.489 334.232 526.152 334C528.415 333.685 534.373 334.189 532.418 337.937C531.495 339.708 534.175 341.28 535.101 339.505C536.022 337.739 536.135 335.533 535.043 333.801C533.895 331.979 531.737 331.235 529.704 330.946C527.467 330.628 525.158 330.85 523.016 331.571C520.902 332.284 518.702 332.995 516.74 334.069C514.912 335.069 513.139 336.528 512.444 338.557C511.697 340.741 512.572 343.06 514.58 344.194C516.467 345.259 518.643 345.029 520.714 344.896C522.331 344.793 523.945 344.672 525.55 344.449C529.148 343.949 533.125 342.831 535.101 339.505C536.124 337.782 533.44 336.218 532.418 337.937Z" fill="#FF008C"/>
<path d="M529.812 333.979C528.684 334.333 527.746 335.246 527.362 336.365C526.979 337.484 527.159 338.78 527.834 339.752C528.36 340.51 529.229 341.08 530.15 341.042C531.53 340.986 532.514 339.664 532.994 338.368C533.436 337.174 533.579 335.686 532.711 334.754C531.978 333.966 530.793 333.853 529.719 333.789" fill="#FF008C"/>
<path d="M529.401 332.481C527.551 333.092 526.024 334.655 525.707 336.618C525.372 338.692 526.177 340.884 528.014 342.008C528.915 342.559 530.041 342.743 531.064 342.462C532.096 342.178 532.896 341.474 533.526 340.637C534.592 339.219 535.121 337.278 534.789 335.528C534.581 334.434 533.819 333.416 532.825 332.914C531.852 332.423 530.796 332.301 529.721 332.236C528.909 332.186 528.132 332.985 528.168 333.789C528.208 334.672 528.851 335.289 529.721 335.342C529.979 335.358 530.352 335.321 530.593 335.415C530.32 335.309 530.379 335.383 530.507 335.407C530.578 335.421 530.65 335.433 530.721 335.448C530.897 335.485 531.068 335.537 531.24 335.59C531.465 335.659 531.186 335.541 531.163 335.551C531.179 335.544 531.352 335.647 531.35 335.645C531.411 335.679 531.468 335.717 531.528 335.754C531.73 335.878 531.469 335.7 531.462 335.703C531.475 335.698 531.622 335.858 531.615 335.851C531.791 336.022 531.551 335.783 531.568 335.781C531.58 335.78 531.682 335.964 531.677 335.955L531.725 336.046C531.782 336.168 531.783 336.168 531.728 336.047L531.688 335.956C531.705 336.004 531.721 336.053 531.734 336.103C531.753 336.169 531.769 336.235 531.783 336.303C531.863 336.685 531.773 336.013 531.79 336.409C531.797 336.571 531.788 336.73 531.781 336.891C531.773 337.065 531.846 336.989 531.799 336.802C531.817 336.873 531.766 337.001 531.751 337.071C531.694 337.354 531.614 337.633 531.516 337.905C531.492 337.97 531.466 338.035 531.442 338.101C531.369 338.298 531.571 337.832 531.473 338.02C531.4 338.162 531.335 338.308 531.255 338.447C531.185 338.571 531.111 338.693 531.031 338.811C531.013 338.838 530.945 338.961 530.908 338.984C531.077 338.879 531.06 338.8 530.953 338.917C530.86 339.019 530.768 339.122 530.666 339.216C530.675 339.208 530.523 339.355 530.513 339.351C530.682 339.224 530.72 339.194 530.626 339.26C530.585 339.289 530.543 339.317 530.5 339.343C530.444 339.378 530.385 339.408 530.327 339.441C530.122 339.559 530.396 339.36 530.427 339.405C530.432 339.413 530.067 339.495 530.043 339.51C530.09 339.481 530.416 339.502 530.152 339.488C530.122 339.487 529.937 339.481 529.932 339.486C529.956 339.462 530.31 339.576 530.021 339.497C529.934 339.473 529.845 339.443 529.758 339.424C529.555 339.381 530.006 339.56 529.824 339.457C529.761 339.42 529.693 339.39 529.63 339.353C529.566 339.316 529.507 339.271 529.443 339.234C529.261 339.13 529.64 339.422 529.493 339.273C529.39 339.169 529.282 339.057 529.175 338.959C529.02 338.817 529.324 339.188 529.21 339.012C529.158 338.933 529.102 338.857 529.053 338.775C528.981 338.657 528.873 338.506 528.842 338.37C528.916 338.693 528.898 338.508 528.873 338.422C528.851 338.349 528.826 338.277 528.806 338.204C528.785 338.13 528.767 338.056 528.751 337.982C528.743 337.945 528.718 337.596 528.723 337.85C528.729 338.079 528.728 337.83 528.725 337.772C528.72 337.676 528.718 337.581 528.721 337.486C528.722 337.409 528.729 337.334 528.733 337.257C528.749 336.89 528.647 337.574 528.742 337.218C528.786 337.054 528.837 336.891 528.881 336.727C528.935 336.524 528.749 336.986 528.847 336.8C528.888 336.721 528.924 336.639 528.968 336.56C529.003 336.498 529.039 336.436 529.077 336.376C529.106 336.33 529.136 336.286 529.167 336.242C529.233 336.148 529.205 336.181 529.084 336.341C529.137 336.215 529.312 336.077 529.409 335.983C529.46 335.933 529.513 335.884 529.567 335.837C529.789 335.643 529.631 335.854 529.547 335.847C529.635 335.854 529.913 335.613 530.004 335.566C530.051 335.541 530.166 335.504 530.197 335.472L530.024 335.546C530.091 335.521 530.159 335.497 530.227 335.476C530.997 335.222 531.58 334.391 531.312 333.565C531.064 332.797 530.227 332.208 529.401 332.481Z" fill="#FF008C"/>
<path d="M487.157 344.416C484.735 348.684 477.312 348.807 473.083 349.106C472.006 349.182 470.909 349.244 469.862 348.982C468.815 348.72 467.809 348.081 467.366 347.097C466.955 346.186 467.083 345.096 467.533 344.204C467.983 343.311 468.721 342.596 469.521 341.997C471.555 340.472 474.169 339.743 476.51 338.877C479.016 337.95 481.98 337.732 484.54 338.542C485.288 338.779 486.023 339.114 486.59 339.657C487.834 340.846 488.006 342.92 487.157 344.416Z" fill="white"/>
<path d="M485.817 343.633C484.664 345.572 482.348 346.324 480.261 346.779C477.967 347.28 475.617 347.382 473.281 347.539C471.97 347.627 469.878 347.949 468.943 346.726C468.031 345.534 469.411 344.041 470.306 343.338C471.604 342.317 473.196 341.706 474.735 341.153C476.306 340.589 477.887 339.927 479.551 339.696C481.813 339.38 487.771 339.885 485.817 343.633C484.893 345.403 487.573 346.976 488.499 345.2C489.42 343.434 489.533 341.228 488.442 339.496C487.294 337.674 485.136 336.931 483.102 336.641C480.866 336.323 478.556 336.545 476.414 337.267C474.3 337.979 472.1 338.69 470.138 339.764C468.31 340.765 466.537 342.223 465.843 344.253C465.095 346.437 465.971 348.755 467.978 349.889C469.865 350.955 472.041 350.724 474.113 350.592C475.73 350.488 477.343 350.367 478.949 350.144C482.547 349.645 486.523 348.526 488.499 345.2C489.523 343.478 486.838 341.913 485.817 343.633Z" fill="#FF008C"/>
<path d="M483.218 339.674C482.09 340.028 481.152 340.941 480.769 342.06C480.385 343.179 480.566 344.476 481.24 345.447C481.766 346.205 482.635 346.775 483.556 346.738C484.936 346.681 485.92 345.359 486.4 344.064C486.842 342.869 486.985 341.381 486.117 340.449C485.385 339.662 484.199 339.548 483.126 339.484" fill="#FF008C"/>
<path d="M482.807 338.176C480.957 338.787 479.43 340.35 479.113 342.313C478.779 344.387 479.583 346.579 481.42 347.703C482.322 348.255 483.447 348.439 484.47 348.157C485.502 347.873 486.303 347.169 486.932 346.332C487.998 344.914 488.527 342.973 488.195 341.223C487.988 340.129 487.225 339.111 486.231 338.61C485.258 338.118 484.202 337.996 483.128 337.931C482.315 337.882 481.538 338.681 481.574 339.484C481.614 340.368 482.257 340.984 483.128 341.037C483.386 341.053 483.758 341.017 484 341.111C483.726 341.004 483.785 341.078 483.913 341.103C483.984 341.116 484.056 341.128 484.127 341.143C484.304 341.181 484.474 341.232 484.646 341.285C484.871 341.354 484.592 341.236 484.569 341.246C484.586 341.239 484.758 341.342 484.756 341.341C484.817 341.374 484.875 341.413 484.934 341.449C485.136 341.574 484.875 341.396 484.869 341.398C484.882 341.394 485.028 341.554 485.021 341.547C485.198 341.717 484.957 341.479 484.974 341.476C484.987 341.475 485.088 341.66 485.083 341.651L485.131 341.741C485.188 341.863 485.19 341.864 485.135 341.742L485.094 341.651C485.111 341.7 485.127 341.748 485.14 341.798C485.159 341.864 485.175 341.931 485.189 341.998C485.269 342.38 485.18 341.708 485.196 342.104C485.203 342.266 485.195 342.425 485.187 342.586C485.179 342.76 485.252 342.684 485.205 342.497C485.223 342.568 485.172 342.697 485.158 342.766C485.1 343.049 485.02 343.328 484.922 343.6C484.899 343.666 484.872 343.73 484.848 343.796C484.775 343.993 484.977 343.527 484.88 343.715C484.806 343.858 484.741 344.003 484.662 344.143C484.592 344.267 484.517 344.388 484.437 344.506C484.419 344.533 484.351 344.656 484.314 344.68C484.483 344.574 484.466 344.496 484.36 344.612C484.266 344.714 484.174 344.817 484.073 344.911C484.081 344.904 483.929 345.05 483.919 345.046C484.088 344.919 484.126 344.889 484.032 344.956C483.991 344.985 483.949 345.012 483.907 345.038C483.85 345.073 483.791 345.103 483.733 345.136C483.528 345.254 483.802 345.055 483.833 345.1C483.838 345.108 483.474 345.191 483.449 345.206C483.497 345.177 483.822 345.197 483.558 345.184C483.528 345.182 483.343 345.176 483.338 345.181C483.363 345.157 483.716 345.271 483.427 345.192C483.34 345.169 483.251 345.138 483.164 345.12C482.961 345.077 483.412 345.256 483.231 345.152C483.167 345.116 483.1 345.085 483.036 345.048C482.972 345.011 482.913 344.966 482.849 344.929C482.668 344.825 483.047 345.117 482.899 344.968C482.796 344.865 482.688 344.752 482.581 344.654C482.426 344.512 482.73 344.883 482.616 344.708C482.564 344.628 482.508 344.552 482.459 344.471C482.388 344.352 482.279 344.201 482.248 344.066C482.323 344.388 482.305 344.203 482.279 344.118C482.258 344.044 482.232 343.973 482.212 343.899C482.192 343.826 482.173 343.752 482.157 343.677C482.15 343.64 482.124 343.291 482.13 343.545C482.135 343.774 482.134 343.525 482.131 343.467C482.126 343.372 482.125 343.276 482.127 343.181C482.129 343.105 482.135 343.029 482.139 342.953C482.155 342.585 482.054 343.269 482.148 342.913C482.192 342.749 482.243 342.586 482.287 342.422C482.341 342.219 482.155 342.681 482.253 342.495C482.294 342.416 482.331 342.334 482.374 342.256C482.409 342.193 482.445 342.131 482.484 342.071C482.512 342.026 482.542 341.981 482.573 341.937C482.639 341.843 482.611 341.876 482.49 342.036C482.543 341.91 482.719 341.772 482.815 341.678C482.866 341.628 482.919 341.58 482.973 341.533C483.195 341.338 483.037 341.549 482.953 341.542C483.041 341.549 483.319 341.308 483.41 341.261C483.457 341.236 483.573 341.2 483.603 341.167L483.431 341.242C483.498 341.216 483.565 341.193 483.634 341.171C484.404 340.917 484.986 340.087 484.718 339.26C484.47 338.493 483.634 337.903 482.807 338.176Z" fill="#FF008C"/>
<path d="M764.096 383.773C769.744 383.405 775.34 384.728 780.205 387.629C781.926 388.655 783.49 385.971 781.772 384.947C776.471 381.785 770.258 380.265 764.096 380.667C762.111 380.796 762.096 383.904 764.096 383.773Z" fill="#FF008C"/>
<path d="M278.575 396.074C281.058 402.013 271.103 406.739 267.111 407.884C264.305 408.688 261.219 409.227 258.527 408.095C257.587 407.7 256.68 407.046 256.339 406.084C255.728 404.361 256.914 401.905 257.962 400.567C260.843 396.887 265.419 394.945 269.955 393.819C271.53 393.428 273.168 393.115 274.77 393.377C276.373 393.638 277.948 394.576 278.575 396.074Z" fill="white"/>
<path d="M277.08 396.487C278.05 398.956 276.339 400.954 274.477 402.44C272.445 404.062 269.982 405.293 267.526 406.126C265.825 406.704 264.011 407.155 262.209 407.187C260.855 407.211 257.984 406.982 257.732 405.22C257.49 403.519 258.999 401.608 260.098 400.489C261.477 399.084 263.139 398.027 264.911 397.184C266.946 396.216 269.16 395.549 271.363 395.088C273.479 394.645 276.174 394.603 277.237 396.858C278.088 398.666 280.767 397.09 279.919 395.29C277.39 389.925 270.118 391.86 265.83 393.454C261.319 395.132 256.549 398.101 254.98 402.926C254.177 405.396 254.852 407.864 257.19 409.168C259.535 410.476 262.336 410.452 264.906 410.003C268.512 409.372 272.093 407.858 275.115 405.801C278.383 403.576 281.744 399.908 280.075 395.661C279.353 393.822 276.347 394.623 277.08 396.487Z" fill="#FF008C"/>
<path d="M271.664 404.182C273.715 403.775 275.4 402.227 276.438 400.412C276.833 399.722 277.154 398.97 277.2 398.177C277.248 397.36 276.999 396.552 276.663 395.805C276.511 395.467 276.334 395.129 276.06 394.88C275.805 394.648 275.482 394.507 275.156 394.397C273.85 393.956 272.395 393.969 271.097 394.433C268.189 395.474 266.594 398.437 267.136 401.445C267.273 402.202 267.544 402.945 268.009 403.557C268.947 404.791 270.685 405.35 272.166 404.895" fill="#FF008C"/>
<path d="M272.077 405.68C274.638 405.134 276.776 403.158 277.956 400.873C278.706 399.421 278.976 397.867 278.498 396.278C278.298 395.609 278.021 394.902 277.614 394.329C277.082 393.578 276.349 393.149 275.48 392.87C272.772 392 269.629 392.796 267.658 394.842C265.855 396.713 265.181 399.328 265.639 401.858C265.926 403.444 266.796 404.873 268.156 405.753C269.447 406.587 271.108 406.81 272.58 406.392C273.387 406.163 273.888 405.295 273.665 404.481C273.443 403.675 272.564 403.167 271.754 403.397C271.657 403.424 271.561 403.446 271.464 403.472C271.031 403.592 271.622 403.474 271.36 403.489C271.137 403.501 270.911 403.504 270.689 403.476C270.99 403.514 270.433 403.403 270.369 403.383C270.274 403.355 270.178 403.323 270.086 403.286C270.351 403.391 269.933 403.197 269.916 403.187C269.517 402.962 269.512 402.978 269.201 402.576C269.337 402.751 269.13 402.448 269.104 402.405C269.044 402.304 268.987 402.201 268.936 402.094C268.812 401.838 268.985 402.243 268.885 401.976C268.823 401.809 268.773 401.638 268.729 401.466C268.7 401.351 268.674 401.235 268.651 401.119C268.645 401.088 268.591 400.748 268.617 400.938C268.647 401.157 268.597 400.67 268.598 400.695C268.592 400.595 268.588 400.496 268.586 400.397C268.582 400.2 268.588 400.003 268.602 399.806C268.609 399.709 268.618 399.611 268.63 399.515C268.587 399.847 268.664 399.382 268.67 399.354C268.71 399.166 268.758 398.98 268.815 398.796C268.851 398.682 268.892 398.57 268.932 398.457C269.014 398.224 268.837 398.654 268.94 398.431C269.03 398.236 269.127 398.046 269.236 397.861C269.284 397.779 269.334 397.698 269.386 397.618C269.405 397.59 269.619 397.282 269.512 397.426C269.386 397.598 269.674 397.234 269.661 397.25C269.724 397.178 269.789 397.107 269.855 397.038C269.988 396.899 270.133 396.773 270.274 396.643C270.489 396.444 270.358 396.572 270.301 396.614C270.38 396.556 270.46 396.5 270.541 396.446C270.747 396.309 270.962 396.184 271.183 396.073C271.154 396.087 271.6 395.888 271.411 395.964C271.245 396.031 271.579 395.908 271.6 395.9C271.867 395.809 272.139 395.739 272.417 395.684C272.774 395.612 273.392 395.596 273.875 395.666C273.792 395.654 273.742 395.635 274.018 395.698C274.141 395.726 274.263 395.752 274.384 395.785C274.505 395.818 274.625 395.854 274.744 395.894C275.053 395.996 274.917 395.958 274.851 395.933C275.215 396.072 274.865 395.907 275.018 396.033C275.197 396.182 274.943 395.896 275.066 396.093C275.184 396.283 275.29 396.508 275.348 396.655C275.722 397.597 275.764 398.321 275.357 399.14C275.111 399.634 274.825 400.109 274.495 400.551C274.536 400.496 274.646 400.374 274.445 400.611C274.343 400.732 274.24 400.852 274.133 400.969C273.955 401.162 273.768 401.347 273.572 401.522C272.963 402.067 272.151 402.492 271.251 402.684C270.431 402.859 269.954 403.82 270.167 404.595C270.4 405.445 271.254 405.855 272.077 405.68Z" fill="#FF008C"/>
<path d="M221.621 413.678C224.104 419.616 214.15 424.343 210.158 425.487C207.351 426.291 204.265 426.831 201.574 425.699C200.634 425.303 199.727 424.649 199.386 423.687C198.775 421.964 199.961 419.509 201.009 418.17C203.89 414.49 208.465 412.548 213.002 411.422C214.577 411.031 216.215 410.719 217.817 410.98C219.419 411.242 220.995 412.18 221.621 413.678Z" fill="white"/>
<path d="M220.127 414.091C221.096 416.56 219.386 418.558 217.524 420.044C215.492 421.666 213.029 422.896 210.573 423.73C208.872 424.307 207.058 424.758 205.256 424.79C203.902 424.814 201.03 424.586 200.779 422.824C200.536 421.122 202.046 419.212 203.145 418.092C204.524 416.687 206.186 415.631 207.958 414.788C209.993 413.819 212.207 413.153 214.41 412.691C216.526 412.248 219.221 412.207 220.283 414.462C221.135 416.269 223.814 414.694 222.966 412.894C220.437 407.528 213.165 409.464 208.876 411.058C204.366 412.735 199.596 415.705 198.027 420.53C197.224 422.999 197.899 425.467 200.237 426.772C202.582 428.08 205.383 428.055 207.953 427.606C211.559 426.976 215.14 425.462 218.162 423.404C221.43 421.179 224.79 417.512 223.122 413.265C222.4 411.425 219.394 412.226 220.127 414.091Z" fill="#FF008C"/>
<path d="M214.71 421.785C216.762 421.378 218.447 419.83 219.485 418.015C219.88 417.325 220.201 416.573 220.247 415.78C220.295 414.963 220.046 414.155 219.71 413.409C219.558 413.07 219.381 412.732 219.107 412.483C218.852 412.251 218.529 412.11 218.203 412C216.897 411.559 215.442 411.572 214.144 412.036C211.236 413.077 209.641 416.04 210.183 419.048C210.32 419.805 210.591 420.548 211.056 421.16C211.994 422.394 213.732 422.953 215.213 422.498" fill="#FF008C"/>
<path d="M215.124 423.283C217.685 422.737 219.823 420.762 221.003 418.476C221.753 417.024 222.023 415.471 221.545 413.881C221.345 413.213 221.068 412.505 220.661 411.932C220.129 411.182 219.396 410.752 218.527 410.473C215.819 409.604 212.676 410.4 210.705 412.446C208.902 414.317 208.228 416.931 208.686 419.461C208.973 421.047 209.843 422.477 211.203 423.357C212.494 424.191 214.155 424.413 215.627 423.996C216.434 423.767 216.935 422.898 216.711 422.085C216.49 421.278 215.611 420.77 214.801 421C214.704 421.027 214.607 421.049 214.511 421.076C214.078 421.195 214.669 421.078 214.407 421.092C214.183 421.104 213.958 421.108 213.736 421.08C214.037 421.117 213.48 421.006 213.416 420.987C213.321 420.958 213.225 420.926 213.132 420.89C213.398 420.994 212.98 420.801 212.963 420.791C212.564 420.565 212.559 420.582 212.248 420.179C212.383 420.355 212.176 420.051 212.151 420.009C212.091 419.907 212.034 419.804 211.983 419.698C211.859 419.442 212.032 419.846 211.932 419.579C211.87 419.412 211.82 419.242 211.776 419.069C211.747 418.954 211.721 418.839 211.698 418.722C211.692 418.691 211.638 418.352 211.664 418.541C211.693 418.76 211.644 418.274 211.645 418.298C211.639 418.199 211.635 418.099 211.633 418C211.629 417.803 211.635 417.606 211.649 417.41C211.656 417.313 211.664 417.215 211.677 417.118C211.634 417.451 211.711 416.986 211.717 416.958C211.757 416.77 211.805 416.583 211.862 416.4C211.898 416.285 211.939 416.173 211.979 416.06C212.061 415.828 211.884 416.258 211.987 416.035C212.076 415.84 212.174 415.649 212.283 415.464C212.331 415.382 212.381 415.302 212.433 415.222C212.452 415.193 212.666 414.885 212.559 415.03C212.433 415.201 212.721 414.838 212.708 414.853C212.771 414.781 212.835 414.711 212.902 414.642C213.035 414.503 213.18 414.377 213.321 414.246C213.536 414.048 213.405 414.175 213.348 414.218C213.426 414.159 213.507 414.103 213.588 414.049C213.794 413.912 214.009 413.788 214.23 413.677C214.201 413.691 214.647 413.491 214.458 413.568C214.292 413.635 214.625 413.511 214.647 413.504C214.914 413.413 215.186 413.343 215.463 413.287C215.821 413.216 216.439 413.2 216.922 413.27C216.839 413.258 216.789 413.239 217.065 413.302C217.188 413.33 217.31 413.355 217.431 413.388C217.552 413.421 217.672 413.458 217.791 413.497C218.1 413.599 217.964 413.562 217.898 413.537C218.262 413.676 217.912 413.51 218.065 413.637C218.244 413.785 217.99 413.499 218.113 413.697C218.231 413.886 218.337 414.112 218.395 414.259C218.769 415.2 218.811 415.924 218.404 416.744C218.158 417.238 217.872 417.713 217.542 418.155C217.583 418.099 217.693 417.977 217.492 418.214C217.39 418.335 217.287 418.455 217.18 418.572C217.002 418.765 216.814 418.95 216.619 419.126C216.01 419.67 215.198 420.096 214.298 420.288C213.477 420.463 213.001 421.424 213.213 422.199C213.447 423.048 214.301 423.459 215.124 423.283Z" fill="#FF008C"/>
<path d="M822.138 231.372C825.818 235.543 830.715 238.608 836.3 239.284C841.768 239.946 847.236 238.003 851.78 235.049C860.842 229.156 865.904 218.867 864.536 208.086C863.257 198.012 856.683 188.482 846.623 185.632C837.144 182.946 826.63 186.582 820.683 194.383C812.708 204.842 813.715 221.498 822.138 231.372C823.438 232.896 825.626 230.689 824.335 229.176C817.632 221.318 816.47 208.498 821.19 199.377C825.253 191.526 834.025 186.904 842.81 188.008C851.86 189.145 858.534 196.44 860.796 204.997C863.236 214.23 860.354 223.848 853.163 230.141C849.267 233.549 843.995 236.259 838.733 236.318C833.023 236.382 828.022 233.354 824.335 229.176C823.01 227.674 820.819 229.878 822.138 231.372Z" fill="#FF008C"/>
<path d="M839.734 157.869C839.721 160.812 839.472 163.647 838.991 166.382C838.85 167.179 839.205 168.094 840.075 168.292C840.832 168.465 841.836 168.063 841.986 167.208C842.529 164.124 842.827 161.001 842.841 157.869C842.845 157.057 842.124 156.279 841.288 156.316C840.443 156.354 839.738 156.999 839.734 157.869Z" fill="#FF008C"/>
<path d="M880.109 190.327C880.752 189.77 881.402 189.221 882.059 188.681C882.378 188.42 882.699 188.16 883.022 187.903C883.183 187.775 883.345 187.647 883.507 187.519C883.588 187.455 883.669 187.392 883.75 187.328C883.782 187.304 884.046 187.098 883.864 187.239C885.209 186.198 886.59 185.202 887.993 184.24C888.662 183.782 889.028 182.855 888.55 182.115C888.121 181.449 887.142 181.067 886.425 181.558C883.467 183.584 880.622 185.781 877.913 188.131C877.297 188.665 877.324 189.788 877.913 190.328C878.569 190.93 879.452 190.897 880.109 190.327Z" fill="#FF008C"/>
<path d="M875.999 238.972C876.725 239.446 877.439 239.938 878.137 240.453C878.311 240.581 878.485 240.711 878.658 240.842C878.679 240.858 878.906 241.033 878.787 240.941C878.648 240.833 878.945 241.065 878.972 241.086C879.312 241.354 879.649 241.628 879.981 241.906C881.311 243.019 882.573 244.212 883.765 245.472C884.325 246.063 885.405 246.078 885.962 245.472C886.544 244.838 886.559 243.906 885.962 243.275C883.454 240.625 880.623 238.282 877.567 236.29C876.885 235.845 875.82 236.13 875.441 236.847C875.032 237.622 875.271 238.498 875.999 238.972Z" fill="#FF008C"/>
<path d="M843.563 256.847C843.433 260.93 843.504 265.017 843.776 269.093C843.831 269.93 844.45 270.646 845.329 270.646C846.127 270.646 846.938 269.934 846.882 269.093C846.611 265.016 846.54 260.93 846.669 256.847C846.696 256.008 845.936 255.294 845.116 255.294C844.252 255.294 843.59 256.005 843.563 256.847Z" fill="#FF008C"/>
<path d="M799.495 258.682C801.463 257.082 803.431 255.481 805.399 253.88C805.689 253.644 805.854 253.139 805.854 252.782C805.854 252.401 805.685 251.946 805.399 251.684C805.103 251.412 804.714 251.21 804.3 251.229C803.865 251.248 803.539 251.41 803.202 251.684C801.234 253.284 799.267 254.885 797.299 256.486C797.009 256.722 796.844 257.227 796.844 257.584C796.844 257.965 797.013 258.42 797.299 258.682C797.595 258.954 797.983 259.156 798.397 259.137C798.832 259.118 799.159 258.956 799.495 258.682Z" fill="#FF008C"/>
<path d="M778.006 214.268C782.075 214.675 786.162 214.845 790.251 214.779C792.248 214.746 792.254 211.639 790.251 211.672C786.162 211.739 782.075 211.569 778.006 211.162C777.17 211.078 776.453 211.936 776.453 212.715C776.453 213.625 777.168 214.185 778.006 214.268Z" fill="#FF008C"/>
<path d="M796.056 171.407C798.326 174.798 800.798 178.053 803.448 181.155C803.978 181.775 805.108 181.74 805.645 181.155C806.251 180.495 806.21 179.619 805.645 178.958C803.125 176.01 800.916 173.092 798.739 169.84C798.287 169.165 797.348 168.809 796.613 169.282C795.942 169.716 795.573 170.685 796.056 171.407Z" fill="#FF008C"/>
<path d="M507.267 402.473C502.562 401.652 497.683 402.112 493.096 403.439C489.442 404.497 485.809 406.409 482.828 409.003C483.467 410.142 484.226 411.205 485.165 412.11C487.973 414.816 492.005 415.82 495.883 416.222C502.426 416.901 508.89 414.842 512.5 409.06C513.318 407.75 513.95 406.342 514.422 404.876C512.184 403.714 509.752 402.907 507.267 402.473Z" fill="white"/>
<path d="M507.679 400.975C498.539 399.461 488.808 401.853 481.729 407.904C481.209 408.348 481.161 409.224 481.486 409.786C483.446 413.184 486.359 415.446 490.079 416.651C493.407 417.73 497.162 418.156 500.641 417.766C503.981 417.392 507.196 416.283 509.876 414.222C512.828 411.951 514.751 408.793 515.918 405.289C516.123 404.674 515.79 403.832 515.204 403.535C512.819 402.325 510.31 401.459 507.679 400.975C505.725 400.616 504.887 403.61 506.853 403.971C509.221 404.406 511.488 405.127 513.636 406.217L512.923 404.463C511.003 410.229 506.37 414.1 500.282 414.697C497.408 414.979 494.432 414.662 491.656 413.882C488.387 412.964 485.876 411.178 484.168 408.219L483.925 410.101C490.086 404.835 498.894 402.652 506.853 403.971C508.809 404.295 509.65 401.302 507.679 400.975Z" fill="#FF008C"/>
<path d="M494.665 404.189C495.043 404.276 495.416 404.382 495.781 404.511C495.881 404.546 495.98 404.583 496.078 404.621C496.129 404.641 496.405 404.773 496.186 404.663C495.965 404.552 496.242 404.69 496.29 404.712C496.386 404.757 496.481 404.803 496.575 404.85C496.921 405.023 497.258 405.216 497.583 405.427C497.745 405.532 497.905 405.642 498.061 405.757C498.236 405.884 498.157 405.854 498.042 405.737C498.112 405.809 498.211 405.872 498.288 405.936C498.586 406.184 498.87 406.449 499.139 406.728C499.261 406.855 499.38 406.985 499.495 407.118C499.564 407.198 499.632 407.278 499.699 407.36L499.766 407.442C499.87 407.574 499.853 407.552 499.717 407.378C499.837 407.462 499.941 407.687 500.023 407.808C500.131 407.969 500.235 408.132 500.333 408.299C500.54 408.647 500.723 409.008 500.887 409.379C501.217 410.124 502.362 410.355 503.012 409.936C503.784 409.438 503.923 408.609 503.569 407.811C502.115 404.525 498.984 401.998 495.491 401.194C494.701 401.012 493.772 401.437 493.58 402.279C493.4 403.071 493.819 403.994 494.665 404.189Z" fill="#FF008C"/>
<path d="M191.435 403.085C196.446 394.868 205.303 389.179 214.897 388.176C216.865 387.97 216.886 384.861 214.897 385.069C204.176 386.191 194.376 392.296 188.752 401.517C187.709 403.228 190.394 404.791 191.435 403.085Z" fill="#FF008C"/>
<path d="M280.783 368.859C271.225 365.162 260.08 367.156 252.226 373.66C250.685 374.937 252.893 377.124 254.423 375.857C261.462 370.027 271.481 368.576 279.958 371.855C281.823 372.576 282.631 369.574 280.783 368.859Z" fill="#FF008C"/>
<path d="M244.02 393.688C246.282 402.443 248.779 411.174 250.784 419.992C251.681 423.942 252.309 428.519 250.038 432.135C248.383 434.77 245.071 436.902 241.964 435.424C238.834 433.936 237.606 429.881 237.258 426.704C237.042 424.738 233.934 424.716 234.152 426.704C234.554 430.37 235.712 434.401 238.62 436.891C241.711 439.538 245.992 439.627 249.307 437.31C258.23 431.069 253.757 418.945 251.561 410.453C250.046 404.589 248.53 398.726 247.015 392.862C246.515 390.928 243.518 391.748 244.02 393.688Z" fill="#FF008C"/>
<path d="M249.24 453.423C248.655 457.641 244.421 459.562 240.528 459.373C238.695 459.284 237.241 458.478 236.332 456.881C235.464 455.355 235.123 453.567 234.794 451.862C234.416 449.901 231.421 450.731 231.798 452.688C232.22 454.876 232.738 457.19 234.028 459.052C235.561 461.266 237.866 462.347 240.528 462.479C245.658 462.735 251.47 459.767 252.236 454.249C252.351 453.42 252.034 452.581 251.151 452.339C250.425 452.139 249.357 452.587 249.24 453.423Z" fill="#FF008C"/>
<path d="M231.777 453.979C232.054 453.744 232.336 453.515 232.623 453.292L232.309 453.535C233.228 452.829 234.199 452.194 235.215 451.637C235.928 451.246 236.218 450.204 235.772 449.512C235.306 448.789 234.41 448.536 233.647 448.955C232.196 449.751 230.84 450.711 229.58 451.783C229.291 452.028 229.125 452.515 229.125 452.881C229.125 453.262 229.294 453.717 229.58 453.979C229.876 454.251 230.265 454.453 230.678 454.434C231.109 454.415 231.448 454.259 231.777 453.979Z" fill="#FF008C"/>
<path d="M465.141 326.297C473.958 326.266 481.007 320.6 487.366 315.144C488.886 313.84 486.68 311.651 485.169 312.947C479.464 317.843 473.071 323.163 465.141 323.191C463.142 323.198 463.139 326.304 465.141 326.297Z" fill="#FF008C"/>
<path d="M532.352 315.445C528.54 316.002 524.539 315.175 521.172 313.337C519.497 312.422 517.98 311.276 516.663 309.894C515.36 308.527 514.31 306.034 512.114 306.145C510.124 306.245 510.112 309.352 512.114 309.252C512.059 309.175 512.066 309.173 512.134 309.246C512.19 309.295 512.241 309.349 512.287 309.407C512.436 309.548 512.541 309.74 512.662 309.905C512.98 310.34 513.31 310.768 513.655 311.181C514.305 311.961 515.021 312.686 515.788 313.35C517.349 314.702 519.088 315.848 520.97 316.7C524.831 318.448 528.985 319.054 533.178 318.44C534.006 318.319 534.469 317.266 534.263 316.53C534.014 315.64 533.189 315.323 532.352 315.445Z" fill="#FF008C"/>
<path d="M504.205 312.261C505.059 324.062 505.311 335.902 504.94 347.728C504.757 353.559 504.423 359.384 503.94 365.197C503.696 368.145 503.412 371.089 503.091 374.029C502.939 375.417 502.778 376.805 502.609 378.191C502.465 379.372 502.404 380.637 501.987 381.764C500.838 384.87 498.083 380.837 497.263 379.468C495.776 376.986 494.938 374.189 494.789 371.303C494.686 369.313 491.579 369.301 491.682 371.303C491.831 374.185 492.523 376.961 493.783 379.56C494.922 381.911 496.689 384.775 499.239 385.768C505.577 388.234 505.715 378.352 506.116 374.764C507.592 361.536 508.29 348.223 508.208 334.914C508.162 327.355 507.857 319.8 507.312 312.261C507.168 310.278 504.061 310.263 504.205 312.261Z" fill="#FF008C"/>
<path d="M761.026 301.936C763.031 306.503 767.238 310.088 772.084 311.305C776.373 312.383 781.732 311.157 783.401 306.635C784.094 304.757 781.093 303.947 780.405 305.809C779.239 308.97 774.687 308.904 772.072 308.07C768.295 306.867 765.289 303.969 763.709 300.369C763.371 299.6 762.248 299.423 761.583 299.811C760.791 300.275 760.688 301.165 761.026 301.936Z" fill="#FF008C"/>
<path d="M761.299 284.343C761.357 284.057 761.427 283.775 761.518 283.497C761.563 283.359 761.613 283.223 761.665 283.089C761.553 283.377 761.731 282.954 761.742 282.932C761.868 282.673 762.009 282.422 762.164 282.179C762.242 282.057 762.325 281.94 762.406 281.82C762.585 281.554 762.286 281.943 762.515 281.677C762.882 281.254 763.267 280.863 763.696 280.503C763.781 280.435 763.771 280.441 763.668 280.52C763.726 280.475 763.784 280.432 763.844 280.39C763.963 280.306 764.082 280.222 764.204 280.142C764.449 279.982 764.701 279.834 764.96 279.698C765.068 279.641 765.176 279.586 765.286 279.534C765.345 279.506 765.699 279.354 765.45 279.455C765.72 279.345 765.996 279.249 766.276 279.166C766.554 279.083 766.837 279.014 767.122 278.958C767.15 278.953 767.619 278.877 767.282 278.923C767.425 278.903 767.569 278.89 767.713 278.88C768.001 278.859 768.29 278.853 768.578 278.863C768.722 278.868 768.865 278.882 769.009 278.889C769.348 278.906 768.803 278.838 769.167 278.907C769.743 279.017 770.293 279.17 770.834 279.398C771.608 279.724 772.543 279.048 772.745 278.314C772.992 277.416 772.437 276.73 771.66 276.403C766.324 274.153 759.457 277.885 758.303 283.518C758.135 284.339 758.541 285.196 759.388 285.429C760.156 285.64 761.129 285.169 761.299 284.343Z" fill="#FF008C"/>
<path d="M794.422 316.727C796.012 315.335 798.122 314.497 800.232 314.613C802.342 314.729 804.414 315.858 805.498 317.672C806.34 319.081 806.557 320.78 806.525 322.421C806.481 324.749 805.863 327.249 804.059 328.721C803.322 329.321 802.437 329.709 801.549 330.049C800.384 330.494 799.193 330.87 797.983 331.172" fill="#84FF20"/>
<path d="M796.152 318.456C796.821 317.888 797.748 317.414 798.703 317.179C799.642 316.948 800.319 316.98 801.26 317.278C801.284 317.286 801.951 317.567 801.584 317.391C801.804 317.496 802.018 317.613 802.225 317.742C802.363 317.827 802.498 317.918 802.629 318.013C802.486 317.904 802.479 317.903 802.607 318.011C802.817 318.2 803.02 318.397 803.203 318.614C802.951 318.315 803.358 318.857 803.387 318.906C803.38 318.894 803.723 319.553 803.614 319.3C803.805 319.743 803.981 320.526 804.023 320.826C804.067 321.147 804.09 321.93 804.081 322.421C804.076 322.672 804.065 322.923 804.046 323.173C804.045 323.181 803.953 323.956 804.017 323.53C803.935 324.07 803.807 324.605 803.634 325.123C803.596 325.242 803.554 325.359 803.508 325.475C803.596 325.273 803.578 325.305 803.455 325.57C803.336 325.785 803.214 325.997 803.088 326.208C802.799 326.694 803.279 326.091 802.87 326.484C802.883 326.472 802.348 326.996 802.6 326.783C802.221 327.103 801.439 327.474 801.166 327.587C799.929 328.099 798.629 328.483 797.333 328.814C796.054 329.141 795.28 330.566 795.625 331.822C795.982 333.119 797.35 333.859 798.634 333.53C801.202 332.874 804.092 332.06 806.067 330.203C807.934 328.449 808.682 325.901 808.915 323.426C809.145 320.989 808.832 318.192 807.412 316.131C806.011 314.097 803.824 312.667 801.368 312.299C798.154 311.817 795.138 312.924 792.693 314.998C791.685 315.852 791.813 317.576 792.693 318.456C793.692 319.455 795.141 319.313 796.152 318.456Z" fill="#84FF20"/>
<path d="M797.549 334.18C799.288 334.626 801.174 334.561 802.871 333.965C804.695 333.323 806.188 332.218 807.364 330.692C807.862 330.045 807.484 328.924 806.807 328.566C805.983 328.131 805.213 328.434 804.682 329.124C804.898 328.843 804.592 329.216 804.512 329.305C804.394 329.434 804.271 329.56 804.143 329.68C804.016 329.801 803.878 329.91 803.749 330.028C803.588 330.175 803.963 329.876 803.787 330.002C803.707 330.059 803.63 330.117 803.549 330.173C803.26 330.372 802.957 330.552 802.644 330.711C802.574 330.746 802.504 330.781 802.433 330.814C802.391 330.834 802.082 330.964 802.297 330.878C802.492 330.799 802.247 330.895 802.21 330.909C802.119 330.943 802.027 330.976 801.934 331.007C801.619 331.113 801.297 331.199 800.972 331.266C800.876 331.285 800.78 331.301 800.684 331.319C800.44 331.365 800.708 331.28 800.749 331.313C800.697 331.272 800.306 331.354 800.224 331.358C799.873 331.376 799.522 331.371 799.172 331.34C799.133 331.337 799.094 331.333 799.056 331.329C798.937 331.316 798.978 331.322 799.178 331.349C799.139 331.317 798.998 331.321 798.947 331.311C798.755 331.277 798.564 331.233 798.375 331.185C797.589 330.983 796.653 331.442 796.464 332.27C796.28 333.078 796.707 333.964 797.549 334.18Z" fill="#FF008C"/>
<path d="M784.788 340.065C784.088 341.259 782.932 342.105 781.537 342.325C780.148 342.543 778.645 342.02 777.63 340.987C775.235 338.55 774.452 334.723 774.855 331.433C774.958 330.599 774.068 329.879 773.302 329.879C772.378 329.879 771.852 330.596 771.749 331.433C771.477 333.654 771.72 335.968 772.45 338.085C773.167 340.165 774.309 342.336 776.051 343.737C779.69 346.661 785.11 345.657 787.471 341.633C788.484 339.905 785.8 338.34 784.788 340.065Z" fill="#FF008C"/>
<path d="M770.686 332.61C772.58 332.057 774.422 331.29 776.151 330.34C776.864 329.948 777.155 328.907 776.709 328.215C776.243 327.492 775.346 327.239 774.584 327.657C773.817 328.079 773.03 328.46 772.225 328.801L772.596 328.645C771.702 329.019 770.79 329.343 769.86 329.615C769.081 329.843 768.514 330.719 768.775 331.526C769.031 332.316 769.851 332.855 770.686 332.61Z" fill="#FF008C"/>
</svg>
